<?xml version="1.0" encoding="UTF-8" standalone="no"?>
<!-- Created with Inkscape (http://www.inkscape.org/) -->
<svg
   xmlns:dc="http://purl.org/dc/elements/1.1/"
   xmlns:cc="http://creativecommons.org/ns#"
   xmlns:rdf="http://www.w3.org/1999/02/22-rdf-syntax-ns#"
   xmlns:svg="http://www.w3.org/2000/svg"
   xmlns="http://www.w3.org/2000/svg"
   xmlns:sodipodi="http://sodipodi.sourceforge.net/DTD/sodipodi-0.dtd"
   xmlns:inkscape="http://www.inkscape.org/namespaces/inkscape"
   width="453.5433"
   height="340.15747"
   id="svg2"
   sodipodi:version="0.32"
   inkscape:version="0.46"
   sodipodi:docname="unsupervised-word-bag-example.svg"
   version="1.0"
   inkscape:output_extension="org.inkscape.output.svg.inkscape">
  <defs
     id="defs4">
    <inkscape:perspective
       sodipodi:type="inkscape:persp3d"
       inkscape:vp_x="0 : 170.07874 : 1"
       inkscape:vp_y="0 : 1000 : 0"
       inkscape:vp_z="453.5433 : 170.07874 : 1"
       inkscape:persp3d-origin="226.77165 : 113.38582 : 1"
       id="perspective10424" />
  </defs>
  <sodipodi:namedview
     id="base"
     pagecolor="#ffffff"
     bordercolor="#666666"
     borderopacity="1.0"
     gridtolerance="10000"
     guidetolerance="8.8"
     objecttolerance="10"
     inkscape:pageopacity="0.0"
     inkscape:pageshadow="2"
     inkscape:zoom="0.7702315"
     inkscape:cx="271.56338"
     inkscape:cy="83.541794"
     inkscape:document-units="mm"
     inkscape:current-layer="layer1"
     inkscape:window-width="1016"
     inkscape:window-height="376"
     inkscape:window-x="0"
     inkscape:window-y="0"
     width="12.8cm"
     height="9.6cm"
     units="cm"
     showgrid="true"
     grid_units="mm"
     inkscape:object-paths="false"
     inkscape:grid-points="true"
     inkscape:grid-bbox="true"
     inkscape:guide-points="true"
     showguides="true"
     inkscape:guide-bbox="true">
    <sodipodi:guide
       orientation="vertical"
       position="84.390213,132.42772"
       id="guide3573" />
    <sodipodi:guide
       orientation="horizontal"
       position="11.035643"
       id="guide3579" />
    <sodipodi:guide
       orientation="horizontal"
       position="24.018753"
       id="guide3886" />
    <sodipodi:guide
       orientation="horizontal"
       position="285.62841"
       id="guide3988" />
    <sodipodi:guide
       orientation="horizontal"
       position="303.15561"
       id="guide4081" />
    <inkscape:grid
       id="GridFromPre046Settings"
       type="xygrid"
       originx="0px"
       originy="0px"
       spacingx="2mm"
       spacingy="2mm"
       color="#0000ff"
       empcolor="#0000ff"
       opacity="0.2"
       empopacity="0.4"
       empspacing="5" />
  </sodipodi:namedview>
  <metadata
     id="metadata7">
    <rdf:RDF>
      <cc:Work
         rdf:about="">
        <dc:format>image/svg+xml</dc:format>
        <dc:type
           rdf:resource="http://purl.org/dc/dcmitype/StillImage" />
      </cc:Work>
    </rdf:RDF>
  </metadata>
  <g
     inkscape:label="Layer 1"
     inkscape:groupmode="layer"
     id="layer1"
     transform="translate(4.149475e-6,-698.0315)">
    <g
       id="g10339"
       transform="matrix(1.3249762,0,0,1.3249762,180.38437,-51.441495)">
      <path
         id="path9982"
         d="M -91.476828,632.73726 C -96.122808,632.73726 -82.859658,636.44123 -79.142868,639.22882 C -75.471258,641.98253 -71.403258,645.61986 -69.405538,649.61526 C -67.711168,653.00406 -73.363788,656.81936 -75.247938,658.70346 C -78.550778,662.00636 -81.123758,664.24636 -84.985268,667.14246 C -89.641638,670.63476 -92.491598,676.36316 -96.020918,680.77476 C -99.488528,685.10926 -98.646248,692.06326 -96.670068,697.00366 C -93.626108,704.61356 -78.245918,708.13846 -72.002158,710.63596 C -66.391608,712.88016 -54.967518,710.63596 -48.632558,710.63596 C -40.193538,710.63596 -31.754518,710.63596 -23.315498,710.63596 C -16.173938,710.63596 -13.112718,706.17746 -11.630698,700.24946 C -10.184398,694.46426 -10.168138,684.67756 -11.630698,678.82726 C -13.894338,669.77276 -18.622938,661.12796 -26.561278,655.45766 C -35.163908,649.31296 -31.164958,647.72746 -25.912118,642.4746 C -23.266658,639.82914 -21.568028,635.48472 -20.718878,632.08811 C -19.364788,626.67174 -26.886928,625.59655 -30.456208,625.59655 C -37.791978,625.59655 -52.001978,624.22406 -58.369898,620.40331 C -61.440928,618.56069 -71.354318,621.70228 -73.949628,622.99993 C -78.296668,625.17345 -81.403638,627.20817 -84.985268,630.7898 C -87.436838,633.24136 -87.773368,633.47796 -91.476828,632.73726 z"
         style="fill:#ffff00;fill-rule:evenodd;stroke:#000000;stroke-width:1px;stroke-linecap:butt;stroke-linejoin:miter;stroke-opacity:1" />
      <path
         sodipodi:nodetypes="cssssssssssssc"
         id="path9984"
         d="M -60.966518,613.2626 C -64.127158,612.48836 -68.069488,609.29218 -70.703848,614.56091 C -74.118208,621.38962 -76.128408,619.20946 -81.739488,617.80669 C -83.425528,617.38518 -87.336288,626.64926 -88.880198,628.19318 C -93.973188,633.28616 -89.878978,634.11046 -84.985268,635.33389 C -81.108788,636.30301 -76.351998,635.05787 -72.651318,635.98304 C -64.792348,637.94778 -56.974308,639.59886 -48.632558,637.93051 C -47.550638,637.71412 -46.468708,637.49774 -45.386788,637.28135 C -38.142638,635.83252 -44.060038,648.97966 -36.653008,648.97966 C -29.170778,648.97966 -19.420128,628.41015 -22.017188,624.9474 C -24.222068,622.00756 -30.224638,622.35078 -33.701988,622.35078 C -38.182308,622.35078 -42.174918,623.58128 -44.088478,619.75415 C -46.404118,615.12286 -47.468158,614.56091 -52.527498,614.56091 C -55.848128,614.56091 -57.730708,614.55692 -60.966518,613.2626 z"
         style="fill:#808000;fill-rule:evenodd;stroke:#000000;stroke-width:1px;stroke-linecap:butt;stroke-linejoin:miter;stroke-opacity:1" />
      <g
         transform="translate(-175.12065,-221.56403)"
         id="g8812">
        <path
           style="fill:#ff0000;fill-rule:evenodd;stroke:#000000;stroke-width:1px;stroke-linecap:butt;stroke-linejoin:miter;stroke-opacity:1"
           d="M 120.49334,101.4659 C 121.22549,102.68616 118.31386,99.4038 117.96872,98.023237 C 117.69275,96.919385 117.50969,95.590463 117.50969,94.580571 C 117.50969,94.191289 115.39222,96.520414 115.21458,96.875682 C 114.54251,98.219838 114.75556,99.969367 114.75556,101.4659 C 114.75556,102.9935 115.8529,103.95286 116.82116,104.67906 C 117.0022,104.81484 117.14623,105.16667 117.28018,105.36759"
           id="path8760"
           transform="translate(-4.149475e-6,698.0315)" />
        <path
           style="fill:#ff0000;fill-rule:evenodd;stroke:#000000;stroke-width:1px;stroke-linecap:butt;stroke-linejoin:miter;stroke-opacity:1"
           d="M 141.14933,800.18594 C 141.91642,800.76125 143.56555,798.10764 143.90347,797.4318 C 144.69016,795.85841 142.40208,793.95806 144.36249,794.44816 C 145.01636,794.61163 145.75933,797.01233 145.96907,797.4318 C 146.36133,798.21632 145.96907,800.18751 145.96907,801.10398 C 145.96907,801.97059 144.83715,802.41194 144.13298,802.94007"
           id="path8762" />
        <path
           style="fill:#000000;fill-rule:evenodd;stroke:#000000;stroke-width:1px;stroke-linecap:butt;stroke-linejoin:miter;stroke-opacity:1"
           d="M 138.24789,857.33407 C 138.24789,858.06039 138.24789,860.28266 138.24789,861.69478 C 138.24789,862.95398 138.02068,865.12824 137.78887,866.05549 C 137.28048,868.08905 139.64519,867.38261 140.543,867.20305 C 142.34201,866.84324 143.43549,866.90436 144.6742,866.285 C 145.80516,865.71952 147.54863,867.67315 147.88735,868.3506 C 148.7119,869.99969 146.376,871.40139 145.59224,871.79327 C 144.14365,872.51757 142.40066,872.4818 140.77251,872.4818 C 139.0139,872.4818 137.05896,872.18457 135.49375,871.79327 C 134.10157,871.44522 133.51739,871.66585 133.88718,870.18669 C 134.63628,867.19027 135.44581,864.04804 135.95278,861.00625 C 136.23606,859.30653 136.02927,858.78766 136.64131,857.56358"
           id="path8784" />
        <path
           style="fill:#ff0000;fill-rule:evenodd;stroke:#000000;stroke-width:1px;stroke-linecap:butt;stroke-linejoin:miter;stroke-opacity:1"
           d="M 124.39503,129.92528 C 124.25016,130.64963 123.62977,132.98633 123.24747,134.51551 C 122.90921,135.86856 123.01796,137.39911 123.01796,138.87622 C 123.01796,140.94415 122.29795,141.46379 121.41138,143.23693 C 120.56295,144.93379 119.36541,146.51578 118.65725,148.28617 C 118.05493,149.79197 118.05305,151.83666 118.42774,153.33542 C 118.93658,155.37079 119.38096,156.36597 120.72285,158.15515 C 121.98335,159.83581 124.96598,160.05953 126.91965,160.45026 C 129.55227,160.97679 132.46181,161.1388 135.18205,161.1388 C 137.44912,161.1388 137.32762,161.21356 139.31325,160.22075 C 141.22845,159.73964 140.89425,159.19874 142.06738,157.69613 C 143.70424,154.47811 143.37803,153.80609 142.52641,150.35178 C 141.90847,148.11296 142.37425,145.66096 140.4608,144.84351 C 138.71994,143.97308 138.1657,142.89504 138.1657,140.94182 C 138.1657,139.90529 138.39521,138.46652 138.39521,137.26964 C 138.39521,135.56684 138.06352,134.3363 137.70667,132.90893 C 137.63017,132.60291 137.55367,132.2969 137.47716,131.99088 C 137.11228,130.53137 136.60102,129.09105 135.87058,127.63017 C 135.42888,126.74677 135.52945,126.83001 134.95254,126.25311"
           id="path8768"
           transform="translate(-4.149475e-6,698.0315)"
           sodipodi:nodetypes="cssssssssccccsssssc" />
        <path
           style="fill:#ff0000;fill-rule:evenodd;stroke:#000000;stroke-width:1px;stroke-linecap:butt;stroke-linejoin:miter;stroke-opacity:1"
           d="M 133.80498,97.334704 C 132.39424,96.276653 126.58628,98.967246 124.85405,99.400304 C 123.12182,99.833362 122.17583,100.2728 120.95236,101.00688 C 119.48108,101.88965 118.89135,103.29741 117.73921,104.44955 C 116.67517,105.51359 116.06489,107.33915 115.44409,108.58075 C 114.87189,109.72516 114.68529,111.51057 114.29654,112.48244 C 113.91473,113.43695 113.84852,114.50402 113.60801,115.46608 C 113.43449,116.16013 112.25213,117.28098 111.77192,117.76119 C 110.71044,118.82267 110.85387,120.66475 110.85387,122.12191 C 110.85387,123.82998 111.77692,124.88004 112.91947,125.79408 C 114.46831,127.03316 117.28687,127.58695 119.11627,128.31871 C 121.85407,129.41383 124.96713,130.0397 127.83769,130.61382 C 130.56481,131.15924 133.06942,131.30235 135.87058,131.30235 C 137.97943,131.30235 139.82174,130.65883 141.83787,130.15479 C 143.35864,129.7746 144.67523,129.38808 146.19858,129.00724 C 147.76825,128.61482 149.28731,127.49399 150.32978,126.71213 C 151.23607,126.03241 151.64561,125.64623 152.39538,124.64653 C 153.15981,123.62729 153.6147,122.63845 153.31343,121.43337 C 152.83813,119.53217 152.57775,118.00434 151.70685,116.84315 C 150.96233,115.85045 150.81527,115.57193 150.32978,113.62999 C 149.9645,112.16885 148.28737,110.52426 147.34614,109.26928 C 146.27127,107.83612 145.57908,106.81369 144.59201,105.82662 C 143.3902,104.6248 142.74249,103.28856 141.60836,102.15444 C 140.70227,101.24834 139.68507,100.61901 138.62472,100.08884 C 137.0364,99.294679 135.21572,98.392755 133.80498,97.334704 z"
           id="path8752"
           transform="translate(-4.149475e-6,698.0315)"
           sodipodi:nodetypes="czsssssssssssssssssssssss" />
        <path
           style="fill:#ffffff;fill-rule:evenodd;stroke:#000000;stroke-width:1px;stroke-linecap:butt;stroke-linejoin:miter;stroke-opacity:1"
           d="M 115.67361,114.54804 C 116.24242,113.41169 117.79253,110.99872 118.65725,109.26928 C 119.89595,106.79189 120.79005,105.40006 123.24747,104.90857 C 124.97804,104.56246 127.59497,106.12382 128.52623,106.74466 C 129.1456,107.15758 128.98525,109.87672 128.98525,110.87586 C 128.98525,112.73412 128.63559,114.32931 127.83769,115.9251 C 127.02426,117.55197 125.8989,117.32785 124.16552,117.76119 C 122.63791,118.1431 120.29338,117.42432 118.88676,117.07266 C 117.43803,116.71048 115.92611,116.63664 114.98507,115.69559 C 114.66964,115.38016 115.44409,114.93056 115.67361,114.54804 z"
           id="path8744"
           transform="translate(-4.149475e-6,698.0315)" />
        <path
           style="fill:#000000;fill-rule:evenodd;stroke:#000000;stroke-width:1px;stroke-linecap:butt;stroke-linejoin:miter;stroke-opacity:1"
           d="M 123.24747,110.64635 C 122.38421,109.78309 121.18187,112.58998 121.18187,113.62999 C 121.18187,115.07593 122.63701,115.37084 123.93601,115.69559 C 125.82109,116.16687 126.42831,114.4801 126.69014,113.17097 C 126.89366,112.15335 125.54,110.87069 125.08356,109.95782 C 124.65625,109.1032 123.31461,110.59264 123.24747,110.64635 z"
           id="path8746"
           transform="translate(-4.149475e-6,698.0315)" />
        <path
           style="fill:#ffffff;fill-rule:evenodd;stroke:#000000;stroke-width:1px;stroke-linecap:butt;stroke-linejoin:miter;stroke-opacity:1"
           d="M 148.12152,812.7794 C 147.55271,811.64305 146.0026,809.23008 145.13788,807.50064 C 143.89918,805.02325 143.00508,803.63142 140.54766,803.13993 C 138.81709,802.79382 136.20016,804.35518 135.2689,804.97602 C 134.64953,805.38894 134.80988,808.10808 134.80988,809.10722 C 134.80988,810.96548 135.15954,812.56067 135.95744,814.15646 C 136.77087,815.78333 137.89623,815.55921 139.62961,815.99255 C 141.15722,816.37446 143.50175,815.65568 144.90837,815.30402 C 146.3571,814.94184 147.86902,814.868 148.81006,813.92695 C 149.12549,813.61152 148.35104,813.16192 148.12152,812.7794 z"
           id="path8748" />
        <path
           style="fill:#000000;fill-rule:evenodd;stroke:#000000;stroke-width:1px;stroke-linecap:butt;stroke-linejoin:miter;stroke-opacity:1"
           d="M 140.54766,808.87771 C 141.41092,808.01445 142.61326,810.82134 142.61326,811.86135 C 142.61326,813.30729 141.15812,813.6022 139.85912,813.92695 C 137.97404,814.39823 137.36682,812.71146 137.10499,811.40233 C 136.90147,810.38471 138.25513,809.10205 138.71157,808.18918 C 139.13888,807.33456 140.48052,808.824 140.54766,808.87771 z"
           id="path8750" />
        <path
           style="fill:none;fill-rule:evenodd;stroke:#000000;stroke-width:1px;stroke-linecap:butt;stroke-linejoin:miter;stroke-opacity:1"
           d="M 116.59165,119.36777 C 117.49533,120.26127 118.64727,122.16183 118.19823,123.95799 C 118.05461,124.53247 117.73929,124.41693 117.50969,124.64653"
           id="path8754"
           transform="translate(-4.149475e-6,698.0315)" />
        <path
           style="fill:none;fill-rule:evenodd;stroke:#000000;stroke-width:1px;stroke-linecap:butt;stroke-linejoin:miter;stroke-opacity:1"
           d="M 118.42774,122.35142 C 118.00462,124.04388 121.85721,123.08057 123.47698,123.72848 C 124.85084,124.27803 127.17878,124.18751 128.75574,124.18751 C 130.42793,124.18751 131.47917,124.64653 133.11645,124.64653 C 134.47015,124.64653 136.03523,124.87604 137.47716,124.87604 C 139.16024,124.87604 140.84332,124.87604 142.52641,124.87604 C 144.44067,124.87604 144.88768,124.03967 146.4281,123.26946 C 146.67036,123.14833 147.24298,122.86202 147.34614,122.81044"
           id="path8756"
           transform="translate(-4.149475e-6,698.0315)" />
        <path
           style="fill:none;fill-rule:evenodd;stroke:#000000;stroke-width:1px;stroke-linecap:butt;stroke-linejoin:miter;stroke-opacity:1"
           d="M 148.4937,118.90875 C 148.60328,118.85396 146.12755,120.93247 147.80516,123.72848 C 148.3237,124.59272 148.59553,125.43689 149.18223,126.02359"
           id="path8758"
           transform="translate(-4.149475e-6,698.0315)" />
        <path
           style="fill:none;fill-rule:evenodd;stroke:#000000;stroke-width:1px;stroke-linecap:butt;stroke-linejoin:miter;stroke-opacity:1"
           d="M 129.90329,115.9251 C 128.83457,116.26479 128.13196,117.73168 127.83769,118.90875 C 127.46875,120.38453 128.68164,120.89845 129.90329,121.20386 C 130.20931,121.28036 130.51532,121.35687 130.82134,121.43337 C 132.5611,121.86831 133.83977,121.16907 134.72303,120.28582 C 134.83122,120.17762 134.72303,119.9798 134.72303,119.82679"
           id="path8764"
           transform="translate(-4.149475e-6,698.0315)" />
        <path
           style="fill:none;fill-rule:evenodd;stroke:#000000;stroke-width:1px;stroke-linecap:butt;stroke-linejoin:miter;stroke-opacity:1"
           d="M 124.62454,145.99106 C 124.05431,144.85061 128.21917,142.26823 129.44427,141.85986 C 131.44061,141.19442 132.05578,141.02871 133.11645,142.08937 C 134.00356,142.97648 134.97117,143.25556 135.87058,144.15497 C 136.12548,144.40987 136.60078,144.52007 136.78863,144.614"
           id="path8770"
           transform="translate(-4.149475e-6,698.0315)" />
        <path
           style="fill:#ff0000;fill-rule:evenodd;stroke:#000000;stroke-width:1px;stroke-linecap:butt;stroke-linejoin:miter;stroke-opacity:1"
           d="M 123.01796,134.97453 C 123.16198,135.11855 119.65981,135.66306 118.65725,135.66306 C 117.20404,135.66306 116.21069,135.66306 114.75556,135.66306 C 113.28742,135.66306 111.83661,135.20404 110.39485,135.20404 C 108.7745,135.20404 107.14581,135.09826 105.80463,135.43355 C 104.01249,135.88158 103.41745,137.22426 102.59147,138.87622 C 101.77882,140.50151 102.96759,143.71079 103.50952,144.614 C 103.67935,144.89705 108.35638,142.88588 108.78827,142.77791 C 110.08115,142.45469 110.53396,141.88246 111.54241,141.63035 C 112.76485,141.32474 114.33915,140.70378 115.44409,140.48279 C 117.11512,140.14859 118.83024,139.75101 120.49334,139.33524 C 122.00522,138.95727 124.76835,138.15173 125.54258,137.95817"
           id="path8772"
           transform="translate(-4.149475e-6,698.0315)" />
        <path
           style="fill:none;fill-rule:evenodd;stroke:#000000;stroke-width:1px;stroke-linecap:butt;stroke-linejoin:miter;stroke-opacity:1"
           d="M 106.03414,140.02377 C 106.70315,139.85652 106.72267,136.65665 106.72267,135.43355 C 106.72267,133.39075 106.26365,131.52014 106.26365,129.46626 C 106.26365,127.66628 105.11609,126.29063 105.11609,124.41702 C 105.11609,122.58093 105.11609,120.74484 105.11609,118.90875 C 105.11609,117.54292 104.88658,116.03654 104.88658,114.31853 C 104.88658,111.24197 104.49143,112.04897 102.13245,111.10537 C 100.24362,110.34984 99.002527,109.20624 98.23076,107.6627 C 97.447601,106.09639 98.519187,103.885 98.23076,102.15444 C 98.05074,101.07432 98.14896,99.925238 97.771738,99.170793"
           id="path8774"
           transform="translate(-4.149475e-6,698.0315)" />
        <path
           style="fill:none;fill-rule:evenodd;stroke:#000000;stroke-width:1px;stroke-linecap:butt;stroke-linejoin:miter;stroke-opacity:1"
           d="M 104.88658,111.7939 C 104.64368,110.33648 107.83576,111.07385 109.01778,110.18733 C 110.66162,108.95445 110.72188,106.71608 111.08338,104.90857 C 111.40949,103.27803 110.62436,102.14924 110.62436,100.54786 C 110.62436,100.37679 110.47135,100.24184 110.39485,100.08884"
           id="path8776"
           transform="translate(-4.149475e-6,698.0315)" />
        <path
           style="fill:none;fill-rule:evenodd;stroke:#000000;stroke-width:1px;stroke-linecap:butt;stroke-linejoin:miter;stroke-opacity:1"
           d="M 103.96854,99.629815 C 103.96854,98.39623 104.42756,102.06841 104.42756,103.30199 C 104.42756,105.27069 104.65707,107.11306 104.65707,109.03977 C 104.65707,110.21452 104.47315,111.15253 104.19805,112.25293"
           id="path8778"
           transform="translate(-4.149475e-6,698.0315)" />
        <path
           style="fill:none;fill-rule:evenodd;stroke:#000000;stroke-width:1px;stroke-linecap:butt;stroke-linejoin:miter;stroke-opacity:1"
           d="M 106.26365,143.69595 C 106.26365,144.82374 106.03414,147.6996 106.03414,149.66324 C 106.03414,151.70252 106.72267,153.58244 106.72267,155.63053 C 106.72267,157.23547 106.49316,158.03674 106.49316,159.53222 C 106.49316,160.27283 106.33332,160.49123 106.26365,160.90928"
           id="path8780"
           transform="translate(-4.149475e-6,698.0315)" />
        <path
           style="fill:#000000;fill-rule:evenodd;stroke:#000000;stroke-width:1px;stroke-linecap:butt;stroke-linejoin:miter;stroke-opacity:1"
           d="M 123.24747,159.53222 C 123.24747,160.25854 123.24747,162.48081 123.24747,163.89293 C 123.24747,165.15213 123.47468,167.32639 123.70649,168.25364 C 124.21488,170.2872 121.85017,169.58076 120.95236,169.4012 C 119.15335,169.04139 118.05987,169.10251 116.82116,168.48315 C 115.6902,167.91767 113.94673,169.8713 113.60801,170.54875 C 112.78346,172.19784 115.11936,173.59954 115.90312,173.99142 C 117.35171,174.71572 119.0947,174.67995 120.72285,174.67995 C 122.48146,174.67995 124.4364,174.38272 126.00161,173.99142 C 127.39379,173.64337 127.97797,173.864 127.60818,172.38484 C 126.85908,169.38842 126.04955,166.24619 125.54258,163.2044 C 125.2593,161.50468 125.46609,160.98581 124.85405,159.76173"
           id="path8782"
           transform="translate(-4.149475e-6,698.0315)" />
        <path
           style="fill:#ff0000;fill-rule:evenodd;stroke:#000000;stroke-width:1px;stroke-linecap:butt;stroke-linejoin:miter;stroke-opacity:1"
           d="M 137.94941,831.79592 C 137.75328,831.85084 140.53874,834.04239 141.41255,834.53391 C 142.67913,835.24635 143.54491,835.73335 144.81317,836.44674 C 146.09277,837.16651 147.5823,837.47771 148.8389,838.18454 C 150.25116,838.97893 151.72255,839.68522 152.72712,840.63497 C 154.06945,841.90408 153.92982,843.36605 153.83983,845.21081 C 153.75131,847.02578 151.14183,849.24011 150.22669,849.76164 C 149.9399,849.92508 146.8495,845.87924 146.52601,845.5734 C 145.55763,844.65784 145.44351,843.9371 144.68816,843.22297 C 143.77254,842.35729 142.70485,841.04427 141.85015,840.30995 C 140.55756,839.19943 139.25762,838.01206 138.01193,836.83434 C 136.87952,835.76369 134.86616,833.70696 134.28625,833.15868"
           id="path8786"
           inkscape:transform-center-x="-7.9897732"
           inkscape:transform-center-y="8.6932073" />
      </g>
      <g
         transform="matrix(0.2655849,0.9640875,-0.6242601,0.1719699,385.92851,361.6437)"
         id="g9921">
        <path
           style="fill:#ff0000;fill-rule:evenodd;stroke:#000000;stroke-width:1px;stroke-linecap:butt;stroke-linejoin:miter;stroke-opacity:1"
           d="M 122.92158,744.43305 C 121.9447,744.48245 119.7816,743.51501 117.87234,743.51501 C 116.32534,743.51501 114.90426,743.05598 113.28211,743.05598 C 111.42553,743.05598 110.14954,743.23381 108.46238,743.51501 C 106.99673,743.75928 105.94472,744.71472 104.7902,745.58061 C 103.61924,746.45883 102.04605,746.95019 101.11802,747.64621 C 99.88102,748.57396 99.09374,750.0882 98.36389,751.5479 C 97.5813,753.11308 97.20135,754.36197 96.75731,756.13812 C 96.2321,758.23898 96.5278,761.30738 96.5278,763.48247 C 96.5278,765.35679 96.45352,765.01477 97.44585,766.0071 C 98.20139,766.76264 98.58739,768.04866 98.82291,768.99074 C 99.16403,770.35523 102.2197,769.33041 102.49509,769.22025 C 104.18366,768.54482 105.83266,767.15079 107.54433,766.46612 C 108.77136,765.97531 110.47295,766.33761 111.90505,766.69563 C 113.11669,766.99854 114.79302,767.15465 116.26576,767.15465 C 117.58521,767.15465 118.62814,767.62489 119.93794,767.84319 C 121.53607,768.10954 122.198,768.94213 123.83962,768.53172 C 124.40268,768.39096 126.09691,766.08276 126.36425,765.54808 C 127.30705,763.66246 127.62721,762.10148 127.97082,760.03981 C 128.2111,758.59815 127.97082,756.92182 127.97082,755.44959 C 127.97082,753.97815 126.75711,752.10411 126.13474,750.85936 C 125.35287,749.29564 124.63092,747.85172 123.83962,746.26914 C 122.35732,743.30452 125.78451,749.20461 122.92158,744.43305 z"
           id="path8841" />
        <path
           style="fill:#0000ff;fill-rule:evenodd;stroke:#000000;stroke-width:1px;stroke-linecap:butt;stroke-linejoin:miter;stroke-opacity:1"
           d="M 128.42985,772.2039 C 127.88724,771.11868 128.38921,763.645 128.88887,761.64639 C 129.42462,759.50338 129.11838,756.77889 129.11838,754.53154 C 129.11838,752.64628 127.7934,749.9283 129.5774,749.4823 C 131.00675,749.12496 134.04143,751.29735 135.54469,751.5479 C 137.19243,751.82252 138.17451,751.72481 139.44638,751.08887 C 140.92281,750.35066 141.79645,749.64069 143.34807,749.25279 C 143.65408,749.17628 143.9601,749.09978 144.26611,749.02327 C 145.81952,748.63492 147.17033,748.16702 148.62683,747.87572 C 149.88029,747.62503 151.4763,747.87572 152.75803,747.87572 C 154.414,747.87572 154.90634,747.9095 155.74167,749.02327 C 156.76786,750.39153 156.98586,752.9008 156.65971,754.53154 C 156.59785,754.84085 156.50671,755.14357 156.4302,755.44959 C 156.02734,757.06105 155.97118,758.73339 155.97118,760.49883 C 155.97118,762.48441 156.13609,764.72354 155.74167,766.69563 C 155.44404,768.18378 154.98986,768.4486 153.44656,769.22025 C 151.68234,770.10236 149.9069,770.33468 147.93829,770.82683 C 146.13987,771.27644 144.36354,771.54839 142.65954,771.97439 C 141.26056,772.32413 139.73241,772.6535 138.29883,772.89243 C 136.48209,773.19522 134.8253,773.81048 132.79056,773.81048 C 131.87251,773.81048 130.95447,773.81048 130.03642,773.81048"
           id="path8843" />
        <path
           style="fill:none;fill-rule:evenodd;stroke:#000000;stroke-width:7.08661413;stroke-linecap:butt;stroke-linejoin:miter;stroke-miterlimit:4;stroke-dasharray:none;stroke-opacity:1"
           d="M 96.06879,750.62985 C 96.64906,749.4073 97.85825,748.25495 99.28194,747.18719 C 101.49257,745.52922 104.52476,744.53923 107.08532,743.51501 C 109.41163,742.58449 111.47243,741.90843 113.97066,741.90843 C 115.87999,741.90843 117.64874,742.94418 119.24941,743.74452 C 121.25354,744.74658 123.4321,745.98901 125.2167,747.4167 C 127.45594,749.20809 130.89275,750.61956 133.70861,751.08887 C 137.47319,751.7163 140.41171,751.37913 144.03661,750.17083 C 147.0565,749.1642 150.07382,748.35268 152.98755,747.18719 C 154.20009,746.70217 155.8048,745.86405 156.65972,745.3511"
           id="path8792" />
        <path
           style="fill:#00ff00;fill-rule:evenodd;stroke:#000000;stroke-width:1px;stroke-linecap:butt;stroke-linejoin:miter;stroke-opacity:1"
           d="M 156.43021,771.28585 C 156.119,770.04103 155.43159,769.41253 153.44656,769.90878 C 151.5431,770.38465 149.83993,770.81044 147.9383,771.28585 C 146.51733,771.64109 144.96175,771.62834 143.57758,771.97438 C 142.00315,772.36799 139.6816,771.86106 138.29883,771.51536 C 136.84056,771.15079 135.17162,771.6516 133.70861,771.28585 C 132.44792,770.97068 130.9547,771.45793 129.80692,771.74487 C 129.65848,771.78198 129.5009,771.74487 129.34789,771.74487 C 128.0674,771.74487 127.63768,774.52859 127.28229,775.41705 C 126.58741,777.15426 126.6116,779.47689 126.13474,781.38434 C 125.68998,783.16338 125.90523,785.26202 125.90523,787.12212 C 125.90523,788.88729 126.40637,789.25791 127.05278,790.33527 C 127.69257,791.40158 128.54528,792.05728 129.34789,792.8599 C 130.93108,794.44309 133.06838,795.29392 135.08567,796.30256 C 137.33112,797.42529 140.92362,797.82672 143.34807,797.22061 C 145.72838,796.62553 147.79358,797.03202 149.77438,795.84354 C 150.95658,795.13422 151.81832,792.68454 152.29901,791.48283 C 153.0044,789.71934 154.63507,788.33538 155.05314,786.6631 C 155.54943,784.67792 154.74622,781.92348 155.28265,779.77776 C 155.81734,777.63902 155.98851,776.07094 156.88923,774.2695 C 157.25973,773.52849 156.65526,771.84848 156.43021,771.28585 z"
           id="path8847" />
        <path
           style="fill:#ffff00;fill-rule:evenodd;stroke:#000000;stroke-width:1px;stroke-linecap:butt;stroke-linejoin:miter;stroke-opacity:1"
           d="M 126.59376,780.69581 C 125.20822,780.69581 127.05278,777.95015 127.05278,776.56461 C 127.05278,774.6637 126.29917,773.19961 125.67571,771.74488 C 125.04231,770.26694 123.87616,770.0152 122.46256,769.44976 C 121.40527,769.02685 119.9203,767.92441 119.01989,767.38416 C 117.77003,766.63425 116.15469,766.14628 114.65918,765.54808 C 113.07687,764.91515 111.62315,764.52775 109.83945,764.17101 C 108.3654,763.8762 107.42255,764.94541 106.62629,766.0071 C 105.98724,766.85916 104.30041,767.62906 103.41313,768.0727 C 101.85964,768.84944 100.41993,769.91834 99.51145,770.82683 C 98.28275,772.05553 97.51707,773.66804 96.75731,775.18754 C 95.83817,777.02583 95.3319,778.41292 94.92122,780.4663 C 94.6391,781.8769 94.80054,783.65572 95.15073,785.05652 C 95.53014,786.57413 95.70005,787.99125 96.29829,789.18772 C 96.73483,790.0608 98.49837,790.31152 99.51145,790.56479 C 101.07832,790.95651 102.39028,791.48283 103.41313,791.48283 C 104.23781,791.48283 105.49512,790.32708 106.39678,789.87625 C 108.13057,789.00936 109.39852,788.17425 111.21651,787.81065 C 112.25986,787.60198 114.59523,788.79492 115.57722,789.18772 C 116.83199,789.68963 118.60127,789.37941 119.93794,789.64674 C 121.47922,789.955 122.44451,791.01298 123.61011,791.71234 C 125.48854,792.8394 127.53099,792.00865 128.20034,790.33528 C 129.04535,788.22275 128.03874,784.86916 127.5118,782.76141 C 127.1741,781.41059 127.44458,782.11385 126.59376,780.69581 z"
           id="path8845" />
        <path
           style="fill:none;fill-rule:evenodd;stroke:#000000;stroke-width:7.08661413;stroke-linecap:butt;stroke-linejoin:miter;stroke-miterlimit:4;stroke-dasharray:none;stroke-opacity:1"
           d="M 96.52781,796.14788 C 97.10808,794.92533 98.31727,793.77298 99.74096,792.70521 C 101.95159,791.04725 104.98378,790.05726 107.54434,789.03303 C 109.87065,788.10251 111.93145,787.42646 114.42968,787.42646 C 116.33901,787.42646 118.10776,788.46221 119.70843,789.26255 C 121.71256,790.26461 123.89112,791.50704 125.67572,792.93472 C 127.91496,794.72612 131.35177,796.13759 134.16763,796.6069 C 137.93221,797.23433 140.87073,796.89716 144.49563,795.68886 C 147.51552,794.68223 150.53284,793.87071 153.44657,792.70521 C 154.65911,792.22019 156.26382,791.38208 157.11874,790.86912"
           id="path8794" />
        <path
           style="fill:none;fill-rule:evenodd;stroke:#000000;stroke-width:7.08661413;stroke-linecap:butt;stroke-linejoin:miter;stroke-miterlimit:4;stroke-dasharray:none;stroke-opacity:1"
           d="M 96.75732,773.42627 C 97.33759,772.20372 98.54678,771.05137 99.97047,769.9836 C 102.1811,768.32564 105.21329,767.33565 107.77385,766.31142 C 110.10016,765.3809 112.16096,764.70485 114.65919,764.70485 C 116.56852,764.70485 118.33727,765.7406 119.93794,766.54094 C 121.94207,767.543 124.12063,768.78543 125.90523,770.21311 C 128.14447,772.00451 131.58128,773.41598 134.39714,773.88529 C 138.16172,774.51272 141.10024,774.17555 144.72514,772.96725 C 147.74503,771.96062 150.76235,771.1491 153.67608,769.9836 C 154.88862,769.49858 156.49333,768.66047 157.34825,768.14751"
           id="path8796" />
        <path
           style="fill:none;fill-rule:evenodd;stroke:#000000;stroke-width:7.11408663;stroke-linecap:butt;stroke-linejoin:miter;stroke-miterlimit:4;stroke-dasharray:none;stroke-opacity:1"
           d="M 96.08253,747.65995 L 96.74358,795.60029"
           id="path8798" />
        <path
           style="fill:none;fill-rule:evenodd;stroke:#000000;stroke-width:7.11535168;stroke-linecap:butt;stroke-linejoin:miter;stroke-miterlimit:4;stroke-dasharray:none;stroke-opacity:1"
           d="M 156.44458,742.38183 L 156.64535,794.2226"
           id="path8800" />
        <path
           style="fill:none;fill-rule:evenodd;stroke:#000000;stroke-width:7.08661413;stroke-linecap:butt;stroke-linejoin:miter;stroke-miterlimit:4;stroke-dasharray:none;stroke-opacity:1"
           d="M 126.82328,749.02327 L 126.59377,793.77794"
           id="path8802" />
      </g>
      <g
         inkscape:transform-center-x="7.3791305"
         transform="matrix(0.9069227,0.4212971,-0.4212971,0.9069227,225.64334,-123.13246)"
         id="g9994">
        <path
           style="fill:#000000;fill-rule:evenodd;stroke:#000000;stroke-width:1px;stroke-linecap:butt;stroke-linejoin:miter;stroke-opacity:1"
           d="M 64.02895,754.01887 C 56.63637,767.93441 68.2301,785.77309 66.18484,789.86361 C 62.54749,797.13831 58.31892,799.46039 55.67544,807.39081 C 53.24444,817.78488 58.4635,828.17801 61.59462,828.67175 C 66.65423,831.20155 73.64087,830.82134 79.12182,831.91753 C 83.45743,832.78465 88.09563,832.56668 92.75408,832.56668 C 97.26228,832.56668 100.52842,829.98558 103.14057,827.37344 C 105.34348,820.66178 104.09835,814.35414 99.40793,804.81529 C 98.61247,801.77571 93.18233,790.22707 88.85915,788.26182 C 86.29759,784.84641 95.77847,771.59767 90.96891,757.75151 C 77.73051,744.90669 74.45765,744.89427 64.02895,754.01887 z"
           id="path8726"
           sodipodi:nodetypes="csccssccccc" />
        <path
           style="fill:#ffff00;fill-rule:evenodd;stroke:#000000;stroke-width:1px;stroke-linecap:butt;stroke-linejoin:miter;stroke-opacity:1"
           d="M 71.81882,770.73463 C 69.17077,768.74859 78.31037,772.03294 81.55615,772.68209 C 87.55045,773.88095 88.61257,775.363 84.80193,779.17365 C 82.14229,781.83329 78.91055,784.40362 76.36291,786.31436 C 73.0414,788.80549 71.60141,783.28292 70.52051,781.12111 C 69.34002,778.76014 66.70052,776.65197 65.32727,775.27871 C 63.08726,773.03871 69.38164,772.68437 71.81882,770.73463 z"
           id="path8728" />
        <path
           style="fill:#f9f9f9;fill-rule:evenodd;stroke:#000000;stroke-width:1px;stroke-linecap:butt;stroke-linejoin:miter;stroke-opacity:1"
           d="M 66.13871,813.74117 C 67.71067,810.59724 69.39248,807.88279 70.6828,805.30215 C 72.57271,801.52232 74.25171,800.3527 77.82351,799.45975 C 81.71546,798.48676 84.59453,800.24864 86.91168,801.40722 C 88.65778,802.28027 90.41154,812.16086 90.80662,813.74117 C 91.13084,817.0063 93.15415,829.41782 89.01666,830.35033 C 85.6942,831.18094 81.20325,831.8019 77.67275,830.3897 C 74.70447,829.20239 70.70939,829.48984 67.43702,828.67175 C 59.79296,828.19397 64.12521,819.73684 66.13871,813.74117 z"
           id="path8730"
           sodipodi:nodetypes="csssccscc" />
        <path
           sodipodi:type="arc"
           style="fill:#f9f9f9;fill-opacity:1;fill-rule:nonzero;stroke:#000000;stroke-width:3.54330707;stroke-linecap:butt;stroke-linejoin:miter;stroke-miterlimit:4;stroke-dasharray:none;stroke-dashoffset:0;stroke-opacity:1"
           id="path8732"
           sodipodi:cx="81.469009"
           sodipodi:cy="117.49714"
           sodipodi:rx="7.4652882"
           sodipodi:ry="7.789866"
           d="M 88.934298,117.49714 A 7.4652882,7.789866 0 1 1 74.003721,117.49714 A 7.4652882,7.789866 0 1 1 88.934298,117.49714 z"
           transform="translate(-12.89597,646.74592)" />
        <path
           sodipodi:type="arc"
           style="fill:#f9f9f9;fill-opacity:1;fill-rule:nonzero;stroke:#000000;stroke-width:3.54330707;stroke-linecap:butt;stroke-linejoin:miter;stroke-miterlimit:4;stroke-dasharray:none;stroke-dashoffset:0;stroke-opacity:1"
           id="path8734"
           sodipodi:cx="81.469009"
           sodipodi:cy="117.49714"
           sodipodi:rx="7.4652882"
           sodipodi:ry="7.789866"
           d="M 88.934298,117.49714 A 7.4652882,7.789866 0 1 1 74.003721,117.49714 A 7.4652882,7.789866 0 1 1 88.934298,117.49714 z"
           transform="translate(2.52148,646.74593)" />
        <path
           sodipodi:type="arc"
           style="fill:#000000;fill-opacity:1;fill-rule:nonzero;stroke:#000000;stroke-width:3.54330707;stroke-linecap:butt;stroke-linejoin:miter;stroke-miterlimit:4;stroke-dasharray:none;stroke-dashoffset:0;stroke-opacity:1"
           id="path8788"
           sodipodi:cx="166.51031"
           sodipodi:cy="120.63008"
           sodipodi:rx="1.2623112"
           sodipodi:ry="1.4918222"
           d="M 167.77263,120.63008 A 1.2623112,1.4918222 0 1 1 165.248,120.63008 A 1.2623112,1.4918222 0 1 1 167.77263,120.63008 z"
           transform="translate(-97.86812,644.1147)" />
        <path
           sodipodi:type="arc"
           style="fill:#000000;fill-opacity:1;fill-rule:nonzero;stroke:#000000;stroke-width:3.54330707;stroke-linecap:butt;stroke-linejoin:miter;stroke-miterlimit:4;stroke-dasharray:none;stroke-dashoffset:0;stroke-opacity:1"
           id="path8790"
           sodipodi:cx="166.51031"
           sodipodi:cy="120.63008"
           sodipodi:rx="1.2623112"
           sodipodi:ry="1.4918222"
           d="M 167.77263,120.63008 A 1.2623112,1.4918222 0 1 1 165.248,120.63008 A 1.2623112,1.4918222 0 1 1 167.77263,120.63008 z"
           transform="translate(-82.37611,643.99995)" />
      </g>
      <g
         transform="translate(125.23291,-298.77382)"
         id="g9986">
        <path
           style="fill:#ff9955;fill-rule:evenodd;stroke:#000000;stroke-width:1px;stroke-linecap:butt;stroke-linejoin:miter;stroke-opacity:1"
           d="M -216.74725,931.13267 C -221.39323,931.13267 -208.13008,934.83664 -204.41329,937.62423 C -200.74168,940.37795 -196.67368,944.01528 -194.67596,948.01072 C -192.98159,951.39945 -198.63421,955.21474 -200.51836,957.0989 C -203.8212,960.40174 -206.39418,962.64178 -210.25569,965.53792 C -214.91206,969.0302 -217.76202,974.75854 -221.29134,979.17018 C -224.75895,983.50471 -223.91667,990.45864 -221.94049,995.39908 C -218.89653,1003.009 -203.51634,1006.5338 -197.27258,1009.0313 C -191.66203,1011.2756 -180.23794,1009.0313 -173.90298,1009.0313 C -165.46396,1009.0313 -157.02494,1009.0313 -148.58592,1009.0313 C -141.44436,1009.0313 -138.38314,1004.5729 -136.90112,998.64484 C -135.45482,992.85965 -135.43856,983.07297 -136.90112,977.22271 C -139.16476,968.16818 -143.89336,959.52337 -151.8317,953.85312 C -160.43433,947.70838 -156.43538,946.12284 -151.18254,940.87002 C -148.53708,938.22456 -146.83845,933.88014 -145.9893,930.48353 C -144.63521,925.06716 -164.4913,957.0989 -162.86734,940.87001 C -162.13693,933.5707 -169.48253,940.14667 -175.85045,936.32592 C -178.92148,934.48331 -188.18572,933.72996 -190.78103,935.02761 C -195.12807,937.20114 -206.67406,925.60358 -210.25569,929.18521 C -212.70726,931.63677 -213.04379,931.87338 -216.74725,931.13267 z"
           id="path9988"
           sodipodi:nodetypes="cssssssssssssssssssc" />
        <path
           style="fill:none;fill-rule:evenodd;stroke:#000000;stroke-width:1px;stroke-linecap:butt;stroke-linejoin:miter;stroke-opacity:1"
           d="M -189.01244,942.70902 C -186.95836,945.88123 -187.83601,955.0032 -189.01244,960.88538"
           id="path9990" />
        <path
           style="fill:none;fill-rule:evenodd;stroke:#000000;stroke-width:1px;stroke-linecap:butt;stroke-linejoin:miter;stroke-opacity:1"
           d="M -165.64284,943.35818 C -165.85151,945.38591 -165.96128,951.16033 -164.34453,954.39382 C -162.60422,957.87446 -159.44997,959.35011 -155.90551,960.23622"
           id="path9992" />
      </g>
      <text
         id="text5093"
         y="692.13501"
         x="-106.02872"
         style="font-size:18px;font-style:normal;font-weight:bold;writing-mode:lr-tb;fill:#000000;fill-opacity:1;stroke:none;stroke-width:1px;stroke-linecap:butt;stroke-linejoin:miter;stroke-opacity:1;font-family:Sans;-inkscape-font-specification:Sans"
         xml:space="preserve"><tspan
           y="692.13501"
           x="-106.02872"
           id="tspan5095"
           sodipodi:role="line">Portability</tspan></text>
    </g>
    <g
       id="g10136"
       transform="matrix(1.3019404,0,0,1.3019404,736.77381,-202.19612)">
      <g
         id="g10086">
        <path
           style="fill:#ffff00;fill-rule:evenodd;stroke:#000000;stroke-width:1px;stroke-linecap:butt;stroke-linejoin:miter;stroke-opacity:1"
           d="M -332.43596,763.27141 C -337.08194,763.27141 -323.81879,766.97531 -320.102,769.76291 C -316.43039,772.51661 -312.36239,776.15401 -310.36467,780.14941 C -308.6703,783.53811 -314.32292,787.35341 -316.20707,789.23761 C -319.50991,792.54041 -322.08289,794.78051 -325.9444,797.67661 C -330.60077,801.16891 -333.45073,806.89721 -336.98005,811.30891 C -340.44766,815.64341 -339.60538,822.59731 -337.6292,827.53781 C -334.58524,835.14761 -319.20505,838.67251 -312.96129,841.17001 C -307.35074,843.41421 -295.92665,841.17001 -289.59169,841.17001 C -281.15267,841.17001 -272.71365,841.17001 -264.27463,841.17001 C -257.13307,841.17001 -254.07185,836.71151 -252.58983,830.78351 C -251.14353,824.99831 -251.12727,815.21171 -252.58983,809.36141 C -254.85347,800.30691 -259.58207,791.66211 -267.52041,785.99181 C -276.12304,779.84711 -272.12409,778.26151 -266.87125,773.00871 C -264.22579,770.36321 -262.52716,766.01881 -261.67801,762.62221 C -260.32392,757.20581 -267.84606,756.13071 -271.41534,756.13071 C -278.75111,756.13071 -292.96111,754.75821 -299.32903,750.93742 C -302.40006,749.0948 -312.31345,752.23641 -314.90876,753.53401 C -319.2558,755.70761 -322.36277,757.74231 -325.9444,761.32391 C -328.39597,763.77551 -328.7325,764.01211 -332.43596,763.27141 z"
           id="path10031" />
        <path
           style="fill:#808000;fill-rule:evenodd;stroke:#000000;stroke-width:1px;stroke-linecap:butt;stroke-linejoin:miter;stroke-opacity:1"
           d="M -301.92565,743.79671 C -305.08629,743.02247 -309.02862,739.82629 -311.66298,745.09502 C -315.07734,751.92373 -317.08754,749.74357 -322.69862,748.3408 C -324.38466,747.91929 -328.29542,757.18341 -329.83933,758.72731 C -334.93232,763.82031 -330.83811,764.64461 -325.9444,765.86801 C -322.06792,766.83711 -317.31113,765.59201 -313.61045,766.51711 C -305.75148,768.48191 -297.93344,770.13301 -289.59169,768.46461 C -288.50977,768.24821 -287.42784,768.03181 -286.34592,767.81551 C -279.10177,766.36661 -285.01917,779.51381 -277.61214,779.51381 C -270.12991,779.51381 -260.37926,758.94431 -262.97632,755.48151 C -265.1812,752.54171 -271.18377,752.88491 -274.66112,752.88491 C -279.14144,752.88491 -283.13405,754.11541 -285.04761,750.28826 C -287.36325,745.65697 -288.42729,745.09502 -293.48663,745.09502 C -296.80726,745.09502 -298.68984,745.09103 -301.92565,743.79671 z"
           id="path10033"
           sodipodi:nodetypes="cssssssssssssc" />
        <g
           id="g10043"
           transform="matrix(-0.110666,-0.8619399,-0.6252636,0.1525555,308.90709,879.87779)">
          <g
             transform="translate(-4.6151316,-62.797387)"
             id="g10415">
            <g
               id="g10372"
               transform="translate(-52.461302,177.20181)">
              <g
                 transform="translate(175.54239,-51.328181)"
                 id="g8578">
                <g
                   id="g8554"
                   transform="matrix(0.6869423,-0.726712,0.726712,0.6869423,-606.64287,330.73117)"
                   inkscape:transform-center-x="-17.230859"
                   inkscape:transform-center-y="-9.4055005">
                  <path
                     transform="translate(-4.149475e-6,698.0315)"
                     id="path8556"
                     d="M 173.97367,202.53651 C 177.0869,202.75366 184.66943,201.96467 189.5534,203.18566 C 193.49762,204.17172 196.62765,202.15319 195.3958,207.0806 C 194.64024,210.10285 191.50745,209.67722 188.25509,209.67722 C 185.03913,209.67722 181.81734,209.02806 177.8686,209.02806 C 172.35413,209.02806 175.01509,207.74359 173.97367,202.53651 z"
                     style="fill:#999999;fill-rule:evenodd;stroke:#000000;stroke-width:1px;stroke-linecap:butt;stroke-linejoin:miter;stroke-opacity:1" />
                  <path
                     transform="translate(-4.149475e-6,698.0315)"
                     id="path8558"
                     d="M 194.74664,203.18566 C 188.10353,203.18566 204.52384,206.69908 209.67722,207.72975 C 214.75966,208.74624 217.1526,210.3062 215.51962,213.57215 C 213.43903,217.73333 210.8422,215.77753 207.72975,214.22131 C 204.30762,212.51024 201.65915,211.89221 197.99242,210.97553 C 194.55945,210.11729 192.58383,210.53862 193.44833,207.0806 C 193.52255,206.78372 193.8811,206.64783 194.09749,206.43144 C 194.87768,205.65125 194.53026,204.26759 194.74664,203.18566 z"
                     style="fill:#999999;fill-rule:evenodd;stroke:#000000;stroke-width:1px;stroke-linecap:butt;stroke-linejoin:miter;stroke-opacity:1" />
                  <path
                     transform="translate(-4.149475e-6,698.0315)"
                     id="path8560"
                     d="M 216.16878,212.27384 C 218.28717,210.15545 219.05894,220.837 218.7654,222.01117 C 217.64553,226.49064 216.16878,225.41881 216.16878,221.36202 C 216.16878,216.67139 214.47406,217.358 216.16878,212.27384 z"
                     style="fill:#999999;fill-rule:evenodd;stroke:#000000;stroke-width:1px;stroke-linecap:butt;stroke-linejoin:miter;stroke-opacity:1" />
                </g>
                <g
                   id="g8562"
                   transform="matrix(0.9361058,-0.3517186,0.3517186,0.9361058,-277.10532,65.337672)"
                   inkscape:transform-center-x="-18.664832"
                   inkscape:transform-center-y="-2.5626269">
                  <path
                     transform="translate(-4.149475e-6,698.0315)"
                     id="path8564"
                     d="M 173.97367,202.53651 C 177.0869,202.75366 184.66943,201.96467 189.5534,203.18566 C 193.49762,204.17172 196.62765,202.15319 195.3958,207.0806 C 194.64024,210.10285 191.50745,209.67722 188.25509,209.67722 C 185.03913,209.67722 181.81734,209.02806 177.8686,209.02806 C 172.35413,209.02806 175.01509,207.74359 173.97367,202.53651 z"
                     style="fill:#999999;fill-rule:evenodd;stroke:#000000;stroke-width:1px;stroke-linecap:butt;stroke-linejoin:miter;stroke-opacity:1" />
                  <path
                     transform="translate(-4.149475e-6,698.0315)"
                     id="path8566"
                     d="M 194.74664,203.18566 C 188.10353,203.18566 204.52384,206.69908 209.67722,207.72975 C 214.75966,208.74624 217.1526,210.3062 215.51962,213.57215 C 213.43903,217.73333 210.8422,215.77753 207.72975,214.22131 C 204.30762,212.51024 201.65915,211.89221 197.99242,210.97553 C 194.55945,210.11729 192.58383,210.53862 193.44833,207.0806 C 193.52255,206.78372 193.8811,206.64783 194.09749,206.43144 C 194.87768,205.65125 194.53026,204.26759 194.74664,203.18566 z"
                     style="fill:#999999;fill-rule:evenodd;stroke:#000000;stroke-width:1px;stroke-linecap:butt;stroke-linejoin:miter;stroke-opacity:1" />
                  <path
                     transform="translate(-4.149475e-6,698.0315)"
                     id="path8568"
                     d="M 216.16878,212.27384 C 218.28717,210.15545 219.05894,220.837 218.7654,222.01117 C 217.64553,226.49064 216.16878,225.41881 216.16878,221.36202 C 216.16878,216.67139 214.47406,217.358 216.16878,212.27384 z"
                     style="fill:#999999;fill-rule:evenodd;stroke:#000000;stroke-width:1px;stroke-linecap:butt;stroke-linejoin:miter;stroke-opacity:1" />
                </g>
                <path
                   style="fill:#ffff00;fill-rule:evenodd;stroke:#000000;stroke-width:1px;stroke-linecap:butt;stroke-linejoin:miter;stroke-opacity:1"
                   d="M 168.43702,816.64349 C 166.88119,817.44619 159.57768,816.79692 156.54624,817.66505 C 152.78577,818.74198 148.27559,818.35046 145.23236,818.38898 C 142.16877,818.42778 137.90055,819.35282 134.79303,819.39216 C 130.19104,819.45044 123.70639,821.19482 119.44085,822.19957 C 115.42387,823.14575 111.44109,824.13549 107.58684,826.12401 C 101.53481,829.24642 102.07269,830.18243 103.65879,836.91612 C 104.43193,840.19839 109.6593,841.72336 111.5664,842.33234 C 115.40798,843.55905 119.59079,845.85844 122.65616,846.83728 C 126.56397,848.08514 128.31443,849.24056 132.27608,849.90915 C 135.89236,850.51947 141.12862,853.13695 144.51964,853.81881 C 148.67766,854.6549 152.69795,856.51571 156.46554,857.15157 C 161.05451,857.92603 165.26411,860.08481 169.28599,860.76359 C 173.90771,861.54357 178.7842,862.83286 182.68335,864.07795 C 186.62815,865.33762 192.10214,862.17519 195.13265,861.3073 C 198.46377,860.35335 200.77861,857.81014 203.19087,855.68893 C 205.70607,853.47718 207.15025,852.23691 208.92312,849.80966 C 210.13391,848.15194 212.0115,847.05791 213.2223,845.4002"
                   id="path8517" />
                <g
                   id="g8570"
                   transform="matrix(0.8626047,-0.5058784,0.5058784,0.8626047,-418.58914,137.91099)"
                   inkscape:transform-center-x="-18.530437"
                   inkscape:transform-center-y="-5.3357144">
                  <path
                     transform="translate(-4.149475e-6,698.0315)"
                     id="path8572"
                     d="M 173.97367,202.53651 C 177.0869,202.75366 184.66943,201.96467 189.5534,203.18566 C 193.49762,204.17172 196.62765,202.15319 195.3958,207.0806 C 194.64024,210.10285 191.50745,209.67722 188.25509,209.67722 C 185.03913,209.67722 181.81734,209.02806 177.8686,209.02806 C 172.35413,209.02806 175.01509,207.74359 173.97367,202.53651 z"
                     style="fill:#999999;fill-rule:evenodd;stroke:#000000;stroke-width:1px;stroke-linecap:butt;stroke-linejoin:miter;stroke-opacity:1" />
                  <path
                     transform="translate(-4.149475e-6,698.0315)"
                     id="path8574"
                     d="M 194.74664,203.18566 C 188.10353,203.18566 204.52384,206.69908 209.67722,207.72975 C 214.75966,208.74624 217.1526,210.3062 215.51962,213.57215 C 213.43903,217.73333 210.8422,215.77753 207.72975,214.22131 C 204.30762,212.51024 201.65915,211.89221 197.99242,210.97553 C 194.55945,210.11729 192.58383,210.53862 193.44833,207.0806 C 193.52255,206.78372 193.8811,206.64783 194.09749,206.43144 C 194.87768,205.65125 194.53026,204.26759 194.74664,203.18566 z"
                     style="fill:#999999;fill-rule:evenodd;stroke:#000000;stroke-width:1px;stroke-linecap:butt;stroke-linejoin:miter;stroke-opacity:1" />
                  <path
                     transform="translate(-4.149475e-6,698.0315)"
                     id="path8576"
                     d="M 216.16878,212.27384 C 218.28717,210.15545 219.05894,220.837 218.7654,222.01117 C 217.64553,226.49064 216.16878,225.41881 216.16878,221.36202 C 216.16878,216.67139 214.47406,217.358 216.16878,212.27384 z"
                     style="fill:#999999;fill-rule:evenodd;stroke:#000000;stroke-width:1px;stroke-linecap:butt;stroke-linejoin:miter;stroke-opacity:1" />
                </g>
                <path
                   style="fill:#800080;fill-rule:evenodd;stroke:#000000;stroke-width:1px;stroke-linecap:butt;stroke-linejoin:miter;stroke-opacity:1"
                   d="M 141.51589,123.9887 C 140.65074,123.9887 145.53905,129.95932 150.60407,135.02434 C 153.90536,138.32563 157.85424,141.27341 161.63971,144.11252 C 165.56522,147.05664 171.28276,150.3067 175.27198,151.90238 C 179.7293,153.68531 182.9919,156.4115 186.95678,158.39394 C 191.13652,160.4838 196.21582,162.49387 200.58904,163.58718 C 205.60334,164.84075 209.43866,165.53465 214.87046,165.53465 C 218.65441,165.53465 222.698,163.54951 224.6078,161.63971 C 227.88179,158.36572 227.11532,154.60083 225.25695,149.95491 C 223.89685,146.55466 221.69866,143.15084 219.41455,140.86674 C 216.18901,137.6412 211.72742,135.12707 209.02806,132.42772 C 205.54514,128.94479 202.64977,127.2911 198.64158,125.28701 C 194.55908,123.24576 191.66376,121.0136 186.95678,119.44461 C 182.67806,118.01837 178.25868,117.91924 173.97367,116.84799 C 169.39215,115.70261 163.6226,115.70311 159.04309,116.84799 C 154.79476,117.91007 150.59307,117.66218 146.05998,118.79545 C 142.27789,119.74097 141.51589,120.23587 141.51589,123.9887 z"
                   id="path7986"
                   transform="translate(-4.149475e-6,698.0315)" />
                <g
                   id="g8530"
                   transform="matrix(-1,0,0,1,318.44073,-53.360012)"
                   inkscape:transform-center-x="17.527198"
                   inkscape:transform-center-y="7.7898658">
                  <path
                     transform="translate(-4.149475e-6,698.0315)"
                     id="path8532"
                     d="M 173.97367,202.53651 C 177.0869,202.75366 184.66943,201.96467 189.5534,203.18566 C 193.49762,204.17172 196.62765,202.15319 195.3958,207.0806 C 194.64024,210.10285 191.50745,209.67722 188.25509,209.67722 C 185.03913,209.67722 181.81734,209.02806 177.8686,209.02806 C 172.35413,209.02806 175.01509,207.74359 173.97367,202.53651 z"
                     style="fill:#999999;fill-rule:evenodd;stroke:#000000;stroke-width:1px;stroke-linecap:butt;stroke-linejoin:miter;stroke-opacity:1" />
                  <path
                     transform="translate(-4.149475e-6,698.0315)"
                     id="path8534"
                     d="M 194.74664,203.18566 C 188.10353,203.18566 204.52384,206.69908 209.67722,207.72975 C 214.75966,208.74624 217.1526,210.3062 215.51962,213.57215 C 213.43903,217.73333 210.8422,215.77753 207.72975,214.22131 C 204.30762,212.51024 201.65915,211.89221 197.99242,210.97553 C 194.55945,210.11729 192.58383,210.53862 193.44833,207.0806 C 193.52255,206.78372 193.8811,206.64783 194.09749,206.43144 C 194.87768,205.65125 194.53026,204.26759 194.74664,203.18566 z"
                     style="fill:#999999;fill-rule:evenodd;stroke:#000000;stroke-width:1px;stroke-linecap:butt;stroke-linejoin:miter;stroke-opacity:1" />
                  <path
                     transform="translate(-4.149475e-6,698.0315)"
                     id="path8536"
                     d="M 216.16878,212.27384 C 218.28717,210.15545 219.05894,220.837 218.7654,222.01117 C 217.64553,226.49064 216.16878,225.41881 216.16878,221.36202 C 216.16878,216.67139 214.47406,217.358 216.16878,212.27384 z"
                     style="fill:#999999;fill-rule:evenodd;stroke:#000000;stroke-width:1px;stroke-linecap:butt;stroke-linejoin:miter;stroke-opacity:1" />
                </g>
                <g
                   id="g8546"
                   transform="matrix(-0.8986487,0.438669,0.438669,0.8986487,-50.129921,-23.331923)"
                   inkscape:transform-center-x="13.34779"
                   inkscape:transform-center-y="14.378831">
                  <path
                     transform="translate(-4.149475e-6,698.0315)"
                     id="path8548"
                     d="M 173.97367,202.53651 C 177.0869,202.75366 184.66943,201.96467 189.5534,203.18566 C 193.49762,204.17172 196.62765,202.15319 195.3958,207.0806 C 194.64024,210.10285 191.50745,209.67722 188.25509,209.67722 C 185.03913,209.67722 181.81734,209.02806 177.8686,209.02806 C 172.35413,209.02806 175.01509,207.74359 173.97367,202.53651 z"
                     style="fill:#999999;fill-rule:evenodd;stroke:#000000;stroke-width:1px;stroke-linecap:butt;stroke-linejoin:miter;stroke-opacity:1" />
                  <path
                     transform="translate(-4.149475e-6,698.0315)"
                     id="path8550"
                     d="M 194.74664,203.18566 C 188.10353,203.18566 204.52384,206.69908 209.67722,207.72975 C 214.75966,208.74624 217.1526,210.3062 215.51962,213.57215 C 213.43903,217.73333 210.8422,215.77753 207.72975,214.22131 C 204.30762,212.51024 201.65915,211.89221 197.99242,210.97553 C 194.55945,210.11729 192.58383,210.53862 193.44833,207.0806 C 193.52255,206.78372 193.8811,206.64783 194.09749,206.43144 C 194.87768,205.65125 194.53026,204.26759 194.74664,203.18566 z"
                     style="fill:#999999;fill-rule:evenodd;stroke:#000000;stroke-width:1px;stroke-linecap:butt;stroke-linejoin:miter;stroke-opacity:1" />
                  <path
                     transform="translate(-4.149475e-6,698.0315)"
                     id="path8552"
                     d="M 216.16878,212.27384 C 218.28717,210.15545 219.05894,220.837 218.7654,222.01117 C 217.64553,226.49064 216.16878,225.41881 216.16878,221.36202 C 216.16878,216.67139 214.47406,217.358 216.16878,212.27384 z"
                     style="fill:#999999;fill-rule:evenodd;stroke:#000000;stroke-width:1px;stroke-linecap:butt;stroke-linejoin:miter;stroke-opacity:1" />
                </g>
                <g
                   id="g8538"
                   transform="matrix(-0.9601876,0.279356,0.279356,0.9601876,81.517931,-56.954435)"
                   inkscape:transform-center-x="15.156059"
                   inkscape:transform-center-y="12.183259">
                  <path
                     transform="translate(-4.149475e-6,698.0315)"
                     id="path8540"
                     d="M 173.97367,202.53651 C 177.0869,202.75366 184.66943,201.96467 189.5534,203.18566 C 193.49762,204.17172 196.62765,202.15319 195.3958,207.0806 C 194.64024,210.10285 191.50745,209.67722 188.25509,209.67722 C 185.03913,209.67722 181.81734,209.02806 177.8686,209.02806 C 172.35413,209.02806 175.01509,207.74359 173.97367,202.53651 z"
                     style="fill:#999999;fill-rule:evenodd;stroke:#000000;stroke-width:1px;stroke-linecap:butt;stroke-linejoin:miter;stroke-opacity:1" />
                  <path
                     transform="translate(-4.149475e-6,698.0315)"
                     id="path8542"
                     d="M 194.74664,203.18566 C 188.10353,203.18566 204.52384,206.69908 209.67722,207.72975 C 214.75966,208.74624 217.1526,210.3062 215.51962,213.57215 C 213.43903,217.73333 210.8422,215.77753 207.72975,214.22131 C 204.30762,212.51024 201.65915,211.89221 197.99242,210.97553 C 194.55945,210.11729 192.58383,210.53862 193.44833,207.0806 C 193.52255,206.78372 193.8811,206.64783 194.09749,206.43144 C 194.87768,205.65125 194.53026,204.26759 194.74664,203.18566 z"
                     style="fill:#999999;fill-rule:evenodd;stroke:#000000;stroke-width:1px;stroke-linecap:butt;stroke-linejoin:miter;stroke-opacity:1" />
                  <path
                     transform="translate(-4.149475e-6,698.0315)"
                     id="path8544"
                     d="M 216.16878,212.27384 C 218.28717,210.15545 219.05894,220.837 218.7654,222.01117 C 217.64553,226.49064 216.16878,225.41881 216.16878,221.36202 C 216.16878,216.67139 214.47406,217.358 216.16878,212.27384 z"
                     style="fill:#999999;fill-rule:evenodd;stroke:#000000;stroke-width:1px;stroke-linecap:butt;stroke-linejoin:miter;stroke-opacity:1" />
                </g>
                <path
                   style="fill:#ff00ff;fill-rule:evenodd;stroke:#000000;stroke-width:1px;stroke-linecap:butt;stroke-linejoin:miter;stroke-opacity:1"
                   d="M 151.25323,125.93616 C 151.25323,124.28671 140.62528,126.48339 137.62096,127.23447 C 131.99515,128.64093 134.00377,136.13529 135.02434,140.21758 C 136.48485,146.05962 142.5139,152.90038 146.70914,157.09563 C 153.10713,163.49361 164.58081,167.38055 172.67536,170.07873 C 180.9402,172.83368 189.99551,173.97367 198.64158,173.97367 C 205.53046,173.97367 209.76485,171.00865 215.51962,168.13127 C 220.92573,165.42821 219.31452,162.36336 217.46709,157.74478 C 216.2886,154.79858 212.52599,151.60462 210.32638,149.95491 C 206.77134,147.28863 204.43937,144.21558 199.93989,141.51589 C 195.24086,138.69648 192.95207,136.80638 187.60593,135.02434 C 182.23896,133.23535 177.12462,130.43284 172.0262,127.88363 C 167.62811,125.68458 163.2884,125.28701 158.39394,125.28701 C 154.90178,125.28701 154.69669,125.24747 151.25323,125.93616 z"
                   id="path7984"
                   transform="translate(-4.149475e-6,698.0315)" />
                <path
                   style="fill:#483737;fill-rule:evenodd;stroke:#000000;stroke-width:1px;stroke-linecap:butt;stroke-linejoin:miter;stroke-opacity:1"
                   d="M 227.85357,156.44647 C 225.65087,156.99715 219.80051,158.85011 216.81793,160.3414 C 213.82303,161.83885 211.44294,162.82117 208.37891,163.58718 C 205.79238,164.23381 202.46443,168.44376 201.2382,170.07873 C 198.24876,174.06466 198.70478,176.60189 202.53651,178.51776 C 205.7601,180.12955 208.89996,182.02406 212.27384,183.711 C 215.56463,185.35639 224.23619,181.62476 226.55526,180.46522 C 230.27924,178.60323 231.37316,176.29648 234.34513,173.32451 C 237.27337,170.39627 235.76576,167.32223 234.99428,164.23634 C 234.1595,160.89719 233.0696,160.36418 231.09935,158.39394 C 230.20717,157.50176 228.9355,157.09563 227.85357,156.44647 z"
                   id="path7988"
                   transform="translate(-4.149475e-6,698.0315)" />
                <path
                   style="fill:#00ff00;fill-rule:evenodd;stroke:#000000;stroke-width:1px;stroke-linecap:butt;stroke-linejoin:miter;stroke-opacity:1"
                   d="M 218.7654,176.57029 C 218.4011,176.20599 222.51185,186.65982 223.30949,188.25509 C 224.63737,190.91085 234.38024,189.54462 236.94175,188.90424 C 240.76633,187.9481 241.63364,185.62152 236.2926,186.95678 C 232.63029,187.87235 226.52007,187.94811 231.09935,185.65847 C 233.90739,184.25444 238.69644,183.711 232.39766,183.711 C 227.66401,183.711 227.48552,184.72821 230.4502,181.76353 C 233.10554,179.10819 233.21232,178.435 227.85357,181.11438 C 222.61423,183.73405 226.41668,177.77377 226.55526,177.21944 C 227.18722,174.69162 221.37102,176.57029 218.7654,176.57029 z"
                   id="path7990"
                   transform="translate(-4.149475e-6,698.0315)" />
                <path
                   style="fill:#00ff00;fill-rule:evenodd;stroke:#000000;stroke-width:1px;stroke-linecap:butt;stroke-linejoin:miter;stroke-opacity:1"
                   d="M 231.75124,864.06116 C 231.27581,863.86266 242.50754,863.69155 244.28626,863.82299 C 247.24741,864.0418 249.68684,873.57276 250.06812,876.18543 C 250.6374,880.08639 248.81509,881.77291 248.02008,876.32521 C 247.47495,872.58975 245.22261,866.9093 244.84532,872.01516 C 244.61396,875.14612 245.93156,879.78231 243.53748,873.95625 C 241.73828,869.57785 242.61131,869.02613 240.99596,872.89515 C 239.54916,876.36047 238.96708,876.7151 239.40859,870.74013 C 239.84025,864.8983 235.77254,870.68079 235.31249,871.01966 C 233.21458,872.56499 232.7416,866.47123 231.75124,864.06116 z"
                   id="path7992"
                   inkscape:transform-center-x="-9.2079921"
                   inkscape:transform-center-y="4.6489759" />
              </g>
              <path
                 id="path5107"
                 d="M 389.43912,814.51001 C 391.13701,816.76617 395.91869,819.37149 399.17645,821.32614 C 399.56098,821.55686 399.81882,821.54026 400.15018,821.65072"
                 style="fill:none;fill-rule:evenodd;stroke:#ffffff;stroke-width:3.54330707;stroke-linecap:butt;stroke-linejoin:miter;stroke-miterlimit:4;stroke-dasharray:none;stroke-opacity:1" />
              <path
                 id="path5109"
                 d="M 399.17645,813.2117 C 401.27979,814.4737 395.77952,816.7672 394.30779,818.72952 C 393.42994,819.89998 393.02847,821.30081 392.03574,822.62445"
                 style="fill:none;fill-rule:evenodd;stroke:#ffffff;stroke-width:3.54330707;stroke-linecap:butt;stroke-linejoin:miter;stroke-miterlimit:4;stroke-dasharray:none;stroke-opacity:1" />
              <path
                 id="path5111"
                 d="M 401.12392,806.07099 C 401.12319,806.07195 404.96987,808.6023 406.96632,811.26423 C 407.86815,812.46668 409.51687,812.86409 410.86125,813.53627"
                 style="fill:none;fill-rule:evenodd;stroke:#ffffff;stroke-width:3.54330707;stroke-linecap:butt;stroke-linejoin:miter;stroke-miterlimit:4;stroke-dasharray:none;stroke-opacity:1" />
              <path
                 id="path5113"
                 d="M 402.42223,813.2117 C 403.9829,815.2926 405.61353,808.85713 407.94005,807.69388 C 409.14819,807.0898 410.16315,806.44451 410.86125,805.74641"
                 style="fill:none;fill-rule:evenodd;stroke:#ffffff;stroke-width:3.54330707;stroke-linecap:butt;stroke-linejoin:miter;stroke-miterlimit:4;stroke-dasharray:none;stroke-opacity:1" />
            </g>
          </g>
        </g>
        <g
           id="g10035"
           transform="translate(-115.14564,-166.63753)">
          <path
             sodipodi:nodetypes="cssssssssssssssssssc"
             id="path10037"
             d="M -216.74725,931.13267 C -221.39323,931.13267 -208.13008,934.83664 -204.41329,937.62423 C -200.74168,940.37795 -196.67368,944.01528 -194.67596,948.01072 C -192.98159,951.39945 -198.63421,955.21474 -200.51836,957.0989 C -203.8212,960.40174 -206.39418,962.64178 -210.25569,965.53792 C -214.91206,969.0302 -217.76202,974.75854 -221.29134,979.17018 C -224.75895,983.50471 -223.91667,990.45864 -221.94049,995.39908 C -218.89653,1003.009 -203.51634,1006.5338 -197.27258,1009.0313 C -191.66203,1011.2756 -180.23794,1009.0313 -173.90298,1009.0313 C -165.46396,1009.0313 -157.02494,1009.0313 -148.58592,1009.0313 C -141.44436,1009.0313 -138.38314,1004.5729 -136.90112,998.64484 C -135.45482,992.85965 -135.43856,983.07297 -136.90112,977.22271 C -139.16476,968.16818 -143.89336,959.52337 -151.8317,953.85312 C -160.43433,947.70838 -156.43538,946.12284 -151.18254,940.87002 C -148.53708,938.22456 -146.83845,933.88014 -145.9893,930.48353 C -144.63521,925.06716 -164.4913,957.0989 -162.86734,940.87001 C -162.13693,933.5707 -169.48253,940.14667 -175.85045,936.32592 C -178.92148,934.48331 -188.18572,933.72996 -190.78103,935.02761 C -195.12807,937.20114 -206.67406,925.60358 -210.25569,929.18521 C -212.70726,931.63677 -213.04379,931.87338 -216.74725,931.13267 z"
             style="fill:#ff9955;fill-rule:evenodd;stroke:#000000;stroke-width:1px;stroke-linecap:butt;stroke-linejoin:miter;stroke-opacity:1" />
          <path
             id="path10039"
             d="M -189.01244,942.70902 C -186.95836,945.88123 -187.83601,955.0032 -189.01244,960.88538"
             style="fill:none;fill-rule:evenodd;stroke:#000000;stroke-width:1px;stroke-linecap:butt;stroke-linejoin:miter;stroke-opacity:1" />
          <path
             id="path10041"
             d="M -165.64284,943.35818 C -165.85151,945.38591 -165.96128,951.16033 -164.34453,954.39382 C -162.60422,957.87446 -159.44997,959.35011 -155.90551,960.23622"
             style="fill:none;fill-rule:evenodd;stroke:#000000;stroke-width:1px;stroke-linecap:butt;stroke-linejoin:miter;stroke-opacity:1" />
        </g>
      </g>
      <text
         id="text10132"
         y="818.77637"
         x="-341.51257"
         style="font-size:18px;font-style:normal;font-weight:bold;writing-mode:lr-tb;fill:#000000;fill-opacity:1;stroke:none;stroke-width:1px;stroke-linecap:butt;stroke-linejoin:miter;stroke-opacity:1;font-family:Sans;-inkscape-font-specification:Sans"
         xml:space="preserve"><tspan
           y="818.77637"
           x="-341.51257"
           id="tspan10134"
           sodipodi:role="line">Reliability</tspan></text>
    </g>
    <text
       xml:space="preserve"
       style="font-size:16px;font-style:normal;font-weight:bold;text-align:center;writing-mode:lr-tb;text-anchor:middle;fill:#000000;fill-opacity:1;stroke:none;stroke-width:1px;stroke-linecap:butt;stroke-linejoin:miter;stroke-opacity:1;font-family:Sans;-inkscape-font-specification:Sans"
       x="111.23265"
       y="910.62994"
       id="text10524"><tspan
         sodipodi:role="line"
         id="tspan10526"
         x="111.23265"
         y="910.62994">portability</tspan><tspan
         sodipodi:role="line"
         x="111.23265"
         y="930.62994"
         id="tspan10532">transferability</tspan><tspan
         sodipodi:role="line"
         x="111.23265"
         y="950.62994"
         id="tspan10534">interoperability</tspan><tspan
         sodipodi:role="line"
         x="111.23265"
         y="970.62994"
         id="tspan10536">documentation</tspan><tspan
         sodipodi:role="line"
         x="111.23265"
         y="990.62994"
         id="tspan10538">internationalization</tspan><tspan
         sodipodi:role="line"
         x="111.23265"
         y="1010.6299"
         id="tspan10540">i18n</tspan><tspan
         sodipodi:role="line"
         x="111.23265"
         y="1030.6299"
         id="tspan10562">...</tspan><tspan
         sodipodi:role="line"
         x="111.23265"
         y="1050.6299"
         id="tspan10542">localization</tspan><tspan
         sodipodi:role="line"
         x="111.23265"
         y="1070.6299"
         id="tspan10544">l10n</tspan><tspan
         sodipodi:role="line"
         x="111.23265"
         y="1090.6299"
         id="tspan10546">standardized</tspan><tspan
         sodipodi:role="line"
         x="111.23265"
         y="1110.6299"
         id="tspan10548">migration</tspan><tspan
         sodipodi:role="line"
         x="111.23265"
         y="1130.6299"
         id="tspan10550">specification</tspan><tspan
         sodipodi:role="line"
         x="111.23265"
         y="1150.6299"
         id="tspan10552">portability</tspan><tspan
         sodipodi:role="line"
         x="111.23265"
         y="1170.6299"
         id="tspan10554">movability</tspan><tspan
         sodipodi:role="line"
         x="111.23265"
         y="1190.6299"
         id="tspan10556">movableness</tspan><tspan
         sodipodi:role="line"
         x="111.23265"
         y="1210.6299"
         id="tspan10558">portable</tspan><tspan
         sodipodi:role="line"
         x="111.23265"
         y="1230.6299"
         id="tspan10560" /></text>
    <text
       xml:space="preserve"
       style="font-size:16px;font-style:normal;font-weight:bold;text-align:center;writing-mode:lr-tb;text-anchor:middle;fill:#000000;fill-opacity:1;stroke:none;stroke-width:1px;stroke-linecap:butt;stroke-linejoin:miter;stroke-opacity:1;font-family:Sans;-inkscape-font-specification:Sans"
       x="355.1235"
       y="910.62994"
       id="text10564"><tspan
         sodipodi:role="line"
         id="tspan10566"
         x="355.1235"
         y="910.62994">reliability</tspan><tspan
         sodipodi:role="line"
         x="355.1235"
         y="930.62994"
         id="tspan10568">failure</tspan><tspan
         sodipodi:role="line"
         x="355.1235"
         y="950.62988"
         id="tspan10570">error</tspan><tspan
         sodipodi:role="line"
         x="355.1235"
         y="970.62988"
         id="tspan10572">redundancy</tspan><tspan
         sodipodi:role="line"
         x="355.1235"
         y="990.62988"
         id="tspan10574">fails</tspan><tspan
         sodipodi:role="line"
         x="355.1235"
         y="1010.6299"
         id="tspan10576">bug</tspan><tspan
         sodipodi:role="line"
         x="355.1235"
         y="1030.6299"
         id="tspan10598">...</tspan><tspan
         sodipodi:role="line"
         x="355.1235"
         y="1050.6299"
         id="tspan10578">crash</tspan><tspan
         sodipodi:role="line"
         x="355.1235"
         y="1070.6299"
         id="tspan10580">stable</tspan><tspan
         sodipodi:role="line"
         x="355.1235"
         y="1090.6299"
         id="tspan10582">stability</tspan><tspan
         sodipodi:role="line"
         x="355.1235"
         y="1110.6299"
         id="tspan10584">integrity</tspan><tspan
         sodipodi:role="line"
         x="355.1235"
         y="1130.6299"
         id="tspan10586">resilience</tspan><tspan
         sodipodi:role="line"
         x="355.1235"
         y="1150.6299"
         id="tspan10588">dependability</tspan><tspan
         sodipodi:role="line"
         x="355.1235"
         y="1170.6299"
         id="tspan10590">dependableness</tspan><tspan
         sodipodi:role="line"
         x="355.1235"
         y="1190.6299"
         id="tspan10592">reliability</tspan><tspan
         sodipodi:role="line"
         x="355.1235"
         y="1210.6299"
         id="tspan10594">reliableness</tspan><tspan
         sodipodi:role="line"
         x="355.1235"
         y="1230.6299"
         id="tspan10596" /></text>
    <text
       xml:space="preserve"
       style="font-size:24px;font-style:normal;font-weight:bold;text-align:center;writing-mode:lr-tb;text-anchor:middle;fill:#000000;fill-opacity:1;stroke:none;stroke-width:1px;stroke-linecap:butt;stroke-linejoin:miter;stroke-opacity:1;font-family:Sans;-inkscape-font-specification:Sans"
       x="242.79034"
       y="735.03339"
       id="text10600"><tspan
         sodipodi:role="line"
         id="tspan10602"
         x="242.79034"
         y="735.03339">Word Bag</tspan><tspan
         sodipodi:role="line"
         x="242.79034"
         y="765.03339"
         id="tspan10604">Examples</tspan></text>
  </g>
</svg>
