<?xml version="1.0" encoding="UTF-8" standalone="no"?>
<!-- Created with Inkscape (http://www.inkscape.org/) -->
<svg
   xmlns:dc="http://purl.org/dc/elements/1.1/"
   xmlns:cc="http://creativecommons.org/ns#"
   xmlns:rdf="http://www.w3.org/1999/02/22-rdf-syntax-ns#"
   xmlns:svg="http://www.w3.org/2000/svg"
   xmlns="http://www.w3.org/2000/svg"
   xmlns:xlink="http://www.w3.org/1999/xlink"
   xmlns:sodipodi="http://sodipodi.sourceforge.net/DTD/sodipodi-0.dtd"
   xmlns:inkscape="http://www.inkscape.org/namespaces/inkscape"
   width="453.5433"
   height="340.15747"
   id="svg2"
   sodipodi:version="0.32"
   inkscape:version="0.46"
   sodipodi:docname="slide-2200-Querying.svg"
   version="1.0"
   inkscape:output_extension="org.inkscape.output.svg.inkscape">
  <defs
     id="defs4">
    <linearGradient
       inkscape:collect="always"
       xlink:href="#linearGradient3372"
       id="linearGradient10873"
       gradientUnits="userSpaceOnUse"
       gradientTransform="matrix(0.7479875,0,0,0.7479875,610.40879,-736.0766)"
       x1="-316.71429"
       y1="-123.3521"
       x2="55.285706"
       y2="-123.3521" />
    <linearGradient
       id="linearGradient3372">
      <stop
         style="stop-color:#2000ff;stop-opacity:1;"
         offset="0"
         id="stop3374" />
      <stop
         id="stop3380"
         offset="0.5"
         style="stop-color:#1f00ff;stop-opacity:1;" />
      <stop
         style="stop-color:#1f00ff;stop-opacity:1;"
         offset="0.75"
         id="stop3382" />
      <stop
         id="stop3384"
         offset="0.875"
         style="stop-color:#ff0016;stop-opacity:1;" />
      <stop
         style="stop-color:#ff0000;stop-opacity:1;"
         offset="1"
         id="stop3376" />
    </linearGradient>
    <linearGradient
       inkscape:collect="always"
       xlink:href="#linearGradient3372"
       id="linearGradient10871"
       gradientUnits="userSpaceOnUse"
       gradientTransform="matrix(0.7479874,0,0,0.7479874,476.84079,-434.03807)"
       x1="-316.71429"
       y1="-123.3521"
       x2="55.285706"
       y2="-123.3521" />
    <inkscape:perspective
       sodipodi:type="inkscape:persp3d"
       inkscape:vp_x="0 : 170.07874 : 1"
       inkscape:vp_y="0 : 1000 : 0"
       inkscape:vp_z="453.5433 : 170.07874 : 1"
       inkscape:persp3d-origin="226.77165 : 113.38582 : 1"
       id="perspective41623" />
  </defs>
  <sodipodi:namedview
     id="base"
     pagecolor="#ffffff"
     bordercolor="#666666"
     borderopacity="1.0"
     gridtolerance="10000"
     guidetolerance="8.8"
     objecttolerance="10"
     inkscape:pageopacity="0.0"
     inkscape:pageshadow="2"
     inkscape:zoom="1.540463"
     inkscape:cx="163.67272"
     inkscape:cy="154.22562"
     inkscape:document-units="mm"
     inkscape:current-layer="layer1"
     inkscape:window-width="1182"
     inkscape:window-height="1167"
     inkscape:window-x="0"
     inkscape:window-y="25"
     width="12.8cm"
     height="9.6cm"
     units="cm"
     showgrid="true"
     grid_units="mm"
     inkscape:object-paths="false"
     inkscape:grid-points="true"
     inkscape:grid-bbox="true"
     inkscape:guide-points="true"
     showguides="true"
     inkscape:guide-bbox="true">
    <sodipodi:guide
       orientation="vertical"
       position="56.476527"
       id="guide3573" />
    <sodipodi:guide
       orientation="horizontal"
       position="11.035643"
       id="guide3579" />
    <sodipodi:guide
       orientation="horizontal"
       position="24.018753"
       id="guide3886" />
    <sodipodi:guide
       orientation="horizontal"
       position="285.62841"
       id="guide3988" />
    <sodipodi:guide
       orientation="horizontal"
       position="303.15561"
       id="guide4081" />
    <inkscape:grid
       id="GridFromPre046Settings"
       type="xygrid"
       originx="0px"
       originy="0px"
       spacingx="2mm"
       spacingy="2mm"
       color="#0000ff"
       empcolor="#0000ff"
       opacity="0.2"
       empopacity="0.4"
       empspacing="5" />
  </sodipodi:namedview>
  <metadata
     id="metadata7">
    <rdf:RDF>
      <cc:Work
         rdf:about="">
        <dc:format>image/svg+xml</dc:format>
        <dc:type
           rdf:resource="http://purl.org/dc/dcmitype/StillImage" />
      </cc:Work>
    </rdf:RDF>
  </metadata>
  <g
     inkscape:label="Layer 1"
     inkscape:groupmode="layer"
     id="layer1"
     transform="translate(4.149475e-6,-698.0315)">
    <g
       id="g10646"
       transform="matrix(0.2355105,0,0,0.2355105,-55.875613,676.73956)">
      <g
         inkscape:export-ydpi="33.007736"
         inkscape:export-xdpi="33.007736"
         inkscape:export-filename="/home/abez/clip-art-so-far.png"
         transform="translate(-104.28571,235.71429)"
         id="g2446">
        <rect
           style="fill:#f2f2f2;fill-rule:evenodd;stroke:#000000;stroke-width:1px;stroke-linecap:butt;stroke-linejoin:miter;stroke-opacity:1"
           id="rect3316"
           width="220"
           height="300"
           x="440"
           y="332.36218" />
        <rect
           style="fill:#800000;fill-rule:evenodd;stroke:#000000;stroke-width:1px;stroke-linecap:butt;stroke-linejoin:miter;stroke-opacity:1"
           id="rect3318"
           width="100"
           height="20"
           x="460"
           y="412.36218" />
        <rect
           style="fill:#ffff00;fill-rule:evenodd;stroke:#000000;stroke-width:1px;stroke-linecap:butt;stroke-linejoin:miter;stroke-opacity:1"
           id="rect3320"
           width="140"
           height="20"
           x="500"
           y="432.36218" />
        <rect
           style="fill:#ffff00;fill-rule:evenodd;stroke:#000000;stroke-width:1px;stroke-linecap:butt;stroke-linejoin:miter;stroke-opacity:1"
           id="rect2426"
           width="140"
           height="20"
           x="500"
           y="452.36218" />
        <rect
           style="fill:#ffff00;fill-rule:evenodd;stroke:#000000;stroke-width:1px;stroke-linecap:butt;stroke-linejoin:miter;stroke-opacity:1"
           id="rect2428"
           width="140"
           height="20"
           x="500"
           y="472.36218" />
        <rect
           style="fill:#800000;fill-rule:evenodd;stroke:#000000;stroke-width:1px;stroke-linecap:butt;stroke-linejoin:miter;stroke-opacity:1"
           id="rect2430"
           width="100"
           height="20"
           x="460"
           y="492.36218" />
        <rect
           style="fill:#ffff00;fill-rule:evenodd;stroke:#000000;stroke-width:1px;stroke-linecap:butt;stroke-linejoin:miter;stroke-opacity:1"
           id="rect2432"
           width="100"
           height="20"
           x="500"
           y="512.36218" />
        <rect
           style="fill:#ff0000;fill-rule:evenodd;stroke:#000000;stroke-width:0.89620572px;stroke-linecap:butt;stroke-linejoin:miter;stroke-opacity:1"
           id="rect2434"
           width="79.903793"
           height="20.103794"
           x="459.94809"
           y="532.3103" />
        <rect
           style="fill:#0000ff;fill-rule:evenodd;stroke:#000000;stroke-width:0.75956446px;stroke-linecap:butt;stroke-linejoin:miter;stroke-opacity:1"
           id="rect2436"
           width="79.811867"
           height="20.240435"
           x="499.87979"
           y="552.24194" />
        <rect
           style="fill:#00ff00;fill-rule:evenodd;stroke:#000000;stroke-width:0.75956446px;stroke-linecap:butt;stroke-linejoin:miter;stroke-opacity:1"
           id="rect2438"
           width="79.811867"
           height="20.240435"
           x="520"
           y="572.36218" />
        <rect
           style="fill:#00ff00;fill-rule:evenodd;stroke:#000000;stroke-width:0.75956446px;stroke-linecap:butt;stroke-linejoin:miter;stroke-opacity:1"
           id="rect2440"
           width="79.811867"
           height="20.240435"
           x="520"
           y="592.36218" />
        <text
           xml:space="preserve"
           style="font-size:24px;font-style:normal;font-weight:bold;writing-mode:lr-tb;fill:#000000;fill-opacity:1;stroke:none;stroke-width:1px;stroke-linecap:butt;stroke-linejoin:miter;stroke-opacity:1;font-family:Sans;-inkscape-font-specification:Sans"
           x="464.28571"
           y="376.64789"
           id="text2442"><tspan
             sodipodi:role="line"
             id="tspan2444"
             x="464.28571"
             y="376.64789">Source Code</tspan></text>
      </g>
      <path
         inkscape:export-ydpi="33.007736"
         inkscape:export-xdpi="33.007736"
         inkscape:export-filename="/home/abez/clip-art-so-far.png"
         id="path2533"
         d="M 480.93392,651.14115 C 476.27419,648.45085 471.38765,646.47227 466.42252,645.1584 L 459.92356,656.41493 C 458.23919,656.09987 456.54561,655.86048 454.85277,655.733 L 451.50329,643.18828 C 440.95886,643.15859 430.55836,645.95193 421.43851,651.24411 L 424.79393,663.81097 C 423.39112,664.76879 422.03907,665.79859 420.73752,666.9148 L 409.481,660.41584 C 405.83287,664.03917 402.59854,668.18765 399.90514,672.85275 C 397.21319,677.51535 395.23625,682.39584 393.92239,687.36413 L 405.17892,693.86309 C 404.86299,695.54856 404.64721,697.23397 404.51913,698.92796 L 391.96631,702.29148 C 391.94055,712.8357 394.70431,723.24413 400,732.36218 L 412.56092,728.98464 C 413.51778,730.38698 414.5637,731.7479 415.67879,733.04914 L 409.17172,744.3197 C 412.79176,747.96203 416.95768,751.19162 421.61674,753.88153 C 426.28184,756.57492 431.15708,758.55044 436.12812,759.86427 L 442.61898,748.62178 C 444.30531,748.93796 446.01113,749.14749 447.70599,749.27565 L 451.0695,761.82847 C 461.60888,761.85168 472.00628,759.05784 481.12024,753.76453 L 477.76265,741.23385 C 479.16994,740.27363 480.52174,739.23552 481.82716,738.11598 L 493.05562,744.59873 C 496.70137,740.97675 499.93952,736.82444 502.63148,732.16183 C 505.32487,727.49672 507.30039,722.62148 508.61422,717.65044 L 497.38577,711.16769 C 497.70258,709.47754 497.92574,707.78746 498.05367,706.08878 L 510.58435,702.73119 C 510.61152,692.18425 507.83362,681.77272 502.53662,672.65239 L 489.99784,676.02401 C 489.03949,674.62041 487.99687,673.26171 486.87996,671.9595 L 493.37082,660.71701 C 489.74782,657.06945 485.5984,653.8342 480.93392,651.14115 z M 459.80015,687.74592 C 467.94623,692.44906 470.72986,702.88197 466.02671,711.02805 C 461.32356,719.17414 450.9047,721.96587 442.75861,717.26272 C 434.61253,712.55957 431.80677,702.1326 436.50991,693.98652 C 441.21306,685.84043 451.65406,683.04278 459.80015,687.74592 z"
         style="fill:#00ffff;fill-rule:evenodd;stroke:#000000;stroke-width:0.51862013px;stroke-linecap:butt;stroke-linejoin:miter;stroke-opacity:1" />
    </g>
    <g
       transform="matrix(0.2355105,0,0,0.2355105,-43.631174,689.98348)"
       id="g10679">
      <g
         id="g10681"
         transform="translate(-104.28571,235.71429)"
         inkscape:export-filename="/home/abez/clip-art-so-far.png"
         inkscape:export-xdpi="33.007736"
         inkscape:export-ydpi="33.007736">
        <rect
           y="332.36218"
           x="440"
           height="300"
           width="220"
           id="rect10683"
           style="fill:#f2f2f2;fill-rule:evenodd;stroke:#000000;stroke-width:1px;stroke-linecap:butt;stroke-linejoin:miter;stroke-opacity:1" />
        <rect
           y="412.36218"
           x="460"
           height="20"
           width="100"
           id="rect10685"
           style="fill:#800000;fill-rule:evenodd;stroke:#000000;stroke-width:1px;stroke-linecap:butt;stroke-linejoin:miter;stroke-opacity:1" />
        <rect
           y="432.36218"
           x="500"
           height="20"
           width="140"
           id="rect10687"
           style="fill:#ffff00;fill-rule:evenodd;stroke:#000000;stroke-width:1px;stroke-linecap:butt;stroke-linejoin:miter;stroke-opacity:1" />
        <rect
           y="452.36218"
           x="500"
           height="20"
           width="140"
           id="rect10689"
           style="fill:#ffff00;fill-rule:evenodd;stroke:#000000;stroke-width:1px;stroke-linecap:butt;stroke-linejoin:miter;stroke-opacity:1" />
        <rect
           y="472.36218"
           x="500"
           height="20"
           width="140"
           id="rect10691"
           style="fill:#ffff00;fill-rule:evenodd;stroke:#000000;stroke-width:1px;stroke-linecap:butt;stroke-linejoin:miter;stroke-opacity:1" />
        <rect
           y="492.36218"
           x="460"
           height="20"
           width="100"
           id="rect10693"
           style="fill:#800000;fill-rule:evenodd;stroke:#000000;stroke-width:1px;stroke-linecap:butt;stroke-linejoin:miter;stroke-opacity:1" />
        <rect
           y="512.36218"
           x="500"
           height="20"
           width="100"
           id="rect10695"
           style="fill:#ffff00;fill-rule:evenodd;stroke:#000000;stroke-width:1px;stroke-linecap:butt;stroke-linejoin:miter;stroke-opacity:1" />
        <rect
           y="532.3103"
           x="459.94809"
           height="20.103794"
           width="79.903793"
           id="rect10697"
           style="fill:#ff0000;fill-rule:evenodd;stroke:#000000;stroke-width:0.89620572px;stroke-linecap:butt;stroke-linejoin:miter;stroke-opacity:1" />
        <rect
           y="552.24194"
           x="499.87979"
           height="20.240435"
           width="79.811867"
           id="rect10699"
           style="fill:#0000ff;fill-rule:evenodd;stroke:#000000;stroke-width:0.75956446px;stroke-linecap:butt;stroke-linejoin:miter;stroke-opacity:1" />
        <rect
           y="572.36218"
           x="520"
           height="20.240435"
           width="79.811867"
           id="rect10701"
           style="fill:#00ff00;fill-rule:evenodd;stroke:#000000;stroke-width:0.75956446px;stroke-linecap:butt;stroke-linejoin:miter;stroke-opacity:1" />
        <rect
           y="592.36218"
           x="520"
           height="20.240435"
           width="79.811867"
           id="rect10703"
           style="fill:#00ff00;fill-rule:evenodd;stroke:#000000;stroke-width:0.75956446px;stroke-linecap:butt;stroke-linejoin:miter;stroke-opacity:1" />
        <text
           id="text10705"
           y="376.64789"
           x="464.28571"
           style="font-size:24px;font-style:normal;font-weight:bold;writing-mode:lr-tb;fill:#000000;fill-opacity:1;stroke:none;stroke-width:1px;stroke-linecap:butt;stroke-linejoin:miter;stroke-opacity:1;font-family:Sans;-inkscape-font-specification:Sans"
           xml:space="preserve"><tspan
             y="376.64789"
             x="464.28571"
             id="tspan10707"
             sodipodi:role="line">Source Code</tspan></text>
      </g>
      <path
         style="fill:#00ffff;fill-rule:evenodd;stroke:#000000;stroke-width:0.51862013px;stroke-linecap:butt;stroke-linejoin:miter;stroke-opacity:1"
         d="M 480.93392,651.14115 C 476.27419,648.45085 471.38765,646.47227 466.42252,645.1584 L 459.92356,656.41493 C 458.23919,656.09987 456.54561,655.86048 454.85277,655.733 L 451.50329,643.18828 C 440.95886,643.15859 430.55836,645.95193 421.43851,651.24411 L 424.79393,663.81097 C 423.39112,664.76879 422.03907,665.79859 420.73752,666.9148 L 409.481,660.41584 C 405.83287,664.03917 402.59854,668.18765 399.90514,672.85275 C 397.21319,677.51535 395.23625,682.39584 393.92239,687.36413 L 405.17892,693.86309 C 404.86299,695.54856 404.64721,697.23397 404.51913,698.92796 L 391.96631,702.29148 C 391.94055,712.8357 394.70431,723.24413 400,732.36218 L 412.56092,728.98464 C 413.51778,730.38698 414.5637,731.7479 415.67879,733.04914 L 409.17172,744.3197 C 412.79176,747.96203 416.95768,751.19162 421.61674,753.88153 C 426.28184,756.57492 431.15708,758.55044 436.12812,759.86427 L 442.61898,748.62178 C 444.30531,748.93796 446.01113,749.14749 447.70599,749.27565 L 451.0695,761.82847 C 461.60888,761.85168 472.00628,759.05784 481.12024,753.76453 L 477.76265,741.23385 C 479.16994,740.27363 480.52174,739.23552 481.82716,738.11598 L 493.05562,744.59873 C 496.70137,740.97675 499.93952,736.82444 502.63148,732.16183 C 505.32487,727.49672 507.30039,722.62148 508.61422,717.65044 L 497.38577,711.16769 C 497.70258,709.47754 497.92574,707.78746 498.05367,706.08878 L 510.58435,702.73119 C 510.61152,692.18425 507.83362,681.77272 502.53662,672.65239 L 489.99784,676.02401 C 489.03949,674.62041 487.99687,673.26171 486.87996,671.9595 L 493.37082,660.71701 C 489.74782,657.06945 485.5984,653.8342 480.93392,651.14115 z M 459.80015,687.74592 C 467.94623,692.44906 470.72986,702.88197 466.02671,711.02805 C 461.32356,719.17414 450.9047,721.96587 442.75861,717.26272 C 434.61253,712.55957 431.80677,702.1326 436.50991,693.98652 C 441.21306,685.84043 451.65406,683.04278 459.80015,687.74592 z"
         id="path10709"
         inkscape:export-filename="/home/abez/clip-art-so-far.png"
         inkscape:export-xdpi="33.007736"
         inkscape:export-ydpi="33.007736" />
    </g>
    <g
       id="g2575"
       inkscape:export-filename="/home/abez/clip-art-so-far.png"
       inkscape:export-xdpi="33.007736"
       inkscape:export-ydpi="33.007736"
       transform="matrix(0.3087416,0,0,0.3087416,26.463544,732.09434)">
      <path
         sodipodi:nodetypes="cccccc"
         id="path2565"
         d="M 380,482.36218 L 360,482.36218 L 350,502.36218 L 350,512.36218 L 360,532.36218 L 380,482.36218 z"
         style="fill:#800080;fill-rule:evenodd;stroke:#000000;stroke-width:1px;stroke-linecap:butt;stroke-linejoin:miter;stroke-opacity:1" />
      <path
         sodipodi:nodetypes="ccccc"
         id="path2559"
         d="M 600,422.36218 L 560,522.36218 L 360,522.36218 L 510,422.36218 L 600,422.36218 z"
         style="fill:#ff00ff;fill-rule:evenodd;stroke:#000000;stroke-width:1px;stroke-linecap:butt;stroke-linejoin:miter;stroke-opacity:1" />
      <path
         sodipodi:nodetypes="ccccccc"
         id="path2563"
         d="M 360,522.36218 L 360,492.36218 L 510,412.36218 L 590,402.36218 L 590,432.36218 L 550,522.36218 L 360,522.36218 z"
         style="fill:#b3b3b3;fill-rule:evenodd;stroke:#000000;stroke-width:1px;stroke-linecap:butt;stroke-linejoin:miter;stroke-opacity:1" />
      <path
         id="path2541"
         d="M 560,492.36218 L 560,482.36218 L 360,482.36218 L 360,492.36218 L 560,492.36218 z"
         style="fill:#800080;fill-rule:evenodd;stroke:#000000;stroke-width:1px;stroke-linecap:butt;stroke-linejoin:miter;stroke-opacity:1" />
      <path
         id="path2543"
         d="M 600,392.36218 L 560,482.36218 L 360,482.36218 L 510,392.36218 L 600,392.36218 z"
         style="fill:#ff00ff;fill-rule:evenodd;stroke:#000000;stroke-width:1px;stroke-linecap:butt;stroke-linejoin:miter;stroke-opacity:1" />
      <path
         id="path2545"
         d="M 600,392.36218 L 600,402.36218 L 560,492.36218 L 560,482.36218 L 600,392.36218 z"
         style="fill:#800080;fill-rule:evenodd;stroke:#000000;stroke-width:1px;stroke-linecap:butt;stroke-linejoin:miter;stroke-opacity:1" />
      <path
         id="path2557"
         d="M 560,532.36218 L 560,522.36218 L 360,522.36218 L 360,532.36218 L 560,532.36218 z"
         style="fill:#800080;fill-rule:evenodd;stroke:#000000;stroke-width:1px;stroke-linecap:butt;stroke-linejoin:miter;stroke-opacity:1" />
      <path
         sodipodi:nodetypes="ccccc"
         id="path2561"
         d="M 600,422.36218 L 600,432.36218 L 560,532.36218 L 560,522.36218 L 600,422.36218 z"
         style="fill:#800080;fill-rule:evenodd;stroke:#000000;stroke-width:1px;stroke-linecap:butt;stroke-linejoin:miter;stroke-opacity:1" />
      <text
         id="text2571"
         y="512.36218"
         x="370"
         style="font-size:21px;font-style:normal;font-weight:bold;writing-mode:lr-tb;fill:#000000;fill-opacity:1;stroke:none;stroke-width:1px;stroke-linecap:butt;stroke-linejoin:miter;stroke-opacity:1;font-family:Sans;-inkscape-font-specification:Sans"
         xml:space="preserve"><tspan
           y="512.36218"
           x="370"
           id="tspan2573"
           sodipodi:role="line">Documentation</tspan></text>
    </g>
    <g
       id="g10734"
       transform="matrix(0.1858917,0,0,0.1858917,210.08213,617.89558)">
      <g
         inkscape:export-ydpi="33.007736"
         inkscape:export-xdpi="33.007736"
         inkscape:export-filename="/home/abez/clip-art-so-far.png"
         transform="matrix(0.4127796,0.5096168,-0.5096168,0.4127796,198.88242,730.76089)"
         id="g3265">
        <rect
           style="fill:#c87137;fill-rule:evenodd;stroke:#000000;stroke-width:1px;stroke-linecap:butt;stroke-linejoin:miter;stroke-opacity:1"
           id="rect3257"
           width="485.71429"
           height="88.571426"
           x="-91.428574"
           y="549.50507" />
        <path
           style="fill:none;fill-rule:evenodd;stroke:#000000;stroke-width:1px;stroke-linecap:butt;stroke-linejoin:miter;stroke-opacity:1"
           d="M -54.285714,583.79075 C -29.732194,590.37111 20.526099,589.63656 54.285714,598.07647 C 86.432294,606.11311 129.55608,598.07647 162.85714,598.07647 C 192.59894,598.07647 223.60167,600.93361 254.28571,600.93361 C 274.43611,600.93361 295.28598,594.25497 314.28571,589.50504 C 324.49102,586.95371 335.19489,586.6479 345.71429,586.6479"
           id="path3259" />
        <path
           style="fill:none;fill-rule:evenodd;stroke:#000000;stroke-width:1px;stroke-linecap:butt;stroke-linejoin:miter;stroke-opacity:1"
           d="M -34.285714,560.93361 C -27.417952,559.21667 -7.6135626,563.79075 4.2857143,563.79075 C 21.294795,563.79075 37.335172,566.6479 54.285714,566.6479 C 69.47185,566.6479 82.626934,568.51429 97.142857,570.93361 C 114.22381,573.78044 132.749,569.50504 150,569.50504 C 168.03573,569.50504 185.87134,565.21933 204.28571,565.21933 C 209.54541,565.21933 214.81187,565.78321 220,566.6479"
           id="path3261" />
        <path
           style="fill:none;fill-rule:evenodd;stroke:#000000;stroke-width:1px;stroke-linecap:butt;stroke-linejoin:miter;stroke-opacity:1"
           d="M -40,609.50504 C -32.127157,609.50504 -14.050886,613.79075 -1.4285714,613.79075 C 14.932833,613.79075 33.928538,616.29075 50,619.50504 C 62.944348,622.09391 82.465578,619.60293 94.285714,616.6479 C 107.27518,613.40053 123.86256,618.07647 137.14286,618.07647 C 154.71264,618.07647 172.60315,618.07647 190,618.07647 C 193.33333,618.07647 196.66667,618.07647 200,618.07647"
           id="path3263" />
      </g>
      <g
         inkscape:export-ydpi="33.007736"
         inkscape:export-xdpi="33.007736"
         inkscape:export-filename="/home/abez/clip-art-so-far.png"
         transform="matrix(-0.4857463,0.4406209,0.4406209,0.4857463,-210.55989,695.07119)"
         id="g3271">
        <rect
           style="fill:#c87137;fill-rule:evenodd;stroke:#000000;stroke-width:1px;stroke-linecap:butt;stroke-linejoin:miter;stroke-opacity:1"
           id="rect3273"
           width="485.71429"
           height="88.571426"
           x="-91.428574"
           y="549.50507" />
        <path
           style="fill:none;fill-rule:evenodd;stroke:#000000;stroke-width:1px;stroke-linecap:butt;stroke-linejoin:miter;stroke-opacity:1"
           d="M -54.285714,583.79075 C -29.732194,590.37111 20.526099,589.63656 54.285714,598.07647 C 86.432294,606.11311 129.55608,598.07647 162.85714,598.07647 C 192.59894,598.07647 223.60167,600.93361 254.28571,600.93361 C 274.43611,600.93361 295.28598,594.25497 314.28571,589.50504 C 324.49102,586.95371 335.19489,586.6479 345.71429,586.6479"
           id="path3275" />
        <path
           style="fill:none;fill-rule:evenodd;stroke:#000000;stroke-width:1px;stroke-linecap:butt;stroke-linejoin:miter;stroke-opacity:1"
           d="M -34.285714,560.93361 C -27.417952,559.21667 -7.6135626,563.79075 4.2857143,563.79075 C 21.294795,563.79075 37.335172,566.6479 54.285714,566.6479 C 69.47185,566.6479 82.626934,568.51429 97.142857,570.93361 C 114.22381,573.78044 132.749,569.50504 150,569.50504 C 168.03573,569.50504 185.87134,565.21933 204.28571,565.21933 C 209.54541,565.21933 214.81187,565.78321 220,566.6479"
           id="path3277" />
        <path
           style="fill:none;fill-rule:evenodd;stroke:#000000;stroke-width:1px;stroke-linecap:butt;stroke-linejoin:miter;stroke-opacity:1"
           d="M -40,609.50504 C -32.127157,609.50504 -14.050886,613.79075 -1.4285714,613.79075 C 14.932833,613.79075 33.928538,616.29075 50,619.50504 C 62.944348,622.09391 82.465578,619.60293 94.285714,616.6479 C 107.27518,613.40053 123.86256,618.07647 137.14286,618.07647 C 154.71264,618.07647 172.60315,618.07647 190,618.07647 C 193.33333,618.07647 196.66667,618.07647 200,618.07647"
           id="path3279" />
      </g>
      <g
         inkscape:export-ydpi="33.007736"
         inkscape:export-xdpi="33.007736"
         inkscape:export-filename="/home/abez/clip-art-so-far.png"
         transform="translate(-380,290)"
         id="g3287">
        <rect
           style="fill:#ff7f2a;fill-rule:evenodd;stroke:#000000;stroke-width:1px;stroke-linecap:butt;stroke-linejoin:miter;stroke-opacity:1"
           id="rect3285"
           width="40"
           height="420"
           x="380"
           y="492.36218" />
        <path
           style="fill:#c8beb7;fill-rule:evenodd;stroke:#000000;stroke-width:1px;stroke-linecap:butt;stroke-linejoin:miter;stroke-opacity:1"
           d="M 260,592.36218 L 340,512.36218 L 460,512.36218 L 460,502.36218 L 480,502.36218 L 480,582.36218 L 460,582.36218 L 460,572.36218 L 320,572.36218 L 260,592.36218"
           id="path3281"
           sodipodi:nodetypes="cccccccccc" />
        <path
           style="fill:none;fill-rule:evenodd;stroke:#000000;stroke-width:1px;stroke-linecap:butt;stroke-linejoin:miter;stroke-opacity:1"
           d="M 460,512.36218 C 460,525.69552 460,539.02885 460,552.36218"
           id="path3283" />
      </g>
      <g
         inkscape:export-ydpi="33.007736"
         inkscape:export-xdpi="33.007736"
         inkscape:export-filename="/home/abez/clip-art-so-far.png"
         transform="translate(-440,330)"
         id="g3312">
        <path
           style="fill:#c8beb7;fill-rule:evenodd;stroke:#000000;stroke-width:1px;stroke-linecap:butt;stroke-linejoin:miter;stroke-opacity:1"
           d="M 240,642.36218 L 280,642.36218 L 270,652.36218 L 270,722.36218 L 260,742.36218 L 250,722.36218 L 250,652.36218 L 240,642.36218 z"
           id="path3292" />
        <path
           style="fill:none;fill-rule:evenodd;stroke:#000000;stroke-width:1px;stroke-linecap:butt;stroke-linejoin:miter;stroke-opacity:1"
           d="M 250,652.36218 L 270,662.36218 L 250,662.36218 L 270,672.36218 L 250,672.36218 L 270,682.36218 L 250,682.36218 L 270,692.36218 L 250,692.36218 L 270,702.36218 L 250,702.36218 L 270,712.36218 L 250,712.36218 L 270,722.36218 L 250,722.36218 L 250,722.36218"
           id="path3294" />
      </g>
      <path
         inkscape:export-ydpi="33.007736"
         inkscape:export-xdpi="33.007736"
         inkscape:export-filename="/home/abez/clip-art-so-far.png"
         sodipodi:nodetypes="cccccccccc"
         id="path3296"
         d="M 90,1012.3622 L 90,1017.3622 L 100,1017.3622 L 100,1092.3622 L 105,1107.3622 L 110,1092.3622 L 110,1017.3622 L 120,1017.3622 L 120,1012.3622 L 90,1012.3622 z"
         style="fill:#c8beb7;fill-rule:evenodd;stroke:#000000;stroke-width:1px;stroke-linecap:butt;stroke-linejoin:miter;stroke-opacity:1" />
      <g
         inkscape:export-ydpi="33.007736"
         inkscape:export-xdpi="33.007736"
         inkscape:export-filename="/home/abez/clip-art-so-far.png"
         transform="translate(-660,330)"
         id="g3306">
        <path
           style="fill:#ffdd55;fill-rule:evenodd;stroke:#000000;stroke-width:1px;stroke-linecap:butt;stroke-linejoin:miter;stroke-opacity:1"
           d="M 540,752.36218 L 520,772.36218 L 520,872.36218 L 540,892.36218 L 560,872.36218 L 560,772.36218 L 540,752.36218"
           id="path3300"
           sodipodi:nodetypes="ccccccc" />
        <rect
           style="fill:#ffd42a;fill-rule:evenodd;stroke:#000000;stroke-width:1px;stroke-linecap:butt;stroke-linejoin:miter;stroke-opacity:1"
           id="rect3298"
           width="60"
           height="20"
           x="510"
           y="742.36218" />
        <path
           style="fill:#c8beb7;fill-rule:evenodd;stroke:#000000;stroke-width:1px;stroke-linecap:butt;stroke-linejoin:miter;stroke-opacity:1"
           d="M 530,742.36218 L 530,562.36218 L 540,542.36218 L 550,562.36218 L 550,742.36218 L 530,742.36218 z"
           id="path3302" />
        <path
           style="fill:#917c6f;fill-rule:evenodd;stroke:#000000;stroke-width:1px;stroke-linecap:butt;stroke-linejoin:miter;stroke-opacity:1"
           d="M 540,542.36218 L 540,562.36218 L 550,562.36218 L 540,542.36218 z"
           id="path3304" />
      </g>
      <text
         inkscape:export-ydpi="33.007736"
         inkscape:export-xdpi="33.007736"
         inkscape:export-filename="/home/abez/clip-art-so-far.png"
         id="text8626"
         y="1232.3622"
         x="-160"
         style="font-size:24px;font-style:normal;font-weight:bold;writing-mode:lr-tb;fill:#000000;fill-opacity:1;stroke:none;stroke-width:1px;stroke-linecap:butt;stroke-linejoin:miter;stroke-opacity:1;font-family:Sans;-inkscape-font-specification:Sans"
         xml:space="preserve"><tspan
           y="1232.3622"
           x="-160"
           id="tspan8628"
           sodipodi:role="line">Build / Configuration</tspan></text>
    </g>
    <g
       id="g10879"
       transform="matrix(0.5467525,0,0,0.5467525,-15.706785,358.08988)">
      <g
         transform="matrix(0.1437598,0,0,0.1437598,207.98416,796.0139)"
         id="g10843">
        <rect
           style="fill:#0000ff;fill-opacity:1;stroke:#000000;stroke-width:1.4959749;stroke-miterlimit:4;stroke-dasharray:none;stroke-dashoffset:0;stroke-opacity:1"
           id="rect3386"
           width="276.75537"
           height="53.427689"
           x="-536.50739"
           y="324.72202"
           transform="matrix(3.0094411e-2,-0.9995471,0.9995471,3.0094411e-2,0,0)"
           inkscape:export-filename="/home/abez/clip-art-so-far.png"
           inkscape:export-xdpi="33.007736"
           inkscape:export-ydpi="33.007736" />
        <g
           id="g3209"
           transform="translate(431.41804,441.55146)"
           inkscape:export-filename="/home/abez/clip-art-so-far.png"
           inkscape:export-xdpi="33.007736"
           inkscape:export-ydpi="33.007736">
          <path
             id="path3211"
             d="M -162.03814,125.01779 C -167.55814,125.01779 -172.03814,129.4978 -172.03814,135.01779 C -172.03814,140.53779 -167.55815,145.0178 -162.03814,145.01779 C -161.87085,145.01779 -161.70343,144.99467 -161.53814,144.98654 L -42.538136,144.98654 C -42.367776,144.99518 -42.210636,145.01779 -42.038136,145.01779 C -36.518136,145.01779 -32.038126,140.5378 -32.038136,135.01779 C -32.038136,129.49779 -36.518146,125.0178 -42.038136,125.01779 C -42.383136,125.01779 -42.702096,125.04613 -43.038136,125.08029 L -161.00689,125.08029 C -161.34292,125.04613 -161.69314,125.01779 -162.03814,125.01779 z M -152.03814,145.01779 L -152.03814,395.01779 L -152.03814,405.01779 L -151.00689,405.01779 C -146.36545,427.82532 -126.20957,445.01778 -102.03814,445.01779 C -77.866706,445.01779 -57.679576,427.82532 -53.038136,405.01779 L -52.038136,405.01779 L -52.038136,395.01779 L -52.038136,145.01779 L -152.03814,145.01779 z"
             style="fill:#00ffff;fill-opacity:1;fill-rule:nonzero;stroke:#000000;stroke-width:3.54299998;stroke-linecap:butt;stroke-linejoin:miter;stroke-miterlimit:4;stroke-dasharray:none;stroke-dashoffset:0;stroke-opacity:1" />
          <path
             id="path3213"
             d="M -115.16314,260.40561 C -128.24434,260.40561 -139.25455,263.89211 -151.53814,266.62436 L -151.53814,394.93686 L -151.53814,404.93686 L -150.50689,404.93686 C -145.86545,427.7444 -125.70957,444.93685 -101.53814,444.93686 C -77.366706,444.93687 -57.179576,427.74439 -52.538136,404.93686 L -51.538136,404.93686 L -51.538136,394.93686 L -51.538136,264.81186 C -63.102836,266.82853 -74.881776,266.46812 -86.881886,266.46811 C -97.294166,266.46811 -104.84606,260.40561 -115.16314,260.40561 z"
             style="fill:#ffff00;fill-opacity:1;fill-rule:nonzero;stroke:#000000;stroke-width:3.54299998;stroke-linecap:butt;stroke-linejoin:miter;stroke-miterlimit:4;stroke-dasharray:none;stroke-dashoffset:0;stroke-opacity:1" />
          <path
             transform="translate(-252.53814,-37.375644)"
             d="M 153.54319,340.70972 A 12.121831,12.626906 0 1 1 129.29953,340.70972 A 12.121831,12.626906 0 1 1 153.54319,340.70972 z"
             sodipodi:ry="12.626906"
             sodipodi:rx="12.121831"
             sodipodi:cy="340.70972"
             sodipodi:cx="141.42136"
             id="path3215"
             style="opacity:1;fill:#00ffff;fill-opacity:1;fill-rule:nonzero;stroke:#000000;stroke-width:3.54299998;stroke-linecap:butt;stroke-linejoin:miter;stroke-miterlimit:4;stroke-dasharray:none;stroke-dashoffset:0;stroke-opacity:1"
             sodipodi:type="arc" />
          <path
             transform="translate(-264.65997,7.5761408)"
             d="M 153.54319,340.70972 A 12.121831,12.626906 0 1 1 129.29953,340.70972 A 12.121831,12.626906 0 1 1 153.54319,340.70972 z"
             sodipodi:ry="12.626906"
             sodipodi:rx="12.121831"
             sodipodi:cy="340.70972"
             sodipodi:cx="141.42136"
             id="path3217"
             style="opacity:1;fill:#00ffff;fill-opacity:1;fill-rule:nonzero;stroke:#000000;stroke-width:3.54299998;stroke-linecap:butt;stroke-linejoin:miter;stroke-miterlimit:4;stroke-dasharray:none;stroke-dashoffset:0;stroke-opacity:1"
             sodipodi:type="arc" />
          <path
             transform="translate(-248.49753,47.982244)"
             d="M 153.54319,340.70972 A 12.121831,12.626906 0 1 1 129.29953,340.70972 A 12.121831,12.626906 0 1 1 153.54319,340.70972 z"
             sodipodi:ry="12.626906"
             sodipodi:rx="12.121831"
             sodipodi:cy="340.70972"
             sodipodi:cx="141.42136"
             id="path3219"
             style="opacity:1;fill:#00ffff;fill-opacity:1;fill-rule:nonzero;stroke:#000000;stroke-width:3.54299998;stroke-linecap:butt;stroke-linejoin:miter;stroke-miterlimit:4;stroke-dasharray:none;stroke-dashoffset:0;stroke-opacity:1"
             sodipodi:type="arc" />
        </g>
        <g
           id="g3221"
           transform="translate(595.6617,441.55146)"
           inkscape:export-filename="/home/abez/clip-art-so-far.png"
           inkscape:export-xdpi="33.007736"
           inkscape:export-ydpi="33.007736">
          <path
             id="path3223"
             d="M -162.03814,125.01779 C -167.55814,125.01779 -172.03814,129.4978 -172.03814,135.01779 C -172.03814,140.53779 -167.55815,145.0178 -162.03814,145.01779 C -161.87085,145.01779 -161.70343,144.99467 -161.53814,144.98654 L -42.538136,144.98654 C -42.367776,144.99518 -42.210636,145.01779 -42.038136,145.01779 C -36.518136,145.01779 -32.038126,140.5378 -32.038136,135.01779 C -32.038136,129.49779 -36.518146,125.0178 -42.038136,125.01779 C -42.383136,125.01779 -42.702096,125.04613 -43.038136,125.08029 L -161.00689,125.08029 C -161.34292,125.04613 -161.69314,125.01779 -162.03814,125.01779 z M -152.03814,145.01779 L -152.03814,395.01779 L -152.03814,405.01779 L -151.00689,405.01779 C -146.36545,427.82532 -126.20957,445.01778 -102.03814,445.01779 C -77.866706,445.01779 -57.679576,427.82532 -53.038136,405.01779 L -52.038136,405.01779 L -52.038136,395.01779 L -52.038136,145.01779 L -152.03814,145.01779 z"
             style="fill:#00ffff;fill-opacity:1;fill-rule:nonzero;stroke:#000000;stroke-width:3.54299998;stroke-linecap:butt;stroke-linejoin:miter;stroke-miterlimit:4;stroke-dasharray:none;stroke-dashoffset:0;stroke-opacity:1" />
          <path
             id="path3225"
             d="M -115.16314,260.40561 C -128.24434,260.40561 -139.25455,263.89211 -151.53814,266.62436 L -151.53814,394.93686 L -151.53814,404.93686 L -150.50689,404.93686 C -145.86545,427.7444 -125.70957,444.93685 -101.53814,444.93686 C -77.366706,444.93687 -57.179576,427.74439 -52.538136,404.93686 L -51.538136,404.93686 L -51.538136,394.93686 L -51.538136,264.81186 C -63.102836,266.82853 -74.881776,266.46812 -86.881886,266.46811 C -97.294166,266.46811 -104.84606,260.40561 -115.16314,260.40561 z"
             style="fill:#ff0000;fill-opacity:1;fill-rule:nonzero;stroke:#000000;stroke-width:3.54299998;stroke-linecap:butt;stroke-linejoin:miter;stroke-miterlimit:4;stroke-dasharray:none;stroke-dashoffset:0;stroke-opacity:1" />
          <path
             transform="translate(-252.53814,-37.375644)"
             d="M 153.54319,340.70972 A 12.121831,12.626906 0 1 1 129.29953,340.70972 A 12.121831,12.626906 0 1 1 153.54319,340.70972 z"
             sodipodi:ry="12.626906"
             sodipodi:rx="12.121831"
             sodipodi:cy="340.70972"
             sodipodi:cx="141.42136"
             id="path3227"
             style="opacity:1;fill:#00ffff;fill-opacity:1;fill-rule:nonzero;stroke:#000000;stroke-width:3.54299998;stroke-linecap:butt;stroke-linejoin:miter;stroke-miterlimit:4;stroke-dasharray:none;stroke-dashoffset:0;stroke-opacity:1"
             sodipodi:type="arc" />
          <path
             transform="translate(-264.65997,7.5761408)"
             d="M 153.54319,340.70972 A 12.121831,12.626906 0 1 1 129.29953,340.70972 A 12.121831,12.626906 0 1 1 153.54319,340.70972 z"
             sodipodi:ry="12.626906"
             sodipodi:rx="12.121831"
             sodipodi:cy="340.70972"
             sodipodi:cx="141.42136"
             id="path3229"
             style="opacity:1;fill:#00ffff;fill-opacity:1;fill-rule:nonzero;stroke:#000000;stroke-width:3.54299998;stroke-linecap:butt;stroke-linejoin:miter;stroke-miterlimit:4;stroke-dasharray:none;stroke-dashoffset:0;stroke-opacity:1"
             sodipodi:type="arc" />
          <path
             transform="translate(-248.49753,47.982244)"
             d="M 153.54319,340.70972 A 12.121831,12.626906 0 1 1 129.29953,340.70972 A 12.121831,12.626906 0 1 1 153.54319,340.70972 z"
             sodipodi:ry="12.626906"
             sodipodi:rx="12.121831"
             sodipodi:cy="340.70972"
             sodipodi:cx="141.42136"
             id="path3231"
             style="opacity:1;fill:#00ffff;fill-opacity:1;fill-rule:nonzero;stroke:#000000;stroke-width:3.54299998;stroke-linecap:butt;stroke-linejoin:miter;stroke-miterlimit:4;stroke-dasharray:none;stroke-dashoffset:0;stroke-opacity:1"
             sodipodi:type="arc" />
        </g>
        <rect
           style="fill:url(#linearGradient10871);fill-opacity:1;stroke:#000000;stroke-width:1.49597442;stroke-miterlimit:4;stroke-dasharray:none;stroke-dashoffset:0;stroke-opacity:1"
           width="276.75537"
           height="53.427662"
           x="240.69066"
           y="-553.0177"
           transform="matrix(-4.7169726e-2,0.9988869,-0.9988869,-4.7169726e-2,0,0)"
           inkscape:transform-center-x="10.299925"
           inkscape:transform-center-y="-67.127897"
           id="rect3416"
           inkscape:export-filename="/home/abez/clip-art-so-far.png"
           inkscape:export-xdpi="33.007736"
           inkscape:export-ydpi="33.007736" />
        <g
           id="g8583"
           transform="translate(-719.60816,72.585855)"
           inkscape:export-filename="/home/abez/clip-art-so-far.png"
           inkscape:export-xdpi="33.007736"
           inkscape:export-ydpi="33.007736">
          <g
             transform="translate(963.03814,347.28189)"
             id="g8571">
            <path
               style="fill:#00ffff;fill-opacity:1;fill-rule:nonzero;stroke:#000000;stroke-width:3.54299998;stroke-linecap:butt;stroke-linejoin:miter;stroke-miterlimit:4;stroke-dasharray:none;stroke-dashoffset:0;stroke-opacity:1"
               d="M -162.03814,125.01779 C -167.55814,125.01779 -172.03814,129.4978 -172.03814,135.01779 C -172.03814,140.53779 -167.55815,145.0178 -162.03814,145.01779 C -161.87085,145.01779 -161.70343,144.99467 -161.53814,144.98654 L -42.538136,144.98654 C -42.367776,144.99518 -42.210636,145.01779 -42.038136,145.01779 C -36.518136,145.01779 -32.038126,140.5378 -32.038136,135.01779 C -32.038136,129.49779 -36.518146,125.0178 -42.038136,125.01779 C -42.383136,125.01779 -42.702096,125.04613 -43.038136,125.08029 L -161.00689,125.08029 C -161.34292,125.04613 -161.69314,125.01779 -162.03814,125.01779 z M -152.03814,145.01779 L -152.03814,395.01779 L -152.03814,405.01779 L -151.00689,405.01779 C -146.36545,427.82532 -126.20957,445.01778 -102.03814,445.01779 C -77.866706,445.01779 -57.679576,427.82532 -53.038136,405.01779 L -52.038136,405.01779 L -52.038136,395.01779 L -52.038136,145.01779 L -152.03814,145.01779 z"
               id="path8573" />
            <path
               style="fill:#ff00ff;fill-opacity:1;fill-rule:nonzero;stroke:#000000;stroke-width:3.54299998;stroke-linecap:butt;stroke-linejoin:miter;stroke-miterlimit:4;stroke-dasharray:none;stroke-dashoffset:0;stroke-opacity:1"
               d="M -115.16314,260.40561 C -128.24434,260.40561 -139.25455,263.89211 -151.53814,266.62436 L -151.53814,394.93686 L -151.53814,404.93686 L -150.50689,404.93686 C -145.86545,427.7444 -125.70957,444.93685 -101.53814,444.93686 C -77.366706,444.93687 -57.179576,427.74439 -52.538136,404.93686 L -51.538136,404.93686 L -51.538136,394.93686 L -51.538136,264.81186 C -63.102836,266.82853 -74.881776,266.46812 -86.881886,266.46811 C -97.294166,266.46811 -104.84606,260.40561 -115.16314,260.40561 z"
               id="path8575" />
            <path
               sodipodi:type="arc"
               style="opacity:1;fill:#00ffff;fill-opacity:1;fill-rule:nonzero;stroke:#000000;stroke-width:3.54299998;stroke-linecap:butt;stroke-linejoin:miter;stroke-miterlimit:4;stroke-dasharray:none;stroke-dashoffset:0;stroke-opacity:1"
               id="path8577"
               sodipodi:cx="141.42136"
               sodipodi:cy="340.70972"
               sodipodi:rx="12.121831"
               sodipodi:ry="12.626906"
               d="M 153.54319,340.70972 A 12.121831,12.626906 0 1 1 129.29953,340.70972 A 12.121831,12.626906 0 1 1 153.54319,340.70972 z"
               transform="translate(-252.53814,-37.375644)" />
            <path
               sodipodi:type="arc"
               style="opacity:1;fill:#00ffff;fill-opacity:1;fill-rule:nonzero;stroke:#000000;stroke-width:3.54299998;stroke-linecap:butt;stroke-linejoin:miter;stroke-miterlimit:4;stroke-dasharray:none;stroke-dashoffset:0;stroke-opacity:1"
               id="path8579"
               sodipodi:cx="141.42136"
               sodipodi:cy="340.70972"
               sodipodi:rx="12.121831"
               sodipodi:ry="12.626906"
               d="M 153.54319,340.70972 A 12.121831,12.626906 0 1 1 129.29953,340.70972 A 12.121831,12.626906 0 1 1 153.54319,340.70972 z"
               transform="translate(-264.65997,7.5761408)" />
            <path
               sodipodi:type="arc"
               style="opacity:1;fill:#00ffff;fill-opacity:1;fill-rule:nonzero;stroke:#000000;stroke-width:3.54299998;stroke-linecap:butt;stroke-linejoin:miter;stroke-miterlimit:4;stroke-dasharray:none;stroke-dashoffset:0;stroke-opacity:1"
               id="path8581"
               sodipodi:cx="141.42136"
               sodipodi:cy="340.70972"
               sodipodi:rx="12.121831"
               sodipodi:ry="12.626906"
               d="M 153.54319,340.70972 A 12.121831,12.626906 0 1 1 129.29953,340.70972 A 12.121831,12.626906 0 1 1 153.54319,340.70972 z"
               transform="translate(-248.49753,47.982244)" />
          </g>
          <rect
             id="rect8567"
             inkscape:transform-center-y="-65.714286"
             inkscape:transform-center-x="17.142857"
             transform="matrix(5.5716256e-2,0.9984466,-0.9984466,5.5716256e-2,0,0)"
             y="-855.05615"
             x="374.25858"
             height="53.427654"
             width="276.75537"
             style="fill:url(#linearGradient10873);fill-opacity:1;stroke:#000000;stroke-width:1.49597418;stroke-miterlimit:4;stroke-dasharray:none;stroke-dashoffset:0;stroke-opacity:1" />
          <g
             transform="translate(963.03814,347.28189)"
             id="g8555">
            <path
               sodipodi:nodetypes="cssccssscccccc"
               style="fill:#00ffff;fill-opacity:1;fill-rule:nonzero;stroke:#000000;stroke-width:3.54299998;stroke-linecap:butt;stroke-linejoin:miter;stroke-miterlimit:4;stroke-dasharray:none;stroke-dashoffset:0;stroke-opacity:1"
               d="M -162.03814,125.01779 C -167.55814,125.01779 -172.03814,129.4978 -172.03814,135.01779 C -172.03814,140.53779 -167.55815,145.0178 -162.03814,145.01779 C -161.87085,145.01779 -161.70343,144.99467 -161.53814,144.98654 L -42.538136,144.98654 C -42.367776,144.99518 -42.210636,145.01779 -42.038136,145.01779 C -36.518136,145.01779 -32.038126,140.5378 -32.038136,135.01779 C -32.038136,129.49779 -36.518146,125.0178 -42.038136,125.01779 C -42.383136,125.01779 -42.702096,125.04613 -43.038136,125.08029 L -161.00689,125.08029 C -161.34292,125.04613 -161.69314,125.01779 -162.03814,125.01779 z M -152.03814,145.01779 L -52.038136,145.01779 L -152.03814,145.01779 z"
               id="path8557" />
          </g>
        </g>
      </g>
      <text
         transform="translate(-4.149475e-6,698.0315)"
         id="text10875"
         y="242.78415"
         x="232.39766"
         style="font-size:20px;font-style:normal;font-weight:normal;fill:#000000;fill-opacity:1;stroke:none;stroke-width:1px;stroke-linecap:butt;stroke-linejoin:miter;stroke-opacity:1;font-family:Bitstream Vera Sans"
         xml:space="preserve"><tspan
           y="242.78415"
           x="232.39766"
           id="tspan10877"
           sodipodi:role="line">tests</tspan></text>
    </g>
    <g
       id="g11227"
       transform="matrix(0.5467525,0,0,0.5467525,-25.123675,365.08356)">
      <g
         inkscape:export-ydpi="33.007736"
         inkscape:export-xdpi="33.007736"
         inkscape:export-filename="/home/abez/clip-art-so-far.png"
         transform="matrix(0.3221188,0,0,0.3221188,344.66713,534.28261)"
         style="fill:#0000ff"
         id="g3443">
        <g
           style="fill:#0000ff"
           id="g3439"
           transform="translate(0,-80.012817)">
          <path
             id="rect3424"
             d="M -520,692.375 L -520,852.375 C -520,879.975 -470.72,902.375 -410,902.375 C -349.28,902.375 -300,879.975 -300,852.375 L -300,692.375 L -520,692.375 z"
             style="fill:#0000ff;fill-opacity:1;stroke:#ffffff;stroke-width:10;stroke-miterlimit:4;stroke-dasharray:none;stroke-dashoffset:0;stroke-opacity:1" />
          <path
             transform="translate(0,70)"
             d="M -300,622.36218 A 110,50 0 1 1 -520,622.36218 A 110,50 0 1 1 -300,622.36218 z"
             sodipodi:ry="50"
             sodipodi:rx="110"
             sodipodi:cy="622.36218"
             sodipodi:cx="-410"
             id="path3422"
             style="fill:#0000ff;fill-opacity:1;stroke:#ffffff;stroke-width:10;stroke-miterlimit:4;stroke-dasharray:none;stroke-dashoffset:0;stroke-opacity:1"
             sodipodi:type="arc" />
        </g>
      </g>
      <text
         transform="scale(0.7474952,1.3378012)"
         id="text10910"
         y="569.45007"
         x="284.56802"
         style="font-size:14.94990349px;font-style:normal;font-weight:bold;text-align:center;text-anchor:middle;fill:#ffffff;fill-opacity:1;stroke:none;stroke-width:1px;stroke-linecap:butt;stroke-linejoin:miter;stroke-opacity:1;font-family:Bitstream Vera Sans;-inkscape-font-specification:Bitstream Vera Sans Bold"
         xml:space="preserve"><tspan
           y="569.45007"
           x="284.56802"
           id="tspan10912"
           sodipodi:role="line">Software</tspan><tspan
           id="tspan10914"
           y="588.13745"
           x="284.56802"
           sodipodi:role="line">Repository</tspan></text>
    </g>
    <g
       id="g11192"
       transform="matrix(0.5467525,0,0,0.5467525,-24.899818,369.74094)">
      <g
         transform="translate(50.918158,62.962429)"
         id="g11158">
        <g
           id="g2977"
           transform="matrix(8.1393393e-2,0,0,8.1393393e-2,227.15538,678.1186)">
          <path
             transform="translate(88.571429,104.28571)"
             d="M 344.28572,56.647896 L 166.51272,55.437218 L -6.219758,53.29804 L 83.715219,-100.05255 L 171.93404,-248.57368 L 259.77206,-94.012408 L 344.28572,56.647896 z"
             inkscape:randomized="0"
             inkscape:rounded="0"
             inkscape:flatsided="false"
             sodipodi:arg2="1.6050908"
             sodipodi:arg1="0.5331557"
             sodipodi:r2="101.70627"
             sodipodi:r1="202.37367"
             sodipodi:cy="-46.209248"
             sodipodi:cx="170"
             sodipodi:sides="3"
             id="path2965"
             style="fill:#000000;stroke-width:5;stroke-miterlimit:4;stroke-dasharray:none"
             sodipodi:type="star" />
          <path
             transform="matrix(0.7800193,0,0,0.7800193,129.59879,93.64366)"
             d="M 344.28572,56.647896 L 166.51272,55.437218 L -6.219758,53.29804 L 83.715219,-100.05255 L 171.93404,-248.57368 L 259.77206,-94.012408 L 344.28572,56.647896 z"
             inkscape:randomized="0"
             inkscape:rounded="0"
             inkscape:flatsided="false"
             sodipodi:arg2="1.6050908"
             sodipodi:arg1="0.5331557"
             sodipodi:r2="101.70627"
             sodipodi:r1="202.37367"
             sodipodi:cy="-46.209248"
             sodipodi:cx="170"
             sodipodi:sides="3"
             id="path2969"
             style="fill:#800000;stroke-width:5;stroke-miterlimit:4;stroke-dasharray:none"
             sodipodi:type="star" />
          <path
             d="M 88.162248,180.42468 C 124.2073,182.18008 160.30224,182.62166 196.3796,183.24517 C 280.67191,186.49852 364.98448,188.8806 449.33323,189.88308 L 441.10034,195.83574 C 356.43342,192.91815 271.73167,190.58301 187.01269,190.05062 C 148.34725,190.68852 109.66898,191.18237 71.03119,192.87112 L 88.162248,180.42468 z"
             id="path2975"
             style="fill:#800000;stroke-width:5;stroke-miterlimit:4;stroke-dasharray:none" />
        </g>
        <g
           id="g3070"
           transform="matrix(8.1393393e-2,0,0,8.1393393e-2,217.42871,644.09583)">
          <g
             id="g2993">
            <path
               sodipodi:type="star"
               style="fill:#000000;stroke-width:5;stroke-miterlimit:4;stroke-dasharray:none"
               id="path2984"
               sodipodi:sides="3"
               sodipodi:cx="170"
               sodipodi:cy="-46.209248"
               sodipodi:r1="202.37367"
               sodipodi:r2="101.70627"
               sodipodi:arg1="0.5331557"
               sodipodi:arg2="1.6050908"
               inkscape:flatsided="false"
               inkscape:rounded="0"
               inkscape:randomized="0"
               d="M 344.28572,56.647896 L 166.51272,55.437218 L -6.219758,53.29804 L 83.715219,-100.05255 L 171.93404,-248.57368 L 259.77206,-94.012408 L 344.28572,56.647896 z"
               transform="translate(26.960647,459.44543)" />
            <path
               sodipodi:type="star"
               style="fill:#ffff00;stroke-width:5;stroke-miterlimit:4;stroke-dasharray:none"
               id="path2986"
               sodipodi:sides="3"
               sodipodi:cx="170"
               sodipodi:cy="-46.209248"
               sodipodi:r1="202.37367"
               sodipodi:r2="101.70627"
               sodipodi:arg1="0.5331557"
               sodipodi:arg2="1.6050908"
               inkscape:flatsided="false"
               inkscape:rounded="0"
               inkscape:randomized="0"
               d="M 344.28572,56.647896 L 166.51272,55.437218 L -6.219758,53.29804 L 83.715219,-100.05255 L 171.93404,-248.57368 L 259.77206,-94.012408 L 344.28572,56.647896 z"
               transform="matrix(0.7800193,0,0,0.7800193,67.988008,448.80338)" />
            <path
               style="fill:#ffff00;stroke-width:5;stroke-miterlimit:4;stroke-dasharray:none"
               id="path2988"
               d="M 26.551466,535.5844 C 62.596518,537.3398 98.691458,537.78138 134.76882,538.40489 C 219.06113,541.65824 303.3737,544.04032 387.72245,545.0428 L 379.48956,550.99546 C 294.82264,548.07787 210.12089,545.74273 125.40191,545.21034 C 86.736468,545.84824 48.058198,546.34209 9.420408,548.03084 L 26.551466,535.5844 z" />
          </g>
        </g>
        <g
           id="g3064"
           transform="matrix(8.1393393e-2,0,0,8.1393393e-2,282.54281,608.48056)">
          <g
             transform="translate(-518.57143,65.714286)"
             id="g3009">
            <path
               sodipodi:type="star"
               style="fill:#000000;stroke-width:5;stroke-miterlimit:4;stroke-dasharray:none"
               id="path3000"
               sodipodi:sides="3"
               sodipodi:cx="170"
               sodipodi:cy="-46.209248"
               sodipodi:r1="202.37367"
               sodipodi:r2="101.70627"
               sodipodi:arg1="0.5331557"
               sodipodi:arg2="1.6050908"
               inkscape:flatsided="false"
               inkscape:rounded="0"
               inkscape:randomized="0"
               d="M 344.28572,56.647896 L 166.51272,55.437218 L -6.219758,53.29804 L 83.715219,-100.05255 L 171.93404,-248.57368 L 259.77206,-94.012408 L 344.28572,56.647896 z"
               transform="translate(58.389218,829.44544)" />
            <path
               sodipodi:type="star"
               style="fill:#ff0000;stroke-width:5;stroke-miterlimit:4;stroke-dasharray:none"
               id="path3002"
               sodipodi:sides="3"
               sodipodi:cx="170"
               sodipodi:cy="-46.209248"
               sodipodi:r1="202.37367"
               sodipodi:r2="101.70627"
               sodipodi:arg1="0.5331557"
               sodipodi:arg2="1.6050908"
               inkscape:flatsided="false"
               inkscape:rounded="0"
               inkscape:randomized="0"
               d="M 344.28572,56.647896 L 166.51272,55.437218 L -6.219758,53.29804 L 83.715219,-100.05255 L 171.93404,-248.57368 L 259.77206,-94.012408 L 344.28572,56.647896 z"
               transform="matrix(0.7800193,0,0,0.7800193,99.416579,818.80339)" />
            <path
               style="fill:#ff0000;stroke-width:5;stroke-miterlimit:4;stroke-dasharray:none"
               id="path3004"
               d="M 57.980037,905.58441 C 94.025089,907.33981 130.12003,907.78139 166.19739,908.4049 C 250.4897,911.65825 334.80227,914.04033 419.15102,915.04281 L 410.91813,920.99547 C 326.25121,918.07788 241.54946,915.74274 156.83048,915.21035 C 118.16504,915.84825 79.486769,916.3421 40.848979,918.03085 L 57.980037,905.58441 z" />
          </g>
        </g>
        <g
           id="g3058"
           transform="matrix(8.1393393e-2,0,0,8.1393393e-2,267.09675,627.5972)">
          <g
             id="g3020">
            <path
               sodipodi:type="star"
               style="fill:#000000;stroke-width:5;stroke-miterlimit:4;stroke-dasharray:none"
               id="path3014"
               sodipodi:sides="3"
               sodipodi:cx="170"
               sodipodi:cy="-46.209248"
               sodipodi:r1="202.37367"
               sodipodi:r2="101.70627"
               sodipodi:arg1="0.5331557"
               sodipodi:arg2="1.6050908"
               inkscape:flatsided="false"
               inkscape:rounded="0"
               inkscape:randomized="0"
               d="M 344.28572,56.647896 L 166.51272,55.437218 L -6.219758,53.29804 L 83.715219,-100.05255 L 171.93404,-248.57368 L 259.77206,-94.012408 L 344.28572,56.647896 z"
               transform="translate(28.389222,872.30258)" />
            <path
               sodipodi:type="star"
               style="fill:#0000ff;stroke-width:5;stroke-miterlimit:4;stroke-dasharray:none"
               id="path3016"
               sodipodi:sides="3"
               sodipodi:cx="170"
               sodipodi:cy="-46.209248"
               sodipodi:r1="202.37367"
               sodipodi:r2="101.70627"
               sodipodi:arg1="0.5331557"
               sodipodi:arg2="1.6050908"
               inkscape:flatsided="false"
               inkscape:rounded="0"
               inkscape:randomized="0"
               d="M 344.28572,56.647896 L 166.51272,55.437218 L -6.219758,53.29804 L 83.715219,-100.05255 L 171.93404,-248.57368 L 259.77206,-94.012408 L 344.28572,56.647896 z"
               transform="matrix(0.7800193,0,0,0.7800193,69.416582,861.66053)" />
            <path
               style="fill:#0000ff;stroke-width:5;stroke-miterlimit:4;stroke-dasharray:none"
               id="path3018"
               d="M 27.980042,948.44155 C 64.025092,950.1969 100.12003,950.6385 136.19739,951.262 C 220.4897,954.5154 304.80227,956.8975 389.15102,957.8999 L 380.91813,963.8526 C 296.25121,960.935 211.54946,958.5999 126.83048,958.0675 C 88.165042,958.7054 49.486772,959.1992 10.848982,960.888 L 27.980042,948.44155 z" />
          </g>
        </g>
        <g
           id="g3052"
           transform="matrix(8.1393393e-2,0,0,8.1393393e-2,216.26595,612.46868)">
          <g
             transform="translate(2.8571414,-8.5714286)"
             id="g3047">
            <path
               sodipodi:type="star"
               style="fill:#000000;stroke-width:5;stroke-miterlimit:4;stroke-dasharray:none"
               id="path3027"
               sodipodi:sides="3"
               sodipodi:cx="170"
               sodipodi:cy="-46.209248"
               sodipodi:r1="202.37367"
               sodipodi:r2="101.70627"
               sodipodi:arg1="0.5331557"
               sodipodi:arg2="1.6050908"
               inkscape:flatsided="false"
               inkscape:rounded="0"
               inkscape:randomized="0"
               d="M 344.28572,56.647896 L 166.51272,55.437218 L -6.219758,53.29804 L 83.715219,-100.05255 L 171.93404,-248.57368 L 259.77206,-94.012408 L 344.28572,56.647896 z"
               transform="translate(478.38922,853.73116)" />
            <path
               sodipodi:type="star"
               style="fill:#00ff00;stroke-width:5;stroke-miterlimit:4;stroke-dasharray:none"
               id="path3029"
               sodipodi:sides="3"
               sodipodi:cx="170"
               sodipodi:cy="-46.209248"
               sodipodi:r1="202.37367"
               sodipodi:r2="101.70627"
               sodipodi:arg1="0.5331557"
               sodipodi:arg2="1.6050908"
               inkscape:flatsided="false"
               inkscape:rounded="0"
               inkscape:randomized="0"
               d="M 344.28572,56.647896 L 166.51272,55.437218 L -6.219758,53.29804 L 83.715219,-100.05255 L 171.93404,-248.57368 L 259.77206,-94.012408 L 344.28572,56.647896 z"
               transform="matrix(0.7800193,0,0,0.7800193,519.41658,843.08911)" />
            <path
               style="fill:#00ff00;stroke-width:5;stroke-miterlimit:4;stroke-dasharray:none"
               id="path3031"
               d="M 477.98004,929.87013 C 514.02509,931.62548 550.12003,932.06708 586.19739,932.69058 C 670.4897,935.94398 754.80227,938.32608 839.15102,939.32848 L 830.91813,945.28118 C 746.25121,942.36358 661.54946,940.02848 576.83048,939.49608 C 538.16504,940.13398 499.48677,940.62778 460.84898,942.31658 L 477.98004,929.87013 z" />
          </g>
        </g>
        <g
           id="g3042"
           transform="matrix(8.1393393e-2,0,0,8.1393393e-2,186.92982,664.34913)">
          <path
             transform="translate(594.10351,412.30254)"
             d="M 344.28572,56.647896 L 166.51272,55.437218 L -6.219758,53.29804 L 83.715219,-100.05255 L 171.93404,-248.57368 L 259.77206,-94.012408 L 344.28572,56.647896 z"
             inkscape:randomized="0"
             inkscape:rounded="0"
             inkscape:flatsided="false"
             sodipodi:arg2="1.6050908"
             sodipodi:arg1="0.5331557"
             sodipodi:r2="101.70627"
             sodipodi:r1="202.37367"
             sodipodi:cy="-46.209248"
             sodipodi:cx="170"
             sodipodi:sides="3"
             id="path3036"
             style="fill:#000000;stroke-width:5;stroke-miterlimit:4;stroke-dasharray:none"
             sodipodi:type="star" />
          <path
             transform="matrix(0.7800193,0,0,0.7800193,635.13087,401.66054)"
             d="M 344.28572,56.647896 L 166.51272,55.437218 L -6.219758,53.29804 L 83.715219,-100.05255 L 171.93404,-248.57368 L 259.77206,-94.012408 L 344.28572,56.647896 z"
             inkscape:randomized="0"
             inkscape:rounded="0"
             inkscape:flatsided="false"
             sodipodi:arg2="1.6050908"
             sodipodi:arg1="0.5331557"
             sodipodi:r2="101.70627"
             sodipodi:r1="202.37367"
             sodipodi:cy="-46.209248"
             sodipodi:cx="170"
             sodipodi:sides="3"
             id="path3038"
             style="fill:#ff00ff;stroke-width:5;stroke-miterlimit:4;stroke-dasharray:none"
             sodipodi:type="star" />
          <path
             d="M 593.69433,488.44154 C 629.73938,490.19694 665.83432,490.63854 701.91168,491.26204 C 786.20399,494.51544 870.5166,496.89754 954.8653,497.89994 L 946.6324,503.85264 C 861.9655,500.93504 777.26375,498.59994 692.54477,498.06754 C 653.87933,498.70544 615.20106,499.19924 576.56327,500.88804 L 593.69433,488.44154 z"
             id="path3040"
             style="fill:#ff00ff;stroke-width:5;stroke-miterlimit:4;stroke-dasharray:none" />
        </g>
      </g>
      <text
         id="text11188"
         y="783.07086"
         x="262.20471"
         style="font-size:20px;font-style:normal;font-weight:normal;fill:#000000;fill-opacity:1;stroke:none;stroke-width:1px;stroke-linecap:butt;stroke-linejoin:miter;stroke-opacity:1;font-family:Bitstream Vera Sans"
         xml:space="preserve"><tspan
           y="783.07086"
           x="262.20471"
           id="tspan11190"
           sodipodi:role="line">Revisions</tspan></text>
    </g>
    <g
       id="g11628"
       transform="matrix(0.1070598,-1.906128e-2,1.906128e-2,0.1070598,283.61908,1089.7794)">
      <path
         id="path5392"
         d="M -315.14486,-2546.9351 C -292.5243,-2546.9351 -218.32139,-2546.8664 -185.83947,-2561.211 C -175.87203,-2565.6127 -185.83947,-2686.4455 -185.83947,-2696.831 C -185.83947,-2748.4037 -196.66872,-2792.1932 -210.08423,-2839.589 C -227.26968,-2900.3039 -282.29146,-2941.9249 -307.06328,-2996.6229 C -328.20532,-3043.3061 -409.51801,-3077.5579 -452.53186,-3096.5535 C -516.39478,-3124.7563 -591.8536,-3128.9588 -662.65313,-3139.3809 C -720.58334,-3147.9085 -789.73623,-3139.3809 -848.52965,-3139.3809 C -916.33402,-3139.3809 -1035.3569,-3081.4379 -1082.8957,-3039.4502 C -1144.803,-2984.7719 -1210.9434,-2962.4144 -1260.6906,-2903.8301 C -1315.4419,-2839.3527 -1400.035,-2804.1221 -1422.3224,-2725.3826 C -1443.4155,-2650.8622 -1470.8119,-2591.1561 -1470.8119,-2504.1078 C -1470.8119,-2417.6856 -1490.02,-2331.504 -1462.7303,-2247.1434 C -1443.0158,-2186.2 -1392.714,-2121.0618 -1349.5881,-2082.9717 C -1288.6979,-2029.1916 -1235.3892,-1986.1434 -1163.7115,-1954.4894 C -1108.0039,-1929.8881 -953.76945,-1933.0758 -897.01917,-1933.0758 C -803.67734,-1933.0758 -713.38473,-1940.2137 -622.2452,-1940.2137 C -550.16346,-1940.2137 -478.90593,-1982.5709 -412.12392,-1997.3168 C -357.99158,-2009.2697 -305.58133,-2023.2811 -258.57375,-2054.42 C -200.87245,-2092.6427 -174.08692,-2156.2863 -161.59471,-2211.4539 C -151.43398,-2256.3252 -153.51312,-2300.6264 -153.51312,-2347.0739 C -153.51312,-2389.4168 -152.75276,-2429.3709 -161.59471,-2468.4183 C -170.64601,-2508.3901 -239.14061,-2511.2456 -274.73693,-2511.2456 C -342.39022,-2511.2456 -322.17616,-2466.563 -298.98169,-2425.5909 C -276.95289,-2386.6779 -274.73693,-2346.1672 -274.73693,-2297.1086 C -274.73693,-2255.7668 -294.85431,-2218.7447 -315.14486,-2182.9023 C -339.48409,-2139.908 -362.1925,-2110.6939 -404.04233,-2082.9717 C -437.17025,-2061.027 -491.63787,-2047.2822 -533.34773,-2047.2822 C -572.24854,-2047.2822 -645.40726,-2027.892 -686.89789,-2018.7305 C -735.52466,-2007.9934 -783.43901,-1997.3168 -832.36647,-1997.3168 C -883.134,-1997.3168 -927.63063,-2004.4548 -977.83504,-2004.4548 C -1027.1144,-2004.4548 -1071.5615,-2025.8684 -1123.3036,-2025.8684 C -1170.529,-2025.8684 -1231.7306,-2064.5312 -1260.6906,-2090.1095 C -1298.0153,-2123.0758 -1327.7837,-2172.9372 -1349.5881,-2211.4539 C -1371.5907,-2250.3206 -1370.7017,-2300.3226 -1381.9144,-2339.936 C -1392.0073,-2375.5932 -1381.8604,-2418.2145 -1389.996,-2454.1424 C -1398.0683,-2489.7908 -1389.317,-2535.658 -1381.9144,-2568.3489 C -1372.8874,-2608.2133 -1341.5065,-2632.0122 -1341.5065,-2675.4174 C -1341.5065,-2710.4694 -1294.5489,-2755.6601 -1284.9353,-2789.6238 C -1278.595,-2812.0235 -1214.7695,-2867.4952 -1196.0379,-2889.5544 C -1166.9973,-2923.7538 -1110.7544,-2957.7414 -1074.8141,-2989.485 C -1042.3589,-3018.1503 -987.502,-3037.3157 -945.50869,-3046.5881 C -889.16811,-3059.0285 -853.69138,-3082.2776 -791.95853,-3082.2776 C -738.74563,-3082.2776 -678.49293,-3089.4156 -622.2452,-3089.4156 C -578.54337,-3089.4156 -532.81753,-3076.8072 -492.93979,-3068.0019 C -444.43072,-3057.2907 -405.64967,-2992.3243 -387.87916,-2960.9334 C -365.7221,-2921.7938 -359.10998,-2887.8458 -347.47122,-2846.727 C -337.62572,-2811.9436 -332.91132,-2773.8743 -323.22645,-2739.6585 C -313.65579,-2705.846 -315.14486,-2668.4796 -315.14486,-2632.59 C -315.14486,-2600.4133 -306.42933,-2585.4243 -315.14486,-2546.9351 z"
         style="fill:#808000;fill-rule:evenodd;stroke:#000000;stroke-width:0.93984586px;stroke-linecap:butt;stroke-linejoin:miter;stroke-opacity:1" />
      <path
         id="path5394"
         d="M -331.30804,-2546.9351 C -331.30804,-2524.5926 -238.3204,-2568.4361 -218.16582,-2604.0384 C -202.20081,-2632.2399 -210.45817,-2691.0142 -218.16582,-2718.2448 C -229.28929,-2757.5431 -246.38439,-2789.5054 -266.65534,-2825.3133 C -288.3572,-2863.6487 -301.08185,-2907.54 -323.22645,-2946.6576 C -347.91354,-2990.2663 -356.9864,-3015.4173 -404.04233,-3046.5881 C -445.53861,-3074.0762 -501.08237,-3078.7222 -549.5109,-3089.4156 C -596.99858,-3099.9012 -652.99228,-3096.5535 -703.06107,-3096.5535 C -749.42972,-3096.5535 -808.71847,-3085.5831 -848.52965,-3068.0019 C -893.83621,-3047.9938 -943.77442,-3040.2161 -993.99822,-3018.0366 C -1040.6923,-2997.4158 -1088.1952,-2982.4055 -1131.3852,-2953.7955 C -1177.9312,-2922.9624 -1225.5051,-2894.6048 -1252.6091,-2846.727 C -1273.3886,-2810.0206 -1313.1001,-2782.6992 -1333.4249,-2746.7964 C -1356.755,-2705.5847 -1386.7442,-2658.3542 -1398.0776,-2618.3141 C -1408.0318,-2583.1467 -1422.3224,-2563.6989 -1422.3224,-2518.3835 C -1422.3224,-2473.7025 -1417.6315,-2430.4319 -1406.1591,-2389.9014 C -1393.8385,-2346.3734 -1394.0031,-2296.9897 -1381.9144,-2254.2813 C -1367.581,-2203.6423 -1323.5154,-2162.1687 -1309.1801,-2111.5233 C -1297.7574,-2071.1677 -1195.9828,-2054.4079 -1163.7115,-2047.2822 C -1108.2684,-2035.0399 -1066.9249,-2014.4817 -1010.1614,-2004.4548 C -950.77054,-1993.9636 -902.9357,-1983.041 -840.44806,-1983.041 C -794.65239,-1983.041 -748.85673,-1983.041 -703.06107,-1983.041 C -647.60904,-1983.041 -598.91185,-1986.4088 -549.5109,-1997.3168 C -488.09249,-2010.8785 -425.86379,-2016.2318 -371.71598,-2040.1443 C -318.54532,-2063.6252 -287.89213,-2071.3526 -242.41058,-2111.5233 C -203.30615,-2146.0614 -210.08423,-2194.4699 -210.08423,-2240.0054 C -210.08423,-2280.4535 -210.08423,-2320.9016 -210.08423,-2361.3498 C -210.08423,-2411.1939 -254.73828,-2422.9594 -298.98169,-2432.7288 C -320.0627,-2437.3836 -315.14486,-2336.6716 -315.14486,-2325.6603 C -315.14486,-2286.693 -321.50968,-2253.2085 -331.30804,-2218.5918 C -345.86831,-2167.1515 -370.9375,-2147.5565 -420.20551,-2125.799 C -465.41801,-2105.8325 -509.54961,-2092.807 -557.59249,-2075.8338 C -602.39926,-2060.0039 -644.97462,-2051.5203 -686.89789,-2033.0063 C -727.18198,-2015.2163 -784.09041,-2018.7305 -832.36647,-2018.7305 C -887.94017,-2018.7305 -936.2822,-2029.1846 -985.91663,-2040.1443 C -1026.8689,-2049.1868 -1067.3354,-2052.7687 -1107.1405,-2061.5579 C -1164.6776,-2074.2625 -1187.7321,-2079.2541 -1236.4458,-2111.5233 C -1280.3662,-2140.6171 -1312.8571,-2167.3409 -1325.3433,-2211.4539 C -1336.4319,-2250.6288 -1341.5065,-2293.7012 -1341.5065,-2332.7981 C -1341.5065,-2371.3523 -1354.5646,-2421.759 -1365.7512,-2461.2804 C -1376.1845,-2498.14 -1358.3458,-2537.4085 -1349.5881,-2568.3489 C -1338.5762,-2607.2529 -1319.5935,-2638.6278 -1309.1801,-2675.4174 C -1298.226,-2714.1174 -1277.03,-2753.7787 -1244.5274,-2782.4859 C -1207.3089,-2815.3584 -1185.5494,-2854.3201 -1155.63,-2889.5544 C -1119.289,-2932.3509 -1061.1129,-2957.2084 -1010.1614,-2975.2091 C -965.7574,-2990.8967 -921.21016,-3007.3534 -880.856,-3025.1745 C -848.35104,-3039.5291 -790.52433,-3039.4502 -751.55059,-3039.4502 C -698.76758,-3039.4502 -657.30586,-3057.8988 -606.08202,-3046.5881 C -563.596,-3037.2069 -525.70977,-3034.1948 -484.8582,-3025.1745 C -435.86366,-3014.3561 -400.38628,-2973.283 -371.71598,-2939.5196 C -346.33977,-2909.6356 -339.38963,-2862.8178 -339.38963,-2825.3133 C -339.38963,-2787.2455 -323.22645,-2752.2459 -323.22645,-2711.1069 C -323.22645,-2670.6588 -323.22645,-2630.2106 -323.22645,-2589.7625 C -323.22645,-2575.2899 -328.61418,-2561.211 -331.30804,-2546.9351 z"
         style="fill:#ffff00;fill-rule:evenodd;stroke:#000000;stroke-width:0.93984586px;stroke-linecap:butt;stroke-linejoin:miter;stroke-opacity:1" />
      <path
         transform="translate(-40.406102,-32.324881)"
         d="M -88.893433,-2454.8875 A 105.05586,96.974648 0 1 1 -299.00516,-2454.8875 A 105.05586,96.974648 0 1 1 -88.893433,-2454.8875 z"
         sodipodi:ry="96.974648"
         sodipodi:rx="105.05586"
         sodipodi:cy="-2454.8875"
         sodipodi:cx="-193.9493"
         id="path5396"
         style="fill:#ffff00;stroke:#000000;stroke-width:6.69999981;stroke-miterlimit:4;stroke-dasharray:none;stroke-opacity:1"
         sodipodi:type="arc" />
      <path
         id="path5400"
         d="M -205.71429,-2570.495 C -212.41644,-2572.1705 -42.386495,-2581.9235 114.28571,-2581.9235 C 239.49692,-2581.9235 352.37789,-2570.495 480,-2570.495 C 596.63322,-2570.495 703.43176,-2616.2092 822.85714,-2616.2092 C 892.55485,-2616.2092 1009.6589,-2637.8191 1085.7143,-2650.495 C 1182.2434,-2666.5831 1287.2644,-2673.3521 1382.8571,-2673.3521 C 1460.1507,-2673.3521 1535.6172,-2696.2092 1611.4286,-2696.2092 C 1712.7909,-2696.2092 1731.2168,-2645.8393 1748.5714,-2559.0664 C 1763.0559,-2486.6438 1728.0043,-2401.3564 1680,-2353.3521 C 1632.3329,-2305.685 1497.1225,-2353.3521 1440,-2353.3521 C 1338.5757,-2353.3521 1237.0363,-2387.6378 1131.4286,-2387.6378 C 1055.2381,-2387.6378 979.04762,-2387.6378 902.85714,-2387.6378 C 827.22955,-2387.6378 754.28497,-2399.0664 674.28571,-2399.0664 C 587.91796,-2399.0664 511.79259,-2387.6378 422.85714,-2387.6378 C 346.66667,-2387.6378 270.47619,-2387.6378 194.28571,-2387.6378 C 109.12037,-2387.6378 9.8496389,-2402.3183 -68.571428,-2421.9235 C -128.2122,-2436.8337 -205.71429,-2407.0298 -205.71429,-2479.0664 C -205.71429,-2486.6854 -205.71429,-2494.3045 -205.71429,-2501.9235"
         style="fill:#6c5353;fill-rule:evenodd;stroke:#000000;stroke-width:1px;stroke-linecap:butt;stroke-linejoin:miter;stroke-opacity:1" />
      <path
         id="path11626"
         d="M -1235.593,-2546.5477 C -1261.1229,-2444.4283 -1070.8911,-2678.7103 -980.6294,-2732.8673 C -884.82602,-2790.3493 -805.64823,-2866.5393 -725.66576,-2850.5428 C -612.63403,-2827.9365 -840.25444,-2644.6107 -951.21052,-2644.6107 C -1031.7408,-2644.6107 -1108.1112,-2572.5075 -1108.1112,-2497.5163 C -1108.1112,-2412.7231 -1155.7781,-2338.7961 -1098.3049,-2262.1652 C -1039.8381,-2184.2094 -805.48703,-2463.0781 -774.69723,-2487.71 C -696.61402,-2550.1765 -607.99023,-2603.313 -607.99023,-2448.4848 C -607.99023,-2346.9697 -623.50383,-2312.6235 -500.121,-2281.7778"
         style="fill:none;fill-rule:evenodd;stroke:#0000ff;stroke-width:2.5;stroke-linecap:butt;stroke-linejoin:miter;stroke-miterlimit:4;stroke-dasharray:none;stroke-opacity:1" />
    </g>
    <text
       xml:space="preserve"
       style="font-size:24px;font-style:normal;font-weight:bold;fill:#000000;fill-opacity:1;stroke:none;stroke-width:1px;stroke-linecap:butt;stroke-linejoin:miter;stroke-opacity:1;font-family:Bitstream Vera Sans;-inkscape-font-specification:Sans"
       x="56.476524"
       y="733.46454"
       id="text43675"><tspan
         sodipodi:role="line"
         id="tspan43677"
         x="56.476524"
         y="733.46454">Querying</tspan></text>
    <text
       xml:space="preserve"
       style="font-size:24px;font-style:normal;font-weight:bold;fill:#000000;fill-opacity:1;stroke:none;stroke-width:1px;stroke-linecap:butt;stroke-linejoin:miter;stroke-opacity:1;font-family:Bitstream Vera Sans;-inkscape-font-specification:Sans"
       x="304.7244"
       y="938.97638"
       id="text43679"><tspan
         sodipodi:role="line"
         id="tspan43681"
         x="304.7244"
         y="938.97638">[Cubranic]</tspan><tspan
         sodipodi:role="line"
         x="304.7244"
         y="968.97638"
         id="tspan43685">[Kim]</tspan><tspan
         sodipodi:role="line"
         x="304.7244"
         y="998.97638"
         id="tspan43683">[Hindle]</tspan></text>
    <text
       xml:space="preserve"
       style="font-size:24px;font-style:normal;font-weight:bold;fill:#000000;fill-opacity:1;stroke:none;stroke-width:1px;stroke-linecap:butt;stroke-linejoin:miter;stroke-opacity:1;font-family:Bitstream Vera Sans;-inkscape-font-specification:Sans"
       x="134.49352"
       y="281.40262"
       id="text43701"
       transform="translate(-4.149475e-6,698.0315)"><tspan
         sodipodi:role="line"
         id="tspan43703"
         x="134.49352"
         y="281.40262" /></text>
    <text
       xml:space="preserve"
       style="font-size:18px;font-style:normal;font-weight:normal;fill:#000000;fill-opacity:1;stroke:none;stroke-width:1px;stroke-linecap:butt;stroke-linejoin:miter;stroke-opacity:1;font-family:Bitstream Vera Sans;-inkscape-font-specification:Bitstream Vera Sans"
       x="56.692909"
       y="946.06299"
       id="text44238"><tspan
         sodipodi:role="line"
         id="tspan44240"
         x="56.692909"
         y="946.06299">* 1st Order Logic</tspan><tspan
         sodipodi:role="line"
         x="56.692909"
         y="968.56299"
         id="tspan44242">* Temporal Logic</tspan><tspan
         sodipodi:role="line"
         x="56.692909"
         y="991.06299"
         id="tspan44244">* Unification</tspan></text>
  </g>
</svg>
