<?xml version="1.0" encoding="UTF-8" standalone="no"?>
<!-- Created with Inkscape (http://www.inkscape.org/) -->
<svg
   xmlns:dc="http://purl.org/dc/elements/1.1/"
   xmlns:cc="http://creativecommons.org/ns#"
   xmlns:rdf="http://www.w3.org/1999/02/22-rdf-syntax-ns#"
   xmlns:svg="http://www.w3.org/2000/svg"
   xmlns="http://www.w3.org/2000/svg"
   xmlns:sodipodi="http://sodipodi.sourceforge.net/DTD/sodipodi-0.dtd"
   xmlns:inkscape="http://www.inkscape.org/namespaces/inkscape"
   width="453.5433"
   height="340.15747"
   id="svg2"
   sodipodi:version="0.32"
   inkscape:version="0.46"
   sodipodi:docname="slide-2000-Prediction.svg"
   version="1.0"
   inkscape:output_extension="org.inkscape.output.svg.inkscape">
  <defs
     id="defs4">
    <inkscape:perspective
       sodipodi:type="inkscape:persp3d"
       inkscape:vp_x="0 : 170.07874 : 1"
       inkscape:vp_y="0 : 1000 : 0"
       inkscape:vp_z="453.5433 : 170.07874 : 1"
       inkscape:persp3d-origin="226.77165 : 113.38582 : 1"
       id="perspective22034" />
  </defs>
  <sodipodi:namedview
     id="base"
     pagecolor="#ffffff"
     bordercolor="#666666"
     borderopacity="1.0"
     gridtolerance="10000"
     guidetolerance="8.8"
     objecttolerance="10"
     inkscape:pageopacity="0.0"
     inkscape:pageshadow="2"
     inkscape:zoom="2.1785437"
     inkscape:cx="248.08899"
     inkscape:cy="155.88703"
     inkscape:document-units="mm"
     inkscape:current-layer="layer1"
     inkscape:window-width="1240"
     inkscape:window-height="1167"
     inkscape:window-x="0"
     inkscape:window-y="25"
     width="12.8cm"
     height="9.6cm"
     units="cm"
     showgrid="true"
     grid_units="mm"
     inkscape:object-paths="false"
     inkscape:grid-points="true"
     inkscape:grid-bbox="true"
     inkscape:guide-points="true"
     showguides="true"
     inkscape:guide-bbox="true">
    <sodipodi:guide
       orientation="vertical"
       position="56.476527"
       id="guide3573" />
    <sodipodi:guide
       orientation="horizontal"
       position="11.035643"
       id="guide3579" />
    <sodipodi:guide
       orientation="horizontal"
       position="24.018753"
       id="guide3886" />
    <sodipodi:guide
       orientation="horizontal"
       position="285.62841"
       id="guide3988" />
    <sodipodi:guide
       orientation="horizontal"
       position="303.15561"
       id="guide4081" />
    <inkscape:grid
       id="GridFromPre046Settings"
       type="xygrid"
       originx="0px"
       originy="0px"
       spacingx="2mm"
       spacingy="2mm"
       color="#0000ff"
       empcolor="#0000ff"
       opacity="0.2"
       empopacity="0.4"
       empspacing="5" />
  </sodipodi:namedview>
  <metadata
     id="metadata7">
    <rdf:RDF>
      <cc:Work
         rdf:about="">
        <dc:format>image/svg+xml</dc:format>
        <dc:type
           rdf:resource="http://purl.org/dc/dcmitype/StillImage" />
      </cc:Work>
    </rdf:RDF>
  </metadata>
  <g
     inkscape:label="Layer 1"
     inkscape:groupmode="layer"
     id="layer1"
     transform="translate(4.149475e-6,-698.0315)">
    <g
       id="g31038"
       transform="matrix(1.198186,0,0,1.198186,-195.57828,-289.92148)">
      <g
         inkscape:export-ydpi="33.007736"
         inkscape:export-xdpi="33.007736"
         inkscape:export-filename="/home/abez/clip-art-so-far.png"
         transform="matrix(0.4601003,0,0,0.4601003,418.98139,611.66503)"
         style="fill:#0000ff"
         id="g3443">
        <g
           style="fill:#0000ff"
           id="g3439"
           transform="translate(0,-80.012817)">
          <path
             id="rect3424"
             d="M -520,692.375 L -520,852.375 C -520,879.975 -470.72,902.375 -410,902.375 C -349.28,902.375 -300,879.975 -300,852.375 L -300,692.375 L -520,692.375 z"
             style="fill:#0000ff;fill-opacity:1;stroke:#ffffff;stroke-width:10;stroke-miterlimit:4;stroke-dasharray:none;stroke-dashoffset:0;stroke-opacity:1" />
          <path
             transform="translate(0,70)"
             d="M -300,622.36218 A 110,50 0 1 1 -520,622.36218 A 110,50 0 1 1 -300,622.36218 z"
             sodipodi:ry="50"
             sodipodi:rx="110"
             sodipodi:cy="622.36218"
             sodipodi:cx="-410"
             id="path3422"
             style="fill:#0000ff;fill-opacity:1;stroke:#ffffff;stroke-width:10;stroke-miterlimit:4;stroke-dasharray:none;stroke-dashoffset:0;stroke-opacity:1"
             sodipodi:type="arc" />
        </g>
      </g>
      <g
         transform="matrix(0.1250385,0,0,0.1250385,336.85233,875.58891)"
         id="g17205">
        <path
           style="fill:#edf128;fill-opacity:1;fill-rule:evenodd;stroke:#000000;stroke-width:1px;stroke-linecap:butt;stroke-linejoin:miter;stroke-opacity:1"
           d="M -460,458.07647 C -475.35668,458.07647 -429.18388,460.06621 -414.28571,463.79075 C -404.67595,466.1932 -385.63167,481.01623 -380,486.6479 C -368.29359,498.3543 -358.93981,504.85094 -348.57143,515.21933 C -338.02016,525.77059 -337.48672,543.10303 -331.42857,555.21933 C -325.52905,567.01836 -325.71429,584.9489 -325.71429,598.07647 C -325.71429,615.28201 -331.70156,624.33672 -337.14286,635.21933 C -342.76991,646.47343 -355.08196,643.79075 -371.42857,643.79075 C -385.79465,643.79075 -401.66073,631.83092 -408.57143,626.6479 C -421.80724,616.72104 -434.28219,608.07735 -451.42857,603.79075 C -465.42787,600.29093 -474.81883,593.5242 -488.57143,586.6479 C -494.34392,583.76165 -491.42857,547.90163 -491.42857,540.93361 C -491.42857,521.66004 -480.62312,504.0492 -477.14286,486.6479 C -474.94433,475.65525 -470.08846,470.68704 -460,458.07647 z"
           id="path1337" />
        <path
           style="fill:#ffe9fa;fill-opacity:1;fill-rule:evenodd;stroke:#000000;stroke-width:1px;stroke-linecap:butt;stroke-linejoin:miter;stroke-opacity:1"
           d="M -662.85714,612.36218 C -662.80489,616.31254 -663.61658,626.73819 -667.14286,633.79075 C -670.18712,639.87928 -671.42857,647.87799 -671.42857,655.21933 C -671.42857,663.06719 -673.38651,668.81613 -671.42857,676.6479 C -669.13768,685.81145 -665.8699,692.05095 -661.42857,700.93361 C -655.89906,711.99264 -645.12429,718.16182 -635.71429,725.21933 C -622.04773,735.46924 -604.34373,747.33318 -588.57143,755.21933 C -559.8035,769.60329 -518.97163,773.79075 -487.14286,773.79075 C -469.0216,773.79075 -462.9208,775.23206 -448.57143,772.36218 C -442.10706,771.06931 -434.55099,767.20399 -430,763.79075 C -422.20748,757.94636 -410.71492,754.8625 -402.85714,750.93361 C -395.39359,747.20183 -388.54629,739.48618 -382.85714,735.21933 C -377.64156,731.30764 -373.57963,725.23572 -371.42857,720.93361 C -367.42108,712.91863 -366.37673,706.44053 -364.28571,698.07647 C -362.61851,691.40765 -362.85714,684.18998 -362.85714,678.07647 C -362.85714,670.62218 -363.09783,663.32492 -361.42857,656.6479 C -359.52947,649.05148 -362.65394,640.31786 -364.28571,633.79075 C -366.58645,624.5878 -369.08577,618.87625 -371.42857,609.50504 C -373.46453,601.36122 -376.00455,593.06509 -378.57143,586.6479 C -382.65028,576.45076 -386.53407,566.50724 -392.85714,558.07647 C -397.25587,552.21149 -410.88032,549.6421 -417.14286,548.07647 C -437.00921,543.10988 -455.217,542.36218 -475.71429,542.36218 C -492.47892,542.36218 -505.71127,547.36143 -520,550.93361 C -532.49744,554.05797 -543.87501,560.72826 -555.71429,566.6479 C -565.04975,571.31563 -576.27924,574.76089 -585.71429,576.6479 C -608.27615,581.16027 -631.28601,592.04796 -654.28571,596.6479 C -662.14965,598.22068 -669.75743,606.40533 -671.42857,608.07647 C -673.68734,610.33524 -665.95615,611.58743 -662.85714,612.36218 z"
           id="path2224" />
        <path
           style="fill:#fffcfc;fill-opacity:1;fill-rule:evenodd;stroke:#000000;stroke-width:1px;stroke-linecap:butt;stroke-linejoin:miter;stroke-opacity:1"
           d="M -702.85714,689.50504 C -702.95103,689.1295 -735.93411,720.27433 -742.85714,729.50504 C -753.77214,744.05838 -759.26246,762.96019 -762.85714,780.93361 C -765.93185,796.30715 -771.42857,807.55858 -771.42857,823.79075 C -771.42857,845.0292 -769.79585,844.60712 -754.28571,852.36218 C -744.11094,857.44957 -731.05138,857.45648 -717.14286,860.93361 C -703.94719,864.23253 -685.15296,860.93361 -671.42857,860.93361 C -657.14286,860.93361 -642.85714,860.93361 -628.57143,860.93361 C -614.43811,860.93361 -614.28571,847.25174 -614.28571,832.36218 C -614.28571,819.99709 -624.53231,811.86899 -628.57143,803.79075 C -632.02423,796.88516 -664.46102,800.93361 -671.42857,800.93361 C -687.73198,800.93361 -698.32871,797.78 -708.57143,795.21933 C -725.69405,790.93867 -705.56366,769.42973 -700,766.6479 C -685.83501,759.5654 -675.43066,759.64946 -665.71429,752.36218 C -651.4019,741.62789 -644.20457,727.15932 -637.14286,709.50504 C -632.48247,697.85406 -661.77952,685.75814 -665.71429,683.79075 C -678.10377,677.59601 -691.80003,682.87077 -702.85714,689.50504 z"
           id="path1347" />
        <path
           style="fill:#fffffc;fill-opacity:1;fill-rule:evenodd;stroke:#000000;stroke-width:1px;stroke-linecap:butt;stroke-linejoin:miter;stroke-opacity:1"
           d="M -370,705.21933 C -376.78266,710.30632 -355.99509,714.93853 -350,720.93361 C -332.54068,738.39293 -325.62831,756.73387 -308.57143,773.79075 C -302.00733,780.35485 -297.8071,792.56235 -295.71429,800.93361 C -293.37568,810.28804 -290,818.46824 -290,828.07647 C -290,838.07647 -290,848.07647 -290,858.07647 C -290,867.18879 -293.47447,877.68864 -295.71429,886.6479 C -297.68023,894.51167 -305.26204,902.85034 -312.85714,906.6479 C -321.27823,910.85844 -323.90885,915.21933 -334.28571,915.21933 C -342.14304,915.21933 -349.29965,917.18013 -357.14286,915.21933 C -364.58085,913.35983 -371.46584,906.12202 -374.28571,902.36218 C -380.23105,894.43506 -385.10612,886.03021 -390,879.50504 C -394.4482,873.57411 -396.54807,866.40889 -400,859.50504 C -403.85556,851.79391 -403.47388,845.83606 -398.57143,840.93361 C -391.74173,834.10391 -380.47021,825.68954 -375.71429,820.93361 C -369.41177,814.6311 -363.05459,810.31805 -355.71429,806.6479 C -349.16067,803.37109 -340.14078,803.72036 -334.28571,806.6479 C -329.60179,808.98986 -328.57143,823.11686 -328.57143,828.07647 C -328.57143,835.21933 -328.57143,842.36218 -328.57143,849.50504 C -328.57143,856.78935 -326.05242,835.14329 -324.28571,828.07647 C -322.48082,820.8569 -322.85714,813.00798 -322.85714,805.21933 C -322.85714,797.40349 -329.19358,791.74003 -334.28571,786.6479 C -339.21174,781.72187 -346.88596,783.6623 -352.85714,786.6479 C -359.95168,790.19516 -364.43172,793.14947 -371.42857,796.6479 C -384.55531,803.21127 -400.58908,810.93361 -414.28571,810.93361 C -433.88887,810.93361 -442.88644,806.53072 -447.14286,789.50504"
           id="path3117" />
        <path
           style="fill:#edf1f1;fill-opacity:1;fill-rule:evenodd;stroke:#000000;stroke-width:1.04719651px;stroke-linecap:butt;stroke-linejoin:miter;stroke-opacity:1"
           d="M -682.85714,673.83907 C -694.19378,673.83907 -705.71429,705.94309 -705.71429,720.83708 C -705.71429,737.76063 -708.88763,753.91528 -708.57143,755.30229 C -705.16096,770.26227 -682.67796,742.62212 -671.42857,733.36989 C -659.50288,723.56142 -691.42857,760.88725 -691.42857,777.2347 C -691.42857,803.17367 -680.79335,822.83953 -668.57143,796.03391 C -656.06924,768.6136 -665.71429,794.34705 -665.71429,811.69991 C -665.71429,830.51941 -650.79693,846.85781 -640,858.69793 C -631.86285,867.62129 -632.61888,834.32835 -625.71429,824.23272 C -617.21939,811.81181 -619.92347,855.67663 -611.42857,868.09753 C -605.53384,876.71657 -586.28762,883.44918 -580,886.89674 C -562.21859,896.64648 -594.81472,834.94763 -565.71429,877.49714 C -553.81724,894.89253 -537.84677,910.20277 -520,915.09556 C -496.01306,921.67169 -508.9042,888.57025 -511.42857,877.49714 C -515.92035,857.79405 -494.5951,874.02466 -482.85714,886.89674 C -470.59138,900.34763 -446.56505,903.83003 -457.14286,880.63034 C -464.07335,865.43011 -486.24677,844.30656 -460,858.69793 C -443.91952,867.51503 -429.28052,883.78632 -434.28571,861.83114 C -439.16841,840.41326 -447.96329,838.56494 -440,821.09952 C -433.73167,807.35155 -426.88159,860.6851 -420,830.49912 C -418.09524,822.14392 -416.19048,813.78871 -414.28571,805.43352 C -408.79042,781.3285 -404.63756,790.94827 -397.14286,799.16711 C -389.46452,807.58733 -393.42764,775.35274 -388.57143,764.7019 C -384.12472,754.94919 -380,744.27375 -380,733.36989 C -380,718.56453 -381.87769,730.28122 -385.71429,723.97028"
           id="path1329" />
        <path
           style="fill:#edf1f1;fill-opacity:1;fill-rule:evenodd;stroke:#000000;stroke-width:1px;stroke-linecap:butt;stroke-linejoin:miter;stroke-opacity:1"
           d="M -588.57143,655.21933 C -587.32913,653.97702 -627.757,642.81078 -637.14286,640.93361 C -653.18398,637.72539 -670.97996,638.07647 -688.57143,638.07647 C -703.41255,638.07647 -718.22407,637.63249 -731.42857,640.93361 C -746.64007,644.73649 -756.02945,647.51976 -765.71429,652.36218 C -785.63842,662.32425 -720.17996,662.31719 -702.85714,666.6479 C -691.28014,669.54215 -725.8476,675.35264 -734.28571,683.79075 C -734.30322,683.80826 -634.16828,670.0295 -697.14286,695.21933 C -724.94177,706.33889 -662.25491,699.35448 -657.14286,698.07647 C -642.80826,694.49282 -623.34129,698.07647 -608.57143,698.07647 C -592.72357,698.07647 -581.68947,700.93361 -568.57143,700.93361 C -566.66667,700.93361 -564.7619,700.93361 -562.85714,700.93361"
           id="path1323" />
        <path
           style="fill:#edf1f1;fill-opacity:1;fill-rule:evenodd;stroke:#000000;stroke-width:1px;stroke-linecap:butt;stroke-linejoin:miter;stroke-opacity:1"
           d="M -508.57143,700.93361 C -513.12133,682.734 -474.56083,716.82357 -457.14286,723.79075 C -444.49258,728.85086 -435.73631,733.06546 -425.71429,738.07647 C -413.51451,744.17636 -401.14773,746.6479 -385.71429,746.6479 C -357.41225,746.6479 -376.62265,734.05086 -380,732.36218 C -393.86688,725.42874 -348.15259,730.72419 -334.28571,723.79075 C -321.25514,717.27547 -362.57423,715.21933 -377.14286,715.21933 C -389.18963,715.21933 -353.6321,709.17823 -342.85714,703.79075 C -338.55504,701.6397 -371.51087,696.62732 -377.14286,695.21933 C -388.7762,692.31099 -393.35197,684.73848 -408.57143,680.93361 C -422.50165,677.45106 -436.63048,678.07647 -451.42857,678.07647 C -460,678.07647 -468.57143,678.07647 -477.14286,678.07647"
           id="path1327" />
        <path
           style="fill:#ffe9fa;fill-opacity:1;fill-rule:evenodd;stroke:#000000;stroke-width:1px;stroke-linecap:butt;stroke-linejoin:miter;stroke-opacity:1"
           d="M -537.14286,632.36218 C -537.14286,626.24336 -567.13553,641.64423 -577.14286,646.6479 C -591.94416,654.04855 -600,666.64147 -600,680.93361 C -600,691.96764 -580.24495,698.72952 -571.42857,700.93361 C -556.63856,704.63111 -541.42502,703.79075 -525.71429,703.79075 C -508.54937,703.79075 -496.05603,694.1325 -485.71429,683.79075 C -476.23834,674.3148 -487.06116,686.48449 -482.85714,678.07647"
           id="path1321" />
        <path
           style="fill:#ed1d28;fill-opacity:1;fill-rule:evenodd;stroke:#000000;stroke-width:1px;stroke-linecap:butt;stroke-linejoin:miter;stroke-opacity:1"
           d="M -331.42857,572.36218 C -330.81457,569.29216 -390.56614,528.79516 -400,520.93361 C -410.84598,511.89529 -431.02042,506.85197 -442.85714,500.93361 C -455.72937,494.4975 -472.89685,491.99511 -482.85714,489.50504 C -500.41922,485.11452 -502.85714,507.84009 -502.85714,520.93361 C -502.85714,536.79421 -481.38536,540.58727 -468.57143,543.79075 C -448.56445,548.7925 -431.84339,553.58334 -417.14286,560.93361 C -405.36231,566.82389 -399.89785,569.60719 -388.57143,580.93361 C -378.18622,591.31882 -367.87173,595.91902 -360,603.79075 C -349.27386,614.5169 -338.04315,611.15868 -331.42857,609.50504 C -323.5161,607.52692 -329.88381,576.22409 -331.42857,572.36218 z"
           id="path1339" />
        <path
           style="fill:#ddb9b9;fill-opacity:1;fill-rule:evenodd;stroke:#000000;stroke-width:1px;stroke-linecap:butt;stroke-linejoin:miter;stroke-opacity:1"
           d="M -499.59386,872.99025 C -498.08792,871.82394 -496.10618,871.45777 -494.36233,870.69153 C -450.09636,851.24112 -392.34226,799.86348 -361.03775,762.1762 C -343.83439,741.46519 -307.662,713.12667 -286.21113,698.08955 C -270.8527,687.32326 -260.24284,672.71891 -246.02353,661.70641 C -236.69186,654.47928 -227.41891,648.1741 -215.46667,638.91739 C -203.85482,629.92431 -199.01981,612.42597 -187.32732,639.03619 C -179.36893,657.14819 -199.23527,662.43816 -213.28673,672.28827 C -227.59481,682.31826 -240.23243,692.28054 -253.15729,702.29051 C -270.04039,715.36604 -285.71144,732.76174 -302.65858,745.88687 C -320.88725,760.0045 -337.77669,771.87333 -357.07437,785.40105 C -370.21089,794.60978 -375.70143,811.22146 -388.26531,820.95186 C -399.24211,829.45311 -405.97698,837.29853 -417.67281,846.35665 C -430.30927,856.14326 -442.19641,865.34954 -454.9276,875.20952 C -467.45192,884.90928 -477.7378,891.75572 -490.39895,893.91638 C -497.90943,895.19806 -496.52889,879.96563 -499.59386,872.99025 z"
           id="path1341" />
        <path
           style="fill:#000000;fill-opacity:1;fill-rule:evenodd;stroke:#000000;stroke-width:1px;stroke-linecap:butt;stroke-linejoin:miter;stroke-opacity:1"
           d="M -180.82764,611.21388 C -196.11034,613.82191 -197.57169,585.06716 -207.06475,572.80973 C -216.2204,560.98795 -235.18005,549.45607 -246.38069,540.15238 C -258.77371,529.85826 -273.88992,527.27026 -288.94647,521.4062 C -301.74275,516.42243 -312.63241,514.34938 -321.68327,510.82434 C -330.05545,507.56364 -339.38254,507.38629 -348.35621,506.94043 C -360.53761,506.33518 -325.31842,516.11014 -315.93645,523.90318 C -302.88972,534.74029 -290.21007,543.61144 -277.76987,553.94474 C -266.88867,562.98309 -259.55025,575.72291 -248.59996,584.81864 C -238.58218,593.1398 -231.4991,610.29437 -223.51221,620.60703 C -215.36087,631.13205 -211.28502,643.18502 -202.18959,654.92902 C -194.58473,664.74841 -190.04379,684.90826 -188.71427,692.6991 C -185.9213,709.06554 -181.67889,721.56743 -179.32112,735.38368 C -177.32069,747.10588 -183.86726,764.89132 -186.45488,775.96777 C -189.52096,789.09238 -196.52786,807.43398 -181.02509,795.42749 C -167.78855,785.17613 -161.91223,768.62084 -157.36441,756.94388 C -151.05318,740.73917 -150.76083,727.03058 -149.91361,709.9789 C -149.03776,692.35092 -154.24747,679.85614 -157.84037,663.52919 C -160.53692,651.27549 -165.70821,638.52083 -171.31569,625.75911 C -173.64612,620.45541 -177.65699,616.06229 -180.82764,611.21388 z"
           id="path1343" />
        <path
           style="fill:#ffe6fa;fill-opacity:1;fill-rule:evenodd;stroke:#000000;stroke-width:1px;stroke-linecap:butt;stroke-linejoin:miter;stroke-opacity:1"
           d="M -627.14286,819.50504 C -627.14286,817.72041 -597.94382,800.46291 -592.85714,796.6479 C -579.19949,786.40466 -577.24646,788.49089 -581.42857,805.21933 C -586.06549,823.76701 -571.66557,815.45632 -564.28571,808.07647 C -554.06931,797.86006 -532.11336,799.50504 -518.57143,799.50504 C -492.84937,799.50504 -521.88931,814.62022 -530,816.6479 C -550.71373,821.82633 -528.02852,817.33342 -532.85714,836.6479 C -534.57575,843.52232 -523.38388,844.31749 -535.71429,856.6479 C -541.40549,862.3391 -543.10849,868.07647 -564.28571,868.07647 C -576.61443,868.07647 -591.01841,865.67901 -604.28571,862.36218 C -618.72861,858.75146 -621.3088,848.55557 -624.28571,836.6479 C -625.69075,831.02776 -626.19048,825.21933 -627.14286,819.50504 z"
           id="path1345" />
        <path
           style="fill:#edf128;fill-opacity:1;fill-rule:evenodd;stroke:#000000;stroke-width:1px;stroke-linecap:butt;stroke-linejoin:miter;stroke-opacity:1"
           d="M -774.28571,643.79075 C -768.81574,638.32078 -720.00377,624.93512 -702.85714,618.07647 C -682.95103,610.11402 -668.60375,583.82308 -654.28571,569.50504 C -641.47967,556.69899 -625.6934,540.89184 -617.14286,523.79075 C -610.1717,509.84845 -595.98064,497.47923 -585.71429,483.79075 C -577.53646,472.88699 -571.50049,461.0295 -562.85714,449.50504 C -554.39066,438.21639 -544.35841,430.25567 -531.42857,423.79075 C -515.61674,415.88484 -509.8044,413.38471 -494.28571,409.50504 C -481.82669,406.39028 -464.34703,409.50504 -451.42857,409.50504 C -438.94839,409.50504 -426.68074,420.45039 -414.28571,426.6479 C -398.97459,434.30346 -394.84836,456.95117 -388.57143,469.50504 C -383.82182,479.00426 -382.85714,501.44925 -382.85714,512.36218 C -382.85714,524.82263 -377.14286,537.07827 -377.14286,552.36218 C -377.14286,567.00997 -371.42857,579.43306 -371.42857,592.36218 C -371.42857,604.26458 -366.20704,621.81973 -362.85714,635.21933 C -358.35334,653.23452 -356.17561,662.86811 -348.57143,678.07647 C -341.6936,691.83213 -334.52611,700.75331 -322.85714,709.50504 C -305.5365,722.49552 -315.49042,717.06101 -334.28571,712.36218 C -342.60939,710.28126 -349.92072,683.94931 -354.28571,675.21933 C -360.19332,663.40412 -366.6198,647.694 -371.42857,638.07647 C -378.20767,624.51828 -383.28698,608.93192 -391.42857,598.07647 C -403.29037,582.26074 -406.06322,580.75914 -422.85714,572.36218 C -433.33727,567.12212 -453.45986,566.6479 -465.71429,566.6479 C -479.73381,566.6479 -496.34335,563.79075 -511.42857,563.79075 C -526.19943,563.79075 -541.19518,563.37526 -554.28571,566.6479 C -569.41943,570.43132 -582.83696,572.35209 -594.28571,578.07647 C -608.22874,585.04798 -616.16229,591.38162 -625.71429,600.93361 C -635.14011,610.35943 -649.95626,614.48317 -662.85714,620.93361 C -676.03854,627.52431 -687.54315,629.50504 -702.85714,629.50504 C -719.88168,629.50504 -728.59694,635.21933 -745.71429,635.21933 C -754.43197,635.21933 -765.65552,642.06472 -774.28571,643.79075 z"
           id="path1333" />
        <path
           style="fill:#edf1f1;fill-opacity:1;fill-rule:evenodd;stroke:#000000;stroke-width:1px;stroke-linecap:butt;stroke-linejoin:miter;stroke-opacity:1"
           d="M -642.85714,569.50504 C -640.95238,569.50504 -639.04762,569.50504 -637.14286,569.50504 C -592.87382,569.50504 -540.73126,530.7508 -500,540.93361 C -479.80793,545.98163 -514.95027,573.57489 -517.14286,575.21933 C -527.63093,583.08538 -543.97415,583.79075 -557.14286,583.79075 C -569.28433,583.79075 -586.62767,574.99098 -597.14286,572.36218 C -614.63171,567.98997 -623.36958,565.60753 -642.85714,569.50504 z"
           id="path1313" />
        <path
           style="fill:#edf1f1;fill-opacity:1;fill-rule:evenodd;stroke:#000000;stroke-width:1px;stroke-linecap:butt;stroke-linejoin:miter;stroke-opacity:1"
           d="M -382.85714,612.36218 C -393.40001,609.72647 -411.19342,604.02591 -425.71429,589.50504 C -441.1642,574.05513 -445.78389,566.9959 -442.85714,552.36218 C -438.6069,531.11098 -399.0975,569.75599 -397.14286,572.36218 C -388.57522,583.7857 -382.85714,595.84344 -382.85714,612.36218 z"
           id="path1315" />
        <path
           style="fill:#ffe6fa;fill-opacity:1;fill-rule:evenodd;stroke:#000000;stroke-width:1px;stroke-linecap:butt;stroke-linejoin:miter;stroke-opacity:1"
           d="M -407.52678,848.14009 C -415.74229,847.11018 -421.74077,838.27483 -427.75944,830.50353 C -432.42009,824.4857 -432.80519,816.18909 -432.61453,812.3517 C -432.11334,802.26441 -420.1522,798.77634 -414.14566,801.1157 C -404.78498,804.7614 -408.27888,794.40248 -405.8228,788.09627 C -402.44559,779.42495 -392.22032,780.45647 -385.62987,780.78393 C -381.82977,780.97274 -378.95292,766.40339 -368.31036,766.93217 C -361.19699,767.28561 -353.8808,771.98309 -349.64324,777.45463 C -345.66767,782.58787 -343.04825,793.44399 -342.33089,797.64755 C -340.99271,805.48918 -348.55494,809.91799 -352.69484,813.12423 C -359.09274,818.07924 -366.68061,823.96239 -370.74755,828.85856 C -374.8209,833.76243 -383.00028,838.78621 -388.06706,842.71031 C -393.17555,846.6667 -401.64791,847.94309 -407.52678,848.14009 z"
           id="path3111" />
        <path
           style="fill:#000000;fill-opacity:1;fill-rule:evenodd;stroke:#000000;stroke-width:0.67379016px;stroke-linecap:butt;stroke-linejoin:miter;stroke-opacity:1"
           d="M -588.9446,593.21438 C -593.69683,596.64715 -593.18314,601.73264 -589.78691,609.62992 C -585.18003,620.34239 -574.63109,623.84812 -566.16371,621.13144 C -560.37632,619.27462 -557.83758,615.35964 -556.89232,609.83954 C -555.96117,604.40179 -560.3139,599.85358 -562.26726,605.69302 C -564.6586,612.84179 -568.78633,611.94733 -573.12609,611.62323 C -577.25719,611.3147 -578.70936,610.38599 -582.13537,605.70724 C -586.99368,599.07246 -584.99373,583.75415 -588.9446,593.21438 z"
           id="path3119" />
        <path
           style="fill:#000000;fill-opacity:1;fill-rule:evenodd;stroke:#000000;stroke-width:0.67379016px;stroke-linecap:butt;stroke-linejoin:miter;stroke-opacity:1"
           d="M -474.35155,612.32279 C -479.10378,615.75556 -478.59009,620.84105 -475.19386,628.73833 C -470.58698,639.4508 -460.03804,642.95653 -451.57066,640.23985 C -445.78327,638.38303 -443.24453,634.46805 -442.29927,628.94795 C -441.36812,623.5102 -445.72085,618.96199 -447.67421,624.80143 C -450.06555,631.9502 -454.19328,631.05574 -458.53304,630.73164 C -462.66414,630.42311 -464.11631,629.4944 -467.54232,624.81565 C -472.40063,618.18087 -470.40068,602.86256 -474.35155,612.32279 z"
           id="path3121" />
      </g>
    </g>
    <path
       style="fill:#80e5ff;fill-rule:evenodd;stroke:#000000;stroke-width:0.82607245px;stroke-linecap:butt;stroke-linejoin:miter;stroke-opacity:1"
       d="M 100.83852,926.504 C 101.00572,918.58001 95.084181,914.33739 90.23883,909.57524 C 85.678192,905.0929 73.897641,908.59172 73.897641,915.43518 C 73.897641,919.7759 69.186671,920.64404 66.831184,923.24846 C 60.740981,929.98231 67.432232,935.9585 58.88142,926.504 C 53.171119,920.1902 43.676807,930.03726 39.890313,935.61948 C 33.037257,945.72258 33.22049,940.82834 21.340861,940.82834 C 14.800964,940.82834 10.29952,953.28774 10.29952,961.01264 C 10.29952,968.04935 28.578019,962.96595 31.498894,962.96595 C 38.183321,962.96595 43.391625,961.01264 50.49,961.01264 C 55.546029,961.01264 61.438055,959.71042 66.831184,959.71042 C 75.129559,959.71042 83.49802,962.31485 91.563786,962.31485 C 99.002888,962.31485 107.09528,965.57038 114.52978,965.57038 C 118.07487,965.57038 121.87326,965.87936 125.12946,964.91927 C 128.33584,963.97388 121.62359,947.37973 120.71293,946.03719 C 116.59307,939.96351 107.23948,942.13055 101.72182,942.13055 C 94.907358,942.13055 93.724078,943.24595 88.913867,937.5728 C 84.607523,932.49392 73.897641,929.63466 73.897641,939.52613 C 73.897641,946.25423 64.770134,939.52613 60.20638,939.52613 C 55.729218,939.52613 54.153744,945.84478 56.673151,942.13055 C 58.749827,939.06902 61.230026,938.87502 64.181263,938.87502 C 67.339414,938.87502 72.221378,938.49849 73.897641,938.22391 C 75.942436,937.88896 69.855412,931.71285 78.314181,931.71285 C 80.754627,931.71285 82.845911,930.77865 85.380633,931.71285 C 87.847872,932.62217 90.024526,934.842 92.447093,936.27059 C 94.76443,937.63712 97.655786,938.22391 100.39686,938.22391 C 102.60513,938.22391 104.8134,938.22391 107.02167,938.22391 C 110.10015,938.22391 112.52344,939.63758 113.20482,935.61948 C 113.72443,932.55531 109.27939,928.02366 107.90498,926.504 C 106.51375,924.96574 102.28794,926.07663 100.83852,926.504 z"
       id="path22060" />
    <g
       id="g22085"
       transform="matrix(0.591353,0,0,0.591353,318.61599,481.71266)">
      <path
         transform="translate(-4.149475e-6,698.0315)"
         d="M -95.423877,159.69367 C -95.847549,159.71498 -96.272212,159.72165 -96.694894,159.7576 C -96.749178,159.76221 -96.554015,159.85379 -96.596399,159.88803 C -96.844703,160.08856 -97.135964,160.22963 -97.396741,160.41366 C -98.201591,160.98163 -99.456679,161.96621 -100.17349,162.51877 C -103.58486,165.22077 -106.49922,168.45916 -109.16767,171.87822 C -109.87743,172.94107 -109.60764,172.45196 -110.03142,173.31422 L -124.01571,164.26623 C -122.59785,162.24905 -123.34613,163.23825 -121.76804,161.30076 C -118.18089,157.27206 -114.34452,153.48323 -110.36524,149.84149 C -106.63169,146.73696 -102.78775,143.67784 -97.813248,142.96808 L -95.423877,159.69367 z"
         id="path22076"
         style="fill:#ffff00;fill-opacity:1;stroke:#ffff00;stroke-width:3.54330707;stroke-miterlimit:4;stroke-dasharray:none;stroke-dashoffset:0;stroke-opacity:1" />
      <g
         id="g22080">
        <path
           style="fill:#ffff00;fill-opacity:1;stroke:#ffff00;stroke-width:3.54330707;stroke-miterlimit:4;stroke-dasharray:none;stroke-dashoffset:0;stroke-opacity:1"
           id="path22072"
           d="M -77.976697,96.857613 C -79.916042,101.62307 -82.099407,106.30168 -83.914544,111.11702 C -84.99298,113.97799 -86.576854,119.07462 -87.46934,121.86544 C -89.61811,130.36108 -91.982991,139.27112 -91.712327,148.11854 C -91.549222,153.4501 -90.836605,154.85425 -89.433114,159.91878 C -87.62194,164.99235 -84.919439,168.7248 -80.916949,172.24219 C -76.891791,175.7795 -78.837569,173.64944 -74.9373,176.79817 C -73.930043,177.61135 -72.997721,178.51319 -72.027931,179.3707 C -69.518213,182.45771 -68.843153,182.84366 -67.274547,186.59528 C -66.044362,189.5375 -65.793229,191.60836 -65.279708,194.70822 C -64.804403,197.5774 -64.653912,198.89437 -64.264047,201.82243 C -63.485362,207.16036 -61.851482,212.29048 -60.449666,217.47906 C -59.138892,221.97146 -59.428234,226.69299 -59.455939,231.31632 C -59.547398,236.81351 -59.521314,242.41845 -60.810888,247.80088 C -61.065237,248.86248 -61.42503,249.89602 -61.732101,250.94359 C -62.147118,251.98024 -62.562134,253.01688 -62.977151,254.05353 L -77.939609,248.01342 C -77.688759,247.4006 -77.437909,246.78777 -77.187059,246.17495 C -76.803555,245.03429 -76.344283,243.80447 -76.128742,242.61425 C -75.466367,238.9566 -75.409936,235.21372 -75.550837,231.51203 C -75.659433,228.08731 -75.769156,224.64604 -76.407963,221.27002 C -77.560034,215.51708 -79.041836,209.8321 -79.926463,204.02555 C -80.765309,198.39744 -80.049939,202.98609 -81.007383,197.40191 C -81.393376,195.15066 -81.616688,192.84653 -82.984709,190.93376 C -83.584043,190.30442 -84.148459,189.63988 -84.782711,189.04574 C -88.302697,185.74841 -88.230925,186.40912 -91.920919,182.54602 C -93.499576,180.8933 -95.085717,179.23065 -96.441148,177.39042 C -100.63105,171.70191 -100.81187,170.11334 -103.52031,163.56356 C -105.31116,156.26807 -106.06762,154.94788 -106.19249,147.36707 C -106.27387,142.42695 -105.45952,136.81008 -104.67464,131.94705 C -104.27299,129.45851 -103.83782,126.97425 -103.32461,124.5063 C -102.84342,122.19231 -102.23652,119.90625 -101.69248,117.60623 C -100.59216,113.68036 -99.475479,109.53852 -98.217844,105.65404 C -96.779509,101.21144 -94.986514,96.85945 -94.021552,92.273368 L -77.976697,96.857613 z"
           transform="translate(-4.149475e-6,698.0315)" />
        <path
           style="fill:#ffff00;fill-opacity:1;stroke:#ffff00;stroke-width:3.54330707;stroke-miterlimit:4;stroke-dasharray:none;stroke-dashoffset:0;stroke-opacity:1"
           id="path22074"
           d="M -87.819244,175.89754 C -84.006547,176.46858 -80.240616,177.25845 -76.402841,177.6736 C -72.362799,178.0841 -68.346162,178.75791 -64.371631,179.58973 C -60.221917,180.69663 -56.269945,182.42323 -52.947081,185.19506 C -52.185962,185.82996 -51.492782,186.54214 -50.765633,187.21568 C -47.623747,190.73108 -44.665971,194.39818 -41.458497,197.85586 C -40.016358,199.39517 -38.525252,200.88722 -37.029524,202.37411 L -49.013225,214.01598 C -50.63579,212.29345 -52.218868,210.53448 -53.740799,208.72191 C -56.474276,205.49192 -59.178598,202.23306 -62.016842,199.09466 C -63.671412,197.43068 -65.526419,196.32547 -67.786874,195.64733 C -71.285056,194.89046 -74.811214,194.29754 -78.381684,193.99144 C -80.410154,193.72343 -82.428418,193.41003 -84.451661,193.10646 C -85.095842,193.0098 -86.499366,192.77448 -87.293212,192.76425 C -87.469623,192.76198 -87.6439,192.80326 -87.819244,192.82277 L -87.819244,175.89754 z"
           transform="translate(-4.149475e-6,698.0315)" />
        <path
           style="fill:#ffff00;fill-opacity:1;stroke:#ffff00;stroke-width:3.54330707;stroke-miterlimit:4;stroke-dasharray:none;stroke-dashoffset:0;stroke-opacity:1"
           id="path22078"
           d="M -78.055244,115.80377 C -77.834812,116.31277 -77.629665,116.82867 -77.39395,117.33077 C -77.204197,117.73497 -76.984359,118.12435 -76.779563,118.52114 C -76.322243,119.46263 -75.840601,120.3927 -75.407601,121.34562 C -74.215482,123.96918 -73.184392,126.66985 -72.038798,129.3144 C -70.73216,131.95353 -69.589332,134.71104 -67.786783,137.06237 C -67.580892,137.35377 -67.375001,137.64517 -67.16911,137.93657 L -81.073208,147.23797 C -81.243484,146.96706 -81.413761,146.69615 -81.584037,146.42524 C -83.752446,143.05186 -85.298381,139.37998 -86.849018,135.69092 C -88.550586,131.71641 -89.986894,127.60804 -92.700602,124.17255 L -78.055244,115.80377 z"
           transform="translate(-4.149475e-6,698.0315)" />
      </g>
    </g>
    <path
       style="fill:#216778;fill-rule:evenodd;stroke:#000000;stroke-width:1px;stroke-linecap:butt;stroke-linejoin:miter;stroke-opacity:1"
       d="M 236.13531,931.07832 C 237.58188,929.99339 241.12086,914.40797 246.5218,909.00703 C 253.84913,901.6797 268.40514,899.73092 276.38295,907.70872 C 282.55648,913.88225 288.94277,921.73584 287.41859,927.83254 C 286.21954,932.62875 290.80817,918.49272 293.26099,914.20028 C 297.44823,906.8726 309.77751,919.68116 312.0865,921.99014 C 316.68037,926.58401 310.3325,931.72747 315.98143,931.72747 C 321.12199,931.72747 322.89027,938.79872 321.82383,941.46481 C 321.29863,942.77783 323.7713,949.95993 323.7713,952.50045 C 323.7713,956.28978 324.42046,959.22675 324.42046,962.88694 C 324.42046,966.04523 314.77378,965.48356 312.73566,965.48356 C 305.94509,965.48356 299.62717,963.53609 292.61184,963.53609 C 287.60721,963.53609 282.26485,962.88694 277.0321,962.88694 C 268.89528,962.88694 261.18645,960.29032 253.01335,960.29032 C 248.07287,960.29032 242.57005,960.29032 237.43362,960.29032 C 232.34762,960.29032 226.5058,960.80414 221.85389,959.64116 C 217.9697,958.67011 214.85311,951.76185 214.06402,948.60552 C 213.84764,947.73998 213.63125,946.87444 213.41487,946.0089 C 212.39823,941.94233 213.01864,935.11656 214.71318,931.72747 C 216.13504,928.88376 222.36148,929.78001 225.09967,929.78001 C 229.09568,929.78001 232.86283,936.23596 234.837,938.86818 C 234.8517,938.88778 248.25551,931.58234 253.66251,929.78001 C 266.4393,925.52108 277.79818,934.05798 287.41859,938.86818 C 298.99721,944.65749 285.70645,947.37861 297.15592,938.21903 C 298.13883,937.43271 310.33206,946.20192 302.99832,938.86818 C 299.91585,935.78571 296.48652,935.95711 293.26099,937.56987 C 290.31272,939.04401 285.19697,935.16075 282.22535,933.67494 C 278.92614,932.02534 275.6354,931.3537 272.48802,929.78001 C 269.31254,928.19227 265.68443,927.89997 262.10153,927.18339 C 258.9722,926.55752 255.8013,926.53423 252.3642,926.53423 C 251.28227,926.53423 250.20035,926.53423 249.11842,926.53423 C 245.83179,926.53423 242.35902,931.65121 238.73193,932.37663 C 237.78302,932.56641 237.00085,931.51109 236.13531,931.07832 z"
       id="path22062" />
    <path
       sodipodi:type="arc"
       style="fill:#ffff00;fill-opacity:1;stroke:#ff7f2a;stroke-width:3.54330707;stroke-miterlimit:4;stroke-dasharray:none;stroke-dashoffset:0;stroke-opacity:1"
       id="path22064"
       sodipodi:cx="138.91927"
       sodipodi:cy="-79.846123"
       sodipodi:rx="42.195107"
       sodipodi:ry="42.195107"
       d="M 181.11437,-79.846123 A 42.195107,42.195107 0 1 1 96.724159,-79.846123 A 42.195107,42.195107 0 1 1 181.11437,-79.846123 z"
       transform="matrix(0.6013534,0,0,0.6013534,83.293371,985.58564)" />
    <path
       sodipodi:type="arc"
       style="fill:#ffff00;fill-opacity:1;stroke:#ff7f2a;stroke-width:3.54330707;stroke-miterlimit:4;stroke-dasharray:none;stroke-dashoffset:0;stroke-opacity:1"
       id="path22066"
       sodipodi:cx="138.91927"
       sodipodi:cy="-79.846123"
       sodipodi:rx="42.195107"
       sodipodi:ry="42.195107"
       d="M 181.11437,-79.846123 A 42.195107,42.195107 0 1 1 96.724159,-79.846123 A 42.195107,42.195107 0 1 1 181.11437,-79.846123 z"
       transform="matrix(0.6013534,0,0,0.6013534,306.2242,984.01982)" />
    <path
       style="fill:#80e5ff;fill-rule:evenodd;stroke:#000000;stroke-width:0.5254963px;stroke-linecap:butt;stroke-linejoin:miter;stroke-opacity:1"
       d="M 354.3307,946.06299 C 354.22434,941.02223 357.99126,938.32334 361.07357,935.29395 C 363.97476,932.44257 371.46882,934.6683 371.46882,939.02169 C 371.46882,941.78299 374.46565,942.33524 375.96406,943.99201 C 379.83827,948.27567 375.58171,952.07736 381.02121,946.06299 C 384.65375,942.04654 390.69345,948.31063 393.10218,951.86169 C 397.46168,958.28866 397.34511,955.17525 404.9022,955.17525 C 409.06248,955.17525 411.92602,963.10115 411.92602,968.01525 C 411.92602,972.49158 400.29836,969.25783 398.44029,969.25783 C 394.18807,969.25783 390.87487,968.01525 386.35931,968.01525 C 383.14298,968.01525 379.39484,967.18686 375.96406,967.18686 C 370.68515,967.18686 365.36166,968.84364 360.23071,968.84364 C 355.49841,968.84364 350.35053,970.91461 345.62116,970.91461 C 343.366,970.91461 340.9497,971.11116 338.8783,970.50041 C 336.8386,969.89901 341.10852,959.34284 341.68783,958.4888 C 344.30863,954.6251 350.2588,956.00363 353.7688,956.00363 C 358.10374,956.00363 358.85647,956.71318 361.91643,953.10427 C 364.65585,949.8734 371.46882,948.05452 371.46882,954.34686 C 371.46882,958.62686 377.27518,954.34686 380.17835,954.34686 C 383.02645,954.34686 384.02867,958.3664 382.42598,956.00363 C 381.10493,954.05608 379.52718,953.93267 377.64978,953.93267 C 375.64076,953.93267 372.53516,953.69314 371.46882,953.51847 C 370.16805,953.3054 374.04024,949.37654 368.65929,949.37654 C 367.10683,949.37654 365.77649,948.78226 364.16405,949.37654 C 362.59454,949.95499 361.20989,951.36711 359.6688,952.27589 C 358.19466,953.14519 356.35536,953.51847 354.61166,953.51847 C 353.20689,953.51847 351.80213,953.51847 350.39736,953.51847 C 348.43902,953.51847 346.89747,954.41776 346.46402,951.86169 C 346.13348,949.91246 348.96114,947.0297 349.83545,946.06299 C 350.72047,945.08444 353.40867,945.79112 354.3307,946.06299 z"
       id="path22068" />
    <g
       id="g22609"
       transform="matrix(1.3457251,0,0,1.3457251,-105.61432,-342.38374)">
      <rect
         transform="translate(-4.149475e-6,698.0315)"
         y="106.2992"
         x="290.55118"
         height="42.519684"
         width="113.38583"
         id="rect22098"
         style="fill:#ffffff;fill-opacity:1;stroke:#000000;stroke-width:0.35433072;stroke-miterlimit:4;stroke-dasharray:none;stroke-dashoffset:0;stroke-opacity:1" />
      <path
         sodipodi:nodetypes="cccc"
         transform="translate(-4.149475e-6,698.0315)"
         id="path22096"
         d="M 325.98425,148.81889 C 325.98425,148.81889 404.58617,147.14191 403.93701,113.38582 L 403.93701,148.81889 L 325.98425,148.81889 z"
         style="fill:#ff00ff;fill-rule:evenodd;stroke:#000000;stroke-width:1px;stroke-linecap:butt;stroke-linejoin:miter;stroke-opacity:1" />
      <path
         id="path22092"
         d="M 290.82992,839.63521 C 292.51211,839.42668 300.86508,822.70922 304.78051,829.14792 C 307.34995,833.37322 308.97074,829.0268 314.34663,839.63521 C 317.90392,846.65492 326.31798,831.81478 327.89864,837.01338 C 328.51584,839.04329 339.10819,834.62146 339.45771,834.39156 C 340.79205,833.51387 341.65078,837.75112 343.045,838.3243 C 348.14337,840.42029 347.55371,825.70607 351.81395,835.04702 C 353.80656,839.416 358.95755,837.0032 360.98148,837.66885 C 364.26448,838.74858 372.14408,834.88403 375.72926,836.35793 C 381.53924,838.74648 380.79459,831.87941 381.70808,825.87064 C 384.16891,809.68382 386.38323,828.52683 387.28832,833.7361 C 388.39322,840.09538 392.05426,838.97976 395.26009,838.97976 C 399.67365,838.97976 399.99479,836.29828 403.23185,840.29067"
         style="fill:none;fill-rule:evenodd;stroke:#000000;stroke-width:0.78738171px;stroke-linecap:butt;stroke-linejoin:miter;stroke-opacity:1" />
    </g>
    <text
       xml:space="preserve"
       style="font-size:24px;font-style:normal;font-weight:bold;fill:#000000;fill-opacity:1;stroke:none;stroke-width:1px;stroke-linecap:butt;stroke-linejoin:miter;stroke-opacity:1;font-family:Bitstream Vera Sans;-inkscape-font-specification:Sans"
       x="333.07086"
       y="839.76379"
       id="text22614"><tspan
         sodipodi:role="line"
         id="tspan22616"
         x="333.07086"
         y="839.76379">[Girba]</tspan><tspan
         sodipodi:role="line"
         x="333.07086"
         y="869.76379"
         id="tspan22618">[Askari]</tspan><tspan
         sodipodi:role="line"
         x="333.07086"
         y="899.76379"
         id="tspan22620">[Hassan]</tspan></text>
    <path
       style="fill:#800000;fill-opacity:1;stroke:#000000;stroke-width:0.35433072;stroke-miterlimit:4;stroke-dasharray:none;stroke-dashoffset:0;stroke-opacity:1"
       id="path22634"
       d="M 246.16592,141.95082 C 247.24092,142.78545 248.46897,143.39851 249.56297,144.20539 C 250.79183,145.11172 250.90366,145.26551 251.98544,146.26056 C 253.54493,147.74265 255.0514,149.27852 256.39738,150.95709 C 257.43616,152.40632 258.58942,153.75937 259.80913,155.05765 C 261.05694,156.53664 262.28189,158.03763 263.49021,159.55094 C 264.45817,161.09247 265.45022,162.62245 266.3806,164.1877 C 267.04795,165.319 267.6543,166.486 268.23301,167.66476 C 268.28625,167.76565 268.33948,167.86655 268.39272,167.96745 L 257.82413,173.43116 C 257.71624,173.22039 257.60835,173.00962 257.50046,172.79884 C 257.07953,171.86323 256.58847,170.95752 256.10432,170.05402 C 255.52228,168.92704 254.67926,167.94503 254.189,166.76865 C 253.23536,165.47369 252.1051,164.31384 251.17314,163.00006 C 249.7904,161.46906 248.39026,159.94632 247.1657,158.28289 C 246.22451,157.05988 245.1449,155.94385 244.0628,154.84557 C 243.76243,154.56659 243.4906,154.25227 243.15804,154.01256 C 242.24686,153.35577 241.24186,152.82253 240.24831,152.30665 L 246.16592,141.95082 z"
       transform="translate(-4.149475e-6,698.0315)" />
    <path
       sodipodi:type="arc"
       style="fill:#ff6600;fill-opacity:1;stroke:#000000;stroke-width:0.35433071999999999;stroke-miterlimit:4;stroke-dasharray:none;stroke-dashoffset:0;stroke-opacity:1"
       id="path22626"
       sodipodi:cx="262.20471"
       sodipodi:cy="170.07874"
       sodipodi:rx="7.0866141"
       sodipodi:ry="7.0866141"
       d="M 269.29133,170.07874 A 7.0866141,7.0866141 0 1 1 255.1181,170.07874 A 7.0866141,7.0866141 0 1 1 269.29133,170.07874 z"
       transform="translate(-4.149475e-6,698.0315)" />
    <path
       style="fill:#800000;fill-opacity:1;stroke:#000000;stroke-width:0.35433072;stroke-miterlimit:4;stroke-dasharray:none;stroke-dashoffset:0;stroke-opacity:1"
       id="path22636"
       d="M 250.1848,137.55107 C 251.02475,138.30648 252.04903,138.79408 253.09531,139.18707 C 254.21689,139.52975 255.18894,140.32328 256.31176,140.65325 C 256.75909,140.7847 257.21702,140.87762 257.66568,141.00447 C 259.03142,141.42646 260.46219,141.51466 261.86024,141.75732 C 262.43754,141.85753 263.70292,142.1409 264.33199,142.27907 C 266.65754,142.74369 269.02443,142.96022 271.37533,143.26335 C 274.01088,143.53414 276.65199,143.70241 279.28617,143.98918 C 280.97444,144.06512 282.58311,144.45229 284.17142,145.01347 C 285.19396,145.38355 286.22204,145.74318 287.29726,145.92087 L 284.81753,157.51663 C 283.42096,157.18975 282.05445,156.76966 280.70188,156.29209 C 279.74442,156.02255 279.1047,155.79245 277.62184,155.65176 C 275.1215,155.20523 272.61015,154.8838 270.07908,154.65614 C 269.3267,154.58206 267.84272,154.42786 267.03076,154.37504 C 265.27066,154.26055 263.49849,154.21273 261.79067,153.7122 C 259.49614,153.19543 257.17127,152.83528 254.88085,152.29284 C 253.79119,152.06017 252.79056,151.87012 251.71745,151.51391 C 250.66632,151.165 249.7461,150.51531 248.73068,150.08612 C 246.54622,149.18697 244.4712,148.09363 242.54593,146.71772 L 250.1848,137.55107 z"
       transform="translate(-4.149475e-6,698.0315)" />
    <path
       sodipodi:type="arc"
       style="fill:#ffccaa;fill-opacity:1;stroke:#000000;stroke-width:0.35433071999999999;stroke-miterlimit:4;stroke-dasharray:none;stroke-dashoffset:0;stroke-opacity:1"
       id="path22624"
       sodipodi:cx="287.00787"
       sodipodi:cy="152.3622"
       sodipodi:rx="10.629921"
       sodipodi:ry="10.629921"
       d="M 297.63779,152.3622 A 10.629921,10.629921 0 1 1 276.37795,152.3622 A 10.629921,10.629921 0 1 1 297.63779,152.3622 z"
       transform="translate(-4.149475e-6,698.0315)" />
    <path
       sodipodi:type="arc"
       style="fill:#ffff00;fill-opacity:1;stroke:#000000;stroke-width:0.35433071999999999;stroke-miterlimit:4;stroke-dasharray:none;stroke-dashoffset:0;stroke-opacity:1"
       id="path22622"
       sodipodi:cx="240.94489"
       sodipodi:cy="141.73227"
       sodipodi:rx="14.173228"
       sodipodi:ry="14.173228"
       d="M 255.11811,141.73227 A 14.173228,14.173228 0 1 1 226.77166,141.73227 A 14.173228,14.173228 0 1 1 255.11811,141.73227 z"
       transform="translate(-4.149475e-6,698.0315)" />
    <path
       sodipodi:type="arc"
       style="fill:#f2f2f2;fill-opacity:1;stroke:#000000;stroke-width:0.35433071999999999;stroke-miterlimit:4;stroke-dasharray:none;stroke-dashoffset:0;stroke-opacity:1"
       id="path22638"
       sodipodi:cx="262.20471"
       sodipodi:cy="170.07874"
       sodipodi:rx="7.0866141"
       sodipodi:ry="7.0866141"
       d="M 269.29133,170.07874 A 7.0866141,7.0866141 0 1 1 255.1181,170.07874 A 7.0866141,7.0866141 0 1 1 269.29133,170.07874 z"
       transform="translate(-21.259834,698.0315)" />
    <path
       sodipodi:type="arc"
       style="fill:#f9f9f9;fill-opacity:1;stroke:#000000;stroke-width:0.35433072;stroke-miterlimit:4;stroke-dasharray:none;stroke-dashoffset:0;stroke-opacity:1"
       id="path22640"
       sodipodi:cx="287.00787"
       sodipodi:cy="152.3622"
       sodipodi:rx="10.629921"
       sodipodi:ry="10.629921"
       d="M 297.63779,152.3622 A 10.629921,10.629921 0 1 1 276.37795,152.3622 A 10.629921,10.629921 0 1 1 297.63779,152.3622 z"
       transform="translate(-17.716539,676.77165)" />
    <text
       xml:space="preserve"
       style="font-size:18px;font-style:normal;font-weight:normal;text-align:center;text-anchor:middle;fill:#000000;fill-opacity:1;stroke:none;stroke-width:1px;stroke-linecap:butt;stroke-linejoin:miter;stroke-opacity:1;font-family:Bitstream Vera Sans;-inkscape-font-specification:Bitstream Vera Sans"
       x="259.63748"
       y="889.37006"
       id="text22642"><tspan
         sodipodi:role="line"
         id="tspan22644"
         x="259.63748"
         y="889.37006">co-change</tspan></text>
    <text
       xml:space="preserve"
       style="font-size:18px;font-style:normal;font-weight:normal;text-align:center;text-anchor:middle;fill:#000000;fill-opacity:1;stroke:none;stroke-width:1px;stroke-linecap:butt;stroke-linejoin:miter;stroke-opacity:1;font-family:Bitstream Vera Sans;-inkscape-font-specification:Bitstream Vera Sans"
       x="361.79083"
       y="816.76294"
       id="text22646"><tspan
         sodipodi:role="line"
         id="tspan22648"
         x="361.79083"
         y="816.76294">window decay</tspan></text>
    <text
       xml:space="preserve"
       style="font-size:24px;font-style:normal;font-weight:bold;fill:#000000;fill-opacity:1;stroke:none;stroke-width:1px;stroke-linecap:butt;stroke-linejoin:miter;stroke-opacity:1;font-family:Bitstream Vera Sans;-inkscape-font-specification:Sans"
       x="57.836803"
       y="37.202789"
       id="text22650"
       transform="translate(-4.149475e-6,698.0315)"><tspan
         sodipodi:role="line"
         id="tspan22652"
         x="57.836803"
         y="37.202789">Prediction</tspan></text>
  </g>
</svg>
