<?xml version="1.0" encoding="UTF-8" standalone="no"?>
<!-- Created with Inkscape (http://www.inkscape.org/) -->
<svg
   xmlns:dc="http://purl.org/dc/elements/1.1/"
   xmlns:cc="http://creativecommons.org/ns#"
   xmlns:rdf="http://www.w3.org/1999/02/22-rdf-syntax-ns#"
   xmlns:svg="http://www.w3.org/2000/svg"
   xmlns="http://www.w3.org/2000/svg"
   xmlns:xlink="http://www.w3.org/1999/xlink"
   xmlns:sodipodi="http://sodipodi.sourceforge.net/DTD/sodipodi-0.dtd"
   xmlns:inkscape="http://www.inkscape.org/namespaces/inkscape"
   width="453.5433"
   height="340.15747"
   id="svg2"
   sodipodi:version="0.32"
   inkscape:version="0.46"
   sodipodi:docname="slide-1500-machine-learning.svg"
   version="1.0"
   inkscape:output_extension="org.inkscape.output.svg.inkscape">
  <defs
     id="defs4">
    <radialGradient
       inkscape:collect="always"
       xlink:href="#linearGradient3295"
       id="radialGradient3318"
       gradientUnits="userSpaceOnUse"
       gradientTransform="matrix(1,0,0,0.6743401,0,184.64391)"
       cx="-397.70615"
       cy="566.98389"
       fx="-397.70615"
       fy="566.98389"
       r="55.417976" />
    <linearGradient
       id="linearGradient3295">
      <stop
         style="stop-color:#ff00f0;stop-opacity:1;"
         offset="0"
         id="stop3297" />
      <stop
         id="stop3305"
         offset="1"
         style="stop-color:#ff7078;stop-opacity:1;" />
    </linearGradient>
    <radialGradient
       inkscape:collect="always"
       xlink:href="#linearGradient3295"
       id="radialGradient3316"
       gradientUnits="userSpaceOnUse"
       gradientTransform="matrix(-0.6264123,0,0,-0.409953,-664.80583,832.75564)"
       cx="-397.70615"
       cy="566.98389"
       fx="-397.70615"
       fy="566.98389"
       r="55.417976" />
    <inkscape:perspective
       sodipodi:type="inkscape:persp3d"
       inkscape:vp_x="0 : 170.07874 : 1"
       inkscape:vp_y="0 : 1000 : 0"
       inkscape:vp_z="453.5433 : 170.07874 : 1"
       inkscape:persp3d-origin="226.77165 : 113.38582 : 1"
       id="perspective8455" />
  </defs>
  <sodipodi:namedview
     id="base"
     pagecolor="#ffffff"
     bordercolor="#666666"
     borderopacity="1.0"
     gridtolerance="10000"
     guidetolerance="8.8"
     objecttolerance="10"
     inkscape:pageopacity="0.0"
     inkscape:pageshadow="2"
     inkscape:zoom="2.1785437"
     inkscape:cx="261.48052"
     inkscape:cy="193.37739"
     inkscape:document-units="mm"
     inkscape:current-layer="layer1"
     inkscape:window-width="1240"
     inkscape:window-height="1167"
     inkscape:window-x="0"
     inkscape:window-y="25"
     width="12.8cm"
     height="9.6cm"
     units="cm"
     showgrid="true"
     grid_units="mm"
     inkscape:object-paths="false"
     inkscape:grid-points="true"
     inkscape:grid-bbox="true"
     inkscape:guide-points="true"
     showguides="true"
     inkscape:guide-bbox="true">
    <sodipodi:guide
       orientation="vertical"
       position="56.476527"
       id="guide3573" />
    <sodipodi:guide
       orientation="horizontal"
       position="11.035643"
       id="guide3579" />
    <sodipodi:guide
       orientation="horizontal"
       position="24.018753"
       id="guide3886" />
    <sodipodi:guide
       orientation="horizontal"
       position="285.62841"
       id="guide3988" />
    <sodipodi:guide
       orientation="horizontal"
       position="303.15561"
       id="guide4081" />
    <inkscape:grid
       id="GridFromPre046Settings"
       type="xygrid"
       originx="0px"
       originy="0px"
       spacingx="2mm"
       spacingy="2mm"
       color="#0000ff"
       empcolor="#0000ff"
       opacity="0.2"
       empopacity="0.4"
       empspacing="5" />
  </sodipodi:namedview>
  <metadata
     id="metadata7">
    <rdf:RDF>
      <cc:Work
         rdf:about="">
        <dc:format>image/svg+xml</dc:format>
        <dc:type
           rdf:resource="http://purl.org/dc/dcmitype/StillImage" />
      </cc:Work>
    </rdf:RDF>
  </metadata>
  <g
     inkscape:label="Layer 1"
     inkscape:groupmode="layer"
     id="layer1"
     transform="translate(4.149475e-6,-698.0315)">
    <g
       id="g3350"
       inkscape:export-filename="/home/abez/clip-art-so-far.png"
       inkscape:export-xdpi="33.007736"
       inkscape:export-ydpi="33.007736"
       transform="translate(518.89363,483.80819)">
      <g
         transform="translate(40,240)"
         id="g3257">
        <rect
           style="fill:#666666;fill-opacity:1;stroke:#000000;stroke-width:2;stroke-miterlimit:4;stroke-dasharray:none;stroke-dashoffset:0;stroke-opacity:1"
           id="rect3259"
           width="220"
           height="100"
           x="-540"
           y="92.362183" />
        <rect
           style="fill:#ffff00;fill-opacity:1;stroke:#000000;stroke-width:2;stroke-miterlimit:4;stroke-dasharray:none;stroke-dashoffset:0;stroke-opacity:1"
           id="rect3261"
           width="20"
           height="20"
           x="-520"
           y="72.362183" />
        <rect
           style="fill:#ffff00;fill-opacity:1;stroke:#000000;stroke-width:2;stroke-miterlimit:4;stroke-dasharray:none;stroke-dashoffset:0;stroke-opacity:1"
           id="rect3263"
           width="20"
           height="20"
           x="-480"
           y="72.362183" />
        <rect
           style="fill:#ffff00;fill-opacity:1;stroke:#000000;stroke-width:2;stroke-miterlimit:4;stroke-dasharray:none;stroke-dashoffset:0;stroke-opacity:1"
           id="rect3265"
           width="20"
           height="20"
           x="-440"
           y="72.362183" />
        <rect
           style="fill:#ffff00;fill-opacity:1;stroke:#000000;stroke-width:2;stroke-miterlimit:4;stroke-dasharray:none;stroke-dashoffset:0;stroke-opacity:1"
           id="rect3267"
           width="20"
           height="20"
           x="-400"
           y="72.362183" />
        <rect
           style="fill:#ffff00;fill-opacity:1;stroke:#000000;stroke-width:2;stroke-miterlimit:4;stroke-dasharray:none;stroke-dashoffset:0;stroke-opacity:1"
           id="rect3269"
           width="20"
           height="20"
           x="-360"
           y="72.362183" />
        <rect
           y="192.36218"
           x="-520"
           height="20"
           width="20"
           id="rect3271"
           style="fill:#ffff00;fill-opacity:1;stroke:#000000;stroke-width:2;stroke-miterlimit:4;stroke-dasharray:none;stroke-dashoffset:0;stroke-opacity:1" />
        <rect
           y="192.36218"
           x="-480"
           height="20"
           width="20"
           id="rect3274"
           style="fill:#ffff00;fill-opacity:1;stroke:#000000;stroke-width:2;stroke-miterlimit:4;stroke-dasharray:none;stroke-dashoffset:0;stroke-opacity:1" />
        <rect
           y="192.36218"
           x="-440"
           height="20"
           width="20"
           id="rect3276"
           style="fill:#ffff00;fill-opacity:1;stroke:#000000;stroke-width:2;stroke-miterlimit:4;stroke-dasharray:none;stroke-dashoffset:0;stroke-opacity:1" />
        <rect
           y="192.36218"
           x="-400"
           height="20"
           width="20"
           id="rect3278"
           style="fill:#ffff00;fill-opacity:1;stroke:#000000;stroke-width:2;stroke-miterlimit:4;stroke-dasharray:none;stroke-dashoffset:0;stroke-opacity:1" />
        <rect
           y="192.36218"
           x="-360"
           height="20"
           width="20"
           id="rect3280"
           style="fill:#ffff00;fill-opacity:1;stroke:#000000;stroke-width:2;stroke-miterlimit:4;stroke-dasharray:none;stroke-dashoffset:0;stroke-opacity:1" />
      </g>
      <g
         transform="translate(6.0609153,-192.93914)"
         id="g3311">
        <path
           style="fill:url(#radialGradient3316);fill-opacity:1;fill-rule:evenodd;stroke:#000000;stroke-width:0.61710304px;stroke-linecap:butt;stroke-linejoin:miter;stroke-opacity:1"
           d="M -383.22227,591.41441 C -383.10937,594.34805 -384.99593,603.57552 -390.18276,608.60933 C -394.30469,612.60965 -397.72522,616.5557 -402.8382,620.27731 C -406.12488,622.66959 -411.47642,622.73372 -415.49364,622.73372 C -418.86647,622.73372 -422.20198,622.73372 -425.618,622.73372 C -428.23873,622.73372 -433.12498,619.26543 -435.10958,617.82089 C -439.18188,614.85677 -443.13859,611.52539 -445.8667,607.99522 C -448.09621,605.11024 -449.66333,601.88102 -449.66333,598.16956 C -449.66333,594.49702 -450.59878,591.3612 -449.66333,587.72979 C -448.55977,583.44576 -443.78482,580.88557 -440.17175,579.13233 C -437.8075,577.98507 -433.4989,578.51822 -430.68017,578.51822 C -426.03984,578.51822 -421.39952,578.51822 -416.75918,578.51822 C -412.48869,578.51822 -409.04458,577.90412 -404.73652,577.90412 C -399.88242,577.90412 -394.77735,578.63167 -390.18276,579.74643 C -385.53575,580.87391 -382.37005,583.66886 -381.32395,587.72979 C -380.98079,589.06197 -382.5895,590.18621 -383.22227,591.41441 z"
           id="path3307" />
        <path
           style="fill:url(#radialGradient3318);fill-opacity:1;fill-rule:evenodd;stroke:#000000;stroke-width:1px;stroke-linecap:butt;stroke-linejoin:miter;stroke-opacity:1"
           d="M -449.51788,581.6311 C -449.69811,576.8055 -446.68642,561.62704 -438.4062,553.34683 C -431.82599,546.76661 -426.36548,540.27568 -418.20315,534.15393 C -412.95633,530.21881 -404.41316,530.11332 -398.0001,530.11332 C -392.61574,530.11332 -387.29096,530.11332 -381.83766,530.11332 C -377.65394,530.11332 -369.85357,535.81839 -366.68537,538.19454 C -360.18438,543.07029 -353.86791,548.55014 -349.51278,554.35698 C -345.9536,559.10255 -343.45187,564.41436 -343.45187,570.51942 C -343.45187,576.56046 -341.95852,581.71863 -343.45187,587.69201 C -345.21359,594.7389 -352.83628,598.95021 -358.60415,601.83415 C -362.37843,603.72129 -369.25665,602.8443 -373.75644,602.8443 C -381.16423,602.8443 -388.57201,602.8443 -395.9798,602.8443 C -402.79719,602.8443 -408.29534,603.85445 -415.1727,603.85445 C -422.92174,603.85445 -431.07144,602.65769 -438.4062,600.824 C -445.82466,598.96938 -450.87836,594.37192 -452.54834,587.69201 C -453.09617,585.50068 -450.52803,583.6514 -449.51788,581.6311 z"
           id="path3282" />
        <path
           style="fill:none;fill-rule:evenodd;stroke:#000000;stroke-width:1px;stroke-linecap:butt;stroke-linejoin:miter;stroke-opacity:1"
           d="M -381.83766,544.25545 C -397.34779,548.13298 -413.1822,535.38996 -429.31483,548.29606 C -440.72689,557.42571 -442.60425,560.73276 -448.50773,572.53972 C -452.29433,580.11293 -443.8664,584.45684 -439.41636,586.68186 C -433.0171,589.88149 -428.12877,580.26912 -426.28437,576.58033 C -423.60451,571.2206 -429.95351,568.12764 -424.26407,562.4382 C -417.56378,555.73791 -413.13906,560.36457 -415.1727,568.49911 C -417.00292,575.82 -424.26407,576.34404 -424.26407,585.67171 C -424.26407,595.10964 -410.38373,594.8001 -408.10163,585.67171 C -406.50696,579.29301 -403.60504,574.75642 -402.04071,568.49911 C -399.90508,559.95658 -404.66746,557.2256 -411.13209,553.34683 C -415.18438,550.91545 -426.7637,556.61695 -416.18285,551.32652 C -410.20853,548.33936 -405.76314,551.99069 -401.03056,554.35698 C -393.70581,558.01935 -390.64959,558.39759 -381.83766,558.39759 C -375.51688,558.39759 -370.43091,558.07128 -379.81736,560.41789 C -381.16423,560.75461 -382.5111,561.09133 -383.85797,561.42805 C -392.0097,563.46598 -394.70803,560.38159 -396.98995,569.50927 C -398.72552,576.45153 -401.18741,580.30724 -398.0001,586.68186 C -394.171,594.34006 -385.87827,582.0482 -385.87827,577.59049 C -385.87827,569.92566 -383.02231,570.34493 -378.8072,574.56003 C -374.82794,578.53929 -383.09074,588.94509 -384.86812,590.72247 C -386.47802,592.33237 -379.57366,578.47879 -387.89858,582.64125 C -395.11603,586.24998 -392.68433,594.07172 -385.87827,595.77323 C -379.36342,597.40194 -374.96431,595.15852 -372.74629,590.72247 C -370.40251,586.0349 -369.99717,580.73616 -368.70568,575.57018 C -367.82611,572.0519 -369.84504,567.64459 -372.74629,565.46866 C -373.53307,564.87857 -358.60415,562.6713 -358.60415,572.53972 C -358.60415,578.48238 -361.50217,583.51896 -365.67522,587.69201 C -369.80067,591.81746 -354.81597,590.40672 -352.54324,588.70216 C -347.15532,584.66122 -346.48232,582.89383 -346.48232,575.57018 C -346.48232,569.93422 -349.27385,563.9262 -351.53309,559.40774 C -354.00791,554.4581 -359.99828,544.97762 -363.65492,542.23515 C -368.82409,538.35827 -374.87097,535.34523 -380.82751,534.15393 C -385.74647,533.17013 -402.34325,535.08844 -389.91888,538.19454 C -389.26555,538.35787 -388.57201,538.19454 -387.89858,538.19454 C -380.7662,538.19454 -375.69841,542.00288 -371.73614,547.28591 C -367.43524,553.02044 -355.56134,556.37728 -369.71583,556.37728 C -374.61488,556.37728 -378.40368,552.53799 -380.82751,549.30622"
           id="path3293" />
      </g>
      <text
         id="text3328"
         y="423.22366"
         x="-326.86874"
         style="font-size:24px;font-style:normal;font-weight:bold;fill:#ffffff;fill-opacity:1;stroke:none;stroke-width:1px;stroke-linecap:butt;stroke-linejoin:miter;stroke-opacity:1;font-family:Bitstream Vera Sans;-inkscape-font-specification:Bitstream Vera Sans Bold"
         xml:space="preserve"><tspan
           y="423.22366"
           x="-326.86874"
           id="tspan3330"
           sodipodi:role="line">ML</tspan></text>
    </g>
    <text
       xml:space="preserve"
       style="font-size:24px;font-style:normal;font-weight:bold;fill:#000000;fill-opacity:1;stroke:none;stroke-width:1px;stroke-linecap:butt;stroke-linejoin:miter;stroke-opacity:1;font-family:Bitstream Vera Sans;-inkscape-font-specification:Sans"
       x="56.692909"
       y="735.03339"
       id="text8481"><tspan
         sodipodi:role="line"
         id="tspan8483"
         x="56.692909"
         y="735.03339">Machine Learning</tspan></text>
    <rect
       style="fill:#ffffff;fill-opacity:1;stroke:#000000;stroke-width:3.66699052;stroke-miterlimit:4;stroke-dasharray:none;stroke-dashoffset:0;stroke-opacity:1"
       id="rect8556"
       width="106.42862"
       height="77.829079"
       x="290.35992"
       y="910.69171" />
    <path
       style="fill:#00ffff;fill-rule:evenodd;stroke:#000000;stroke-width:1px;stroke-linecap:butt;stroke-linejoin:miter;stroke-opacity:1"
       d="M 340.15746,931.88978 C 341.69455,910.57583 337.27917,917.71655 318.89762,917.71655 C 308.23655,917.71655 304.72439,912.44072 304.72439,924.80316 C 304.72439,927.16537 299.99998,924.80316 297.63778,924.80316 C 295.27557,924.80316 297.63778,929.52757 297.63778,931.88978 C 297.63778,951.51396 304.72439,926.43882 304.72439,946.063 C 304.72439,948.42521 309.4488,946.063 311.811,946.063 C 331.43519,946.063 306.36004,953.14962 325.98423,953.14962 C 347.39225,953.14962 340.15746,952.8812 340.15746,931.88978 z"
       id="path8572" />
    <path
       sodipodi:type="arc"
       style="fill:#ffffff;fill-opacity:1;stroke:#000000;stroke-width:3.54330707;stroke-miterlimit:4;stroke-dasharray:none;stroke-dashoffset:0;stroke-opacity:1"
       id="path8558"
       sodipodi:cx="311.81104"
       sodipodi:cy="212.59842"
       sodipodi:rx="7.0866141"
       sodipodi:ry="7.0866141"
       d="M 318.89765,212.59842 A 7.0866141,7.0866141 0 1 1 304.72442,212.59842 A 7.0866141,7.0866141 0 1 1 318.89765,212.59842 z"
       transform="translate(-1.7430194e-5,719.29136)" />
    <path
       sodipodi:type="arc"
       style="fill:#ffffff;fill-opacity:1;stroke:#000000;stroke-width:3.54330707;stroke-miterlimit:4;stroke-dasharray:none;stroke-dashoffset:0;stroke-opacity:1"
       id="path8560"
       sodipodi:cx="329.52756"
       sodipodi:cy="209.05511"
       sodipodi:rx="3.5433071"
       sodipodi:ry="3.5433071"
       d="M 333.07086,209.05511 A 3.5433071,3.5433071 0 1 1 325.98425,209.05511 A 3.5433071,3.5433071 0 1 1 333.07086,209.05511 z"
       transform="translate(-1.7430194e-5,719.29136)" />
    <path
       sodipodi:type="arc"
       style="fill:#ffffff;fill-opacity:1;stroke:#000000;stroke-width:3.54330707;stroke-miterlimit:4;stroke-dasharray:none;stroke-dashoffset:0;stroke-opacity:1"
       id="path8562"
       sodipodi:cx="329.52756"
       sodipodi:cy="223.22833"
       sodipodi:rx="3.5433071"
       sodipodi:ry="3.5433071"
       d="M 333.07086,223.22833 A 3.5433071,3.5433071 0 1 1 325.98425,223.22833 A 3.5433071,3.5433071 0 1 1 333.07086,223.22833 z"
       transform="translate(-1.7430194e-5,719.29136)" />
    <path
       style="fill:#ff00ff;fill-rule:evenodd;stroke:#000000;stroke-width:1px;stroke-linecap:butt;stroke-linejoin:miter;stroke-opacity:1"
       d="M 375.59053,938.97639 C 382.57591,938.97639 368.40268,938.97639 361.4173,938.97639 C 359.0551,938.97639 361.4173,943.7008 361.4173,946.063 C 361.4173,965.68719 354.33069,940.61204 354.33069,960.23623 C 354.33069,981.64425 354.5991,974.40946 375.59053,974.40946 C 396.99854,974.40946 389.76376,974.14105 389.76376,953.14962 C 389.76376,942.72234 386.01781,938.97639 375.59053,938.97639 z"
       id="path8574" />
    <path
       sodipodi:type="arc"
       style="fill:#ffffff;fill-opacity:1;stroke:#000000;stroke-width:3.54330707;stroke-miterlimit:4;stroke-dasharray:none;stroke-dashoffset:0;stroke-opacity:1"
       id="path8566"
       sodipodi:cx="379.13385"
       sodipodi:cy="244.48817"
       sodipodi:rx="3.5433071"
       sodipodi:ry="3.5433071"
       d="M 382.67716,244.48817 A 3.5433071,3.5433071 0 1 1 375.59054,244.48817 A 3.5433071,3.5433071 0 1 1 382.67716,244.48817 z"
       transform="translate(-1.7430194e-5,719.29136)" />
    <path
       sodipodi:type="arc"
       style="fill:#ffffff;fill-opacity:1;stroke:#000000;stroke-width:3.54330707;stroke-miterlimit:4;stroke-dasharray:none;stroke-dashoffset:0;stroke-opacity:1"
       id="path8568"
       sodipodi:cx="372.04724"
       sodipodi:cy="230.31496"
       sodipodi:rx="3.5433071"
       sodipodi:ry="3.5433071"
       d="M 375.59055,230.31496 A 3.5433071,3.5433071 0 1 1 368.50393,230.31496 A 3.5433071,3.5433071 0 1 1 375.59055,230.31496 z"
       transform="translate(-1.7430194e-5,719.29136)" />
    <path
       sodipodi:type="arc"
       style="fill:#ffffff;fill-opacity:1;stroke:#000000;stroke-width:3.54330707;stroke-miterlimit:4;stroke-dasharray:none;stroke-dashoffset:0;stroke-opacity:1"
       id="path8570"
       sodipodi:cx="364.96063"
       sodipodi:cy="244.48817"
       sodipodi:rx="3.5433071"
       sodipodi:ry="3.5433071"
       d="M 368.50394,244.48817 A 3.5433071,3.5433071 0 1 1 361.41733,244.48817 A 3.5433071,3.5433071 0 1 1 368.50394,244.48817 z"
       transform="translate(-1.7430194e-5,719.29136)" />
    <path
       sodipodi:type="arc"
       style="fill:#ffffff;fill-opacity:1;stroke:#000000;stroke-width:3.54330707;stroke-miterlimit:4;stroke-dasharray:none;stroke-dashoffset:0;stroke-opacity:1"
       id="path8576"
       sodipodi:cx="315.35434"
       sodipodi:cy="251.5748"
       sodipodi:rx="3.5433071"
       sodipodi:ry="3.5433071"
       d="M 318.89765,251.5748 A 3.5433071,3.5433071 0 1 1 311.81103,251.5748 A 3.5433071,3.5433071 0 1 1 318.89765,251.5748 z"
       transform="translate(-1.7430194e-5,719.29136)" />
    <path
       sodipodi:type="arc"
       style="fill:#ffffff;fill-opacity:1;stroke:#000000;stroke-width:3.54330707;stroke-miterlimit:4;stroke-dasharray:none;stroke-dashoffset:0;stroke-opacity:1"
       id="path8578"
       sodipodi:cx="364.96063"
       sodipodi:cy="209.05511"
       sodipodi:rx="3.5433071"
       sodipodi:ry="3.5433071"
       d="M 368.50394,209.05511 A 3.5433071,3.5433071 0 1 1 361.41733,209.05511 A 3.5433071,3.5433071 0 1 1 368.50394,209.05511 z"
       transform="translate(-1.7430194e-5,719.29136)" />
    <g
       id="g8661"
       transform="translate(14.173223,42.519692)">
      <g
         transform="translate(7.0866078,7.0866222)"
         id="g8606">
        <g
           id="g8588"
           transform="matrix(-1,0,0,1,602.3622,28.346449)">
          <path
             transform="translate(-4.149475e-6,698.0315)"
             id="path8580"
             d="M 283.46457,63.779518 L 276.37795,77.952746 L 269.29134,92.125975 L 269.29134,92.125975"
             style="fill:none;fill-rule:evenodd;stroke:#000000;stroke-width:1px;stroke-linecap:butt;stroke-linejoin:miter;stroke-opacity:1" />
          <path
             transform="translate(-4.149475e-6,698.0315)"
             id="path8582"
             d="M 276.37795,77.952746 L 283.46457,92.125975"
             style="fill:none;fill-rule:evenodd;stroke:#000000;stroke-width:1px;stroke-linecap:butt;stroke-linejoin:miter;stroke-opacity:1" />
          <path
             transform="translate(-4.149475e-6,698.0315)"
             id="path8584"
             d="M 283.46457,63.779518 L 297.6378,77.952746 L 290.55118,92.125975"
             style="fill:none;fill-rule:evenodd;stroke:#000000;stroke-width:1px;stroke-linecap:butt;stroke-linejoin:miter;stroke-opacity:1" />
          <path
             transform="translate(-4.149475e-6,698.0315)"
             id="path8586"
             d="M 297.6378,77.952746 L 304.72441,92.125975 L 304.72441,92.125975"
             style="fill:none;fill-rule:evenodd;stroke:#000000;stroke-width:1px;stroke-linecap:butt;stroke-linejoin:miter;stroke-opacity:1" />
        </g>
        <g
           id="g8594"
           transform="translate(70.866143,28.346456)">
          <path
             transform="translate(-4.149475e-6,698.0315)"
             id="path8596"
             d="M 283.46457,63.779518 L 276.37795,77.952746 L 269.29134,92.125975 L 269.29134,92.125975"
             style="fill:none;fill-rule:evenodd;stroke:#000000;stroke-width:1px;stroke-linecap:butt;stroke-linejoin:miter;stroke-opacity:1" />
          <path
             transform="translate(-4.149475e-6,698.0315)"
             id="path8598"
             d="M 276.37795,77.952746 L 283.46457,92.125975"
             style="fill:none;fill-rule:evenodd;stroke:#000000;stroke-width:1px;stroke-linecap:butt;stroke-linejoin:miter;stroke-opacity:1" />
          <path
             transform="translate(-4.149475e-6,698.0315)"
             id="path8600"
             d="M 283.46457,63.779518 L 297.6378,77.952746 L 290.55118,92.125975"
             style="fill:none;fill-rule:evenodd;stroke:#000000;stroke-width:1px;stroke-linecap:butt;stroke-linejoin:miter;stroke-opacity:1" />
          <path
             transform="translate(-4.149475e-6,698.0315)"
             id="path8602"
             d="M 297.6378,77.952746 L 304.72441,92.125975 L 304.72441,92.125975"
             style="fill:none;fill-rule:evenodd;stroke:#000000;stroke-width:1px;stroke-linecap:butt;stroke-linejoin:miter;stroke-opacity:1" />
        </g>
        <path
           style="fill:none;fill-rule:evenodd;stroke:#000000;stroke-width:1px;stroke-linecap:butt;stroke-linejoin:miter;stroke-opacity:1"
           d="M 318.89764,92.125975 L 333.07087,70.866132 L 340.15748,63.779518 L 354.33071,92.125975"
           id="path8604"
           transform="translate(-4.149475e-6,698.0315)"
           sodipodi:nodetypes="cccc" />
      </g>
      <path
         transform="translate(-4.149475e-6,698.0315)"
         id="path8643"
         d="M 361.41732,127.55905 L 354.33071,134.64566 L 347.24409,141.73227 L 340.15748,148.81889"
         style="fill:none;fill-rule:evenodd;stroke:#000000;stroke-width:1px;stroke-linecap:butt;stroke-linejoin:miter;stroke-opacity:1" />
      <path
         transform="translate(-4.149475e-6,698.0315)"
         id="path8645"
         d="M 354.33071,134.64566 L 361.41732,141.73227"
         style="fill:none;fill-rule:evenodd;stroke:#000000;stroke-width:1px;stroke-linecap:butt;stroke-linejoin:miter;stroke-opacity:1" />
      <path
         transform="translate(-4.149475e-6,698.0315)"
         id="path8647"
         d="M 347.24409,141.73227 L 354.33071,148.81889"
         style="fill:none;fill-rule:evenodd;stroke:#000000;stroke-width:1px;stroke-linecap:butt;stroke-linejoin:miter;stroke-opacity:1" />
      <path
         transform="translate(-4.149475e-6,698.0315)"
         id="path8649"
         d="M 311.81102,134.64566 L 304.72441,127.55905 L 297.6378,134.64566 L 304.72441,141.73227 L 297.6378,148.81889 L 290.55118,155.9055"
         style="fill:none;fill-rule:evenodd;stroke:#000000;stroke-width:1px;stroke-linecap:butt;stroke-linejoin:miter;stroke-opacity:1" />
      <path
         transform="translate(-4.149475e-6,698.0315)"
         id="path8651"
         d="M 297.6378,134.64566 L 290.55118,141.73227"
         style="fill:none;fill-rule:evenodd;stroke:#000000;stroke-width:1px;stroke-linecap:butt;stroke-linejoin:miter;stroke-opacity:1" />
      <path
         transform="translate(-4.149475e-6,698.0315)"
         id="path8653"
         d="M 304.72441,141.73227 L 311.81102,148.81889"
         style="fill:none;fill-rule:evenodd;stroke:#000000;stroke-width:1px;stroke-linecap:butt;stroke-linejoin:miter;stroke-opacity:1" />
      <path
         transform="translate(-4.149475e-6,698.0315)"
         id="path8655"
         d="M 297.6378,148.81889 L 304.72441,155.9055"
         style="fill:none;fill-rule:evenodd;stroke:#000000;stroke-width:1px;stroke-linecap:butt;stroke-linejoin:miter;stroke-opacity:1" />
      <path
         transform="translate(-4.149475e-6,698.0315)"
         id="path8657"
         d="M 340.15748,77.952746 L 347.24409,85.03936 L 347.24409,92.125975"
         style="fill:none;fill-rule:evenodd;stroke:#000000;stroke-width:1px;stroke-linecap:butt;stroke-linejoin:miter;stroke-opacity:1" />
      <path
         transform="translate(-4.149475e-6,698.0315)"
         id="path8659"
         d="M 347.24409,85.03936 L 340.15748,92.125975"
         style="fill:none;fill-rule:evenodd;stroke:#000000;stroke-width:1px;stroke-linecap:butt;stroke-linejoin:miter;stroke-opacity:1" />
    </g>
    <rect
       style="fill:#ff00ff;fill-opacity:1;stroke:#000000;stroke-width:3.54330707;stroke-miterlimit:4;stroke-dasharray:none;stroke-dashoffset:0;stroke-opacity:1"
       id="rect8684"
       width="14.173228"
       height="14.173228"
       x="318.89761"
       y="790.15747" />
    <rect
       style="fill:#ff00ff;fill-opacity:1;stroke:#000000;stroke-width:3.54330707;stroke-miterlimit:4;stroke-dasharray:none;stroke-dashoffset:0;stroke-opacity:1"
       id="rect8686"
       width="14.173228"
       height="14.173228"
       x="318.89764"
       y="768.89764" />
    <rect
       style="fill:#ff00ff;fill-opacity:1;stroke:#000000;stroke-width:3.54330707;stroke-miterlimit:4;stroke-dasharray:none;stroke-dashoffset:0;stroke-opacity:1"
       id="rect8688"
       width="14.173228"
       height="14.173228"
       x="347.24408"
       y="775.98425" />
    <path
       style="fill:none;fill-rule:evenodd;stroke:#000000;stroke-width:1px;stroke-linecap:butt;stroke-linejoin:miter;stroke-opacity:1"
       d="M 304.72439,775.98426 L 318.89762,775.98426"
       id="path8690" />
    <path
       style="fill:none;fill-rule:evenodd;stroke:#000000;stroke-width:1px;stroke-linecap:butt;stroke-linejoin:miter;stroke-opacity:1"
       d="M 304.72439,797.2441 L 318.89762,797.2441"
       id="path8692" />
    <path
       style="fill:none;fill-rule:evenodd;stroke:#000000;stroke-width:1px;stroke-linecap:butt;stroke-linejoin:miter;stroke-opacity:1"
       d="M 333.07085,775.98426 C 333.07085,778.34646 337.79526,775.98426 340.15746,775.98426 C 343.49812,775.98426 344.88187,780.70867 347.24407,783.07087"
       id="path8698" />
    <path
       style="fill:none;fill-rule:evenodd;stroke:#000000;stroke-width:1px;stroke-linecap:butt;stroke-linejoin:miter;stroke-opacity:1"
       d="M 347.24407,790.15749 C 349.60628,790.15749 342.51967,790.15749 340.15746,790.15749 C 337.79526,790.15749 340.15746,794.8819 340.15746,797.2441 C 340.15746,799.60631 335.43305,797.2441 333.07085,797.2441"
       id="path8708" />
    <path
       style="fill:none;fill-rule:evenodd;stroke:#000000;stroke-width:1px;stroke-linecap:butt;stroke-linejoin:miter;stroke-opacity:1"
       d="M 361.4173,783.07087 C 361.4173,785.43308 366.14171,783.07087 368.50392,783.07087 C 370.86612,783.07087 373.22833,783.07087 375.59053,783.07087"
       id="path8710" />
    <path
       style="fill:none;fill-rule:evenodd;stroke:#000000;stroke-width:1px;stroke-linecap:butt;stroke-linejoin:miter;stroke-opacity:1"
       d="M 354.33069,773.82042 C 355.01351,756.82839 355.56418,761.81103 340.15746,761.81103 C 327.6839,761.81103 325.98423,755.9497 325.98423,768.89765"
       id="path8712" />
  </g>
</svg>
