<?xml version="1.0" encoding="UTF-8" standalone="no"?>
<!-- Created with Inkscape (http://www.inkscape.org/) -->

<svg
   xmlns:dc="http://purl.org/dc/elements/1.1/"
   xmlns:cc="http://creativecommons.org/ns#"
   xmlns:rdf="http://www.w3.org/1999/02/22-rdf-syntax-ns#"
   xmlns:svg="http://www.w3.org/2000/svg"
   xmlns="http://www.w3.org/2000/svg"
   xmlns:sodipodi="http://sodipodi.sourceforge.net/DTD/sodipodi-0.dtd"
   xmlns:inkscape="http://www.inkscape.org/namespaces/inkscape"
   width="453.5433"
   height="340.15747"
   id="svg2"
   sodipodi:version="0.32"
   inkscape:version="0.48.0 r9654"
   sodipodi:docname="unsupervised-source.svg"
   version="1.0"
   inkscape:output_extension="org.inkscape.output.svg.inkscape">
  <defs
     id="defs4">
    <inkscape:perspective
       sodipodi:type="inkscape:persp3d"
       inkscape:vp_x="0 : 170.07874 : 1"
       inkscape:vp_y="0 : 1000 : 0"
       inkscape:vp_z="453.5433 : 170.07874 : 1"
       inkscape:persp3d-origin="226.77165 : 113.38582 : 1"
       id="perspective22489" />
  </defs>
  <sodipodi:namedview
     id="base"
     pagecolor="#ffffff"
     bordercolor="#666666"
     borderopacity="1.0"
     gridtolerance="10000"
     guidetolerance="8.8"
     objecttolerance="10"
     inkscape:pageopacity="0.0"
     inkscape:pageshadow="2"
     inkscape:zoom="1.0892718"
     inkscape:cx="319.06793"
     inkscape:cy="104.07508"
     inkscape:document-units="mm"
     inkscape:current-layer="layer1"
     inkscape:window-width="1024"
     inkscape:window-height="768"
     inkscape:window-x="648"
     inkscape:window-y="75"
     width="12.8cm"
     height="9.6cm"
     units="cm"
     showgrid="false"
     grid_units="mm"
     inkscape:object-paths="false"
     inkscape:grid-points="true"
     inkscape:grid-bbox="true"
     inkscape:guide-points="true"
     showguides="true"
     inkscape:guide-bbox="true"
     inkscape:window-maximized="0">
    <sodipodi:guide
       orientation="vertical"
       position="56.476527"
       id="guide3573" />
    <sodipodi:guide
       orientation="horizontal"
       position="11.035643"
       id="guide3579" />
    <sodipodi:guide
       orientation="horizontal"
       position="24.018753"
       id="guide3886" />
    <sodipodi:guide
       orientation="horizontal"
       position="285.62841"
       id="guide3988" />
    <sodipodi:guide
       orientation="horizontal"
       position="303.15561"
       id="guide4081" />
    <inkscape:grid
       id="GridFromPre046Settings"
       type="xygrid"
       originx="0px"
       originy="0px"
       spacingx="2mm"
       spacingy="2mm"
       color="#0000ff"
       empcolor="#0000ff"
       opacity="0.2"
       empopacity="0.4"
       empspacing="5" />
  </sodipodi:namedview>
  <metadata
     id="metadata7">
    <rdf:RDF>
      <cc:Work
         rdf:about="">
        <dc:format>image/svg+xml</dc:format>
        <dc:type
           rdf:resource="http://purl.org/dc/dcmitype/StillImage" />
      </cc:Work>
    </rdf:RDF>
  </metadata>
  <g
     inkscape:label="Layer 1"
     inkscape:groupmode="layer"
     id="layer1"
     transform="translate(4.149475e-6,-698.0315)">
    <g
       id="g10646"
       transform="matrix(0.3856618,0,0,0.3856618,-131.29448,701.24068)">
      <g
         inkscape:export-ydpi="33.007736"
         inkscape:export-xdpi="33.007736"
         inkscape:export-filename="/home/abez/clip-art-so-far.png"
         transform="translate(-104.28571,235.71429)"
         id="g2446">
        <rect
           style="fill:#f2f2f2;fill-rule:evenodd;stroke:#000000;stroke-width:1px;stroke-linecap:butt;stroke-linejoin:miter;stroke-opacity:1"
           id="rect3316"
           width="220"
           height="300"
           x="440"
           y="332.36218" />
        <rect
           style="fill:#800000;fill-rule:evenodd;stroke:#000000;stroke-width:1px;stroke-linecap:butt;stroke-linejoin:miter;stroke-opacity:1"
           id="rect3318"
           width="100"
           height="20"
           x="460"
           y="412.36218" />
        <rect
           style="fill:#ffff00;fill-rule:evenodd;stroke:#000000;stroke-width:1px;stroke-linecap:butt;stroke-linejoin:miter;stroke-opacity:1"
           id="rect3320"
           width="140"
           height="20"
           x="500"
           y="432.36218" />
        <rect
           style="fill:#ffff00;fill-rule:evenodd;stroke:#000000;stroke-width:1px;stroke-linecap:butt;stroke-linejoin:miter;stroke-opacity:1"
           id="rect2426"
           width="140"
           height="20"
           x="500"
           y="452.36218" />
        <rect
           style="fill:#ffff00;fill-rule:evenodd;stroke:#000000;stroke-width:1px;stroke-linecap:butt;stroke-linejoin:miter;stroke-opacity:1"
           id="rect2428"
           width="140"
           height="20"
           x="500"
           y="472.36218" />
        <rect
           style="fill:#800000;fill-rule:evenodd;stroke:#000000;stroke-width:1px;stroke-linecap:butt;stroke-linejoin:miter;stroke-opacity:1"
           id="rect2430"
           width="100"
           height="20"
           x="460"
           y="492.36218" />
        <rect
           style="fill:#ffff00;fill-rule:evenodd;stroke:#000000;stroke-width:1px;stroke-linecap:butt;stroke-linejoin:miter;stroke-opacity:1"
           id="rect2432"
           width="100"
           height="20"
           x="500"
           y="512.36218" />
        <rect
           style="fill:#ff0000;fill-rule:evenodd;stroke:#000000;stroke-width:0.89620572px;stroke-linecap:butt;stroke-linejoin:miter;stroke-opacity:1"
           id="rect2434"
           width="79.903793"
           height="20.103794"
           x="459.94809"
           y="532.3103" />
        <rect
           style="fill:#0000ff;fill-rule:evenodd;stroke:#000000;stroke-width:0.75956446px;stroke-linecap:butt;stroke-linejoin:miter;stroke-opacity:1"
           id="rect2436"
           width="79.811867"
           height="20.240435"
           x="499.87979"
           y="552.24194" />
        <rect
           style="fill:#00ff00;fill-rule:evenodd;stroke:#000000;stroke-width:0.75956446px;stroke-linecap:butt;stroke-linejoin:miter;stroke-opacity:1"
           id="rect2438"
           width="79.811867"
           height="20.240435"
           x="520"
           y="572.36218" />
        <rect
           style="fill:#00ff00;fill-rule:evenodd;stroke:#000000;stroke-width:0.75956446px;stroke-linecap:butt;stroke-linejoin:miter;stroke-opacity:1"
           id="rect2440"
           width="79.811867"
           height="20.240435"
           x="520"
           y="592.36218" />
        <text
           xml:space="preserve"
           style="font-size:24px;font-style:normal;font-weight:bold;writing-mode:lr-tb;fill:#000000;fill-opacity:1;stroke:none;stroke-width:1px;stroke-linecap:butt;stroke-linejoin:miter;stroke-opacity:1;font-family:Sans;-inkscape-font-specification:Sans"
           x="464.28571"
           y="376.64789"
           id="text2442"><tspan
             sodipodi:role="line"
             id="tspan2444"
             x="464.28571"
             y="376.64789">Source Code</tspan></text>
      </g>
      <path
         inkscape:export-ydpi="33.007736"
         inkscape:export-xdpi="33.007736"
         inkscape:export-filename="/home/abez/clip-art-so-far.png"
         id="path2533"
         d="M 480.93392,651.14115 C 476.27419,648.45085 471.38765,646.47227 466.42252,645.1584 L 459.92356,656.41493 C 458.23919,656.09987 456.54561,655.86048 454.85277,655.733 L 451.50329,643.18828 C 440.95886,643.15859 430.55836,645.95193 421.43851,651.24411 L 424.79393,663.81097 C 423.39112,664.76879 422.03907,665.79859 420.73752,666.9148 L 409.481,660.41584 C 405.83287,664.03917 402.59854,668.18765 399.90514,672.85275 C 397.21319,677.51535 395.23625,682.39584 393.92239,687.36413 L 405.17892,693.86309 C 404.86299,695.54856 404.64721,697.23397 404.51913,698.92796 L 391.96631,702.29148 C 391.94055,712.8357 394.70431,723.24413 400,732.36218 L 412.56092,728.98464 C 413.51778,730.38698 414.5637,731.7479 415.67879,733.04914 L 409.17172,744.3197 C 412.79176,747.96203 416.95768,751.19162 421.61674,753.88153 C 426.28184,756.57492 431.15708,758.55044 436.12812,759.86427 L 442.61898,748.62178 C 444.30531,748.93796 446.01113,749.14749 447.70599,749.27565 L 451.0695,761.82847 C 461.60888,761.85168 472.00628,759.05784 481.12024,753.76453 L 477.76265,741.23385 C 479.16994,740.27363 480.52174,739.23552 481.82716,738.11598 L 493.05562,744.59873 C 496.70137,740.97675 499.93952,736.82444 502.63148,732.16183 C 505.32487,727.49672 507.30039,722.62148 508.61422,717.65044 L 497.38577,711.16769 C 497.70258,709.47754 497.92574,707.78746 498.05367,706.08878 L 510.58435,702.73119 C 510.61152,692.18425 507.83362,681.77272 502.53662,672.65239 L 489.99784,676.02401 C 489.03949,674.62041 487.99687,673.26171 486.87996,671.9595 L 493.37082,660.71701 C 489.74782,657.06945 485.5984,653.8342 480.93392,651.14115 z M 459.80015,687.74592 C 467.94623,692.44906 470.72986,702.88197 466.02671,711.02805 C 461.32356,719.17414 450.9047,721.96587 442.75861,717.26272 C 434.61253,712.55957 431.80677,702.1326 436.50991,693.98652 C 441.21306,685.84043 451.65406,683.04278 459.80015,687.74592 z"
         style="fill:#00ffff;fill-rule:evenodd;stroke:#000000;stroke-width:0.51862013px;stroke-linecap:butt;stroke-linejoin:miter;stroke-opacity:1" />
    </g>
    <path
       id="path44497"
       style="fill:none;stroke:#000000;stroke-width:1.29941273;stroke-linecap:butt;stroke-linejoin:miter;stroke-miterlimit:10;stroke-dasharray:12.99412671, 2.59882534, 2.59882534, 2.59882534, 2.59882534, 2.59882534;stroke-dashoffset:0;stroke-opacity:1"
       d="M 69.687039,782.00754 L 316.57545,833.98358" />
    <path
       id="path44507"
       style="fill:none;stroke:#ffa500;stroke-width:1.29941273;stroke-linecap:butt;stroke-linejoin:miter;stroke-miterlimit:10;stroke-dasharray:none;stroke-opacity:1"
       d="M 69.687039,820.98946 L 95.675292,820.98946 L 121.66354,795.00166 L 134.65767,795.00166 L 160.64592,782.00754 L 186.63418,795.00166 L 212.62243,820.98946 L 316.57545,820.98946" />
    <path
       id="path44571"
       style="fill:none;stroke:#ffa500;stroke-width:1.29941273;stroke-linecap:butt;stroke-linejoin:miter;stroke-miterlimit:10;stroke-dasharray:none;stroke-opacity:1"
       d="M 353.67375,820.98946 L 366.66788,807.99579" />
    <path
       id="path44579"
       style="fill:none;stroke:#000000;stroke-width:1.29941273;stroke-linecap:butt;stroke-linejoin:miter;stroke-miterlimit:10;stroke-dasharray:none;stroke-opacity:1"
       d="M 56.692912,820.98946 L 56.692912,806.04662" />
    <path
       id="path44581"
       style="fill:#000000;fill-opacity:1;fill-rule:evenodd;stroke:none"
       d="M 61.890838,806.04662 L 56.692912,795.65123 L 51.495445,806.04662" />
    <text
       xml:space="preserve"
       style="font-size:24px;font-style:normal;font-weight:bold;fill:#000000;fill-opacity:1;stroke:none;font-family:Bitstream Vera Sans;-inkscape-font-specification:Sans"
       x="56.476524"
       y="735.03339"
       id="text44680"><tspan
         sodipodi:role="line"
         x="56.476524"
         y="735.03339"
         id="tspan44684"
         style="font-size:18px">Release Patterns: Source revisions</tspan></text>
    <text
       xml:space="preserve"
       style="font-size:18px;font-style:normal;font-weight:bold;writing-mode:lr-tb;fill:#000000;fill-opacity:1;stroke:none;stroke-width:1px;stroke-linecap:butt;stroke-linejoin:miter;stroke-opacity:1;font-family:Sans;-inkscape-font-specification:Sans"
       x="370.01862"
       y="121.39207"
       id="text22723"
       transform="translate(-4.149475e-6,698.0315)"><tspan
         sodipodi:role="line"
         id="tspan22725"
         x="370.01862"
         y="121.39207"
         style="font-size:12">Source</tspan></text>
    <text
       xml:space="preserve"
       style="font-size:18px;font-style:normal;font-weight:bold;writing-mode:lr-tb;fill:#000000;fill-opacity:1;stroke:none;stroke-width:1px;stroke-linecap:butt;stroke-linejoin:miter;stroke-opacity:1;font-family:Sans;-inkscape-font-specification:Sans"
       x="94.558578"
       y="211.63124"
       id="text22727"
       transform="translate(-4.149475e-6,698.0315)"><tspan
         sodipodi:role="line"
         id="tspan22729"
         x="94.558578"
         y="211.63124">*.c</tspan></text>
    <g
       id="g29135"
       transform="matrix(0.3856618,0,0,0.3856618,74.140942,679.38628)">
      <g
         inkscape:export-ydpi="33.007736"
         inkscape:export-xdpi="33.007736"
         inkscape:export-filename="/home/abez/clip-art-so-far.png"
         transform="translate(-104.28571,235.71429)"
         id="g29137">
        <rect
           style="fill:#f2f2f2;fill-rule:evenodd;stroke:#000000;stroke-width:1px;stroke-linecap:butt;stroke-linejoin:miter;stroke-opacity:1"
           id="rect29139"
           width="220"
           height="300"
           x="440"
           y="332.36218" />
        <rect
           style="fill:#800000;fill-rule:evenodd;stroke:#000000;stroke-width:1px;stroke-linecap:butt;stroke-linejoin:miter;stroke-opacity:1"
           id="rect29141"
           width="100"
           height="20"
           x="460"
           y="412.36218" />
        <rect
           style="fill:#ffff00;fill-rule:evenodd;stroke:#000000;stroke-width:1px;stroke-linecap:butt;stroke-linejoin:miter;stroke-opacity:1"
           id="rect29143"
           width="140"
           height="20"
           x="500"
           y="432.36218" />
        <rect
           style="fill:#ffff00;fill-rule:evenodd;stroke:#000000;stroke-width:1px;stroke-linecap:butt;stroke-linejoin:miter;stroke-opacity:1"
           id="rect29145"
           width="140"
           height="20"
           x="500"
           y="452.36218" />
        <rect
           style="fill:#ffff00;fill-rule:evenodd;stroke:#000000;stroke-width:1px;stroke-linecap:butt;stroke-linejoin:miter;stroke-opacity:1"
           id="rect29147"
           width="140"
           height="20"
           x="500"
           y="472.36218" />
        <rect
           style="fill:#800000;fill-rule:evenodd;stroke:#000000;stroke-width:1px;stroke-linecap:butt;stroke-linejoin:miter;stroke-opacity:1"
           id="rect29149"
           width="100"
           height="20"
           x="460"
           y="492.36218" />
        <rect
           style="fill:#ffff00;fill-rule:evenodd;stroke:#000000;stroke-width:1px;stroke-linecap:butt;stroke-linejoin:miter;stroke-opacity:1"
           id="rect29151"
           width="100"
           height="20"
           x="500"
           y="512.36218" />
        <rect
           style="fill:#ff0000;fill-rule:evenodd;stroke:#000000;stroke-width:0.89620572px;stroke-linecap:butt;stroke-linejoin:miter;stroke-opacity:1"
           id="rect29153"
           width="79.903793"
           height="20.103794"
           x="459.94809"
           y="532.3103" />
        <rect
           style="fill:#0000ff;fill-rule:evenodd;stroke:#000000;stroke-width:0.75956446px;stroke-linecap:butt;stroke-linejoin:miter;stroke-opacity:1"
           id="rect29155"
           width="79.811867"
           height="20.240435"
           x="499.87979"
           y="552.24194" />
        <rect
           style="fill:#00ff00;fill-rule:evenodd;stroke:#000000;stroke-width:0.75956446px;stroke-linecap:butt;stroke-linejoin:miter;stroke-opacity:1"
           id="rect29157"
           width="79.811867"
           height="20.240435"
           x="520"
           y="572.36218" />
        <rect
           style="fill:#00ff00;fill-rule:evenodd;stroke:#000000;stroke-width:0.75956446px;stroke-linecap:butt;stroke-linejoin:miter;stroke-opacity:1"
           id="rect29159"
           width="79.811867"
           height="20.240435"
           x="520"
           y="592.36218" />
        <text
           xml:space="preserve"
           style="font-size:24px;font-style:normal;font-weight:bold;writing-mode:lr-tb;fill:#000000;fill-opacity:1;stroke:none;stroke-width:1px;stroke-linecap:butt;stroke-linejoin:miter;stroke-opacity:1;font-family:Sans;-inkscape-font-specification:Sans"
           x="464.28571"
           y="376.64789"
           id="text29161"><tspan
             sodipodi:role="line"
             id="tspan29163"
             x="464.28571"
             y="376.64789">Source Code</tspan></text>
      </g>
      <path
         inkscape:export-ydpi="33.007736"
         inkscape:export-xdpi="33.007736"
         inkscape:export-filename="/home/abez/clip-art-so-far.png"
         id="path29165"
         d="M 480.93392,651.14115 C 476.27419,648.45085 471.38765,646.47227 466.42252,645.1584 L 459.92356,656.41493 C 458.23919,656.09987 456.54561,655.86048 454.85277,655.733 L 451.50329,643.18828 C 440.95886,643.15859 430.55836,645.95193 421.43851,651.24411 L 424.79393,663.81097 C 423.39112,664.76879 422.03907,665.79859 420.73752,666.9148 L 409.481,660.41584 C 405.83287,664.03917 402.59854,668.18765 399.90514,672.85275 C 397.21319,677.51535 395.23625,682.39584 393.92239,687.36413 L 405.17892,693.86309 C 404.86299,695.54856 404.64721,697.23397 404.51913,698.92796 L 391.96631,702.29148 C 391.94055,712.8357 394.70431,723.24413 400,732.36218 L 412.56092,728.98464 C 413.51778,730.38698 414.5637,731.7479 415.67879,733.04914 L 409.17172,744.3197 C 412.79176,747.96203 416.95768,751.19162 421.61674,753.88153 C 426.28184,756.57492 431.15708,758.55044 436.12812,759.86427 L 442.61898,748.62178 C 444.30531,748.93796 446.01113,749.14749 447.70599,749.27565 L 451.0695,761.82847 C 461.60888,761.85168 472.00628,759.05784 481.12024,753.76453 L 477.76265,741.23385 C 479.16994,740.27363 480.52174,739.23552 481.82716,738.11598 L 493.05562,744.59873 C 496.70137,740.97675 499.93952,736.82444 502.63148,732.16183 C 505.32487,727.49672 507.30039,722.62148 508.61422,717.65044 L 497.38577,711.16769 C 497.70258,709.47754 497.92574,707.78746 498.05367,706.08878 L 510.58435,702.73119 C 510.61152,692.18425 507.83362,681.77272 502.53662,672.65239 L 489.99784,676.02401 C 489.03949,674.62041 487.99687,673.26171 486.87996,671.9595 L 493.37082,660.71701 C 489.74782,657.06945 485.5984,653.8342 480.93392,651.14115 z M 459.80015,687.74592 C 467.94623,692.44906 470.72986,702.88197 466.02671,711.02805 C 461.32356,719.17414 450.9047,721.96587 442.75861,717.26272 C 434.61253,712.55957 431.80677,702.1326 436.50991,693.98652 C 441.21306,685.84043 451.65406,683.04278 459.80015,687.74592 z"
         style="fill:#00ffff;fill-rule:evenodd;stroke:#000000;stroke-width:0.51862013px;stroke-linecap:butt;stroke-linejoin:miter;stroke-opacity:1" />
    </g>
    <text
       xml:space="preserve"
       style="font-size:18px;font-style:normal;font-weight:bold;writing-mode:lr-tb;fill:#000000;fill-opacity:1;stroke:none;stroke-width:1px;stroke-linecap:butt;stroke-linejoin:miter;stroke-opacity:1;font-family:Sans;-inkscape-font-specification:Sans"
       x="190.01796"
       y="884.52209"
       id="text22731"><tspan
         sodipodi:role="line"
         id="tspan22733"
         x="190.01796"
         y="884.52209">*.cpp</tspan></text>
    <g
       id="g29103"
       transform="matrix(0.3856618,0,0,0.3856618,236.63481,702.52599)">
      <g
         inkscape:export-ydpi="33.007736"
         inkscape:export-xdpi="33.007736"
         inkscape:export-filename="/home/abez/clip-art-so-far.png"
         transform="translate(-104.28571,235.71429)"
         id="g29105">
        <rect
           style="fill:#f2f2f2;fill-rule:evenodd;stroke:#000000;stroke-width:1px;stroke-linecap:butt;stroke-linejoin:miter;stroke-opacity:1"
           id="rect29107"
           width="220"
           height="300"
           x="440"
           y="332.36218" />
        <rect
           style="fill:#800000;fill-rule:evenodd;stroke:#000000;stroke-width:1px;stroke-linecap:butt;stroke-linejoin:miter;stroke-opacity:1"
           id="rect29109"
           width="100"
           height="20"
           x="460"
           y="412.36218" />
        <rect
           style="fill:#ffff00;fill-rule:evenodd;stroke:#000000;stroke-width:1px;stroke-linecap:butt;stroke-linejoin:miter;stroke-opacity:1"
           id="rect29111"
           width="140"
           height="20"
           x="500"
           y="432.36218" />
        <rect
           style="fill:#ffff00;fill-rule:evenodd;stroke:#000000;stroke-width:1px;stroke-linecap:butt;stroke-linejoin:miter;stroke-opacity:1"
           id="rect29113"
           width="140"
           height="20"
           x="500"
           y="452.36218" />
        <rect
           style="fill:#ffff00;fill-rule:evenodd;stroke:#000000;stroke-width:1px;stroke-linecap:butt;stroke-linejoin:miter;stroke-opacity:1"
           id="rect29115"
           width="140"
           height="20"
           x="500"
           y="472.36218" />
        <rect
           style="fill:#800000;fill-rule:evenodd;stroke:#000000;stroke-width:1px;stroke-linecap:butt;stroke-linejoin:miter;stroke-opacity:1"
           id="rect29117"
           width="100"
           height="20"
           x="460"
           y="492.36218" />
        <rect
           style="fill:#ffff00;fill-rule:evenodd;stroke:#000000;stroke-width:1px;stroke-linecap:butt;stroke-linejoin:miter;stroke-opacity:1"
           id="rect29119"
           width="100"
           height="20"
           x="500"
           y="512.36218" />
        <rect
           style="fill:#ff0000;fill-rule:evenodd;stroke:#000000;stroke-width:0.89620572px;stroke-linecap:butt;stroke-linejoin:miter;stroke-opacity:1"
           id="rect29121"
           width="79.903793"
           height="20.103794"
           x="459.94809"
           y="532.3103" />
        <rect
           style="fill:#0000ff;fill-rule:evenodd;stroke:#000000;stroke-width:0.75956446px;stroke-linecap:butt;stroke-linejoin:miter;stroke-opacity:1"
           id="rect29123"
           width="79.811867"
           height="20.240435"
           x="499.87979"
           y="552.24194" />
        <rect
           style="fill:#00ff00;fill-rule:evenodd;stroke:#000000;stroke-width:0.75956446px;stroke-linecap:butt;stroke-linejoin:miter;stroke-opacity:1"
           id="rect29125"
           width="79.811867"
           height="20.240435"
           x="520"
           y="572.36218" />
        <rect
           style="fill:#00ff00;fill-rule:evenodd;stroke:#000000;stroke-width:0.75956446px;stroke-linecap:butt;stroke-linejoin:miter;stroke-opacity:1"
           id="rect29127"
           width="79.811867"
           height="20.240435"
           x="520"
           y="592.36218" />
        <text
           xml:space="preserve"
           style="font-size:24px;font-style:normal;font-weight:bold;writing-mode:lr-tb;fill:#000000;fill-opacity:1;stroke:none;stroke-width:1px;stroke-linecap:butt;stroke-linejoin:miter;stroke-opacity:1;font-family:Sans;-inkscape-font-specification:Sans"
           x="464.28571"
           y="376.64789"
           id="text29129"><tspan
             sodipodi:role="line"
             id="tspan29131"
             x="464.28571"
             y="376.64789">Source Code</tspan></text>
      </g>
      <path
         inkscape:export-ydpi="33.007736"
         inkscape:export-xdpi="33.007736"
         inkscape:export-filename="/home/abez/clip-art-so-far.png"
         id="path29133"
         d="M 480.93392,651.14115 C 476.27419,648.45085 471.38765,646.47227 466.42252,645.1584 L 459.92356,656.41493 C 458.23919,656.09987 456.54561,655.86048 454.85277,655.733 L 451.50329,643.18828 C 440.95886,643.15859 430.55836,645.95193 421.43851,651.24411 L 424.79393,663.81097 C 423.39112,664.76879 422.03907,665.79859 420.73752,666.9148 L 409.481,660.41584 C 405.83287,664.03917 402.59854,668.18765 399.90514,672.85275 C 397.21319,677.51535 395.23625,682.39584 393.92239,687.36413 L 405.17892,693.86309 C 404.86299,695.54856 404.64721,697.23397 404.51913,698.92796 L 391.96631,702.29148 C 391.94055,712.8357 394.70431,723.24413 400,732.36218 L 412.56092,728.98464 C 413.51778,730.38698 414.5637,731.7479 415.67879,733.04914 L 409.17172,744.3197 C 412.79176,747.96203 416.95768,751.19162 421.61674,753.88153 C 426.28184,756.57492 431.15708,758.55044 436.12812,759.86427 L 442.61898,748.62178 C 444.30531,748.93796 446.01113,749.14749 447.70599,749.27565 L 451.0695,761.82847 C 461.60888,761.85168 472.00628,759.05784 481.12024,753.76453 L 477.76265,741.23385 C 479.16994,740.27363 480.52174,739.23552 481.82716,738.11598 L 493.05562,744.59873 C 496.70137,740.97675 499.93952,736.82444 502.63148,732.16183 C 505.32487,727.49672 507.30039,722.62148 508.61422,717.65044 L 497.38577,711.16769 C 497.70258,709.47754 497.92574,707.78746 498.05367,706.08878 L 510.58435,702.73119 C 510.61152,692.18425 507.83362,681.77272 502.53662,672.65239 L 489.99784,676.02401 C 489.03949,674.62041 487.99687,673.26171 486.87996,671.9595 L 493.37082,660.71701 C 489.74782,657.06945 485.5984,653.8342 480.93392,651.14115 z M 459.80015,687.74592 C 467.94623,692.44906 470.72986,702.88197 466.02671,711.02805 C 461.32356,719.17414 450.9047,721.96587 442.75861,717.26272 C 434.61253,712.55957 431.80677,702.1326 436.50991,693.98652 C 441.21306,685.84043 451.65406,683.04278 459.80015,687.74592 z"
         style="fill:#00ffff;fill-rule:evenodd;stroke:#000000;stroke-width:0.51862013px;stroke-linecap:butt;stroke-linejoin:miter;stroke-opacity:1" />
    </g>
    <text
       xml:space="preserve"
       style="font-size:18px;font-style:normal;font-weight:bold;writing-mode:lr-tb;fill:#000000;fill-opacity:1;stroke:none;stroke-width:1px;stroke-linecap:butt;stroke-linejoin:miter;stroke-opacity:1;font-family:Sans;-inkscape-font-specification:Sans"
       x="139.54276"
       y="924.35144"
       id="text22735"><tspan
         sodipodi:role="line"
         id="tspan22737"
         x="139.54276"
         y="924.35144">*.C</tspan></text>
    <text
       xml:space="preserve"
       style="font-size:18px;font-style:normal;font-weight:bold;writing-mode:lr-tb;fill:#000000;fill-opacity:1;stroke:none;stroke-width:1px;stroke-linecap:butt;stroke-linejoin:miter;stroke-opacity:1;font-family:Sans;-inkscape-font-specification:Sans"
       x="137.70667"
       y="270.38608"
       id="text22739"
       transform="translate(-4.149475e-6,698.0315)"><tspan
         sodipodi:role="line"
         id="tspan22741"
         x="137.70667"
         y="270.38608">*.pl</tspan></text>
    <text
       xml:space="preserve"
       style="font-size:18px;font-style:normal;font-weight:bold;writing-mode:lr-tb;fill:#000000;fill-opacity:1;stroke:none;stroke-width:1px;stroke-linecap:butt;stroke-linejoin:miter;stroke-opacity:1;font-family:Sans;-inkscape-font-specification:Sans"
       x="318.89764"
       y="896.45667"
       id="text22743"><tspan
         sodipodi:role="line"
         id="tspan22745"
         x="318.89764"
         y="896.45667">*.py</tspan></text>
    <text
       xml:space="preserve"
       style="font-size:18px;font-style:normal;font-weight:bold;writing-mode:lr-tb;fill:#000000;fill-opacity:1;stroke:none;stroke-width:1px;stroke-linecap:butt;stroke-linejoin:miter;stroke-opacity:1;font-family:Sans;-inkscape-font-specification:Sans"
       x="308.25177"
       y="944.74237"
       id="text22747"><tspan
         sodipodi:role="line"
         id="tspan22749"
         x="308.25177"
         y="944.74237">*.pl</tspan></text>
    <text
       xml:space="preserve"
       style="font-size:18px;font-style:normal;font-weight:bold;writing-mode:lr-tb;fill:#000000;fill-opacity:1;stroke:none;stroke-width:1px;stroke-linecap:butt;stroke-linejoin:miter;stroke-opacity:1;font-family:Sans;-inkscape-font-specification:Sans"
       x="307.54489"
       y="285.99286"
       id="text22751"
       transform="translate(-4.149475e-6,698.0315)"><tspan
         sodipodi:role="line"
         id="tspan22753"
         x="307.54489"
         y="285.99286">*.pm</tspan></text>
    <text
       xml:space="preserve"
       style="font-size:18px;font-style:normal;font-weight:bold;writing-mode:lr-tb;fill:#000000;fill-opacity:1;stroke:none;stroke-width:1px;stroke-linecap:butt;stroke-linejoin:miter;stroke-opacity:1;font-family:Sans;-inkscape-font-specification:Sans"
       x="25.705242"
       y="894.97406"
       id="text22755"><tspan
         sodipodi:role="line"
         id="tspan22757"
         x="25.705242"
         y="894.97406">*.tcl</tspan></text>
    <text
       xml:space="preserve"
       style="font-size:18px;font-style:normal;font-weight:bold;writing-mode:lr-tb;fill:#000000;fill-opacity:1;stroke:none;stroke-width:1px;stroke-linecap:butt;stroke-linejoin:miter;stroke-opacity:1;font-family:Sans;-inkscape-font-specification:Sans"
       x="106.49316"
       y="160.22075"
       id="text22759"
       transform="translate(-4.149475e-6,698.0315)"><tspan
         sodipodi:role="line"
         id="tspan22761"
         x="106.49316"
         y="160.22075">*.php</tspan></text>
    <text
       xml:space="preserve"
       style="font-size:18px;font-style:normal;font-weight:bold;writing-mode:lr-tb;fill:#000000;fill-opacity:1;stroke:none;stroke-width:1px;stroke-linecap:butt;stroke-linejoin:miter;stroke-opacity:1;font-family:Sans;-inkscape-font-specification:Sans"
       x="110.16533"
       y="998.71307"
       id="text22763"><tspan
         sodipodi:role="line"
         id="tspan22765"
         x="110.16533"
         y="998.71307">*.rb</tspan></text>
    <text
       xml:space="preserve"
       style="font-size:18px;font-style:normal;font-weight:bold;writing-mode:lr-tb;fill:#000000;fill-opacity:1;stroke:none;stroke-width:1px;stroke-linecap:butt;stroke-linejoin:miter;stroke-opacity:1;font-family:Sans;-inkscape-font-specification:Sans"
       x="249.7081"
       y="162.05684"
       id="text22767"
       transform="translate(-4.149475e-6,698.0315)"><tspan
         sodipodi:role="line"
         id="tspan22769"
         x="249.7081"
         y="162.05684">*.java</tspan></text>
    <text
       xml:space="preserve"
       style="font-size:18px;font-style:normal;font-weight:bold;writing-mode:lr-tb;fill:#000000;fill-opacity:1;stroke:none;stroke-width:1px;stroke-linecap:butt;stroke-linejoin:miter;stroke-opacity:1;font-family:Sans;-inkscape-font-specification:Sans"
       x="367.18335"
       y="912.61084"
       id="text22771"><tspan
         sodipodi:role="line"
         id="tspan22773"
         x="367.18335"
         y="912.61084">*.sql</tspan></text>
    <text
       xml:space="preserve"
       style="font-size:18px;font-style:normal;font-weight:bold;writing-mode:lr-tb;fill:#000000;fill-opacity:1;stroke:none;stroke-width:1px;stroke-linecap:butt;stroke-linejoin:miter;stroke-opacity:1;font-family:Sans;-inkscape-font-specification:Sans"
       x="163.41193"
       y="308.94397"
       id="text22775"
       transform="translate(-4.149475e-6,698.0315)"><tspan
         sodipodi:role="line"
         id="tspan22777"
         x="163.41193"
         y="308.94397" /></text>
    <text
       xml:space="preserve"
       style="font-size:18px;font-style:normal;font-weight:bold;writing-mode:lr-tb;fill:#000000;fill-opacity:1;stroke:none;stroke-width:1px;stroke-linecap:butt;stroke-linejoin:miter;stroke-opacity:1;font-family:Sans;-inkscape-font-specification:Sans"
       x="369.05389"
       y="167.56511"
       id="text29167"
       transform="translate(-4.149475e-6,698.0315)"><tspan
         sodipodi:role="line"
         id="tspan29169"
         x="369.05389"
         y="167.56511">*.scm</tspan></text>
    <text
       xml:space="preserve"
       style="font-size:18px;font-style:normal;font-weight:bold;writing-mode:lr-tb;fill:#000000;fill-opacity:1;stroke:none;stroke-width:1px;stroke-linecap:butt;stroke-linejoin:miter;stroke-opacity:1;font-family:Sans;-inkscape-font-specification:Sans"
       x="40.393955"
       y="146.45007"
       id="text29171"
       transform="translate(-4.149475e-6,698.0315)"><tspan
         sodipodi:role="line"
         id="tspan29173"
         x="40.393955"
         y="146.45007">*.hs</tspan></text>
    <text
       xml:space="preserve"
       style="font-size:18px;font-style:normal;font-weight:bold;writing-mode:lr-tb;fill:#000000;fill-opacity:1;stroke:none;stroke-width:1px;stroke-linecap:butt;stroke-linejoin:miter;stroke-opacity:1;font-family:Sans;-inkscape-font-specification:Sans"
       x="120.26383"
       y="184.0899"
       id="text29175"
       transform="translate(-4.149475e-6,698.0315)"><tspan
         sodipodi:role="line"
         id="tspan29177"
         x="120.26383"
         y="184.0899">*.lisp</tspan></text>
    <text
       xml:space="preserve"
       style="font-size:18px;font-style:normal;font-weight:bold;writing-mode:lr-tb;fill:#000000;fill-opacity:1;stroke:none;stroke-width:1px;stroke-linecap:butt;stroke-linejoin:miter;stroke-opacity:1;font-family:Sans;-inkscape-font-specification:Sans"
       x="16.524797"
       y="869.2688"
       id="text29179"><tspan
         sodipodi:role="line"
         id="tspan29181"
         x="16.524797"
         y="869.2688">*.ml</tspan></text>
  </g>
</svg>
