<?xml version="1.0" encoding="UTF-8" standalone="no"?>
<!-- Created with Inkscape (http://www.inkscape.org/) -->

<svg
   xmlns:dc="http://purl.org/dc/elements/1.1/"
   xmlns:cc="http://creativecommons.org/ns#"
   xmlns:rdf="http://www.w3.org/1999/02/22-rdf-syntax-ns#"
   xmlns:svg="http://www.w3.org/2000/svg"
   xmlns="http://www.w3.org/2000/svg"
   xmlns:sodipodi="http://sodipodi.sourceforge.net/DTD/sodipodi-0.dtd"
   xmlns:inkscape="http://www.inkscape.org/namespaces/inkscape"
   width="453.5433"
   height="340.15747"
   id="svg2"
   sodipodi:version="0.32"
   inkscape:version="0.48.0 r9654"
   sodipodi:docname="unsupervised-build.svg"
   version="1.0"
   inkscape:output_extension="org.inkscape.output.svg.inkscape">
  <defs
     id="defs4">
    <inkscape:perspective
       sodipodi:type="inkscape:persp3d"
       inkscape:vp_x="0 : 170.07874 : 1"
       inkscape:vp_y="0 : 1000 : 0"
       inkscape:vp_z="453.5433 : 170.07874 : 1"
       inkscape:persp3d-origin="226.77165 : 113.38582 : 1"
       id="perspective30765" />
  </defs>
  <sodipodi:namedview
     id="base"
     pagecolor="#ffffff"
     bordercolor="#666666"
     borderopacity="1.0"
     gridtolerance="10000"
     guidetolerance="8.8"
     objecttolerance="10"
     inkscape:pageopacity="0.0"
     inkscape:pageshadow="2"
     inkscape:zoom="1.0892718"
     inkscape:cx="259.3408"
     inkscape:cy="147.35502"
     inkscape:document-units="mm"
     inkscape:current-layer="layer1"
     inkscape:window-width="1024"
     inkscape:window-height="768"
     inkscape:window-x="0"
     inkscape:window-y="24"
     width="12.8cm"
     height="9.6cm"
     units="cm"
     showgrid="true"
     grid_units="mm"
     inkscape:object-paths="false"
     inkscape:grid-points="true"
     inkscape:grid-bbox="true"
     inkscape:guide-points="true"
     showguides="true"
     inkscape:guide-bbox="true"
     inkscape:window-maximized="0">
    <sodipodi:guide
       orientation="vertical"
       position="56.476527"
       id="guide3573" />
    <sodipodi:guide
       orientation="horizontal"
       position="11.035643"
       id="guide3579" />
    <sodipodi:guide
       orientation="horizontal"
       position="24.018753"
       id="guide3886" />
    <sodipodi:guide
       orientation="horizontal"
       position="285.62841"
       id="guide3988" />
    <sodipodi:guide
       orientation="horizontal"
       position="303.15561"
       id="guide4081" />
    <inkscape:grid
       id="GridFromPre046Settings"
       type="xygrid"
       originx="0px"
       originy="0px"
       spacingx="2mm"
       spacingy="2mm"
       color="#0000ff"
       empcolor="#0000ff"
       opacity="0.2"
       empopacity="0.4"
       empspacing="5" />
  </sodipodi:namedview>
  <metadata
     id="metadata7">
    <rdf:RDF>
      <cc:Work
         rdf:about="">
        <dc:format>image/svg+xml</dc:format>
        <dc:type
           rdf:resource="http://purl.org/dc/dcmitype/StillImage" />
      </cc:Work>
    </rdf:RDF>
  </metadata>
  <g
     inkscape:label="Layer 1"
     inkscape:groupmode="layer"
     id="layer1"
     transform="translate(4.149475e-6,-698.0315)">
    <text
       xml:space="preserve"
       style="font-size:18px;font-style:normal;font-weight:bold;writing-mode:lr-tb;fill:#000000;fill-opacity:1;stroke:none;font-family:Sans;-inkscape-font-specification:Sans"
       x="56.476524"
       y="733.46454"
       id="text30767"><tspan
         sodipodi:role="line"
         id="tspan30769"
         x="56.476524"
         y="733.46454">Release Patterns: Build file revisions</tspan></text>
    <g
       id="g30833"
       transform="matrix(1.1699359,0,0,1.1699359,168.26935,46.208504)">
      <path
         d="M -116.34988,655.18859 L 130.53853,629.20034"
         style="fill:none;stroke:#000000;stroke-width:1.29941273;stroke-linecap:butt;stroke-linejoin:miter;stroke-miterlimit:10;stroke-dasharray:12.99412671, 2.59882534, 2.59882534, 2.59882534, 2.59882534, 2.59882534;stroke-dashoffset:0;stroke-opacity:1"
         id="path44501" />
      <path
         d="M -116.34988,655.18859 L 0.59725799,655.18859 L 26.585508,616.20575 L 52.573758,655.18859 L 130.53853,655.18859"
         style="fill:none;stroke:#ad0080;stroke-width:1.29941273;stroke-linecap:butt;stroke-linejoin:miter;stroke-miterlimit:10;stroke-dasharray:none;stroke-opacity:1"
         id="path44511" />
      <path
         d="M 167.63683,655.18859 L 180.63096,642.19446"
         style="fill:none;stroke:#ad0080;stroke-width:1.29941273;stroke-linecap:butt;stroke-linejoin:miter;stroke-miterlimit:10;stroke-dasharray:none;stroke-opacity:1"
         id="path44575" />
      <path
         d="M -129.34401,655.18859 L -129.34401,640.2453"
         style="fill:none;stroke:#000000;stroke-width:1.29941273;stroke-linecap:butt;stroke-linejoin:miter;stroke-miterlimit:10;stroke-dasharray:none;stroke-opacity:1"
         id="path44587" />
      <path
         d="M -124.14609,640.2453 L -129.34401,629.8499 L -134.54148,640.2453"
         style="fill:#000000;fill-opacity:1;fill-rule:evenodd;stroke:none"
         id="path44589" />
    </g>
    <text
       xml:space="preserve"
       style="font-size:18px;font-style:normal;font-weight:bold;writing-mode:lr-tb;fill:#000000;fill-opacity:1;stroke:none;stroke-width:1px;stroke-linecap:butt;stroke-linejoin:miter;stroke-opacity:1;font-family:Sans;-inkscape-font-specification:Sans"
       x="344.72571"
       y="100.54786"
       id="text30846"
       transform="translate(-4.149475e-6,698.0315)"><tspan
         sodipodi:role="line"
         id="tspan30848"
         x="344.72571"
         y="100.54786" /></text>
    <text
       xml:space="preserve"
       style="font-size:21.05884552px;font-style:normal;font-weight:bold;writing-mode:lr-tb;fill:#000000;fill-opacity:1;stroke:none;stroke-width:1px;stroke-linecap:butt;stroke-linejoin:miter;stroke-opacity:1;font-family:Sans;-inkscape-font-specification:Sans"
       x="387.56403"
       y="812.08887"
       id="text30850"><tspan
         sodipodi:role="line"
         id="tspan30852"
         x="387.56403"
         y="812.08887">Build</tspan></text>
    <g
       id="g10734"
       transform="matrix(1.0105821e-3,-0.5027008,0.5027008,1.0105821e-3,-190.60673,910.4121)">
      <g
         inkscape:export-ydpi="33.007736"
         inkscape:export-xdpi="33.007736"
         inkscape:export-filename="/home/abez/clip-art-so-far.png"
         transform="matrix(0.4127796,0.5096168,-0.5096168,0.4127796,198.88242,730.76089)"
         id="g3265">
        <rect
           style="fill:#c87137;fill-rule:evenodd;stroke:#000000;stroke-width:1px;stroke-linecap:butt;stroke-linejoin:miter;stroke-opacity:1"
           id="rect3257"
           width="485.71429"
           height="88.571426"
           x="-91.428574"
           y="549.50507" />
        <path
           style="fill:none;fill-rule:evenodd;stroke:#000000;stroke-width:1px;stroke-linecap:butt;stroke-linejoin:miter;stroke-opacity:1"
           d="M -54.285714,583.79075 C -29.732194,590.37111 20.526099,589.63656 54.285714,598.07647 C 86.432294,606.11311 129.55608,598.07647 162.85714,598.07647 C 192.59894,598.07647 223.60167,600.93361 254.28571,600.93361 C 274.43611,600.93361 295.28598,594.25497 314.28571,589.50504 C 324.49102,586.95371 335.19489,586.6479 345.71429,586.6479"
           id="path3259" />
        <path
           style="fill:none;fill-rule:evenodd;stroke:#000000;stroke-width:1px;stroke-linecap:butt;stroke-linejoin:miter;stroke-opacity:1"
           d="M -34.285714,560.93361 C -27.417952,559.21667 -7.6135626,563.79075 4.2857143,563.79075 C 21.294795,563.79075 37.335172,566.6479 54.285714,566.6479 C 69.47185,566.6479 82.626934,568.51429 97.142857,570.93361 C 114.22381,573.78044 132.749,569.50504 150,569.50504 C 168.03573,569.50504 185.87134,565.21933 204.28571,565.21933 C 209.54541,565.21933 214.81187,565.78321 220,566.6479"
           id="path3261" />
        <path
           style="fill:none;fill-rule:evenodd;stroke:#000000;stroke-width:1px;stroke-linecap:butt;stroke-linejoin:miter;stroke-opacity:1"
           d="M -40,609.50504 C -32.127157,609.50504 -14.050886,613.79075 -1.4285714,613.79075 C 14.932833,613.79075 33.928538,616.29075 50,619.50504 C 62.944348,622.09391 82.465578,619.60293 94.285714,616.6479 C 107.27518,613.40053 123.86256,618.07647 137.14286,618.07647 C 154.71264,618.07647 172.60315,618.07647 190,618.07647 C 193.33333,618.07647 196.66667,618.07647 200,618.07647"
           id="path3263" />
      </g>
      <g
         inkscape:export-ydpi="33.007736"
         inkscape:export-xdpi="33.007736"
         inkscape:export-filename="/home/abez/clip-art-so-far.png"
         transform="matrix(-0.4857463,0.4406209,0.4406209,0.4857463,-210.55989,695.07119)"
         id="g3271">
        <rect
           style="fill:#c87137;fill-rule:evenodd;stroke:#000000;stroke-width:1px;stroke-linecap:butt;stroke-linejoin:miter;stroke-opacity:1"
           id="rect3273"
           width="485.71429"
           height="88.571426"
           x="-91.428574"
           y="549.50507" />
        <path
           style="fill:none;fill-rule:evenodd;stroke:#000000;stroke-width:1px;stroke-linecap:butt;stroke-linejoin:miter;stroke-opacity:1"
           d="M -54.285714,583.79075 C -29.732194,590.37111 20.526099,589.63656 54.285714,598.07647 C 86.432294,606.11311 129.55608,598.07647 162.85714,598.07647 C 192.59894,598.07647 223.60167,600.93361 254.28571,600.93361 C 274.43611,600.93361 295.28598,594.25497 314.28571,589.50504 C 324.49102,586.95371 335.19489,586.6479 345.71429,586.6479"
           id="path3275" />
        <path
           style="fill:none;fill-rule:evenodd;stroke:#000000;stroke-width:1px;stroke-linecap:butt;stroke-linejoin:miter;stroke-opacity:1"
           d="M -34.285714,560.93361 C -27.417952,559.21667 -7.6135626,563.79075 4.2857143,563.79075 C 21.294795,563.79075 37.335172,566.6479 54.285714,566.6479 C 69.47185,566.6479 82.626934,568.51429 97.142857,570.93361 C 114.22381,573.78044 132.749,569.50504 150,569.50504 C 168.03573,569.50504 185.87134,565.21933 204.28571,565.21933 C 209.54541,565.21933 214.81187,565.78321 220,566.6479"
           id="path3277" />
        <path
           style="fill:none;fill-rule:evenodd;stroke:#000000;stroke-width:1px;stroke-linecap:butt;stroke-linejoin:miter;stroke-opacity:1"
           d="M -40,609.50504 C -32.127157,609.50504 -14.050886,613.79075 -1.4285714,613.79075 C 14.932833,613.79075 33.928538,616.29075 50,619.50504 C 62.944348,622.09391 82.465578,619.60293 94.285714,616.6479 C 107.27518,613.40053 123.86256,618.07647 137.14286,618.07647 C 154.71264,618.07647 172.60315,618.07647 190,618.07647 C 193.33333,618.07647 196.66667,618.07647 200,618.07647"
           id="path3279" />
      </g>
      <g
         inkscape:export-ydpi="33.007736"
         inkscape:export-xdpi="33.007736"
         inkscape:export-filename="/home/abez/clip-art-so-far.png"
         transform="translate(-380,290)"
         id="g3287">
        <rect
           style="fill:#ff7f2a;fill-rule:evenodd;stroke:#000000;stroke-width:1px;stroke-linecap:butt;stroke-linejoin:miter;stroke-opacity:1"
           id="rect3285"
           width="40"
           height="420"
           x="380"
           y="492.36218" />
        <path
           style="fill:#c8beb7;fill-rule:evenodd;stroke:#000000;stroke-width:1px;stroke-linecap:butt;stroke-linejoin:miter;stroke-opacity:1"
           d="M 260,592.36218 L 340,512.36218 L 460,512.36218 L 460,502.36218 L 480,502.36218 L 480,582.36218 L 460,582.36218 L 460,572.36218 L 320,572.36218 L 260,592.36218"
           id="path3281"
           sodipodi:nodetypes="cccccccccc" />
        <path
           style="fill:none;fill-rule:evenodd;stroke:#000000;stroke-width:1px;stroke-linecap:butt;stroke-linejoin:miter;stroke-opacity:1"
           d="M 460,512.36218 C 460,525.69552 460,539.02885 460,552.36218"
           id="path3283" />
      </g>
      <g
         inkscape:export-ydpi="33.007736"
         inkscape:export-xdpi="33.007736"
         inkscape:export-filename="/home/abez/clip-art-so-far.png"
         transform="translate(-440,330)"
         id="g3312">
        <path
           style="fill:#c8beb7;fill-rule:evenodd;stroke:#000000;stroke-width:1px;stroke-linecap:butt;stroke-linejoin:miter;stroke-opacity:1"
           d="M 240,642.36218 L 280,642.36218 L 270,652.36218 L 270,722.36218 L 260,742.36218 L 250,722.36218 L 250,652.36218 L 240,642.36218 z"
           id="path3292" />
        <path
           style="fill:none;fill-rule:evenodd;stroke:#000000;stroke-width:1px;stroke-linecap:butt;stroke-linejoin:miter;stroke-opacity:1"
           d="M 250,652.36218 L 270,662.36218 L 250,662.36218 L 270,672.36218 L 250,672.36218 L 270,682.36218 L 250,682.36218 L 270,692.36218 L 250,692.36218 L 270,702.36218 L 250,702.36218 L 270,712.36218 L 250,712.36218 L 270,722.36218 L 250,722.36218 L 250,722.36218"
           id="path3294" />
      </g>
      <path
         inkscape:export-ydpi="33.007736"
         inkscape:export-xdpi="33.007736"
         inkscape:export-filename="/home/abez/clip-art-so-far.png"
         sodipodi:nodetypes="cccccccccc"
         id="path3296"
         d="M 90,1012.3622 L 90,1017.3622 L 100,1017.3622 L 100,1092.3622 L 105,1107.3622 L 110,1092.3622 L 110,1017.3622 L 120,1017.3622 L 120,1012.3622 L 90,1012.3622 z"
         style="fill:#c8beb7;fill-rule:evenodd;stroke:#000000;stroke-width:1px;stroke-linecap:butt;stroke-linejoin:miter;stroke-opacity:1" />
      <g
         inkscape:export-ydpi="33.007736"
         inkscape:export-xdpi="33.007736"
         inkscape:export-filename="/home/abez/clip-art-so-far.png"
         transform="translate(-660,330)"
         id="g3306">
        <path
           style="fill:#ffdd55;fill-rule:evenodd;stroke:#000000;stroke-width:1px;stroke-linecap:butt;stroke-linejoin:miter;stroke-opacity:1"
           d="M 540,752.36218 L 520,772.36218 L 520,872.36218 L 540,892.36218 L 560,872.36218 L 560,772.36218 L 540,752.36218"
           id="path3300"
           sodipodi:nodetypes="ccccccc" />
        <rect
           style="fill:#ffd42a;fill-rule:evenodd;stroke:#000000;stroke-width:1px;stroke-linecap:butt;stroke-linejoin:miter;stroke-opacity:1"
           id="rect3298"
           width="60"
           height="20"
           x="510"
           y="742.36218" />
        <path
           style="fill:#c8beb7;fill-rule:evenodd;stroke:#000000;stroke-width:1px;stroke-linecap:butt;stroke-linejoin:miter;stroke-opacity:1"
           d="M 530,742.36218 L 530,562.36218 L 540,542.36218 L 550,562.36218 L 550,742.36218 L 530,742.36218 z"
           id="path3302" />
        <path
           style="fill:#917c6f;fill-rule:evenodd;stroke:#000000;stroke-width:1px;stroke-linecap:butt;stroke-linejoin:miter;stroke-opacity:1"
           d="M 540,542.36218 L 540,562.36218 L 550,562.36218 L 540,542.36218 z"
           id="path3304" />
      </g>
      <text
         inkscape:export-ydpi="33.007736"
         inkscape:export-xdpi="33.007736"
         inkscape:export-filename="/home/abez/clip-art-so-far.png"
         id="text8626"
         y="1232.3622"
         x="-160"
         style="font-size:24px;font-style:normal;font-weight:bold;writing-mode:lr-tb;fill:#000000;fill-opacity:1;stroke:none;stroke-width:1px;stroke-linecap:butt;stroke-linejoin:miter;stroke-opacity:1;font-family:Sans;-inkscape-font-specification:Sans"
         xml:space="preserve"><tspan
           y="1232.3622"
           x="-160"
           id="tspan8628"
           sodipodi:role="line" /></text>
    </g>
    <text
       xml:space="preserve"
       style="font-size:18px;font-style:normal;font-weight:bold;writing-mode:lr-tb;fill:#000000;fill-opacity:1;stroke:none;stroke-width:1px;stroke-linecap:butt;stroke-linejoin:miter;stroke-opacity:1;font-family:Sans;-inkscape-font-specification:Sans"
       x="7.0866098"
       y="875.19684"
       id="text30880"><tspan
         sodipodi:role="line"
         x="7.0866098"
         y="875.19684"
         id="tspan30888">Makefile</tspan></text>
    <text
       xml:space="preserve"
       style="font-size:18px;font-style:normal;font-weight:bold;writing-mode:lr-tb;fill:#000000;fill-opacity:1;stroke:none;stroke-width:1px;stroke-linecap:butt;stroke-linejoin:miter;stroke-opacity:1;font-family:Sans;-inkscape-font-specification:Sans"
       x="77.952751"
       y="903.54327"
       id="text30896"><tspan
         sodipodi:role="line"
         id="tspan30898"
         x="77.952751"
         y="903.54327">configure</tspan></text>
    <text
       xml:space="preserve"
       style="font-size:18px;font-style:normal;font-weight:bold;writing-mode:lr-tb;fill:#000000;fill-opacity:1;stroke:none;stroke-width:1px;stroke-linecap:butt;stroke-linejoin:miter;stroke-opacity:1;font-family:Sans;-inkscape-font-specification:Sans"
       x="85.039368"
       y="853.93701"
       id="text30900"><tspan
         sodipodi:role="line"
         id="tspan30902"
         x="85.039368"
         y="853.93701">Makefile.*</tspan><tspan
         sodipodi:role="line"
         x="85.039368"
         y="876.43701"
         id="tspan30904" /></text>
    <text
       xml:space="preserve"
       style="font-size:18px;font-style:normal;font-weight:bold;writing-mode:lr-tb;fill:#000000;fill-opacity:1;stroke:none;stroke-width:1px;stroke-linecap:butt;stroke-linejoin:miter;stroke-opacity:1;font-family:Sans;-inkscape-font-specification:Sans"
       x="21.259838"
       y="938.97638"
       id="text30906"><tspan
         sodipodi:role="line"
         id="tspan30908"
         x="21.259838"
         y="938.97638">configure.*</tspan></text>
    <text
       xml:space="preserve"
       style="font-size:18px;font-style:normal;font-weight:bold;writing-mode:lr-tb;fill:#000000;fill-opacity:1;stroke:none;stroke-width:1px;stroke-linecap:butt;stroke-linejoin:miter;stroke-opacity:1;font-family:Sans;-inkscape-font-specification:Sans"
       x="104.51403"
       y="271.99615"
       id="text30910"
       transform="translate(-4.149475e-6,698.0315)"><tspan
         sodipodi:role="line"
         id="tspan30912"
         x="104.51403"
         y="271.99615">build.xml</tspan></text>
    <text
       xml:space="preserve"
       style="font-size:18px;font-style:normal;font-weight:bold;writing-mode:lr-tb;fill:#000000;fill-opacity:1;stroke:none;stroke-width:1px;stroke-linecap:butt;stroke-linejoin:miter;stroke-opacity:1;font-family:Sans;-inkscape-font-specification:Sans"
       x="19.474665"
       y="288.87418"
       id="text30914"
       transform="translate(-4.149475e-6,698.0315)"><tspan
         sodipodi:role="line"
         id="tspan30916"
         x="19.474665"
         y="288.87418">setup.hs</tspan></text>
    <text
       xml:space="preserve"
       style="font-size:18px;font-style:normal;font-weight:bold;writing-mode:lr-tb;fill:#000000;fill-opacity:1;stroke:none;stroke-width:1px;stroke-linecap:butt;stroke-linejoin:miter;stroke-opacity:1;font-family:Sans;-inkscape-font-specification:Sans"
       x="116.19883"
       y="304.45392"
       id="text30918"
       transform="translate(-4.149475e-6,698.0315)"><tspan
         sodipodi:role="line"
         id="tspan30920"
         x="116.19883"
         y="304.45392">setup.py</tspan></text>
  </g>
</svg>
