<?xml version="1.0" encoding="UTF-8" standalone="no"?>
<!-- Created with Inkscape (http://www.inkscape.org/) -->
<svg
   xmlns:dc="http://purl.org/dc/elements/1.1/"
   xmlns:cc="http://creativecommons.org/ns#"
   xmlns:rdf="http://www.w3.org/1999/02/22-rdf-syntax-ns#"
   xmlns:svg="http://www.w3.org/2000/svg"
   xmlns="http://www.w3.org/2000/svg"
   xmlns:xlink="http://www.w3.org/1999/xlink"
   xmlns:sodipodi="http://sodipodi.sourceforge.net/DTD/sodipodi-0.dtd"
   xmlns:inkscape="http://www.inkscape.org/namespaces/inkscape"
   width="453.5433"
   height="340.15747"
   id="svg2"
   sodipodi:version="0.32"
   inkscape:version="0.46"
   sodipodi:docname="annotation-stop-words-example.svg"
   version="1.0"
   inkscape:output_extension="org.inkscape.output.svg.inkscape">
  <defs
     id="defs4">
    <inkscape:perspective
       sodipodi:type="inkscape:persp3d"
       inkscape:vp_x="0 : 170.07874 : 1"
       inkscape:vp_y="0 : 1000 : 0"
       inkscape:vp_z="453.5433 : 170.07874 : 1"
       inkscape:persp3d-origin="226.77165 : 113.38582 : 1"
       id="perspective6865" />
    <inkscape:perspective
       id="perspective6923"
       inkscape:persp3d-origin="372.04724 : 350.78739 : 1"
       inkscape:vp_z="744.09448 : 526.18109 : 1"
       inkscape:vp_y="0 : 1000 : 0"
       inkscape:vp_x="0 : 526.18109 : 1"
       sodipodi:type="inkscape:persp3d" />
    <inkscape:perspective
       id="perspective6936"
       inkscape:persp3d-origin="372.04724 : 350.78739 : 1"
       inkscape:vp_z="744.09448 : 526.18109 : 1"
       inkscape:vp_y="0 : 1000 : 0"
       inkscape:vp_x="0 : 526.18109 : 1"
       sodipodi:type="inkscape:persp3d" />
  </defs>
  <sodipodi:namedview
     id="base"
     pagecolor="#ffffff"
     bordercolor="#666666"
     borderopacity="1.0"
     gridtolerance="10000"
     guidetolerance="8.8"
     objecttolerance="10"
     inkscape:pageopacity="0.0"
     inkscape:pageshadow="2"
     inkscape:zoom="1.0892718"
     inkscape:cx="215.55939"
     inkscape:cy="180.33428"
     inkscape:document-units="mm"
     inkscape:current-layer="layer1"
     inkscape:window-width="1024"
     inkscape:window-height="768"
     inkscape:window-x="0"
     inkscape:window-y="0"
     width="12.8cm"
     height="9.6cm"
     units="cm"
     showgrid="true"
     grid_units="mm"
     inkscape:object-paths="false"
     inkscape:grid-points="true"
     inkscape:grid-bbox="true"
     inkscape:guide-points="true"
     showguides="true"
     inkscape:guide-bbox="true">
    <sodipodi:guide
       orientation="vertical"
       position="-236.85548,334.16819"
       id="guide3573" />
    <sodipodi:guide
       orientation="horizontal"
       position="11.035643"
       id="guide3579" />
    <sodipodi:guide
       orientation="horizontal"
       position="24.018753"
       id="guide3886" />
    <sodipodi:guide
       orientation="horizontal"
       position="285.62841"
       id="guide3988" />
    <sodipodi:guide
       orientation="horizontal"
       position="303.15561"
       id="guide4081" />
    <inkscape:grid
       id="GridFromPre046Settings"
       type="xygrid"
       originx="0px"
       originy="0px"
       spacingx="2mm"
       spacingy="2mm"
       color="#0000ff"
       empcolor="#0000ff"
       opacity="0.2"
       empopacity="0.4"
       empspacing="5" />
  </sodipodi:namedview>
  <metadata
     id="metadata7">
    <rdf:RDF>
      <cc:Work
         rdf:about="">
        <dc:format>image/svg+xml</dc:format>
        <dc:type
           rdf:resource="http://purl.org/dc/dcmitype/StillImage" />
      </cc:Work>
    </rdf:RDF>
  </metadata>
  <g
     inkscape:label="Layer 1"
     inkscape:groupmode="layer"
     id="layer1"
     transform="translate(4.149475e-6,-698.0315)">
    <text
       xml:space="preserve"
       style="font-size:24px;font-style:normal;font-weight:bold;writing-mode:lr-tb;fill:#000000;fill-opacity:1;stroke:none;stroke-width:1px;stroke-linecap:butt;stroke-linejoin:miter;stroke-opacity:1;font-family:Sans;-inkscape-font-specification:Sans"
       x="60.899639"
       y="734.37988"
       id="text6745"><tspan
         sodipodi:role="line"
         id="tspan6747"
         x="60.899639"
         y="734.37988">Annotation: Stop Words</tspan></text>
    <image
       y="768.17261"
       x="224.65578"
       id="image6925"
       height="170.80377"
       width="221.8009"
       sodipodi:absref="/home/abez/projects/interview-talk/maxdb-7_10-no-stop.scaled.png"
       xlink:href="maxdb-7_10-no-stop.scaled.png" />
    <image
       y="768.89764"
       x="3.8942432"
       id="image6938"
       height="174.22556"
       width="215.79079"
       sodipodi:absref="/home/abez/projects/interview-talk/maxdb-7_10-stop.scaled.png"
       xlink:href="maxdb-7_10-stop.scaled.png" />
    <g
       id="g3197"
       transform="matrix(0.8746452,0,0,0.8746452,299.59309,287.2453)">
      <path
         transform="translate(-4.149475e-6,698.0315)"
         d="M 113.38583,127.55905 L 83.823499,156.40913 L 42.519686,155.9055 L 13.669602,126.34317 L 14.173233,85.039359 L 43.73556,56.189274 L 85.039373,56.692906 L 113.88946,86.255233 L 113.38583,127.55905 z"
         inkscape:randomized="0"
         inkscape:rounded="0"
         inkscape:flatsided="true"
         sodipodi:arg2="0.7975909"
         sodipodi:arg1="0.40489182"
         sodipodi:r2="23.891245"
         sodipodi:r1="53.970043"
         sodipodi:cy="106.2992"
         sodipodi:cx="63.77953"
         sodipodi:sides="8"
         id="path3187"
         style="fill:#ff0000;fill-opacity:1;stroke:#000000;stroke-width:3;stroke-linecap:butt;stroke-linejoin:miter;stroke-miterlimit:4;stroke-dasharray:none;stroke-dashoffset:0;stroke-opacity:1"
         sodipodi:type="star" />
      <text
         id="text3189"
         y="807.46826"
         x="13.524069"
         style="font-size:33.49298859px;font-style:normal;font-weight:bold;fill:#ffffff;fill-opacity:1;stroke:none;stroke-width:1px;stroke-linecap:butt;stroke-linejoin:miter;stroke-opacity:1;font-family:Bitstream Vera Sans;-inkscape-font-specification:Sans"
         xml:space="preserve"><tspan
           y="807.46826"
           x="13.524069"
           id="tspan3191"
           sodipodi:role="line">STOP</tspan></text>
      <text
         id="text3193"
         y="831.10834"
         x="22.071283"
         style="font-size:24px;font-style:normal;font-weight:bold;fill:#ffffff;fill-opacity:1;stroke:none;stroke-width:1px;stroke-linecap:butt;stroke-linejoin:miter;stroke-opacity:1;font-family:Bitstream Vera Sans;-inkscape-font-specification:Sans"
         xml:space="preserve"><tspan
           y="831.10834"
           x="22.071283"
           id="tspan3195"
           sodipodi:role="line">words</tspan></text>
    </g>
    <g
       id="g6954"
       transform="matrix(0.8746452,0,0,0.8746452,51.561596,287.2453)">
      <path
         transform="translate(-4.149475e-6,698.0315)"
         d="M 113.38583,127.55905 L 83.823499,156.40913 L 42.519686,155.9055 L 13.669602,126.34317 L 14.173233,85.039359 L 43.73556,56.189274 L 85.039373,56.692906 L 113.88946,86.255233 L 113.38583,127.55905 z"
         inkscape:randomized="0"
         inkscape:rounded="0"
         inkscape:flatsided="true"
         sodipodi:arg2="0.7975909"
         sodipodi:arg1="0.40489182"
         sodipodi:r2="23.891245"
         sodipodi:r1="53.970043"
         sodipodi:cy="106.2992"
         sodipodi:cx="63.77953"
         sodipodi:sides="8"
         id="path6956"
         style="fill:#ff0000;fill-opacity:1;stroke:#000000;stroke-width:3;stroke-linecap:butt;stroke-linejoin:miter;stroke-miterlimit:4;stroke-dasharray:none;stroke-dashoffset:0;stroke-opacity:1"
         sodipodi:type="star" />
      <text
         id="text6958"
         y="807.46826"
         x="13.524069"
         style="font-size:33.49298859px;font-style:normal;font-weight:bold;fill:#ffffff;fill-opacity:1;stroke:none;stroke-width:1px;stroke-linecap:butt;stroke-linejoin:miter;stroke-opacity:1;font-family:Bitstream Vera Sans;-inkscape-font-specification:Sans"
         xml:space="preserve"><tspan
           y="807.46826"
           x="13.524069"
           id="tspan6960"
           sodipodi:role="line">STOP</tspan></text>
      <text
         id="text6962"
         y="831.10834"
         x="22.071283"
         style="font-size:24px;font-style:normal;font-weight:bold;fill:#ffffff;fill-opacity:1;stroke:none;stroke-width:1px;stroke-linecap:butt;stroke-linejoin:miter;stroke-opacity:1;font-family:Bitstream Vera Sans;-inkscape-font-specification:Sans"
         xml:space="preserve"><tspan
           y="831.10834"
           x="22.071283"
           id="tspan6964"
           sodipodi:role="line">words</tspan></text>
    </g>
    <path
       style="opacity:1;fill:#e5a214;fill-opacity:1;fill-rule:nonzero;stroke:#e1e215;stroke-width:2.14798141;stroke-linecap:butt;stroke-linejoin:miter;stroke-miterlimit:4;stroke-dasharray:none;stroke-dashoffset:0;stroke-opacity:1"
       id="path6966"
       d="M 45.954473,981.27333 C 56.324126,983.12451 66.230096,985.77622 76.151379,988.28402 C 94.696712,992.89703 112.74532,998.1081 130.61681,1003.5051 C 146.36534,1008.3016 161.84567,1013.3622 177.04881,1018.6946 C 181.6936,1020.3452 186.40193,1021.9319 191.16909,1023.4636 L 169.78754,1031.305 C 165.42783,1029.5574 160.88089,1027.9619 156.59195,1026.1551 C 142.4016,1020.3433 127.61358,1015.0011 112.06924,1010.4316 C 93.901202,1005.1701 75.452863,1000.2101 56.692909,995.66929 C 46.401034,993.25113 36.001241,990.53053 24.863604,989.70005 L 45.954473,981.27333 z" />
    <path
       style="opacity:1;fill:#e5a214;fill-opacity:1;fill-rule:nonzero;stroke:#e1e215;stroke-width:2.83464575;stroke-linecap:butt;stroke-linejoin:miter;stroke-miterlimit:4;stroke-dasharray:none;stroke-dashoffset:0;stroke-opacity:1"
       id="path7740"
       d="M 168.991,950.57954 C 165.94504,954.68548 161.71326,957.73922 157.74914,960.89715 C 151.20112,965.77287 145.19753,971.2931 139.24488,976.86326 C 133.26341,982.54017 127.33357,988.27456 121.60338,994.20591 C 117.76954,998.22956 114.15596,1002.4588 110.73741,1006.8391 C 108.36268,1009.7901 106.20962,1012.8998 104.13272,1016.0639 C 101.91911,1019.8002 99.603449,1023.4618 97.160289,1027.0525 C 94.520289,1030.9469 91.51931,1034.5705 88.542981,1038.2073 C 85.850722,1041.6488 82.880601,1044.8567 80.198544,1048.3048 C 78.33715,1050.5644 76.483069,1052.8303 74.471071,1054.9584 C 73.028067,1056.5409 71.347317,1057.9099 70.010327,1059.5851 C 69.352128,1060.3507 69.666918,1059.9549 69.066413,1060.7728 L 52.369354,1067.8116 C 53.096941,1067.13 52.761477,1067.5202 53.354891,1066.6236 C 55.047955,1064.8232 52.746686,1067.3336 54.510885,1065.1709 C 55.522103,1063.9312 56.962133,1063.0821 57.926319,1061.7866 C 60.113489,1059.8261 61.837103,1057.4457 63.847417,1055.3131 C 66.585089,1051.8218 69.6359,1048.6158 72.345147,1045.1015 C 75.341407,1041.478 78.336032,1037.8529 81.119997,1034.0615 C 83.483259,1030.5169 85.802895,1026.9554 87.850427,1023.2163 C 89.927744,1019.9471 92.1105,1016.75 94.564919,1013.7488 C 98.170679,1009.346 101.70406,1004.8744 105.71569,1000.8207 C 111.51424,994.79635 117.63368,989.08684 123.63965,983.27143 C 129.48358,977.74419 135.26362,972.13255 141.73228,967.32283 C 145.43096,964.36442 149.26542,961.51879 152.39611,957.93464 L 168.991,950.57954 z" />
    <path
       sodipodi:type="arc"
       style="opacity:1;fill:none;fill-opacity:1;fill-rule:nonzero;stroke:#e1e215;stroke-width:2.83464574999999996;stroke-linecap:butt;stroke-linejoin:miter;stroke-miterlimit:4;stroke-dasharray:none;stroke-dashoffset:0;stroke-opacity:1"
       id="path7742"
       sodipodi:cx="184.25197"
       sodipodi:cy="159.44881"
       sodipodi:rx="14.173228"
       sodipodi:ry="60.236221"
       d="M 198.4252,159.44881 A 14.173228,60.236221 0 1 1 170.07874,159.44881 A 14.173228,60.236221 0 1 1 198.4252,159.44881 z"
       transform="translate(-4.149475e-6,698.0315)" />
    <path
       sodipodi:type="arc"
       style="opacity:1;fill:none;fill-opacity:1;fill-rule:nonzero;stroke:#e1e215;stroke-width:2.83464575;stroke-linecap:butt;stroke-linejoin:miter;stroke-miterlimit:4;stroke-dasharray:none;stroke-dashoffset:0;stroke-opacity:1"
       id="path7744"
       sodipodi:cx="159.44882"
       sodipodi:cy="81.496056"
       sodipodi:rx="60.236221"
       sodipodi:ry="10.629924"
       d="M 219.68504,81.496056 A 60.236221,10.629924 0 1 1 99.212601,81.496056 A 60.236221,10.629924 0 1 1 219.68504,81.496056 z"
       transform="translate(-4.149475e-6,698.0315)" />
    <path
       sodipodi:type="arc"
       style="opacity:1;fill:none;fill-opacity:1;fill-rule:nonzero;stroke:#e1e215;stroke-width:2.83464575;stroke-linecap:butt;stroke-linejoin:miter;stroke-miterlimit:4;stroke-dasharray:none;stroke-dashoffset:0;stroke-opacity:1"
       id="path7746"
       sodipodi:cx="49.6063"
       sodipodi:cy="155.9055"
       sodipodi:rx="42.519684"
       sodipodi:ry="14.173228"
       d="M 92.125984,155.9055 A 42.519684,14.173228 0 1 1 7.0866165,155.9055 A 42.519684,14.173228 0 1 1 92.125984,155.9055 z"
       transform="translate(-4.149475e-6,698.0315)" />
    <path
       sodipodi:type="arc"
       style="opacity:1;fill:none;fill-opacity:1;fill-rule:nonzero;stroke:#e1e215;stroke-width:2.83464575;stroke-linecap:butt;stroke-linejoin:miter;stroke-miterlimit:4;stroke-dasharray:none;stroke-dashoffset:0;stroke-opacity:1"
       id="path7748"
       sodipodi:cx="269.29135"
       sodipodi:cy="106.2992"
       sodipodi:rx="42.519684"
       sodipodi:ry="7.0866141"
       d="M 311.81104,106.2992 A 42.519684,7.0866141 0 1 1 226.77167,106.2992 A 42.519684,7.0866141 0 1 1 311.81104,106.2992 z"
       transform="translate(-4.149475e-6,698.0315)" />
    <path
       sodipodi:type="arc"
       style="opacity:1;fill:none;fill-opacity:1;fill-rule:nonzero;stroke:#e1e215;stroke-width:2.83464575;stroke-linecap:butt;stroke-linejoin:miter;stroke-miterlimit:4;stroke-dasharray:none;stroke-dashoffset:0;stroke-opacity:1"
       id="path7750"
       sodipodi:cx="386.22046"
       sodipodi:cy="81.496056"
       sodipodi:rx="60.236221"
       sodipodi:ry="10.629921"
       d="M 446.45668,81.496056 A 60.236221,10.629921 0 1 1 325.98424,81.496056 A 60.236221,10.629921 0 1 1 446.45668,81.496056 z"
       transform="translate(-4.149475e-6,698.0315)" />
    <path
       sodipodi:type="arc"
       style="opacity:1;fill:none;fill-opacity:1;fill-rule:nonzero;stroke:#e1e215;stroke-width:2.83464575;stroke-linecap:butt;stroke-linejoin:miter;stroke-miterlimit:4;stroke-dasharray:none;stroke-dashoffset:0;stroke-opacity:1"
       id="path7752"
       sodipodi:cx="265.74802"
       sodipodi:cy="141.73227"
       sodipodi:rx="38.976379"
       sodipodi:ry="7.0866141"
       d="M 304.7244,141.73227 A 38.976379,7.0866141 0 1 1 226.77164,141.73227 A 38.976379,7.0866141 0 1 1 304.7244,141.73227 z"
       transform="translate(-4.149475e-6,698.0315)" />
    <path
       sodipodi:type="arc"
       style="opacity:1;fill:none;fill-opacity:1;fill-rule:nonzero;stroke:#e1e215;stroke-width:2.83464575;stroke-linecap:butt;stroke-linejoin:miter;stroke-miterlimit:4;stroke-dasharray:none;stroke-dashoffset:0;stroke-opacity:1"
       id="path7754"
       sodipodi:cx="389.76379"
       sodipodi:cy="102.7559"
       sodipodi:rx="63.779526"
       sodipodi:ry="10.629921"
       d="M 453.54332,102.7559 A 63.779526,10.629921 0 1 1 325.98427,102.7559 A 63.779526,10.629921 0 1 1 453.54332,102.7559 z"
       transform="translate(-4.149475e-6,698.0315)" />
    <text
       xml:space="preserve"
       style="font-size:12px;font-style:normal;font-weight:bold;text-align:center;writing-mode:lr-tb;text-anchor:middle;fill:#000000;fill-opacity:1;stroke:none;stroke-width:1px;stroke-linecap:butt;stroke-linejoin:miter;stroke-opacity:1;font-family:Sans;-inkscape-font-specification:Sans"
       x="192.29546"
       y="931.88977"
       id="text7756"><tspan
         sodipodi:role="line"
         id="tspan7758"
         x="192.29546"
         y="931.88977">topics joined</tspan><tspan
         sodipodi:role="line"
         x="192.29546"
         y="946.88977"
         id="tspan7760">due to similarity</tspan></text>
    <text
       xml:space="preserve"
       style="font-size:12px;font-style:normal;font-weight:bold;text-align:center;writing-mode:lr-tb;text-anchor:middle;fill:#000000;fill-opacity:1;stroke:none;stroke-width:1px;stroke-linecap:butt;stroke-linejoin:miter;stroke-opacity:1;font-family:Sans;-inkscape-font-specification:Sans"
       x="369.46082"
       y="825.59052"
       id="text7762"><tspan
         sodipodi:role="line"
         x="369.46082"
         y="825.59052"
         id="tspan7766">2 long trends</tspan><tspan
         sodipodi:role="line"
         x="369.46082"
         y="825.59052"
         id="tspan7770">instead of one</tspan></text>
    <text
       xml:space="preserve"
       style="font-size:24px;font-style:normal;font-weight:bold;writing-mode:lr-tb;fill:#000000;fill-opacity:1;stroke:none;stroke-width:1px;stroke-linecap:butt;stroke-linejoin:miter;stroke-opacity:1;font-family:Sans;-inkscape-font-specification:Sans"
       x="127.55905"
       y="752.56055"
       id="text7772"><tspan
         sodipodi:role="line"
         id="tspan7774"
         x="127.55905"
         y="752.56055"
         style="font-size:14px">MaxDB 7.500 Case Study</tspan></text>
  </g>
</svg>
