<?xml version="1.0" encoding="UTF-8" standalone="no"?>
<!-- Created with Inkscape (http://www.inkscape.org/) -->

<svg
   xmlns:dc="http://purl.org/dc/elements/1.1/"
   xmlns:cc="http://creativecommons.org/ns#"
   xmlns:rdf="http://www.w3.org/1999/02/22-rdf-syntax-ns#"
   xmlns:svg="http://www.w3.org/2000/svg"
   xmlns="http://www.w3.org/2000/svg"
   xmlns:sodipodi="http://sodipodi.sourceforge.net/DTD/sodipodi-0.dtd"
   xmlns:inkscape="http://www.inkscape.org/namespaces/inkscape"
   width="453.5433"
   height="340.15747"
   id="svg2"
   sodipodi:version="0.32"
   inkscape:version="0.48.0 r9654"
   sodipodi:docname="breakdown-of-research.svg"
   version="1.0"
   inkscape:output_extension="org.inkscape.output.svg.inkscape">
  <defs
     id="defs4">
    <inkscape:perspective
       sodipodi:type="inkscape:persp3d"
       inkscape:vp_x="0 : 170.07874 : 1"
       inkscape:vp_y="0 : 1000 : 0"
       inkscape:vp_z="453.5433 : 170.07874 : 1"
       inkscape:persp3d-origin="226.77165 : 113.38582 : 1"
       id="perspective2415" />
  </defs>
  <sodipodi:namedview
     id="base"
     pagecolor="#ffffff"
     bordercolor="#666666"
     borderopacity="1.0"
     gridtolerance="10000"
     guidetolerance="8.8"
     objecttolerance="10"
     inkscape:pageopacity="0.0"
     inkscape:pageshadow="2"
     inkscape:zoom="1.0892718"
     inkscape:cx="173.14152"
     inkscape:cy="152.75195"
     inkscape:document-units="mm"
     inkscape:current-layer="layer1"
     inkscape:window-width="952"
     inkscape:window-height="580"
     inkscape:window-x="960"
     inkscape:window-y="612"
     width="12.8cm"
     height="9.6cm"
     units="mm"
     showgrid="false"
     grid_units="mm"
     inkscape:object-paths="false"
     inkscape:grid-points="true"
     inkscape:grid-bbox="true"
     inkscape:guide-points="true"
     showguides="true"
     inkscape:guide-bbox="true"
     inkscape:window-maximized="0">
    <sodipodi:guide
       orientation="vertical"
       position="35.803735,372.72606"
       id="guide3573" />
    <sodipodi:guide
       orientation="horizontal"
       position="11.035643"
       id="guide3579" />
    <sodipodi:guide
       orientation="horizontal"
       position="24.018753"
       id="guide3886" />
    <sodipodi:guide
       orientation="horizontal"
       position="285.62841"
       id="guide3988" />
    <sodipodi:guide
       orientation="horizontal"
       position="303.15561"
       id="guide4081" />
    <inkscape:grid
       id="GridFromPre046Settings"
       type="xygrid"
       originx="0px"
       originy="0px"
       spacingx="2mm"
       spacingy="2mm"
       color="#0000ff"
       empcolor="#0000ff"
       opacity="0.2"
       empopacity="0.4"
       empspacing="5"
       units="mm"
       visible="true"
       enabled="true"
       snapvisiblegridlinesonly="true" />
  </sodipodi:namedview>
  <metadata
     id="metadata7">
    <rdf:RDF>
      <cc:Work
         rdf:about="">
        <dc:format>image/svg+xml</dc:format>
        <dc:type
           rdf:resource="http://purl.org/dc/dcmitype/StillImage" />
      </cc:Work>
    </rdf:RDF>
  </metadata>
  <g
     inkscape:label="Layer 1"
     inkscape:groupmode="layer"
     id="layer1"
     transform="translate(4.149475e-6,-698.0315)">
    <rect
       style="fill:#ffffb2;fill-opacity:1;fill-rule:evenodd;stroke:none"
       id="rect3635"
       width="106.29921"
       height="248.03149"
       x="141.73228"
       y="56.692905"
       transform="translate(-4.149475e-6,698.0315)" />
    <text
       xml:space="preserve"
       style="font-size:12px;font-style:normal;font-weight:bold;text-align:center;writing-mode:lr-tb;text-anchor:middle;fill:#000000;fill-opacity:1;stroke:none;font-family:Sans;-inkscape-font-specification:Sans"
       x="78.783951"
       y="818.39087"
       id="text2417"><tspan
         sodipodi:role="line"
         id="tspan2419"
         x="78.783951"
         y="818.39087">Release Patterns:</tspan><tspan
         sodipodi:role="line"
         x="78.783951"
         y="833.39087"
         id="tspan2421">Source/Test/</tspan><tspan
         sodipodi:role="line"
         x="78.783951"
         y="848.39087"
         id="tspan2423">Build/Documentation</tspan></text>
    <text
       xml:space="preserve"
       style="font-size:12px;font-style:normal;font-weight:bold;text-align:center;writing-mode:lr-tb;text-anchor:middle;fill:#000000;fill-opacity:1;stroke:none;font-family:Sans;-inkscape-font-specification:Sans"
       x="79.117935"
       y="878.77216"
       id="text2425"><tspan
         sodipodi:role="line"
         x="79.117935"
         y="878.77216"
         id="tspan2431">Topic Analysis</tspan></text>
    <text
       xml:space="preserve"
       style="font-size:12px;font-style:normal;font-weight:bold;text-align:center;writing-mode:lr-tb;text-anchor:middle;fill:#000000;fill-opacity:1;stroke:none;font-family:Sans;-inkscape-font-specification:Sans"
       x="78.596451"
       y="910.62994"
       id="text2438"><tspan
         sodipodi:role="line"
         x="78.596451"
         y="910.62994"
         id="tspan2440">Large Changes</tspan></text>
    <text
       xml:space="preserve"
       style="font-size:12px;font-style:normal;font-weight:bold;text-align:center;writing-mode:lr-tb;text-anchor:middle;fill:#000000;fill-opacity:1;stroke:none;font-family:Sans;-inkscape-font-specification:Sans"
       x="78.819107"
       y="942.48779"
       id="text2442"><tspan
         sodipodi:role="line"
         id="tspan2444"
         x="78.819107"
         y="942.48779">Recovered Unified</tspan><tspan
         sodipodi:role="line"
         x="78.819107"
         y="957.48779"
         id="tspan2446">Process Views</tspan></text>
    <text
       xml:space="preserve"
       style="font-size:12px;font-style:normal;font-weight:bold;writing-mode:lr-tb;fill:#000000;fill-opacity:1;stroke:none;font-family:Sans;-inkscape-font-specification:Sans"
       x="162.99213"
       y="783.89764"
       id="text2448"><tspan
         sodipodi:role="line"
         id="tspan2450"
         x="162.99213"
         y="783.89764">Behaviour</tspan></text>
    <rect
       style="fill:#d7ffb2;fill-opacity:1;fill-rule:evenodd;stroke:none"
       id="rect3637"
       width="106.29921"
       height="248.03149"
       x="238.85104"
       y="754.72443" />
    <text
       xml:space="preserve"
       style="font-size:12px;font-style:normal;font-weight:bold;text-align:center;writing-mode:lr-tb;text-anchor:middle;fill:#000000;fill-opacity:1;stroke:none;font-family:Sans;-inkscape-font-specification:Sans"
       x="292.82419"
       y="776.21307"
       id="text2833"><tspan
         sodipodi:role="line"
         id="tspan2835"
         x="294.91013"
         y="776.21307">Intent, Purpose </tspan><tspan
         sodipodi:role="line"
         x="292.82419"
         y="791.21307"
         id="tspan2837">and Tasks</tspan></text>
    <rect
       style="fill:#b2fff8;fill-opacity:1;fill-rule:evenodd;stroke:none"
       id="rect3639"
       width="106.29921"
       height="248.03149"
       x="345.15027"
       y="754.72443" />
    <text
       xml:space="preserve"
       style="font-size:12px;font-style:normal;font-weight:bold;text-align:center;writing-mode:lr-tb;text-anchor:middle;fill:#000000;fill-opacity:1;stroke:none;font-family:Sans;-inkscape-font-specification:Sans"
       x="399.06644"
       y="768.89764"
       id="text2839"><tspan
         sodipodi:role="line"
         id="tspan2841"
         x="399.06644"
         y="768.89764">Software</tspan><tspan
         sodipodi:role="line"
         x="399.06644"
         y="783.89764"
         id="tspan2843">Development</tspan><tspan
         sodipodi:role="line"
         x="399.06644"
         y="798.89764"
         id="tspan2845">Process</tspan></text>
    <path
       style="fill:#00ff00;fill-opacity:1;fill-rule:nonzero;stroke:none"
       id="path2847"
       d="m 167.10108,837.01423 c 1.11123,-1.56166 1.85765,-3.37781 2.59829,-5.13939 0.1752,-0.0695 0.95675,-2.88465 1.08535,-2.95114 10.12669,-5.23567 8.42013,-8.10792 10.38965,-3.928 0.79019,2.67096 1.40796,5.38971 2.05754,8.09743 0.54667,2.31688 1.20282,4.66995 2.58211,6.65038 0.26606,0.38202 0.58632,0.72329 0.87947,1.08493 1.55845,1.48489 3.67782,2.99703 5.97268,2.44642 0.45969,-0.11029 0.87728,-0.35251 1.31592,-0.52877 -2.48072,1.37779 -4.86294,2.95016 -7.44214,4.13337 -0.82686,0.37931 1.4679,-1.08136 2.13573,-1.69907 0.87379,-0.80823 1.7054,-1.66545 2.47938,-2.56973 3.32208,-3.88132 5.83723,-8.33264 8.44708,-12.6973 4.50603,-7.89398 8.49403,-16.07004 12.02032,-24.44412 l 8.79176,-4.02062 c -3.97741,8.31144 -7.96753,16.62329 -12.38086,24.71487 -2.42482,4.27615 -4.73503,8.67488 -7.71969,12.60093 -0.47789,0.6286 -3.08681,3.76156 -4.02644,4.35171 -3.47193,2.18057 -7.12381,4.06056 -10.68571,6.09083 -0.51208,0.10173 -1.0152,0.27222 -1.53624,0.3052 -2.54698,0.16122 -4.75624,-1.5851 -6.45999,-3.25231 -0.31819,-0.40311 -0.66308,-0.78652 -0.95459,-1.20933 -1.43102,-2.0756 -2.15832,-4.50407 -2.74091,-6.92711 -0.62748,-2.60523 -1.13016,-5.26523 -2.16636,-7.74831 -2.0857,-3.31303 -0.10926,0.0313 9.26188,-5.38933 0.13385,-0.0774 -0.31854,-0.15307 -0.45638,-0.083 -0.61634,0.31326 -0.74001,1.99916 -1.14749,2.49884 -0.72049,1.76968 -1.50705,3.51091 -2.23609,5.27556 l -10.06427,4.33707 z"
       inkscape:connector-curvature="0" />
    <path
       style="fill:#00ff00;fill-opacity:1;fill-rule:nonzero;stroke:none"
       id="path3619"
       d="m 368.60387,837.60908 c 1.11123,-1.56166 1.85765,-3.37781 2.59829,-5.13939 0.1752,-0.0695 0.95675,-2.88465 1.08535,-2.95114 10.12669,-5.23567 8.42013,-8.10792 10.38965,-3.928 0.79019,2.67096 1.40796,5.38971 2.05754,8.09743 0.54667,2.31688 1.20282,4.66995 2.58211,6.65038 0.26606,0.38202 0.58632,0.72329 0.87947,1.08493 1.55845,1.48489 3.67782,2.99703 5.97268,2.44642 0.45969,-0.11029 0.87728,-0.35251 1.31592,-0.52877 -2.48072,1.37779 -4.86294,2.95016 -7.44214,4.13337 -0.82686,0.37931 1.4679,-1.08136 2.13573,-1.69907 0.87379,-0.80823 1.7054,-1.66545 2.47938,-2.56973 3.32208,-3.88132 5.83723,-8.33264 8.44708,-12.6973 4.50603,-7.89398 8.49403,-16.07004 12.02032,-24.44412 l 8.79176,-4.02062 c -3.97741,8.31144 -7.96753,16.62329 -12.38086,24.71487 -2.42482,4.27615 -4.73503,8.67488 -7.71969,12.60093 -0.47789,0.6286 -3.08681,3.76156 -4.02644,4.35171 -3.47193,2.18057 -7.12381,4.06056 -10.68571,6.09083 -0.51208,0.10173 -1.0152,0.27222 -1.53624,0.3052 -2.54698,0.16122 -4.75624,-1.5851 -6.45999,-3.25231 -0.31819,-0.40311 -0.66308,-0.78652 -0.95459,-1.20933 -1.43102,-2.0756 -2.15832,-4.50407 -2.74091,-6.92711 -0.62748,-2.60523 -1.13016,-5.26523 -2.16636,-7.74831 -2.0857,-3.31303 -0.10926,0.0313 9.26188,-5.38933 0.13385,-0.0774 -0.31854,-0.15307 -0.45638,-0.083 -0.61634,0.31326 -0.74001,1.99916 -1.14749,2.49884 -0.72049,1.76968 -1.50705,3.51091 -2.23609,5.27556 l -10.06427,4.33707 z"
       inkscape:connector-curvature="0" />
    <path
       style="fill:#00ff00;fill-opacity:1;fill-rule:nonzero;stroke:none"
       id="path3621"
       d="m 266.31368,872.4473 c 1.11123,-1.56166 1.85765,-3.37781 2.59829,-5.13939 0.1752,-0.0695 0.95675,-2.88465 1.08535,-2.95114 10.12669,-5.23567 8.42013,-8.10792 10.38965,-3.928 0.79019,2.67096 1.40796,5.38971 2.05754,8.09743 0.54667,2.31688 1.20282,4.66995 2.58211,6.65038 0.26606,0.38202 0.58632,0.72329 0.87947,1.08493 1.55845,1.48489 3.67782,2.99703 5.97268,2.44642 0.45969,-0.11029 0.87728,-0.35251 1.31592,-0.52877 -2.48072,1.37779 -4.86294,2.95016 -7.44214,4.13337 -0.82686,0.37931 1.4679,-1.08136 2.13573,-1.69907 0.87379,-0.80823 1.7054,-1.66545 2.47938,-2.56973 3.32208,-3.88132 5.83723,-8.33264 8.44708,-12.6973 4.50603,-7.89398 8.49403,-16.07004 12.02032,-24.44412 l 8.79176,-4.02062 c -3.97741,8.31144 -7.96753,16.62329 -12.38086,24.71487 -2.42482,4.27615 -4.73503,8.67488 -7.71969,12.60093 -0.47789,0.6286 -3.08681,3.76156 -4.02644,4.35171 -3.47193,2.18057 -7.12381,4.06056 -10.68571,6.09083 -0.51208,0.10173 -1.0152,0.27222 -1.53624,0.3052 -2.54698,0.16122 -4.75624,-1.5851 -6.45999,-3.25231 -0.31819,-0.40311 -0.66308,-0.78652 -0.95459,-1.20933 -1.43102,-2.0756 -2.15832,-4.50407 -2.74091,-6.92711 -0.62748,-2.60523 -1.13016,-5.26523 -2.16636,-7.74831 -2.0857,-3.31303 -0.10926,0.0313 9.26188,-5.38933 0.13385,-0.0774 -0.31854,-0.15307 -0.45638,-0.083 -0.61634,0.31326 -0.74001,1.99916 -1.14749,2.49884 -0.72049,1.76968 -1.50705,3.51091 -2.23609,5.27556 l -10.06427,4.33707 z"
       inkscape:connector-curvature="0" />
    <path
       style="fill:#00ff00;fill-opacity:1;fill-rule:nonzero;stroke:none"
       id="path3623"
       d="m 267.28964,913.82845 c 1.11123,-1.56166 1.85765,-3.37781 2.59829,-5.13939 0.1752,-0.0695 0.95675,-2.88465 1.08535,-2.95114 10.12669,-5.23567 8.42013,-8.10792 10.38965,-3.928 0.79019,2.67096 1.40796,5.38971 2.05754,8.09743 0.54667,2.31688 1.20282,4.66995 2.58211,6.65038 0.26606,0.38202 0.58632,0.72329 0.87947,1.08493 1.55845,1.48489 3.67782,2.99703 5.97268,2.44642 0.45969,-0.11029 0.87728,-0.35251 1.31592,-0.52877 -2.48072,1.37779 -4.86294,2.95016 -7.44214,4.13337 -0.82686,0.37931 1.4679,-1.08136 2.13573,-1.69907 0.87379,-0.80823 1.7054,-1.66545 2.47938,-2.56973 3.32208,-3.88132 5.83723,-8.33264 8.44708,-12.6973 4.50603,-7.89398 8.49403,-16.07004 12.02032,-24.44412 l 8.79176,-4.02062 c -3.97741,8.31144 -7.96753,16.62329 -12.38086,24.71487 -2.42482,4.27615 -4.73503,8.67488 -7.71969,12.60093 -0.47789,0.6286 -3.08681,3.76156 -4.02644,4.35171 -3.47193,2.18057 -7.12381,4.06056 -10.68571,6.09083 -0.51208,0.10173 -1.0152,0.27222 -1.53624,0.3052 -2.54698,0.16122 -4.75624,-1.5851 -6.45999,-3.25231 -0.31819,-0.40311 -0.66308,-0.78652 -0.95459,-1.20933 -1.43102,-2.0756 -2.15832,-4.50407 -2.74091,-6.92711 -0.62748,-2.60523 -1.13016,-5.26523 -2.16636,-7.74831 -2.0857,-3.31303 -0.10926,0.0313 9.26188,-5.38933 0.13385,-0.0774 -0.31854,-0.15307 -0.45638,-0.083 -0.61634,0.31326 -0.74001,1.99916 -1.14749,2.49884 -0.72049,1.76968 -1.50705,3.51091 -2.23609,5.27556 l -10.06427,4.33707 z"
       inkscape:connector-curvature="0" />
    <path
       style="fill:#00ff00;fill-opacity:1;fill-rule:nonzero;stroke:none"
       id="path3625"
       d="m 371.88371,946.19553 c 1.11123,-1.56166 1.85765,-3.37781 2.59829,-5.13939 0.1752,-0.0695 0.95675,-2.88465 1.08535,-2.95114 10.12669,-5.23567 8.42013,-8.10792 10.38965,-3.928 0.79019,2.67096 1.40796,5.38971 2.05754,8.09743 0.54667,2.31688 1.20282,4.66995 2.58211,6.65038 0.26606,0.38202 0.58632,0.72329 0.87947,1.08493 1.55845,1.48489 3.67782,2.99703 5.97268,2.44642 0.45969,-0.11029 0.87728,-0.35251 1.31592,-0.52877 -2.48072,1.37779 -4.86294,2.95016 -7.44214,4.13337 -0.82686,0.37931 1.4679,-1.08136 2.13573,-1.69907 0.87379,-0.80823 1.7054,-1.66545 2.47938,-2.56973 3.32208,-3.88132 5.83723,-8.33264 8.44708,-12.6973 4.50603,-7.89398 8.49403,-16.07004 12.02032,-24.44412 l 8.79176,-4.02062 c -3.97741,8.31144 -7.96753,16.62329 -12.38086,24.71487 -2.42482,4.27615 -4.73503,8.67488 -7.71969,12.60093 -0.47789,0.6286 -3.08681,3.76156 -4.02644,4.35171 -3.47193,2.18057 -7.12381,4.06056 -10.68571,6.09083 -0.51208,0.10173 -1.0152,0.27222 -1.53624,0.3052 -2.54698,0.16122 -4.75624,-1.5851 -6.45999,-3.25231 -0.31819,-0.40311 -0.66308,-0.78652 -0.95459,-1.20933 -1.43102,-2.0756 -2.15832,-4.50407 -2.74091,-6.92711 -0.62748,-2.60523 -1.13016,-5.26523 -2.16636,-7.74831 -2.0857,-3.31303 -0.10926,0.0313 9.26188,-5.38933 0.13385,-0.0774 -0.31854,-0.15307 -0.45638,-0.083 -0.61634,0.31326 -0.74001,1.99916 -1.14749,2.49884 -0.72049,1.76968 -1.50705,3.51091 -2.23609,5.27556 l -10.06427,4.33707 z"
       inkscape:connector-curvature="0" />
    <text
       xml:space="preserve"
       style="font-size:12px;font-style:normal;font-weight:bold;writing-mode:lr-tb;fill:#000000;fill-opacity:1;stroke:none;font-family:Sans;-inkscape-font-specification:Sans"
       x="117.04044"
       y="1062.3191"
       id="text3627"><tspan
         sodipodi:role="line"
         id="tspan3629"
         x="117.04044"
         y="1062.3191">Check thesis regarding this make up</tspan></text>
    <path
       style="fill:#00ff00;fill-opacity:1;fill-rule:nonzero;stroke:none"
       id="path3631"
       d="m 167.10108,872.4473 c 1.11123,-1.56166 1.85765,-3.37781 2.59829,-5.13939 0.1752,-0.0695 0.95675,-2.88465 1.08535,-2.95114 10.12669,-5.23567 8.42013,-8.10792 10.38965,-3.928 0.79019,2.67096 1.40796,5.38971 2.05754,8.09743 0.54667,2.31688 1.20282,4.66995 2.58211,6.65038 0.26606,0.38202 0.58632,0.72329 0.87947,1.08493 1.55845,1.48489 3.67782,2.99703 5.97268,2.44642 0.45969,-0.11029 0.87728,-0.35251 1.31592,-0.52877 -2.48072,1.37779 -4.86294,2.95016 -7.44214,4.13337 -0.82686,0.37931 1.4679,-1.08136 2.13573,-1.69907 0.87379,-0.80823 1.7054,-1.66545 2.47938,-2.56973 3.32208,-3.88132 5.83723,-8.33264 8.44708,-12.6973 4.50603,-7.89398 8.49403,-16.07004 12.02032,-24.44412 l 8.79176,-4.02062 c -3.97741,8.31144 -7.96753,16.62329 -12.38086,24.71487 -2.42482,4.27615 -4.73503,8.67488 -7.71969,12.60093 -0.47789,0.6286 -3.08681,3.76156 -4.02644,4.35171 -3.47193,2.18057 -7.12381,4.06056 -10.68571,6.09083 -0.51208,0.10173 -1.0152,0.27222 -1.53624,0.3052 -2.54698,0.16122 -4.75624,-1.5851 -6.45999,-3.25231 -0.31819,-0.40311 -0.66308,-0.78652 -0.95459,-1.20933 -1.43102,-2.0756 -2.15832,-4.50407 -2.74091,-6.92711 -0.62748,-2.60523 -1.13016,-5.26523 -2.16636,-7.74831 -2.0857,-3.31303 -0.10926,0.0313 9.26188,-5.38933 0.13385,-0.0774 -0.31854,-0.15307 -0.45638,-0.083 -0.61634,0.31326 -0.74001,1.99916 -1.14749,2.49884 -0.72049,1.76968 -1.50705,3.51091 -2.23609,5.27556 l -10.06427,4.33707 z"
       inkscape:connector-curvature="0" />
    <text
       xml:space="preserve"
       style="font-size:28px;font-style:normal;font-weight:bold;writing-mode:lr-tb;fill:#000000;fill-opacity:1;stroke:none;font-family:Sans;-inkscape-font-specification:Sans"
       x="35.80373"
       y="735.03339"
       id="text3661"><tspan
         sodipodi:role="line"
         id="tspan3663"
         x="35.80373"
         y="735.03339">Research Relationships</tspan></text>
  </g>
</svg>
