<?xml version="1.0" encoding="UTF-8" standalone="no"?>
<!-- Created with Inkscape (http://www.inkscape.org/) -->
<svg
   xmlns:dc="http://purl.org/dc/elements/1.1/"
   xmlns:cc="http://creativecommons.org/ns#"
   xmlns:rdf="http://www.w3.org/1999/02/22-rdf-syntax-ns#"
   xmlns:svg="http://www.w3.org/2000/svg"
   xmlns="http://www.w3.org/2000/svg"
   xmlns:sodipodi="http://sodipodi.sourceforge.net/DTD/sodipodi-0.dtd"
   xmlns:inkscape="http://www.inkscape.org/namespaces/inkscape"
   width="453.5433"
   height="340.15747"
   id="svg2"
   sodipodi:version="0.32"
   inkscape:version="0.46"
   sodipodi:docname="extraction-traceability.svg"
   version="1.0"
   inkscape:output_extension="org.inkscape.output.svg.inkscape">
  <defs
     id="defs4">
    <inkscape:perspective
       sodipodi:type="inkscape:persp3d"
       inkscape:vp_x="0 : 170.07874 : 1"
       inkscape:vp_y="0 : 1000 : 0"
       inkscape:vp_z="453.5433 : 170.07874 : 1"
       inkscape:persp3d-origin="226.77165 : 113.38582 : 1"
       id="perspective21013" />
  </defs>
  <sodipodi:namedview
     id="base"
     pagecolor="#ffffff"
     bordercolor="#666666"
     borderopacity="1.0"
     gridtolerance="10000"
     guidetolerance="8.8"
     objecttolerance="10"
     inkscape:pageopacity="0.0"
     inkscape:pageshadow="2"
     inkscape:zoom="1.5829691"
     inkscape:cx="329.28307"
     inkscape:cy="163.69144"
     inkscape:document-units="mm"
     inkscape:current-layer="layer1"
     inkscape:window-width="1024"
     inkscape:window-height="768"
     inkscape:window-x="0"
     inkscape:window-y="0"
     width="12.8cm"
     height="9.6cm"
     units="cm"
     showgrid="false"
     grid_units="mm"
     inkscape:object-paths="false"
     inkscape:grid-points="true"
     inkscape:grid-bbox="true"
     inkscape:guide-points="true"
     showguides="true"
     inkscape:guide-bbox="true">
    <sodipodi:guide
       orientation="vertical"
       position="56.476527"
       id="guide3573" />
    <sodipodi:guide
       orientation="horizontal"
       position="11.035643"
       id="guide3579" />
    <sodipodi:guide
       orientation="horizontal"
       position="24.018753"
       id="guide3886" />
    <sodipodi:guide
       orientation="horizontal"
       position="317.43703,-15.579732"
       id="guide3988" />
    <sodipodi:guide
       orientation="horizontal"
       position="388.33282,-59.672892"
       id="guide4081" />
    <inkscape:grid
       id="GridFromPre046Settings"
       type="xygrid"
       originx="0px"
       originy="0px"
       spacingx="2mm"
       spacingy="2mm"
       color="#0000ff"
       empcolor="#0000ff"
       opacity="0.2"
       empopacity="0.4"
       empspacing="5" />
  </sodipodi:namedview>
  <metadata
     id="metadata7">
    <rdf:RDF>
      <cc:Work
         rdf:about="">
        <dc:format>image/svg+xml</dc:format>
        <dc:type
           rdf:resource="http://purl.org/dc/dcmitype/StillImage" />
      </cc:Work>
    </rdf:RDF>
  </metadata>
  <g
     inkscape:label="Layer 1"
     inkscape:groupmode="layer"
     id="layer1"
     transform="translate(4.149475e-6,-698.0315)">
    <g
       id="g11227"
       transform="translate(-132.69684,192.7922)">
      <g
         inkscape:export-ydpi="33.007736"
         inkscape:export-xdpi="33.007736"
         inkscape:export-filename="/home/abez/clip-art-so-far.png"
         transform="matrix(0.3221188,0,0,0.3221188,344.66713,534.28261)"
         style="fill:#0000ff"
         id="g3443">
        <g
           style="fill:#0000ff"
           id="g3439"
           transform="translate(0,-80.012817)">
          <path
             id="rect3424"
             d="M -520,692.375 L -520,852.375 C -520,879.975 -470.72,902.375 -410,902.375 C -349.28,902.375 -300,879.975 -300,852.375 L -300,692.375 L -520,692.375 z"
             style="fill:#0000ff;fill-opacity:1;stroke:#ffffff;stroke-width:10;stroke-miterlimit:4;stroke-dasharray:none;stroke-dashoffset:0;stroke-opacity:1" />
          <path
             transform="translate(0,70)"
             d="M -300,622.36218 A 110,50 0 1 1 -520,622.36218 A 110,50 0 1 1 -300,622.36218 z"
             sodipodi:ry="50"
             sodipodi:rx="110"
             sodipodi:cy="622.36218"
             sodipodi:cx="-410"
             id="path3422"
             style="fill:#0000ff;fill-opacity:1;stroke:#ffffff;stroke-width:10;stroke-miterlimit:4;stroke-dasharray:none;stroke-dashoffset:0;stroke-opacity:1"
             sodipodi:type="arc" />
        </g>
      </g>
      <text
         transform="scale(0.7474952,1.3378012)"
         id="text10910"
         y="572.19501"
         x="283.33987"
         style="font-size:14.94990349px;font-style:normal;font-weight:bold;text-align:center;text-anchor:middle;fill:#ffffff;fill-opacity:1;stroke:none;stroke-width:1px;stroke-linecap:butt;stroke-linejoin:miter;stroke-opacity:1;font-family:Bitstream Vera Sans;-inkscape-font-specification:Bitstream Vera Sans Bold"
         xml:space="preserve"><tspan
           y="572.19501"
           x="283.33987"
           id="tspan10912"
           sodipodi:role="line">Version</tspan><tspan
           id="tspan10914"
           y="590.88239"
           x="283.33987"
           sodipodi:role="line">Control</tspan></text>
    </g>
    <g
       inkscape:export-ydpi="33.007736"
       inkscape:export-xdpi="33.007736"
       inkscape:export-filename="/home/abez/clip-art-so-far.png"
       transform="matrix(-0.1647795,0,0,0.1647795,412.55224,1042.9673)"
       id="g10977">
      <path
         style="fill:#404aec;fill-opacity:1;fill-rule:evenodd;stroke:#000000;stroke-width:1px;stroke-linecap:butt;stroke-linejoin:miter;stroke-opacity:1"
         d="M 480,-447.63782 C 480,-447.63782 585.98508,-849.6826 720,-447.63782 C 740,-387.63782 460,-387.63782 480,-447.63782 z"
         id="path10979"
         sodipodi:nodetypes="csc" />
      <path
         sodipodi:type="arc"
         style="fill:#e98732;fill-opacity:1;stroke:#000000;stroke-width:2;stroke-miterlimit:4;stroke-dasharray:none;stroke-dashoffset:0;stroke-opacity:1"
         id="path10981"
         sodipodi:cx="20"
         sodipodi:cy="-407.63782"
         sodipodi:rx="80"
         sodipodi:ry="80"
         d="M 100,-407.63782 A 80,80 0 1 1 -60,-407.63782 A 80,80 0 1 1 100,-407.63782 z"
         transform="translate(580,-220)" />
      <path
         style="fill:#000000;fill-rule:evenodd;stroke:#000000;stroke-width:1px;stroke-linecap:butt;stroke-linejoin:miter;stroke-opacity:1"
         d="M 640,-747.63782 C 607.01397,-749.7842 560,-738.08502 560,-707.63782 C 560,-700.97115 546.66667,-707.63782 540,-707.63782 C 465.81162,-707.63782 594.18838,-687.63782 520,-687.63782 C 451.56966,-687.63782 568.43034,-667.63782 500,-667.63782 C 486.66667,-667.63782 500,-640.97115 500,-627.63782 C 500,-607.63782 540,-627.63782 560,-627.63782 C 634.16223,-627.63782 505.83777,-647.63782 580,-647.63782 C 580,-674.30448 573.33333,-667.63782 600,-667.63782 C 606.66667,-667.63782 600,-680.97115 600,-687.63782 C 600,-700.97115 626.66667,-687.63782 640,-687.63782 C 663.74196,-687.63782 676.97077,-747.63782 640,-747.63782 z"
         id="path10983" />
    </g>
    <g
       id="g16492"
       transform="translate(98.29398,351.06324)">
      <path
         id="path16438"
         d="M 93.047115,620.47873 C 91.329753,618.01315 85.003124,613.35278 82.030582,610.38024 C 78.688053,607.03771 70.447687,606.84965 67.34187,607.62611 C 62.408085,608.85955 59.006786,613.23128 56.325336,616.80655 C 53.34334,620.78255 53.95915,627.18934 52.653158,632.41331 C 51.032052,638.89773 54.410723,642.35475 56.325336,646.18397 C 58.069634,649.67257 63.4321,650.6554 67.34187,652.61029 C 71.90478,654.89174 78.060519,650.84867 82.030582,649.85615 C 87.769234,648.42149 91.18808,647.09055 96.719293,649.85615 C 106.98803,654.99052 111.75194,657.48756 121.50649,652.61029 C 126.21939,650.25384 128.30045,648.93811 133.44107,648.93811 C 134.49776,648.93811 140.56054,654.33393 142.62152,655.36442 C 147.87727,657.9923 149.36925,659.64477 155.47414,658.11855 C 160.26162,656.92168 163.47942,652.86741 165.57263,650.7742 C 168.45467,647.89216 169.17625,645.54018 170.16285,641.59375 C 170.99637,638.25967 167.10903,631.21456 166.49068,628.74113 C 165.5788,625.09363 162.38314,621.44411 160.98241,618.64264 C 159.76827,616.21436 154.26166,612.22501 151.80196,610.38024 C 148.2969,607.75144 145.15374,605.96405 140.78543,604.87197 C 137.09601,603.94962 132.35778,603.76573 127.93281,604.87197 C 119.54425,606.96911 109.24106,603.43096 109.24106,614.05242 C 109.24106,626.55974 92.189871,617.04975 93.96516,624.15091"
         style="fill:#ffff00;fill-rule:evenodd;stroke:#000000;stroke-width:1px;stroke-linecap:butt;stroke-linejoin:miter;stroke-opacity:1" />
      <g
         transform="matrix(8.1393393e-2,0,0,8.1393393e-2,170.29972,563.06044)"
         id="g16335">
        <g
           id="g16337"
           transform="translate(-518.57143,65.714286)">
          <path
             transform="translate(58.389218,829.44544)"
             d="M 344.28572,56.647896 L 166.51272,55.437218 L -6.219758,53.29804 L 83.715219,-100.05255 L 171.93404,-248.57368 L 259.77206,-94.012408 L 344.28572,56.647896 z"
             inkscape:randomized="0"
             inkscape:rounded="0"
             inkscape:flatsided="false"
             sodipodi:arg2="1.6050908"
             sodipodi:arg1="0.5331557"
             sodipodi:r2="101.70627"
             sodipodi:r1="202.37367"
             sodipodi:cy="-46.209248"
             sodipodi:cx="170"
             sodipodi:sides="3"
             id="path16339"
             style="fill:#000000;stroke-width:5;stroke-miterlimit:4;stroke-dasharray:none"
             sodipodi:type="star" />
          <path
             transform="matrix(0.7800193,0,0,0.7800193,99.416579,818.80339)"
             d="M 344.28572,56.647896 L 166.51272,55.437218 L -6.219758,53.29804 L 83.715219,-100.05255 L 171.93404,-248.57368 L 259.77206,-94.012408 L 344.28572,56.647896 z"
             inkscape:randomized="0"
             inkscape:rounded="0"
             inkscape:flatsided="false"
             sodipodi:arg2="1.6050908"
             sodipodi:arg1="0.5331557"
             sodipodi:r2="101.70627"
             sodipodi:r1="202.37367"
             sodipodi:cy="-46.209248"
             sodipodi:cx="170"
             sodipodi:sides="3"
             id="path16341"
             style="fill:#ff0000;stroke-width:5;stroke-miterlimit:4;stroke-dasharray:none"
             sodipodi:type="star" />
          <path
             d="M 57.980037,905.58441 C 94.025089,907.33981 130.12003,907.78139 166.19739,908.4049 C 250.4897,911.65825 334.80227,914.04033 419.15102,915.04281 L 410.91813,920.99547 C 326.25121,918.07788 241.54946,915.74274 156.83048,915.21035 C 118.16504,915.84825 79.486769,916.3421 40.848979,918.03085 L 57.980037,905.58441 z"
             id="path16343"
             style="fill:#ff0000;stroke-width:5;stroke-miterlimit:4;stroke-dasharray:none" />
        </g>
      </g>
      <g
         transform="matrix(8.1393393e-2,0,0,8.1393393e-2,57.540953,564.73423)"
         id="g16345">
        <g
           id="g16347">
          <path
             transform="translate(28.389222,872.30258)"
             d="M 344.28572,56.647896 L 166.51272,55.437218 L -6.219758,53.29804 L 83.715219,-100.05255 L 171.93404,-248.57368 L 259.77206,-94.012408 L 344.28572,56.647896 z"
             inkscape:randomized="0"
             inkscape:rounded="0"
             inkscape:flatsided="false"
             sodipodi:arg2="1.6050908"
             sodipodi:arg1="0.5331557"
             sodipodi:r2="101.70627"
             sodipodi:r1="202.37367"
             sodipodi:cy="-46.209248"
             sodipodi:cx="170"
             sodipodi:sides="3"
             id="path16349"
             style="fill:#000000;stroke-width:5;stroke-miterlimit:4;stroke-dasharray:none"
             sodipodi:type="star" />
          <path
             transform="matrix(0.7800193,0,0,0.7800193,69.416582,861.66053)"
             d="M 344.28572,56.647896 L 166.51272,55.437218 L -6.219758,53.29804 L 83.715219,-100.05255 L 171.93404,-248.57368 L 259.77206,-94.012408 L 344.28572,56.647896 z"
             inkscape:randomized="0"
             inkscape:rounded="0"
             inkscape:flatsided="false"
             sodipodi:arg2="1.6050908"
             sodipodi:arg1="0.5331557"
             sodipodi:r2="101.70627"
             sodipodi:r1="202.37367"
             sodipodi:cy="-46.209248"
             sodipodi:cx="170"
             sodipodi:sides="3"
             id="path16351"
             style="fill:#0000ff;stroke-width:5;stroke-miterlimit:4;stroke-dasharray:none"
             sodipodi:type="star" />
          <path
             d="M 27.980042,948.44155 C 64.025092,950.1969 100.12003,950.6385 136.19739,951.262 C 220.4897,954.5154 304.80227,956.8975 389.15102,957.8999 L 380.91813,963.8526 C 296.25121,960.935 211.54946,958.5999 126.83048,958.0675 C 88.165042,958.7054 49.486772,959.1992 10.848982,960.888 L 27.980042,948.44155 z"
             id="path16353"
             style="fill:#0000ff;stroke-width:5;stroke-miterlimit:4;stroke-dasharray:none" />
        </g>
      </g>
      <g
         transform="matrix(8.1393393e-2,0,0,8.1393393e-2,56.517753,567.9666)"
         id="g16355">
        <g
           id="g16357"
           transform="translate(2.8571414,-8.5714286)">
          <path
             transform="translate(478.38922,853.73116)"
             d="M 344.28572,56.647896 L 166.51272,55.437218 L -6.219758,53.29804 L 83.715219,-100.05255 L 171.93404,-248.57368 L 259.77206,-94.012408 L 344.28572,56.647896 z"
             inkscape:randomized="0"
             inkscape:rounded="0"
             inkscape:flatsided="false"
             sodipodi:arg2="1.6050908"
             sodipodi:arg1="0.5331557"
             sodipodi:r2="101.70627"
             sodipodi:r1="202.37367"
             sodipodi:cy="-46.209248"
             sodipodi:cx="170"
             sodipodi:sides="3"
             id="path16359"
             style="fill:#000000;stroke-width:5;stroke-miterlimit:4;stroke-dasharray:none"
             sodipodi:type="star" />
          <path
             transform="matrix(0.7800193,0,0,0.7800193,519.41658,843.08911)"
             d="M 344.28572,56.647896 L 166.51272,55.437218 L -6.219758,53.29804 L 83.715219,-100.05255 L 171.93404,-248.57368 L 259.77206,-94.012408 L 344.28572,56.647896 z"
             inkscape:randomized="0"
             inkscape:rounded="0"
             inkscape:flatsided="false"
             sodipodi:arg2="1.6050908"
             sodipodi:arg1="0.5331557"
             sodipodi:r2="101.70627"
             sodipodi:r1="202.37367"
             sodipodi:cy="-46.209248"
             sodipodi:cx="170"
             sodipodi:sides="3"
             id="path16361"
             style="fill:#00ff00;stroke-width:5;stroke-miterlimit:4;stroke-dasharray:none"
             sodipodi:type="star" />
          <path
             d="M 477.98004,929.87013 C 514.02509,931.62548 550.12003,932.06708 586.19739,932.69058 C 670.4897,935.94398 754.80227,938.32608 839.15102,939.32848 L 830.91813,945.28118 C 746.25121,942.36358 661.54946,940.02848 576.83048,939.49608 C 538.16504,940.13398 499.48677,940.62778 460.84898,942.31658 L 477.98004,929.87013 z"
             id="path16363"
             style="fill:#00ff00;stroke-width:5;stroke-miterlimit:4;stroke-dasharray:none" />
        </g>
      </g>
      <text
         id="text16373"
         y="676.09009"
         x="63.869781"
         style="font-size:20px;font-style:normal;font-weight:normal;fill:#000000;fill-opacity:1;stroke:none;stroke-width:1px;stroke-linecap:butt;stroke-linejoin:miter;stroke-opacity:1;font-family:Bitstream Vera Sans"
         xml:space="preserve"><tspan
           y="676.09009"
           x="63.869781"
           id="tspan16375"
           sodipodi:role="line">Commits</tspan></text>
      <g
         transform="translate(130.68694,58.754847)"
         id="g16474">
        <path
           style="fill:#ff00ff;fill-rule:evenodd;stroke:#000000;stroke-width:1px;stroke-linecap:butt;stroke-linejoin:miter;stroke-opacity:1"
           d="M -2.9094862,514.07437 C -1.1921242,511.60879 5.1345048,506.94842 8.1070468,503.97588 C 11.449576,500.63335 19.689942,500.44529 22.795759,501.22175 C 27.729544,502.45519 31.130843,506.82692 33.812293,510.40219 C 36.794289,514.37819 36.178479,520.78498 37.484471,526.00895 C 39.105577,532.49337 35.726906,535.95039 33.812293,539.77961 C 32.067995,543.26821 26.705529,544.25104 22.795759,546.20593 C 18.232849,548.48738 12.07711,544.44431 8.1070468,543.45179 C 2.3683948,542.01713 -1.0504512,540.68619 -6.5816642,543.45179 C -16.850401,548.58616 -21.614311,551.0832 -31.368865,546.20593 C -36.081765,543.84948 -38.162816,542.53375 -43.303444,542.53375 C -44.360128,542.53375 -50.422915,547.92957 -52.483889,548.96006 C -57.739642,551.58794 -59.231621,553.24041 -65.336512,551.71419 C -70.123992,550.51732 -73.341792,546.46305 -75.435002,544.36984 C -78.317042,541.4878 -79.038622,539.13582 -80.025222,535.18939 C -80.858742,531.85531 -76.971402,524.8102 -76.353052,522.33677 C -75.441172,518.68927 -72.245512,515.03975 -70.844782,512.23828 C -69.630642,509.81 -64.124032,505.82065 -61.66433,503.97588 C -58.159271,501.34708 -55.016113,499.55969 -50.6478,498.46761 C -46.958384,497.54526 -42.220148,497.36137 -37.795177,498.46761 C -29.40662,500.56475 -19.103433,497.0266 -19.103433,507.64806 C -19.103433,520.15538 -2.0522422,510.64539 -3.8275312,517.74655"
           id="path16442" />
        <g
           id="g16444"
           transform="matrix(-8.1393393e-2,0,0,8.1393393e-2,-78.326003,454.81999)">
          <g
             transform="translate(-518.57143,65.714286)"
             id="g16446">
            <path
               sodipodi:type="star"
               style="fill:#000000;stroke-width:5;stroke-miterlimit:4;stroke-dasharray:none"
               id="path16448"
               sodipodi:sides="3"
               sodipodi:cx="170"
               sodipodi:cy="-46.209248"
               sodipodi:r1="202.37367"
               sodipodi:r2="101.70627"
               sodipodi:arg1="0.5331557"
               sodipodi:arg2="1.6050908"
               inkscape:flatsided="false"
               inkscape:rounded="0"
               inkscape:randomized="0"
               d="M 344.28572,56.647896 L 166.51272,55.437218 L -6.219758,53.29804 L 83.715219,-100.05255 L 171.93404,-248.57368 L 259.77206,-94.012408 L 344.28572,56.647896 z"
               transform="translate(58.389218,829.44544)" />
            <path
               sodipodi:type="star"
               style="fill:#ff0000;stroke-width:5;stroke-miterlimit:4;stroke-dasharray:none"
               id="path16450"
               sodipodi:sides="3"
               sodipodi:cx="170"
               sodipodi:cy="-46.209248"
               sodipodi:r1="202.37367"
               sodipodi:r2="101.70627"
               sodipodi:arg1="0.5331557"
               sodipodi:arg2="1.6050908"
               inkscape:flatsided="false"
               inkscape:rounded="0"
               inkscape:randomized="0"
               d="M 344.28572,56.647896 L 166.51272,55.437218 L -6.219758,53.29804 L 83.715219,-100.05255 L 171.93404,-248.57368 L 259.77206,-94.012408 L 344.28572,56.647896 z"
               transform="matrix(0.7800193,0,0,0.7800193,99.416579,818.80339)" />
            <path
               style="fill:#ff0000;stroke-width:5;stroke-miterlimit:4;stroke-dasharray:none"
               id="path16452"
               d="M 57.980037,905.58441 C 94.025089,907.33981 130.12003,907.78139 166.19739,908.4049 C 250.4897,911.65825 334.80227,914.04033 419.15102,915.04281 L 410.91813,920.99547 C 326.25121,918.07788 241.54946,915.74274 156.83048,915.21035 C 118.16504,915.84825 79.486769,916.3421 40.848979,918.03085 L 57.980037,905.58441 z" />
          </g>
        </g>
        <g
           id="g16454"
           transform="matrix(-8.1393393e-2,0,0,8.1393393e-2,34.432765,456.49378)">
          <g
             id="g16456">
            <path
               sodipodi:type="star"
               style="fill:#000000;stroke-width:5;stroke-miterlimit:4;stroke-dasharray:none"
               id="path16458"
               sodipodi:sides="3"
               sodipodi:cx="170"
               sodipodi:cy="-46.209248"
               sodipodi:r1="202.37367"
               sodipodi:r2="101.70627"
               sodipodi:arg1="0.5331557"
               sodipodi:arg2="1.6050908"
               inkscape:flatsided="false"
               inkscape:rounded="0"
               inkscape:randomized="0"
               d="M 344.28572,56.647896 L 166.51272,55.437218 L -6.219758,53.29804 L 83.715219,-100.05255 L 171.93404,-248.57368 L 259.77206,-94.012408 L 344.28572,56.647896 z"
               transform="translate(28.389222,872.30258)" />
            <path
               sodipodi:type="star"
               style="fill:#0000ff;stroke-width:5;stroke-miterlimit:4;stroke-dasharray:none"
               id="path16460"
               sodipodi:sides="3"
               sodipodi:cx="170"
               sodipodi:cy="-46.209248"
               sodipodi:r1="202.37367"
               sodipodi:r2="101.70627"
               sodipodi:arg1="0.5331557"
               sodipodi:arg2="1.6050908"
               inkscape:flatsided="false"
               inkscape:rounded="0"
               inkscape:randomized="0"
               d="M 344.28572,56.647896 L 166.51272,55.437218 L -6.219758,53.29804 L 83.715219,-100.05255 L 171.93404,-248.57368 L 259.77206,-94.012408 L 344.28572,56.647896 z"
               transform="matrix(0.7800193,0,0,0.7800193,69.416582,861.66053)" />
            <path
               style="fill:#0000ff;stroke-width:5;stroke-miterlimit:4;stroke-dasharray:none"
               id="path16462"
               d="M 27.980042,948.44155 C 64.025092,950.1969 100.12003,950.6385 136.19739,951.262 C 220.4897,954.5154 304.80227,956.8975 389.15102,957.8999 L 380.91813,963.8526 C 296.25121,960.935 211.54946,958.5999 126.83048,958.0675 C 88.165042,958.7054 49.486772,959.1992 10.848982,960.888 L 27.980042,948.44155 z" />
          </g>
        </g>
        <g
           id="g16464"
           transform="matrix(-8.1393393e-2,0,0,8.1393393e-2,35.455965,459.72615)">
          <g
             transform="translate(2.8571414,-8.5714286)"
             id="g16466">
            <path
               sodipodi:type="star"
               style="fill:#000000;stroke-width:5;stroke-miterlimit:4;stroke-dasharray:none"
               id="path16468"
               sodipodi:sides="3"
               sodipodi:cx="170"
               sodipodi:cy="-46.209248"
               sodipodi:r1="202.37367"
               sodipodi:r2="101.70627"
               sodipodi:arg1="0.5331557"
               sodipodi:arg2="1.6050908"
               inkscape:flatsided="false"
               inkscape:rounded="0"
               inkscape:randomized="0"
               d="M 344.28572,56.647896 L 166.51272,55.437218 L -6.219758,53.29804 L 83.715219,-100.05255 L 171.93404,-248.57368 L 259.77206,-94.012408 L 344.28572,56.647896 z"
               transform="translate(478.38922,853.73116)" />
            <path
               sodipodi:type="star"
               style="fill:#00ff00;stroke-width:5;stroke-miterlimit:4;stroke-dasharray:none"
               id="path16470"
               sodipodi:sides="3"
               sodipodi:cx="170"
               sodipodi:cy="-46.209248"
               sodipodi:r1="202.37367"
               sodipodi:r2="101.70627"
               sodipodi:arg1="0.5331557"
               sodipodi:arg2="1.6050908"
               inkscape:flatsided="false"
               inkscape:rounded="0"
               inkscape:randomized="0"
               d="M 344.28572,56.647896 L 166.51272,55.437218 L -6.219758,53.29804 L 83.715219,-100.05255 L 171.93404,-248.57368 L 259.77206,-94.012408 L 344.28572,56.647896 z"
               transform="matrix(0.7800193,0,0,0.7800193,519.41658,843.08911)" />
            <path
               style="fill:#00ff00;stroke-width:5;stroke-miterlimit:4;stroke-dasharray:none"
               id="path16472"
               d="M 477.98004,929.87013 C 514.02509,931.62548 550.12003,932.06708 586.19739,932.69058 C 670.4897,935.94398 754.80227,938.32608 839.15102,939.32848 L 830.91813,945.28118 C 746.25121,942.36358 661.54946,940.02848 576.83048,939.49608 C 538.16504,940.13398 499.48677,940.62778 460.84898,942.31658 L 477.98004,929.87013 z" />
          </g>
        </g>
      </g>
    </g>
    <g
       id="g8578"
       transform="translate(-73.059961,-35.647111)">
      <g
         inkscape:transform-center-y="-9.4055005"
         inkscape:transform-center-x="-17.230859"
         transform="matrix(0.6869423,-0.726712,0.726712,0.6869423,-606.64287,330.73117)"
         id="g8554">
        <path
           style="fill:#999999;fill-rule:evenodd;stroke:#000000;stroke-width:1px;stroke-linecap:butt;stroke-linejoin:miter;stroke-opacity:1"
           d="M 173.97367,202.53651 C 177.0869,202.75366 184.66943,201.96467 189.5534,203.18566 C 193.49762,204.17172 196.62765,202.15319 195.3958,207.0806 C 194.64024,210.10285 191.50745,209.67722 188.25509,209.67722 C 185.03913,209.67722 181.81734,209.02806 177.8686,209.02806 C 172.35413,209.02806 175.01509,207.74359 173.97367,202.53651 z"
           id="path8556"
           transform="translate(-4.149475e-6,698.0315)" />
        <path
           style="fill:#999999;fill-rule:evenodd;stroke:#000000;stroke-width:1px;stroke-linecap:butt;stroke-linejoin:miter;stroke-opacity:1"
           d="M 194.74664,203.18566 C 188.10353,203.18566 204.52384,206.69908 209.67722,207.72975 C 214.75966,208.74624 217.1526,210.3062 215.51962,213.57215 C 213.43903,217.73333 210.8422,215.77753 207.72975,214.22131 C 204.30762,212.51024 201.65915,211.89221 197.99242,210.97553 C 194.55945,210.11729 192.58383,210.53862 193.44833,207.0806 C 193.52255,206.78372 193.8811,206.64783 194.09749,206.43144 C 194.87768,205.65125 194.53026,204.26759 194.74664,203.18566 z"
           id="path8558"
           transform="translate(-4.149475e-6,698.0315)" />
        <path
           style="fill:#999999;fill-rule:evenodd;stroke:#000000;stroke-width:1px;stroke-linecap:butt;stroke-linejoin:miter;stroke-opacity:1"
           d="M 216.16878,212.27384 C 218.28717,210.15545 219.05894,220.837 218.7654,222.01117 C 217.64553,226.49064 216.16878,225.41881 216.16878,221.36202 C 216.16878,216.67139 214.47406,217.358 216.16878,212.27384 z"
           id="path8560"
           transform="translate(-4.149475e-6,698.0315)" />
      </g>
      <g
         inkscape:transform-center-y="-2.5626269"
         inkscape:transform-center-x="-18.664832"
         transform="matrix(0.9361058,-0.3517186,0.3517186,0.9361058,-277.10532,65.337672)"
         id="g8562">
        <path
           style="fill:#999999;fill-rule:evenodd;stroke:#000000;stroke-width:1px;stroke-linecap:butt;stroke-linejoin:miter;stroke-opacity:1"
           d="M 173.97367,202.53651 C 177.0869,202.75366 184.66943,201.96467 189.5534,203.18566 C 193.49762,204.17172 196.62765,202.15319 195.3958,207.0806 C 194.64024,210.10285 191.50745,209.67722 188.25509,209.67722 C 185.03913,209.67722 181.81734,209.02806 177.8686,209.02806 C 172.35413,209.02806 175.01509,207.74359 173.97367,202.53651 z"
           id="path8564"
           transform="translate(-4.149475e-6,698.0315)" />
        <path
           style="fill:#999999;fill-rule:evenodd;stroke:#000000;stroke-width:1px;stroke-linecap:butt;stroke-linejoin:miter;stroke-opacity:1"
           d="M 194.74664,203.18566 C 188.10353,203.18566 204.52384,206.69908 209.67722,207.72975 C 214.75966,208.74624 217.1526,210.3062 215.51962,213.57215 C 213.43903,217.73333 210.8422,215.77753 207.72975,214.22131 C 204.30762,212.51024 201.65915,211.89221 197.99242,210.97553 C 194.55945,210.11729 192.58383,210.53862 193.44833,207.0806 C 193.52255,206.78372 193.8811,206.64783 194.09749,206.43144 C 194.87768,205.65125 194.53026,204.26759 194.74664,203.18566 z"
           id="path8566"
           transform="translate(-4.149475e-6,698.0315)" />
        <path
           style="fill:#999999;fill-rule:evenodd;stroke:#000000;stroke-width:1px;stroke-linecap:butt;stroke-linejoin:miter;stroke-opacity:1"
           d="M 216.16878,212.27384 C 218.28717,210.15545 219.05894,220.837 218.7654,222.01117 C 217.64553,226.49064 216.16878,225.41881 216.16878,221.36202 C 216.16878,216.67139 214.47406,217.358 216.16878,212.27384 z"
           id="path8568"
           transform="translate(-4.149475e-6,698.0315)" />
      </g>
      <path
         id="path8517"
         d="M 168.43702,816.64349 C 166.88119,817.44619 159.57768,816.79692 156.54624,817.66505 C 152.78577,818.74198 148.27559,818.35046 145.23236,818.38898 C 142.16877,818.42778 137.90055,819.35282 134.79303,819.39216 C 130.19104,819.45044 123.70639,821.19482 119.44085,822.19957 C 115.42387,823.14575 111.44109,824.13549 107.58684,826.12401 C 101.53481,829.24642 102.07269,830.18243 103.65879,836.91612 C 104.43193,840.19839 109.6593,841.72336 111.5664,842.33234 C 115.40798,843.55905 119.59079,845.85844 122.65616,846.83728 C 126.56397,848.08514 128.31443,849.24056 132.27608,849.90915 C 135.89236,850.51947 141.12862,853.13695 144.51964,853.81881 C 148.67766,854.6549 152.69795,856.51571 156.46554,857.15157 C 161.05451,857.92603 165.26411,860.08481 169.28599,860.76359 C 173.90771,861.54357 178.7842,862.83286 182.68335,864.07795 C 186.62815,865.33762 192.10214,862.17519 195.13265,861.3073 C 198.46377,860.35335 200.77861,857.81014 203.19087,855.68893 C 205.70607,853.47718 207.15025,852.23691 208.92312,849.80966 C 210.13391,848.15194 212.0115,847.05791 213.2223,845.4002"
         style="fill:#ffff00;fill-rule:evenodd;stroke:#000000;stroke-width:1px;stroke-linecap:butt;stroke-linejoin:miter;stroke-opacity:1" />
      <g
         inkscape:transform-center-y="-5.3357144"
         inkscape:transform-center-x="-18.530437"
         transform="matrix(0.8626047,-0.5058784,0.5058784,0.8626047,-418.58914,137.91099)"
         id="g8570">
        <path
           style="fill:#999999;fill-rule:evenodd;stroke:#000000;stroke-width:1px;stroke-linecap:butt;stroke-linejoin:miter;stroke-opacity:1"
           d="M 173.97367,202.53651 C 177.0869,202.75366 184.66943,201.96467 189.5534,203.18566 C 193.49762,204.17172 196.62765,202.15319 195.3958,207.0806 C 194.64024,210.10285 191.50745,209.67722 188.25509,209.67722 C 185.03913,209.67722 181.81734,209.02806 177.8686,209.02806 C 172.35413,209.02806 175.01509,207.74359 173.97367,202.53651 z"
           id="path8572"
           transform="translate(-4.149475e-6,698.0315)" />
        <path
           style="fill:#999999;fill-rule:evenodd;stroke:#000000;stroke-width:1px;stroke-linecap:butt;stroke-linejoin:miter;stroke-opacity:1"
           d="M 194.74664,203.18566 C 188.10353,203.18566 204.52384,206.69908 209.67722,207.72975 C 214.75966,208.74624 217.1526,210.3062 215.51962,213.57215 C 213.43903,217.73333 210.8422,215.77753 207.72975,214.22131 C 204.30762,212.51024 201.65915,211.89221 197.99242,210.97553 C 194.55945,210.11729 192.58383,210.53862 193.44833,207.0806 C 193.52255,206.78372 193.8811,206.64783 194.09749,206.43144 C 194.87768,205.65125 194.53026,204.26759 194.74664,203.18566 z"
           id="path8574"
           transform="translate(-4.149475e-6,698.0315)" />
        <path
           style="fill:#999999;fill-rule:evenodd;stroke:#000000;stroke-width:1px;stroke-linecap:butt;stroke-linejoin:miter;stroke-opacity:1"
           d="M 216.16878,212.27384 C 218.28717,210.15545 219.05894,220.837 218.7654,222.01117 C 217.64553,226.49064 216.16878,225.41881 216.16878,221.36202 C 216.16878,216.67139 214.47406,217.358 216.16878,212.27384 z"
           id="path8576"
           transform="translate(-4.149475e-6,698.0315)" />
      </g>
      <path
         transform="translate(-4.149475e-6,698.0315)"
         id="path7986"
         d="M 141.51589,123.9887 C 140.65074,123.9887 145.53905,129.95932 150.60407,135.02434 C 153.90536,138.32563 157.85424,141.27341 161.63971,144.11252 C 165.56522,147.05664 171.28276,150.3067 175.27198,151.90238 C 179.7293,153.68531 182.9919,156.4115 186.95678,158.39394 C 191.13652,160.4838 196.21582,162.49387 200.58904,163.58718 C 205.60334,164.84075 209.43866,165.53465 214.87046,165.53465 C 218.65441,165.53465 222.698,163.54951 224.6078,161.63971 C 227.88179,158.36572 227.11532,154.60083 225.25695,149.95491 C 223.89685,146.55466 221.69866,143.15084 219.41455,140.86674 C 216.18901,137.6412 211.72742,135.12707 209.02806,132.42772 C 205.54514,128.94479 202.64977,127.2911 198.64158,125.28701 C 194.55908,123.24576 191.66376,121.0136 186.95678,119.44461 C 182.67806,118.01837 178.25868,117.91924 173.97367,116.84799 C 169.39215,115.70261 163.6226,115.70311 159.04309,116.84799 C 154.79476,117.91007 150.59307,117.66218 146.05998,118.79545 C 142.27789,119.74097 141.51589,120.23587 141.51589,123.9887 z"
         style="fill:#800080;fill-rule:evenodd;stroke:#000000;stroke-width:1px;stroke-linecap:butt;stroke-linejoin:miter;stroke-opacity:1" />
      <g
         inkscape:transform-center-y="7.7898658"
         inkscape:transform-center-x="17.527198"
         transform="matrix(-1,0,0,1,318.44073,-53.360012)"
         id="g8530">
        <path
           style="fill:#999999;fill-rule:evenodd;stroke:#000000;stroke-width:1px;stroke-linecap:butt;stroke-linejoin:miter;stroke-opacity:1"
           d="M 173.97367,202.53651 C 177.0869,202.75366 184.66943,201.96467 189.5534,203.18566 C 193.49762,204.17172 196.62765,202.15319 195.3958,207.0806 C 194.64024,210.10285 191.50745,209.67722 188.25509,209.67722 C 185.03913,209.67722 181.81734,209.02806 177.8686,209.02806 C 172.35413,209.02806 175.01509,207.74359 173.97367,202.53651 z"
           id="path8532"
           transform="translate(-4.149475e-6,698.0315)" />
        <path
           style="fill:#999999;fill-rule:evenodd;stroke:#000000;stroke-width:1px;stroke-linecap:butt;stroke-linejoin:miter;stroke-opacity:1"
           d="M 194.74664,203.18566 C 188.10353,203.18566 204.52384,206.69908 209.67722,207.72975 C 214.75966,208.74624 217.1526,210.3062 215.51962,213.57215 C 213.43903,217.73333 210.8422,215.77753 207.72975,214.22131 C 204.30762,212.51024 201.65915,211.89221 197.99242,210.97553 C 194.55945,210.11729 192.58383,210.53862 193.44833,207.0806 C 193.52255,206.78372 193.8811,206.64783 194.09749,206.43144 C 194.87768,205.65125 194.53026,204.26759 194.74664,203.18566 z"
           id="path8534"
           transform="translate(-4.149475e-6,698.0315)" />
        <path
           style="fill:#999999;fill-rule:evenodd;stroke:#000000;stroke-width:1px;stroke-linecap:butt;stroke-linejoin:miter;stroke-opacity:1"
           d="M 216.16878,212.27384 C 218.28717,210.15545 219.05894,220.837 218.7654,222.01117 C 217.64553,226.49064 216.16878,225.41881 216.16878,221.36202 C 216.16878,216.67139 214.47406,217.358 216.16878,212.27384 z"
           id="path8536"
           transform="translate(-4.149475e-6,698.0315)" />
      </g>
      <g
         inkscape:transform-center-y="14.378831"
         inkscape:transform-center-x="13.34779"
         transform="matrix(-0.8986487,0.438669,0.438669,0.8986487,-50.129921,-23.331923)"
         id="g8546">
        <path
           style="fill:#999999;fill-rule:evenodd;stroke:#000000;stroke-width:1px;stroke-linecap:butt;stroke-linejoin:miter;stroke-opacity:1"
           d="M 173.97367,202.53651 C 177.0869,202.75366 184.66943,201.96467 189.5534,203.18566 C 193.49762,204.17172 196.62765,202.15319 195.3958,207.0806 C 194.64024,210.10285 191.50745,209.67722 188.25509,209.67722 C 185.03913,209.67722 181.81734,209.02806 177.8686,209.02806 C 172.35413,209.02806 175.01509,207.74359 173.97367,202.53651 z"
           id="path8548"
           transform="translate(-4.149475e-6,698.0315)" />
        <path
           style="fill:#999999;fill-rule:evenodd;stroke:#000000;stroke-width:1px;stroke-linecap:butt;stroke-linejoin:miter;stroke-opacity:1"
           d="M 194.74664,203.18566 C 188.10353,203.18566 204.52384,206.69908 209.67722,207.72975 C 214.75966,208.74624 217.1526,210.3062 215.51962,213.57215 C 213.43903,217.73333 210.8422,215.77753 207.72975,214.22131 C 204.30762,212.51024 201.65915,211.89221 197.99242,210.97553 C 194.55945,210.11729 192.58383,210.53862 193.44833,207.0806 C 193.52255,206.78372 193.8811,206.64783 194.09749,206.43144 C 194.87768,205.65125 194.53026,204.26759 194.74664,203.18566 z"
           id="path8550"
           transform="translate(-4.149475e-6,698.0315)" />
        <path
           style="fill:#999999;fill-rule:evenodd;stroke:#000000;stroke-width:1px;stroke-linecap:butt;stroke-linejoin:miter;stroke-opacity:1"
           d="M 216.16878,212.27384 C 218.28717,210.15545 219.05894,220.837 218.7654,222.01117 C 217.64553,226.49064 216.16878,225.41881 216.16878,221.36202 C 216.16878,216.67139 214.47406,217.358 216.16878,212.27384 z"
           id="path8552"
           transform="translate(-4.149475e-6,698.0315)" />
      </g>
      <g
         inkscape:transform-center-y="12.183259"
         inkscape:transform-center-x="15.156059"
         transform="matrix(-0.9601876,0.279356,0.279356,0.9601876,81.517931,-56.954435)"
         id="g8538">
        <path
           style="fill:#999999;fill-rule:evenodd;stroke:#000000;stroke-width:1px;stroke-linecap:butt;stroke-linejoin:miter;stroke-opacity:1"
           d="M 173.97367,202.53651 C 177.0869,202.75366 184.66943,201.96467 189.5534,203.18566 C 193.49762,204.17172 196.62765,202.15319 195.3958,207.0806 C 194.64024,210.10285 191.50745,209.67722 188.25509,209.67722 C 185.03913,209.67722 181.81734,209.02806 177.8686,209.02806 C 172.35413,209.02806 175.01509,207.74359 173.97367,202.53651 z"
           id="path8540"
           transform="translate(-4.149475e-6,698.0315)" />
        <path
           style="fill:#999999;fill-rule:evenodd;stroke:#000000;stroke-width:1px;stroke-linecap:butt;stroke-linejoin:miter;stroke-opacity:1"
           d="M 194.74664,203.18566 C 188.10353,203.18566 204.52384,206.69908 209.67722,207.72975 C 214.75966,208.74624 217.1526,210.3062 215.51962,213.57215 C 213.43903,217.73333 210.8422,215.77753 207.72975,214.22131 C 204.30762,212.51024 201.65915,211.89221 197.99242,210.97553 C 194.55945,210.11729 192.58383,210.53862 193.44833,207.0806 C 193.52255,206.78372 193.8811,206.64783 194.09749,206.43144 C 194.87768,205.65125 194.53026,204.26759 194.74664,203.18566 z"
           id="path8542"
           transform="translate(-4.149475e-6,698.0315)" />
        <path
           style="fill:#999999;fill-rule:evenodd;stroke:#000000;stroke-width:1px;stroke-linecap:butt;stroke-linejoin:miter;stroke-opacity:1"
           d="M 216.16878,212.27384 C 218.28717,210.15545 219.05894,220.837 218.7654,222.01117 C 217.64553,226.49064 216.16878,225.41881 216.16878,221.36202 C 216.16878,216.67139 214.47406,217.358 216.16878,212.27384 z"
           id="path8544"
           transform="translate(-4.149475e-6,698.0315)" />
      </g>
      <path
         transform="translate(-4.149475e-6,698.0315)"
         id="path7984"
         d="M 151.25323,125.93616 C 151.25323,124.28671 140.62528,126.48339 137.62096,127.23447 C 131.99515,128.64093 134.00377,136.13529 135.02434,140.21758 C 136.48485,146.05962 142.5139,152.90038 146.70914,157.09563 C 153.10713,163.49361 164.58081,167.38055 172.67536,170.07873 C 180.9402,172.83368 189.99551,173.97367 198.64158,173.97367 C 205.53046,173.97367 209.76485,171.00865 215.51962,168.13127 C 220.92573,165.42821 219.31452,162.36336 217.46709,157.74478 C 216.2886,154.79858 212.52599,151.60462 210.32638,149.95491 C 206.77134,147.28863 204.43937,144.21558 199.93989,141.51589 C 195.24086,138.69648 192.95207,136.80638 187.60593,135.02434 C 182.23896,133.23535 177.12462,130.43284 172.0262,127.88363 C 167.62811,125.68458 163.2884,125.28701 158.39394,125.28701 C 154.90178,125.28701 154.69669,125.24747 151.25323,125.93616 z"
         style="fill:#ff00ff;fill-rule:evenodd;stroke:#000000;stroke-width:1px;stroke-linecap:butt;stroke-linejoin:miter;stroke-opacity:1" />
      <path
         transform="translate(-4.149475e-6,698.0315)"
         id="path7988"
         d="M 227.85357,156.44647 C 225.65087,156.99715 219.80051,158.85011 216.81793,160.3414 C 213.82303,161.83885 211.44294,162.82117 208.37891,163.58718 C 205.79238,164.23381 202.46443,168.44376 201.2382,170.07873 C 198.24876,174.06466 198.70478,176.60189 202.53651,178.51776 C 205.7601,180.12955 208.89996,182.02406 212.27384,183.711 C 215.56463,185.35639 224.23619,181.62476 226.55526,180.46522 C 230.27924,178.60323 231.37316,176.29648 234.34513,173.32451 C 237.27337,170.39627 235.76576,167.32223 234.99428,164.23634 C 234.1595,160.89719 233.0696,160.36418 231.09935,158.39394 C 230.20717,157.50176 228.9355,157.09563 227.85357,156.44647 z"
         style="fill:#483737;fill-rule:evenodd;stroke:#000000;stroke-width:1px;stroke-linecap:butt;stroke-linejoin:miter;stroke-opacity:1" />
      <path
         transform="translate(-4.149475e-6,698.0315)"
         id="path7990"
         d="M 218.7654,176.57029 C 218.4011,176.20599 222.51185,186.65982 223.30949,188.25509 C 224.63737,190.91085 234.38024,189.54462 236.94175,188.90424 C 240.76633,187.9481 241.63364,185.62152 236.2926,186.95678 C 232.63029,187.87235 226.52007,187.94811 231.09935,185.65847 C 233.90739,184.25444 238.69644,183.711 232.39766,183.711 C 227.66401,183.711 227.48552,184.72821 230.4502,181.76353 C 233.10554,179.10819 233.21232,178.435 227.85357,181.11438 C 222.61423,183.73405 226.41668,177.77377 226.55526,177.21944 C 227.18722,174.69162 221.37102,176.57029 218.7654,176.57029 z"
         style="fill:#00ff00;fill-rule:evenodd;stroke:#000000;stroke-width:1px;stroke-linecap:butt;stroke-linejoin:miter;stroke-opacity:1" />
      <path
         inkscape:transform-center-y="4.6489759"
         inkscape:transform-center-x="-9.2079921"
         id="path7992"
         d="M 231.75124,864.06116 C 231.27581,863.86266 242.50754,863.69155 244.28626,863.82299 C 247.24741,864.0418 249.68684,873.57276 250.06812,876.18543 C 250.6374,880.08639 248.81509,881.77291 248.02008,876.32521 C 247.47495,872.58975 245.22261,866.9093 244.84532,872.01516 C 244.61396,875.14612 245.93156,879.78231 243.53748,873.95625 C 241.73828,869.57785 242.61131,869.02613 240.99596,872.89515 C 239.54916,876.36047 238.96708,876.7151 239.40859,870.74013 C 239.84025,864.8983 235.77254,870.68079 235.31249,871.01966 C 233.21458,872.56499 232.7416,866.47123 231.75124,864.06116 z"
         style="fill:#00ff00;fill-rule:evenodd;stroke:#000000;stroke-width:1px;stroke-linecap:butt;stroke-linejoin:miter;stroke-opacity:1" />
    </g>
    <g
       inkscape:export-ydpi="33.007736"
       inkscape:export-xdpi="33.007736"
       inkscape:export-filename="/home/abez/clip-art-so-far.png"
       transform="matrix(-0.1689062,0,0,0.1495949,479.07172,870.73303)"
       id="g21151">
      <path
         style="fill:#ec8f40;fill-opacity:1;fill-rule:evenodd;stroke:#000000;stroke-width:1px;stroke-linecap:butt;stroke-linejoin:miter;stroke-opacity:1"
         d="M 760,-447.63782 C 760,-447.63782 865.98508,-849.6826 1000,-447.63782 C 1020,-387.63782 740,-387.63782 760,-447.63782 z"
         id="path21153"
         sodipodi:nodetypes="csc" />
      <path
         sodipodi:type="arc"
         style="fill:#ffb97b;fill-opacity:1;stroke:#000000;stroke-width:2;stroke-miterlimit:4;stroke-dasharray:none;stroke-dashoffset:0;stroke-opacity:1"
         id="path21155"
         sodipodi:cx="20"
         sodipodi:cy="-407.63782"
         sodipodi:rx="80"
         sodipodi:ry="80"
         d="M 100,-407.63782 A 80,80 0 1 1 -60,-407.63782 A 80,80 0 1 1 100,-407.63782 z"
         transform="translate(860,-219.99999)" />
      <path
         style="fill:#ffff00;fill-rule:evenodd;stroke:#000000;stroke-width:1px;stroke-linecap:butt;stroke-linejoin:miter;stroke-opacity:1"
         d="M 940,-687.63782 C 908.49673,-679.15297 924.05229,-667.63782 880,-667.63782 C 856.57383,-667.63782 845.4327,-627.63782 820,-627.63782 C 807.6758,-627.63782 780,-529.85934 780,-627.63782 C 780,-671.20804 800,-642.92377 800,-687.63782 C 800,-694.30448 840,-690.97115 840,-727.63782 C 840,-753.43565 940,-724.25659 940,-687.63782 z"
         id="path21157"
         sodipodi:nodetypes="csssssc" />
    </g>
    <g
       inkscape:export-ydpi="33.007736"
       inkscape:export-xdpi="33.007736"
       inkscape:export-filename="/home/abez/clip-art-so-far.png"
       transform="matrix(-0.1259226,0,0,0.1259226,333.07835,918.26356)"
       id="g21167">
      <path
         style="fill:#ec40c1;fill-opacity:1;fill-rule:evenodd;stroke:#000000;stroke-width:1px;stroke-linecap:butt;stroke-linejoin:miter;stroke-opacity:1"
         d="M -120,-447.63782 C -120,-447.63782 -14.014919,-849.6826 120,-447.63782 C 140,-387.63782 -140,-387.63782 -120,-447.63782 z"
         id="path21169"
         sodipodi:nodetypes="csc" />
      <path
         sodipodi:type="arc"
         style="fill:#eedac9;fill-opacity:1;stroke:#000000;stroke-width:2;stroke-miterlimit:4;stroke-dasharray:none;stroke-dashoffset:0;stroke-opacity:1"
         id="path21171"
         sodipodi:cx="20"
         sodipodi:cy="-407.63782"
         sodipodi:rx="80"
         sodipodi:ry="80"
         d="M 100,-407.63782 A 80,80 0 1 1 -60,-407.63782 A 80,80 0 1 1 100,-407.63782 z"
         transform="translate(-20,-220)" />
      <path
         style="fill:#d40000;fill-rule:evenodd;stroke:#000000;stroke-width:1px;stroke-linecap:butt;stroke-linejoin:miter;stroke-opacity:1"
         d="M -120,-647.63782 C -124.71405,-652.35186 -120,-634.30448 -120,-627.63782 C -120,-607.63782 -80,-627.63782 -60,-627.63782 C 14.162227,-627.63782 -114.16223,-647.63782 -40,-647.63782 C -4,-647.63782 -40,-636.30448 -40,-667.63782 C -40,-674.30448 0,-650.97115 0,-687.63782 C 0,-707.63782 40,-687.63782 60,-687.63782 C 103.33333,-687.63782 56.666667,-707.63782 100,-707.63782 C 140.9228,-707.63782 60,-711.07972 60,-747.63782 C 60,-767.63782 20,-747.63782 0,-747.63782 C -42.020706,-747.63782 -57.979294,-727.63782 -100,-727.63782 C -117.12497,-727.63782 -140,-700.3538 -140,-687.63782 C -140,-660.97115 -151.33333,-647.63782 -120,-647.63782 z"
         id="path21173" />
    </g>
    <path
       style="opacity:1;fill:#ff0000;fill-opacity:1;fill-rule:nonzero;stroke:#e59819;stroke-width:1.77165353;stroke-linecap:butt;stroke-linejoin:miter;stroke-miterlimit:4;stroke-dasharray:none;stroke-dashoffset:0;stroke-opacity:1"
       id="path21187"
       d="M 120.94153,847.66222 C 120.69436,848.72714 120.77802,849.86632 120.95443,850.93821 C 121.43627,853.85948 120.57819,848.67844 120.19688,845.77134 C 120.16465,845.52551 120.3227,846.25103 120.39256,846.48892 C 120.58515,847.14462 120.80768,847.78946 121.04665,848.42933 C 121.6757,849.88877 122.87517,850.90282 124.06511,851.89577 C 125.10197,852.7769 126.25839,853.48193 127.47985,854.07203 C 128.74999,854.5685 129.93138,855.24785 131.14659,855.8598 C 132.65128,856.67654 134.26364,857.21327 135.89105,857.72082 C 137.46991,858.22168 139.06637,858.66826 140.59091,859.32077 C 142.04754,860.03708 143.51967,860.71527 144.90895,861.55707 C 146.68567,862.60571 148.27935,863.9151 149.80629,865.29342 C 151.74476,867.09366 153.26214,869.2628 154.80493,871.39426 C 156.25063,873.44006 157.43589,875.64484 158.55857,877.87881 C 159.73377,880.23059 160.63642,882.70257 161.42529,885.20642 C 162.63436,889.21654 163.10125,893.41367 163.47284,897.57727 C 163.71609,900.24194 164.92115,908.29773 163.20844,896.91576 C 165.84796,914.21938 163.78688,900.8198 163.52795,898.75764 C 163.49215,898.47252 163.6697,899.31463 163.74514,899.59191 C 163.98724,900.48172 164.2644,901.35796 164.55416,902.23315 C 165.17132,903.89879 165.9711,905.48846 166.88824,907.00737 C 167.94519,908.71987 169.28545,910.23268 170.65371,911.69979 C 171.85906,912.96903 173.07141,914.23069 174.31491,915.46264 C 175.59034,916.73562 176.76204,918.10633 178.06321,919.35336 C 178.76496,920.02404 178.42204,919.7002 179.09132,920.32555 L 179.50428,927.03209 C 178.81758,926.38819 179.16326,926.7231 178.46879,926.02575 C 177.15205,924.78295 175.97224,923.40919 174.70217,922.11971 C 173.46682,920.86831 172.1981,919.65006 171.02332,918.33929 C 169.61877,916.88577 168.29148,915.33639 167.12382,913.68594 C 166.15075,912.16219 165.32529,910.55126 164.63934,908.87786 C 164.32918,908.01101 164.05134,907.14631 163.79197,906.2633 C 163.70893,905.98057 163.58905,905.70685 163.53739,905.41676 C 162.84837,901.54763 161.32562,891.53505 163.17555,903.55201 C 162.55404,899.45542 161.88433,895.37045 161.49178,891.24502 C 161.26029,888.9091 160.51637,884.39713 162.13337,894.7141 C 162.18379,895.03587 162.04486,894.06839 161.98201,893.74881 C 161.86047,893.13079 161.6499,892.41517 161.48322,891.81157 C 160.76222,889.2789 159.86426,886.79072 158.72639,884.41393 C 157.6383,882.18753 156.419,880.02824 155.07873,877.94316 C 153.58397,875.83198 152.10258,873.6974 150.22053,871.9032 C 148.74296,870.53023 147.19628,869.22525 145.45125,868.1995 C 144.10057,867.35059 142.64129,866.71639 141.22162,865.99261 C 139.74412,865.28532 138.1487,864.85356 136.59932,864.33229 C 134.9504,863.82589 133.28124,863.35727 131.7512,862.53982 C 130.5398,861.93519 129.35943,861.26854 128.10225,860.76208 C 126.81795,860.17364 125.59308,859.49592 124.51748,858.56498 C 123.27455,857.55 121.98966,856.56265 121.17505,855.14439 C 119.64832,851.82446 119.44761,848.08772 118.92494,844.51421 C 118.83198,843.37339 118.83971,842.22853 119.08135,841.10418 L 120.94153,847.66222 z"
       inkscape:transform-center-x="24.607734"
       inkscape:transform-center-y="-33.198195" />
    <path
       style="opacity:1;fill:#ff0000;fill-opacity:1;fill-rule:nonzero;stroke:#e59819;stroke-width:1.77165353;stroke-linecap:butt;stroke-linejoin:miter;stroke-miterlimit:4;stroke-dasharray:none;stroke-dashoffset:0;stroke-opacity:1"
       id="path21189"
       d="M 104.86491,937.23169 C 106.01776,935.67578 107.15667,934.15271 108.54541,932.7962 C 110.8367,930.63859 113.42072,928.84895 116.09823,927.21156 C 122.50328,922.76576 127.42453,920.90894 134.286,918.63428 C 137.24801,917.78603 140.30456,917.47636 143.36926,917.3375 C 145.55103,917.13205 147.64726,917.29146 149.71184,918.01454 C 151.45773,918.75147 153.24147,919.40847 154.80936,920.48757 C 156.18777,921.31873 157.38746,922.39065 158.65791,923.36768 C 159.36851,924.01303 159.0391,923.67111 159.64849,924.39117 L 151.44042,929.33268 C 150.91885,928.72839 151.20614,929.02436 150.57093,928.45222 C 149.34681,927.45297 148.1217,926.46239 146.76972,925.635 C 145.24664,924.65424 143.55599,923.97561 141.85571,923.36436 C 139.87383,922.81561 137.85346,922.73461 135.80457,922.89506 C 132.79667,923.07816 129.79037,923.43106 126.90879,924.36049 C 125.24203,924.90303 123.57285,925.43368 121.93789,926.0683 C 118.90649,927.24495 112.01355,930.96095 124.77011,923.86833 C 122.10451,925.41967 119.55026,927.14952 117.25647,929.22137 C 115.86701,930.46563 114.71307,931.83766 113.71994,933.41573 L 104.86491,937.23169 z" />
    <path
       style="opacity:1;fill:#ff0000;fill-opacity:1;fill-rule:nonzero;stroke:#e59819;stroke-width:1.77165353;stroke-linecap:butt;stroke-linejoin:miter;stroke-miterlimit:4;stroke-dasharray:none;stroke-dashoffset:0;stroke-opacity:1"
       id="path21191"
       d="M 112.6415,970.29803 C 114.87345,969.6969 117.14646,969.2688 119.38307,968.67945 C 123.03569,967.90119 126.7392,967.35238 130.43386,966.80651 C 134.16429,966.24931 137.9458,966.02896 141.71444,966.13648 C 145.19831,966.27361 148.66311,966.71539 152.10303,967.266 C 154.75235,967.7529 157.31704,968.65376 159.70265,969.89685 C 160.58101,970.4388 161.42387,971.01332 162.22597,971.66099 L 154.15684,976.7224 C 153.4156,976.11945 152.64625,975.56076 151.81487,975.08488 C 149.4659,973.952 147.01529,973.0522 144.42477,972.65743 C 141.04437,972.09778 137.63843,971.63277 134.20678,971.57086 C 130.46867,971.54585 126.73218,971.79227 123.03412,972.35411 C 119.32536,972.92658 115.60006,973.46801 111.95407,974.36892 C 109.6227,974.95775 107.27876,975.49547 104.95564,976.11733 L 112.6415,970.29803 z" />
    <path
       style="opacity:1;fill:#ff0000;fill-opacity:1;fill-rule:nonzero;stroke:#e59819;stroke-width:1.77165353;stroke-linecap:butt;stroke-linejoin:miter;stroke-miterlimit:4;stroke-dasharray:none;stroke-dashoffset:0;stroke-opacity:1"
       id="path21716"
       d="M 183.23305,823.71421 C 184.81391,823.29097 186.42355,822.9565 188.02955,822.6356 C 190.27989,822.00691 192.61018,821.82698 194.93356,821.71785 C 197.6775,821.6102 200.43306,821.83845 203.14394,822.25912 C 205.70289,822.69756 208.0024,823.87783 210.17991,825.23879 C 212.60008,826.75146 214.57239,828.77472 216.38477,830.95253 C 218.29019,833.43754 220.11751,835.98663 221.83651,838.60438 C 223.62262,841.27359 225.23112,844.05054 226.88218,846.80268 C 228.65166,849.5456 230.26744,852.37886 231.82117,855.24805 C 233.35707,857.96832 234.95555,860.65457 236.55058,863.34117 C 238.09422,865.81671 239.75963,868.20345 241.58169,870.48084 C 243.44894,872.75507 245.84432,874.4333 248.41584,875.81212 C 251.44835,877.3293 254.70959,878.24489 257.96805,879.12668 C 261.26945,879.93871 264.63407,880.42948 268.00354,880.85239 C 271.36443,881.28565 274.72177,881.74884 278.086,882.15629 C 280.9083,882.49869 283.71242,882.94161 286.50192,883.48607 C 287.93127,883.88255 289.37126,884.24238 290.65649,885.0131 C 291.39832,885.45795 291.99344,885.95017 292.67722,886.47775 C 294.78185,888.28436 296.27194,890.43454 297.55635,892.86443 C 298.94753,895.68865 300.02168,898.65823 301.1214,901.60504 C 302.1435,904.33555 303.18731,907.05772 304.34339,909.73426 C 304.64075,910.47742 305.00275,911.18962 305.31884,911.92442 L 297.4557,916.26795 C 297.25444,915.49198 296.89384,914.79444 296.62415,914.03941 C 295.63982,911.28081 294.65592,908.52249 293.56082,905.80507 C 292.46959,902.90095 291.39407,899.97651 289.99272,897.20483 C 288.73228,894.94483 287.31268,892.80724 285.26582,891.1693 C 283.33477,889.78607 281.60699,888.97426 279.25657,888.52738 C 276.5479,887.93333 273.81539,887.4773 271.06362,887.12981 C 267.68781,886.71878 264.31527,886.2815 260.94259,885.84562 C 257.55895,885.39927 254.19215,884.83054 250.88012,883.9951 C 247.55507,883.0927 244.23985,882.11535 241.15168,880.55519 C 238.49923,879.08842 236.03365,877.31379 234.09024,874.95798 C 232.24932,872.65334 230.61472,870.19276 229.05858,867.68846 C 227.40574,865.02185 225.8695,862.2838 224.33575,859.54747 C 222.75959,856.70425 221.14781,853.8852 219.41449,851.13396 C 217.75153,848.40037 216.12396,845.64662 214.34354,842.98552 C 212.65585,840.38709 210.85865,837.85986 208.92345,835.43879 C 207.13618,833.35262 205.20988,831.40729 202.83377,829.98488 C 200.69829,828.71846 198.44116,827.66665 195.95793,827.31211 C 193.28726,826.89357 190.57782,826.72372 187.87699,826.91067 C 185.55389,827.08464 183.24955,827.37187 180.99288,827.97431 C 179.31608,828.34449 177.65205,828.76554 175.9832,829.1667 L 183.23305,823.71421 z" />
    <path
       style="opacity:1;fill:#ff0000;fill-opacity:1;fill-rule:nonzero;stroke:#e59819;stroke-width:1.77165353;stroke-linecap:butt;stroke-linejoin:miter;stroke-miterlimit:4;stroke-dasharray:none;stroke-dashoffset:0;stroke-opacity:1"
       id="path21718"
       d="M 300.00923,780.45659 C 299.27583,779.1674 298.21742,778.09218 297.12498,777.1029 C 295.669,775.83095 293.94317,774.92895 292.27432,773.97445 C 290.29884,772.947 288.21455,772.18849 286.06849,771.61119 C 283.88642,770.93781 281.6688,770.40939 279.44327,769.90356 C 277.01074,769.37242 274.53295,769.16005 272.0477,769.18916 C 269.08409,769.20488 266.16717,769.75459 263.2929,770.4266 C 260.7177,770.95837 258.31042,771.97105 255.95846,773.11704 C 253.25784,774.59496 247.82656,777.68777 259.9801,770.76787 C 260.35193,770.55616 259.24674,771.20889 258.88109,771.43112 C 257.66221,772.17192 257.96126,771.99027 256.76368,772.75472 C 254.57723,774.16597 252.46389,775.68222 250.37384,777.23108 C 248.22509,778.77226 246.05976,780.29606 243.84346,781.73897 C 239.28926,784.53559 234.873,787.7172 229.90059,789.71972 C 227.32673,790.85631 224.60693,791.38363 221.80836,791.45265 C 219.2271,791.40328 216.77171,790.6818 214.37718,789.78041 C 212.54036,788.96562 210.61149,788.40788 208.76936,787.6079 C 206.96979,786.72829 205.01828,786.30608 203.08393,785.84986 C 200.85512,785.34166 198.55733,785.36691 196.29352,785.57169 C 194.68963,785.83977 193.0621,786.00955 191.49305,786.45655 C 190.85102,786.63946 189.66992,787.07853 189.04934,787.30263 C 186.45551,788.16785 184.00986,789.3921 181.51836,790.5047 C 179.77551,791.28083 178.01737,792.01304 176.27564,792.79076 L 183.25395,787.26559 C 184.95775,786.53058 186.68806,785.85818 188.36927,785.07085 C 190.86268,783.94315 193.34692,782.78769 195.94942,781.92648 C 198.36153,781.11336 200.83521,780.56562 203.37706,780.34927 C 205.71804,780.23264 208.06661,780.25976 210.35835,780.81878 C 212.34094,781.28979 214.31049,781.82192 216.16961,782.67496 C 217.98798,783.43837 219.85683,784.07277 221.66093,784.87238 C 223.97452,785.70953 226.36867,786.32538 228.84972,786.28675 C 231.60072,786.09698 234.25383,785.45836 236.76272,784.28709 C 240.22749,782.64242 238.31459,783.50949 231.46167,787.50077 C 231.12376,787.69757 232.14002,787.11149 232.47654,786.91233 C 233.56108,786.27048 234.62656,785.59713 235.68247,784.90939 C 237.9328,783.52828 240.0638,781.9582 242.23628,780.45943 C 244.33245,778.92269 246.40553,777.35474 248.59037,775.94319 C 253.15169,772.90495 257.94683,770.20698 262.80066,767.66805 C 265.18917,766.5696 267.63727,765.64645 270.23038,765.15056 C 273.14618,764.53615 276.09614,764.04706 279.08714,764.07215 C 281.6393,764.08912 284.17035,764.2707 286.65437,764.90026 C 288.90523,765.38355 291.13162,765.95924 293.33329,766.63311 C 295.51969,767.28166 297.66132,768.06576 299.67369,769.1517 C 301.43241,770.10021 303.16246,771.11561 304.68324,772.4245 C 305.83912,773.49072 306.92608,774.63886 307.86155,775.90542 L 300.00923,780.45659 z" />
    <path
       style="opacity:1;fill:#ff0000;fill-opacity:1;fill-rule:nonzero;stroke:#e59819;stroke-width:1.77165353;stroke-linecap:butt;stroke-linejoin:miter;stroke-miterlimit:4;stroke-dasharray:none;stroke-dashoffset:0;stroke-opacity:1"
       id="path21720"
       d="M 301.93042,841.56965 C 300.25375,840.42756 298.62515,839.21477 296.99559,838.00647 C 294.27466,836.06451 291.44399,834.2842 288.63773,832.46979 C 285.6719,830.54103 282.6583,828.67683 279.74566,826.66788 C 277.36912,824.8656 274.91091,823.1643 272.61597,821.25787 C 270.69594,819.60973 268.82239,817.91898 266.75095,816.46083 C 264.96128,815.06573 262.96096,814.15054 260.79245,813.53804 C 258.48568,812.95853 256.11234,813.3047 253.78059,813.50085 C 251.23153,813.78728 248.7126,814.24729 246.21103,814.80838 C 243.94808,815.33444 241.69562,815.90078 239.43912,816.45441 C 238.31791,816.80638 237.13555,816.83625 235.98825,817.03384 C 235.59602,817.10139 235.21393,817.21905 234.824,817.29883 C 233.74036,817.36906 232.6776,817.1959 231.61908,816.99394 C 230.46537,816.81956 229.31329,816.68473 228.16098,816.50266 C 226.04952,816.24038 223.94162,815.98987 221.81713,815.85297 C 219.13222,815.56359 216.43854,815.39321 213.7409,815.2879 C 211.36951,815.21731 208.99698,815.21904 206.62499,815.24807 C 205.22285,815.26632 203.82035,815.29586 202.41816,815.27293 C 200.81724,815.29769 199.2078,815.18697 197.61308,815.34292 C 196.05348,815.52546 194.47542,815.55463 192.9218,815.78001 C 191.60851,816.00369 190.28798,816.13802 188.9567,816.1617 C 188.25928,816.25452 187.56285,816.35419 186.86554,816.44778 L 194.04699,811.08868 C 194.75361,811.00207 195.45998,810.90673 196.17149,810.86908 C 197.4844,810.77235 198.79053,810.61888 200.0943,810.43649 C 201.65567,810.28496 203.22454,810.21559 204.78582,810.05872 C 206.40784,810.00031 208.03006,810.03555 209.65274,810.01565 C 211.03666,809.99144 212.42104,810.01126 213.80492,810.03374 C 216.14914,810.07303 218.49401,810.09164 220.83723,810.17451 C 223.53347,810.28083 226.21675,810.5379 228.90409,810.77322 C 231.10032,810.91423 233.29619,811.07612 235.48082,811.34602 C 236.64878,811.5052 237.82637,811.59221 238.98231,811.83441 C 239.97638,811.98782 240.99877,812.05842 241.9942,811.87459 C 243.47594,811.59778 244.99286,811.51385 246.45087,811.10157 C 248.69762,810.56717 250.93061,809.97323 253.1926,809.50594 C 255.71949,808.98331 258.26243,808.52678 260.83367,808.28544 C 263.25349,808.08162 265.71195,807.85922 268.07896,808.56472 C 270.35351,809.29866 272.26533,810.29504 274.1791,811.74206 C 276.22924,813.24927 278.07841,814.97384 280.00385,816.63141 C 282.29395,818.49666 284.67788,820.24388 287.0441,822.0108 C 289.94188,824.00776 292.86181,825.97794 295.85311,827.83238 C 298.70108,829.64869 301.58795,831.40489 304.3682,833.32558 C 306.04224,834.50718 307.71647,835.71405 309.55042,836.63937 L 301.93042,841.56965 z" />
    <path
       style="opacity:1;fill:#ff0000;fill-opacity:1;fill-rule:nonzero;stroke:#e59819;stroke-width:1.77165353;stroke-linecap:butt;stroke-linejoin:miter;stroke-miterlimit:4;stroke-dasharray:none;stroke-dashoffset:0;stroke-opacity:1"
       id="path21722"
       d="M 290.8782,935.07393 C 290.00906,932.95168 288.83541,930.98871 287.64819,929.03439 C 286.48131,926.90699 284.98329,925.00455 283.4755,923.11629 C 282.61687,922.09678 282.51381,922.1719 281.37114,922.48612 C 278.84213,924.28945 275.99044,925.4871 287.9417,918.80531 C 288.10853,918.71204 287.6384,919.0388 287.49774,919.16822 C 287.19469,919.44703 286.70864,919.98953 286.44337,920.27778 C 284.87867,922.20375 283.47285,924.25829 282.04661,926.2885 C 280.42446,928.66073 278.79663,931.02724 277.08701,933.33755 C 276.02037,934.73505 275.0674,936.24673 273.82209,937.49594 C 270.37284,939.52572 266.40478,943.14729 261.92904,942.93634 C 260.13853,942.64865 258.86091,941.20475 257.66686,939.95019 C 256.18364,938.46061 254.73436,936.93402 253.17626,935.52188 C 251.97831,934.45615 250.7329,933.44758 249.46947,932.46148 C 249.31195,932.35855 249.15442,932.25561 248.9969,932.15268 L 256.57942,927.32507 C 256.7416,927.44734 256.90378,927.56961 257.06596,927.69188 C 258.30729,928.71727 259.51795,929.78027 260.70676,930.86584 C 262.24811,932.31503 263.70129,933.8551 265.2098,935.33825 C 266.31462,936.43094 267.50264,937.66425 269.16234,937.65818 C 269.84725,937.59261 270.51103,937.49997 271.17068,937.29216 C 274.01764,936.39528 278.55622,932.45359 265.50162,940.83681 C 267.02242,939.87847 267.89755,938.14536 269.0415,936.80287 C 270.79604,934.51232 272.48326,932.17238 274.06923,929.76134 C 275.4482,927.74764 276.85209,925.7514 278.22752,923.7356 C 278.44983,923.47844 279.32945,922.29755 279.58344,922.13936 C 280.3628,921.65397 285.37439,917.59843 288.59875,917.06239 C 289.88345,916.9915 290.43597,917.56494 291.13275,918.57962 C 292.5057,920.5962 294.01011,922.5256 295.21683,924.65059 C 296.36771,926.61911 297.54985,928.57469 298.73052,930.52276 L 290.8782,935.07393 z" />
    <path
       style="opacity:1;fill:#ff0000;fill-opacity:1;fill-rule:nonzero;stroke:#e59819;stroke-width:1.77165353;stroke-linecap:butt;stroke-linejoin:miter;stroke-miterlimit:4;stroke-dasharray:none;stroke-dashoffset:0;stroke-opacity:1"
       id="path21724"
       d="M 288.56014,976.71015 C 286.71711,975.86006 284.72935,975.57597 282.73173,975.35921 C 279.78236,975.23109 276.82671,975.45972 273.92622,975.99419 C 271.21534,976.53283 268.62385,977.47817 266.10245,978.59077 C 263.33641,979.92783 258.06411,982.99533 270.19214,976.1082 C 270.54512,975.90775 269.49416,976.52287 269.14785,976.73464 C 268.78918,976.95396 268.43413,977.17916 268.07727,977.40142 C 267.70725,977.62661 267.33723,977.85181 266.96721,978.077 C 264.85285,979.31539 262.78424,980.6288 260.72724,981.95959 C 260.16058,982.31416 259.59917,982.67595 259.04644,983.05175 L 250.66793,986.31866 C 251.27095,985.94361 251.82761,985.50464 252.46253,985.18076 C 254.55043,983.82672 256.66466,982.51369 258.79538,981.22871 C 263.4755,978.47377 267.9855,975.37371 272.96586,973.17075 C 275.52851,972.12807 278.14416,971.20477 280.88674,970.76261 C 283.85485,970.33885 286.86278,970.07001 289.86087,970.30098 C 292.00162,970.55145 294.11947,970.91578 296.12892,971.73016 L 288.56014,976.71015 z" />
    <text
       xml:space="preserve"
       style="font-size:18px;font-style:normal;font-weight:bold;writing-mode:lr-tb;fill:#000000;fill-opacity:1;stroke:none;stroke-width:1px;stroke-linecap:butt;stroke-linejoin:miter;stroke-opacity:1;font-family:Sans;-inkscape-font-specification:Sans"
       x="56.476524"
       y="735.23431"
       id="text21726"><tspan
         sodipodi:role="line"
         id="tspan21728"
         x="56.476524"
         y="735.23431">Extraction: Traceability</tspan></text>
    <g
       id="g6974"
       transform="matrix(-0.3904605,0,0,-0.4131521,456.76998,916.48921)">
      <g
         transform="translate(-350,300)"
         id="g6976">
        <rect
           style="fill:#ffffff;fill-opacity:1;stroke:#000000;stroke-width:2.77728343;stroke-miterlimit:4;stroke-dasharray:none;stroke-dashoffset:0;stroke-opacity:1"
           id="rect6978"
           width="119.79414"
           height="140.22272"
           x="449.88864"
           y="-207.74918" />
        <path
           style="fill:none;fill-rule:evenodd;stroke:#75a9de;stroke-width:1px;stroke-linecap:butt;stroke-linejoin:miter;stroke-opacity:1"
           d="M 470,-187.63782 C 479.68055,-175.13088 520,-168.69158 520,-187.63782 C 520,-197.63782 540,-187.63782 550,-187.63782 C 553.33333,-187.63782 550,-180.97115 550,-177.63782 C 550,-174.30448 556.66667,-177.63782 560,-177.63782"
           id="path6980" />
        <path
           style="fill:none;fill-rule:evenodd;stroke:#75a9de;stroke-width:1px;stroke-linecap:butt;stroke-linejoin:miter;stroke-opacity:1"
           d="M 470,-147.63782 C 470,-137.63782 490,-147.63782 500,-147.63782 C 514.11255,-147.63782 530,-140.92786 530,-157.63782 C 530,-165.85163 565.91533,-147.63782 570,-147.63782"
           id="path6982" />
        <path
           style="fill:none;fill-rule:evenodd;stroke:#75a9de;stroke-width:1px;stroke-linecap:butt;stroke-linejoin:miter;stroke-opacity:1"
           d="M 490,-117.63782 C 490,-132.59871 520,-100.51346 520,-127.63782 C 520,-134.30448 533.33333,-127.63782 540,-127.63782 C 544.71405,-127.63782 546.66667,-120.97115 550,-117.63782"
           id="path6984" />
      </g>
      <path
         sodipodi:nodetypes="cssc"
         style="fill:none;fill-rule:evenodd;stroke:#75a9de;stroke-width:1px;stroke-linecap:butt;stroke-linejoin:miter;stroke-opacity:1"
         d="M 120,212.36218 C 120,222.36218 130,202.36218 140,202.36218 C 154.11255,202.36218 170,229.07214 170,212.36218 C 170,204.14837 205.91533,212.36218 210,212.36218"
         id="path6986" />
    </g>
    <g
       id="g17619"
       transform="matrix(0.392848,0,0,0.4156785,265.33734,955.16405)">
      <g
         id="g17621"
         style="fill:#f3f1d2;fill-opacity:1"
         transform="translate(-70,-39.999997)">
        <rect
           ry="0"
           y="-107.63782"
           x="290"
           height="100"
           width="170"
           id="rect17623"
           style="fill:#f3f1d2;fill-opacity:1;stroke:#000000;stroke-width:3;stroke-miterlimit:4;stroke-dasharray:none;stroke-dashoffset:0;stroke-opacity:1" />
        <path
           id="path17625"
           d="M 289.90789,-7.6378174 L 374.9696,-72.534821 L 460,-7.6378174 L 289.90789,-7.6378174 z"
           style="fill:#f3f1d2;fill-opacity:1;stroke:#000000;stroke-width:2.62664151;stroke-miterlimit:4;stroke-dasharray:none;stroke-dashoffset:0;stroke-opacity:1" />
        <path
           id="path17627"
           d="M 290.28125,-107.63782 L 375.15625,-22.794064 L 460,-107.63782 L 290.28125,-107.63782 z"
           style="fill:#f3f1d2;fill-opacity:1;stroke:#000000;stroke-width:3;stroke-miterlimit:4;stroke-dasharray:none;stroke-dashoffset:0;stroke-opacity:1" />
      </g>
    </g>
    <rect
       style="fill:none;fill-rule:evenodd;stroke:#e1e215;stroke-width:7.08661413;stroke-linecap:butt;stroke-linejoin:miter;stroke-miterlimit:4;stroke-dasharray:none;stroke-opacity:1"
       id="rect21981"
       width="19.737957"
       height="13.311646"
       x="384.01941"
       y="828.87482" />
    <path
       style="opacity:1;fill:#ff0000;fill-opacity:1;fill-rule:nonzero;stroke:#e1e215;stroke-width:2.83464575;stroke-linecap:butt;stroke-linejoin:miter;stroke-miterlimit:4;stroke-dasharray:none;stroke-dashoffset:0;stroke-opacity:1"
       id="path21985"
       d="M 356.76026,776.97829 C 358.67429,776.59141 360.62713,776.34848 362.57204,776.15852 C 365.74983,775.83221 368.93948,775.90981 372.11873,776.14832 C 374.34191,776.42285 376.61706,776.62399 378.76259,777.31496 C 379.72575,777.62515 380.16132,777.87689 381.04854,778.31327 C 381.52112,778.6817 383.38925,779.6852 383.63238,780.20162 C 384.22785,781.46641 384.53989,782.84633 385.01948,784.15945 C 386.16648,787.29999 387.52459,790.74338 388.73546,793.85677 C 391.18696,800.15883 393.71794,806.43013 396.143,812.74243 C 397.18978,815.66937 398.45309,818.51053 399.61206,821.39303 C 400.54418,823.80761 401.49796,826.21365 402.42273,828.63107 C 402.68471,829.44493 403.03205,830.22548 403.34123,831.02142 L 395.48371,835.34136 C 395.26731,834.51401 394.96537,833.71895 394.73088,832.89616 C 393.88055,830.45723 392.88792,828.07006 391.98736,825.64937 C 390.83906,822.73842 389.6263,819.84635 388.71498,816.84928 C 386.64018,810.36747 384.62737,803.86129 382.2107,797.49572 C 380.48174,793.15757 378.92935,788.69246 376.12859,784.89555 C 375.65203,784.2495 374.33846,783.62661 373.69146,783.16148 C 371.01336,781.84829 368.0893,781.33513 365.1225,781.16241 C 361.93151,780.98759 358.7345,780.97825 355.55711,781.37821 C 353.52784,781.64367 351.50128,781.95006 349.5104,782.43079 L 356.76026,776.97829 z" />
    <path
       style="opacity:1;fill:#ff0000;fill-opacity:1;fill-rule:nonzero;stroke:#e1e215;stroke-width:2.83464575;stroke-linecap:butt;stroke-linejoin:miter;stroke-miterlimit:4;stroke-dasharray:none;stroke-dashoffset:0;stroke-opacity:1"
       id="path21987"
       d="M 339.6133,859.64261 C 340.78139,862.73067 342.0455,865.77949 343.35785,868.80877 C 344.19698,870.95436 345.14355,873.04971 346.23389,875.07875 C 347.52425,877.40824 348.97869,879.6492 350.58734,881.77091 C 351.82628,883.3859 353.10553,884.97071 354.41959,886.52523 C 355.35063,887.45364 356.24374,888.41591 357.0466,889.45715 C 357.45238,890.01646 357.7683,890.63072 358.15458,891.20172 L 350.36073,895.75637 C 350.00724,895.19245 349.69509,894.60473 349.31248,894.05859 C 348.52566,893.02858 347.6583,892.06724 346.80584,891.09116 C 345.52293,889.49641 344.2006,887.9277 343.03545,886.2437 C 341.46533,884.05048 340.01333,881.763 338.60445,879.46545 C 337.44302,877.42752 336.53419,875.28452 335.76323,873.06849 C 334.51676,870.03441 333.51442,866.87512 331.88148,864.01737 L 339.6133,859.64261 z" />
    <path
       style="opacity:1;fill:#ff0000;fill-opacity:1;fill-rule:nonzero;stroke:#e1e215;stroke-width:2.83464575;stroke-linecap:butt;stroke-linejoin:miter;stroke-miterlimit:4;stroke-dasharray:none;stroke-dashoffset:0;stroke-opacity:1"
       id="path21989"
       d="M 330.18209,953.35754 C 331.56962,953.19733 332.87886,952.72803 334.14576,952.16107 C 336.75582,950.55121 341.21853,948.3514 328.92402,955.11929 C 328.58609,955.30532 329.56077,954.68324 329.8695,954.45195 C 330.79558,953.75815 330.9586,953.57895 331.83782,952.79683 C 334.09806,950.71886 335.73251,948.119 337.36536,945.54977 C 338.9731,942.9591 340.66083,940.42045 342.31484,937.85963 C 343.2624,936.42892 344.22809,935.01133 345.23001,933.61816 C 346.17044,932.31269 347.16612,931.05053 348.08732,929.73115 C 348.84451,928.696 349.41762,927.55668 350.0028,926.42209 C 350.5579,925.33764 350.94451,924.18473 351.35004,923.03963 C 351.71331,921.91402 352.06231,920.78417 352.27873,919.62033 C 352.30869,919.4611 352.33864,919.30188 352.3686,919.14265 L 360.51685,915.25116 C 360.46869,915.38938 360.42052,915.5276 360.37236,915.66582 C 360.18453,916.88822 359.81489,918.05343 359.47652,919.23941 C 359.07311,920.39429 358.72546,921.57602 358.1967,922.6806 C 357.69426,923.91859 356.96481,925.05685 356.2475,926.18224 C 355.33245,927.48973 354.39771,928.77791 353.45683,930.06593 C 352.38528,931.47832 351.37175,932.92609 350.31795,934.35207 C 348.61058,936.90342 346.90796,939.45606 345.28657,942.06389 C 343.64692,944.637 342.11208,947.30724 339.93135,949.4777 C 336.27508,953.04828 331.73062,955.4619 327.14209,957.68301 C 325.76345,958.2124 324.32623,958.62487 322.84199,958.69044 L 330.18209,953.35754 z" />
    <path
       style="opacity:1;fill:#ff0000;fill-opacity:1;fill-rule:nonzero;stroke:#e1e215;stroke-width:2.83464575;stroke-linecap:butt;stroke-linejoin:miter;stroke-miterlimit:4;stroke-dasharray:none;stroke-dashoffset:0;stroke-opacity:1"
       id="path21991"
       d="M 390.26888,891.73385 C 392.07958,891.4289 393.83879,890.92368 395.58893,890.37115 C 398.06867,889.58155 400.36185,888.36333 402.63262,887.1159 C 390.69876,894.13188 396.04082,891.28016 398.26571,889.0107 C 399.2525,888.00414 400.09677,886.88116 400.94215,885.75769 C 402.23354,883.96121 403.41265,882.08047 404.2472,880.02723 C 404.77336,878.76365 404.74361,877.4467 404.54455,876.1192 C 404.30233,874.78462 403.84372,873.5056 403.37586,872.23716 C 403.04027,871.23251 402.5061,870.33489 401.96548,869.43558 L 409.83358,864.91083 C 410.32895,865.88965 410.82205,866.867 411.19369,867.90189 C 411.67323,869.22295 412.21824,870.53066 412.4579,871.92377 C 412.71341,873.37173 412.85758,874.87789 412.33573,876.2847 C 411.49471,878.43962 410.26531,880.40287 408.94939,882.29867 C 407.83938,883.83931 406.69254,885.40991 405.33518,886.74719 C 402.94406,889.10294 396.33443,892.30266 395.80864,892.61161 C 393.50288,893.84462 391.14337,894.99136 388.63327,895.7525 C 386.78424,896.31927 384.9145,896.80011 383.01903,897.18635 L 390.26888,891.73385 z" />
    <text
       xml:space="preserve"
       style="font-size:18px;font-style:normal;font-weight:bold;writing-mode:lr-tb;fill:#000000;fill-opacity:1;stroke:none;stroke-width:1px;stroke-linecap:butt;stroke-linejoin:miter;stroke-opacity:1;font-family:Sans;-inkscape-font-specification:Sans"
       x="282.19217"
       y="1006.2061"
       id="text21993"><tspan
         sodipodi:role="line"
         id="tspan21995"
         x="282.19217"
         y="1006.2061">* regexes</tspan><tspan
         sodipodi:role="line"
         x="282.19217"
         y="1028.7061"
         id="tspan21997">* lexical analysis</tspan></text>
  </g>
</svg>
