<?xml version="1.0" encoding="UTF-8" standalone="no"?>
<!-- Created with Inkscape (http://www.inkscape.org/) -->
<svg
   xmlns:dc="http://purl.org/dc/elements/1.1/"
   xmlns:cc="http://creativecommons.org/ns#"
   xmlns:rdf="http://www.w3.org/1999/02/22-rdf-syntax-ns#"
   xmlns:svg="http://www.w3.org/2000/svg"
   xmlns="http://www.w3.org/2000/svg"
   xmlns:sodipodi="http://sodipodi.sourceforge.net/DTD/sodipodi-0.dtd"
   xmlns:inkscape="http://www.inkscape.org/namespaces/inkscape"
   width="453.5433"
   height="340.15747"
   id="svg2"
   sodipodi:version="0.32"
   inkscape:version="0.46"
   sodipodi:docname="extraction-people.svg"
   version="1.0"
   inkscape:output_extension="org.inkscape.output.svg.inkscape">
  <defs
     id="defs4">
    <inkscape:perspective
       sodipodi:type="inkscape:persp3d"
       inkscape:vp_x="0 : 170.07874 : 1"
       inkscape:vp_y="0 : 1000 : 0"
       inkscape:vp_z="453.5433 : 170.07874 : 1"
       inkscape:persp3d-origin="226.77165 : 113.38582 : 1"
       id="perspective22009" />
  </defs>
  <sodipodi:namedview
     id="base"
     pagecolor="#ffffff"
     bordercolor="#666666"
     borderopacity="1.0"
     gridtolerance="10000"
     guidetolerance="8.8"
     objecttolerance="10"
     inkscape:pageopacity="0.0"
     inkscape:pageshadow="2"
     inkscape:zoom="1.540463"
     inkscape:cx="226.77165"
     inkscape:cy="170.07874"
     inkscape:document-units="mm"
     inkscape:current-layer="layer1"
     inkscape:window-width="1024"
     inkscape:window-height="768"
     inkscape:window-x="0"
     inkscape:window-y="0"
     width="12.8cm"
     height="9.6cm"
     units="cm"
     showgrid="false"
     grid_units="mm"
     inkscape:object-paths="false"
     inkscape:grid-points="true"
     inkscape:grid-bbox="true"
     inkscape:guide-points="true"
     showguides="true"
     inkscape:guide-bbox="true">
    <sodipodi:guide
       orientation="vertical"
       position="56.476527"
       id="guide3573" />
    <sodipodi:guide
       orientation="horizontal"
       position="11.035643"
       id="guide3579" />
    <sodipodi:guide
       orientation="horizontal"
       position="24.018753"
       id="guide3886" />
    <sodipodi:guide
       orientation="horizontal"
       position="285.62841"
       id="guide3988" />
    <sodipodi:guide
       orientation="horizontal"
       position="303.15561"
       id="guide4081" />
    <inkscape:grid
       id="GridFromPre046Settings"
       type="xygrid"
       originx="0px"
       originy="0px"
       spacingx="2mm"
       spacingy="2mm"
       color="#0000ff"
       empcolor="#0000ff"
       opacity="0.2"
       empopacity="0.4"
       empspacing="5" />
  </sodipodi:namedview>
  <metadata
     id="metadata7">
    <rdf:RDF>
      <cc:Work
         rdf:about="">
        <dc:format>image/svg+xml</dc:format>
        <dc:type
           rdf:resource="http://purl.org/dc/dcmitype/StillImage" />
      </cc:Work>
    </rdf:RDF>
  </metadata>
  <g
     inkscape:label="Layer 1"
     inkscape:groupmode="layer"
     id="layer1"
     transform="translate(4.149475e-6,-698.0315)">
    <path
       style="fill:#ff5555;fill-rule:evenodd;stroke:#000000;stroke-width:1px;stroke-linecap:butt;stroke-linejoin:miter;stroke-opacity:1"
       d="M 394.1875,81.6875 C 393.83439,81.672466 392.78251,82.093122 390.78125,83.09375 C 383.81947,86.574638 377.23167,91.053886 370.65625,95.4375 C 361.8314,101.32072 351.44463,103.73081 342.09375,108.40625 C 333.63431,112.63597 323.11392,113.86827 314.1875,116.84375 C 304.05661,119.97405 293.4521,120.93846 283.03125,122.6875 C 276.42053,124.22563 269.61184,124.38216 262.90625,125.28125 C 256.92225,126.27858 249.99272,121.80479 244.71875,120.75 C 239.07515,119.62128 238.39459,116.5392 236.28125,112.3125 C 235.06653,109.88307 230.81259,108.12508 229.15625,106.46875 C 227.65923,104.97174 225.09434,104.49386 222,103.875 C 223.76723,107.8559 220.83446,112.32798 218.125,116.84375 C 214.76244,122.44801 210.47704,127.02628 205.78125,129.84375 C 201.33239,132.51307 189.69973,130.46875 185,130.46875 C 177.14508,130.46874 167.9624,127.84216 160.34375,125.9375 C 151.96721,123.84337 143.14783,123.34039 135.03125,120.09375 C 127.64002,117.13726 119.39114,114.48771 112.3125,111.65625 C 103.68136,108.20379 95.122385,102.16341 86.34375,99.96875 C 79.11619,98.161862 70.308943,92.766514 67.5,93.46875 C 67.282198,93.523203 76.029883,102.11141 76.59375,102.5625 C 80.49438,105.68301 85.543986,109.97511 90.21875,112.3125 C 95.877272,115.14176 101.77676,118.8223 107.125,122.03125 C 113.99483,126.15314 121.35937,129.47657 128.53125,133.0625 C 136.3056,136.94968 143.97536,140.95264 151.90625,144.125 C 160.8056,147.68473 169.14566,153.02419 177.21875,158.40625 C 185.26639,163.77134 192.24393,168.2315 198,175.90625 C 204.21647,184.19488 204.46875,195.68653 204.46875,205.78125 C 204.46875,215.99926 205.67382,225.71676 207.09375,235.65625 C 207.31013,237.17095 207.50237,238.6728 207.71875,240.1875 C 209.38372,251.84229 210.96875,264.18918 210.96875,275.90625 C 210.96876,282.26658 211.72268,289.92593 212.9375,296 C 213.44949,298.55997 215.69815,302.86505 216.8125,305.09375 C 219.55106,310.57088 226.71935,296.59275 227.84375,294.71875 C 232.60015,286.79142 235.40385,277.00481 239.53125,268.75 C 244.18896,259.43455 245.79897,248.76608 248.625,238.875 C 249.05776,237.3603 249.50473,235.85844 249.9375,234.34375 C 251.34309,229.42417 251.98577,224.08815 253.15625,219.40625 C 254.18595,215.28745 253.75989,209.13647 256.40625,203.84375 C 268.64253,171.22942 278.7356,173.48269 307.6875,192.15625 C 314.27976,195.45238 320.15716,200.18036 325.875,204.46875 C 330.91944,208.25208 335.76788,212.37279 340.8125,216.15625 C 344.2192,218.71128 346.92606,222.26982 349.90625,225.25 C 353.00351,228.34726 356.03884,231.70266 357.6875,235 C 359.48875,238.60251 359.625,243.83925 359.625,248.625 C 359.625,252.5973 350.97241,256.19116 353.78125,259 C 358.4589,260.87106 356.9545,258.59811 358.34375,255.125 C 359.6419,251.87962 360.47202,248.8356 361.59375,246.03125 C 363.13464,242.17904 363.96738,238.09715 365.46875,234.34375 C 366.85053,230.88929 367.88668,226.8282 370.03125,223.96875 C 372.86855,220.18568 374.33639,219.31434 379.09375,218.125 C 381.76889,217.45622 384.81608,216.8125 388.84375,216.8125 C 391.91469,216.8125 395.58155,217.36017 398.59375,216.8125 C 401.13225,216.35095 410.20427,210.96876 408.3125,210.96875 C 404.13411,210.96875 400.67504,210.3125 396.625,210.3125 C 392.42648,210.3125 388.5404,209.6875 384.3125,209.6875 C 380.83721,209.6875 377.78714,209.03125 374.5625,209.03125 C 370.42817,209.03125 366.32883,208.12127 362.21875,207.09375 C 358.58744,206.18592 351.9794,205.91691 349.25,203.1875 C 349.03361,202.97112 348.86745,202.6681 348.59375,202.53125 C 344.56122,200.51498 340.42991,197.79308 336.90625,196.03125 C 332.96809,194.06217 330.36357,192.10367 326.53125,190.1875 C 324.76633,189.30505 320.0431,186.94936 318.75,185.65625 C 316.69483,183.60108 313.4976,182.39856 310.28125,180.46875 C 307.08647,178.55189 304.71203,176.37163 301.21875,174.625 C 297.39521,172.71323 296.15164,171.96529 292.78125,169.4375 C 270.25251,155.74959 300.55815,141.34813 313.53125,133.71875 C 325.11449,127.09975 336.75924,118.85476 348.59375,112.9375 C 360.45682,107.00596 370.99392,97.684896 382.34375,90.875 C 384.33468,89.680444 395.71763,81.752647 394.1875,81.6875 z"
       transform="translate(-4.149475e-6,698.0315)"
       id="path22138"
       sodipodi:nodetypes="cssscccssscssssssssssssssssssssssssssccssssscsssssssssssssssssssccssc" />
    <g
       inkscape:export-ydpi="33.007736"
       inkscape:export-xdpi="33.007736"
       inkscape:export-filename="/home/abez/clip-art-so-far.png"
       transform="matrix(-0.3815051,0,0,0.3815051,465.09535,1049.2258)"
       id="g10977">
      <path
         style="fill:#404aec;fill-opacity:1;fill-rule:evenodd;stroke:#000000;stroke-width:1px;stroke-linecap:butt;stroke-linejoin:miter;stroke-opacity:1"
         d="M 480,-447.63782 C 480,-447.63782 585.98508,-849.6826 720,-447.63782 C 740,-387.63782 460,-387.63782 480,-447.63782 z"
         id="path10979"
         sodipodi:nodetypes="csc" />
      <path
         sodipodi:type="arc"
         style="fill:#e98732;fill-opacity:1;stroke:#000000;stroke-width:2;stroke-miterlimit:4;stroke-dasharray:none;stroke-dashoffset:0;stroke-opacity:1"
         id="path10981"
         sodipodi:cx="20"
         sodipodi:cy="-407.63782"
         sodipodi:rx="80"
         sodipodi:ry="80"
         d="M 100,-407.63782 A 80,80 0 1 1 -60,-407.63782 A 80,80 0 1 1 100,-407.63782 z"
         transform="translate(580,-220)" />
      <path
         style="fill:#000000;fill-rule:evenodd;stroke:#000000;stroke-width:1px;stroke-linecap:butt;stroke-linejoin:miter;stroke-opacity:1"
         d="M 640,-747.63782 C 607.01397,-749.7842 560,-738.08502 560,-707.63782 C 560,-700.97115 546.66667,-707.63782 540,-707.63782 C 465.81162,-707.63782 594.18838,-687.63782 520,-687.63782 C 451.56966,-687.63782 568.43034,-667.63782 500,-667.63782 C 486.66667,-667.63782 500,-640.97115 500,-627.63782 C 500,-607.63782 540,-627.63782 560,-627.63782 C 634.16223,-627.63782 505.83777,-647.63782 580,-647.63782 C 580,-674.30448 573.33333,-667.63782 600,-667.63782 C 606.66667,-667.63782 600,-680.97115 600,-687.63782 C 600,-700.97115 626.66667,-687.63782 640,-687.63782 C 663.74196,-687.63782 676.97077,-747.63782 640,-747.63782 z"
         id="path10983" />
    </g>
    <g
       id="g16492"
       transform="translate(118.63326,364.43176)">
      <path
         id="path16438"
         d="M 93.047115,620.47873 C 91.329753,618.01315 85.003124,613.35278 82.030582,610.38024 C 78.688053,607.03771 70.447687,606.84965 67.34187,607.62611 C 62.408085,608.85955 59.006786,613.23128 56.325336,616.80655 C 53.34334,620.78255 53.95915,627.18934 52.653158,632.41331 C 51.032052,638.89773 54.410723,642.35475 56.325336,646.18397 C 58.069634,649.67257 63.4321,650.6554 67.34187,652.61029 C 71.90478,654.89174 78.060519,650.84867 82.030582,649.85615 C 87.769234,648.42149 91.18808,647.09055 96.719293,649.85615 C 106.98803,654.99052 111.75194,657.48756 121.50649,652.61029 C 126.21939,650.25384 128.30045,648.93811 133.44107,648.93811 C 134.49776,648.93811 140.56054,654.33393 142.62152,655.36442 C 147.87727,657.9923 149.36925,659.64477 155.47414,658.11855 C 160.26162,656.92168 163.47942,652.86741 165.57263,650.7742 C 168.45467,647.89216 169.17625,645.54018 170.16285,641.59375 C 170.99637,638.25967 167.10903,631.21456 166.49068,628.74113 C 165.5788,625.09363 162.38314,621.44411 160.98241,618.64264 C 159.76827,616.21436 154.26166,612.22501 151.80196,610.38024 C 148.2969,607.75144 145.15374,605.96405 140.78543,604.87197 C 137.09601,603.94962 132.35778,603.76573 127.93281,604.87197 C 119.54425,606.96911 109.24106,603.43096 109.24106,614.05242 C 109.24106,626.55974 92.189871,617.04975 93.96516,624.15091"
         style="fill:#ffff00;fill-rule:evenodd;stroke:#000000;stroke-width:1px;stroke-linecap:butt;stroke-linejoin:miter;stroke-opacity:1" />
      <g
         transform="matrix(8.1393393e-2,0,0,8.1393393e-2,170.29972,563.06044)"
         id="g16335">
        <g
           id="g16337"
           transform="translate(-518.57143,65.714286)">
          <path
             transform="translate(58.389218,829.44544)"
             d="M 344.28572,56.647896 L 166.51272,55.437218 L -6.219758,53.29804 L 83.715219,-100.05255 L 171.93404,-248.57368 L 259.77206,-94.012408 L 344.28572,56.647896 z"
             inkscape:randomized="0"
             inkscape:rounded="0"
             inkscape:flatsided="false"
             sodipodi:arg2="1.6050908"
             sodipodi:arg1="0.5331557"
             sodipodi:r2="101.70627"
             sodipodi:r1="202.37367"
             sodipodi:cy="-46.209248"
             sodipodi:cx="170"
             sodipodi:sides="3"
             id="path16339"
             style="fill:#000000;stroke-width:5;stroke-miterlimit:4;stroke-dasharray:none"
             sodipodi:type="star" />
          <path
             transform="matrix(0.7800193,0,0,0.7800193,99.416579,818.80339)"
             d="M 344.28572,56.647896 L 166.51272,55.437218 L -6.219758,53.29804 L 83.715219,-100.05255 L 171.93404,-248.57368 L 259.77206,-94.012408 L 344.28572,56.647896 z"
             inkscape:randomized="0"
             inkscape:rounded="0"
             inkscape:flatsided="false"
             sodipodi:arg2="1.6050908"
             sodipodi:arg1="0.5331557"
             sodipodi:r2="101.70627"
             sodipodi:r1="202.37367"
             sodipodi:cy="-46.209248"
             sodipodi:cx="170"
             sodipodi:sides="3"
             id="path16341"
             style="fill:#ff0000;stroke-width:5;stroke-miterlimit:4;stroke-dasharray:none"
             sodipodi:type="star" />
          <path
             d="M 57.980037,905.58441 C 94.025089,907.33981 130.12003,907.78139 166.19739,908.4049 C 250.4897,911.65825 334.80227,914.04033 419.15102,915.04281 L 410.91813,920.99547 C 326.25121,918.07788 241.54946,915.74274 156.83048,915.21035 C 118.16504,915.84825 79.486769,916.3421 40.848979,918.03085 L 57.980037,905.58441 z"
             id="path16343"
             style="fill:#ff0000;stroke-width:5;stroke-miterlimit:4;stroke-dasharray:none" />
        </g>
      </g>
      <g
         transform="matrix(8.1393393e-2,0,0,8.1393393e-2,57.540953,564.73423)"
         id="g16345">
        <g
           id="g16347">
          <path
             transform="translate(28.389222,872.30258)"
             d="M 344.28572,56.647896 L 166.51272,55.437218 L -6.219758,53.29804 L 83.715219,-100.05255 L 171.93404,-248.57368 L 259.77206,-94.012408 L 344.28572,56.647896 z"
             inkscape:randomized="0"
             inkscape:rounded="0"
             inkscape:flatsided="false"
             sodipodi:arg2="1.6050908"
             sodipodi:arg1="0.5331557"
             sodipodi:r2="101.70627"
             sodipodi:r1="202.37367"
             sodipodi:cy="-46.209248"
             sodipodi:cx="170"
             sodipodi:sides="3"
             id="path16349"
             style="fill:#000000;stroke-width:5;stroke-miterlimit:4;stroke-dasharray:none"
             sodipodi:type="star" />
          <path
             transform="matrix(0.7800193,0,0,0.7800193,69.416582,861.66053)"
             d="M 344.28572,56.647896 L 166.51272,55.437218 L -6.219758,53.29804 L 83.715219,-100.05255 L 171.93404,-248.57368 L 259.77206,-94.012408 L 344.28572,56.647896 z"
             inkscape:randomized="0"
             inkscape:rounded="0"
             inkscape:flatsided="false"
             sodipodi:arg2="1.6050908"
             sodipodi:arg1="0.5331557"
             sodipodi:r2="101.70627"
             sodipodi:r1="202.37367"
             sodipodi:cy="-46.209248"
             sodipodi:cx="170"
             sodipodi:sides="3"
             id="path16351"
             style="fill:#0000ff;stroke-width:5;stroke-miterlimit:4;stroke-dasharray:none"
             sodipodi:type="star" />
          <path
             d="M 27.980042,948.44155 C 64.025092,950.1969 100.12003,950.6385 136.19739,951.262 C 220.4897,954.5154 304.80227,956.8975 389.15102,957.8999 L 380.91813,963.8526 C 296.25121,960.935 211.54946,958.5999 126.83048,958.0675 C 88.165042,958.7054 49.486772,959.1992 10.848982,960.888 L 27.980042,948.44155 z"
             id="path16353"
             style="fill:#0000ff;stroke-width:5;stroke-miterlimit:4;stroke-dasharray:none" />
        </g>
      </g>
      <g
         transform="matrix(8.1393393e-2,0,0,8.1393393e-2,56.517753,567.9666)"
         id="g16355">
        <g
           id="g16357"
           transform="translate(2.8571414,-8.5714286)">
          <path
             transform="translate(478.38922,853.73116)"
             d="M 344.28572,56.647896 L 166.51272,55.437218 L -6.219758,53.29804 L 83.715219,-100.05255 L 171.93404,-248.57368 L 259.77206,-94.012408 L 344.28572,56.647896 z"
             inkscape:randomized="0"
             inkscape:rounded="0"
             inkscape:flatsided="false"
             sodipodi:arg2="1.6050908"
             sodipodi:arg1="0.5331557"
             sodipodi:r2="101.70627"
             sodipodi:r1="202.37367"
             sodipodi:cy="-46.209248"
             sodipodi:cx="170"
             sodipodi:sides="3"
             id="path16359"
             style="fill:#000000;stroke-width:5;stroke-miterlimit:4;stroke-dasharray:none"
             sodipodi:type="star" />
          <path
             transform="matrix(0.7800193,0,0,0.7800193,519.41658,843.08911)"
             d="M 344.28572,56.647896 L 166.51272,55.437218 L -6.219758,53.29804 L 83.715219,-100.05255 L 171.93404,-248.57368 L 259.77206,-94.012408 L 344.28572,56.647896 z"
             inkscape:randomized="0"
             inkscape:rounded="0"
             inkscape:flatsided="false"
             sodipodi:arg2="1.6050908"
             sodipodi:arg1="0.5331557"
             sodipodi:r2="101.70627"
             sodipodi:r1="202.37367"
             sodipodi:cy="-46.209248"
             sodipodi:cx="170"
             sodipodi:sides="3"
             id="path16361"
             style="fill:#00ff00;stroke-width:5;stroke-miterlimit:4;stroke-dasharray:none"
             sodipodi:type="star" />
          <path
             d="M 477.98004,929.87013 C 514.02509,931.62548 550.12003,932.06708 586.19739,932.69058 C 670.4897,935.94398 754.80227,938.32608 839.15102,939.32848 L 830.91813,945.28118 C 746.25121,942.36358 661.54946,940.02848 576.83048,939.49608 C 538.16504,940.13398 499.48677,940.62778 460.84898,942.31658 L 477.98004,929.87013 z"
             id="path16363"
             style="fill:#00ff00;stroke-width:5;stroke-miterlimit:4;stroke-dasharray:none" />
        </g>
      </g>
      <g
         transform="translate(130.68694,58.754847)"
         id="g16474">
        <path
           style="fill:#ff00ff;fill-rule:evenodd;stroke:#000000;stroke-width:1px;stroke-linecap:butt;stroke-linejoin:miter;stroke-opacity:1"
           d="M -2.9094862,514.07437 C -1.1921242,511.60879 5.1345048,506.94842 8.1070468,503.97588 C 11.449576,500.63335 19.689942,500.44529 22.795759,501.22175 C 27.729544,502.45519 31.130843,506.82692 33.812293,510.40219 C 36.794289,514.37819 36.178479,520.78498 37.484471,526.00895 C 39.105577,532.49337 35.726906,535.95039 33.812293,539.77961 C 32.067995,543.26821 26.705529,544.25104 22.795759,546.20593 C 18.232849,548.48738 12.07711,544.44431 8.1070468,543.45179 C 2.3683948,542.01713 -1.0504512,540.68619 -6.5816642,543.45179 C -16.850401,548.58616 -21.614311,551.0832 -31.368865,546.20593 C -36.081765,543.84948 -38.162816,542.53375 -43.303444,542.53375 C -44.360128,542.53375 -50.422915,547.92957 -52.483889,548.96006 C -57.739642,551.58794 -59.231621,553.24041 -65.336512,551.71419 C -70.123992,550.51732 -73.341792,546.46305 -75.435002,544.36984 C -78.317042,541.4878 -79.038622,539.13582 -80.025222,535.18939 C -80.858742,531.85531 -76.971402,524.8102 -76.353052,522.33677 C -75.441172,518.68927 -72.245512,515.03975 -70.844782,512.23828 C -69.630642,509.81 -64.124032,505.82065 -61.66433,503.97588 C -58.159271,501.34708 -55.016113,499.55969 -50.6478,498.46761 C -46.958384,497.54526 -42.220148,497.36137 -37.795177,498.46761 C -29.40662,500.56475 -19.103433,497.0266 -19.103433,507.64806 C -19.103433,520.15538 -2.0522422,510.64539 -3.8275312,517.74655"
           id="path16442" />
        <g
           id="g16444"
           transform="matrix(-8.1393393e-2,0,0,8.1393393e-2,-78.326003,454.81999)">
          <g
             transform="translate(-518.57143,65.714286)"
             id="g16446">
            <path
               sodipodi:type="star"
               style="fill:#000000;stroke-width:5;stroke-miterlimit:4;stroke-dasharray:none"
               id="path16448"
               sodipodi:sides="3"
               sodipodi:cx="170"
               sodipodi:cy="-46.209248"
               sodipodi:r1="202.37367"
               sodipodi:r2="101.70627"
               sodipodi:arg1="0.5331557"
               sodipodi:arg2="1.6050908"
               inkscape:flatsided="false"
               inkscape:rounded="0"
               inkscape:randomized="0"
               d="M 344.28572,56.647896 L 166.51272,55.437218 L -6.219758,53.29804 L 83.715219,-100.05255 L 171.93404,-248.57368 L 259.77206,-94.012408 L 344.28572,56.647896 z"
               transform="translate(58.389218,829.44544)" />
            <path
               sodipodi:type="star"
               style="fill:#ff0000;stroke-width:5;stroke-miterlimit:4;stroke-dasharray:none"
               id="path16450"
               sodipodi:sides="3"
               sodipodi:cx="170"
               sodipodi:cy="-46.209248"
               sodipodi:r1="202.37367"
               sodipodi:r2="101.70627"
               sodipodi:arg1="0.5331557"
               sodipodi:arg2="1.6050908"
               inkscape:flatsided="false"
               inkscape:rounded="0"
               inkscape:randomized="0"
               d="M 344.28572,56.647896 L 166.51272,55.437218 L -6.219758,53.29804 L 83.715219,-100.05255 L 171.93404,-248.57368 L 259.77206,-94.012408 L 344.28572,56.647896 z"
               transform="matrix(0.7800193,0,0,0.7800193,99.416579,818.80339)" />
            <path
               style="fill:#ff0000;stroke-width:5;stroke-miterlimit:4;stroke-dasharray:none"
               id="path16452"
               d="M 57.980037,905.58441 C 94.025089,907.33981 130.12003,907.78139 166.19739,908.4049 C 250.4897,911.65825 334.80227,914.04033 419.15102,915.04281 L 410.91813,920.99547 C 326.25121,918.07788 241.54946,915.74274 156.83048,915.21035 C 118.16504,915.84825 79.486769,916.3421 40.848979,918.03085 L 57.980037,905.58441 z" />
          </g>
        </g>
        <g
           id="g16454"
           transform="matrix(-8.1393393e-2,0,0,8.1393393e-2,34.432765,456.49378)">
          <g
             id="g16456">
            <path
               sodipodi:type="star"
               style="fill:#000000;stroke-width:5;stroke-miterlimit:4;stroke-dasharray:none"
               id="path16458"
               sodipodi:sides="3"
               sodipodi:cx="170"
               sodipodi:cy="-46.209248"
               sodipodi:r1="202.37367"
               sodipodi:r2="101.70627"
               sodipodi:arg1="0.5331557"
               sodipodi:arg2="1.6050908"
               inkscape:flatsided="false"
               inkscape:rounded="0"
               inkscape:randomized="0"
               d="M 344.28572,56.647896 L 166.51272,55.437218 L -6.219758,53.29804 L 83.715219,-100.05255 L 171.93404,-248.57368 L 259.77206,-94.012408 L 344.28572,56.647896 z"
               transform="translate(28.389222,872.30258)" />
            <path
               sodipodi:type="star"
               style="fill:#0000ff;stroke-width:5;stroke-miterlimit:4;stroke-dasharray:none"
               id="path16460"
               sodipodi:sides="3"
               sodipodi:cx="170"
               sodipodi:cy="-46.209248"
               sodipodi:r1="202.37367"
               sodipodi:r2="101.70627"
               sodipodi:arg1="0.5331557"
               sodipodi:arg2="1.6050908"
               inkscape:flatsided="false"
               inkscape:rounded="0"
               inkscape:randomized="0"
               d="M 344.28572,56.647896 L 166.51272,55.437218 L -6.219758,53.29804 L 83.715219,-100.05255 L 171.93404,-248.57368 L 259.77206,-94.012408 L 344.28572,56.647896 z"
               transform="matrix(0.7800193,0,0,0.7800193,69.416582,861.66053)" />
            <path
               style="fill:#0000ff;stroke-width:5;stroke-miterlimit:4;stroke-dasharray:none"
               id="path16462"
               d="M 27.980042,948.44155 C 64.025092,950.1969 100.12003,950.6385 136.19739,951.262 C 220.4897,954.5154 304.80227,956.8975 389.15102,957.8999 L 380.91813,963.8526 C 296.25121,960.935 211.54946,958.5999 126.83048,958.0675 C 88.165042,958.7054 49.486772,959.1992 10.848982,960.888 L 27.980042,948.44155 z" />
          </g>
        </g>
        <g
           id="g16464"
           transform="matrix(-8.1393393e-2,0,0,8.1393393e-2,35.455965,459.72615)">
          <g
             transform="translate(2.8571414,-8.5714286)"
             id="g16466">
            <path
               sodipodi:type="star"
               style="fill:#000000;stroke-width:5;stroke-miterlimit:4;stroke-dasharray:none"
               id="path16468"
               sodipodi:sides="3"
               sodipodi:cx="170"
               sodipodi:cy="-46.209248"
               sodipodi:r1="202.37367"
               sodipodi:r2="101.70627"
               sodipodi:arg1="0.5331557"
               sodipodi:arg2="1.6050908"
               inkscape:flatsided="false"
               inkscape:rounded="0"
               inkscape:randomized="0"
               d="M 344.28572,56.647896 L 166.51272,55.437218 L -6.219758,53.29804 L 83.715219,-100.05255 L 171.93404,-248.57368 L 259.77206,-94.012408 L 344.28572,56.647896 z"
               transform="translate(478.38922,853.73116)" />
            <path
               sodipodi:type="star"
               style="fill:#00ff00;stroke-width:5;stroke-miterlimit:4;stroke-dasharray:none"
               id="path16470"
               sodipodi:sides="3"
               sodipodi:cx="170"
               sodipodi:cy="-46.209248"
               sodipodi:r1="202.37367"
               sodipodi:r2="101.70627"
               sodipodi:arg1="0.5331557"
               sodipodi:arg2="1.6050908"
               inkscape:flatsided="false"
               inkscape:rounded="0"
               inkscape:randomized="0"
               d="M 344.28572,56.647896 L 166.51272,55.437218 L -6.219758,53.29804 L 83.715219,-100.05255 L 171.93404,-248.57368 L 259.77206,-94.012408 L 344.28572,56.647896 z"
               transform="matrix(0.7800193,0,0,0.7800193,519.41658,843.08911)" />
            <path
               style="fill:#00ff00;stroke-width:5;stroke-miterlimit:4;stroke-dasharray:none"
               id="path16472"
               d="M 477.98004,929.87013 C 514.02509,931.62548 550.12003,932.06708 586.19739,932.69058 C 670.4897,935.94398 754.80227,938.32608 839.15102,939.32848 L 830.91813,945.28118 C 746.25121,942.36358 661.54946,940.02848 576.83048,939.49608 C 538.16504,940.13398 499.48677,940.62778 460.84898,942.31658 L 477.98004,929.87013 z" />
          </g>
        </g>
      </g>
    </g>
    <g
       id="g8578"
       transform="translate(-109.57313,-35.10048)">
      <g
         inkscape:transform-center-y="-9.4055005"
         inkscape:transform-center-x="-17.230859"
         transform="matrix(0.6869423,-0.726712,0.726712,0.6869423,-606.64287,330.73117)"
         id="g8554">
        <path
           style="fill:#999999;fill-rule:evenodd;stroke:#000000;stroke-width:1px;stroke-linecap:butt;stroke-linejoin:miter;stroke-opacity:1"
           d="M 173.97367,202.53651 C 177.0869,202.75366 184.66943,201.96467 189.5534,203.18566 C 193.49762,204.17172 196.62765,202.15319 195.3958,207.0806 C 194.64024,210.10285 191.50745,209.67722 188.25509,209.67722 C 185.03913,209.67722 181.81734,209.02806 177.8686,209.02806 C 172.35413,209.02806 175.01509,207.74359 173.97367,202.53651 z"
           id="path8556"
           transform="translate(-4.149475e-6,698.0315)" />
        <path
           style="fill:#999999;fill-rule:evenodd;stroke:#000000;stroke-width:1px;stroke-linecap:butt;stroke-linejoin:miter;stroke-opacity:1"
           d="M 194.74664,203.18566 C 188.10353,203.18566 204.52384,206.69908 209.67722,207.72975 C 214.75966,208.74624 217.1526,210.3062 215.51962,213.57215 C 213.43903,217.73333 210.8422,215.77753 207.72975,214.22131 C 204.30762,212.51024 201.65915,211.89221 197.99242,210.97553 C 194.55945,210.11729 192.58383,210.53862 193.44833,207.0806 C 193.52255,206.78372 193.8811,206.64783 194.09749,206.43144 C 194.87768,205.65125 194.53026,204.26759 194.74664,203.18566 z"
           id="path8558"
           transform="translate(-4.149475e-6,698.0315)" />
        <path
           style="fill:#999999;fill-rule:evenodd;stroke:#000000;stroke-width:1px;stroke-linecap:butt;stroke-linejoin:miter;stroke-opacity:1"
           d="M 216.16878,212.27384 C 218.28717,210.15545 219.05894,220.837 218.7654,222.01117 C 217.64553,226.49064 216.16878,225.41881 216.16878,221.36202 C 216.16878,216.67139 214.47406,217.358 216.16878,212.27384 z"
           id="path8560"
           transform="translate(-4.149475e-6,698.0315)" />
      </g>
      <g
         inkscape:transform-center-y="-2.5626269"
         inkscape:transform-center-x="-18.664832"
         transform="matrix(0.9361058,-0.3517186,0.3517186,0.9361058,-277.10532,65.337672)"
         id="g8562">
        <path
           style="fill:#999999;fill-rule:evenodd;stroke:#000000;stroke-width:1px;stroke-linecap:butt;stroke-linejoin:miter;stroke-opacity:1"
           d="M 173.97367,202.53651 C 177.0869,202.75366 184.66943,201.96467 189.5534,203.18566 C 193.49762,204.17172 196.62765,202.15319 195.3958,207.0806 C 194.64024,210.10285 191.50745,209.67722 188.25509,209.67722 C 185.03913,209.67722 181.81734,209.02806 177.8686,209.02806 C 172.35413,209.02806 175.01509,207.74359 173.97367,202.53651 z"
           id="path8564"
           transform="translate(-4.149475e-6,698.0315)" />
        <path
           style="fill:#999999;fill-rule:evenodd;stroke:#000000;stroke-width:1px;stroke-linecap:butt;stroke-linejoin:miter;stroke-opacity:1"
           d="M 194.74664,203.18566 C 188.10353,203.18566 204.52384,206.69908 209.67722,207.72975 C 214.75966,208.74624 217.1526,210.3062 215.51962,213.57215 C 213.43903,217.73333 210.8422,215.77753 207.72975,214.22131 C 204.30762,212.51024 201.65915,211.89221 197.99242,210.97553 C 194.55945,210.11729 192.58383,210.53862 193.44833,207.0806 C 193.52255,206.78372 193.8811,206.64783 194.09749,206.43144 C 194.87768,205.65125 194.53026,204.26759 194.74664,203.18566 z"
           id="path8566"
           transform="translate(-4.149475e-6,698.0315)" />
        <path
           style="fill:#999999;fill-rule:evenodd;stroke:#000000;stroke-width:1px;stroke-linecap:butt;stroke-linejoin:miter;stroke-opacity:1"
           d="M 216.16878,212.27384 C 218.28717,210.15545 219.05894,220.837 218.7654,222.01117 C 217.64553,226.49064 216.16878,225.41881 216.16878,221.36202 C 216.16878,216.67139 214.47406,217.358 216.16878,212.27384 z"
           id="path8568"
           transform="translate(-4.149475e-6,698.0315)" />
      </g>
      <path
         id="path8517"
         d="M 168.43702,816.64349 C 166.88119,817.44619 159.57768,816.79692 156.54624,817.66505 C 152.78577,818.74198 148.27559,818.35046 145.23236,818.38898 C 142.16877,818.42778 137.90055,819.35282 134.79303,819.39216 C 130.19104,819.45044 123.70639,821.19482 119.44085,822.19957 C 115.42387,823.14575 111.44109,824.13549 107.58684,826.12401 C 101.53481,829.24642 102.07269,830.18243 103.65879,836.91612 C 104.43193,840.19839 109.6593,841.72336 111.5664,842.33234 C 115.40798,843.55905 119.59079,845.85844 122.65616,846.83728 C 126.56397,848.08514 128.31443,849.24056 132.27608,849.90915 C 135.89236,850.51947 141.12862,853.13695 144.51964,853.81881 C 148.67766,854.6549 152.69795,856.51571 156.46554,857.15157 C 161.05451,857.92603 165.26411,860.08481 169.28599,860.76359 C 173.90771,861.54357 178.7842,862.83286 182.68335,864.07795 C 186.62815,865.33762 192.10214,862.17519 195.13265,861.3073 C 198.46377,860.35335 200.77861,857.81014 203.19087,855.68893 C 205.70607,853.47718 207.15025,852.23691 208.92312,849.80966 C 210.13391,848.15194 212.0115,847.05791 213.2223,845.4002"
         style="fill:#ffff00;fill-rule:evenodd;stroke:#000000;stroke-width:1px;stroke-linecap:butt;stroke-linejoin:miter;stroke-opacity:1" />
      <g
         inkscape:transform-center-y="-5.3357144"
         inkscape:transform-center-x="-18.530437"
         transform="matrix(0.8626047,-0.5058784,0.5058784,0.8626047,-418.58914,137.91099)"
         id="g8570">
        <path
           style="fill:#999999;fill-rule:evenodd;stroke:#000000;stroke-width:1px;stroke-linecap:butt;stroke-linejoin:miter;stroke-opacity:1"
           d="M 173.97367,202.53651 C 177.0869,202.75366 184.66943,201.96467 189.5534,203.18566 C 193.49762,204.17172 196.62765,202.15319 195.3958,207.0806 C 194.64024,210.10285 191.50745,209.67722 188.25509,209.67722 C 185.03913,209.67722 181.81734,209.02806 177.8686,209.02806 C 172.35413,209.02806 175.01509,207.74359 173.97367,202.53651 z"
           id="path8572"
           transform="translate(-4.149475e-6,698.0315)" />
        <path
           style="fill:#999999;fill-rule:evenodd;stroke:#000000;stroke-width:1px;stroke-linecap:butt;stroke-linejoin:miter;stroke-opacity:1"
           d="M 194.74664,203.18566 C 188.10353,203.18566 204.52384,206.69908 209.67722,207.72975 C 214.75966,208.74624 217.1526,210.3062 215.51962,213.57215 C 213.43903,217.73333 210.8422,215.77753 207.72975,214.22131 C 204.30762,212.51024 201.65915,211.89221 197.99242,210.97553 C 194.55945,210.11729 192.58383,210.53862 193.44833,207.0806 C 193.52255,206.78372 193.8811,206.64783 194.09749,206.43144 C 194.87768,205.65125 194.53026,204.26759 194.74664,203.18566 z"
           id="path8574"
           transform="translate(-4.149475e-6,698.0315)" />
        <path
           style="fill:#999999;fill-rule:evenodd;stroke:#000000;stroke-width:1px;stroke-linecap:butt;stroke-linejoin:miter;stroke-opacity:1"
           d="M 216.16878,212.27384 C 218.28717,210.15545 219.05894,220.837 218.7654,222.01117 C 217.64553,226.49064 216.16878,225.41881 216.16878,221.36202 C 216.16878,216.67139 214.47406,217.358 216.16878,212.27384 z"
           id="path8576"
           transform="translate(-4.149475e-6,698.0315)" />
      </g>
      <path
         transform="translate(-4.149475e-6,698.0315)"
         id="path7986"
         d="M 141.51589,123.9887 C 140.65074,123.9887 145.53905,129.95932 150.60407,135.02434 C 153.90536,138.32563 157.85424,141.27341 161.63971,144.11252 C 165.56522,147.05664 171.28276,150.3067 175.27198,151.90238 C 179.7293,153.68531 182.9919,156.4115 186.95678,158.39394 C 191.13652,160.4838 196.21582,162.49387 200.58904,163.58718 C 205.60334,164.84075 209.43866,165.53465 214.87046,165.53465 C 218.65441,165.53465 222.698,163.54951 224.6078,161.63971 C 227.88179,158.36572 227.11532,154.60083 225.25695,149.95491 C 223.89685,146.55466 221.69866,143.15084 219.41455,140.86674 C 216.18901,137.6412 211.72742,135.12707 209.02806,132.42772 C 205.54514,128.94479 202.64977,127.2911 198.64158,125.28701 C 194.55908,123.24576 191.66376,121.0136 186.95678,119.44461 C 182.67806,118.01837 178.25868,117.91924 173.97367,116.84799 C 169.39215,115.70261 163.6226,115.70311 159.04309,116.84799 C 154.79476,117.91007 150.59307,117.66218 146.05998,118.79545 C 142.27789,119.74097 141.51589,120.23587 141.51589,123.9887 z"
         style="fill:#800080;fill-rule:evenodd;stroke:#000000;stroke-width:1px;stroke-linecap:butt;stroke-linejoin:miter;stroke-opacity:1" />
      <g
         inkscape:transform-center-y="7.7898658"
         inkscape:transform-center-x="17.527198"
         transform="matrix(-1,0,0,1,318.44073,-53.360012)"
         id="g8530">
        <path
           style="fill:#999999;fill-rule:evenodd;stroke:#000000;stroke-width:1px;stroke-linecap:butt;stroke-linejoin:miter;stroke-opacity:1"
           d="M 173.97367,202.53651 C 177.0869,202.75366 184.66943,201.96467 189.5534,203.18566 C 193.49762,204.17172 196.62765,202.15319 195.3958,207.0806 C 194.64024,210.10285 191.50745,209.67722 188.25509,209.67722 C 185.03913,209.67722 181.81734,209.02806 177.8686,209.02806 C 172.35413,209.02806 175.01509,207.74359 173.97367,202.53651 z"
           id="path8532"
           transform="translate(-4.149475e-6,698.0315)" />
        <path
           style="fill:#999999;fill-rule:evenodd;stroke:#000000;stroke-width:1px;stroke-linecap:butt;stroke-linejoin:miter;stroke-opacity:1"
           d="M 194.74664,203.18566 C 188.10353,203.18566 204.52384,206.69908 209.67722,207.72975 C 214.75966,208.74624 217.1526,210.3062 215.51962,213.57215 C 213.43903,217.73333 210.8422,215.77753 207.72975,214.22131 C 204.30762,212.51024 201.65915,211.89221 197.99242,210.97553 C 194.55945,210.11729 192.58383,210.53862 193.44833,207.0806 C 193.52255,206.78372 193.8811,206.64783 194.09749,206.43144 C 194.87768,205.65125 194.53026,204.26759 194.74664,203.18566 z"
           id="path8534"
           transform="translate(-4.149475e-6,698.0315)" />
        <path
           style="fill:#999999;fill-rule:evenodd;stroke:#000000;stroke-width:1px;stroke-linecap:butt;stroke-linejoin:miter;stroke-opacity:1"
           d="M 216.16878,212.27384 C 218.28717,210.15545 219.05894,220.837 218.7654,222.01117 C 217.64553,226.49064 216.16878,225.41881 216.16878,221.36202 C 216.16878,216.67139 214.47406,217.358 216.16878,212.27384 z"
           id="path8536"
           transform="translate(-4.149475e-6,698.0315)" />
      </g>
      <g
         inkscape:transform-center-y="14.378831"
         inkscape:transform-center-x="13.34779"
         transform="matrix(-0.8986487,0.438669,0.438669,0.8986487,-50.129921,-23.331923)"
         id="g8546">
        <path
           style="fill:#999999;fill-rule:evenodd;stroke:#000000;stroke-width:1px;stroke-linecap:butt;stroke-linejoin:miter;stroke-opacity:1"
           d="M 173.97367,202.53651 C 177.0869,202.75366 184.66943,201.96467 189.5534,203.18566 C 193.49762,204.17172 196.62765,202.15319 195.3958,207.0806 C 194.64024,210.10285 191.50745,209.67722 188.25509,209.67722 C 185.03913,209.67722 181.81734,209.02806 177.8686,209.02806 C 172.35413,209.02806 175.01509,207.74359 173.97367,202.53651 z"
           id="path8548"
           transform="translate(-4.149475e-6,698.0315)" />
        <path
           style="fill:#999999;fill-rule:evenodd;stroke:#000000;stroke-width:1px;stroke-linecap:butt;stroke-linejoin:miter;stroke-opacity:1"
           d="M 194.74664,203.18566 C 188.10353,203.18566 204.52384,206.69908 209.67722,207.72975 C 214.75966,208.74624 217.1526,210.3062 215.51962,213.57215 C 213.43903,217.73333 210.8422,215.77753 207.72975,214.22131 C 204.30762,212.51024 201.65915,211.89221 197.99242,210.97553 C 194.55945,210.11729 192.58383,210.53862 193.44833,207.0806 C 193.52255,206.78372 193.8811,206.64783 194.09749,206.43144 C 194.87768,205.65125 194.53026,204.26759 194.74664,203.18566 z"
           id="path8550"
           transform="translate(-4.149475e-6,698.0315)" />
        <path
           style="fill:#999999;fill-rule:evenodd;stroke:#000000;stroke-width:1px;stroke-linecap:butt;stroke-linejoin:miter;stroke-opacity:1"
           d="M 216.16878,212.27384 C 218.28717,210.15545 219.05894,220.837 218.7654,222.01117 C 217.64553,226.49064 216.16878,225.41881 216.16878,221.36202 C 216.16878,216.67139 214.47406,217.358 216.16878,212.27384 z"
           id="path8552"
           transform="translate(-4.149475e-6,698.0315)" />
      </g>
      <g
         inkscape:transform-center-y="12.183259"
         inkscape:transform-center-x="15.156059"
         transform="matrix(-0.9601876,0.279356,0.279356,0.9601876,81.517931,-56.954435)"
         id="g8538">
        <path
           style="fill:#999999;fill-rule:evenodd;stroke:#000000;stroke-width:1px;stroke-linecap:butt;stroke-linejoin:miter;stroke-opacity:1"
           d="M 173.97367,202.53651 C 177.0869,202.75366 184.66943,201.96467 189.5534,203.18566 C 193.49762,204.17172 196.62765,202.15319 195.3958,207.0806 C 194.64024,210.10285 191.50745,209.67722 188.25509,209.67722 C 185.03913,209.67722 181.81734,209.02806 177.8686,209.02806 C 172.35413,209.02806 175.01509,207.74359 173.97367,202.53651 z"
           id="path8540"
           transform="translate(-4.149475e-6,698.0315)" />
        <path
           style="fill:#999999;fill-rule:evenodd;stroke:#000000;stroke-width:1px;stroke-linecap:butt;stroke-linejoin:miter;stroke-opacity:1"
           d="M 194.74664,203.18566 C 188.10353,203.18566 204.52384,206.69908 209.67722,207.72975 C 214.75966,208.74624 217.1526,210.3062 215.51962,213.57215 C 213.43903,217.73333 210.8422,215.77753 207.72975,214.22131 C 204.30762,212.51024 201.65915,211.89221 197.99242,210.97553 C 194.55945,210.11729 192.58383,210.53862 193.44833,207.0806 C 193.52255,206.78372 193.8811,206.64783 194.09749,206.43144 C 194.87768,205.65125 194.53026,204.26759 194.74664,203.18566 z"
           id="path8542"
           transform="translate(-4.149475e-6,698.0315)" />
        <path
           style="fill:#999999;fill-rule:evenodd;stroke:#000000;stroke-width:1px;stroke-linecap:butt;stroke-linejoin:miter;stroke-opacity:1"
           d="M 216.16878,212.27384 C 218.28717,210.15545 219.05894,220.837 218.7654,222.01117 C 217.64553,226.49064 216.16878,225.41881 216.16878,221.36202 C 216.16878,216.67139 214.47406,217.358 216.16878,212.27384 z"
           id="path8544"
           transform="translate(-4.149475e-6,698.0315)" />
      </g>
      <path
         transform="translate(-4.149475e-6,698.0315)"
         id="path7984"
         d="M 151.25323,125.93616 C 151.25323,124.28671 140.62528,126.48339 137.62096,127.23447 C 131.99515,128.64093 134.00377,136.13529 135.02434,140.21758 C 136.48485,146.05962 142.5139,152.90038 146.70914,157.09563 C 153.10713,163.49361 164.58081,167.38055 172.67536,170.07873 C 180.9402,172.83368 189.99551,173.97367 198.64158,173.97367 C 205.53046,173.97367 209.76485,171.00865 215.51962,168.13127 C 220.92573,165.42821 219.31452,162.36336 217.46709,157.74478 C 216.2886,154.79858 212.52599,151.60462 210.32638,149.95491 C 206.77134,147.28863 204.43937,144.21558 199.93989,141.51589 C 195.24086,138.69648 192.95207,136.80638 187.60593,135.02434 C 182.23896,133.23535 177.12462,130.43284 172.0262,127.88363 C 167.62811,125.68458 163.2884,125.28701 158.39394,125.28701 C 154.90178,125.28701 154.69669,125.24747 151.25323,125.93616 z"
         style="fill:#ff00ff;fill-rule:evenodd;stroke:#000000;stroke-width:1px;stroke-linecap:butt;stroke-linejoin:miter;stroke-opacity:1" />
      <path
         transform="translate(-4.149475e-6,698.0315)"
         id="path7988"
         d="M 227.85357,156.44647 C 225.65087,156.99715 219.80051,158.85011 216.81793,160.3414 C 213.82303,161.83885 211.44294,162.82117 208.37891,163.58718 C 205.79238,164.23381 202.46443,168.44376 201.2382,170.07873 C 198.24876,174.06466 198.70478,176.60189 202.53651,178.51776 C 205.7601,180.12955 208.89996,182.02406 212.27384,183.711 C 215.56463,185.35639 224.23619,181.62476 226.55526,180.46522 C 230.27924,178.60323 231.37316,176.29648 234.34513,173.32451 C 237.27337,170.39627 235.76576,167.32223 234.99428,164.23634 C 234.1595,160.89719 233.0696,160.36418 231.09935,158.39394 C 230.20717,157.50176 228.9355,157.09563 227.85357,156.44647 z"
         style="fill:#483737;fill-rule:evenodd;stroke:#000000;stroke-width:1px;stroke-linecap:butt;stroke-linejoin:miter;stroke-opacity:1" />
      <path
         transform="translate(-4.149475e-6,698.0315)"
         id="path7990"
         d="M 218.7654,176.57029 C 218.4011,176.20599 222.51185,186.65982 223.30949,188.25509 C 224.63737,190.91085 234.38024,189.54462 236.94175,188.90424 C 240.76633,187.9481 241.63364,185.62152 236.2926,186.95678 C 232.63029,187.87235 226.52007,187.94811 231.09935,185.65847 C 233.90739,184.25444 238.69644,183.711 232.39766,183.711 C 227.66401,183.711 227.48552,184.72821 230.4502,181.76353 C 233.10554,179.10819 233.21232,178.435 227.85357,181.11438 C 222.61423,183.73405 226.41668,177.77377 226.55526,177.21944 C 227.18722,174.69162 221.37102,176.57029 218.7654,176.57029 z"
         style="fill:#00ff00;fill-rule:evenodd;stroke:#000000;stroke-width:1px;stroke-linecap:butt;stroke-linejoin:miter;stroke-opacity:1" />
      <path
         inkscape:transform-center-y="4.6489759"
         inkscape:transform-center-x="-9.2079921"
         id="path7992"
         d="M 231.75124,864.06116 C 231.27581,863.86266 242.50754,863.69155 244.28626,863.82299 C 247.24741,864.0418 249.68684,873.57276 250.06812,876.18543 C 250.6374,880.08639 248.81509,881.77291 248.02008,876.32521 C 247.47495,872.58975 245.22261,866.9093 244.84532,872.01516 C 244.61396,875.14612 245.93156,879.78231 243.53748,873.95625 C 241.73828,869.57785 242.61131,869.02613 240.99596,872.89515 C 239.54916,876.36047 238.96708,876.7151 239.40859,870.74013 C 239.84025,864.8983 235.77254,870.68079 235.31249,871.01966 C 233.21458,872.56499 232.7416,866.47123 231.75124,864.06116 z"
         style="fill:#00ff00;fill-rule:evenodd;stroke:#000000;stroke-width:1px;stroke-linecap:butt;stroke-linejoin:miter;stroke-opacity:1" />
    </g>
    <g
       inkscape:export-ydpi="33.007736"
       inkscape:export-xdpi="33.007736"
       inkscape:export-filename="/home/abez/clip-art-so-far.png"
       transform="matrix(-0.1689062,0,0,0.1495949,509.84997,1035.5185)"
       id="g21151">
      <path
         style="fill:#ec8f40;fill-opacity:1;fill-rule:evenodd;stroke:#000000;stroke-width:1px;stroke-linecap:butt;stroke-linejoin:miter;stroke-opacity:1"
         d="M 760,-447.63782 C 760,-447.63782 865.98508,-849.6826 1000,-447.63782 C 1020,-387.63782 740,-387.63782 760,-447.63782 z"
         id="path21153"
         sodipodi:nodetypes="csc" />
      <path
         sodipodi:type="arc"
         style="fill:#ffb97b;fill-opacity:1;stroke:#000000;stroke-width:2;stroke-miterlimit:4;stroke-dasharray:none;stroke-dashoffset:0;stroke-opacity:1"
         id="path21155"
         sodipodi:cx="20"
         sodipodi:cy="-407.63782"
         sodipodi:rx="80"
         sodipodi:ry="80"
         d="M 100,-407.63782 A 80,80 0 1 1 -60,-407.63782 A 80,80 0 1 1 100,-407.63782 z"
         transform="translate(860,-219.99999)" />
      <path
         style="fill:#ffff00;fill-rule:evenodd;stroke:#000000;stroke-width:1px;stroke-linecap:butt;stroke-linejoin:miter;stroke-opacity:1"
         d="M 940,-687.63782 C 908.49673,-679.15297 924.05229,-667.63782 880,-667.63782 C 856.57383,-667.63782 845.4327,-627.63782 820,-627.63782 C 807.6758,-627.63782 780,-529.85934 780,-627.63782 C 780,-671.20804 800,-642.92377 800,-687.63782 C 800,-694.30448 840,-690.97115 840,-727.63782 C 840,-753.43565 940,-724.25659 940,-687.63782 z"
         id="path21157"
         sodipodi:nodetypes="csssssc" />
    </g>
    <g
       inkscape:export-ydpi="33.007736"
       inkscape:export-xdpi="33.007736"
       inkscape:export-filename="/home/abez/clip-art-so-far.png"
       transform="matrix(-0.1259226,0,0,0.1259226,399.00235,985.71467)"
       id="g21167">
      <path
         style="fill:#ec40c1;fill-opacity:1;fill-rule:evenodd;stroke:#000000;stroke-width:1px;stroke-linecap:butt;stroke-linejoin:miter;stroke-opacity:1"
         d="M -120,-447.63782 C -120,-447.63782 -14.014919,-849.6826 120,-447.63782 C 140,-387.63782 -140,-387.63782 -120,-447.63782 z"
         id="path21169"
         sodipodi:nodetypes="csc" />
      <path
         sodipodi:type="arc"
         style="fill:#eedac9;fill-opacity:1;stroke:#000000;stroke-width:2;stroke-miterlimit:4;stroke-dasharray:none;stroke-dashoffset:0;stroke-opacity:1"
         id="path21171"
         sodipodi:cx="20"
         sodipodi:cy="-407.63782"
         sodipodi:rx="80"
         sodipodi:ry="80"
         d="M 100,-407.63782 A 80,80 0 1 1 -60,-407.63782 A 80,80 0 1 1 100,-407.63782 z"
         transform="translate(-20,-220)" />
      <path
         style="fill:#d40000;fill-rule:evenodd;stroke:#000000;stroke-width:1px;stroke-linecap:butt;stroke-linejoin:miter;stroke-opacity:1"
         d="M -120,-647.63782 C -124.71405,-652.35186 -120,-634.30448 -120,-627.63782 C -120,-607.63782 -80,-627.63782 -60,-627.63782 C 14.162227,-627.63782 -114.16223,-647.63782 -40,-647.63782 C -4,-647.63782 -40,-636.30448 -40,-667.63782 C -40,-674.30448 0,-650.97115 0,-687.63782 C 0,-707.63782 40,-687.63782 60,-687.63782 C 103.33333,-687.63782 56.666667,-707.63782 100,-707.63782 C 140.9228,-707.63782 60,-711.07972 60,-747.63782 C 60,-767.63782 20,-747.63782 0,-747.63782 C -42.020706,-747.63782 -57.979294,-727.63782 -100,-727.63782 C -117.12497,-727.63782 -140,-700.3538 -140,-687.63782 C -140,-660.97115 -151.33333,-647.63782 -120,-647.63782 z"
         id="path21173" />
    </g>
    <text
       xml:space="preserve"
       style="font-size:18px;font-style:normal;font-weight:bold;writing-mode:lr-tb;fill:#000000;fill-opacity:1;stroke:none;stroke-width:1px;stroke-linecap:butt;stroke-linejoin:miter;stroke-opacity:1;font-family:Sans;-inkscape-font-specification:Sans"
       x="56.038692"
       y="735.23431"
       id="text21726"><tspan
         sodipodi:role="line"
         id="tspan21728"
         x="56.038692"
         y="735.23431">Extraction: People</tspan></text>
    <g
       id="g17619"
       transform="matrix(0.392848,0,0,0.4156785,257.0903,818.73972)">
      <g
         id="g17621"
         style="fill:#f3f1d2;fill-opacity:1"
         transform="translate(-70,-39.999997)">
        <rect
           ry="0"
           y="-107.63782"
           x="290"
           height="100"
           width="170"
           id="rect17623"
           style="fill:#f3f1d2;fill-opacity:1;stroke:#000000;stroke-width:3;stroke-miterlimit:4;stroke-dasharray:none;stroke-dashoffset:0;stroke-opacity:1" />
        <path
           id="path17625"
           d="M 289.90789,-7.6378174 L 374.9696,-72.534821 L 460,-7.6378174 L 289.90789,-7.6378174 z"
           style="fill:#f3f1d2;fill-opacity:1;stroke:#000000;stroke-width:2.62664151;stroke-miterlimit:4;stroke-dasharray:none;stroke-dashoffset:0;stroke-opacity:1" />
        <path
           id="path17627"
           d="M 290.28125,-107.63782 L 375.15625,-22.794064 L 460,-107.63782 L 290.28125,-107.63782 z"
           style="fill:#f3f1d2;fill-opacity:1;stroke:#000000;stroke-width:3;stroke-miterlimit:4;stroke-dasharray:none;stroke-dashoffset:0;stroke-opacity:1" />
      </g>
    </g>
    <g
       id="g22128"
       transform="translate(-2.649503,-43.901804)">
      <g
         transform="matrix(-0.3904605,0,0,-0.4131521,456.33215,916.48921)"
         id="g6974">
        <g
           id="g6976"
           transform="translate(-350,300)">
          <rect
             y="-207.74918"
             x="449.88864"
             height="140.22272"
             width="119.79414"
             id="rect6978"
             style="fill:#ffffff;fill-opacity:1;stroke:#000000;stroke-width:2.77728343;stroke-miterlimit:4;stroke-dasharray:none;stroke-dashoffset:0;stroke-opacity:1" />
          <path
             id="path6980"
             d="M 470,-187.63782 C 479.68055,-175.13088 520,-168.69158 520,-187.63782 C 520,-197.63782 540,-187.63782 550,-187.63782 C 553.33333,-187.63782 550,-180.97115 550,-177.63782 C 550,-174.30448 556.66667,-177.63782 560,-177.63782"
             style="fill:none;fill-rule:evenodd;stroke:#75a9de;stroke-width:1px;stroke-linecap:butt;stroke-linejoin:miter;stroke-opacity:1" />
          <path
             id="path6982"
             d="M 470,-147.63782 C 470,-137.63782 490,-147.63782 500,-147.63782 C 514.11255,-147.63782 530,-140.92786 530,-157.63782 C 530,-165.85163 565.91533,-147.63782 570,-147.63782"
             style="fill:none;fill-rule:evenodd;stroke:#75a9de;stroke-width:1px;stroke-linecap:butt;stroke-linejoin:miter;stroke-opacity:1" />
          <path
             id="path6984"
             d="M 490,-117.63782 C 490,-132.59871 520,-100.51346 520,-127.63782 C 520,-134.30448 533.33333,-127.63782 540,-127.63782 C 544.71405,-127.63782 546.66667,-120.97115 550,-117.63782"
             style="fill:none;fill-rule:evenodd;stroke:#75a9de;stroke-width:1px;stroke-linecap:butt;stroke-linejoin:miter;stroke-opacity:1" />
        </g>
        <path
           id="path6986"
           d="M 120,212.36218 C 120,222.36218 130,202.36218 140,202.36218 C 154.11255,202.36218 170,229.07214 170,212.36218 C 170,204.14837 205.91533,212.36218 210,212.36218"
           style="fill:none;fill-rule:evenodd;stroke:#75a9de;stroke-width:1px;stroke-linecap:butt;stroke-linejoin:miter;stroke-opacity:1"
           sodipodi:nodetypes="cssc" />
      </g>
      <rect
         y="833.53876"
         x="384.19904"
         height="13.311646"
         width="19.737957"
         id="rect21981"
         style="fill:none;fill-rule:evenodd;stroke:#e1e215;stroke-width:7.08661413;stroke-linecap:butt;stroke-linejoin:miter;stroke-miterlimit:4;stroke-dasharray:none;stroke-opacity:1" />
    </g>
  </g>
</svg>
