<?xml version="1.0" encoding="UTF-8" standalone="no"?>
<!-- Created with Inkscape (http://www.inkscape.org/) -->
<svg
   xmlns:dc="http://purl.org/dc/elements/1.1/"
   xmlns:cc="http://creativecommons.org/ns#"
   xmlns:rdf="http://www.w3.org/1999/02/22-rdf-syntax-ns#"
   xmlns:svg="http://www.w3.org/2000/svg"
   xmlns="http://www.w3.org/2000/svg"
   xmlns:xlink="http://www.w3.org/1999/xlink"
   xmlns:sodipodi="http://sodipodi.sourceforge.net/DTD/sodipodi-0.dtd"
   xmlns:inkscape="http://www.inkscape.org/namespaces/inkscape"
   width="453.5433"
   height="340.15747"
   id="svg2"
   sodipodi:version="0.32"
   inkscape:version="0.46"
   sodipodi:docname="interviews.svg"
   version="1.0"
   inkscape:output_extension="org.inkscape.output.svg.inkscape">
  <defs
     id="defs4">
    <pattern
       inkscape:collect="always"
       xlink:href="#Strips1_1"
       id="pattern9488"
       patternTransform="matrix(35.044996,0,0,9.8811727,355.6407,796.43533)" />
    <pattern
       inkscape:stockid="Stripes 1:1"
       id="Strips1_1"
       patternTransform="matrix(10,0,0,10,9.1804406,694.35932)"
       height="1"
       width="2"
       patternUnits="userSpaceOnUse"
       inkscape:collect="always">
      <rect
         id="rect8511"
         height="2"
         width="1"
         y="-0.5"
         x="0"
         style="fill:black;stroke:none" />
    </pattern>
    <inkscape:perspective
       sodipodi:type="inkscape:persp3d"
       inkscape:vp_x="0 : 170.07874 : 1"
       inkscape:vp_y="0 : 1000 : 0"
       inkscape:vp_z="453.5433 : 170.07874 : 1"
       inkscape:persp3d-origin="226.77165 : 113.38582 : 1"
       id="perspective6859" />
  </defs>
  <sodipodi:namedview
     id="base"
     pagecolor="#ffffff"
     bordercolor="#666666"
     borderopacity="1.0"
     gridtolerance="10000"
     guidetolerance="8.8"
     objecttolerance="10"
     inkscape:pageopacity="0.0"
     inkscape:pageshadow="2"
     inkscape:zoom="1.0892718"
     inkscape:cx="385.91392"
     inkscape:cy="124.72957"
     inkscape:document-units="mm"
     inkscape:current-layer="layer1"
     inkscape:window-width="1024"
     inkscape:window-height="768"
     inkscape:window-x="0"
     inkscape:window-y="0"
     width="12.8cm"
     height="9.6cm"
     units="cm"
     showgrid="false"
     grid_units="mm"
     inkscape:object-paths="false"
     inkscape:grid-points="true"
     inkscape:grid-bbox="true"
     inkscape:guide-points="true"
     showguides="true"
     inkscape:guide-bbox="true">
    <sodipodi:guide
       orientation="vertical"
       position="56.476527"
       id="guide3573" />
    <sodipodi:guide
       orientation="horizontal"
       position="11.035643"
       id="guide3579" />
    <sodipodi:guide
       orientation="horizontal"
       position="24.018753"
       id="guide3886" />
    <sodipodi:guide
       orientation="horizontal"
       position="285.62841"
       id="guide3988" />
    <sodipodi:guide
       orientation="horizontal"
       position="303.15561"
       id="guide4081" />
    <inkscape:grid
       id="GridFromPre046Settings"
       type="xygrid"
       originx="0px"
       originy="0px"
       spacingx="2mm"
       spacingy="2mm"
       color="#0000ff"
       empcolor="#0000ff"
       opacity="0.2"
       empopacity="0.4"
       empspacing="5"
       units="mm"
       visible="true"
       enabled="true" />
  </sodipodi:namedview>
  <metadata
     id="metadata7">
    <rdf:RDF>
      <cc:Work
         rdf:about="">
        <dc:format>image/svg+xml</dc:format>
        <dc:type
           rdf:resource="http://purl.org/dc/dcmitype/StillImage" />
      </cc:Work>
    </rdf:RDF>
  </metadata>
  <g
     inkscape:label="Layer 1"
     inkscape:groupmode="layer"
     id="layer1"
     transform="translate(4.149475e-6,-698.0315)">
    <g
       id="g2626"
       transform="matrix(0.4262158,0,0,0.4262158,174.59919,697.18841)">
      <path
         id="path2429"
         d="M -315.16759,338.68941 C -315.28057,338.57643 -335.97342,362.00108 -338.4011,363.94322 C -355.37062,377.51884 -358.45748,395.42354 -371.73614,410.91532 C -384.01417,425.23969 -387.68177,444.62855 -396.98995,460.91787 C -401.25994,468.39035 -398.02188,479.48814 -401.53564,487.68691 C -404.84014,495.39741 -398.25352,506.8784 -394.46457,512.94072 C -393.82112,513.97024 -393.1177,514.96103 -392.44426,515.97118 C -388.02584,522.59882 -371.36589,523.5599 -364.66507,526.07271 C -359.38315,528.05343 -316.11116,532.13362 -308.6016,532.13362 C -285.13258,532.13362 -260.05771,538.69961 -235.87062,538.69961 C -211.36551,538.69961 -187.81752,533.64885 -163.64471,533.64885 C -152.24222,533.64885 -131.13846,531.28532 -121.72338,526.57778 C -113.9166,522.67439 -108.08632,507.91074 -108.08632,500.31382 C -108.08632,488.21611 -103.05944,476.96089 -105.56094,464.4534 C -108.10573,451.72945 -110.09715,438.03687 -116.67262,427.07776 C -121.82423,418.49173 -124.84143,408.77822 -130.81475,400.81379 C -134.64874,395.70181 -136.80999,389.26271 -141.92643,384.14627 C -146.65039,379.42231 -151.1344,373.21585 -155.05842,367.98383 C -155.92738,366.82521 -156.742,365.62681 -157.5838,364.4483 C -160.55493,360.28871 -167.87741,355.08659 -172.23101,351.82139 C -177.28474,348.03109 -180.72559,343.78603 -185.86807,341.21479 C -191.50754,338.39505 -197.24912,336.28188 -202.53559,333.63865 C -209.78429,330.0143 -220.14051,331.64259 -227.7894,329.09296 C -233.8404,327.07596 -244.29836,329.09296 -250.51783,329.09296 C -258.67194,329.09296 -266.09689,331.61834 -274.25642,331.61834 C -278.45534,331.61834 -282.56188,332.68455 -286.37825,333.63865 C -290.53865,334.67875 -295.65466,335.65895 -300.01531,335.65895 C -302.71875,335.65895 -305.99339,336.65254 -308.6016,337.17418 C -311.04171,337.6622 -312.47935,338.24137 -315.16759,338.68941 z"
         style="fill:#00ffff;fill-rule:evenodd;stroke:#000000;stroke-width:1px;stroke-linecap:butt;stroke-linejoin:miter;stroke-opacity:1" />
      <path
         id="path2454"
         d="M -126.26907,478.09046 C -126.53209,478.74802 -142.82924,474.04985 -145.46197,474.04985 C -150.24605,474.04985 -153.36964,471.66688 -154.55334,477.58538 C -155.29868,481.31209 -151.55036,484.95653 -149.50258,487.68691 C -147.75439,490.01783 -141.57584,489.70721 -138.89598,489.70721 C -137.41612,489.70721 -147.30374,500.31382 -155.56349,500.31382 C -159.50374,500.31382 -160.61425,505.62914 -160.61425,508.39504 C -160.61425,512.68491 -156.18535,514.17422 -153.03811,514.96103 C -148.51205,516.09254 -142.72332,512.07648 -139.40105,510.41534 C -135.79219,508.61091 -132.80075,506.34042 -136.87567,510.41534 C -138.37889,511.91856 -137.54295,517.95453 -137.88582,520.01179 C -138.43339,523.29723 -138.9023,526.56513 -137.38075,529.60824 C -135.5352,533.29933 -130.9432,531.2198 -128.79445,529.60824 C -124.47388,526.36781 -122.71746,524.47709 -121.72338,519.50671 C -120.97893,515.78445 -123.34206,514.15778 -121.72338,510.92042 C -119.245,505.96364 -117.35455,519.1275 -117.1777,520.01179 C -116.21136,524.84347 -106.7575,519.18804 -105.56094,517.99149 C -103.03935,515.46989 -102.30727,507.6081 -105.05586,504.8595 C -107.25669,502.65867 -104.1179,496.09279 -110.6117,491.22244 C -115.38972,487.63893 -119.4679,483.72915 -121.72338,478.09046 C -121.8632,477.74092 -122.39682,477.75374 -122.73353,477.58538"
         style="fill:#f4e3d7;fill-rule:evenodd;stroke:#000000;stroke-width:1px;stroke-linecap:butt;stroke-linejoin:miter;stroke-opacity:1" />
      <path
         id="path2431"
         d="M -283.34779,381.62089 C -287.93775,382.53888 -278.07136,389.4227 -274.76149,392.73257 C -270.68361,396.81045 -269.25614,401.68254 -264.65997,405.35948 C -261.76359,407.67658 -262.62454,411.92925 -258.59905,412.93562 C -254.84014,413.87535 -247.0757,406.46303 -244.45692,403.84425 C -239.92091,399.30824 -234.16538,394.33116 -230.31478,389.19704 C -227.29548,385.1713 -220.76627,381.52502 -223.24371,376.57013 C -225.47812,372.10132 -236.9074,367.98383 -241.93153,367.98383 C -247.80167,367.98383 -252.82051,364.4483 -258.59905,364.4483 C -261.92619,364.4483 -268.84002,368.09539 -271.22596,370.00414 C -271.88329,370.53 -272.57283,371.01429 -273.24626,371.51937 C -275.95865,373.55365 -278.86025,375.11304 -281.32748,377.58028 C -282.33619,378.58899 -282.86549,380.41513 -283.34779,381.62089 z"
         style="fill:#ffffff;fill-rule:evenodd;stroke:#000000;stroke-width:1px;stroke-linecap:butt;stroke-linejoin:miter;stroke-opacity:1" />
      <path
         id="path2383"
         d="M -322.85714,310.93361 C -331.16831,318.40421 -331.42857,335.36327 -331.42857,349.50504 C -331.42857,366.37929 -304.5709,373.9624 -294.28571,378.07647 C -275.15637,385.72821 -261.81078,389.50504 -238.57143,389.50504 C -210.13849,389.50504 -198.43802,381.53672 -177.14286,363.79075 C -165.15455,353.8005 -155.71429,324.3111 -155.71429,309.50504 C -155.71429,289.67396 -149.31382,272.30597 -158.57143,253.79075 C -159.9183,251.09701 -160.47619,248.07647 -161.42857,245.21933 C -166.6611,229.52174 -168.64093,220.79462 -175.71429,206.6479 C -181.22891,195.61864 -198.1914,188.51419 -210,183.79075 C -222.84559,178.65252 -246.16725,176.98762 -257.14286,185.21933 C -267.79135,193.2057 -276.71424,196.88591 -284.28571,209.50504 C -290.6269,220.07369 -295.14037,228.35721 -300,238.07647 C -303.55398,245.18443 -308.05633,254.58749 -310,262.36218 C -311.95609,270.18653 -315.15264,278.38174 -318.57143,285.21933 C -322.24245,292.56136 -322.85714,302.07322 -322.85714,310.93361 z"
         style="fill:#ffe6d5;fill-rule:evenodd;stroke:#000000;stroke-width:1px;stroke-linecap:butt;stroke-linejoin:miter;stroke-opacity:1" />
      <path
         sodipodi:nodetypes="cssc"
         id="path2385"
         d="M -239.37239,240.36059 C -243.5932,238.54568 -253.05021,241.57372 -250.71992,250.89489 C -249.11099,257.33061 -239.89485,252.39901 -237.66548,250.16965 C -234.31962,246.82378 -237.14939,243.13935 -239.37239,240.36059 z"
         style="fill:#000000;fill-rule:evenodd;stroke:#000000;stroke-width:0.50767261px;stroke-linecap:butt;stroke-linejoin:miter;stroke-opacity:1" />
      <path
         sodipodi:nodetypes="csssc"
         id="path2387"
         d="M -206.11875,240.36059 C -208.27513,241.7317 -211.41933,244.61648 -211.41933,248.50779 C -211.41933,252.85033 -203.92409,253.21942 -200.42552,253.21942 C -192.50919,253.21942 -194.68562,245.55339 -195.71388,241.44034 C -196.36131,238.85063 -202.76222,240.06611 -206.11875,240.36059 z"
         style="fill:#000000;fill-rule:evenodd;stroke:#000000;stroke-width:0.54969078px;stroke-linecap:butt;stroke-linejoin:miter;stroke-opacity:1" />
      <path
         id="path2389"
         d="M -239.37239,290.24105 C -237.95825,286.63785 -233.90518,281.97847 -230.80096,278.09819 C -227.30968,273.73409 -224.20987,273.81248 -219.01525,273.81248 C -208.70175,273.81248 -201.92835,273.60593 -193.65811,277.74105 C -190.29153,279.42434 -190.08668,284.86947 -190.08668,288.09819"
         style="fill:none;fill-rule:evenodd;stroke:#000000;stroke-width:1px;stroke-linecap:butt;stroke-linejoin:miter;stroke-opacity:1" />
      <path
         id="path2395"
         d="M -273.92857,312.00504 C -274.42268,312.20268 -267.72885,312.9135 -262.85714,314.86218 C -259.22324,316.31574 -251.50778,316.6479 -247.85714,316.6479 C -241.01373,316.6479 -234.51009,317.36218 -227.5,317.36218 C -222.29543,317.36218 -217.90533,315.93361 -212.85714,315.93361 C -210.34881,315.93361 -207.65546,315.32185 -205.35714,314.86218 C -200.36548,313.86385 -201.78864,317.7164 -198.92857,320.57647 C -196.53884,322.96619 -198.65041,329.49131 -200,331.29075 C -202.7401,334.94422 -206.39912,339.66889 -210.35714,341.6479 C -214.59543,343.76704 -217.30736,347.36218 -222.5,347.36218 C -228.94177,347.36218 -235.7087,348.79075 -242.5,348.79075 C -247.39927,348.79075 -252.73213,349.43718 -256.78571,347.00504 C -260.21956,344.94473 -263.14916,343.59641 -264.64285,339.86218 C -266.42231,335.41353 -268.98679,331.17432 -271.07143,327.00504 C -272.36441,324.41906 -272.19042,321.81477 -272.85714,319.1479 C -273.54111,316.41203 -274.49006,314.81251 -273.92857,312.00504 z"
         style="fill:#000000;fill-rule:evenodd;stroke:#000000;stroke-width:1px;stroke-linecap:butt;stroke-linejoin:miter;stroke-opacity:1" />
      <path
         id="path2397"
         d="M -267.14286,315.21933 C -267.145,315.21076 -268.92857,319.54326 -268.92857,323.43361 C -268.92857,325.93417 -267.18008,327.36218 -265,327.36218 C -262.07462,327.36218 -259.85201,328.49477 -258.21428,325.21933 C -257.29937,323.3895 -257.5,320.89402 -257.5,318.79075 C -257.5,316.90541 -258.8851,315.60907 -260.35714,314.50504 C -262.42258,312.95596 -265.33869,313.77599 -267.14286,315.21933 z"
         style="fill:#ffffff;fill-rule:evenodd;stroke:#000000;stroke-width:1px;stroke-linecap:butt;stroke-linejoin:miter;stroke-opacity:1" />
      <path
         id="path2399"
         d="M -256.4379,315.5424 C -256.44004,315.53383 -258.22361,319.86633 -258.22361,323.75668 C -258.22361,326.25724 -256.47512,327.68525 -254.29504,327.68525 C -251.36966,327.68525 -249.14705,328.81784 -247.50932,325.5424 C -246.59441,323.71257 -246.79504,321.21709 -246.79504,319.11382 C -246.79504,317.22848 -248.18014,315.93214 -249.65218,314.82811 C -251.71762,313.27903 -254.63373,314.09906 -256.4379,315.5424 z"
         style="fill:#ffffff;fill-rule:evenodd;stroke:#000000;stroke-width:1px;stroke-linecap:butt;stroke-linejoin:miter;stroke-opacity:1" />
      <path
         id="path2401"
         d="M -245.72361,315.89954 C -245.72575,315.89097 -247.50932,320.22347 -247.50932,324.11382 C -247.50932,326.61438 -245.76083,328.04239 -243.58075,328.04239 C -240.65537,328.04239 -238.43276,329.17498 -236.79503,325.89954 C -235.88012,324.06971 -236.08075,321.57423 -236.08075,319.47096 C -236.08075,317.58562 -237.46585,316.28928 -238.93789,315.18525 C -241.00333,313.63617 -243.91944,314.4562 -245.72361,315.89954 z"
         style="fill:#ffffff;fill-rule:evenodd;stroke:#000000;stroke-width:1px;stroke-linecap:butt;stroke-linejoin:miter;stroke-opacity:1" />
      <path
         id="path2403"
         d="M -234.29504,316.25669 C -234.29718,316.24812 -236.08075,320.58062 -236.08075,324.47097 C -236.08075,326.97153 -234.33226,328.39954 -232.15218,328.39954 C -229.2268,328.39954 -227.00419,329.53213 -225.36646,326.25669 C -224.45155,324.42686 -224.65218,321.93138 -224.65218,319.82811 C -224.65218,317.94277 -226.03728,316.64643 -227.50932,315.5424 C -229.57476,313.99332 -232.49087,314.81335 -234.29504,316.25669 z"
         style="fill:#ffffff;fill-rule:evenodd;stroke:#000000;stroke-width:1px;stroke-linecap:butt;stroke-linejoin:miter;stroke-opacity:1" />
      <path
         id="path2405"
         d="M -223.58076,315.5424 C -223.5829,315.53383 -225.36647,319.86633 -225.36647,323.75668 C -225.36647,326.25724 -223.61798,327.68525 -221.4379,327.68525 C -218.51252,327.68525 -216.28991,328.81784 -214.65218,325.5424 C -213.73727,323.71257 -213.9379,321.21709 -213.9379,319.11382 C -213.9379,317.22848 -215.323,315.93214 -216.79504,314.82811 C -218.86048,313.27903 -221.77659,314.09906 -223.58076,315.5424 z"
         style="fill:#ffffff;fill-rule:evenodd;stroke:#000000;stroke-width:1px;stroke-linecap:butt;stroke-linejoin:miter;stroke-opacity:1" />
      <path
         id="path2407"
         d="M -212.50933,315.18526 C -212.51147,315.17669 -214.29504,319.50919 -214.29504,323.39954 C -214.29504,325.9001 -212.54655,327.32811 -210.36647,327.32811 C -207.44109,327.32811 -205.21848,328.4607 -203.58075,325.18526 C -202.66584,323.35543 -202.86647,320.85995 -202.86647,318.75668 C -202.86647,316.87134 -204.25157,315.575 -205.72361,314.47097 C -207.78905,312.92189 -210.70516,313.74192 -212.50933,315.18526 z"
         style="fill:#ffffff;fill-rule:evenodd;stroke:#000000;stroke-width:1px;stroke-linecap:butt;stroke-linejoin:miter;stroke-opacity:1" />
      <path
         id="path2409"
         d="M -277.14286,307.00504 C -277.495,308.17049 -276.82914,311.47418 -276.42857,313.07647 C -275.80176,315.5837 -273.79373,316.78274 -272.14286,318.43361 C -270.0068,320.56967 -265.71041,320.64944 -263.21428,321.6479 C -260.40652,322.771 -256.80849,322.50048 -253.92857,323.07647 C -250.50008,323.76217 -244.94795,324.50504 -241.78571,324.50504 C -237.26658,324.50504 -233.12216,325.57647 -228.57143,325.57647 C -224.28571,325.57647 -220,325.57647 -215.71428,325.57647 C -212.2619,325.57647 -208.80952,325.57647 -205.35714,325.57647 C -202.0279,325.57647 -199.24005,323.34229 -197.85714,320.57647 C -196.17773,317.21764 -193.57143,315.18234 -193.57143,311.29075 C -193.57143,310.81456 -193.57143,310.33837 -193.57143,309.86218"
         style="fill:#ffe6d5;fill-rule:evenodd;stroke:#000000;stroke-width:1px;stroke-linecap:butt;stroke-linejoin:miter;stroke-opacity:1" />
      <path
         id="path2411"
         d="M -254.28572,345.21933 C -254.28572,344.74314 -254.28572,344.74314 -254.28572,345.21933 C -254.28572,347.73861 -252.41211,336.6479 -245.71429,336.6479 C -243.79349,336.6479 -241.76963,339.53721 -241.07143,340.93361 C -240.26476,342.54695 -234.14875,338.18656 -232.5,337.36218 C -228.22552,335.22494 -225.97149,341.39069 -223.92857,343.43361 C -223.39282,343.96937 -223.57143,345.99984 -223.57143,347.00504"
         style="fill:#ff0000;fill-rule:evenodd;stroke:#000000;stroke-width:1px;stroke-linecap:butt;stroke-linejoin:miter;stroke-opacity:1" />
      <path
         id="path2423"
         d="M -273.57143,204.50504 C -274.63329,205.92085 -274.10573,200.75645 -275.35714,199.50504 C -279.93179,194.93039 -281.4306,193.07647 -287.5,193.07647 C -297.33034,193.07647 -295.90813,204.84385 -305.71429,193.07647 C -310.8925,186.86261 -316.45668,194.11582 -319.28571,198.07647 C -320.81741,200.22084 -324.15048,195.57647 -326.78571,195.57647 C -330.48522,195.57647 -333.98594,207.32703 -335,209.86218 C -337.02528,214.92538 -329.69263,219.00665 -331.78571,220.57647 C -334.72837,222.78346 -334.28225,228.67748 -332.5,231.6479 C -330.41919,235.11591 -325.7275,233.12931 -326.78571,237.36218 C -327.87454,241.71747 -327.51902,247.71552 -322.14286,248.79075 C -316.85823,249.84768 -315.65006,252.00504 -309.28571,252.00504 C -302.28472,252.00504 -299.21032,248.75305 -293.57143,245.93361 C -288.5992,243.4475 -286.98437,239.34655 -283.21429,235.57647 C -279.51621,231.87839 -278.99382,225.77221 -277.5,221.29075 C -276.50402,218.30282 -276.85073,214.84616 -275.71429,212.00504 C -274.96055,210.12069 -274.8005,208.39175 -273.92857,206.6479 C -273.60473,206.00021 -273.69048,205.21932 -273.57143,204.50504 z"
         style="fill:#ffccaa;fill-rule:evenodd;stroke:#000000;stroke-width:1px;stroke-linecap:butt;stroke-linejoin:miter;stroke-opacity:1" />
      <path
         id="path2425"
         d="M -152.5,190.21932 C -150.79746,186.81425 -169.02585,187.74364 -171.78571,188.43361 C -176.57564,189.63109 -190,191.17518 -190,197.36218 C -190,201.07277 -190.90742,205.16107 -190,208.79075 C -188.52968,214.67205 -182.92755,215.07342 -185,221.29075 C -187.7622,229.57736 -187.86414,234.85519 -181.78571,240.93361 C -181.2467,241.47262 -180.83333,242.12409 -180.35714,242.71932 C -178.28163,245.31371 -171.55748,248.01201 -168.57143,249.50504 C -162.72296,252.42927 -156.05511,249.76066 -151.42857,246.29075 C -150.68474,245.73288 -150,245.10028 -149.28571,244.50504 C -147.07183,242.66013 -145.17572,248.79189 -142.5,249.86218 C -134.72152,252.97357 -130.1234,240.70639 -128.21429,235.93361 C -127.97619,235.33837 -127.7381,234.74313 -127.5,234.1479 C -125.21758,228.44184 -132.47236,224.52478 -135,222.71932 C -136.73292,221.48153 -130.98939,221.13993 -129.28571,219.86218 C -123.27828,215.35661 -129.82389,208.89642 -133.57143,206.6479 C -134.9896,205.79699 -136.42857,204.98123 -137.85714,204.1479 C -143.99756,200.56598 -144.34024,209.03378 -135,202.36218 C -129.18674,198.20985 -127.38378,195.09462 -130.35714,189.1479 C -131.83294,186.1963 -143.70076,184.86218 -146.78571,184.86218 C -148.06556,184.86218 -151.92705,189.26441 -152.5,190.21932 z"
         style="fill:#ffccaa;fill-rule:evenodd;stroke:#000000;stroke-width:1px;stroke-linecap:butt;stroke-linejoin:miter;stroke-opacity:1" />
      <path
         id="path2435"
         d="M -261.62951,410.41024 C -261.27723,409.00112 -264.95516,417.9979 -268.70058,424.55238 C -273.02739,432.1243 -276.67297,440.94783 -279.81226,448.79604 C -280.28845,449.98651 -280.82241,451.15306 -281.32748,452.33157 C -284.04196,458.66536 -285.87317,465.04478 -285.87317,472.02955 C -285.87317,477.06767 -285.58743,482.84543 -283.85287,487.18183 C -281.85732,492.17071 -280.70186,496.00923 -278.29703,500.81889 C -275.83491,505.74313 -270.85574,509.73046 -267.69042,513.95088 C -264.51215,518.18857 -260.70515,521.8439 -255.56859,517.99149 C -250.16455,513.93845 -245.80995,510.25315 -240.92138,505.36458 C -237.32019,501.76339 -236.47026,496.46234 -234.35539,492.2326 C -232.67939,488.88059 -233.34524,483.8527 -233.34524,480.11077 C -233.34524,474.18762 -233.26674,468.69026 -235.36554,463.44325 C -237.44154,458.25326 -235.46438,451.93623 -236.88077,446.27066 C -238.18148,441.06784 -239.91123,434.38741 -239.91123,429.09806 C -239.91123,422.89887 -247.24206,416.68757 -248.49753,410.41024"
         style="fill:#ff0000;fill-rule:evenodd;stroke:#000000;stroke-width:1px;stroke-linecap:butt;stroke-linejoin:miter;stroke-opacity:1" />
      <path
         id="path2433"
         d="M -248.49753,398.28841 C -250.72152,400.5124 -254.4437,395.76303 -257.5889,395.76303 C -262.56461,395.76303 -263.39643,400.05196 -264.15489,403.84425 C -264.75612,406.85038 -262.07979,409.45488 -260.11428,411.42039 C -258.78093,412.75374 -252.59349,411.92547 -250.51783,411.92547 C -247.7665,411.92547 -245.41939,405.67384 -244.96199,403.84425 C -244.15172,400.60318 -245.64579,399.4291 -248.49753,398.28841 z"
         style="fill:#ff0000;fill-rule:evenodd;stroke:#000000;stroke-width:1px;stroke-linecap:butt;stroke-linejoin:miter;stroke-opacity:1" />
      <g
         transform="matrix(0.7099249,0,0,0.9006873,50.309356,266.05002)"
         id="g2447">
        <path
           style="fill:#784421;fill-rule:evenodd;stroke:#000000;stroke-width:1px;stroke-linecap:butt;stroke-linejoin:miter;stroke-opacity:1"
           d="M -478.30723,174.53962 C -476.35416,173.56309 -471.91156,170.16425 -469.21586,167.46855 C -465.53542,163.78811 -461.13464,157.60923 -461.13464,166.96348 C -461.13464,172.45427 -461.13464,178.78676 -461.13464,184.64115 C -461.13464,192.20527 -464.67017,199.40413 -464.67017,207.36958 C -464.67017,212.61447 -467.38306,218.44494 -469.21586,223.02694 C -470.96684,227.40441 -471.74124,234.08955 -471.74124,239.18938 C -471.74124,240.53625 -471.74124,241.88312 -471.74124,243.22999 C -471.74124,246.05139 -473.24769,252.80889 -474.26662,254.84675 C -475.30639,256.92628 -474.7717,262.66284 -474.7717,264.94827 C -474.7717,267.58361 -476.16001,272.01677 -476.792,274.54472 C -477.59273,277.74762 -476.36509,281.53763 -479.31738,278.58533 C -480.60454,277.29817 -480.36378,272.37944 -480.83261,270.50411 C -481.56911,267.55812 -482.27989,265.28801 -482.85292,262.42289 C -483.28112,260.28188 -483.75898,256.8824 -484.36815,253.8366 C -484.98584,250.74815 -484.87322,247.40166 -484.87322,244.24015 C -484.87322,241.87804 -483.95387,238.54245 -483.35799,236.15893 C -482.65112,233.33142 -482.85292,230.14605 -482.85292,227.06755 C -482.85292,223.72152 -483.86307,220.52713 -483.86307,216.96603 C -483.86307,212.71987 -484.69072,208.47739 -483.86307,204.33912 C -483.02492,200.14837 -482.79854,193.62376 -480.83261,189.69191 C -479.89203,187.81074 -480.83261,182.76609 -480.83261,180.60054 C -480.83261,179.72688 -478.6122,175.30205 -478.30723,174.53962 z"
           id="path2443" />
        <path
           style="fill:#ff7f2a;fill-rule:evenodd;stroke:#000000;stroke-width:1px;stroke-linecap:butt;stroke-linejoin:miter;stroke-opacity:1"
           d="M -496.99505,163.93302 C -492.05806,163.55435 -485.25922,169.83954 -479.82246,172.01424 C -478.98067,172.35096 -478.13887,172.68767 -477.29708,173.02439 C -474.24281,174.2461 -475.78185,184.77315 -475.78185,187.16653 C -475.78185,194.40227 -476.792,200.40901 -476.792,207.36958 C -476.792,214.36533 -479.31738,220.95067 -479.31738,228.07771 C -479.31738,232.52871 -480.32754,237.70576 -480.32754,242.72492 C -480.32754,247.19497 -480.33634,251.78109 -479.31738,255.8569 C -478.59168,258.7597 -479.31738,262.91735 -479.31738,265.95843 C -479.31738,269.03148 -478.30723,271.74237 -478.30723,275.0498 C -478.30723,279.35496 -477.22441,280.96537 -477.80215,282.12087 C -479.424,285.36456 -480.69595,275.4598 -481.84276,272.01934 C -485.25405,261.7855 -483.89797,249.70874 -487.90368,239.69446 C -490.0129,234.4214 -489.67761,229.5806 -492.44937,224.03709 C -495.83949,217.25684 -496.27768,209.163 -499.01536,202.31882 C -500.70806,198.08706 -500.6045,193.07962 -502.55089,189.18683 C -503.91461,186.4594 -503.32255,182.56466 -504.06612,179.59038 C -504.7517,176.84807 -504.06612,172.88598 -504.06612,169.99393 C -504.06612,166.2625 -503.28284,164.55153 -500.02551,162.92287 C -499.07313,162.44668 -498.00521,163.5963 -496.99505,163.93302 z"
           id="path2441" />
        <path
           style="fill:#ffd42a;fill-rule:evenodd;stroke:#000000;stroke-width:1px;stroke-linecap:butt;stroke-linejoin:miter;stroke-opacity:1"
           d="M -488.91384,152.31626 C -488.91384,152.15607 -491.97359,156.54476 -498.51028,160.90256 C -501.36899,162.80836 -504.43063,164.24034 -505.07628,167.46855 C -506.01123,172.14334 -494.25604,173.37404 -491.94429,174.03454 C -488.05528,175.14569 -484.39194,176.05485 -480.32754,176.05485 C -476.57357,176.05485 -474.8639,173.07049 -471.74124,171.50916 C -468.67171,169.97439 -466.13235,167.44202 -463.15495,165.95332 C -461.6491,165.2004 -459.7375,165.54499 -458.10418,165.95332 C -455.10136,166.70403 -462.19398,161.24447 -464.67017,159.38733 C -467.70713,157.10961 -470.01187,155.63441 -473.25647,154.33657 C -475.81042,153.31499 -479.05032,153.51945 -481.84277,152.82134 C -484.76713,152.09025 -488.41841,152.41535 -491.43922,151.81119"
           id="path2445" />
      </g>
      <path
         id="path2437"
         d="M -344.21516,363.01975 C -350.22892,359.03375 -355.49817,361.95165 -362.56484,365.54986 C -371.17208,369.93249 -380.07476,377.52547 -386.70594,384.25441 C -393.65561,391.30652 -399.19061,399.59252 -406.51254,405.96199 C -412.91818,411.53435 -415.53815,422.28244 -418.15382,430.32512 C -420.30101,436.92733 -414.12184,440.6307 -410.69942,444.96513 C -405.1138,452.03924 -392.67943,452.21821 -386.63702,459.16419 C -382.72377,463.66261 -368.93321,465.98411 -362.93378,467.93527 C -356.60519,469.99347 -350.36586,471.49153 -344.04536,473.5471 C -338.18543,475.45289 -331.81421,475.4005 -325.64893,477.40559 C -319.86639,479.28621 -312.49299,478.03368 -307.77956,474.71927 C -302.51829,471.01961 -301.78148,466.07477 -299.899,460.2865 C -298.75678,456.77439 -298.53372,451.16133 -299.82459,448.62615 C -304.04624,440.33505 -320.77768,436.72373 -327.74118,431.58028 C -331.62224,428.71361 -336.584,428.25707 -339.92859,424.96106 C -343.65699,421.28684 -343.53581,413.12121 -344.20038,408.70053 C -345.15143,402.3741 -340.47702,395.61885 -338.43232,389.3318 C -336.8566,384.48676 -334.25565,378.71747 -333.91395,373.80557 C -333.66408,370.21387 -337.85029,367.3894 -339.72445,365.54246 C -341.48293,363.80953 -341.23223,363.98987 -344.21516,363.01975 z"
         style="fill:#ffffff;fill-rule:evenodd;stroke:#000000;stroke-width:1px;stroke-linecap:butt;stroke-linejoin:miter;stroke-opacity:1" />
      <path
         id="path2439"
         d="M -304.56099,446.77573 C -299.856,446.71679 -287.81643,440.10273 -279.30718,442.23004 C -273.89294,443.5836 -273.24626,449.60176 -273.24626,454.35188 C -273.24626,458.05757 -275.86119,460.9716 -278.29703,462.4331 C -281.97766,464.64148 -273.85206,471.22083 -275.77165,475.06 C -277.57058,478.65787 -281.83256,476.33615 -281.83256,481.62599 C -281.83256,485.88988 -282.59977,488.82813 -286.37825,490.71737 C -289.79046,492.42348 -295.21958,491.72752 -299.00515,491.72752 C -301.77437,491.72752 -307.47679,487.64663 -310.11683,485.6666 C -313.78239,482.91744 -313.96997,478.4836 -317.1879,476.07016 C -317.8527,475.57156 -317.1879,469.05578 -317.1879,467.98893 C -317.1879,465.27768 -315.20713,460.97058 -313.65237,458.89756 C -311.83435,456.47354 -311.00115,453.3423 -309.10668,450.81634 C -307.66065,448.8883 -306.80485,448.12205 -304.56099,446.77573 z"
         style="fill:#ffe6d5;fill-rule:evenodd;stroke:#000000;stroke-width:1px;stroke-linecap:butt;stroke-linejoin:miter;stroke-opacity:1" />
      <path
         id="path2452"
         d="M -163.64471,357.88231 C -164.39651,361.8983 -168.1904,367.17972 -168.1904,373.0346 C -168.1904,379.16503 -164.02983,383.37604 -161.62441,388.18688 C -161.28769,388.86032 -160.95097,389.53375 -160.61425,390.20719 C -157.5263,396.38309 -150.2413,400.92945 -146.9772,406.36963 C -142.18209,414.36148 -141.05154,422.30663 -136.37059,430.10821 C -132.88687,435.91441 -133.84521,445.97406 -133.84521,452.83665 C -133.84521,458.14567 -132.83506,464.3277 -132.83506,470.00924 C -132.83506,474.47237 -133.54038,479.44031 -131.31983,483.14122 C -128.90402,487.16757 -129.64351,493.74782 -123.74369,493.74782 C -117.00934,493.74782 -110.27499,493.74782 -103.54064,493.74782 C -97.653718,493.74782 -93.024268,489.3826 -90.408653,484.15138 C -86.464147,476.26236 -82.327432,467.87848 -82.327432,458.89756 C -82.327432,447.63898 -81.572878,439.69854 -86.368043,430.10821 C -87.041478,428.76134 -87.714913,427.41447 -88.388348,426.0676 C -92.96153,416.92124 -96.545364,408.74342 -101.01525,399.80364 C -105.00002,391.8341 -110.05625,383.1865 -116.67262,376.57013 C -117.34605,375.89669 -118.01949,375.22326 -118.69292,374.54982 C -122.87332,370.36943 -127.481,367.07488 -132.32998,363.43815 C -136.50076,360.31006 -140.38903,354.85628 -145.46197,353.8417 C -154.1687,352.10035 -161.42807,352.3407 -164.65486,360.40769 C -164.88031,360.9713 -165.3283,361.41784 -165.66502,361.92292"
         style="fill:#ffffff;fill-rule:evenodd;stroke:#000000;stroke-width:1px;stroke-linecap:butt;stroke-linejoin:miter;stroke-opacity:1" />
    </g>
    <g
       id="g6937"
       transform="matrix(0.8356157,0,0,0.8356157,-288.346,262.08033)">
      <path
         transform="translate(-4.149475e-6,698.0315)"
         id="path6929"
         d="M 516.85905,3.2351446 C 522.79841,5.9184063 535.09123,8.3165666 544.40038,5.989278 C 552.28403,4.0183654 558.44509,3.0981252 565.5154,-0.43703335 C 570.99644,-3.1775539 569.71645,-8.0607722 571.02367,-13.289656 C 572.97077,-21.07804 565.15631,-23.298373 576.53194,-26.142279 C 587.3809,-28.85452 600.01696,-27.978368 611.41763,-27.978368 C 621.80406,-27.978368 631.95486,-27.196426 640.79505,-30.732501 C 646.59089,-33.050839 649.05745,-47.405525 649.05745,-51.847525 C 649.05745,-61.372889 650.89354,-71.311575 650.89354,-81.224948 C 650.89354,-90.395127 647.56786,-93.755363 639.87701,-96.831704 C 630.94999,-100.40251 621.09476,-102.5632 611.41763,-104.17606 C 598.30673,-106.36121 585.26631,-108.76628 571.94171,-108.76628 C 558.23276,-108.76628 544.20268,-110.56283 530.62971,-107.84824 C 518.67612,-105.45752 513.50039,-105.72114 507.6786,-94.077571 C 504.77385,-88.268061 507.17488,-78.649616 508.59664,-72.962548 C 508.83135,-72.023737 509.20867,-71.126459 509.51469,-70.208414 C 511.39605,-64.564345 511.7675,-60.279124 513.18687,-54.601658 C 514.20473,-50.530209 525.39318,-44.826325 529.71167,-42.66708 C 536.6792,-39.183312 544.12788,-34.99995 550.82669,-31.650546 C 556.32097,-28.903406 558.901,-28.520235 555.41691,-21.552057 C 553.05028,-16.818798 550.22079,-14.51984 546.23647,-10.535523 C 541.75537,-6.0544197 536.79052,-2.2974295 530.62971,1.3990556 C 526.10512,4.1138132 521.91286,5.2566691 516.85905,3.2351446 z"
         style="fill:#ffffff;fill-rule:evenodd;stroke:#000000;stroke-width:1px;stroke-linecap:butt;stroke-linejoin:miter;stroke-opacity:1" />
      <path
         id="path6933"
         d="M 577.44998,648.93811 C 573.59798,645.08611 565.91335,653.28402 567.35149,659.0366 C 569.32521,666.93149 580.32757,660.74923 582.0402,659.0366 C 585.91838,655.15842 579.65498,651.14311 577.44998,648.93811 z"
         style="fill:#000000;fill-rule:evenodd;stroke:#000000;stroke-width:1px;stroke-linecap:butt;stroke-linejoin:miter;stroke-opacity:1" />
      <path
         id="path6935"
         d="M 571.94171,643.42984 C 574.04117,641.33038 567.94465,631.25981 566.43344,628.74113 C 563.45631,623.77925 558.36804,617.7246 566.43344,617.7246 C 573.69889,617.7246 578.90164,619.85102 586.63042,621.39677 C 595.66759,623.20421 593.10993,615.9949 590.3026,610.38024 C 586.97302,603.7211 579.71812,599.64452 571.94171,601.1998 C 562.0984,603.16846 551.68274,607.6571 542.56428,612.21633 C 535.45563,615.77066 538.30424,611.81365 539.81015,605.79002 C 540.51036,602.98917 546.49215,600.15391 548.07255,599.36371 C 552.97806,596.91095 557.95026,596.60958 563.67931,596.60958 C 569.84022,596.60958 575.71681,595.69153 582.0402,595.69153 C 588.88032,595.69153 598.25681,599.20961 604.07326,602.11784 C 609.35503,604.75872 612.33566,603.19089 612.33566,610.38024 C 612.33566,615.67759 610.58284,617.39152 609.58153,621.39677 C 608.63355,625.1887 603.43246,628.99222 601.31913,630.57722 C 600.66331,631.06908 588.71725,628.32376 586.63042,628.74113 C 584.63107,629.141 581.97323,637.13745 581.12215,638.83962 C 579.05088,642.98215 576.85354,642.44748 571.94171,643.42984 z"
         style="fill:#000000;fill-rule:evenodd;stroke:#000000;stroke-width:1px;stroke-linecap:butt;stroke-linejoin:miter;stroke-opacity:1" />
    </g>
    <g
       id="g6963"
       transform="translate(479.76587,-19.031068)">
      <path
         transform="translate(-4.149475e-6,698.0315)"
         id="path6955"
         d="M -69.312359,114.77755 C -72.611187,113.67794 -80.135979,115.05529 -84.919115,113.8595 C -89.133799,112.80583 -95.712703,113.80377 -99.607827,114.77755 C -103.82122,115.8309 -108.49455,117.04698 -112.00143,118.44973 C -115.96463,120.03501 -118.88025,121.1778 -119.80481,124.87604 C -120.56668,127.92352 -119.67476,129.13729 -117.96872,130.84333 C -115.79606,133.01599 -114.15271,134.09244 -110.62436,134.97453 C -105.67132,136.21279 -99.664415,135.43355 -94.558582,135.43355 C -89.509337,135.43355 -84.460093,135.43355 -79.410848,135.43355 C -74.607354,135.43355 -69.301528,135.20133 -64.722136,134.05648 C -61.772338,133.31903 -59.552677,132.87887 -56.918758,132.22039 C -54.553651,131.62912 -55.082669,127.43243 -55.082669,125.33506 C -55.082669,122.14254 -56.931516,119.5909 -59.213869,118.44973 C -62.134653,116.98934 -64.243354,116.39401 -66.558225,115.23657 C -68.558196,114.23659 -63.265381,114.77755 -69.312359,114.77755 z"
         style="fill:#ffff00;fill-rule:evenodd;stroke:#000000;stroke-width:1px;stroke-linecap:butt;stroke-linejoin:miter;stroke-opacity:1" />
      <path
         id="path6957"
         d="M -105.45761,891.17659 C -102.15877,890.07698 -94.633982,891.45433 -89.850846,890.25854 C -85.636162,889.20487 -79.057258,890.20281 -75.162134,891.17659 C -70.948741,892.22994 -66.275411,893.44602 -62.76853,894.84877 C -58.80533,896.43405 -55.88971,897.57684 -54.96515,901.27508 C -54.20328,904.32256 -55.0952,905.53633 -56.80124,907.24237 C -58.9739,909.41503 -60.61725,910.49148 -64.145601,911.37357 C -69.098641,912.61183 -75.105546,911.83259 -80.211379,911.83259 C -85.260624,911.83259 -90.309868,911.83259 -95.359113,911.83259 C -100.16261,911.83259 -105.46844,911.60037 -110.04783,910.45552 C -112.99763,909.71807 -115.21729,909.27791 -117.85121,908.61943 C -120.21632,908.02816 -119.6873,903.83147 -119.6873,901.7341 C -119.6873,898.54158 -117.83845,895.98994 -115.5561,894.84877 C -112.63532,893.38838 -110.52661,892.79305 -108.21174,891.63561 C -106.21177,890.63563 -111.50459,891.17659 -105.45761,891.17659 z"
         style="fill:#ffff00;fill-rule:evenodd;stroke:#000000;stroke-width:1px;stroke-linecap:butt;stroke-linejoin:miter;stroke-opacity:1" />
      <path
         sodipodi:nodetypes="csssssssssssssssss"
         transform="translate(-4.149475e-6,698.0315)"
         id="path6944"
         d="M -113.83752,130.84333 C -115.54483,130.84333 -101.08453,124.41702 -83.542048,124.41702 C -82.317989,124.41702 -81.09393,124.41702 -79.86987,124.41702 C -72.486899,124.41702 -64.263114,120.77208 -64.263114,129.92528 C -64.263114,135.6681 -65.012383,144.27644 -67.017248,148.28617 C -69.583599,153.41887 -78.193514,153.39538 -81.246937,157.46661 C -84.45371,161.74231 -83.542048,164.74243 -83.542048,170.77826 C -83.542048,173.09367 -74.771711,177.76143 -73.443559,180.41773 C -71.429771,184.44531 -67.832002,195.31302 -66.099203,198.77862 C -63.889361,203.1983 -68.933844,202.86416 -70.689425,205.20493 C -73.647093,209.14849 -82.882833,208.02377 -86.296182,208.87711 C -91.879159,210.27285 -99.264627,206.15193 -104.65707,207.50004 C -111.60727,209.23759 -108.67303,201.9937 -109.70631,197.86058 C -111.53814,190.53325 -106.4003,188.95345 -103.73902,183.63089 C -101.69481,179.54246 -97.057722,175.1135 -93.640537,171.69631 C -88.62621,166.68198 -92.266607,162.05057 -94.558582,157.46662 C -96.335098,153.91359 -103.45111,152.49525 -105.57512,149.66324 C -109.38589,144.5822 -109.12005,136.74017 -113.83752,130.84333"
         style="fill:none;fill-rule:evenodd;stroke:#000000;stroke-width:1px;stroke-linecap:butt;stroke-linejoin:miter;stroke-opacity:1" />
      <path
         id="path6946"
         d="M -72.022237,825.10653 C -74.536945,825.12308 -77.583344,825.7537 -80.49171,825.7537 C -81.593864,825.7537 -82.709813,825.7537 -83.811968,825.7537 C -99.607379,825.7537 -112.61476,831.55009 -111.07748,831.55008 C -106.82983,836.85965 -107.08036,843.91401 -103.64911,848.48902 C -101.73663,851.03899 -95.316062,852.32429 -93.716468,855.52347 C -92.101512,858.75339 -89.772784,862.00097 -90.987103,865.42797 C -90.526102,867.37754 -90.224906,870.37235 -89.636489,871.84338 C -88.828228,873.86403 -89.24256,877.87612 -89.24256,880.11589 C -89.24256,883.47865 -89.615221,886.28494 -91.718685,888.3884 C -93.669998,890.33971 -94.487398,892.00125 -96.248868,893.76272 C -97.875209,895.38908 -100.60161,896.96611 -102.46732,897.89897 C -103.78881,898.55971 -104.7486,899.61014 -105.64689,900.6002 C -105.00416,900.86841 -104.09299,900.89406 -102.80497,900.57206 C -97.949569,899.35821 -91.31505,903.06686 -86.288093,901.81012 C -83.214682,901.04177 -74.882296,902.04068 -72.219202,898.48986 C -71.222017,897.16028 -69.053895,896.79604 -68.082948,895.70422 C -68.377823,895.35046 -68.67394,894.99126 -68.983357,894.57871 C -70.300736,892.8222 -71.874156,891.70915 -73.119611,890.04853 C -74.303243,888.47037 -75.889467,887.27866 -77.255865,885.91228 C -79.363911,883.80422 -80.401507,882.0014 -81.786048,879.69383 C -82.97466,877.71278 -83.135257,875.75735 -84.262173,873.50351 C -85.300542,871.42678 -84.800617,867.38476 -84.262173,865.23101 C -84.186826,864.92962 -84.044175,864.68568 -83.868244,864.44315 C -83.983397,860.90875 -84.015695,858.57138 -81.729772,855.52347 C -78.980436,851.8577 -71.237837,851.87249 -68.927081,847.25096 C -67.121878,843.64057 -66.450956,835.87683 -66.450956,830.70595 C -66.450956,826.07004 -68.789039,825.08525 -72.022237,825.10653 z"
         style="fill:#ff00ff;fill-rule:evenodd;stroke:#000000;stroke-width:0.90040904px;stroke-linecap:butt;stroke-linejoin:miter;stroke-opacity:1" />
      <path
         transform="translate(-4.149475e-6,698.0315)"
         id="path6959"
         d="M -116.59165,128.08919 C -115.23187,129.27461 -114.29654,133.32359 -114.29654,136.35159 C -114.29654,140.75265 -113.90148,145.39282 -114.75556,149.66324 C -115.56921,153.73149 -116.13263,158.67893 -116.13263,162.97488 C -116.13263,163.89293 -116.13263,164.81097 -116.13263,165.72902 C -116.13263,169.46923 -115.21458,173.31236 -115.21458,177.20457 C -115.21458,180.78554 -114.29654,184.64582 -114.29654,188.22111 C -114.29654,190.92694 -113.37849,193.31886 -113.37849,196.02449 C -113.37849,196.78952 -113.37849,197.55456 -113.37849,198.3196 C -113.37849,202.44371 -110.16642,202.45107 -108.32925,201.99178 C -107.6292,201.81676 -108.67608,192.91329 -108.78827,192.35231 C -109.36275,189.4799 -109.24729,186.11989 -109.24729,183.17186 C -109.24729,180.11363 -110.16534,177.08887 -110.16534,173.99142 C -110.16534,170.94693 -111.08338,168.05115 -111.08338,164.81097 C -111.08338,161.29858 -111.08338,157.5234 -111.08338,153.79444 C -111.08338,150.7244 -111.22326,146.80863 -112.00143,143.69595 C -112.56471,141.4428 -112.37171,139.00168 -112.91947,136.81062 C -113.41893,134.81277 -112.91947,131.48922 -112.91947,129.46626 C -112.91947,125.13393 -113.46954,124.18656 -116.59165,128.08919 z"
         style="fill:#ffff00;fill-rule:evenodd;stroke:#000000;stroke-width:1px;stroke-linecap:butt;stroke-linejoin:miter;stroke-opacity:1" />
      <path
         id="path6961"
         d="M -64.382828,828.39856 C -63.023048,829.58398 -62.087714,833.63296 -62.087714,836.66096 C -62.087714,841.06202 -61.692654,845.70219 -62.546734,849.97261 C -63.360388,854.04086 -63.923808,858.9883 -63.923808,863.28425 C -63.923808,864.2023 -63.923808,865.12034 -63.923808,866.03839 C -63.923808,869.7786 -63.005758,873.62173 -63.005758,877.51394 C -63.005758,881.09491 -62.087714,884.95519 -62.087714,888.53048 C -62.087714,891.23631 -61.169664,893.62823 -61.169664,896.33386 C -61.169664,897.09889 -61.169664,897.86393 -61.169664,898.62897 C -61.169664,902.75308 -57.957594,902.76044 -56.120424,902.30115 C -55.420374,902.12613 -56.467254,893.22266 -56.579444,892.66168 C -57.153924,889.78927 -57.038464,886.42926 -57.038464,883.48123 C -57.038464,880.423 -57.956514,877.39824 -57.956514,874.30079 C -57.956514,871.2563 -58.874554,868.36052 -58.874554,865.12034 C -58.874554,861.60795 -58.874554,857.83277 -58.874554,854.10381 C -58.874554,851.03377 -59.014434,847.118 -59.792604,844.00532 C -60.355884,841.75217 -60.162884,839.31105 -60.710644,837.11999 C -61.210104,835.12214 -60.710644,831.79859 -60.710644,829.77563 C -60.710644,825.4433 -61.260714,824.49593 -64.382828,828.39856 z"
         style="fill:#ffff00;fill-rule:evenodd;stroke:#000000;stroke-width:1px;stroke-linecap:butt;stroke-linejoin:miter;stroke-opacity:1" />
    </g>
    <path
       style="fill:none;fill-rule:evenodd;stroke:#000000;stroke-width:1px;stroke-linecap:butt;stroke-linejoin:miter;stroke-opacity:1"
       d="M 295.97476,864.42879 C 297.36507,860.47913 295.28644,857.96426 290.00747,857.08443 C 283.00663,855.91763 298.51033,853.12263 301.024,852.49421 C 302.27308,852.18194 295.74239,853.35273 290.92551,849.74008 C 296.56027,849.95484 292.59099,849.58267 291.38453,849.28105 C 283.57236,847.32801 249.08565,841.01865 274.40071,841.01865 C 291.71454,841.01865 314.26855,839.64159 329.02436,839.64159 C 333.48525,839.64159 320.15147,838.7084 315.71271,838.26452 C 300.59935,836.75318 271.31537,839.18256 258.79395,839.18256 C 254.76896,839.18256 266.80661,840.11359 270.72853,841.01865 C 287.52889,844.89566 314.45502,847.91592 328.10631,849.28105 C 331.361,849.60652 321.50382,848.65976 318.46685,847.44496 C 305.41155,842.22285 282.17276,826.07432 275.31875,820.36265 C 274.68363,819.83338 286.52131,820.4548 295.51573,821.73972 C 296.58679,821.89272 297.65784,822.04573 298.72889,822.19874 C 302.42673,822.727 292.65647,826.55303 289.54844,828.62505 C 288.70531,829.18714 235.81412,852.36035 255.5808,839.18256 C 257.78651,837.71209 264.70336,835.30982 265.22027,835.05136"
       id="path6971" />
    <g
       id="g9511"
       transform="matrix(0.9826025,-0.1857211,0.1857211,0.9826025,-231.44216,60.521988)">
      <rect
         transform="matrix(0.9085649,0.4177438,-0.4177438,0.9085649,0,0)"
         y="701.35229"
         x="606.67908"
         height="80.787918"
         width="22.951113"
         id="rect6999"
         style="fill:#0000ff;fill-rule:evenodd;stroke:#000000;stroke-width:1px;stroke-linecap:butt;stroke-linejoin:miter;stroke-opacity:1" />
      <rect
         transform="matrix(0.9085649,0.4177438,-0.4177438,0.9085649,0,0)"
         y="792.76599"
         x="415.55209"
         height="80.787918"
         width="22.951113"
         id="rect6995"
         style="fill:#0000ff;fill-rule:evenodd;stroke:#000000;stroke-width:1px;stroke-linecap:butt;stroke-linejoin:miter;stroke-opacity:1" />
      <rect
         transform="matrix(0.9085649,-0.4177438,-0.4177438,-0.9085649,0,0)"
         y="-916.36304"
         x="-334.40805"
         height="80.787918"
         width="22.951113"
         id="rect6997"
         style="fill:#0000ff;fill-rule:evenodd;stroke:#000000;stroke-width:1px;stroke-linecap:butt;stroke-linejoin:miter;stroke-opacity:1" />
      <rect
         transform="matrix(0.9085649,-0.4177438,-0.4177438,-0.9085649,0,0)"
         y="-1001.938"
         x="-140.59653"
         height="80.787918"
         width="22.951113"
         id="rect7001"
         style="fill:#0000ff;fill-rule:evenodd;stroke:#000000;stroke-width:1px;stroke-linecap:butt;stroke-linejoin:miter;stroke-opacity:1" />
      <g
         id="g7013">
        <rect
           transform="matrix(0.9085649,0.4177438,-0.4177438,0.9085649,0,0)"
           y="701.35229"
           x="606.67908"
           height="80.787918"
           width="22.951113"
           id="rect7003"
           style="fill:#808000;fill-rule:evenodd;stroke:#000000;stroke-width:1px;stroke-linecap:butt;stroke-linejoin:miter;stroke-opacity:1" />
        <rect
           transform="matrix(0.9085649,0.4177438,-0.4177438,0.9085649,0,0)"
           y="792.76599"
           x="415.55209"
           height="80.787918"
           width="22.951113"
           id="rect7005"
           style="fill:#808000;fill-rule:evenodd;stroke:#000000;stroke-width:1px;stroke-linecap:butt;stroke-linejoin:miter;stroke-opacity:1" />
        <rect
           transform="matrix(0.9085649,-0.4177438,-0.4177438,-0.9085649,0,0)"
           y="-916.36304"
           x="-334.40805"
           height="80.787918"
           width="22.951113"
           id="rect7007"
           style="fill:#808000;fill-rule:evenodd;stroke:#000000;stroke-width:1px;stroke-linecap:butt;stroke-linejoin:miter;stroke-opacity:1" />
        <rect
           transform="matrix(0.9085649,-0.4177438,-0.4177438,-0.9085649,0,0)"
           y="-1001.938"
           x="-140.59653"
           height="80.787918"
           width="22.951113"
           id="rect7009"
           style="fill:#808000;fill-rule:evenodd;stroke:#000000;stroke-width:1px;stroke-linecap:butt;stroke-linejoin:miter;stroke-opacity:1" />
      </g>
      <rect
         y="875.06274"
         x="19.105595"
         height="25.13385"
         width="288.61264"
         id="rect9490"
         style="fill:#ffff00;fill-opacity:1;fill-rule:evenodd;stroke:#000000;stroke-width:0.65334994px;stroke-linecap:butt;stroke-linejoin:miter;stroke-opacity:1" />
      <rect
         y="874.6037"
         x="19.90587"
         height="25.13385"
         width="288.61264"
         id="rect9416"
         style="fill:url(#pattern9488);fill-opacity:1;fill-rule:evenodd;stroke:#000000;stroke-width:0.65334994px;stroke-linecap:butt;stroke-linejoin:miter;stroke-opacity:1" />
    </g>
    <g
       id="g6973"
       transform="matrix(0.7749978,0,0,0.7749978,142.9135,224.26421)">
      <path
         id="path6903"
         d="M 151.8418,957.0484 C 149.43355,961.57049 144.7932,974.44037 142.70131,982.80795 C 142.29268,984.44248 142.14735,986.13176 141.87036,987.79366 C 140.30019,997.21471 136.88465,1006.1704 136.88465,1016.0461 C 136.88465,1026.9651 139.52125,1036.7638 143.53228,1046.7913 C 147.15663,1055.8523 149.84977,1063.9112 155.99657,1070.058 C 164.20233,1078.2638 176.83608,1075.0438 187.57278,1075.0438 C 201.10087,1075.0438 214.4892,1072.5509 228.28948,1072.5509 C 240.37514,1072.5509 253.85037,1071.1991 265.68239,1069.2271 C 277.73499,1067.2183 291.69708,1066.7342 303.90623,1066.7342 C 313.0696,1066.7342 327.43768,1065.3554 334.65149,1061.7485 C 337.36155,1060.3935 315.84449,1035.4629 313.87767,1033.4961 C 306.36307,1025.9815 300.49333,1018.4498 293.10384,1011.0603 C 291.9959,1009.9524 290.88796,1008.8445 289.78002,1007.7365 C 282.21524,1000.1717 276.24289,992.80571 267.34429,986.13176 C 260.20005,980.77357 252.24166,976.89429 244.90855,972.00556 C 236.50602,966.40386 227.67113,962.97136 219.14901,958.7103 C 212.65802,955.46482 205.84783,952.06267 198.37517,952.06267 C 192.24023,952.06267 189.04416,953.14899 183.41801,954.55554 C 177.99921,955.91023 171.50399,954.27929 165.96801,955.38649 C 161.45737,956.28861 157.34196,956.26265 151.8418,957.0484 z"
         style="fill:#00ffff;fill-rule:evenodd;stroke:#000000;stroke-width:1.81026769px;stroke-linecap:butt;stroke-linejoin:miter;stroke-opacity:1" />
      <path
         id="path6889"
         d="M 147.01523,909.65194 C 146.34205,907.73206 146.11846,902.07515 147.01523,898.48805 C 148.54703,892.36089 147.88789,886.18379 149.36552,880.2733 C 150.93747,873.98553 150.52835,869.32169 154.65367,863.82126 C 158.30891,858.9476 164.14103,855.77855 169.34298,852.65739 C 174.18377,849.75291 180.10653,847.91936 185.79502,846.78166 C 194.95583,844.94949 204.65998,844.27243 213.9985,845.60651 C 224.82553,847.15324 233.81125,851.53246 242.78956,857.94555 C 251.9354,864.47828 256.55658,869.78249 262.76703,879.09815 C 268.24135,887.30963 271.52859,901.80538 273.93091,911.41465 C 274.32262,912.98151 274.71434,914.54837 275.10605,916.11523 C 277.31928,924.96809 277.77929,931.80476 276.2812,940.79328 C 275.03689,948.25906 270.49336,953.99443 266.29247,959.59561 C 262.70238,964.38238 256.272,967.5437 251.01558,970.1719 C 244.21982,973.56979 239.19651,974.53347 231.62568,976.04763 C 223.57973,977.65683 215.40246,977.99963 207.5352,979.57307 C 202.21495,980.63713 195.3084,979.57307 189.90802,979.57307 C 185.10149,979.57307 179.31327,978.98088 174.63114,977.81036 C 174.20627,977.70414 173.84771,977.41864 173.456,977.22278 C 169.31628,975.15292 165.25802,974.00516 161.11696,971.93463 C 155.83998,969.29613 151.76248,967.73211 147.01523,964.88376 C 143.71421,962.90315 143.65087,957.46317 142.90221,953.71988 C 141.96728,949.04517 140.47372,945.18101 139.37679,940.79328 C 138.43869,937.04089 137.61406,932.86969 137.61406,929.04182 C 137.61406,924.00093 141.753,922.47482 142.90221,917.87796 C 143.52983,915.36749 145.18464,912.39782 147.01523,909.65194 z"
         style="fill:#ffe6d5;fill-opacity:1;fill-rule:evenodd;stroke:#000000;stroke-width:1.81026769px;stroke-linecap:butt;stroke-linejoin:miter;stroke-opacity:1" />
      <path
         id="path6891"
         d="M 204.59735,876.74786 C 205.35243,873.72752 211.10528,872.79291 215.17366,873.81001 C 217.25619,874.33064 220.42521,872.91949 223.98724,873.81001 C 227.28471,874.63437 228.57996,874.82899 227.51268,879.09815 C 226.52854,883.03465 227.1251,885.18007 228.68781,889.0869 C 230.66468,894.02905 227.95739,895.53406 226.9251,899.6632 C 226.72925,900.44663 226.53338,901.23006 226.33752,902.01349 C 225.32191,906.07593 224.48741,909.73932 222.22452,912.00222 C 220.19596,914.03079 214.62603,913.45118 211.64822,914.94009 C 207.95601,916.78618 204.89257,914.71938 201.65948,915.52765 C 201.27945,915.62267 200.87605,915.52765 200.48433,915.52765 C 196.1554,915.52765 190.9852,919.22449 186.97016,920.22824 C 182.94246,921.23517 180.64325,920.29644 178.15658,919.05309 C 174.05366,917.00164 169.46241,919.94544 165.81754,921.40338 C 163.02638,922.51984 158.56883,921.50081 155.82881,920.8158 C 152.7656,920.05001 149.10325,920.56818 147.01523,921.40338 C 143.56986,922.78154 142.77649,922.51566 139.37679,920.8158 C 136.70177,919.4783 137.22753,913.39394 136.43892,910.23951 C 135.58801,906.83588 134.43709,903.40733 133.50106,899.6632 C 133.04833,897.8523 135.50037,894.48942 136.43892,892.61232 C 137.71898,890.0522 138.78921,886.43058 138.78921,882.62359 C 138.78921,878.68092 139.39343,878.20847 142.31465,876.74786 C 146.15843,874.82597 148.8978,874.77409 152.89094,875.57272 C 156.77491,876.34951 160.27247,877.75411 164.05483,878.51059 C 167.94671,879.28897 171.15459,880.11418 175.21871,879.09815 C 178.8105,878.2002 182.50155,876.54297 186.3826,875.57272 C 191.07617,874.39933 197.00302,874.64143 201.65948,875.57272 C 202.69373,875.77956 203.61805,876.35615 204.59735,876.74786 z"
         style="fill:#f8ce22;fill-rule:evenodd;stroke:#000000;stroke-width:1.81026769000000010px;stroke-linecap:butt;stroke-linejoin:miter;stroke-opacity:1;fill-opacity:1" />
      <path
         id="path6893"
         d="M 135.26377,906.12649 C 138.83619,906.84097 128.07945,909.33125 126.45019,912.5898 C 125.91135,913.66747 130.22491,917.53965 130.56319,917.87796 C 132.70266,920.0174 134.45518,921.29286 137.0265,922.57853 C 140.66011,924.39534 140.55192,918.22478 140.55192,916.11523 C 140.55192,911.73496 139.73815,910.0133 137.61406,907.88921 C 136.9216,907.19676 136.0472,906.71407 135.26377,906.12649 z"
         style="fill:#f8ce22;fill-rule:evenodd;stroke:#000000;stroke-width:1.81026769000000010px;stroke-linecap:butt;stroke-linejoin:miter;stroke-opacity:1;fill-opacity:1" />
      <path
         id="path6895"
         d="M 127.62533,917.87796 C 125.27017,915.52278 119.83051,932.91793 119.39931,935.50513 C 118.51474,940.81256 119.10894,942.56282 121.16204,946.66901 C 122.8791,950.10315 124.22787,951.29396 125.27504,955.48259 C 125.38127,955.90746 125.66676,956.26602 125.86262,956.65775 C 128.60018,962.13285 125.28076,976.61807 123.51233,981.92336 C 123.17879,982.92397 122.7289,983.88195 122.33717,984.86123 C 120.26235,990.04826 116.3224,995.86514 114.11115,999.55054 C 112.37404,1002.4457 109.20922,1005.04 107.64787,1006.6014 C 104.05571,1010.1936 113.06781,1008.3641 114.69873,1008.3641 C 117.91319,1008.3641 122.6209,1004.0809 125.27504,1002.4884 C 128.23848,1000.7103 129.66523,999.19576 132.32591,997.20025 C 135.49257,994.82525 137.09471,991.1881 138.78921,987.79909 C 141.21515,982.9472 143.34674,978.38257 144.66494,973.10977 C 145.84612,968.38502 146.19277,965.00158 144.07737,960.77075 C 141.96878,956.55358 134.06706,951.93559 130.56319,948.43173 C 127.49935,945.36787 125.88771,940.25589 124.0999,936.68026 C 122.26398,933.00844 123.99558,929.25046 125.27504,926.69153 C 126.79724,923.64713 127.62533,922.13542 127.62533,917.87796 z"
         style="fill:#f8ce22;fill-rule:evenodd;stroke:#000000;stroke-width:1.81026769000000010px;stroke-linecap:butt;stroke-linejoin:miter;stroke-opacity:1;fill-opacity:1" />
      <path
         id="path6897"
         d="M 239.09187,890.57215 C 241.03855,891.46501 245.64553,891.89895 248.64784,892.64952 C 251.59617,893.38661 254.80594,893.29948 257.78832,893.89596 C 260.1452,894.36734 262.98205,892.961 264.43595,892.23405 C 266.03487,891.4346 265.12973,887.94605 264.85142,886.83286 C 264.12922,883.94403 262.66151,882.64341 261.9431,879.76976 C 261.5769,878.30496 260.34639,877.08685 259.86571,876.44594"
         style="fill:none;fill-rule:evenodd;stroke:#000000;stroke-width:1.81026769px;stroke-linecap:butt;stroke-linejoin:miter;stroke-opacity:1" />
      <path
         id="path6899"
         d="M 249.06332,893.065 C 248.30501,890.03178 245.60855,895.66621 245.32403,896.80428 C 244.47128,900.2153 246.59746,900.55708 249.06332,901.79002 C 251.81824,903.16747 254.07023,900.93785 255.29547,899.71262 C 256.90274,898.10536 254.16717,895.02291 253.63356,894.31144 C 252.94133,893.38845 250.06986,893.26632 249.06332,893.065 z"
         style="fill:#2b1100;fill-rule:evenodd;stroke:#2b1100;stroke-width:1.81026769px;stroke-linecap:butt;stroke-linejoin:miter;stroke-opacity:1" />
      <path
         id="path6901"
         d="M 278.14668,937.52099 C 277.91942,937.46418 276.50366,937.10551 276.48476,937.10551 C 274.05935,937.10551 271.62747,937.52099 269.42168,937.52099 C 264.45961,937.52099 259.8185,938.47741 254.88,939.18291 C 249.42794,939.96177 242.40097,941.86386 238.26093,942.50672 C 238.47171,942.50672 238.48829,937.44246 239.50735,933.36623 C 240.37123,929.91075 242.24554,930.7883 244.90855,932.1198 C 246.0235,932.67727 246.80079,937.61139 246.98593,938.35196 C 247.22177,939.29527 247.18567,939.35063 247.40142,940.42933"
         style="fill:#ff0000;fill-rule:evenodd;stroke:#000000;stroke-width:1.81026769px;stroke-linecap:butt;stroke-linejoin:miter;stroke-opacity:1" />
      <path
         id="path6907"
         d="M 175.93944,996.10319 C 170.46663,993.36679 176.11733,1008.4481 177.60135,1014.3842 C 179.4647,1021.8375 190.52721,1026.2483 196.71327,1029.3413 C 202.50568,1032.2375 207.95226,1036.0981 214.16329,1037.6508 C 221.33367,1039.4434 230.45315,1035.9889 237.42998,1035.9889 C 244.85997,1035.9889 251.68145,1035.158 259.03476,1035.158 C 268.82929,1035.158 278.2816,1032.6651 288.11812,1032.6651 C 296.75569,1032.6651 305.08267,1031.0032 313.87767,1031.0032 C 320.39951,1031.0032 326.67101,1031.8342 332.98959,1031.8342 C 334.61199,1031.8342 320.51708,1017.9795 318.86338,1016.877 C 314.87194,1014.2161 305.85672,1016.5971 301.41336,1017.708 C 293.94632,1019.5747 285.07943,1019.7378 277.31573,1021.0318 C 270.86502,1022.1069 261.94002,1021.4466 255.71095,1020.2008 C 246.32016,1018.3227 237.48244,1016.6824 228.28948,1014.3842 C 221.82874,1012.769 216.24014,1010.9563 210.00851,1009.3984 C 209.24503,1009.2076 204.24375,1001.9406 200.03709,1000.258 C 195.78229,998.55605 190.92724,999.01919 185.91088,997.76511 C 181.70099,996.71263 180.24257,998.25476 175.93944,996.10319 z"
         style="fill:#ffe6d5;fill-opacity:1;fill-rule:evenodd;stroke:#000000;stroke-width:1.81026769px;stroke-linecap:butt;stroke-linejoin:miter;stroke-opacity:1" />
      <path
         id="path6905"
         d="M 173.44659,999.427 C 167.95369,1000.5256 170.95372,988.40961 170.95372,982.80795 C 170.95372,976.3859 177.34739,974.62539 182.58706,972.00556 C 190.05297,968.2726 199.34093,967.01983 207.51566,967.01983 C 213.81675,967.01983 218.15901,976.59364 219.97995,981.14603 C 222.46735,987.36452 223.24398,995.15265 225.79663,1000.258 C 228.28881,1005.2423 227.06259,1007.8355 220.8109,1009.3984 C 215.33361,1010.7678 209.1501,1010.2294 203.3609,1010.2294 C 197.68506,1010.2294 192.50552,1011.0603 186.74183,1011.0603 C 181.12828,1011.0603 179.30657,1010.251 175.93944,1008.5675 C 174.79392,1007.9947 173.574,1000.0641 173.44659,999.427 z"
         style="fill:#00ffff;fill-rule:evenodd;stroke:#000000;stroke-width:1.81026769px;stroke-linecap:butt;stroke-linejoin:miter;stroke-opacity:1" />
      <path
         id="path6913"
         d="M 422.73253,932.95075 C 415.59261,934.73573 428.42613,946.58467 430.2111,953.72459 C 432.65457,963.49846 430.76876,973.96291 432.70397,983.6389 C 433.73499,988.79402 433.85608,994.62992 431.873,998.59605 C 428.49754,1005.347 426.72674,1005.331 421.07061,1001.0889 C 418.81869,999.39996 419.94719,989.11666 419.40871,986.96271 C 417.81311,980.58027 416.91585,971.91644 416.91585,965.35793 C 416.91585,957.69621 412.1322,947.88522 410.26824,940.42933 C 408.71733,934.22576 405.36424,930.41703 410.26824,927.96504 C 414.12803,926.03513 420.28465,931.11483 422.73253,932.95075 z"
         style="fill:#808080;fill-rule:evenodd;stroke:#000000;stroke-width:1.81026769px;stroke-linecap:butt;stroke-linejoin:miter;stroke-opacity:1" />
      <path
         id="path6911"
         d="M 401.12774,858.99592 C 396.13434,858.99592 403.16978,869.10876 401.95869,873.95308 C 400.34705,880.39969 401.17937,887.87277 399.46584,894.72691 C 397.4889,902.63465 396.14203,909.811 396.14203,917.9936 C 396.14203,923.30025 395.62675,930.05872 396.97298,935.44362 C 398.41167,941.19839 400.02076,944.86302 401.95869,948.73886 C 405.49834,955.81814 403.73585,956.86947 411.09919,958.7103 C 414.92662,959.66715 418.27701,953.49514 419.40871,951.23172 C 422.13452,945.78008 424.4893,941.71172 426.05634,935.44362 C 427.39621,930.08408 428.93461,924.76148 430.2111,919.65551 C 431.50836,914.46647 431.42844,908.96948 432.70397,903.86739 C 433.85307,899.27096 432.70397,892.83006 432.70397,888.07928 C 432.70397,882.95543 429.37833,878.1042 427.71824,874.78403 C 425.68882,870.72521 423.57785,865.65792 420.23966,862.31974 C 415.00737,857.08743 413.56341,856.9257 405.28251,858.99592 C 403.93894,859.33182 402.51267,858.99592 401.12774,858.99592 z"
         style="fill:#666666;fill-rule:evenodd;stroke:#000000;stroke-width:1.81026769px;stroke-linecap:butt;stroke-linejoin:miter;stroke-opacity:1" />
      <path
         id="path6909"
         d="M 383.67772,848.19353 C 386.76224,852.00476 388.3537,861.29221 389.4944,868.13641 C 391.23854,878.60125 391.98727,890.75533 391.98727,901.37454 C 391.98727,912.89098 393.64916,924.74673 393.64916,936.27457 C 393.64916,944.72649 391.98727,952.75207 391.98727,961.20316 C 391.98727,968.9241 392.15625,967.85079 401.12774,967.85079 C 411.63638,967.85079 413.48825,964.7352 411.93013,955.38649 C 410.78195,948.49742 411.09919,940.80214 411.09919,933.7817 C 411.09919,924.82899 410.26824,915.47765 410.26824,906.36025 C 410.26824,899.41413 411.09919,891.98716 411.09919,884.75547 C 411.09919,877.39639 413.31553,869.24669 411.93013,862.31974 C 410.88666,857.10238 406.65016,851.95597 404.45156,849.0245 C 402.10349,845.89375 396.62103,848.19353 392.81822,848.19353 C 388.34179,848.19353 388.625,847.20407 383.67772,848.19353 z"
         style="fill:#666666;fill-rule:evenodd;stroke:#000000;stroke-width:1.81026769px;stroke-linecap:butt;stroke-linejoin:miter;stroke-opacity:1" />
      <path
         id="path6917"
         d="M 331.32768,1035.9889 C 330.97375,1035.9889 339.94129,1029.8236 350.43959,1023.5247 C 357.6372,1019.2061 365.11935,1015.8246 372.87533,1012.7223 C 380.02858,1009.861 377.38161,1013.4253 380.35391,1019.3699 C 382.56216,1023.7864 370.56351,1026.758 367.05867,1028.5104 C 361.34919,1031.3651 355.82297,1036.0973 349.60865,1037.6508 C 344.68937,1038.8807 342.02981,1039.7533 337.14435,1040.9747 C 332.66461,1042.0946 332.09662,1039.8337 331.32768,1035.9889 z"
         style="fill:#ececec;fill-rule:evenodd;stroke:#000000;stroke-width:1.81026769px;stroke-linecap:butt;stroke-linejoin:miter;stroke-opacity:1" />
      <path
         id="path6919"
         d="M 368.72056,1029.3413 C 363.78764,1030.5746 377.08288,1038.0531 382.01582,1036.8199 C 382.89641,1036.5997 377.30648,1023.2465 377.03011,1022.6937 C 373.56576,1015.765 369.48178,1025.5353 368.72056,1029.3413 z"
         style="fill:#ececec;fill-rule:evenodd;stroke:#000000;stroke-width:1.81026769px;stroke-linecap:butt;stroke-linejoin:miter;stroke-opacity:1" />
      <path
         id="path6921"
         d="M 377.86106,1016.0461 C 374.51031,1009.3446 404.93877,1018.7825 407.77537,1020.2008 C 414.85567,1023.741 410.90567,1033.9059 403.62061,1036.8199 C 391.24238,1041.7712 396.98018,1031.9961 402.78966,1028.5104 C 410.18123,1024.0754 421.73753,1019.0418 426.88729,1029.3413 C 430.41744,1036.4016 424.62158,1045.0518 427.71824,1032.6651 C 430.33947,1022.1802 446.02942,1016.2062 455.1397,1014.3842 C 470.79224,1011.2536 466.46231,1031.6753 465.9421,1033.4961 C 464.37337,1038.9866 471.84804,1023.1387 476.74447,1020.2008 C 485.59018,1014.8934 494.96733,1008.8882 505.82783,1011.0603"
         style="fill:none;fill-rule:evenodd;stroke:#000000;stroke-width:1.81026769px;stroke-linecap:butt;stroke-linejoin:miter;stroke-opacity:1" />
      <path
         id="path6915"
         d="M 426.05634,995.27224 C 430.9237,992.83855 415.32089,997.40595 410.26824,999.427 C 404.48876,1001.7388 400.71306,1004.4116 399.46584,1006.0746 C 399.40451,1006.1564 415.06945,1009.8601 416.91585,1010.2294 C 426.79019,1012.2043 439.68887,1009.9438 449.32302,1008.5675 C 454.17302,1007.8746 479.78406,1005.3804 472.58971,1003.5818 C 466.38806,1002.0314 460.819,1001.0889 454.30874,1001.0889 C 446.97998,1001.0889 439.90552,1001.9199 432.70397,1001.9199 C 429.57872,1001.9199 427.52396,997.10677 426.05634,995.27224 z"
         style="fill:#b3b3b3;fill-rule:evenodd;stroke:#000000;stroke-width:1.81026769px;stroke-linecap:butt;stroke-linejoin:miter;stroke-opacity:1" />
      <path
         id="path6923"
         d="M 465.11113,1004.4127 C 468.9409,1002.1149 461.45187,995.11219 463.44923,991.11748 C 464.1163,989.78335 464.55717,988.34762 465.11113,986.96271 C 469.13262,976.90899 485.3349,980.59597 490.87068,986.13176 C 494.55236,989.81343 477.393,992.17145 481.7302,976.99127 C 484.84808,966.07867 505.73145,975.46482 509.9826,978.65317 C 528.34414,992.42433 503.06249,976.34423 534.08025,971.17459 C 557.33549,967.29872 627.85936,959.42266 644.59702,976.16032"
         style="fill:none;fill-rule:evenodd;stroke:#000000;stroke-width:1.81026769px;stroke-linecap:butt;stroke-linejoin:miter;stroke-opacity:1" />
    </g>
    <text
       xml:space="preserve"
       style="font-size:18px;font-style:normal;font-weight:bold;writing-mode:lr-tb;fill:#000000;fill-opacity:1;stroke:none;stroke-width:1px;stroke-linecap:butt;stroke-linejoin:miter;stroke-opacity:1;font-family:Sans;-inkscape-font-specification:Sans"
       x="56.476524"
       y="735.03339"
       id="text9524"><tspan
         sodipodi:role="line"
         x="56.476524"
         y="735.03339"
         id="tspan2728">How to get an overview: Interviews</tspan></text>
    <text
       xml:space="preserve"
       style="font-size:18;font-style:normal;font-weight:bold;writing-mode:lr-tb;fill:#000000;fill-opacity:1;stroke:none;stroke-width:1px;stroke-linecap:butt;stroke-linejoin:miter;stroke-opacity:1;font-family:Sans;-inkscape-font-specification:Sans"
       x="59.722305"
       y="255.76726"
       id="text9548"
       transform="translate(-4.149475e-6,698.0315)"><tspan
         sodipodi:role="line"
         id="tspan9550"
         x="59.722305"
         y="255.76726">access</tspan></text>
    <text
       xml:space="preserve"
       style="font-size:18px;font-style:normal;font-weight:bold;writing-mode:lr-tb;fill:#000000;fill-opacity:1;stroke:none;stroke-width:1px;stroke-linecap:butt;stroke-linejoin:miter;stroke-opacity:1;font-family:Sans;-inkscape-font-specification:Sans"
       x="248.18562"
       y="865.23346"
       id="text9552"><tspan
         sodipodi:role="line"
         id="tspan9554"
         x="248.18562"
         y="865.23346">annoying</tspan></text>
    <text
       xml:space="preserve"
       style="font-size:18px;font-style:normal;font-weight:bold;text-align:center;writing-mode:lr-tb;text-anchor:middle;fill:#000000;fill-opacity:1;stroke:none;stroke-width:1px;stroke-linecap:butt;stroke-linejoin:miter;stroke-opacity:1;font-family:Sans;-inkscape-font-specification:Sans"
       x="393.57175"
       y="768.14026"
       id="text9556"><tspan
         sodipodi:role="line"
         id="tspan9558"
         x="393.57175"
         y="768.14026">time</tspan><tspan
         sodipodi:role="line"
         x="393.57175"
         y="790.64026"
         id="tspan9560">consuming</tspan></text>
    <text
       xml:space="preserve"
       style="font-size:27.8513546px;font-style:normal;font-weight:bold;writing-mode:lr-tb;fill:#ff0000;fill-opacity:1;stroke:none;stroke-width:1px;stroke-linecap:butt;stroke-linejoin:miter;stroke-opacity:1;font-family:Sans;-inkscape-font-specification:Sans"
       x="-132.35909"
       y="914.12994"
       id="text2468"
       transform="matrix(0.9835681,-0.1805375,0.1805375,0.9835681,0,0)"><tspan
         sodipodi:role="line"
         id="tspan2470"
         x="-132.35909"
         y="914.12994">DANGER</tspan></text>
  </g>
</svg>
