<?xml version="1.0" encoding="UTF-8" standalone="no"?>
<!-- Created with Inkscape (http://www.inkscape.org/) -->
<svg
   xmlns:dc="http://purl.org/dc/elements/1.1/"
   xmlns:cc="http://creativecommons.org/ns#"
   xmlns:rdf="http://www.w3.org/1999/02/22-rdf-syntax-ns#"
   xmlns:svg="http://www.w3.org/2000/svg"
   xmlns="http://www.w3.org/2000/svg"
   xmlns:sodipodi="http://sodipodi.sourceforge.net/DTD/sodipodi-0.dtd"
   xmlns:inkscape="http://www.inkscape.org/namespaces/inkscape"
   width="453.5433"
   height="340.15747"
   id="svg2"
   sodipodi:version="0.32"
   inkscape:version="0.46"
   sodipodi:docname="msa021-developer-topic.svg"
   version="1.0"
   inkscape:output_extension="org.inkscape.output.svg.inkscape">
  <defs
     id="defs4">
    <inkscape:perspective
       sodipodi:type="inkscape:persp3d"
       inkscape:vp_x="0 : 170.07874 : 1"
       inkscape:vp_y="0 : 1000 : 0"
       inkscape:vp_z="453.5433 : 170.07874 : 1"
       inkscape:persp3d-origin="226.77165 : 113.38582 : 1"
       id="perspective7020" />
  </defs>
  <sodipodi:namedview
     id="base"
     pagecolor="#ffffff"
     bordercolor="#666666"
     borderopacity="1.0"
     gridtolerance="10000"
     guidetolerance="8.8"
     objecttolerance="10"
     inkscape:pageopacity="0.0"
     inkscape:pageshadow="2"
     inkscape:zoom="1.0892718"
     inkscape:cx="238.82677"
     inkscape:cy="164.74471"
     inkscape:document-units="mm"
     inkscape:current-layer="layer1"
     inkscape:window-width="1024"
     inkscape:window-height="768"
     inkscape:window-x="0"
     inkscape:window-y="0"
     width="12.8cm"
     height="9.6cm"
     units="cm"
     showgrid="false"
     grid_units="mm"
     inkscape:object-paths="false"
     inkscape:grid-points="true"
     inkscape:grid-bbox="true"
     inkscape:guide-points="true"
     showguides="true"
     inkscape:guide-bbox="true">
    <sodipodi:guide
       orientation="vertical"
       position="56.476527"
       id="guide3573" />
    <sodipodi:guide
       orientation="horizontal"
       position="11.035643"
       id="guide3579" />
    <sodipodi:guide
       orientation="horizontal"
       position="24.018753"
       id="guide3886" />
    <sodipodi:guide
       orientation="horizontal"
       position="285.62841"
       id="guide3988" />
    <sodipodi:guide
       orientation="horizontal"
       position="303.15561"
       id="guide4081" />
    <inkscape:grid
       id="GridFromPre046Settings"
       type="xygrid"
       originx="0px"
       originy="0px"
       spacingx="2mm"
       spacingy="2mm"
       color="#0000ff"
       empcolor="#0000ff"
       opacity="0.2"
       empopacity="0.4"
       empspacing="5" />
  </sodipodi:namedview>
  <metadata
     id="metadata7">
    <rdf:RDF>
      <cc:Work
         rdf:about="">
        <dc:format>image/svg+xml</dc:format>
        <dc:type
           rdf:resource="http://purl.org/dc/dcmitype/StillImage" />
      </cc:Work>
    </rdf:RDF>
  </metadata>
  <g
     inkscape:label="Layer 1"
     inkscape:groupmode="layer"
     id="layer1"
     transform="translate(4.149475e-6,-698.0315)">
    <g
       id="g7539"
       transform="matrix(0.3935289,5.2878504e-2,-5.2878504e-2,0.3935289,-23.916601,625.36858)">
      <path
         sodipodi:nodetypes="cssssssssssccssssssc"
         id="path4607"
         d="M 738.78938,824.98687 C 744.43884,832.89778 719.44099,826.98615 709.83875,828.50132 C 698.26437,830.32768 686.70091,833.20608 675.04367,835.04552 C 666.82631,836.34216 666.62931,841.82317 667.89931,849.87169 C 669.70086,861.2888 660.39211,876.08112 656.64038,885.36845 C 655.80826,887.42837 656.8105,901.89371 655.71001,903.82362 C 650.26644,913.37001 653.63961,930.70165 655.39228,941.809 C 657.36082,954.28448 652.45003,965.18718 654.41855,977.66251 C 655.75681,986.14358 656.04942,991.22514 655.27511,999.95391 C 654.69992,1006.4383 684.77015,998.95051 689.20504,998.25071 C 713.6372,994.39548 739.03699,993.54882 762.69085,989.8164 C 782.87236,986.63189 807.93502,981.34405 828.2759,984.73628 C 850.61748,978.77023 843.89445,993.75 838.2297,940.10044 C 832.15783,928.38758 836.77939,921.36982 832.53429,907.77933 C 828.33724,894.34271 830.14026,876.0106 827.94945,862.12654 C 826.53837,853.18395 825.95848,836.4882 824.34137,826.23993 C 823.25564,819.35922 815.82396,815.34671 809.89441,814.82074 C 797.7037,813.73931 783.80155,816.83049 771.52814,818.76715 C 762.74313,820.15337 755.5547,821.43466 748.20502,824.55491 C 745.81662,825.56887 740.87582,825.07225 738.78938,824.98687 z"
         style="fill:#b3b3b3;fill-rule:evenodd;stroke:#000000;stroke-width:0.51520818px;stroke-linecap:butt;stroke-linejoin:miter;stroke-opacity:1" />
      <path
         id="path4609"
         d="M 688.67944,841.32392 C 689.96578,830.57516 692.5501,812.42933 690.25299,797.87163 C 689.13165,790.76528 683.02048,773.51631 690.14747,770.49061 C 704.62715,764.3434 720.83298,762.48738 736.95598,759.94328 C 749.01848,758.0399 764.03282,757.49858 774.83554,752.91237 C 790.50188,746.26137 787.44603,759.35789 793.17813,768.98566 C 800.4338,781.17245 801.45258,801.38991 803.72547,815.79416 C 805.89849,829.56547 806.34815,829.07913 788.35588,831.9182 C 775.81314,833.89736 763.83911,834.73303 751.18,836.73055 C 739.87029,838.51515 728.56056,840.29975 717.25083,842.08435 C 709.0177,843.38348 697.53602,841.68631 688.67944,841.32392 z"
         style="fill:#e6e6e6;fill-rule:evenodd;stroke:#000000;stroke-width:0.51520818px;stroke-linecap:butt;stroke-linejoin:miter;stroke-opacity:1" />
      <path
         sodipodi:nodetypes="cssssssscc"
         id="path4611"
         d="M 708.49716,850.96564 C 710.96883,859.06252 715.39983,872.66303 723.06287,866.32688 C 733.34415,857.82582 747.35877,852.0971 759.52901,846.90081 C 766.65647,843.85764 776.19417,833.05494 782.59539,828.44982 C 789.82144,823.25131 793.20666,822.26131 789.13128,812.60719 C 786.90376,807.33046 785.91678,799.39349 785.04727,793.88303 C 783.6975,785.32898 764.64192,792.97357 760.45177,795.48537 C 753.33005,799.7545 745.10594,802.6308 737.25956,805.98093 C 726.98782,810.36661 721.65164,814.14041 710.31033,815.92999 C 700.03682,818.09098 705.8138,838.98132 708.49716,850.96564 z"
         style="fill:#000000;fill-rule:evenodd;stroke:#000000;stroke-width:0.55463159px;stroke-linecap:butt;stroke-linejoin:miter;stroke-opacity:1" />
      <path
         sodipodi:nodetypes="cssssssscc"
         id="path4613"
         d="M 711.20309,848.8343 C 713.49853,856.32154 717.61473,868.89771 724.77042,863.02668 C 734.37106,855.14968 747.45059,849.83268 758.80908,845.01053 C 765.46111,842.18647 774.37102,832.18117 780.34759,827.91308 C 787.09429,823.09501 790.25315,822.17496 786.46377,813.24915 C 784.3926,808.37046 783.48181,801.0293 782.67761,795.93273 C 781.42922,788.02115 763.64527,795.11676 759.7337,797.4456 C 753.08547,801.40378 745.4107,804.07482 738.08766,807.18375 C 728.50107,811.25365 723.51895,814.75137 712.9379,816.42099 C 703.35241,818.43287 708.71503,837.75109 711.20309,848.8343 z"
         style="fill:#ffff00;fill-rule:evenodd;stroke:#000000;stroke-width:0.51520818px;stroke-linecap:butt;stroke-linejoin:miter;stroke-opacity:1" />
      <path
         id="path4615"
         d="M 710.51358,844.46462 C 717.4793,841.48197 725.90358,838.90816 731.64553,834.80762 C 735.3733,832.14547 740.74673,831.99275 743.51039,828.19351 C 745.88076,824.93492 753.43144,822.03094 756.75523,820.3079 C 760.14029,818.55311 763.33086,817.45095 766.84769,815.81756 C 769.25032,814.70166 771.45268,813.38698 773.59863,811.85448 C 775.86621,810.23511 778.59847,810.17117 780.76885,808.879 C 781.84481,808.23839 783.58006,807.90852 784.80035,807.71596"
         style="fill:none;fill-rule:evenodd;stroke:#000000;stroke-width:0.51520818px;stroke-linecap:butt;stroke-linejoin:miter;stroke-opacity:1" />
      <path
         id="path4617"
         d="M 766.4304,794.80827 C 767.15164,794.37887 767.01044,799.46638 769.01348,802.83072 C 771.21335,806.52569 771.58239,812.43283 772.27239,816.80565 C 772.55489,818.59595 773.0165,820.55973 772.86709,822.24402 C 772.73557,823.72661 773.39768,825.504 773.34011,826.91128 C 773.28453,828.26951 773.81582,829.92607 774.02961,831.28097 C 774.07424,831.56375 774.41128,832.42632 774.53001,832.78262"
         style="fill:none;fill-rule:evenodd;stroke:#000000;stroke-width:0.51520818px;stroke-linecap:butt;stroke-linejoin:miter;stroke-opacity:1" />
      <path
         id="path4619"
         d="M 749.46531,802.49059 C 749.93438,805.46327 749.89595,810.22822 750.51936,814.17902 C 751.0116,817.29854 751.75168,820.31925 752.23652,823.39188 C 752.77066,826.77691 753.03712,830.13509 753.56129,833.45695 C 753.96354,836.00616 754.10761,838.58883 754.52101,841.20871 C 754.77788,842.8366 755.03475,844.46453 755.29163,846.09245"
         style="fill:none;fill-rule:evenodd;stroke:#000000;stroke-width:0.51520818px;stroke-linecap:butt;stroke-linejoin:miter;stroke-opacity:1" />
      <path
         id="path4621"
         d="M 732.9332,809.57772 C 733.45636,812.89323 733.54184,818.44342 734.2306,822.80839 C 734.84634,826.71053 736.48515,830.41836 737.08391,834.21291 C 737.48464,836.75253 738.15199,839.31228 738.55771,841.88353 C 738.7974,843.40252 738.90143,845.03394 738.47611,846.37487 C 738.08414,847.61061 738.39155,849.17796 738.61098,850.56861 C 738.77322,851.59676 738.93545,852.62493 739.09769,853.65309"
         style="fill:none;fill-rule:evenodd;stroke:#000000;stroke-width:0.51520818px;stroke-linecap:butt;stroke-linejoin:miter;stroke-opacity:1" />
      <path
         id="path4623"
         d="M 717.8622,815.9074 C 718.5896,820.51726 719.98773,825.51641 719.57886,830.12568 C 719.19255,834.48058 720.7886,837.79232 721.44457,841.94946 C 721.87796,844.69601 723.31932,848.17905 724.87991,850.36433 C 726.00756,851.94338 726.40969,853.38113 726.71924,855.34288 C 726.94255,856.7581 727.10673,858.19363 727.62523,859.41495 C 727.76089,859.73451 727.93146,860.1363 728.04451,860.40255"
         style="fill:none;fill-rule:evenodd;stroke:#000000;stroke-width:0.51520818px;stroke-linecap:butt;stroke-linejoin:miter;stroke-opacity:1" />
      <path
         transform="matrix(0.5089115,-8.0302823e-2,8.0302823e-2,0.5089115,955.62321,409.42522)"
         d="M -539.92654,655.11969 A 28.284271,27.02158 0 1 1 -596.49509,655.11969 A 28.284271,27.02158 0 1 1 -539.92654,655.11969 z"
         sodipodi:ry="27.02158"
         sodipodi:rx="28.284271"
         sodipodi:cy="655.11969"
         sodipodi:cx="-568.21082"
         id="path4625"
         style="fill:#ff0000;stroke:#000000;stroke-width:5;stroke-miterlimit:4;stroke-dasharray:none;stroke-opacity:1"
         sodipodi:type="arc" />
      <path
         transform="matrix(0.5089115,-8.0302823e-2,8.0302823e-2,0.5089115,955.62321,409.42522)"
         d="M -450.02295,649.31134 A 25.253813,24.748737 0 1 1 -500.53058,649.31134 A 25.253813,24.748737 0 1 1 -450.02295,649.31134 z"
         sodipodi:ry="24.748737"
         sodipodi:rx="25.253813"
         sodipodi:cy="649.31134"
         sodipodi:cx="-475.27676"
         id="path4627"
         style="fill:#ff0000;stroke:#000000;stroke-width:5;stroke-miterlimit:4;stroke-dasharray:none;stroke-opacity:1"
         sodipodi:type="arc" />
      <path
         id="path4629"
         d="M 722.68369,797.61827 C 724.52869,798.33145 725.99145,797.81233 727.28084,795.63826 C 727.91203,794.57398 728.46022,791.77228 728.4551,790.77253 C 728.44643,789.07729 729.63851,787.69056 729.62938,785.90681 C 729.61697,783.47985 727.72461,782.028 726.19554,780.87528 C 724.58661,779.6624 722.50702,779.56877 720.76115,779.57769 C 718.78763,779.5878 716.88642,780.64267 715.02121,780.23819 C 713.37904,779.88205 711.71765,782.18744 710.93381,783.1623 C 709.88464,784.46717 709.81531,786.59145 709.82394,788.28015 C 709.83349,790.15029 709.47776,791.88996 710.35561,793.51584 C 711.10582,794.90532 711.97409,796.5583 713.07554,794.70108 C 714.06091,793.03962 713.40922,790.75021 712.91932,788.83233 C 712.57925,787.5011 716.10901,786.13755 717.25886,785.84383 C 719.05047,785.38618 720.22718,785.32901 721.86697,786.00962 C 723.04648,786.49916 723.2992,788.46222 723.58938,789.59826 C 724.03067,791.32587 721.61616,791.71375 720.44605,792.01263 C 719.02221,792.37635 719.12036,788.79101 718.36466,792.27573 C 717.97963,794.05119 719.40703,794.96378 720.83794,794.59828 C 722.09028,794.27839 723.24882,797.54684 720.6023,797.88138 C 718.56027,798.1395 716.47547,798.55849 719.53487,798.95976 C 720.50293,799.08672 722.08146,798.05792 722.68369,797.61827 z"
         style="fill:#ffffff;fill-rule:evenodd;stroke:#000000;stroke-width:0.51520818px;stroke-linecap:butt;stroke-linejoin:miter;stroke-opacity:1" />
      <path
         id="path4631"
         d="M 763.96651,770.7594 C 762.58455,770.07051 761.40978,770.36725 760.24904,771.96295 C 759.68082,772.74408 759.05035,774.88164 758.9814,775.65906 C 758.86446,776.97725 757.8368,777.96811 757.71375,779.35515 C 757.54634,781.24236 758.91122,782.50883 760.01555,783.51628 C 761.17757,784.57634 762.78705,784.80084 764.14464,784.92124 C 765.67925,785.05737 767.23386,784.37619 768.65405,784.82664 C 769.90441,785.22326 771.36387,783.55265 772.04421,782.85214 C 772.95485,781.91451 773.1637,780.26853 773.2802,778.95538 C 773.4092,777.50117 773.81258,776.175 773.24891,774.84729 C 772.7672,773.71263 772.21294,772.36453 771.22138,773.72768 C 770.33434,774.9471 770.67381,776.77404 770.91466,778.30038 C 771.08184,779.35987 768.23896,780.16216 767.32385,780.30656 C 765.89796,780.53156 764.97923,780.49014 763.75439,779.84155 C 762.87336,779.375 762.82015,777.83081 762.67748,776.92671 C 762.46053,775.55176 764.36545,775.42644 765.29671,775.27949 C 766.42989,775.10069 766.09202,777.88014 766.9336,775.22686 C 767.36239,773.875 766.31956,773.06158 765.18073,773.24128 C 764.18405,773.39855 763.52205,770.7737 765.60341,770.70676 C 767.20935,770.65511 768.86028,770.48156 766.5117,769.94649 C 765.76857,769.77717 764.46665,770.46164 763.96651,770.7594 z"
         style="fill:#ffffff;fill-rule:evenodd;stroke:#000000;stroke-width:0.40219316px;stroke-linecap:butt;stroke-linejoin:miter;stroke-opacity:1" />
      <path
         sodipodi:nodetypes="cssssssssssssssssssssssssssssc"
         id="path4633"
         d="M 693.22703,871.1766 C 693.24841,874.68178 697.62715,879.03766 703.36453,880.63899 C 708.23781,881.99915 715.75434,880.26425 721.03892,879.43038 C 726.46693,878.57387 735.24391,872.30006 739.42157,868.10151 C 742.9055,864.60016 743.23966,858.86758 745.7636,864.46696 C 747.15954,867.56387 749.2385,869.68689 752.60303,871.2892 C 755.17475,872.5139 761.64009,873.02378 764.33551,872.59847 C 769.15423,871.8381 771.90621,871.34047 775.98146,869.70729 C 780.23432,868.00292 784.98247,864.87859 788.66549,862.43819 C 789.70897,861.74678 790.75248,861.05536 791.79595,860.36395 C 794.87851,858.32143 796.3376,856.27635 795.80228,852.88384 C 795.23458,849.28608 796.93769,860.07937 797.50539,863.67714 C 798.34513,868.99888 799.80285,874.5847 800.66292,880.03533 C 801.7091,886.6654 802.2096,893.48958 803.26352,900.16874 C 804.0276,905.01103 804.64759,908.89127 803.04186,913.37279 C 801.14317,918.67201 800.15247,924.37827 796.31599,929.18345 C 792.13053,934.42573 791.39717,940.62734 786.21634,945.52647 C 780.19439,951.22099 775.47257,955.24306 769.60707,960.78962 C 766.23129,963.98183 763.18946,966.54314 758.52882,967.27856 C 754.65922,967.88915 748.13022,962.70761 745.42305,960.91835 C 740.0145,957.34367 730.11685,956.55654 725.20481,953.31001 C 723.0008,951.85331 716.58588,945.64125 715.32819,943.67477 C 713.31194,940.52228 710.00387,938.62719 708.54685,935.39477 C 707.19566,932.39717 706.1005,928.33951 704.15392,925.81607 C 702.05019,923.08886 701.94303,918.04397 699.9205,915.42204 C 697.40543,912.1616 698.32079,908.19862 696.81165,904.85058 C 695.36411,901.63917 696.48526,899.12983 695.91414,895.51045 C 695.41672,892.35811 693.79903,889.41057 693.24864,885.92255 C 692.78908,883.01009 692.32951,880.09761 691.86994,877.18513 C 691.56475,875.25104 692.57589,872.99389 693.22703,871.1766 z"
         style="fill:#ffff00;fill-rule:evenodd;stroke:#000000;stroke-width:0.53876859px;stroke-linecap:butt;stroke-linejoin:miter;stroke-opacity:1" />
      <text
         transform="matrix(0.9877784,-0.1558648,0.1558648,0.9877784,0,0)"
         sodipodi:linespacing="125%"
         id="text4635"
         y="1009.4417"
         x="603.38861"
         style="font-size:36.06457138px;font-style:normal;font-variant:normal;font-weight:normal;font-stretch:normal;text-align:center;line-height:125%;writing-mode:lr-tb;text-anchor:middle;fill:#000000;fill-opacity:1;stroke:none;stroke-width:1px;stroke-linecap:butt;stroke-linejoin:miter;stroke-opacity:1;font-family:Bitstream Vera Serif;-inkscape-font-specification:Bitstream Vera Serif"
         xml:space="preserve"><tspan
           y="1009.4417"
           x="603.38861"
           id="tspan4637"
           sodipodi:role="line">LDA</tspan><tspan
           id="tspan4639"
           y="1054.5225"
           x="603.38861"
           sodipodi:role="line">LSI</tspan></text>
      <path
         transform="matrix(0.5089115,-8.0302823e-2,8.0302823e-2,0.5089115,944.92946,403.10107)"
         d="M -543.57144,658.07648 A 9.6428576,10 0 1 1 -562.85715,658.07648 A 9.6428576,10 0 1 1 -543.57144,658.07648 z"
         sodipodi:ry="10"
         sodipodi:rx="9.6428576"
         sodipodi:cy="658.07648"
         sodipodi:cx="-553.21429"
         id="path4641"
         style="fill:#000000;stroke:#000000;stroke-width:5;stroke-miterlimit:4;stroke-dasharray:none;stroke-opacity:1"
         sodipodi:type="arc" />
      <path
         transform="matrix(0.5089115,-8.0302823e-2,8.0302823e-2,0.5089115,990.85934,392.73385)"
         d="M -543.57144,658.07648 A 9.6428576,10 0 1 1 -562.85715,658.07648 A 9.6428576,10 0 1 1 -543.57144,658.07648 z"
         sodipodi:ry="10"
         sodipodi:rx="9.6428576"
         sodipodi:cy="658.07648"
         sodipodi:cx="-553.21429"
         id="path4643"
         style="fill:#000000;stroke:#000000;stroke-width:5;stroke-miterlimit:4;stroke-dasharray:none;stroke-opacity:1"
         sodipodi:type="arc" />
      <g
         style="fill:#cccccc"
         id="g4702"
         transform="matrix(-9.1452522e-2,-0.5070265,0.5070265,-9.1452522e-2,78.440585,746.6339)">
        <path
           id="path4704"
           d="M -648.57143,1378.0765 C -650.23107,1369.3353 -645.24862,1365.1262 -631.42857,1362.3622 C -620.08558,1360.0936 -616.09256,1364.7565 -614.28571,1373.7908 C -612.81569,1381.1409 -614.28571,1390.5472 -614.28571,1398.0765 C -614.28571,1409.8041 -613.0619,1420.217 -610,1430.9336 C -609.46062,1432.8215 -609.04762,1434.7431 -608.57143,1436.6479 C -605.61695,1448.4658 -596.34398,1461.7325 -587.14286,1470.9336 C -576.10886,1481.9676 -573.63554,1491.0962 -557.14286,1495.2193 C -536.1424,1500.4694 -517.31783,1505.2193 -494.28571,1505.2193 C -480.86826,1505.2193 -467.78491,1506.6479 -454.28571,1506.6479 C -445.89785,1506.6479 -447.14286,1519.5119 -447.14286,1526.6479 C -447.14286,1537.7001 -451.95656,1541.8964 -461.42857,1543.7908 C -472.28301,1545.9616 -485.95429,1543.7908 -497.14286,1543.7908 C -508.24644,1543.7908 -521.3641,1539.2451 -531.42857,1535.2193 C -540.43204,1531.6179 -549.43767,1528.4746 -558.57143,1526.6479 C -568.57852,1524.6465 -578.73436,1519.0257 -585.71429,1513.7908 C -593.35322,1508.0616 -599.98038,1502.3818 -607.14286,1495.2193 C -614.65281,1487.7094 -621.01266,1481.3495 -628.57143,1473.7908 C -634.23893,1468.1232 -638.25466,1457.915 -640,1450.9336 C -640.25825,1449.9006 -640.95238,1449.0288 -641.42857,1448.0765 C -645.18368,1440.5662 -645.71429,1430.7476 -645.71429,1422.3622 C -645.71429,1413.7908 -645.71429,1405.2193 -645.71429,1396.6479 C -645.71429,1390.3215 -648.57143,1384.9358 -648.57143,1378.0765 z"
           style="fill:#cccccc;fill-rule:evenodd;stroke:#000000;stroke-width:1px;stroke-linecap:butt;stroke-linejoin:miter;stroke-opacity:1" />
        <path
           id="path4706"
           d="M -637.14286,1413.7908 C -635.34256,1415.141 -618.74123,1413.8332 -612.85714,1412.3622"
           style="fill:#cccccc;fill-rule:evenodd;stroke:#000000;stroke-width:1px;stroke-linecap:butt;stroke-linejoin:miter;stroke-opacity:1" />
        <path
           id="path4708"
           d="M -632.85714,1445.2193 C -628.57994,1448.4272 -616.62657,1448.6617 -608.57143,1446.6479"
           style="fill:#cccccc;fill-rule:evenodd;stroke:#000000;stroke-width:1px;stroke-linecap:butt;stroke-linejoin:miter;stroke-opacity:1" />
        <path
           id="path4710"
           d="M -611.42857,1480.9336 C -605.753,1485.1903 -594.19303,1476.5552 -588.57143,1470.9336"
           style="fill:#cccccc;fill-rule:evenodd;stroke:#000000;stroke-width:1px;stroke-linecap:butt;stroke-linejoin:miter;stroke-opacity:1" />
        <path
           id="path4712"
           d="M -578.57143,1508.0765 C -572.38095,1501.886 -561.28944,1503.3293 -554.28571,1498.0765"
           style="fill:#cccccc;fill-rule:evenodd;stroke:#000000;stroke-width:1px;stroke-linecap:butt;stroke-linejoin:miter;stroke-opacity:1" />
        <path
           id="path4714"
           d="M -530,1522.3622 C -523.90581,1517.7915 -510.41549,1518.3099 -507.14286,1505.2193"
           style="fill:#cccccc;fill-rule:evenodd;stroke:#000000;stroke-width:1px;stroke-linecap:butt;stroke-linejoin:miter;stroke-opacity:1" />
        <path
           id="path4716"
           d="M -491.42857,1533.7908 C -481.54705,1526.3796 -476.3746,1519.013 -471.42857,1506.6479 C -471.07487,1505.7636 -471.42857,1504.7431 -471.42857,1503.7908"
           style="fill:#cccccc;fill-rule:evenodd;stroke:#000000;stroke-width:1px;stroke-linecap:butt;stroke-linejoin:miter;stroke-opacity:1" />
      </g>
      <g
         transform="matrix(1.4834919,-0.2340851,0.2340851,1.4834919,-333.52712,-284.4803)"
         id="g13619">
        <path
           style="fill:none;fill-rule:evenodd;stroke:#000000;stroke-width:0.34304973px;stroke-linecap:butt;stroke-linejoin:miter;stroke-opacity:1"
           d="M 469.40962,853.03702 C 469.49542,852.82251 469.73634,852.7103 469.40962,853.03702 z"
           id="path4574" />
        <g
           style="fill:#cccccc"
           id="g4686"
           transform="matrix(0.3430497,0,0,0.3430497,700.2331,347.45347)">
          <path
             id="path4688"
             d="M -648.57143,1378.0765 C -650.23107,1369.3353 -645.24862,1365.1262 -631.42857,1362.3622 C -620.08558,1360.0936 -616.09256,1364.7565 -614.28571,1373.7908 C -612.81569,1381.1409 -614.28571,1390.5472 -614.28571,1398.0765 C -614.28571,1409.8041 -613.0619,1420.217 -610,1430.9336 C -609.46062,1432.8215 -609.04762,1434.7431 -608.57143,1436.6479 C -605.61695,1448.4658 -596.34398,1461.7325 -587.14286,1470.9336 C -576.10886,1481.9676 -573.63554,1491.0962 -557.14286,1495.2193 C -536.1424,1500.4694 -517.31783,1505.2193 -494.28571,1505.2193 C -480.86826,1505.2193 -467.78491,1506.6479 -454.28571,1506.6479 C -445.89785,1506.6479 -447.14286,1519.5119 -447.14286,1526.6479 C -447.14286,1537.7001 -451.95656,1541.8964 -461.42857,1543.7908 C -472.28301,1545.9616 -485.95429,1543.7908 -497.14286,1543.7908 C -508.24644,1543.7908 -521.3641,1539.2451 -531.42857,1535.2193 C -540.43204,1531.6179 -549.43767,1528.4746 -558.57143,1526.6479 C -568.57852,1524.6465 -578.73436,1519.0257 -585.71429,1513.7908 C -593.35322,1508.0616 -599.98038,1502.3818 -607.14286,1495.2193 C -614.65281,1487.7094 -621.01266,1481.3495 -628.57143,1473.7908 C -634.23893,1468.1232 -638.25466,1457.915 -640,1450.9336 C -640.25825,1449.9006 -640.95238,1449.0288 -641.42857,1448.0765 C -645.18368,1440.5662 -645.71429,1430.7476 -645.71429,1422.3622 C -645.71429,1413.7908 -645.71429,1405.2193 -645.71429,1396.6479 C -645.71429,1390.3215 -648.57143,1384.9358 -648.57143,1378.0765 z"
             style="fill:#cccccc;fill-rule:evenodd;stroke:#000000;stroke-width:1px;stroke-linecap:butt;stroke-linejoin:miter;stroke-opacity:1" />
          <path
             id="path4690"
             d="M -637.14286,1413.7908 C -635.34256,1415.141 -618.74123,1413.8332 -612.85714,1412.3622"
             style="fill:#cccccc;fill-rule:evenodd;stroke:#000000;stroke-width:1px;stroke-linecap:butt;stroke-linejoin:miter;stroke-opacity:1" />
          <path
             id="path4692"
             d="M -632.85714,1445.2193 C -628.57994,1448.4272 -616.62657,1448.6617 -608.57143,1446.6479"
             style="fill:#cccccc;fill-rule:evenodd;stroke:#000000;stroke-width:1px;stroke-linecap:butt;stroke-linejoin:miter;stroke-opacity:1" />
          <path
             id="path4694"
             d="M -611.42857,1480.9336 C -605.753,1485.1903 -594.19303,1476.5552 -588.57143,1470.9336"
             style="fill:#cccccc;fill-rule:evenodd;stroke:#000000;stroke-width:1px;stroke-linecap:butt;stroke-linejoin:miter;stroke-opacity:1" />
          <path
             id="path4696"
             d="M -578.57143,1508.0765 C -572.38095,1501.886 -561.28944,1503.3293 -554.28571,1498.0765"
             style="fill:#cccccc;fill-rule:evenodd;stroke:#000000;stroke-width:1px;stroke-linecap:butt;stroke-linejoin:miter;stroke-opacity:1" />
          <path
             id="path4698"
             d="M -530,1522.3622 C -523.90581,1517.7915 -510.41549,1518.3099 -507.14286,1505.2193"
             style="fill:#cccccc;fill-rule:evenodd;stroke:#000000;stroke-width:1px;stroke-linecap:butt;stroke-linejoin:miter;stroke-opacity:1" />
          <path
             id="path4700"
             d="M -491.42857,1533.7908 C -481.54705,1526.3796 -476.3746,1519.013 -471.42857,1506.6479 C -471.07487,1505.7636 -471.42857,1504.7431 -471.42857,1503.7908"
             style="fill:#cccccc;fill-rule:evenodd;stroke:#000000;stroke-width:1px;stroke-linecap:butt;stroke-linejoin:miter;stroke-opacity:1" />
        </g>
        <g
           id="g4734"
           transform="matrix(4.2578957e-2,0.340397,-0.340397,4.2578957e-2,890.55031,798.22244)"
           inkscape:transform-center-x="-3.5566632"
           inkscape:transform-center-y="-50.508659">
          <path
             style="fill:#b3b3b3;fill-rule:evenodd;stroke:#000000;stroke-width:1px;stroke-linecap:butt;stroke-linejoin:miter;stroke-opacity:1"
             d="M -162.64901,1168.1827 C -156.91972,1162.8749 -148.06398,1174.1242 -140.35963,1175.4052 C -128.88937,1177.3123 -131.80619,1178.1835 -125.12418,1169.2174 C -120.76317,1163.3657 -121.37447,1156.4172 -125.49616,1151.151 C -132.35205,1142.3915 -138.8953,1135.4234 -148.54409,1129.0332 C -158.97897,1122.1224 -166.98549,1114.6917 -179.233,1108.88 C -189.50015,1104.008 -196.98871,1105.1789 -207.77117,1105.401 C -209.27668,1105.432 -210.78224,1105.463 -212.28775,1105.494 C -218.8687,1105.6295 -226.01339,1110.9819 -229.25548,1115.3323 C -232.99735,1120.3532 -237.82546,1121.6077 -232.19386,1126.2371 C -226.33256,1131.0554 -215.64117,1135.2099 -208.8989,1138.4093 C -205.43042,1140.0551 -209.31108,1130.0371 -206.8731,1127.0713 C -203.34663,1122.7814 -199.02055,1135.2699 -194.00346,1137.6507 C -191.23637,1138.9637 -189.78127,1128.7526 -184.15069,1133.3811 C -180.02382,1136.7736 -191.51361,1142.1486 -179.4016,1144.5796 C -172.78779,1145.907 -165.9245,1139.7411 -170.27543,1148.9102 C -173.75467,1156.2422 -163.50446,1154.6448 -158.41141,1154.5399 C -150.56966,1154.3784 -160.45467,1166.4652 -162.64901,1168.1827 z"
             id="path4736"
             inkscape:transform-center-x="42.525082"
             inkscape:transform-center-y="-20.59074" />
          <path
             style="fill:#b3b3b3;fill-rule:evenodd;stroke:#000000;stroke-width:0.97856432px;stroke-linecap:butt;stroke-linejoin:miter;stroke-opacity:1"
             d="M -157.28837,1184.8617 C -154.38725,1191.8044 -141.56166,1185.7089 -134.0507,1187.7631 C -122.86837,1190.8215 -125.13044,1188.8707 -122.93704,1199.3687 C -121.50552,1206.2203 -125.03729,1211.9796 -131.01971,1214.843 C -140.97066,1219.6058 -149.87099,1222.9473 -161.32971,1224.5143 C -173.72194,1226.209 -184.14283,1229.3501 -197.70172,1229.3501 C -209.06822,1229.3501 -215.33283,1225.2635 -224.98072,1220.6458 C -226.32783,1220.0011 -227.67494,1219.3563 -229.02205,1218.7115 C -234.91054,1215.8932 -239.0715,1208.3309 -240.13572,1203.2373 C -241.364,1197.3585 -245.18882,1194.2917 -238.11506,1192.5989 C -230.75275,1190.8369 -219.31057,1191.6317 -211.84639,1191.6317 C -208.00653,1191.6317 -215.80869,1198.7042 -214.87739,1202.2702 C -213.53028,1207.4283 -204.26634,1198.4017 -198.71205,1198.4017 C -195.64868,1198.4017 -198.71219,1207.8313 -191.63972,1206.1387 C -186.45602,1204.8982 -194.53359,1195.533 -182.54672,1198.4017 C -176.00126,1199.9681 -172.44338,1208.1185 -172.44338,1198.4017 C -172.44338,1190.6316 -163.86617,1196.2205 -159.30904,1198.4017 C -152.29244,1201.76 -156.04199,1187.2479 -157.28837,1184.8617 z"
             id="path4738" />
          <path
             style="fill:#cccccc;fill-rule:evenodd;stroke:#000000;stroke-width:1px;stroke-linecap:butt;stroke-linejoin:miter;stroke-opacity:1"
             d="M -104.6647,1151.5475 C -108.59358,1152.9612 -120.69445,1152.5576 -127.89821,1152.5576 C -133.76196,1152.5576 -142.55017,1162.1588 -146.08096,1165.6896 C -149.80349,1169.4121 -148.10126,1179.8656 -148.10126,1184.8825 C -148.10126,1191.848 -144.96665,1197.1085 -140.02004,1202.0551 C -134.42797,1207.6472 -124.37801,1208.116 -116.78653,1208.116 C -106.1134,1208.116 -99.622284,1210.9002 -90.522574,1204.0754 C -84.972724,1199.913 -83.451504,1193.3057 -83.451504,1186.9028 C -83.451504,1180.2834 -83.978204,1174.6945 -85.471804,1168.7201 C -87.164994,1161.9473 -89.126034,1158.3067 -94.563184,1155.5881 C -98.871804,1153.4338 -98.112844,1152.8579 -104.6647,1151.5475 z"
             id="path4740" />
        </g>
      </g>
      <g
         inkscape:transform-center-y="-50.08127"
         inkscape:transform-center-x="7.9887418"
         id="g4742"
         transform="matrix(0.1939577,0.4773049,-0.4773049,0.1939577,1476.5329,659.49337)">
        <path
           inkscape:transform-center-y="-20.59074"
           inkscape:transform-center-x="42.525082"
           id="path4744"
           d="M -162.64901,1168.1827 C -156.91972,1162.8749 -148.06398,1174.1242 -140.35963,1175.4052 C -128.88937,1177.3123 -131.80619,1178.1835 -125.12418,1169.2174 C -120.76317,1163.3657 -121.37447,1156.4172 -125.49616,1151.151 C -132.35205,1142.3915 -138.8953,1135.4234 -148.54409,1129.0332 C -158.97897,1122.1224 -166.98549,1114.6917 -179.233,1108.88 C -189.50015,1104.008 -196.98871,1105.1789 -207.77117,1105.401 C -209.27668,1105.432 -210.78224,1105.463 -212.28775,1105.494 C -218.8687,1105.6295 -226.01339,1110.9819 -229.25548,1115.3323 C -232.99735,1120.3532 -237.82546,1121.6077 -232.19386,1126.2371 C -226.33256,1131.0554 -215.64117,1135.2099 -208.8989,1138.4093 C -205.43042,1140.0551 -209.31108,1130.0371 -206.8731,1127.0713 C -203.34663,1122.7814 -199.02055,1135.2699 -194.00346,1137.6507 C -191.23637,1138.9637 -189.78127,1128.7526 -184.15069,1133.3811 C -180.02382,1136.7736 -191.51361,1142.1486 -179.4016,1144.5796 C -172.78779,1145.907 -165.9245,1139.7411 -170.27543,1148.9102 C -173.75467,1156.2422 -163.50446,1154.6448 -158.41141,1154.5399 C -150.56966,1154.3784 -160.45467,1166.4652 -162.64901,1168.1827 z"
           style="fill:#b3b3b3;fill-rule:evenodd;stroke:#000000;stroke-width:1px;stroke-linecap:butt;stroke-linejoin:miter;stroke-opacity:1" />
        <path
           id="path4746"
           d="M -157.28837,1184.8617 C -154.38725,1191.8044 -141.56166,1185.7089 -134.0507,1187.7631 C -122.86837,1190.8215 -125.13044,1188.8707 -122.93704,1199.3687 C -121.50552,1206.2203 -125.03729,1211.9796 -131.01971,1214.843 C -140.97066,1219.6058 -149.87099,1222.9473 -161.32971,1224.5143 C -173.72194,1226.209 -184.14283,1229.3501 -197.70172,1229.3501 C -209.06822,1229.3501 -215.33283,1225.2635 -224.98072,1220.6458 C -226.32783,1220.0011 -227.67494,1219.3563 -229.02205,1218.7115 C -234.91054,1215.8932 -239.0715,1208.3309 -240.13572,1203.2373 C -241.364,1197.3585 -245.18882,1194.2917 -238.11506,1192.5989 C -230.75275,1190.8369 -219.31057,1191.6317 -211.84639,1191.6317 C -208.00653,1191.6317 -215.80869,1198.7042 -214.87739,1202.2702 C -213.53028,1207.4283 -204.26634,1198.4017 -198.71205,1198.4017 C -195.64868,1198.4017 -198.71219,1207.8313 -191.63972,1206.1387 C -186.45602,1204.8982 -194.53359,1195.533 -182.54672,1198.4017 C -176.00126,1199.9681 -172.44338,1208.1185 -172.44338,1198.4017 C -172.44338,1190.6316 -163.86617,1196.2205 -159.30904,1198.4017 C -152.29244,1201.76 -156.04199,1187.2479 -157.28837,1184.8617 z"
           style="fill:#b3b3b3;fill-rule:evenodd;stroke:#000000;stroke-width:0.97856432px;stroke-linecap:butt;stroke-linejoin:miter;stroke-opacity:1" />
        <path
           id="path4748"
           d="M -104.6647,1151.5475 C -108.59358,1152.9612 -120.69445,1152.5576 -127.89821,1152.5576 C -133.76196,1152.5576 -142.55017,1162.1588 -146.08096,1165.6896 C -149.80349,1169.4121 -148.10126,1179.8656 -148.10126,1184.8825 C -148.10126,1191.848 -144.96665,1197.1085 -140.02004,1202.0551 C -134.42797,1207.6472 -124.37801,1208.116 -116.78653,1208.116 C -106.1134,1208.116 -99.622284,1210.9002 -90.522574,1204.0754 C -84.972724,1199.913 -83.451504,1193.3057 -83.451504,1186.9028 C -83.451504,1180.2834 -83.978204,1174.6945 -85.471804,1168.7201 C -87.164994,1161.9473 -89.126034,1158.3067 -94.563184,1155.5881 C -98.871804,1153.4338 -98.112844,1152.8579 -104.6647,1151.5475 z"
           style="fill:#cccccc;fill-rule:evenodd;stroke:#000000;stroke-width:1px;stroke-linecap:butt;stroke-linejoin:miter;stroke-opacity:1" />
      </g>
      <g
         transform="matrix(1.1986278,-0.9048953,0.9048953,1.1986278,-770.02482,399.14268)"
         id="g13634">
        <path
           style="fill:none;fill-rule:evenodd;stroke:#000000;stroke-width:0.34304973px;stroke-linecap:butt;stroke-linejoin:miter;stroke-opacity:1"
           d="M 469.40962,853.03702 C 469.49542,852.82251 469.73634,852.7103 469.40962,853.03702 z"
           id="path13636" />
        <g
           style="fill:#cccccc"
           id="g13638"
           transform="matrix(0.3430497,0,0,0.3430497,700.2331,347.45347)">
          <path
             id="path13640"
             d="M -648.57143,1378.0765 C -650.23107,1369.3353 -645.24862,1365.1262 -631.42857,1362.3622 C -620.08558,1360.0936 -616.09256,1364.7565 -614.28571,1373.7908 C -612.81569,1381.1409 -614.28571,1390.5472 -614.28571,1398.0765 C -614.28571,1409.8041 -613.0619,1420.217 -610,1430.9336 C -609.46062,1432.8215 -609.04762,1434.7431 -608.57143,1436.6479 C -605.61695,1448.4658 -596.34398,1461.7325 -587.14286,1470.9336 C -576.10886,1481.9676 -573.63554,1491.0962 -557.14286,1495.2193 C -536.1424,1500.4694 -517.31783,1505.2193 -494.28571,1505.2193 C -480.86826,1505.2193 -467.78491,1506.6479 -454.28571,1506.6479 C -445.89785,1506.6479 -447.14286,1519.5119 -447.14286,1526.6479 C -447.14286,1537.7001 -451.95656,1541.8964 -461.42857,1543.7908 C -472.28301,1545.9616 -485.95429,1543.7908 -497.14286,1543.7908 C -508.24644,1543.7908 -521.3641,1539.2451 -531.42857,1535.2193 C -540.43204,1531.6179 -549.43767,1528.4746 -558.57143,1526.6479 C -568.57852,1524.6465 -578.73436,1519.0257 -585.71429,1513.7908 C -593.35322,1508.0616 -599.98038,1502.3818 -607.14286,1495.2193 C -614.65281,1487.7094 -621.01266,1481.3495 -628.57143,1473.7908 C -634.23893,1468.1232 -638.25466,1457.915 -640,1450.9336 C -640.25825,1449.9006 -640.95238,1449.0288 -641.42857,1448.0765 C -645.18368,1440.5662 -645.71429,1430.7476 -645.71429,1422.3622 C -645.71429,1413.7908 -645.71429,1405.2193 -645.71429,1396.6479 C -645.71429,1390.3215 -648.57143,1384.9358 -648.57143,1378.0765 z"
             style="fill:#cccccc;fill-rule:evenodd;stroke:#000000;stroke-width:1px;stroke-linecap:butt;stroke-linejoin:miter;stroke-opacity:1" />
          <path
             id="path13642"
             d="M -637.14286,1413.7908 C -635.34256,1415.141 -618.74123,1413.8332 -612.85714,1412.3622"
             style="fill:#cccccc;fill-rule:evenodd;stroke:#000000;stroke-width:1px;stroke-linecap:butt;stroke-linejoin:miter;stroke-opacity:1" />
          <path
             id="path13644"
             d="M -632.85714,1445.2193 C -628.57994,1448.4272 -616.62657,1448.6617 -608.57143,1446.6479"
             style="fill:#cccccc;fill-rule:evenodd;stroke:#000000;stroke-width:1px;stroke-linecap:butt;stroke-linejoin:miter;stroke-opacity:1" />
          <path
             id="path13646"
             d="M -611.42857,1480.9336 C -605.753,1485.1903 -594.19303,1476.5552 -588.57143,1470.9336"
             style="fill:#cccccc;fill-rule:evenodd;stroke:#000000;stroke-width:1px;stroke-linecap:butt;stroke-linejoin:miter;stroke-opacity:1" />
          <path
             id="path13648"
             d="M -578.57143,1508.0765 C -572.38095,1501.886 -561.28944,1503.3293 -554.28571,1498.0765"
             style="fill:#cccccc;fill-rule:evenodd;stroke:#000000;stroke-width:1px;stroke-linecap:butt;stroke-linejoin:miter;stroke-opacity:1" />
          <path
             id="path13650"
             d="M -530,1522.3622 C -523.90581,1517.7915 -510.41549,1518.3099 -507.14286,1505.2193"
             style="fill:#cccccc;fill-rule:evenodd;stroke:#000000;stroke-width:1px;stroke-linecap:butt;stroke-linejoin:miter;stroke-opacity:1" />
          <path
             id="path13652"
             d="M -491.42857,1533.7908 C -481.54705,1526.3796 -476.3746,1519.013 -471.42857,1506.6479 C -471.07487,1505.7636 -471.42857,1504.7431 -471.42857,1503.7908"
             style="fill:#cccccc;fill-rule:evenodd;stroke:#000000;stroke-width:1px;stroke-linecap:butt;stroke-linejoin:miter;stroke-opacity:1" />
        </g>
        <g
           id="g13654"
           transform="matrix(4.2578957e-2,0.340397,-0.340397,4.2578957e-2,890.55031,798.22244)"
           inkscape:transform-center-x="-3.5566632"
           inkscape:transform-center-y="-50.508659">
          <path
             style="fill:#b3b3b3;fill-rule:evenodd;stroke:#000000;stroke-width:1px;stroke-linecap:butt;stroke-linejoin:miter;stroke-opacity:1"
             d="M -162.64901,1168.1827 C -156.91972,1162.8749 -148.06398,1174.1242 -140.35963,1175.4052 C -128.88937,1177.3123 -131.80619,1178.1835 -125.12418,1169.2174 C -120.76317,1163.3657 -121.37447,1156.4172 -125.49616,1151.151 C -132.35205,1142.3915 -138.8953,1135.4234 -148.54409,1129.0332 C -158.97897,1122.1224 -166.98549,1114.6917 -179.233,1108.88 C -189.50015,1104.008 -196.98871,1105.1789 -207.77117,1105.401 C -209.27668,1105.432 -210.78224,1105.463 -212.28775,1105.494 C -218.8687,1105.6295 -226.01339,1110.9819 -229.25548,1115.3323 C -232.99735,1120.3532 -237.82546,1121.6077 -232.19386,1126.2371 C -226.33256,1131.0554 -215.64117,1135.2099 -208.8989,1138.4093 C -205.43042,1140.0551 -209.31108,1130.0371 -206.8731,1127.0713 C -203.34663,1122.7814 -199.02055,1135.2699 -194.00346,1137.6507 C -191.23637,1138.9637 -189.78127,1128.7526 -184.15069,1133.3811 C -180.02382,1136.7736 -191.51361,1142.1486 -179.4016,1144.5796 C -172.78779,1145.907 -165.9245,1139.7411 -170.27543,1148.9102 C -173.75467,1156.2422 -163.50446,1154.6448 -158.41141,1154.5399 C -150.56966,1154.3784 -160.45467,1166.4652 -162.64901,1168.1827 z"
             id="path13656"
             inkscape:transform-center-x="42.525082"
             inkscape:transform-center-y="-20.59074" />
          <path
             style="fill:#b3b3b3;fill-rule:evenodd;stroke:#000000;stroke-width:0.97856432px;stroke-linecap:butt;stroke-linejoin:miter;stroke-opacity:1"
             d="M -157.28837,1184.8617 C -154.38725,1191.8044 -141.56166,1185.7089 -134.0507,1187.7631 C -122.86837,1190.8215 -125.13044,1188.8707 -122.93704,1199.3687 C -121.50552,1206.2203 -125.03729,1211.9796 -131.01971,1214.843 C -140.97066,1219.6058 -149.87099,1222.9473 -161.32971,1224.5143 C -173.72194,1226.209 -184.14283,1229.3501 -197.70172,1229.3501 C -209.06822,1229.3501 -215.33283,1225.2635 -224.98072,1220.6458 C -226.32783,1220.0011 -227.67494,1219.3563 -229.02205,1218.7115 C -234.91054,1215.8932 -239.0715,1208.3309 -240.13572,1203.2373 C -241.364,1197.3585 -245.18882,1194.2917 -238.11506,1192.5989 C -230.75275,1190.8369 -219.31057,1191.6317 -211.84639,1191.6317 C -208.00653,1191.6317 -215.80869,1198.7042 -214.87739,1202.2702 C -213.53028,1207.4283 -204.26634,1198.4017 -198.71205,1198.4017 C -195.64868,1198.4017 -198.71219,1207.8313 -191.63972,1206.1387 C -186.45602,1204.8982 -194.53359,1195.533 -182.54672,1198.4017 C -176.00126,1199.9681 -172.44338,1208.1185 -172.44338,1198.4017 C -172.44338,1190.6316 -163.86617,1196.2205 -159.30904,1198.4017 C -152.29244,1201.76 -156.04199,1187.2479 -157.28837,1184.8617 z"
             id="path13658" />
          <path
             style="fill:#cccccc;fill-rule:evenodd;stroke:#000000;stroke-width:1px;stroke-linecap:butt;stroke-linejoin:miter;stroke-opacity:1"
             d="M -104.6647,1151.5475 C -108.59358,1152.9612 -120.69445,1152.5576 -127.89821,1152.5576 C -133.76196,1152.5576 -142.55017,1162.1588 -146.08096,1165.6896 C -149.80349,1169.4121 -148.10126,1179.8656 -148.10126,1184.8825 C -148.10126,1191.848 -144.96665,1197.1085 -140.02004,1202.0551 C -134.42797,1207.6472 -124.37801,1208.116 -116.78653,1208.116 C -106.1134,1208.116 -99.622284,1210.9002 -90.522574,1204.0754 C -84.972724,1199.913 -83.451504,1193.3057 -83.451504,1186.9028 C -83.451504,1180.2834 -83.978204,1174.6945 -85.471804,1168.7201 C -87.164994,1161.9473 -89.126034,1158.3067 -94.563184,1155.5881 C -98.871804,1153.4338 -98.112844,1152.8579 -104.6647,1151.5475 z"
             id="path13660" />
        </g>
      </g>
    </g>
    <g
       id="g3190"
       transform="matrix(0.5343167,0,0,0.5343167,16.121428,349.03067)">
      <g
         id="g3178">
        <g
           id="g2402">
          <path
             transform="translate(-4.149475e-6,698.0315)"
             id="path2398"
             d="M 106.29921,92.125975 L 70.866142,127.55905 L 70.866142,233.85826 L 389.76378,233.85826 L 389.76378,92.125975 L 106.29921,92.125975 L 106.29921,92.125975 z"
             style="fill:#ffff00;fill-rule:evenodd;stroke:#000000;stroke-width:1px;stroke-linecap:butt;stroke-linejoin:miter;stroke-opacity:1" />
          <path
             transform="translate(-4.149475e-6,698.0315)"
             id="path2400"
             d="M 70.866142,127.55905 L 106.29921,92.125975 L 106.29921,127.55905 L 70.866142,127.55905 z"
             style="fill:#ffff00;fill-rule:evenodd;stroke:#000000;stroke-width:1px;stroke-linecap:butt;stroke-linejoin:miter;stroke-opacity:1" />
        </g>
        <path
           style="fill:none;fill-rule:evenodd;stroke:#ffbf00;stroke-width:10.62992096;stroke-linecap:butt;stroke-linejoin:miter;stroke-miterlimit:4;stroke-dasharray:none;stroke-opacity:1"
           d="M 198.42519,896.45669 L 233.85827,825.59055 L 269.29134,896.45669 L 198.42519,896.45669 z"
           id="path2406" />
      </g>
      <text
         id="text3184"
         y="875.61938"
         x="230.64072"
         style="font-size:46.69458389px;font-style:normal;font-weight:bold;text-align:center;writing-mode:lr-tb;text-anchor:middle;fill:#000000;fill-opacity:1;stroke:none;stroke-width:1px;stroke-linecap:butt;stroke-linejoin:miter;stroke-opacity:1;font-family:Sans;-inkscape-font-specification:Sans"
         xml:space="preserve"><tspan
           id="tspan3188"
           y="875.61938"
           x="230.64072"
           sodipodi:role="line">Commit</tspan></text>
    </g>
    <path
       style="fill:#ff00ff;fill-rule:evenodd;stroke:#000000;stroke-width:0.48151979px;stroke-linecap:butt;stroke-linejoin:miter;stroke-opacity:1"
       d="M 119.54795,849.27788 L 98.364862,860.83129 C 98.364862,860.83129 108.18581,863.72019 108.18581,863.72019 L 98.556122,896.4567 L 111.65073,900.30858 L 121.28041,867.57207 L 131.10136,870.46098 L 119.54795,849.27788 z"
       id="path3296" />
    <g
       id="g7283"
       transform="translate(21.27727,24.053752)">
      <g
         style="fill:#ff8080"
         transform="matrix(1.1319453,0,0,0.921367,-13.015749,35.039526)"
         id="g4057">
        <g
           style="fill:#ff8080"
           id="g4059"
           transform="matrix(0.3925926,0,0,0.4459937,65.736579,519.29688)">
          <path
             sodipodi:nodetypes="ccccccc"
             style="fill:#ff8080;fill-rule:evenodd;stroke:#000000;stroke-width:1px;stroke-linecap:butt;stroke-linejoin:miter;stroke-opacity:1"
             d="M -70.866146,910.62992 L -106.29922,946.06299 L -106.26,1069.8991 L 212.6743,1069.8991 L 212.59842,910.62992 L -70.866146,910.62992 L -70.866146,910.62992 z"
             id="path4061" />
          <path
             style="fill:#ff8080;fill-rule:evenodd;stroke:#000000;stroke-width:1px;stroke-linecap:butt;stroke-linejoin:miter;stroke-opacity:1"
             d="M -106.29922,946.06299 L -70.866146,910.62992 L -70.866146,946.06299 L -106.29922,946.06299 z"
             id="path4063" />
        </g>
      </g>
      <g
         id="g2559"
         transform="matrix(0.2091756,0,0,0.1630885,102.77235,877.7752)">
        <rect
           style="fill:#ffffff;fill-rule:evenodd;stroke:#000000;stroke-width:1.11829174px;stroke-linecap:butt;stroke-linejoin:miter;stroke-opacity:1"
           id="rect2566"
           width="599.88171"
           height="200.1317"
           x="-382.96997"
           y="201.45331" />
        <rect
           style="fill:#0000ff;fill-rule:evenodd;stroke:#000000;stroke-width:1px;stroke-linecap:butt;stroke-linejoin:miter;stroke-opacity:1"
           id="rect2568"
           width="40"
           height="120"
           x="-383.02911"
           y="281.64417" />
        <rect
           style="fill:#0000ff;fill-rule:evenodd;stroke:#000000;stroke-width:1px;stroke-linecap:butt;stroke-linejoin:miter;stroke-opacity:1"
           id="rect2570"
           width="40"
           height="80"
           x="-303.02911"
           y="321.64417" />
        <rect
           style="fill:#0000ff;fill-rule:evenodd;stroke:#000000;stroke-width:1px;stroke-linecap:butt;stroke-linejoin:miter;stroke-opacity:1"
           id="rect2572"
           width="40"
           height="160"
           x="-223.0291"
           y="241.64415" />
        <rect
           style="fill:#0000ff;fill-rule:evenodd;stroke:#000000;stroke-width:1px;stroke-linecap:butt;stroke-linejoin:miter;stroke-opacity:1"
           id="rect2574"
           width="40"
           height="120"
           x="-143.0291"
           y="281.64417" />
        <rect
           style="fill:#0000ff;fill-rule:evenodd;stroke:#000000;stroke-width:1px;stroke-linecap:butt;stroke-linejoin:miter;stroke-opacity:1"
           id="rect2576"
           width="40"
           height="120"
           x="96.970901"
           y="281.64417" />
        <rect
           style="fill:#0000ff;fill-rule:evenodd;stroke:#000000;stroke-width:1px;stroke-linecap:butt;stroke-linejoin:miter;stroke-opacity:1"
           id="rect2578"
           width="40"
           height="80"
           x="176.9709"
           y="321.64417" />
        <rect
           style="fill:#0000ff;fill-rule:evenodd;stroke:#000000;stroke-width:1px;stroke-linecap:butt;stroke-linejoin:miter;stroke-opacity:1"
           id="rect2580"
           width="40"
           height="80"
           x="-63.029099"
           y="321.64417" />
        <rect
           style="fill:#0000ff;fill-rule:evenodd;stroke:#000000;stroke-width:1px;stroke-linecap:butt;stroke-linejoin:miter;stroke-opacity:1"
           id="rect2582"
           width="40"
           height="80"
           x="16.9709"
           y="321.64417" />
      </g>
      <text
         id="text3860"
         y="903.54327"
         x="88.996666"
         style="font-size:13.68240929px;font-style:normal;font-weight:bold;text-align:center;text-anchor:middle;fill:#ffffff;fill-opacity:1;stroke:none;stroke-width:1px;stroke-linecap:butt;stroke-linejoin:miter;stroke-opacity:1;font-family:Sans"
         xml:space="preserve"><tspan
           id="tspan4003"
           y="903.54327"
           x="88.996666"
           sodipodi:role="line">Developer Topic</tspan></text>
    </g>
    <path
       id="path4127"
       d="M 220.1494,857.81616 L 218.35948,881.87861 C 218.35948,881.87861 226.11518,875.19686 226.11518,875.19686 L 248.3877,901.04922 L 258.72865,892.14022 L 236.45613,866.28785 L 244.21185,859.6061 L 220.1494,857.81616 z"
       style="fill:#ff00ff;fill-rule:evenodd;stroke:#000000;stroke-width:0.48151979px;stroke-linecap:butt;stroke-linejoin:miter;stroke-opacity:1" />
    <text
       xml:space="preserve"
       style="font-size:24px;font-style:normal;font-weight:bold;writing-mode:lr-tb;fill:#000000;fill-opacity:1;stroke:none;stroke-width:1px;stroke-linecap:butt;stroke-linejoin:miter;stroke-opacity:1;font-family:Sans;-inkscape-font-specification:Sans"
       x="56.692909"
       y="733.46454"
       id="text4909"><tspan
         sodipodi:role="line"
         id="tspan4911"
         x="56.692909"
         y="733.46454">Developer Topics</tspan></text>
    <g
       id="g7301"
       transform="translate(150.22703,-59.830479)">
      <g
         transform="translate(111.74489,10.224203)"
         id="g7264">
        <path
           style="fill:none;fill-rule:evenodd;stroke:#000000;stroke-width:0.29533899px;stroke-linecap:butt;stroke-linejoin:miter;stroke-opacity:1"
           d="M 96.50144,1013.019 C 97.03568,1015.156 96.32374,1017.9487 99.87676,1020.6135 C 100.12833,1020.8021 100.43929,1020.8947 100.72057,1021.0354"
           id="path4560" />
        <g
           id="g7232"
           transform="matrix(1.1319453,0,0,0.921367,-22.774937,108.68991)"
           style="fill:#ff8080">
          <g
             transform="matrix(0.3925926,0,0,0.4459937,65.736579,519.29688)"
             id="g7234"
             style="fill:#ff8080">
            <path
               id="path7236"
               d="M -70.866146,910.62992 L -106.29922,946.06299 L -106.26,1069.8991 L 212.6743,1069.8991 L 212.59842,910.62992 L -70.866146,910.62992 L -70.866146,910.62992 z"
               style="fill:#ff8080;fill-rule:evenodd;stroke:#000000;stroke-width:1px;stroke-linecap:butt;stroke-linejoin:miter;stroke-opacity:1"
               sodipodi:nodetypes="ccccccc" />
            <path
               id="path7238"
               d="M -106.29922,946.06299 L -70.866146,910.62992 L -70.866146,946.06299 L -106.29922,946.06299 z"
               style="fill:#ff8080;fill-rule:evenodd;stroke:#000000;stroke-width:1px;stroke-linecap:butt;stroke-linejoin:miter;stroke-opacity:1" />
          </g>
        </g>
        <text
           xml:space="preserve"
           style="font-size:13.68240929px;font-style:normal;font-weight:bold;text-align:center;text-anchor:middle;fill:#ffffff;fill-opacity:1;stroke:none;stroke-width:1px;stroke-linecap:butt;stroke-linejoin:miter;stroke-opacity:1;font-family:Sans"
           x="79.237473"
           y="977.19366"
           id="text7260"><tspan
             sodipodi:role="line"
             x="79.237473"
             y="977.19366"
             id="tspan7262">Developer Topic</tspan></text>
        <g
           transform="matrix(0.2085529,0,0,0.1630885,93.184991,912.28434)"
           id="g2579">
          <rect
             transform="scale(-1,1)"
             y="441.45331"
             x="-216.91176"
             height="200.13171"
             width="599.88171"
             id="rect2584"
             style="fill:#ffffff;fill-rule:evenodd;stroke:#000000;stroke-width:1.11829185px;stroke-linecap:butt;stroke-linejoin:miter;stroke-opacity:1" />
          <rect
             transform="scale(-1,1)"
             y="521.64417"
             x="-216.9709"
             height="120"
             width="40"
             id="rect2586"
             style="fill:#0000ff;fill-rule:evenodd;stroke:#000000;stroke-width:1px;stroke-linecap:butt;stroke-linejoin:miter;stroke-opacity:1" />
          <rect
             transform="scale(-1,1)"
             y="561.64417"
             x="-136.9709"
             height="80"
             width="40"
             id="rect2588"
             style="fill:#0000ff;fill-rule:evenodd;stroke:#000000;stroke-width:1px;stroke-linecap:butt;stroke-linejoin:miter;stroke-opacity:1" />
          <rect
             transform="scale(-1,1)"
             y="481.64417"
             x="-56.970901"
             height="160"
             width="40"
             id="rect2590"
             style="fill:#0000ff;fill-rule:evenodd;stroke:#000000;stroke-width:1px;stroke-linecap:butt;stroke-linejoin:miter;stroke-opacity:1" />
          <rect
             transform="scale(-1,1)"
             y="521.64417"
             x="23.0291"
             height="120"
             width="40"
             id="rect2592"
             style="fill:#0000ff;fill-rule:evenodd;stroke:#000000;stroke-width:1px;stroke-linecap:butt;stroke-linejoin:miter;stroke-opacity:1" />
          <rect
             transform="scale(-1,1)"
             y="521.64417"
             x="263.02911"
             height="120"
             width="40"
             id="rect2594"
             style="fill:#0000ff;fill-rule:evenodd;stroke:#000000;stroke-width:1px;stroke-linecap:butt;stroke-linejoin:miter;stroke-opacity:1" />
          <rect
             transform="scale(-1,1)"
             y="561.64417"
             x="343.02911"
             height="80"
             width="40"
             id="rect2596"
             style="fill:#0000ff;fill-rule:evenodd;stroke:#000000;stroke-width:1px;stroke-linecap:butt;stroke-linejoin:miter;stroke-opacity:1" />
          <rect
             transform="scale(-1,1)"
             y="561.64417"
             x="103.0291"
             height="80"
             width="40"
             id="rect2598"
             style="fill:#0000ff;fill-rule:evenodd;stroke:#000000;stroke-width:1px;stroke-linecap:butt;stroke-linejoin:miter;stroke-opacity:1" />
          <rect
             transform="scale(-1,1)"
             y="561.64417"
             x="183.0291"
             height="80"
             width="40"
             id="rect2600"
             style="fill:#0000ff;fill-rule:evenodd;stroke:#000000;stroke-width:1px;stroke-linecap:butt;stroke-linejoin:miter;stroke-opacity:1" />
        </g>
      </g>
    </g>
    <g
       id="g7321"
       transform="matrix(0.5343167,0,0,0.5343167,214.54662,349.03067)">
      <g
         id="g7323">
        <g
           id="g7325">
          <path
             transform="translate(-4.149475e-6,698.0315)"
             id="path7327"
             d="M 106.29921,92.125975 L 70.866142,127.55905 L 70.866142,233.85826 L 389.76378,233.85826 L 389.76378,92.125975 L 106.29921,92.125975 L 106.29921,92.125975 z"
             style="fill:#ffff00;fill-rule:evenodd;stroke:#000000;stroke-width:1px;stroke-linecap:butt;stroke-linejoin:miter;stroke-opacity:1" />
          <path
             transform="translate(-4.149475e-6,698.0315)"
             id="path7329"
             d="M 70.866142,127.55905 L 106.29921,92.125975 L 106.29921,127.55905 L 70.866142,127.55905 z"
             style="fill:#ffff00;fill-rule:evenodd;stroke:#000000;stroke-width:1px;stroke-linecap:butt;stroke-linejoin:miter;stroke-opacity:1" />
        </g>
        <path
           style="fill:none;fill-rule:evenodd;stroke:#ffbf00;stroke-width:10.62992096;stroke-linecap:butt;stroke-linejoin:miter;stroke-miterlimit:4;stroke-dasharray:none;stroke-opacity:1"
           d="M 198.42519,896.45669 L 233.85827,825.59055 L 269.29134,896.45669 L 198.42519,896.45669 z"
           id="path7331" />
      </g>
      <text
         id="text7333"
         y="875.61938"
         x="230.64072"
         style="font-size:46.69458389px;font-style:normal;font-weight:bold;text-align:center;writing-mode:lr-tb;text-anchor:middle;fill:#000000;fill-opacity:1;stroke:none;stroke-width:1px;stroke-linecap:butt;stroke-linejoin:miter;stroke-opacity:1;font-family:Sans;-inkscape-font-specification:Sans"
         xml:space="preserve"><tspan
           id="tspan7335"
           y="875.61938"
           x="230.64072"
           sodipodi:role="line">Commit</tspan></text>
    </g>
    <path
       id="path7337"
       d="M 325.32777,853.93702 L 308.10387,870.83502 C 308.10387,870.83502 318.34042,870.93279 318.34042,870.93279 L 318.01451,905.05468 L 331.66326,905.18506 L 331.98918,871.06316 L 342.22576,871.16095 L 325.32777,853.93702 z"
       style="fill:#ff00ff;fill-rule:evenodd;stroke:#000000;stroke-width:0.48151979px;stroke-linecap:butt;stroke-linejoin:miter;stroke-opacity:1" />
    <text
       id="text7339"
       y="995.66931"
       x="107.18353"
       style="font-size:18px;font-style:normal;font-weight:bold;text-align:center;writing-mode:lr-tb;text-anchor:middle;fill:#000000;fill-opacity:1;stroke:none;stroke-width:1px;stroke-linecap:butt;stroke-linejoin:miter;stroke-opacity:1;font-family:Sans;-inkscape-font-specification:Sans"
       xml:space="preserve"><tspan
         id="tspan7341"
         y="995.66931"
         x="107.18353"
         sodipodi:role="line">Maintenance</tspan></text>
    <text
       id="text7343"
       y="995.66931"
       x="333.95517"
       style="font-size:18px;font-style:normal;font-weight:bold;text-align:center;writing-mode:lr-tb;text-anchor:middle;fill:#000000;fill-opacity:1;stroke:none;stroke-width:1px;stroke-linecap:butt;stroke-linejoin:miter;stroke-opacity:1;font-family:Sans;-inkscape-font-specification:Sans"
       xml:space="preserve"><tspan
         id="tspan7345"
         y="995.66931"
         x="333.95517"
         sodipodi:role="line">Transactions</tspan></text>
    <text
       xml:space="preserve"
       style="font-size:14px;font-style:normal;font-weight:bold;writing-mode:lr-tb;fill:#000000;fill-opacity:1;stroke:none;stroke-width:1px;stroke-linecap:butt;stroke-linejoin:miter;stroke-opacity:1;font-family:Sans;-inkscape-font-specification:Sans"
       x="187.60593"
       y="945.35974"
       id="text7620"><tspan
         sodipodi:role="line"
         id="tspan7622"
         x="187.60593"
         y="945.35974">purpose?</tspan></text>
  </g>
</svg>
