<?xml version="1.0" encoding="UTF-8" standalone="no"?>
<!-- Created with Inkscape (http://www.inkscape.org/) -->
<svg
   xmlns:dc="http://purl.org/dc/elements/1.1/"
   xmlns:cc="http://creativecommons.org/ns#"
   xmlns:rdf="http://www.w3.org/1999/02/22-rdf-syntax-ns#"
   xmlns:svg="http://www.w3.org/2000/svg"
   xmlns="http://www.w3.org/2000/svg"
   xmlns:sodipodi="http://sodipodi.sourceforge.net/DTD/sodipodi-0.dtd"
   xmlns:inkscape="http://www.inkscape.org/namespaces/inkscape"
   width="453.5433"
   height="340.15747"
   id="svg2"
   sodipodi:version="0.32"
   inkscape:version="0.46"
   sodipodi:docname="process.svg"
   version="1.0"
   inkscape:output_extension="org.inkscape.output.svg.inkscape">
  <defs
     id="defs4">
    <inkscape:perspective
       sodipodi:type="inkscape:persp3d"
       inkscape:vp_x="0 : 170.07874 : 1"
       inkscape:vp_y="0 : 1000 : 0"
       inkscape:vp_z="453.5433 : 170.07874 : 1"
       inkscape:persp3d-origin="226.77165 : 113.38582 : 1"
       id="perspective9572" />
  </defs>
  <sodipodi:namedview
     id="base"
     pagecolor="#ffffff"
     bordercolor="#666666"
     borderopacity="1.0"
     gridtolerance="10000"
     guidetolerance="8.8"
     objecttolerance="10"
     inkscape:pageopacity="0.0"
     inkscape:pageshadow="2"
     inkscape:zoom="1.540463"
     inkscape:cx="183.27824"
     inkscape:cy="114.22174"
     inkscape:document-units="mm"
     inkscape:current-layer="layer1"
     inkscape:window-width="1024"
     inkscape:window-height="768"
     inkscape:window-x="0"
     inkscape:window-y="0"
     width="12.8cm"
     height="9.6cm"
     units="cm"
     showgrid="false"
     grid_units="mm"
     inkscape:object-paths="false"
     inkscape:grid-points="true"
     inkscape:grid-bbox="true"
     inkscape:guide-points="true"
     showguides="true"
     inkscape:guide-bbox="true">
    <sodipodi:guide
       orientation="vertical"
       position="56.476527"
       id="guide3573" />
    <sodipodi:guide
       orientation="horizontal"
       position="11.035643"
       id="guide3579" />
    <sodipodi:guide
       orientation="horizontal"
       position="24.018753"
       id="guide3886" />
    <sodipodi:guide
       orientation="horizontal"
       position="285.62841"
       id="guide3988" />
    <sodipodi:guide
       orientation="horizontal"
       position="303.15561"
       id="guide4081" />
    <inkscape:grid
       id="GridFromPre046Settings"
       type="xygrid"
       originx="0px"
       originy="0px"
       spacingx="2mm"
       spacingy="2mm"
       color="#0000ff"
       empcolor="#0000ff"
       opacity="0.2"
       empopacity="0.4"
       empspacing="5" />
  </sodipodi:namedview>
  <metadata
     id="metadata7">
    <rdf:RDF>
      <cc:Work
         rdf:about="">
        <dc:format>image/svg+xml</dc:format>
        <dc:type
           rdf:resource="http://purl.org/dc/dcmitype/StillImage" />
      </cc:Work>
    </rdf:RDF>
  </metadata>
  <g
     inkscape:label="Layer 1"
     inkscape:groupmode="layer"
     id="layer1"
     transform="translate(4.149475e-6,-698.0315)">
    <path
       style="fill:#ffaaaa;fill-rule:evenodd;stroke:#000000;stroke-width:1px;stroke-linecap:butt;stroke-linejoin:miter;stroke-opacity:1"
       d="M 387.54582,101.91741 C 384.48331,99.440472 380.59808,98.022476 375.21187,98.022476 C 370.76343,98.022476 367.67876,98.932021 363.52707,99.969943 C 358.67801,101.18221 353.54096,101.09333 348.59649,101.91741 C 347.53658,102.09406 342.86182,98.671632 339.50832,98.671632 C 338.42639,98.671632 337.34447,98.671632 336.26254,98.671632 C 330.18852,98.671632 323.6877,100.96041 318.73534,99.969943 C 314.51356,99.125587 309.01185,99.445081 304.45392,101.26825 C 298.43498,103.67583 297.21806,104.45624 294.06743,109.70727 C 291.49948,113.98719 288.09204,118.92844 284.97926,122.04123 C 284.3301,122.69038 283.68095,123.33954 283.03179,123.9887 C 279.5383,127.48218 275.9378,130.78147 271.34699,133.07687 C 265.85659,135.82207 260.36773,138.38867 254.46895,139.56843 C 249.59051,140.54411 243.21956,143.89481 238.88922,146.05998 C 234.01878,148.4952 229.99041,150.78662 225.90611,153.84985 C 222.73691,156.22674 221.01506,161.03531 219.41455,164.23634 C 217.75126,167.56292 217.67415,171.19796 216.81793,174.62282 C 215.83374,178.55959 214.23092,182.37426 213.57215,185.00931 C 212.58372,188.96305 212.27384,193.30145 212.27384,197.34326 C 212.27384,201.30096 211.98908,205.29238 212.923,209.02806 C 214.10933,213.77341 213.03515,219.21401 214.22131,223.95864 C 215.31715,228.34201 215.10155,233.32201 216.16878,237.5909 C 217.1061,241.34022 219.47204,243.49079 221.36202,245.38077 C 222.12706,246.14581 222.66033,247.11185 223.30949,247.97739 C 226.27835,251.93588 228.14871,254.11492 231.09935,257.06557 C 234.26112,260.22734 239.50867,262.89312 243.43331,264.85543 C 248.89823,267.5879 254.04917,270.40009 259.66219,272.6453 C 265.36208,274.92526 270.46282,276.62306 276.54023,277.83854 C 282.22242,278.97498 287.58698,279.78601 293.41828,279.78601 C 298.72488,279.78601 303.68781,278.4877 308.99801,278.4877 C 312.36157,278.4877 315.3199,277.2318 318.08619,276.54023 C 318.95173,276.32385 319.81727,276.10746 320.68281,275.89108 C 324.62453,274.90565 329.47835,273.11619 333.01676,271.34699 C 336.80678,269.45198 341.00629,267.35222 344.70156,265.50459 C 347.82923,263.94075 350.31775,260.481 353.14058,258.36388 C 356.29872,255.99528 360.54701,254.46895 364.82538,254.46895 C 369.28461,254.46895 371.9785,253.95459 376.51018,255.76726 C 379.05615,256.78565 382.47028,260.42905 384.30004,262.25881 C 388.35878,266.31755 396.46292,269.20126 401.82724,271.34699 C 408.14289,273.87325 414.27059,276.77485 420.65275,277.83854 C 423.77069,278.3582 430.27126,274.12097 432.33755,273.29446 C 436.24709,271.73064 438.93633,270.34645 442.72404,269.39952 C 445.44239,268.71993 448.61219,264.80968 450.5139,262.90797 C 452.43422,260.98765 453.60399,256.7278 454.40884,255.1181 C 455.67732,252.58114 453.74924,246.63733 453.11053,244.08246 C 452.18392,240.37602 452.66025,237.78979 449.86475,234.99428 C 446.90465,232.03418 445.39615,229.87653 442.07488,226.55526 C 439.38366,223.86404 436.97915,219.1118 434.28502,215.51962 C 431.43571,211.72054 433.43936,205.62439 434.93417,201.88735 C 436.91757,196.92885 437.81882,191.57396 440.12742,186.95678 C 442.19571,182.82019 442.25053,178.09769 441.42573,173.97367 C 441.34085,173.5493 441.42573,173.10813 441.42573,172.67536 C 441.42573,167.62684 435.8857,158.99868 433.63586,154.499 C 431.07657,149.38042 429.62112,144.12922 426.49515,138.91927 C 423.18838,133.40799 420.9833,126.59726 418.05613,120.74292 C 415.74656,116.12377 413.79149,113.88165 411.56458,111.65474 C 409.18801,109.27818 402.77151,107.98115 399.87978,105.81234 C 396.43421,103.22817 391.9188,103.6666 387.54582,101.91741 z"
       id="path2423"
       transform="translate(-4.149475e-6,698.0315)" />
    <g
       id="g10189"
       transform="translate(-2.9127476,-60.296968)">
      <path
         d="M 296.73371,1007.5055 C 298.59129,1007.6054 300.43735,1008.0898 302.29238,1008.3436 C 305.32155,1008.5386 308.34466,1008.8607 311.36921,1009.2606 C 314.01141,1009.6528 316.65982,1009.746 319.30738,1009.8246 C 322.53656,1009.6975 325.75136,1009.0816 328.91954,1007.7684 C 331.90152,1006.3453 334.83315,1004.5088 337.60871,1001.8064 C 338.08356,1001.329 338.5649,1000.8791 339.03325,1000.3743 C 339.98685,999.34656 340.77549,998.31785 341.70915,997.22254 C 342.14212,996.71462 343.44482,995.20569 343.01605,995.72907 C 341.30037,997.82327 336.13845,1004.0514 337.84807,1001.9355 C 340.31426,998.88322 342.80664,995.92501 345.28592,992.91976 C 334.13491,1006.5672 343.03589,995.51465 345.57724,992.10252 C 349.79674,986.73084 353.99735,981.26462 358.39501,976.54735 C 360.60893,973.96774 362.92601,971.9991 365.32836,970.36086 C 368.21498,968.51113 371.18436,967.59575 374.18318,967.07367 C 377.60621,966.76267 380.99775,967.8125 384.3679,968.92548 C 387.74695,970.07301 391.03011,972.14162 394.29308,974.26352 C 397.52653,976.59426 400.63715,979.64352 403.6752,982.91925 C 406.98096,986.58156 410.31814,990.11944 413.66467,993.61498 C 417.18519,997.20571 420.73842,1000.6196 424.36986,1003.6855 C 427.4336,1006.2082 430.6221,1008.0354 433.87101,1009.1208 C 436.78038,1010.0129 439.69876,1009.2589 442.55962,1008.0792 C 445.41143,1006.9186 448.10793,1004.6813 450.71472,1002.0495 C 455.11812,996.87525 442.93649,1011.6189 446.83827,1006.7005 L 453.84125,1001.0376 C 450.88686,1004.702 447.98639,1008.5914 444.9004,1011.7511 C 442.2726,1014.2315 439.54915,1016.2506 436.70736,1017.3493 C 433.7744,1018.431 430.78278,1019.0729 427.82219,1018.0095 C 424.58042,1016.7175 421.40944,1014.6826 418.34092,1012.1435 C 414.71832,1008.9713 411.14201,1005.5863 407.61374,1001.9734 C 404.25218,998.48989 400.91355,994.90908 397.5756,991.32744 C 394.55215,988.14509 391.47893,985.06745 388.25143,982.90478 C 385.01872,980.82026 381.76202,978.79287 378.41221,977.71608 C 375.06026,976.66692 371.68166,975.70805 368.28423,976.23696 C 365.30286,976.85138 362.35001,977.88389 359.4977,979.86916 C 357.11914,981.60237 354.83495,983.74853 352.62006,986.26932 C 349.77459,989.4197 350.80467,988.3218 356.71632,981.12938 C 357.07249,980.69604 356.00712,982.00736 355.65461,982.45365 C 354.60127,983.78716 353.57469,985.21341 352.49515,986.45446 C 348.25734,992.15471 343.88808,997.3965 339.53192,1002.6923 C 353.44907,985.79446 335.62442,1008.0127 331.86329,1011.3593 C 329.02904,1013.8925 326.0729,1015.7655 323.05314,1017.0581 C 319.85251,1018.2109 316.60857,1018.7618 313.36155,1018.8678 C 310.69281,1018.8312 308.01989,1018.7871 305.35996,1018.2817 C 302.33751,1017.7623 299.31304,1017.5636 296.28224,1017.3914 C 294.37333,1017.1794 292.46458,1016.7254 290.55118,1016.9291 L 296.73371,1007.5055 z"
         id="path9590"
         style="opacity:1;fill:#b3b3b3;fill-opacity:1;fill-rule:nonzero;stroke:#000000;stroke-width:1.14705133;stroke-linecap:butt;stroke-linejoin:miter;stroke-miterlimit:4;stroke-dasharray:none;stroke-dashoffset:0;stroke-opacity:1" />
      <g
         transform="matrix(0.7942709,0,0,0.7942709,140.03444,253.62893)"
         id="g9586">
        <path
           style="opacity:1;fill:#b3b3b3;fill-opacity:1;fill-rule:nonzero;stroke:#000000;stroke-width:0.99921262;stroke-linecap:butt;stroke-linejoin:miter;stroke-miterlimit:4;stroke-dasharray:none;stroke-dashoffset:0;stroke-opacity:1"
           d="M 170.09375,120.46875 L 170.09375,120.84375 C 134.30192,124.40445 106.3125,154.6177 106.3125,191.34375 C 106.3125,228.06981 134.30193,258.25517 170.09375,261.8125 L 170.09375,262.21875 L 198.4375,262.21875 L 198.4375,258.9375 C 227.16948,249.89906 248.03126,223.04756 248.03125,191.34375 C 248.03125,159.63969 227.16983,132.76475 198.4375,123.71875 L 198.4375,120.46875 L 177.15625,120.46875 L 170.09375,120.46875 z M 177.15625,155.90625 C 196.71529,155.90625 212.59375,171.78469 212.59375,191.34375 C 212.59375,210.90281 196.71531,226.75 177.15625,226.75 C 157.59718,226.75 141.71875,210.90281 141.71875,191.34375 C 141.71874,171.78469 157.59719,155.90625 177.15625,155.90625 z"
           transform="translate(-4.149475e-6,698.0315)"
           id="path9574" />
        <path
           style="opacity:1;fill:#b3b3b3;fill-opacity:1;fill-rule:nonzero;stroke:#000000;stroke-width:0.99921262;stroke-linecap:butt;stroke-linejoin:miter;stroke-miterlimit:4;stroke-dasharray:none;stroke-dashoffset:0;stroke-opacity:1"
           d="M 198.42519,818.50393 C 159.30708,818.50393 127.58144,850.26082 127.58144,889.37893 C 127.58144,928.49704 159.30708,960.22269 198.42519,960.22268 C 237.5433,960.22268 269.3002,928.49704 269.30019,889.37893 C 269.30019,850.26082 237.5433,818.50393 198.42519,818.50393 z M 198.42519,853.94143 C 217.98424,853.94143 233.86269,869.81987 233.86269,889.37893 C 233.8627,908.93799 217.98425,924.78518 198.42519,924.78518 C 178.86613,924.78518 162.98769,908.93799 162.98769,889.37893 C 162.98769,869.81987 178.86613,853.94143 198.42519,853.94143 z"
           id="path9579" />
      </g>
      <g
         transform="matrix(0.7942709,0,0,0.7942709,144.2052,254.2414)"
         id="g9606">
        <rect
           style="fill:#e6e6e6;fill-rule:evenodd;stroke:#000000;stroke-width:1px;stroke-linecap:butt;stroke-linejoin:miter;stroke-opacity:1"
           id="rect9600"
           width="70.866142"
           height="56.692913"
           x="283.46457"
           y="127.55904"
           transform="translate(-4.149475e-6,698.0315)" />
        <path
           style="opacity:1;fill:#b3b3b3;fill-opacity:1;fill-rule:nonzero;stroke:#000000;stroke-width:1.37428987;stroke-linecap:butt;stroke-linejoin:miter;stroke-miterlimit:4;stroke-dasharray:none;stroke-dashoffset:0;stroke-opacity:1"
           id="path9598"
           d="M 315.4771,813.40153 C 317.39365,815.40782 318.84158,817.44061 320.06374,819.47889 C 321.75756,822.32972 322.9963,825.15298 324.25285,827.97365 C 325.28216,830.25859 326.24472,832.53706 327.27847,834.82231 C 327.95574,836.52216 328.44586,838.18732 328.50372,839.77854 C 328.50025,841.40051 327.92669,842.85568 327.44191,844.32721 C 326.99437,845.7191 326.48137,847.08782 326.00937,848.47117 C 325.70814,849.38326 325.37423,850.28376 325.05808,851.1906 L 313.21361,850.20728 C 313.54269,849.30085 313.85499,848.38846 314.20604,847.48991 C 314.72548,846.11852 315.21506,844.73666 315.72241,843.36097 C 316.21051,841.93396 316.69597,840.49793 316.7924,838.94608 C 316.78896,837.42823 316.33423,835.82034 315.73655,834.19328 C 314.73147,831.90748 313.89374,829.63867 312.84912,827.34853 C 311.64675,824.56066 310.45883,821.76599 308.67902,818.93949 C 307.44561,816.9754 306.01937,814.98892 303.90728,813.09707 L 315.4771,813.40153 z" />
        <text
           xml:space="preserve"
           style="font-size:18px;font-style:normal;font-weight:bold;writing-mode:lr-tb;fill:#000000;fill-opacity:1;stroke:none;stroke-width:1px;stroke-linecap:butt;stroke-linejoin:miter;stroke-opacity:1;font-family:Sans;-inkscape-font-specification:Sans"
           x="291.91672"
           y="867.29291"
           id="text9602"><tspan
             sodipodi:role="line"
             id="tspan9604"
             x="291.91672"
             y="867.29291">Story</tspan></text>
      </g>
    </g>
    <g
       id="g10149"
       transform="matrix(1,0,0,0.9473684,6.1385838,76.415715)">
      <g
         transform="matrix(1.2105263,0,0,1.2666667,-23.01947,-135.92971)"
         id="g9616">
        <rect
           style="fill:#808000;fill-rule:evenodd;stroke:#000000;stroke-width:1px;stroke-linecap:butt;stroke-linejoin:miter;stroke-opacity:1"
           id="rect9614"
           width="141.73228"
           height="106.29921"
           x="42.519684"
           y="77.952744"
           transform="translate(-4.149475e-6,698.0315)" />
        <rect
           style="fill:#008000;fill-rule:evenodd;stroke:#000000;stroke-width:1px;stroke-linecap:butt;stroke-linejoin:miter;stroke-opacity:1"
           id="rect9612"
           width="127.55905"
           height="92.125984"
           x="49.6063"
           y="85.03936"
           transform="translate(-4.149475e-6,698.0315)" />
      </g>
      <rect
         y="875.19684"
         x="56.692913"
         height="28.346457"
         width="21.259842"
         id="rect9620"
         style="fill:none;fill-rule:evenodd;stroke:#ffffff;stroke-width:3.54330707;stroke-linecap:butt;stroke-linejoin:miter;stroke-miterlimit:4;stroke-dasharray:none;stroke-opacity:1" />
      <rect
         y="903.54333"
         x="92.125992"
         height="28.346457"
         width="21.259842"
         id="rect10131"
         style="fill:none;fill-rule:evenodd;stroke:#ffffff;stroke-width:3.54330707;stroke-linecap:butt;stroke-linejoin:miter;stroke-miterlimit:4;stroke-dasharray:none;stroke-opacity:1" />
      <rect
         y="931.88977"
         x="134.64568"
         height="28.346457"
         width="21.259842"
         id="rect10133"
         style="fill:none;fill-rule:evenodd;stroke:#ffffff;stroke-width:3.54330707;stroke-linecap:butt;stroke-linejoin:miter;stroke-miterlimit:4;stroke-dasharray:none;stroke-opacity:1" />
      <path
         id="path10135"
         d="M 77.952759,882.28346 C 106.29922,882.28346 106.29922,903.5433 106.29922,903.5433 L 106.29922,903.5433"
         style="fill:none;fill-rule:evenodd;stroke:#ffffff;stroke-width:2.41653538;stroke-linecap:butt;stroke-linejoin:miter;stroke-miterlimit:4;stroke-dasharray:none;stroke-opacity:1" />
      <path
         sodipodi:nodetypes="cc"
         id="path10139"
         d="M 113.38583,917.71653 C 148.8189,903.5433 141.73228,931.88976 141.73228,931.88976"
         style="fill:none;fill-rule:evenodd;stroke:#ffffff;stroke-width:2.41653538;stroke-linecap:butt;stroke-linejoin:miter;stroke-miterlimit:4;stroke-dasharray:none;stroke-opacity:1" />
    </g>
    <text
       xml:space="preserve"
       style="font-size:18px;font-style:normal;font-weight:bold;text-align:center;writing-mode:lr-tb;text-anchor:middle;fill:#000000;fill-opacity:1;stroke:none;stroke-width:1px;stroke-linecap:butt;stroke-linejoin:miter;stroke-opacity:1;font-family:Sans;-inkscape-font-specification:Sans"
       x="122.79857"
       y="1027.1533"
       id="text10141"><tspan
         sodipodi:role="line"
         id="tspan10143"
         x="122.79857"
         y="1027.1533">Formal Processes</tspan></text>
    <text
       xml:space="preserve"
       style="font-size:18px;font-style:normal;font-weight:bold;text-align:center;writing-mode:lr-tb;text-anchor:middle;fill:#000000;fill-opacity:1;stroke:none;stroke-width:1px;stroke-linecap:butt;stroke-linejoin:miter;stroke-opacity:1;font-family:Sans;-inkscape-font-specification:Sans"
       x="342.11462"
       y="815.54272"
       id="text10145"><tspan
         sodipodi:role="line"
         id="tspan10147"
         x="342.11462"
         y="815.54272">Ad Hoc</tspan><tspan
         sodipodi:role="line"
         x="342.11462"
         y="838.04272"
         id="tspan2429">processes</tspan></text>
    <g
       id="g10179"
       transform="matrix(0.9697443,-0.2441231,0.2441231,0.9697443,-253.3901,52.121224)">
      <rect
         transform="translate(-4.149475e-6,698.0315)"
         y="42.519676"
         x="99.212601"
         height="134.64568"
         width="148.81889"
         id="rect10159"
         style="fill:#ffff00;fill-rule:evenodd;stroke:#000000;stroke-width:1px;stroke-linecap:butt;stroke-linejoin:miter;stroke-opacity:1" />
      <text
         id="text10161"
         y="783.07086"
         x="134.64566"
         style="font-size:48px;font-style:normal;font-weight:bold;writing-mode:lr-tb;fill:#000000;fill-opacity:1;stroke:none;stroke-width:1px;stroke-linecap:butt;stroke-linejoin:miter;stroke-opacity:1;font-family:Sans;-inkscape-font-specification:Sans"
         xml:space="preserve"><tspan
           y="783.07086"
           x="134.64566"
           id="tspan10163"
           sodipodi:role="line">Rx</tspan></text>
      <text
         id="text10165"
         y="811.4173"
         x="113.38583"
         style="font-size:18px;font-style:normal;font-weight:bold;writing-mode:lr-tb;fill:#000000;fill-opacity:1;stroke:none;stroke-width:1px;stroke-linecap:butt;stroke-linejoin:miter;stroke-opacity:1;font-family:Sans;-inkscape-font-specification:Sans"
         xml:space="preserve"><tspan
           y="811.4173"
           x="113.38583"
           id="tspan10167"
           sodipodi:role="line">- Test First</tspan><tspan
           id="tspan10175"
           y="833.9173"
           x="113.38583"
           sodipodi:role="line">- Scrums</tspan><tspan
           id="tspan10173"
           y="856.4173"
           x="113.38583"
           sodipodi:role="line">- Story Cards</tspan></text>
      <path
         transform="translate(-4.149475e-6,698.0315)"
         id="path10177"
         d="M 106.29921,92.125975 C 113.38583,92.125975 240.94488,92.125975 240.94488,92.125975"
         style="fill:none;fill-rule:evenodd;stroke:#000000;stroke-width:1px;stroke-linecap:butt;stroke-linejoin:miter;stroke-opacity:1" />
    </g>
    <text
       xml:space="preserve"
       style="font-size:48px;font-style:normal;font-weight:bold;writing-mode:lr-tb;fill:#000000;fill-opacity:1;stroke:none;stroke-width:1px;stroke-linecap:butt;stroke-linejoin:miter;stroke-opacity:1;font-family:Sans;-inkscape-font-specification:Sans"
       x="212.59842"
       y="747.63782"
       id="text10200"><tspan
         sodipodi:role="line"
         id="tspan10202"
         x="212.59842"
         y="747.63782">Process</tspan></text>
    <text
       xml:space="preserve"
       style="font-size:16px;font-style:normal;font-weight:bold;writing-mode:lr-tb;fill:#ffffff;fill-opacity:1;stroke:none;stroke-width:1px;stroke-linecap:butt;stroke-linejoin:miter;stroke-opacity:1;font-family:Sans;-inkscape-font-specification:Sans"
       x="106.94836"
       y="914.25433"
       id="text2419"><tspan
         sodipodi:role="line"
         id="tspan2421"
         x="106.94836"
         y="914.25433">waterfall</tspan></text>
    <text
       xml:space="preserve"
       style="font-size:12.00000191px;font-style:normal;font-weight:bold;text-align:center;writing-mode:lr-tb;text-anchor:middle;fill:#000000;fill-opacity:1;stroke:none;stroke-width:1px;stroke-linecap:butt;stroke-linejoin:miter;stroke-opacity:1;font-family:Sans;-inkscape-font-specification:Sans"
       x="-94.694145"
       y="721.90479"
       id="text2425"
       transform="matrix(0.9682292,-0.2500646,0.2500646,0.9682292,0,0)"><tspan
         sodipodi:role="line"
         id="tspan2427"
         x="-94.694145"
         y="721.90479">prescribed processes</tspan></text>
  </g>
</svg>
