<?xml version="1.0" encoding="UTF-8" standalone="no"?>
<!-- Created with Inkscape (http://www.inkscape.org/) -->

<svg
   xmlns:dc="http://purl.org/dc/elements/1.1/"
   xmlns:cc="http://creativecommons.org/ns#"
   xmlns:rdf="http://www.w3.org/1999/02/22-rdf-syntax-ns#"
   xmlns:svg="http://www.w3.org/2000/svg"
   xmlns="http://www.w3.org/2000/svg"
   xmlns:xlink="http://www.w3.org/1999/xlink"
   xmlns:sodipodi="http://sodipodi.sourceforge.net/DTD/sodipodi-0.dtd"
   xmlns:inkscape="http://www.inkscape.org/namespaces/inkscape"
   width="453.5433"
   height="340.15747"
   id="svg2"
   sodipodi:version="0.32"
   inkscape:version="0.48.0 r9654"
   sodipodi:docname="what-have-we-done.svg"
   version="1.0"
   inkscape:output_extension="org.inkscape.output.svg.inkscape">
  <defs
     id="defs4">
    <inkscape:perspective
       sodipodi:type="inkscape:persp3d"
       inkscape:vp_x="0 : 170.07874 : 1"
       inkscape:vp_y="0 : 1000 : 0"
       inkscape:vp_z="453.5433 : 170.07874 : 1"
       inkscape:persp3d-origin="226.77165 : 113.38582 : 1"
       id="perspective18551" />
  </defs>
  <sodipodi:namedview
     id="base"
     pagecolor="#ffffff"
     bordercolor="#666666"
     borderopacity="1.0"
     gridtolerance="10000"
     guidetolerance="8.8"
     objecttolerance="10"
     inkscape:pageopacity="0.0"
     inkscape:pageshadow="2"
     inkscape:zoom="1.0892718"
     inkscape:cx="259.31438"
     inkscape:cy="263.28871"
     inkscape:document-units="mm"
     inkscape:current-layer="layer1"
     inkscape:window-width="952"
     inkscape:window-height="1167"
     inkscape:window-x="0"
     inkscape:window-y="25"
     width="12.8cm"
     height="9.6cm"
     units="cm"
     showgrid="true"
     grid_units="mm"
     inkscape:object-paths="false"
     inkscape:grid-points="true"
     inkscape:grid-bbox="true"
     inkscape:guide-points="true"
     showguides="true"
     inkscape:guide-bbox="true"
     inkscape:window-maximized="0">
    <sodipodi:guide
       orientation="vertical"
       position="56.476527"
       id="guide3573" />
    <sodipodi:guide
       orientation="horizontal"
       position="11.035643"
       id="guide3579" />
    <sodipodi:guide
       orientation="horizontal"
       position="24.018753"
       id="guide3886" />
    <sodipodi:guide
       orientation="horizontal"
       position="285.62841"
       id="guide3988" />
    <sodipodi:guide
       orientation="horizontal"
       position="303.15561"
       id="guide4081" />
    <inkscape:grid
       id="GridFromPre046Settings"
       type="xygrid"
       originx="0px"
       originy="0px"
       spacingx="2mm"
       spacingy="2mm"
       color="#0000ff"
       empcolor="#0000ff"
       opacity="0.2"
       empopacity="0.4"
       empspacing="5" />
  </sodipodi:namedview>
  <metadata
     id="metadata7">
    <rdf:RDF>
      <cc:Work
         rdf:about="">
        <dc:format>image/svg+xml</dc:format>
        <dc:type
           rdf:resource="http://purl.org/dc/dcmitype/StillImage" />
        <dc:title></dc:title>
      </cc:Work>
    </rdf:RDF>
  </metadata>
  <g
     inkscape:label="Layer 1"
     inkscape:groupmode="layer"
     id="layer1"
     transform="translate(4.149475e-6,-698.0315)">
    <g
       id="g7727"
       transform="matrix(1.629984,0,0,1.629984,53.690355,-418.0062)">
      <path
         transform="translate(-4.149475e-6,698.0315)"
         id="path6453"
         d="m 235.01939,80.350881 c 2.2518,-4.242239 6.57597,-9.499858 4.59022,-17.442845 -2.74074,-10.962978 -3.96258,-8.378975 -12.85262,-8.378975 -4.59984,0 -3.18431,-14.395728 -3.18431,-20.043894 0,-8.068701 -16.26573,-5.715801 -21.7383,-4.347659 -6.46321,1.615804 -16.22647,-5.229618 -22.81571,-3.033207 -7.61336,2.537788 -20.04847,-0.76568 -27.54133,-1.836089 -7.66483,-1.094976 -5.46911,9.216955 -14.85784,9.216955 -7.30974,0 -18.05433,-4.347659 -26.08595,-4.347659 -12.807056,0 -26.630152,4.999511 -39.12893,0 -10.839353,-4.335741 -12.230056,-0.40646 -21.738294,4.347659 -9.433122,4.716562 -21.807104,-9.572119 -23.043036,2.516694 -0.02897,0.283395 -16.026855,0 -17.4428451,0 -15.5262528,0 -14.6274574,-1.205306 -16.5248008,17.5272 -0.08758,0.864675 -5.8430131,14.027556 -9.1804451,18.477464 -3.187065,4.249421 -6.984844,11.215555 -9.180445,15.606757 -2.790437,5.580874 4.176082,13.032148 5.508267,18.360888 1.557338,6.22935 3.672178,13.42687 3.672178,20.19698 0,6.21943 1.836089,11.84061 1.836089,18.36089 0,6.85134 -5.508267,10.80475 -5.508267,17.44285 0,5.5041 3.637543,11.8653 6.426312,17.44284 2.125432,4.25086 5.8107643,4.20682 11.0165335,5.50827 8.6452397,2.16131 12.3703145,-1.71551 20.1969785,-3.67218 8.23826,-2.05957 13.626365,1.76394 19.278934,4.59022 5.833504,2.91675 19.754748,6.99457 19.754748,-0.91804 0,-8.08666 15.885072,-3.42301 23.393343,-6.42631 10.454725,-4.18189 25.37237,0.0975 35.80374,1.83608 9.96479,1.6608 21.00249,6.3813 30.29546,10.09849 7.35089,2.94036 10.78142,-4.66248 16.73638,-9.1287 5.19283,-3.89462 14.60426,-0.65037 21.7383,-1.6926 17.00421,-2.48418 31.79079,-2.33716 43.47658,0 8.69794,1.73959 5.50516,-3.37498 8.69532,-11.35037 2.00134,-5.00336 2.07592,-0.55961 2.07592,-6.2877 0,-6.3998 -1.11916,-10.90294 -2.75414,-17.44285 -2.17716,-8.70864 -1.57739,-10.61589 1.83609,-17.44285 3.80137,-7.60273 4.5543,-11.08837 0.91805,-18.36089 -3.17134,-6.34267 -5.36563,-9.893659 -3.67218,-18.360885 0.84349,-4.217474 0.95243,-6.254352 0,-11.016534 z"
         style="fill:#ffe680;fill-rule:evenodd;stroke:#000000;stroke-width:1px;stroke-linecap:butt;stroke-linejoin:miter;stroke-opacity:1"
         inkscape:connector-curvature="0"
         sodipodi:nodetypes="cssssssssssssssssssssssssssssssssssssc" />
      <g
         transform="translate(-5.1932401,6.2635898e-2)"
         id="g4457">
        <image
           sodipodi:absref="/home/abez/projects/thesis/wcre-presentation/freebsd-only.png"
           xlink:href="freebsd-only.png"
           width="98.839081"
           height="122.5163"
           id="image21293"
           x="129.52643"
           y="752.49792" />
        <g
           id="g21453"
           transform="matrix(0.2837462,0,0,1.002381,45.308751,48.638459)">
          <g
             transform="matrix(0.6467138,0,0,0.6467138,-30.259238,196.37115)"
             id="g26259" />
          <g
             transform="matrix(0.6467138,0,0,0.6467138,-30.259238,196.37115)"
             id="g26254" />
          <g
             transform="matrix(0.6467138,0,0,0.6467138,-30.259238,196.37115)"
             id="g26249" />
          <g
             transform="matrix(0.6467138,0,0,0.6467138,332.12873,157.79473)"
             id="g26264" />
          <text
             transform="scale(1.2265933,0.8152661)"
             id="text26269"
             y="891.47778"
             x="-125.40888"
             style="font-size:10.54487801px;font-style:normal;font-weight:normal;fill:#000000;fill-opacity:1;stroke:none;stroke-width:1px;stroke-linecap:butt;stroke-linejoin:miter;stroke-opacity:1;font-family:Bitstream Vera Sans"
             xml:space="preserve"><tspan
               y="891.47778"
               x="-125.40888"
               id="tspan26271"
               sodipodi:role="line">Requirements</tspan></text>
          <text
             id="text26273"
             y="922.39484"
             x="-118.91254"
             style="font-size:9.99863434px;font-style:normal;font-weight:normal;fill:#000000;fill-opacity:1;stroke:none;stroke-width:1px;stroke-linecap:butt;stroke-linejoin:miter;stroke-opacity:1;font-family:Bitstream Vera Sans"
             xml:space="preserve"
             transform="scale(1.2936041,0.773034)"><tspan
               y="922.39484"
               x="-118.91254"
               id="tspan26275"
               sodipodi:role="line">Business Modeling</tspan></text>
          <text
             id="text26277"
             y="1022.8853"
             x="-111.39519"
             style="font-size:9.36654663px;font-style:normal;font-weight:normal;fill:#000000;fill-opacity:1;stroke:none;stroke-width:1px;stroke-linecap:butt;stroke-linejoin:miter;stroke-opacity:1;font-family:Bitstream Vera Sans"
             xml:space="preserve"
             transform="scale(1.3809012,0.7241648)"><tspan
               y="1022.8853"
               x="-111.39519"
               id="tspan26279"
               sodipodi:role="line">Analysis &amp; Design</tspan></text>
          <text
             id="text26281"
             y="947.06622"
             x="-122.49834"
             style="font-size:10.30014324px;font-style:normal;font-weight:normal;fill:#000000;fill-opacity:1;stroke:none;stroke-width:1px;stroke-linecap:butt;stroke-linejoin:miter;stroke-opacity:1;font-family:Bitstream Vera Sans"
             xml:space="preserve"
             transform="scale(1.2557374,0.7963448)"><tspan
               y="947.06622"
               x="-122.49834"
               id="tspan26283"
               sodipodi:role="line">Implementation</tspan></text>
          <text
             id="text26285"
             y="1014.8609"
             x="-116.26191"
             style="font-size:9.77575874px;font-style:normal;font-weight:normal;fill:#000000;fill-opacity:1;stroke:none;stroke-width:1px;stroke-linecap:butt;stroke-linejoin:miter;stroke-opacity:1;font-family:Bitstream Vera Sans"
             xml:space="preserve"
             transform="scale(1.3230967,0.7558027)"><tspan
               y="1014.8609"
               x="-116.26191"
               id="tspan26287"
               sodipodi:role="line">Test</tspan></text>
          <text
             id="text26289"
             y="1011.3238"
             x="-118.91254"
             style="font-size:9.99863434px;font-style:normal;font-weight:normal;fill:#000000;fill-opacity:1;stroke:none;stroke-width:1px;stroke-linecap:butt;stroke-linejoin:miter;stroke-opacity:1;font-family:Bitstream Vera Sans"
             xml:space="preserve"
             transform="scale(1.2936041,0.773034)"><tspan
               y="1011.3238"
               x="-118.91254"
               id="tspan26291"
               sodipodi:role="line">Deployment</tspan></text>
          <text
             inkscape:transform-center-x="7.6212615"
             inkscape:transform-center-y="-220.87921"
             id="text26293"
             y="1078.7019"
             x="-113.30321"
             style="font-size:9.5269804px;font-style:normal;font-weight:normal;fill:#000000;fill-opacity:1;stroke:none;stroke-width:1px;stroke-linecap:butt;stroke-linejoin:miter;stroke-opacity:1;font-family:Bitstream Vera Sans"
             xml:space="preserve"
             transform="scale(1.3576468,0.7365686)"><tspan
               y="1078.7019"
               x="-113.30321"
               id="tspan26295"
               sodipodi:role="line">CM and SCS</tspan></text>
          <text
             id="text26297"
             y="987.90771"
             x="-125.98212"
             style="font-size:10.59307289px;font-style:normal;font-weight:normal;fill:#000000;fill-opacity:1;stroke:none;stroke-width:1px;stroke-linecap:butt;stroke-linejoin:miter;stroke-opacity:1;font-family:Bitstream Vera Sans"
             xml:space="preserve"
             transform="scale(1.2210125,0.8189924)"><tspan
               y="987.90771"
               x="-125.98212"
               id="tspan26299"
               sodipodi:role="line">Project Mangement</tspan></text>
          <text
             id="text26301"
             y="909.38898"
             x="-139.04123"
             style="font-size:11.69113445px;font-style:normal;font-weight:normal;fill:#000000;fill-opacity:1;stroke:none;stroke-width:1px;stroke-linecap:butt;stroke-linejoin:miter;stroke-opacity:1;font-family:Bitstream Vera Sans"
             xml:space="preserve"
             transform="scale(1.1063319,0.9038879)"><tspan
               y="909.38898"
               x="-139.04123"
               id="tspan26303"
               sodipodi:role="line">Environment</tspan></text>
          <path
             sodipodi:nodetypes="ccccccc"
             id="rect26309"
             d="M -30.259348,700.65977 L 35.652082,706.1174 L 290.48142,712.41466 L 290.48142,713.2543 L 25.156642,713.2543 L -30.259348,713.2543 L -30.259348,700.65977 z"
             style="fill:#ff0000;fill-opacity:1;stroke:#000000;stroke-width:1.61678433;stroke-miterlimit:4;stroke-dashoffset:0;stroke-opacity:1" />
          <path
             sodipodi:nodetypes="cccssscccc"
             inkscape:transform-center-y="-39.739001"
             inkscape:transform-center-x="155.95686"
             id="path26312"
             d="M -30.259348,722.07047 L -6.7495475,716.61284 L 44.045882,722.13156 C 68.702952,723.80334 93.059842,725.47054 117.02351,723.87512 C 126.18838,723.26494 135.29579,719.31025 144.34038,718.92162 C 151.07775,718.63214 156.95061,723.82616 163.64553,723.58274 C 205.72744,722.05268 248.3761,728.03722 290.90135,726.68846 L 290.48153,727.10829 L -30.259348,727.10829 L -30.259348,722.07047 z"
             style="fill:#ff5555;fill-opacity:1;stroke:#000000;stroke-width:1.61678433;stroke-miterlimit:4;stroke-dashoffset:0;stroke-opacity:1" />
          <path
             sodipodi:nodetypes="cccccccc"
             id="path26314"
             d="M 78.893402,730.46683 C 98.959362,730.21645 119.96395,736.26334 141.02235,736.01297 L 183.46747,733.71612 C 194.73968,732.22475 204.62851,737.1545 214.90838,736.65545 L 290.06171,739.70282 L 290.06171,740.54245 L -30.679118,740.54245 L 78.893402,730.46683 z"
             style="fill:#ff6600;fill-opacity:1;stroke:#000000;stroke-width:1.61678433;stroke-miterlimit:4;stroke-dashoffset:0;stroke-opacity:1" />
          <path
             sodipodi:nodetypes="cccccccc"
             inkscape:transform-center-y="-32.241077"
             inkscape:transform-center-x="56.23441"
             id="path26316"
             d="M 2.0666625,748.9388 L 109.14762,747.18622 L 132.62742,742.90778 L 217.00429,741.47045 L 259.41499,747.67935 L 290.06171,753.5568 L -30.679118,753.5568 L 2.0666625,748.9388 z"
             style="fill:#ffd42a;fill-opacity:1;stroke:#000000;stroke-width:1.61678433;stroke-miterlimit:4;stroke-dashoffset:0;stroke-opacity:1" />
          <path
             sodipodi:nodetypes="cccccccccccccccc"
             inkscape:transform-center-y="-29.24191"
             inkscape:transform-center-x="17.245189"
             id="path26318"
             d="M -13.466638,762.37297 L 25.576412,764.47206 L 81.363282,762.34685 L 91.919082,765.19131 L 136.84837,762.74355 L 146.05086,765.06656 L 179.20016,758.19453 L 186.75052,764.26189 C 195.48486,763.52673 202.15655,756.91412 209.84627,756.17897 L 219.10128,763.54867 L 251.12488,759.41838 L 263.2739,764.67682 L 290.90135,766.57115 L 290.06171,766.99097 L -30.679118,766.99097 L -13.466638,762.37297 z"
             style="fill:#7fff2a;fill-opacity:1;stroke:#000000;stroke-width:1.61678433;stroke-miterlimit:4;stroke-dashoffset:0;stroke-opacity:1" />
          <path
             sodipodi:nodetypes="ccsscccc"
             id="path26320"
             d="M -31.098878,778.74585 L 107.02108,778.32605 C 139.08578,774.52755 185.31373,771.85558 217.83252,770.32687 C 229.52006,769.77744 217.43761,776.24832 230.81172,775.59905 C 250.1873,774.65846 273.48317,780.0503 290.48153,779.58549 L 290.06171,780.42513 L -30.679058,780.42513 L -31.098878,778.74585 z"
             style="fill:#00ffcc;fill-opacity:1;stroke:#000000;stroke-width:1.61678433;stroke-miterlimit:4;stroke-dashoffset:0;stroke-opacity:1" />
          <path
             sodipodi:nodetypes="ccccc"
             inkscape:transform-center-y="-45.737359"
             inkscape:transform-center-x="140.21121"
             id="path26322"
             d="M -12.626888,786.7224 L 283.76444,785.46294 L 290.06171,793.85929 L -30.679058,793.85929 L -12.626888,786.7224 z"
             style="fill:#0055d4;fill-opacity:1;stroke:#000000;stroke-width:1.61678433;stroke-miterlimit:4;stroke-dashoffset:0;stroke-opacity:1" />
          <path
             sodipodi:nodetypes="ccccccccccccccc"
             id="path26324"
             d="M -13.466638,800.9962 L 18.864632,804.20541 L 29.354802,798.73144 L 74.701682,804.40613 L 86.024832,798.77138 C 105.06699,804.38041 119.79435,805.86097 136.81702,805.41132 L 176.28918,798.86906 L 207.77269,803.79173 L 227.94559,796.53927 L 260.64265,803.38666 L 290.06171,807.29347 L 290.06171,807.71329 L 14.241332,807.71329 L -30.679118,807.71329 L -13.466638,800.9962 z"
             style="fill:#5500d4;fill-opacity:1;stroke:#000000;stroke-width:1.61678433;stroke-miterlimit:4;stroke-dashoffset:0;stroke-opacity:1" />
          <path
             sodipodi:nodetypes="cccccssscccc"
             id="path26326"
             d="M -31.098938,808.13312 L -17.664808,818.62856 L 29.354802,818.44009 L 36.066642,812.61693 L 55.802072,817.29835 C 84.444372,817.99979 112.44987,819.52659 140.1584,818.36074 C 147.47751,818.05279 149.31817,813.46051 156.60201,813.00583 C 160.31523,812.77404 165.74554,818.01602 169.52785,817.81437 C 209.14078,815.70242 250.0891,821.00199 289.22207,819.46819 L 289.64189,820.72764 L -31.098938,820.72764 L -31.098938,808.13312 z"
             style="fill:#ff0066;fill-opacity:1;stroke:#000000;stroke-width:1.61678433;stroke-miterlimit:4;stroke-dashoffset:0;stroke-opacity:1" />
          <path
             id="path26330"
             d="M 45.727692,698.9805 L 45.727692,825.34563"
             style="fill:none;fill-rule:evenodd;stroke:#000000;stroke-width:4.58301115;stroke-linecap:butt;stroke-linejoin:miter;stroke-miterlimit:4;stroke-dasharray:4.58301069, 4.58301069;stroke-dashoffset:0;stroke-opacity:1" />
          <path
             id="path26841"
             d="M 132.62994,697.93094 L 132.62994,824.29609"
             style="fill:none;fill-rule:evenodd;stroke:#000000;stroke-width:4.58301115;stroke-linecap:butt;stroke-linejoin:miter;stroke-miterlimit:4;stroke-dasharray:4.58301069, 4.58301069;stroke-dashoffset:0;stroke-opacity:1" />
          <path
             id="path26843"
             d="M 224.15034,698.35077 L 224.15034,824.71591"
             style="fill:none;fill-rule:evenodd;stroke:#000000;stroke-width:4.58301115;stroke-linecap:butt;stroke-linejoin:miter;stroke-miterlimit:4;stroke-dasharray:4.58301069, 4.58301069;stroke-dashoffset:0;stroke-opacity:1" />
        </g>
        <text
           xml:space="preserve"
           style="font-size:11.8549099px;font-style:normal;font-weight:bold;writing-mode:lr-tb;fill:#000000;fill-opacity:1;stroke:none;stroke-width:1px;stroke-linecap:butt;stroke-linejoin:miter;stroke-opacity:1;font-family:Sans;-inkscape-font-specification:Sans"
           x="49.841755"
           y="745.49701"
           id="text21766"><tspan
             sodipodi:role="line"
             id="tspan21768"
             x="49.841755"
             y="745.49701">Theory</tspan></text>
        <text
           xml:space="preserve"
           style="font-size:11.8549099px;font-style:normal;font-weight:bold;writing-mode:lr-tb;fill:#000000;fill-opacity:1;stroke:none;stroke-width:1px;stroke-linecap:butt;stroke-linejoin:miter;stroke-opacity:1;font-family:Sans;-inkscape-font-specification:Sans"
           x="154.85571"
           y="745.49701"
           id="text21770"><tspan
             sodipodi:role="line"
             id="tspan21772"
             x="154.85571"
             y="745.49701">Practice</tspan></text>
      </g>
    </g>
    <text
       xml:space="preserve"
       style="font-size:24px;font-style:normal;font-weight:bold;writing-mode:lr-tb;fill:#000000;fill-opacity:1;stroke:none;font-family:Sans;-inkscape-font-specification:Sans;text-anchor:middle;text-align:center"
       x="236.36478"
       y="733.46454"
       id="text18596"><tspan
         sodipodi:role="line"
         id="tspan18598"
         x="56.692909"
         y="733.46454">Recovered Unified Process</tspan><tspan
         sodipodi:role="line"
         x="56.692909"
         y="763.46454"
         id="tspan4727">Views</tspan></text>
    <text
       xml:space="preserve"
       style="font-size:40px;font-style:normal;font-weight:normal;line-height:125%;letter-spacing:0px;word-spacing:0px;fill:#000000;fill-opacity:1;stroke:none;font-family:Sans"
       x="347.24408"
       y="1031.1024"
       id="text4729"
       sodipodi:linespacing="125%"><tspan
         sodipodi:role="line"
         id="tspan4731"
         x="347.24408"
         y="1031.1024"
         style="font-size:20px;font-weight:bold;-inkscape-font-specification:Sans Bold">[ICSM10]</tspan></text>
  </g>
</svg>
