<?xml version="1.0" encoding="UTF-8" standalone="no"?>
<!-- Created with Inkscape (http://www.inkscape.org/) -->
<svg
   xmlns:dc="http://purl.org/dc/elements/1.1/"
   xmlns:cc="http://creativecommons.org/ns#"
   xmlns:rdf="http://www.w3.org/1999/02/22-rdf-syntax-ns#"
   xmlns:svg="http://www.w3.org/2000/svg"
   xmlns="http://www.w3.org/2000/svg"
   xmlns:sodipodi="http://sodipodi.sourceforge.net/DTD/sodipodi-0.dtd"
   xmlns:inkscape="http://www.inkscape.org/namespaces/inkscape"
   width="453.5433"
   height="340.15747"
   id="svg2"
   sodipodi:version="0.32"
   inkscape:version="0.46"
   sodipodi:docname="slide217-global-and-local.svg"
   version="1.0"
   inkscape:output_extension="org.inkscape.output.svg.inkscape">
  <defs
     id="defs4">
    <inkscape:perspective
       sodipodi:type="inkscape:persp3d"
       inkscape:vp_x="0 : 170.07874 : 1"
       inkscape:vp_y="0 : 1000 : 0"
       inkscape:vp_z="453.5433 : 170.07874 : 1"
       inkscape:persp3d-origin="226.77165 : 113.38582 : 1"
       id="perspective27692" />
  </defs>
  <sodipodi:namedview
     id="base"
     pagecolor="#ffffff"
     bordercolor="#666666"
     borderopacity="1.0"
     gridtolerance="10000"
     guidetolerance="8.8"
     objecttolerance="10"
     inkscape:pageopacity="0.0"
     inkscape:pageshadow="2"
     inkscape:zoom="1.540463"
     inkscape:cx="191.71264"
     inkscape:cy="264.34836"
     inkscape:document-units="mm"
     inkscape:current-layer="layer1"
     inkscape:window-width="1912"
     inkscape:window-height="1147"
     inkscape:window-x="0"
     inkscape:window-y="45"
     width="12.8cm"
     height="9.6cm"
     units="cm"
     showgrid="true"
     grid_units="mm"
     inkscape:object-paths="false"
     inkscape:grid-points="true"
     inkscape:grid-bbox="true"
     inkscape:guide-points="true"
     showguides="true"
     inkscape:guide-bbox="true">
    <sodipodi:guide
       orientation="vertical"
       position="56.476527"
       id="guide3573" />
    <sodipodi:guide
       orientation="horizontal"
       position="11.035643"
       id="guide3579" />
    <sodipodi:guide
       orientation="horizontal"
       position="24.018753"
       id="guide3886" />
    <sodipodi:guide
       orientation="horizontal"
       position="285.62841"
       id="guide3988" />
    <sodipodi:guide
       orientation="horizontal"
       position="303.15561"
       id="guide4081" />
    <inkscape:grid
       id="GridFromPre046Settings"
       type="xygrid"
       originx="0px"
       originy="0px"
       spacingx="2mm"
       spacingy="2mm"
       color="#0000ff"
       empcolor="#0000ff"
       opacity="0.2"
       empopacity="0.4"
       empspacing="5" />
  </sodipodi:namedview>
  <metadata
     id="metadata7">
    <rdf:RDF>
      <cc:Work
         rdf:about="">
        <dc:format>image/svg+xml</dc:format>
        <dc:type
           rdf:resource="http://purl.org/dc/dcmitype/StillImage" />
      </cc:Work>
    </rdf:RDF>
  </metadata>
  <g
     inkscape:label="Layer 1"
     inkscape:groupmode="layer"
     id="layer1"
     transform="translate(4.149475e-6,-698.0315)">
    <g
       id="g5434"
       transform="matrix(0.1173245,0,0,0.1173245,155.00906,1322.1363)">
      <path
         id="path5426"
         d="M -421.69808,-4417.6956 C -417.72211,-4417.6956 -416.11815,-4284.8268 -405.48552,-4231.828 C -397.17406,-4190.3989 -499.50875,-4194.335 -527.07928,-4183.3408 C -585.59667,-4160.0062 -682.6316,-4175.2597 -745.94809,-4175.2597 C -813.02995,-4175.2597 -818.90435,-4195.3824 -818.90435,-4256.0716 C -818.90435,-4302.9866 -821.39788,-4351.1839 -810.7981,-4393.452 C -794.70858,-4457.6112 -791.85376,-4470.6773 -721.62934,-4482.3452 C -676.39304,-4489.8612 -583.99312,-4466.2506 -543.29184,-4450.0204 C -504.8998,-4434.7111 -464.32591,-4434.6941 -421.69808,-4417.6956 z"
         style="fill:#ffd42a;fill-rule:evenodd;stroke:#000000;stroke-width:1.00154614px;stroke-linecap:butt;stroke-linejoin:miter;stroke-opacity:1" />
      <path
         id="path5428"
         d="M -518.97305,-4328.8024 C -491.79914,-4317.9665 -478.4418,-4226.7827 -478.4418,-4183.3408 C -478.4418,-4153.5858 -628.69305,-4189.5441 -632.46058,-4191.422 C -673.27692,-4211.7672 -624.65669,-4304.2574 -608.14179,-4320.7212 C -587.24617,-4341.5523 -542.20549,-4333.4345 -518.97305,-4328.8024 z"
         style="fill:#222b00;fill-rule:evenodd;stroke:#000000;stroke-width:1.00154614px;stroke-linecap:butt;stroke-linejoin:miter;stroke-opacity:1" />
      <path
         id="path5430"
         d="M -656.77938,-4353.046 C -625.67603,-4384.0532 -710.06761,-4264.1528 -754.05434,-4264.1528 C -814.7468,-4264.1528 -750.78555,-4372.4671 -737.84184,-4385.3708 C -711.09941,-4412.0306 -663.36952,-4366.1857 -656.77938,-4353.046 z"
         style="fill:#ddff55;fill-rule:evenodd;stroke:#000000;stroke-width:1.00154614px;stroke-linecap:butt;stroke-linejoin:miter;stroke-opacity:1" />
      <path
         id="path5432"
         d="M -364.95427,-4445.9797 C -325.57748,-4436.166 -456.44658,-4504.8645 -527.07928,-4575.279 C -577.69498,-4625.7382 -600.49859,-4682.1809 -616.24802,-4744.9841 C -622.21956,-4768.7964 -686.53997,-4629.0784 -705.41684,-4591.4413 C -734.27665,-4533.9001 -771.31058,-4516.6781 -827.0106,-4494.467 C -891.80321,-4468.63 -777.24785,-4421.1753 -729.73559,-4397.4926 C -687.22278,-4376.3019 -626.99862,-4381.3302 -575.71677,-4381.3302 C -507.88622,-4381.3302 -472.76537,-4405.5737 -405.48552,-4405.5737 C -373.51731,-4405.5737 -392.05344,-4400.9541 -364.95427,-4445.9797 z"
         style="fill:#6c6753;fill-rule:evenodd;stroke:#000000;stroke-width:1.00154614px;stroke-linecap:butt;stroke-linejoin:miter;stroke-opacity:1" />
    </g>
    <g
       id="g5471"
       transform="matrix(0.1173245,0,0,0.1173245,167.33472,1344.8914)">
      <path
         id="path5459"
         d="M 101.89206,-4684.5406 C 112.42512,-4661.3086 107.07354,-4571.6853 107.07354,-4524.5406 C 107.07354,-4493.259 101.89206,-4469.3337 101.89206,-4438.8263 C 101.89206,-4378.3827 54.479276,-4386.1839 8.6241385,-4398.8263 C -36.767367,-4411.3409 -98.334035,-4398.8263 -146.82234,-4398.8263 C -180.4942,-4398.8263 -207.46855,-4404.5406 -240.09018,-4404.5406 C -254.66716,-4404.5406 -277.27242,-4499.9896 -281.54258,-4518.8263 C -291.47245,-4562.6296 -279.83568,-4583.4987 -271.17946,-4621.6835 C -264.21491,-4652.406 -258.26241,-4687.3571 -240.09018,-4707.3978 C -214.54009,-4735.5748 -212.76246,-4783.2494 -188.27466,-4810.2549 C -165.92873,-4834.8984 -158.63249,-4860.0876 -136.45922,-4884.5406 C -120.97139,-4901.6208 -104.11298,-4926.3889 -89.825258,-4947.3978 C -64.809169,-4984.182 -39.698323,-4955.5949 -22.46514,-4930.2549 C -3.2061401,-4901.9361 9.7692089,-4867.6188 29.350385,-4838.8263 C 47.045295,-4812.8073 53.151582,-4780.6154 65.621225,-4753.1121 C 77.932636,-4725.9576 82.62844,-4711.0959 101.89206,-4684.5406 z"
         style="fill:#6f918a;fill-rule:evenodd;stroke:#000000;stroke-width:0.95224524px;stroke-linecap:butt;stroke-linejoin:miter;stroke-opacity:1" />
      <path
         id="path5461"
         d="M 117.43666,-4633.1121 C 121.35028,-4650.3762 -12.013788,-4844.3459 -32.828263,-4890.2549 C -68.006172,-4967.8444 -53.554418,-4911.7979 -53.554418,-4850.2549 C -53.554418,-4825.825 -76.456008,-4771.1711 -84.643697,-4753.1121 C -102.18863,-4714.4145 -112.93078,-4673.423 -136.45922,-4638.8263 C -168.02519,-4592.4111 -208.94568,-4614.4949 -245.27174,-4644.5406 C -276.89103,-4670.6933 -331.50022,-4686.0772 -291.9057,-4718.8263 C -255.2435,-4749.15 -222.90823,-4783.4892 -188.27466,-4821.6835 C -158.20014,-4854.8501 -151.58244,-4909.2567 -141.64078,-4953.1121 C -132.46571,-4993.5856 -137.49666,-5009.6829 -105.36994,-5027.3978 C -83.84728,-5039.2655 -48.705279,-4985.9817 -38.009825,-4970.2549 C -18.693517,-4941.8519 -0.34346401,-4910.0342 13.8057,-4878.8263 C 27.323479,-4849.0111 37.092214,-4821.7506 50.07654,-4793.1121 C 63.778666,-4762.8903 78.497917,-4736.1393 91.528942,-4707.3978 C 107.82307,-4671.4589 126.75047,-4684.4691 117.43666,-4633.1121 z"
         style="fill:#ff5599;fill-rule:evenodd;stroke:#000000;stroke-width:0.95224524px;stroke-linecap:butt;stroke-linejoin:miter;stroke-opacity:1" />
      <path
         id="path5463"
         d="M 24.168823,-4695.9692 C 6.4453491,-4751.1985 -36.437302,-4750.3544 -48.372857,-4684.5406 C -55.17101,-4647.0552 -17.971636,-4661.6835 13.8057,-4661.6835 C 41.843785,-4661.6835 36.688792,-4661.4512 24.168823,-4695.9692 z"
         style="fill:#2b0000;fill-rule:evenodd;stroke:#000000;stroke-width:0.95224524px;stroke-linecap:butt;stroke-linejoin:miter;stroke-opacity:1" />
      <path
         id="path5465"
         d="M -6.9204554,-4404.5406 C 14.84894,-4404.5406 -27.321171,-4529.537 -38.009825,-4553.1121 C -68.798871,-4621.0213 -136.46004,-4495.9673 -146.82234,-4473.1121 C -150.27669,-4465.493 -153.73103,-4457.874 -157.18538,-4450.2549 C -186.33652,-4385.9583 -90.265133,-4398.8263 -63.917542,-4398.8263 C -33.082975,-4398.8263 -44.620367,-4390.682 -6.9204554,-4404.5406 z"
         style="fill:#2b0000;fill-rule:evenodd;stroke:#000000;stroke-width:0.95224524px;stroke-linecap:butt;stroke-linejoin:miter;stroke-opacity:1" />
    </g>
    <g
       id="g5440"
       transform="matrix(0.1173245,0,0,0.1173245,257.40654,1267.1451)">
      <path
         id="path5410"
         d="M -816.20326,-3820.6137 C -820.16694,-3820.6137 -821.76592,-3687.7445 -832.3657,-3634.7456 C -840.65154,-3593.3164 -738.6328,-3597.2525 -711.14739,-3586.2583 C -652.81072,-3562.9236 -556.07542,-3578.1771 -492.95444,-3578.1771 C -426.07972,-3578.1771 -420.22346,-3598.2999 -420.22346,-3658.9893 C -420.22346,-3705.9044 -417.73763,-3754.1018 -428.30468,-3796.37 C -444.34452,-3860.5294 -447.19052,-3873.5955 -517.1981,-3885.2635 C -562.29468,-3892.7795 -654.4093,-3869.1688 -694.98495,-3852.9386 C -733.25843,-3837.6292 -773.70702,-3837.6122 -816.20326,-3820.6137 z"
         style="fill:#e9afaf;fill-rule:evenodd;stroke:#000000;stroke-width:1px;stroke-linecap:butt;stroke-linejoin:miter;stroke-opacity:1" />
      <path
         id="path5412"
         d="M -719.22861,-3731.7203 C -746.31865,-3720.8843 -759.63471,-3629.7003 -759.63471,-3586.2583 C -759.63471,-3556.5032 -609.84737,-3592.4616 -606.09153,-3594.3395 C -565.40122,-3614.6847 -613.87135,-3707.1752 -630.33519,-3723.639 C -651.16633,-3744.4702 -696.06794,-3736.3524 -719.22861,-3731.7203 z"
         style="fill:#c87137;fill-rule:evenodd;stroke:#000000;stroke-width:1px;stroke-linecap:butt;stroke-linejoin:miter;stroke-opacity:1" />
      <path
         id="path5414"
         d="M -581.84786,-3755.9639 C -612.85514,-3786.9712 -528.72413,-3667.0705 -484.87322,-3667.0705 C -424.36817,-3667.0705 -488.13192,-3775.3851 -501.03566,-3788.2888 C -527.69552,-3814.9487 -575.27797,-3769.1037 -581.84786,-3755.9639 z"
         style="fill:#2b1100;fill-rule:evenodd;stroke:#000000;stroke-width:1px;stroke-linecap:butt;stroke-linejoin:miter;stroke-opacity:1" />
      <path
         id="path5408"
         d="M -872.7718,-3848.8979 C -912.02698,-3839.0841 -781.56206,-3907.7828 -711.14739,-3978.1975 C -660.68801,-4028.6568 -637.95482,-4085.0997 -622.25397,-4147.9031 C -616.30088,-4171.7154 -552.17915,-4031.9971 -533.36054,-3994.3599 C -504.58984,-3936.8185 -467.67027,-3919.5965 -412.14224,-3897.3853 C -347.5497,-3871.5482 -461.75133,-3824.0934 -509.11688,-3800.4106 C -551.4984,-3779.2199 -611.53666,-3784.2482 -662.66007,-3784.2482 C -730.28121,-3784.2482 -765.29366,-3808.4918 -832.3657,-3808.4918 C -864.23521,-3808.4918 -845.7563,-3803.8721 -872.7718,-3848.8979 z"
         style="fill:#ff0000;fill-rule:evenodd;stroke:#000000;stroke-width:1px;stroke-linecap:butt;stroke-linejoin:miter;stroke-opacity:1" />
    </g>
    <g
       id="g5446"
       transform="matrix(0.1173245,0,0,0.1173245,279.21341,1263.3526)">
      <path
         id="path5404"
         d="M -1527.3506,-3933.7508 C -1579.7839,-3973.0757 -1559.6755,-3805.343 -1559.6755,-3739.8015 C -1559.6755,-3668.0814 -1625.4762,-3578.7525 -1543.5131,-3537.771 C -1502.5011,-3517.265 -1413.9216,-3529.6898 -1365.7262,-3529.6898 C -1290.5579,-3529.6898 -1198.9123,-3534.4197 -1139.4521,-3570.0959 C -1098.4077,-3594.7225 -1114.482,-3736.896 -1123.2896,-3772.1264 C -1137.4791,-3828.8843 -1145.1519,-3888.5818 -1163.6957,-3925.6696 C -1183.0361,-3964.3504 -1242.044,-3974.1569 -1284.914,-3974.1569 C -1332.5408,-3974.1569 -1381.383,-3986.4051 -1430.376,-3974.1569 C -1465.1236,-3965.47 -1487.4424,-3941.7324 -1527.3506,-3933.7508 z"
         style="fill:#552200;fill-rule:evenodd;stroke:#000000;stroke-width:1px;stroke-linecap:butt;stroke-linejoin:miter;stroke-opacity:1" />
      <path
         id="path5406"
         d="M -1373.8075,-3521.6085 C -1393.7193,-3516.6306 -1389.9699,-3643.1737 -1389.9699,-3675.1517 C -1389.9699,-3737.5978 -1312.9222,-3750.8441 -1268.7516,-3739.8015 C -1221.8331,-3728.0719 -1212.1831,-3658.8607 -1212.1831,-3618.5832 C -1212.1831,-3561.7932 -1187.3646,-3545.9959 -1252.5892,-3529.6898 C -1290.1908,-3520.2893 -1334.3675,-3521.6085 -1373.8075,-3521.6085 z"
         style="fill:#ffcc00;fill-rule:evenodd;stroke:#000000;stroke-width:1px;stroke-linecap:butt;stroke-linejoin:miter;stroke-opacity:1" />
      <path
         id="path5402"
         d="M -1389.9699,-4143.8625 C -1443.1031,-4166.0321 -1491.7898,-4122.8548 -1543.5131,-4071.1315 C -1588.4842,-4026.1604 -1615.4828,-3983.7607 -1640.4877,-3933.7508 C -1663.2711,-3888.1841 -1668.1006,-3849.7403 -1616.2441,-3836.7761 C -1566.1547,-3824.2538 -1519.2017,-3820.6137 -1462.7009,-3820.6137 C -1413.4499,-3820.6137 -1361.6071,-3817.6029 -1317.2389,-3828.6949 C -1269.5888,-3840.6074 -1272.1568,-3918.859 -1260.6704,-3941.832 C -1257.8302,-3947.5124 -1294.2886,-3836.7761 -1204.1018,-3836.7761 C -1145.7186,-3836.7761 -1112.3761,-3837.8589 -1082.8835,-3877.1822 C -1063.4255,-3903.1263 -1104.7192,-4001.6657 -1115.2084,-4022.6442 C -1147.7402,-4087.7078 -1206.5274,-4087.0928 -1260.6704,-4127.7001 C -1287.6433,-4147.9297 -1357.2251,-4143.8625 -1389.9699,-4143.8625 z"
         style="fill:#ff6600;fill-rule:evenodd;stroke:#000000;stroke-width:1px;stroke-linecap:butt;stroke-linejoin:miter;stroke-opacity:1" />
    </g>
    <g
       id="g5451"
       transform="matrix(0.1173245,0,0,0.1173245,276.36905,1278.5226)">
      <path
         id="path5420"
         d="M -2097.1429,-3941.9235 C -2108.7589,-3918.6915 -2102.8571,-3829.0682 -2102.8571,-3781.9235 C -2102.8571,-3750.6419 -2097.1429,-3726.7166 -2097.1429,-3696.2092 C -2097.1429,-3635.7656 -2044.8554,-3643.5668 -1994.2857,-3656.2092 C -1944.2273,-3668.7238 -1876.3307,-3656.2092 -1822.8571,-3656.2092 C -1785.7233,-3656.2092 -1755.9756,-3661.9235 -1720,-3661.9235 C -1703.9243,-3661.9235 -1678.9949,-3757.3725 -1674.2857,-3776.2092 C -1663.3349,-3820.0125 -1676.1681,-3840.8816 -1685.7143,-3879.0664 C -1693.3949,-3909.7889 -1699.9594,-3944.74 -1720,-3964.7807 C -1748.177,-3992.9577 -1750.1374,-4040.6323 -1777.1429,-4067.6378 C -1801.7863,-4092.2813 -1809.8327,-4117.4705 -1834.2857,-4141.9235 C -1851.3659,-4159.0037 -1869.9576,-4183.7718 -1885.7143,-4204.7807 C -1913.3024,-4241.5649 -1940.995,-4212.9778 -1960,-4187.6378 C -1981.2391,-4159.319 -1995.5485,-4125.0017 -2017.1429,-4096.2092 C -2036.6571,-4070.1902 -2043.3912,-4037.9983 -2057.1429,-4010.495 C -2070.7201,-3983.3405 -2075.8987,-3968.4788 -2097.1429,-3941.9235 z"
         style="fill:#ffff00;fill-rule:evenodd;stroke:#000000;stroke-width:1px;stroke-linecap:butt;stroke-linejoin:miter;stroke-opacity:1" />
      <path
         id="path5418"
         d="M -2114.2857,-3890.495 C -2118.6017,-3907.7591 -1971.5259,-4101.7288 -1948.5714,-4147.6378 C -1909.7767,-4225.2273 -1925.7143,-4169.1808 -1925.7143,-4107.6378 C -1925.7143,-4083.2079 -1900.4581,-4028.554 -1891.4286,-4010.495 C -1872.0798,-3971.7974 -1860.2332,-3930.8059 -1834.2857,-3896.2092 C -1799.4743,-3849.794 -1754.3466,-3871.8778 -1714.2857,-3901.9235 C -1679.4155,-3928.0762 -1619.1917,-3943.4601 -1662.8571,-3976.2092 C -1703.2887,-4006.5329 -1738.9485,-4040.8721 -1777.1429,-4079.0664 C -1810.3095,-4112.233 -1817.6076,-4166.6396 -1828.5714,-4210.495 C -1838.6898,-4250.9685 -1833.1416,-4267.0658 -1868.5714,-4284.7807 C -1892.3069,-4296.6484 -1931.062,-4243.3646 -1942.8571,-4227.6378 C -1964.1594,-4199.2348 -1984.3961,-4167.4171 -2000,-4136.2092 C -2014.9076,-4106.394 -2025.6807,-4079.1335 -2040,-4050.495 C -2055.1109,-4020.2732 -2071.3435,-3993.5222 -2085.7143,-3964.7807 C -2103.6837,-3928.8418 -2124.5571,-3941.852 -2114.2857,-3890.495 z"
         style="fill:#808000;fill-rule:evenodd;stroke:#000000;stroke-width:1px;stroke-linecap:butt;stroke-linejoin:miter;stroke-opacity:1" />
      <path
         id="path5422"
         d="M -2011.4286,-3953.3521 C -1991.8829,-4008.5814 -1944.5913,-4007.7373 -1931.4286,-3941.9235 C -1923.9315,-3904.4381 -1964.9555,-3919.0664 -2000,-3919.0664 C -2030.9208,-3919.0664 -2025.2358,-3918.8341 -2011.4286,-3953.3521 z"
         style="fill:#2b0000;fill-rule:evenodd;stroke:#000000;stroke-width:1px;stroke-linecap:butt;stroke-linejoin:miter;stroke-opacity:1" />
      <path
         id="path5424"
         d="M -1977.1429,-3661.9235 C -2001.1505,-3661.9235 -1954.6447,-3786.9199 -1942.8571,-3810.495 C -1908.9025,-3878.4042 -1834.2848,-3753.3502 -1822.8571,-3730.495 C -1819.0476,-3722.8759 -1815.2381,-3715.2569 -1811.4286,-3707.6378 C -1779.2803,-3643.3412 -1885.2292,-3656.2092 -1914.2857,-3656.2092 C -1948.2905,-3656.2092 -1935.5669,-3648.0649 -1977.1429,-3661.9235 z"
         style="fill:#2b0000;fill-rule:evenodd;stroke:#000000;stroke-width:1px;stroke-linecap:butt;stroke-linejoin:miter;stroke-opacity:1" />
    </g>
    <g
       id="g5485"
       transform="matrix(0.1538315,0,0,0.1538315,257.35853,1785.056)">
      <path
         transform="translate(1175.8176,711.14718)"
         d="M 1196.0206,-4192.3496 A 593.96967,598.01031 0 1 1 8.0812378,-4192.3496 A 593.96967,598.01031 0 1 1 1196.0206,-4192.3496 z"
         sodipodi:ry="598.01031"
         sodipodi:rx="593.96967"
         sodipodi:cy="-4192.3496"
         sodipodi:cx="602.0509"
         id="path5481"
         style="fill:#245599;fill-opacity:1;stroke:#000000;stroke-width:6.69999981;stroke-miterlimit:4;stroke-dasharray:none;stroke-opacity:1"
         sodipodi:type="arc" />
      <path
         id="path5483"
         d="M 1571.7974,-3885.2636 C 1548.9653,-3850.3538 1491.8627,-3821.0526 1442.4978,-3796.3702 C 1367.8734,-3759.058 1494.4504,-3780.2078 1547.5537,-3780.2078 C 1619.6613,-3780.2078 1601.5039,-3769.282 1636.4471,-3699.3956 C 1663.1168,-3646.0563 1674.7886,-3635.7781 1725.3406,-3610.5022 C 1767.086,-3589.6294 1800.8489,-3566.3929 1822.3152,-3537.7712 C 1848.7519,-3502.5223 1926.08,-3513.2047 1959.6959,-3521.6087 C 2006.3895,-3533.2821 2049.3612,-3472.0923 2072.833,-3440.7965 C 2100.8654,-3403.4201 2090.5913,-3355.0947 2072.833,-3319.5782 C 2049.5276,-3272.9674 2027.6909,-3234.03 1992.0208,-3198.3599 C 1969.8464,-3176.1854 2046.2564,-3095.637 2056.6706,-3085.2228 C 2098.3163,-3043.5771 2102.6085,-3009.9424 2056.6706,-2964.0045 C 1990.9801,-2898.314 2096.98,-2988.1757 2129.4016,-3012.4918 C 2176.4788,-3047.7997 2185.5023,-3100.9174 2226.3762,-3141.7914 C 2258.3712,-3173.7863 2269.6193,-3247.9361 2299.1072,-3287.2533 C 2318.5935,-3313.2351 2307.1884,-3381.8242 2307.1884,-3416.5529 C 2307.1884,-3460.6526 2272.8749,-3503.407 2242.5387,-3521.6087 C 2193.2417,-3551.1869 2146.3324,-3533.1542 2097.0767,-3570.096 C 2061.6678,-3596.6527 2074.1596,-3665.6223 2080.9143,-3699.3956 C 2085.7207,-3723.4277 2201.3533,-3663.4197 2210.2138,-3658.9895 C 2269.2706,-3629.4611 2248.5643,-3715.699 2242.5387,-3739.8017 C 2234.7829,-3770.825 2174.2126,-3786.8319 2161.7265,-3836.7763 C 2148.6486,-3889.0878 2130.7895,-3916.8945 2080.9143,-3941.8322 C 2041.3585,-3961.6101 2000.7004,-3980.0684 1959.6959,-3990.3195 C 1899.6386,-4005.3339 1876.3184,-4017.8991 1862.7213,-3949.9134 C 1849.3579,-3883.0961 1834.5199,-3900.4367 1773.8279,-3885.2636 C 1726.7955,-3873.5055 1671.9845,-3877.1824 1620.2847,-3877.1824 C 1593.0157,-3877.1824 1609.3489,-3875.8758 1571.7974,-3885.2636 z"
         style="fill:#4bf44e;fill-opacity:1;fill-rule:evenodd;stroke:#000000;stroke-width:1px;stroke-linecap:butt;stroke-linejoin:miter;stroke-opacity:1" />
    </g>
    <g
       id="g5499"
       transform="matrix(8.2172049e-2,0,0,8.2172049e-2,55.812471,1276.3837)">
      <path
         d="M 1196.0206,-4192.3496 A 593.96967,598.01031 0 1 1 8.0812378,-4192.3496 A 593.96967,598.01031 0 1 1 1196.0206,-4192.3496 z"
         sodipodi:ry="598.01031"
         sodipodi:rx="593.96967"
         sodipodi:cy="-4192.3496"
         sodipodi:cx="602.0509"
         id="path5477"
         style="fill:#245599;fill-opacity:1;stroke:#000000;stroke-width:6.69999981;stroke-miterlimit:4;stroke-dasharray:none;stroke-opacity:1"
         sodipodi:type="arc" />
      <path
         id="path5479"
         d="M 395.9798,-4596.4108 C 373.1477,-4561.501 316.0451,-4532.1998 266.68027,-4507.5174 C 192.05582,-4470.2052 318.6328,-4491.355 371.73614,-4491.355 C 443.84377,-4491.355 425.68633,-4480.4292 460.62956,-4410.5428 C 487.29922,-4357.2035 498.97101,-4346.9253 549.52298,-4321.6494 C 591.26846,-4300.7766 625.03136,-4277.5401 646.49763,-4248.9184 C 672.93428,-4213.6695 750.26246,-4224.3519 783.87837,-4232.7559 C 830.57195,-4244.4293 873.54362,-4183.2395 897.01546,-4151.9437 C 925.04781,-4114.5673 914.77372,-4066.2419 897.01546,-4030.7254 C 873.71005,-3984.1146 851.8733,-3945.1772 816.20326,-3909.5071 C 794.02879,-3887.3326 870.4388,-3806.7842 880.85302,-3796.37 C 922.49873,-3754.7243 926.79091,-3721.0896 880.85302,-3675.1517 C 815.16248,-3609.4612 921.16243,-3699.3229 953.584,-3723.639 C 1000.6612,-3758.9469 1009.6847,-3812.0646 1050.5586,-3852.9386 C 1082.5536,-3884.9335 1093.8017,-3959.0833 1123.2896,-3998.4005 C 1142.7759,-4024.3823 1131.3708,-4092.9714 1131.3708,-4127.7001 C 1131.3708,-4171.7998 1097.0573,-4214.5542 1066.7211,-4232.7559 C 1017.4241,-4262.3341 970.51486,-4244.3014 921.25912,-4281.2432 C 885.85027,-4307.7999 898.34202,-4376.7695 905.09668,-4410.5428 C 909.90311,-4434.5749 1025.5357,-4374.5669 1034.3962,-4370.1367 C 1093.453,-4340.6083 1072.7467,-4426.8462 1066.7211,-4450.9489 C 1058.9653,-4481.9722 998.39498,-4497.9791 985.90888,-4547.9235 C 972.83102,-4600.235 954.97196,-4628.0417 905.09668,-4652.9794 C 865.5409,-4672.7573 824.88283,-4691.2156 783.87837,-4701.4667 C 723.821,-4716.4811 700.50087,-4729.0463 686.90373,-4661.0606 C 673.54028,-4594.2433 658.70236,-4611.5839 598.01031,-4596.4108 C 550.97792,-4584.6527 496.1669,-4588.3296 444.46712,-4588.3296 C 417.1981,-4588.3296 433.5313,-4587.023 395.9798,-4596.4108 z"
         style="fill:#4bf44e;fill-opacity:1;fill-rule:evenodd;stroke:#000000;stroke-width:1px;stroke-linecap:butt;stroke-linejoin:miter;stroke-opacity:1" />
      <path
         id="path5497"
         d="M 549.52298,-4406.5022 C 543.37825,-4421.1486 562.969,-4438.0969 569.72604,-4454.9895 C 576.71617,-4472.4648 600.85658,-4490.1606 614.17275,-4503.4768 C 621.85504,-4511.1591 646.60638,-4519.6393 656.59915,-4519.6393 C 673.71725,-4519.6393 693.04243,-4527.7205 711.14739,-4527.7205 C 730.94758,-4527.7205 753.79333,-4529.7408 775.79715,-4529.7408 C 790.92547,-4529.7408 813.73002,-4512.9079 826.30478,-4503.4768 C 836.54549,-4495.7963 843.96026,-4482.5716 848.52814,-4471.1519 C 854.04127,-4457.3691 855.57884,-4446.8268 854.58905,-4442.8677 C 851.76951,-4431.5895 831.86916,-4448.9286 820.24387,-4448.9286 C 793.35681,-4448.9286 758.73044,-4444.888 735.39105,-4444.888 C 710.92547,-4444.888 673.08087,-4422.9839 656.59915,-4406.5022 C 642.36965,-4392.2727 624.99407,-4384.9986 610.13214,-4370.1367 C 591.73354,-4351.7381 657.14327,-4362.0555 670.74129,-4362.0555 C 718.48044,-4362.0555 766.85093,-4360.0352 814.18295,-4360.0352 C 841.45273,-4360.0352 887.81027,-4310.6515 905.09668,-4293.3651 C 935.91051,-4262.5513 963.98402,-4234.4777 993.9901,-4204.4717 C 1020.6306,-4177.8312 1026.0009,-4135.5266 1048.5383,-4105.4767 C 1060.5831,-4089.417 1072.782,-4070.3203 1072.782,-4054.9691 C 1072.782,-4054.0841 1023.685,-4065.0706 989.94949,-4065.0706 C 937.30544,-4065.0706 923.51384,-4055.0863 878.83271,-4032.7457 C 858.08542,-4022.3721 848.69295,-3982.7325 842.46722,-3964.0554 C 836.3892,-3945.8213 846.8383,-3911.197 858.62966,-3899.4056 C 868.74835,-3889.2869 864.69058,-3914.7796 864.69058,-3939.8117 C 864.69058,-3962.9786 862.67027,-3986.4738 862.67027,-4008.5021 C 862.67027,-4024.309 846.33913,-4062.6018 838.42661,-4073.1518 C 817.68128,-4100.8123 805.51623,-4132.9776 783.87837,-4160.0249 C 762.26297,-4187.0442 744.37432,-4217.7117 721.24892,-4240.8372 C 718.55518,-4243.5309 715.86144,-4246.2246 713.1677,-4248.9184 C 695.75886,-4266.3272 687.83844,-4284.3492 670.74129,-4301.4463 C 655.71929,-4316.4683 633.39112,-4330.3005 614.17275,-4335.7915 C 598.50814,-4340.2671 587.94485,-4353.9652 571.74634,-4358.0148 C 556.2534,-4361.8881 544.41092,-4364.0758 529.31993,-4364.0758"
         style="fill:none;fill-rule:evenodd;stroke:#000000;stroke-width:10;stroke-linecap:butt;stroke-linejoin:miter;stroke-miterlimit:4;stroke-dasharray:10, 10;stroke-dashoffset:0;stroke-opacity:1" />
    </g>
    <g
       id="g11628"
       transform="matrix(9.7124402e-2,1.870433e-2,-1.870433e-2,9.7124402e-2,162.79762,1070.7391)"
       inkscape:transform-center-x="-90.691314"
       inkscape:transform-center-y="-3.1200775">
      <path
         id="path5392"
         d="M -315.14486,-2546.9351 C -292.5243,-2546.9351 -218.32139,-2546.8664 -185.83947,-2561.211 C -175.87203,-2565.6127 -185.83947,-2686.4455 -185.83947,-2696.831 C -185.83947,-2748.4037 -196.66872,-2792.1932 -210.08423,-2839.589 C -227.26968,-2900.3039 -282.29146,-2941.9249 -307.06328,-2996.6229 C -328.20532,-3043.3061 -409.51801,-3077.5579 -452.53186,-3096.5535 C -516.39478,-3124.7563 -591.8536,-3128.9588 -662.65313,-3139.3809 C -720.58334,-3147.9085 -789.73623,-3139.3809 -848.52965,-3139.3809 C -916.33402,-3139.3809 -1035.3569,-3081.4379 -1082.8957,-3039.4502 C -1144.803,-2984.7719 -1210.9434,-2962.4144 -1260.6906,-2903.8301 C -1315.4419,-2839.3527 -1400.035,-2804.1221 -1422.3224,-2725.3826 C -1443.4155,-2650.8622 -1470.8119,-2591.1561 -1470.8119,-2504.1078 C -1470.8119,-2417.6856 -1490.02,-2331.504 -1462.7303,-2247.1434 C -1443.0158,-2186.2 -1392.714,-2121.0618 -1349.5881,-2082.9717 C -1288.6979,-2029.1916 -1235.3892,-1986.1434 -1163.7115,-1954.4894 C -1108.0039,-1929.8881 -953.76945,-1933.0758 -897.01917,-1933.0758 C -803.67734,-1933.0758 -713.38473,-1940.2137 -622.2452,-1940.2137 C -550.16346,-1940.2137 -478.90593,-1982.5709 -412.12392,-1997.3168 C -357.99158,-2009.2697 -305.58133,-2023.2811 -258.57375,-2054.42 C -200.87245,-2092.6427 -174.08692,-2156.2863 -161.59471,-2211.4539 C -151.43398,-2256.3252 -153.51312,-2300.6264 -153.51312,-2347.0739 C -153.51312,-2389.4168 -152.75276,-2429.3709 -161.59471,-2468.4183 C -170.64601,-2508.3901 -239.14061,-2511.2456 -274.73693,-2511.2456 C -342.39022,-2511.2456 -322.17616,-2466.563 -298.98169,-2425.5909 C -276.95289,-2386.6779 -274.73693,-2346.1672 -274.73693,-2297.1086 C -274.73693,-2255.7668 -294.85431,-2218.7447 -315.14486,-2182.9023 C -339.48409,-2139.908 -362.1925,-2110.6939 -404.04233,-2082.9717 C -437.17025,-2061.027 -491.63787,-2047.2822 -533.34773,-2047.2822 C -572.24854,-2047.2822 -645.40726,-2027.892 -686.89789,-2018.7305 C -735.52466,-2007.9934 -783.43901,-1997.3168 -832.36647,-1997.3168 C -883.134,-1997.3168 -927.63063,-2004.4548 -977.83504,-2004.4548 C -1027.1144,-2004.4548 -1071.5615,-2025.8684 -1123.3036,-2025.8684 C -1170.529,-2025.8684 -1231.7306,-2064.5312 -1260.6906,-2090.1095 C -1298.0153,-2123.0758 -1327.7837,-2172.9372 -1349.5881,-2211.4539 C -1371.5907,-2250.3206 -1370.7017,-2300.3226 -1381.9144,-2339.936 C -1392.0073,-2375.5932 -1381.8604,-2418.2145 -1389.996,-2454.1424 C -1398.0683,-2489.7908 -1389.317,-2535.658 -1381.9144,-2568.3489 C -1372.8874,-2608.2133 -1341.5065,-2632.0122 -1341.5065,-2675.4174 C -1341.5065,-2710.4694 -1294.5489,-2755.6601 -1284.9353,-2789.6238 C -1278.595,-2812.0235 -1214.7695,-2867.4952 -1196.0379,-2889.5544 C -1166.9973,-2923.7538 -1110.7544,-2957.7414 -1074.8141,-2989.485 C -1042.3589,-3018.1503 -987.502,-3037.3157 -945.50869,-3046.5881 C -889.16811,-3059.0285 -853.69138,-3082.2776 -791.95853,-3082.2776 C -738.74563,-3082.2776 -678.49293,-3089.4156 -622.2452,-3089.4156 C -578.54337,-3089.4156 -532.81753,-3076.8072 -492.93979,-3068.0019 C -444.43072,-3057.2907 -405.64967,-2992.3243 -387.87916,-2960.9334 C -365.7221,-2921.7938 -359.10998,-2887.8458 -347.47122,-2846.727 C -337.62572,-2811.9436 -332.91132,-2773.8743 -323.22645,-2739.6585 C -313.65579,-2705.846 -315.14486,-2668.4796 -315.14486,-2632.59 C -315.14486,-2600.4133 -306.42933,-2585.4243 -315.14486,-2546.9351 z"
         style="fill:#808000;fill-rule:evenodd;stroke:#000000;stroke-width:0.93984586px;stroke-linecap:butt;stroke-linejoin:miter;stroke-opacity:1" />
      <path
         id="path5394"
         d="M -331.30804,-2546.9351 C -331.30804,-2524.5926 -238.3204,-2568.4361 -218.16582,-2604.0384 C -202.20081,-2632.2399 -210.45817,-2691.0142 -218.16582,-2718.2448 C -229.28929,-2757.5431 -246.38439,-2789.5054 -266.65534,-2825.3133 C -288.3572,-2863.6487 -301.08185,-2907.54 -323.22645,-2946.6576 C -347.91354,-2990.2663 -356.9864,-3015.4173 -404.04233,-3046.5881 C -445.53861,-3074.0762 -501.08237,-3078.7222 -549.5109,-3089.4156 C -596.99858,-3099.9012 -652.99228,-3096.5535 -703.06107,-3096.5535 C -749.42972,-3096.5535 -808.71847,-3085.5831 -848.52965,-3068.0019 C -893.83621,-3047.9938 -943.77442,-3040.2161 -993.99822,-3018.0366 C -1040.6923,-2997.4158 -1088.1952,-2982.4055 -1131.3852,-2953.7955 C -1177.9312,-2922.9624 -1225.5051,-2894.6048 -1252.6091,-2846.727 C -1273.3886,-2810.0206 -1313.1001,-2782.6992 -1333.4249,-2746.7964 C -1356.755,-2705.5847 -1386.7442,-2658.3542 -1398.0776,-2618.3141 C -1408.0318,-2583.1467 -1422.3224,-2563.6989 -1422.3224,-2518.3835 C -1422.3224,-2473.7025 -1417.6315,-2430.4319 -1406.1591,-2389.9014 C -1393.8385,-2346.3734 -1394.0031,-2296.9897 -1381.9144,-2254.2813 C -1367.581,-2203.6423 -1323.5154,-2162.1687 -1309.1801,-2111.5233 C -1297.7574,-2071.1677 -1195.9828,-2054.4079 -1163.7115,-2047.2822 C -1108.2684,-2035.0399 -1066.9249,-2014.4817 -1010.1614,-2004.4548 C -950.77054,-1993.9636 -902.9357,-1983.041 -840.44806,-1983.041 C -794.65239,-1983.041 -748.85673,-1983.041 -703.06107,-1983.041 C -647.60904,-1983.041 -598.91185,-1986.4088 -549.5109,-1997.3168 C -488.09249,-2010.8785 -425.86379,-2016.2318 -371.71598,-2040.1443 C -318.54532,-2063.6252 -287.89213,-2071.3526 -242.41058,-2111.5233 C -203.30615,-2146.0614 -210.08423,-2194.4699 -210.08423,-2240.0054 C -210.08423,-2280.4535 -210.08423,-2320.9016 -210.08423,-2361.3498 C -210.08423,-2411.1939 -254.73828,-2422.9594 -298.98169,-2432.7288 C -320.0627,-2437.3836 -315.14486,-2336.6716 -315.14486,-2325.6603 C -315.14486,-2286.693 -321.50968,-2253.2085 -331.30804,-2218.5918 C -345.86831,-2167.1515 -370.9375,-2147.5565 -420.20551,-2125.799 C -465.41801,-2105.8325 -509.54961,-2092.807 -557.59249,-2075.8338 C -602.39926,-2060.0039 -644.97462,-2051.5203 -686.89789,-2033.0063 C -727.18198,-2015.2163 -784.09041,-2018.7305 -832.36647,-2018.7305 C -887.94017,-2018.7305 -936.2822,-2029.1846 -985.91663,-2040.1443 C -1026.8689,-2049.1868 -1067.3354,-2052.7687 -1107.1405,-2061.5579 C -1164.6776,-2074.2625 -1187.7321,-2079.2541 -1236.4458,-2111.5233 C -1280.3662,-2140.6171 -1312.8571,-2167.3409 -1325.3433,-2211.4539 C -1336.4319,-2250.6288 -1341.5065,-2293.7012 -1341.5065,-2332.7981 C -1341.5065,-2371.3523 -1354.5646,-2421.759 -1365.7512,-2461.2804 C -1376.1845,-2498.14 -1358.3458,-2537.4085 -1349.5881,-2568.3489 C -1338.5762,-2607.2529 -1319.5935,-2638.6278 -1309.1801,-2675.4174 C -1298.226,-2714.1174 -1277.03,-2753.7787 -1244.5274,-2782.4859 C -1207.3089,-2815.3584 -1185.5494,-2854.3201 -1155.63,-2889.5544 C -1119.289,-2932.3509 -1061.1129,-2957.2084 -1010.1614,-2975.2091 C -965.7574,-2990.8967 -921.21016,-3007.3534 -880.856,-3025.1745 C -848.35104,-3039.5291 -790.52433,-3039.4502 -751.55059,-3039.4502 C -698.76758,-3039.4502 -657.30586,-3057.8988 -606.08202,-3046.5881 C -563.596,-3037.2069 -525.70977,-3034.1948 -484.8582,-3025.1745 C -435.86366,-3014.3561 -400.38628,-2973.283 -371.71598,-2939.5196 C -346.33977,-2909.6356 -339.38963,-2862.8178 -339.38963,-2825.3133 C -339.38963,-2787.2455 -323.22645,-2752.2459 -323.22645,-2711.1069 C -323.22645,-2670.6588 -323.22645,-2630.2106 -323.22645,-2589.7625 C -323.22645,-2575.2899 -328.61418,-2561.211 -331.30804,-2546.9351 z"
         style="fill:#ffff00;fill-rule:evenodd;stroke:#000000;stroke-width:0.93984586px;stroke-linecap:butt;stroke-linejoin:miter;stroke-opacity:1" />
      <path
         transform="translate(-40.406102,-32.324881)"
         d="M -88.893433,-2454.8875 A 105.05586,96.974648 0 1 1 -299.00516,-2454.8875 A 105.05586,96.974648 0 1 1 -88.893433,-2454.8875 z"
         sodipodi:ry="96.974648"
         sodipodi:rx="105.05586"
         sodipodi:cy="-2454.8875"
         sodipodi:cx="-193.9493"
         id="path5396"
         style="fill:#ffff00;stroke:#000000;stroke-width:6.69999981;stroke-miterlimit:4;stroke-dasharray:none;stroke-opacity:1"
         sodipodi:type="arc" />
      <path
         id="path5400"
         d="M -205.71429,-2570.495 C -212.41644,-2572.1705 -42.386495,-2581.9235 114.28571,-2581.9235 C 239.49692,-2581.9235 352.37789,-2570.495 480,-2570.495 C 596.63322,-2570.495 703.43176,-2616.2092 822.85714,-2616.2092 C 892.55485,-2616.2092 1009.6589,-2637.8191 1085.7143,-2650.495 C 1182.2434,-2666.5831 1287.2644,-2673.3521 1382.8571,-2673.3521 C 1460.1507,-2673.3521 1535.6172,-2696.2092 1611.4286,-2696.2092 C 1712.7909,-2696.2092 1731.2168,-2645.8393 1748.5714,-2559.0664 C 1763.0559,-2486.6438 1728.0043,-2401.3564 1680,-2353.3521 C 1632.3329,-2305.685 1497.1225,-2353.3521 1440,-2353.3521 C 1338.5757,-2353.3521 1237.0363,-2387.6378 1131.4286,-2387.6378 C 1055.2381,-2387.6378 979.04762,-2387.6378 902.85714,-2387.6378 C 827.22955,-2387.6378 754.28497,-2399.0664 674.28571,-2399.0664 C 587.91796,-2399.0664 511.79259,-2387.6378 422.85714,-2387.6378 C 346.66667,-2387.6378 270.47619,-2387.6378 194.28571,-2387.6378 C 109.12037,-2387.6378 9.8496389,-2402.3183 -68.571428,-2421.9235 C -128.2122,-2436.8337 -205.71429,-2407.0298 -205.71429,-2479.0664 C -205.71429,-2486.6854 -205.71429,-2494.3045 -205.71429,-2501.9235"
         style="fill:#6c5353;fill-rule:evenodd;stroke:#000000;stroke-width:1px;stroke-linecap:butt;stroke-linejoin:miter;stroke-opacity:1" />
      <path
         id="path11626"
         d="M -1235.593,-2546.5477 C -1261.1229,-2444.4283 -1070.8911,-2678.7103 -980.6294,-2732.8673 C -884.82602,-2790.3493 -805.64823,-2866.5393 -725.66576,-2850.5428 C -612.63403,-2827.9365 -840.25444,-2644.6107 -951.21052,-2644.6107 C -1031.7408,-2644.6107 -1108.1112,-2572.5075 -1108.1112,-2497.5163 C -1108.1112,-2412.7231 -1155.7781,-2338.7961 -1098.3049,-2262.1652 C -1039.8381,-2184.2094 -805.48703,-2463.0781 -774.69723,-2487.71 C -696.61402,-2550.1765 -607.99023,-2603.313 -607.99023,-2448.4848 C -607.99023,-2346.9697 -623.50383,-2312.6235 -500.121,-2281.7778"
         style="fill:none;fill-rule:evenodd;stroke:#0000ff;stroke-width:2.5;stroke-linecap:butt;stroke-linejoin:miter;stroke-miterlimit:4;stroke-dasharray:none;stroke-opacity:1" />
    </g>
    <text
       xml:space="preserve"
       style="font-size:20px;font-style:normal;font-weight:normal;fill:#000000;fill-opacity:1;stroke:none;stroke-width:1px;stroke-linecap:butt;stroke-linejoin:miter;stroke-opacity:1;font-family:Bitstream Vera Sans"
       x="187.60593"
       y="26.615374"
       id="text27731"
       transform="translate(-4.149475e-6,698.0315)"><tspan
         sodipodi:role="line"
         id="tspan27733"
         x="187.60593"
         y="26.615374">Local analysis</tspan><tspan
         sodipodi:role="line"
         x="187.60593"
         y="51.615372"
         id="tspan27735"> * a time unit</tspan><tspan
         sodipodi:role="line"
         x="187.60593"
         y="76.615372"
         id="tspan27737"> * an iteration</tspan><tspan
         sodipodi:role="line"
         x="187.60593"
         y="101.61537"
         id="tspan27739"> * short term topics</tspan></text>
    <text
       xml:space="preserve"
       style="font-size:20px;font-style:normal;font-weight:normal;fill:#000000;fill-opacity:1;stroke:none;stroke-width:1px;stroke-linecap:butt;stroke-linejoin:miter;stroke-opacity:1;font-family:Bitstream Vera Sans"
       x="206.43144"
       y="216.81793"
       id="text27741"
       transform="translate(-4.149475e-6,698.0315)"><tspan
         sodipodi:role="line"
         id="tspan27743"
         x="206.43144"
         y="216.81793">Global Analysis</tspan><tspan
         sodipodi:role="line"
         x="206.43144"
         y="241.81793"
         id="tspan27745"> * relate local topics</tspan><tspan
         sodipodi:role="line"
         x="206.43144"
         y="266.81793"
         id="tspan27747">   globally</tspan><tspan
         sodipodi:role="line"
         x="206.43144"
         y="291.81793"
         id="tspan27749"> * Recurring or dominant</tspan><tspan
         sodipodi:role="line"
         x="206.43144"
         y="316.81793"
         id="tspan27751">   topics</tspan></text>
  </g>
</svg>
