<?xml version="1.0" encoding="UTF-8" standalone="no"?>
<!-- Created with Inkscape (http://www.inkscape.org/) -->
<svg
   xmlns:dc="http://purl.org/dc/elements/1.1/"
   xmlns:cc="http://creativecommons.org/ns#"
   xmlns:rdf="http://www.w3.org/1999/02/22-rdf-syntax-ns#"
   xmlns:svg="http://www.w3.org/2000/svg"
   xmlns="http://www.w3.org/2000/svg"
   xmlns:xlink="http://www.w3.org/1999/xlink"
   xmlns:sodipodi="http://sodipodi.sourceforge.net/DTD/sodipodi-0.dtd"
   xmlns:inkscape="http://www.inkscape.org/namespaces/inkscape"
   width="453.5433"
   height="340.15747"
   id="svg2"
   sodipodi:version="0.32"
   inkscape:version="0.46"
   sodipodi:docname="slide-1800-MSR.svg"
   version="1.0"
   inkscape:output_extension="org.inkscape.output.svg.inkscape">
  <defs
     id="defs4">
    <linearGradient
       inkscape:collect="always"
       xlink:href="#linearGradient3372"
       id="linearGradient10873"
       gradientUnits="userSpaceOnUse"
       gradientTransform="matrix(0.7479875,0,0,0.7479875,610.40879,-736.0766)"
       x1="-316.71429"
       y1="-123.3521"
       x2="55.285706"
       y2="-123.3521" />
    <linearGradient
       id="linearGradient3372">
      <stop
         style="stop-color:#2000ff;stop-opacity:1;"
         offset="0"
         id="stop3374" />
      <stop
         id="stop3380"
         offset="0.5"
         style="stop-color:#1f00ff;stop-opacity:1;" />
      <stop
         style="stop-color:#1f00ff;stop-opacity:1;"
         offset="0.75"
         id="stop3382" />
      <stop
         id="stop3384"
         offset="0.875"
         style="stop-color:#ff0016;stop-opacity:1;" />
      <stop
         style="stop-color:#ff0000;stop-opacity:1;"
         offset="1"
         id="stop3376" />
    </linearGradient>
    <linearGradient
       inkscape:collect="always"
       xlink:href="#linearGradient3372"
       id="linearGradient10871"
       gradientUnits="userSpaceOnUse"
       gradientTransform="matrix(0.7479874,0,0,0.7479874,476.84079,-434.03807)"
       x1="-316.71429"
       y1="-123.3521"
       x2="55.285706"
       y2="-123.3521" />
    <inkscape:perspective
       sodipodi:type="inkscape:persp3d"
       inkscape:vp_x="0 : 170.07874 : 1"
       inkscape:vp_y="0 : 1000 : 0"
       inkscape:vp_z="453.5433 : 170.07874 : 1"
       inkscape:persp3d-origin="226.77165 : 113.38582 : 1"
       id="perspective16933" />
    <linearGradient
       inkscape:collect="always"
       xlink:href="#linearGradient3372"
       id="linearGradient21171"
       gradientUnits="userSpaceOnUse"
       gradientTransform="matrix(0.7479874,0,0,0.7479874,476.84079,-434.03807)"
       x1="-316.71429"
       y1="-123.3521"
       x2="55.285706"
       y2="-123.3521" />
    <linearGradient
       inkscape:collect="always"
       xlink:href="#linearGradient3372"
       id="linearGradient21173"
       gradientUnits="userSpaceOnUse"
       gradientTransform="matrix(0.7479875,0,0,0.7479875,610.40879,-736.0766)"
       x1="-316.71429"
       y1="-123.3521"
       x2="55.285706"
       y2="-123.3521" />
    <linearGradient
       inkscape:collect="always"
       xlink:href="#linearGradient3372"
       id="linearGradient21352"
       gradientUnits="userSpaceOnUse"
       gradientTransform="matrix(0.7479874,0,0,0.7479874,476.84079,-434.03807)"
       x1="-316.71429"
       y1="-123.3521"
       x2="55.285706"
       y2="-123.3521" />
    <linearGradient
       inkscape:collect="always"
       xlink:href="#linearGradient3372"
       id="linearGradient21354"
       gradientUnits="userSpaceOnUse"
       gradientTransform="matrix(0.7479875,0,0,0.7479875,610.40879,-736.0766)"
       x1="-316.71429"
       y1="-123.3521"
       x2="55.285706"
       y2="-123.3521" />
    <linearGradient
       inkscape:collect="always"
       xlink:href="#linearGradient3372"
       id="linearGradient21531"
       gradientUnits="userSpaceOnUse"
       gradientTransform="matrix(0.7479874,0,0,0.7479874,476.84079,-434.03807)"
       x1="-316.71429"
       y1="-123.3521"
       x2="55.285706"
       y2="-123.3521" />
    <linearGradient
       inkscape:collect="always"
       xlink:href="#linearGradient3372"
       id="linearGradient21533"
       gradientUnits="userSpaceOnUse"
       gradientTransform="matrix(0.7479875,0,0,0.7479875,610.40879,-736.0766)"
       x1="-316.71429"
       y1="-123.3521"
       x2="55.285706"
       y2="-123.3521" />
  </defs>
  <sodipodi:namedview
     id="base"
     pagecolor="#ffffff"
     bordercolor="#666666"
     borderopacity="1.0"
     gridtolerance="10000"
     guidetolerance="8.8"
     objecttolerance="10"
     inkscape:pageopacity="0.0"
     inkscape:pageshadow="2"
     inkscape:zoom="1.540463"
     inkscape:cx="182.62841"
     inkscape:cy="230.62125"
     inkscape:document-units="mm"
     inkscape:current-layer="layer1"
     inkscape:window-width="1240"
     inkscape:window-height="1167"
     inkscape:window-x="0"
     inkscape:window-y="25"
     width="12.8cm"
     height="9.6cm"
     units="cm"
     showgrid="true"
     grid_units="mm"
     inkscape:object-paths="false"
     inkscape:grid-points="true"
     inkscape:grid-bbox="true"
     inkscape:guide-points="true"
     showguides="true"
     inkscape:guide-bbox="true">
    <sodipodi:guide
       orientation="vertical"
       position="56.476527"
       id="guide3573" />
    <sodipodi:guide
       orientation="horizontal"
       position="11.035643"
       id="guide3579" />
    <sodipodi:guide
       orientation="horizontal"
       position="24.018753"
       id="guide3886" />
    <sodipodi:guide
       orientation="horizontal"
       position="285.62841"
       id="guide3988" />
    <sodipodi:guide
       orientation="horizontal"
       position="260.72463,301.11859"
       id="guide4081" />
    <inkscape:grid
       id="GridFromPre046Settings"
       type="xygrid"
       originx="0px"
       originy="0px"
       spacingx="2mm"
       spacingy="2mm"
       color="#0000ff"
       empcolor="#0000ff"
       opacity="0.2"
       empopacity="0.4"
       empspacing="5" />
  </sodipodi:namedview>
  <metadata
     id="metadata7">
    <rdf:RDF>
      <cc:Work
         rdf:about="">
        <dc:format>image/svg+xml</dc:format>
        <dc:type
           rdf:resource="http://purl.org/dc/dcmitype/StillImage" />
      </cc:Work>
    </rdf:RDF>
  </metadata>
  <g
     inkscape:label="Layer 1"
     inkscape:groupmode="layer"
     id="layer1"
     transform="translate(4.149475e-6,-698.0315)">
    <path
       id="path11225"
       d="M 255.12254,819.58868 L 418.14119,728.48982 L 240.947,807.44219 L 396.87789,643.46419 L 219.68369,819.58868 L 269.29807,637.39093 L 212.59593,813.51543 L 162.98156,613.09789 L 205.50817,813.51543 L 14.138433,661.68397 L 191.33263,813.51543 L -0.03709382,783.14916 L 198.42039,825.66201 L 255.12254,819.58868 z"
       style="fill:#ffff00;fill-rule:evenodd;stroke:#000000;stroke-width:0.92582065px;stroke-linecap:butt;stroke-linejoin:miter;stroke-opacity:1" />
    <path
       style="fill:#ffff00;fill-rule:evenodd;stroke:#000000;stroke-width:0.92582065px;stroke-linecap:butt;stroke-linejoin:miter;stroke-opacity:1"
       d="M 191.33264,831.73523 L 28.313979,922.83413 L 205.50818,843.88175 L 49.577289,1007.8598 L 226.77149,831.73523 L 177.15711,1013.933 L 233.85925,837.80849 L 283.47362,1038.2261 L 240.94701,837.80849 L 432.31674,989.63998 L 255.12255,837.80849 L 446.49227,868.17479 L 248.03479,825.66197 L 191.33264,831.73523 z"
       id="path10908" />
    <g
       id="g10646"
       transform="matrix(0.4308144,0,0,0.3691498,-82.37012,676.35425)">
      <g
         inkscape:export-ydpi="33.007736"
         inkscape:export-xdpi="33.007736"
         inkscape:export-filename="/home/abez/clip-art-so-far.png"
         transform="translate(-104.28571,235.71429)"
         id="g2446">
        <rect
           style="fill:#f2f2f2;fill-rule:evenodd;stroke:#000000;stroke-width:1px;stroke-linecap:butt;stroke-linejoin:miter;stroke-opacity:1"
           id="rect3316"
           width="220"
           height="300"
           x="440"
           y="332.36218" />
        <rect
           style="fill:#800000;fill-rule:evenodd;stroke:#000000;stroke-width:1px;stroke-linecap:butt;stroke-linejoin:miter;stroke-opacity:1"
           id="rect3318"
           width="100"
           height="20"
           x="460"
           y="412.36218" />
        <rect
           style="fill:#ffff00;fill-rule:evenodd;stroke:#000000;stroke-width:1px;stroke-linecap:butt;stroke-linejoin:miter;stroke-opacity:1"
           id="rect3320"
           width="140"
           height="20"
           x="500"
           y="432.36218" />
        <rect
           style="fill:#ffff00;fill-rule:evenodd;stroke:#000000;stroke-width:1px;stroke-linecap:butt;stroke-linejoin:miter;stroke-opacity:1"
           id="rect2426"
           width="140"
           height="20"
           x="500"
           y="452.36218" />
        <rect
           style="fill:#ffff00;fill-rule:evenodd;stroke:#000000;stroke-width:1px;stroke-linecap:butt;stroke-linejoin:miter;stroke-opacity:1"
           id="rect2428"
           width="140"
           height="20"
           x="500"
           y="472.36218" />
        <rect
           style="fill:#800000;fill-rule:evenodd;stroke:#000000;stroke-width:1px;stroke-linecap:butt;stroke-linejoin:miter;stroke-opacity:1"
           id="rect2430"
           width="100"
           height="20"
           x="460"
           y="492.36218" />
        <rect
           style="fill:#ffff00;fill-rule:evenodd;stroke:#000000;stroke-width:1px;stroke-linecap:butt;stroke-linejoin:miter;stroke-opacity:1"
           id="rect2432"
           width="100"
           height="20"
           x="500"
           y="512.36218" />
        <rect
           style="fill:#ff0000;fill-rule:evenodd;stroke:#000000;stroke-width:0.89620572px;stroke-linecap:butt;stroke-linejoin:miter;stroke-opacity:1"
           id="rect2434"
           width="79.903793"
           height="20.103794"
           x="459.94809"
           y="532.3103" />
        <rect
           style="fill:#0000ff;fill-rule:evenodd;stroke:#000000;stroke-width:0.75956446px;stroke-linecap:butt;stroke-linejoin:miter;stroke-opacity:1"
           id="rect2436"
           width="79.811867"
           height="20.240435"
           x="499.87979"
           y="552.24194" />
        <rect
           style="fill:#00ff00;fill-rule:evenodd;stroke:#000000;stroke-width:0.75956446px;stroke-linecap:butt;stroke-linejoin:miter;stroke-opacity:1"
           id="rect2438"
           width="79.811867"
           height="20.240435"
           x="520"
           y="572.36218" />
        <rect
           style="fill:#00ff00;fill-rule:evenodd;stroke:#000000;stroke-width:0.75956446px;stroke-linecap:butt;stroke-linejoin:miter;stroke-opacity:1"
           id="rect2440"
           width="79.811867"
           height="20.240435"
           x="520"
           y="592.36218" />
        <text
           xml:space="preserve"
           style="font-size:24px;font-style:normal;font-weight:bold;writing-mode:lr-tb;fill:#000000;fill-opacity:1;stroke:none;stroke-width:1px;stroke-linecap:butt;stroke-linejoin:miter;stroke-opacity:1;font-family:Sans;-inkscape-font-specification:Sans"
           x="464.28571"
           y="376.64789"
           id="text2442"><tspan
             sodipodi:role="line"
             id="tspan2444"
             x="464.28571"
             y="376.64789">Source Code</tspan></text>
      </g>
      <path
         inkscape:export-ydpi="33.007736"
         inkscape:export-xdpi="33.007736"
         inkscape:export-filename="/home/abez/clip-art-so-far.png"
         id="path2533"
         d="M 480.93392,651.14115 C 476.27419,648.45085 471.38765,646.47227 466.42252,645.1584 L 459.92356,656.41493 C 458.23919,656.09987 456.54561,655.86048 454.85277,655.733 L 451.50329,643.18828 C 440.95886,643.15859 430.55836,645.95193 421.43851,651.24411 L 424.79393,663.81097 C 423.39112,664.76879 422.03907,665.79859 420.73752,666.9148 L 409.481,660.41584 C 405.83287,664.03917 402.59854,668.18765 399.90514,672.85275 C 397.21319,677.51535 395.23625,682.39584 393.92239,687.36413 L 405.17892,693.86309 C 404.86299,695.54856 404.64721,697.23397 404.51913,698.92796 L 391.96631,702.29148 C 391.94055,712.8357 394.70431,723.24413 400,732.36218 L 412.56092,728.98464 C 413.51778,730.38698 414.5637,731.7479 415.67879,733.04914 L 409.17172,744.3197 C 412.79176,747.96203 416.95768,751.19162 421.61674,753.88153 C 426.28184,756.57492 431.15708,758.55044 436.12812,759.86427 L 442.61898,748.62178 C 444.30531,748.93796 446.01113,749.14749 447.70599,749.27565 L 451.0695,761.82847 C 461.60888,761.85168 472.00628,759.05784 481.12024,753.76453 L 477.76265,741.23385 C 479.16994,740.27363 480.52174,739.23552 481.82716,738.11598 L 493.05562,744.59873 C 496.70137,740.97675 499.93952,736.82444 502.63148,732.16183 C 505.32487,727.49672 507.30039,722.62148 508.61422,717.65044 L 497.38577,711.16769 C 497.70258,709.47754 497.92574,707.78746 498.05367,706.08878 L 510.58435,702.73119 C 510.61152,692.18425 507.83362,681.77272 502.53662,672.65239 L 489.99784,676.02401 C 489.03949,674.62041 487.99687,673.26171 486.87996,671.9595 L 493.37082,660.71701 C 489.74782,657.06945 485.5984,653.8342 480.93392,651.14115 z M 459.80015,687.74592 C 467.94623,692.44906 470.72986,702.88197 466.02671,711.02805 C 461.32356,719.17414 450.9047,721.96587 442.75861,717.26272 C 434.61253,712.55957 431.80677,702.1326 436.50991,693.98652 C 441.21306,685.84043 451.65406,683.04278 459.80015,687.74592 z"
         style="fill:#00ffff;fill-rule:evenodd;stroke:#000000;stroke-width:0.51862013px;stroke-linecap:butt;stroke-linejoin:miter;stroke-opacity:1" />
    </g>
    <g
       transform="matrix(0.4308144,0,0,0.3691498,-44.49936,704.69443)"
       id="g10679">
      <g
         id="g10681"
         transform="translate(-104.28571,235.71429)"
         inkscape:export-filename="/home/abez/clip-art-so-far.png"
         inkscape:export-xdpi="33.007736"
         inkscape:export-ydpi="33.007736">
        <rect
           y="332.36218"
           x="440"
           height="300"
           width="220"
           id="rect10683"
           style="fill:#f2f2f2;fill-rule:evenodd;stroke:#000000;stroke-width:1px;stroke-linecap:butt;stroke-linejoin:miter;stroke-opacity:1" />
        <rect
           y="412.36218"
           x="460"
           height="20"
           width="100"
           id="rect10685"
           style="fill:#800000;fill-rule:evenodd;stroke:#000000;stroke-width:1px;stroke-linecap:butt;stroke-linejoin:miter;stroke-opacity:1" />
        <rect
           y="432.36218"
           x="500"
           height="20"
           width="140"
           id="rect10687"
           style="fill:#ffff00;fill-rule:evenodd;stroke:#000000;stroke-width:1px;stroke-linecap:butt;stroke-linejoin:miter;stroke-opacity:1" />
        <rect
           y="452.36218"
           x="500"
           height="20"
           width="140"
           id="rect10689"
           style="fill:#ffff00;fill-rule:evenodd;stroke:#000000;stroke-width:1px;stroke-linecap:butt;stroke-linejoin:miter;stroke-opacity:1" />
        <rect
           y="472.36218"
           x="500"
           height="20"
           width="140"
           id="rect10691"
           style="fill:#ffff00;fill-rule:evenodd;stroke:#000000;stroke-width:1px;stroke-linecap:butt;stroke-linejoin:miter;stroke-opacity:1" />
        <rect
           y="492.36218"
           x="460"
           height="20"
           width="100"
           id="rect10693"
           style="fill:#800000;fill-rule:evenodd;stroke:#000000;stroke-width:1px;stroke-linecap:butt;stroke-linejoin:miter;stroke-opacity:1" />
        <rect
           y="512.36218"
           x="500"
           height="20"
           width="100"
           id="rect10695"
           style="fill:#ffff00;fill-rule:evenodd;stroke:#000000;stroke-width:1px;stroke-linecap:butt;stroke-linejoin:miter;stroke-opacity:1" />
        <rect
           y="532.3103"
           x="459.94809"
           height="20.103794"
           width="79.903793"
           id="rect10697"
           style="fill:#ff0000;fill-rule:evenodd;stroke:#000000;stroke-width:0.89620572px;stroke-linecap:butt;stroke-linejoin:miter;stroke-opacity:1" />
        <rect
           y="552.24194"
           x="499.87979"
           height="20.240435"
           width="79.811867"
           id="rect10699"
           style="fill:#0000ff;fill-rule:evenodd;stroke:#000000;stroke-width:0.75956446px;stroke-linecap:butt;stroke-linejoin:miter;stroke-opacity:1" />
        <rect
           y="572.36218"
           x="520"
           height="20.240435"
           width="79.811867"
           id="rect10701"
           style="fill:#00ff00;fill-rule:evenodd;stroke:#000000;stroke-width:0.75956446px;stroke-linecap:butt;stroke-linejoin:miter;stroke-opacity:1" />
        <rect
           y="592.36218"
           x="520"
           height="20.240435"
           width="79.811867"
           id="rect10703"
           style="fill:#00ff00;fill-rule:evenodd;stroke:#000000;stroke-width:0.75956446px;stroke-linecap:butt;stroke-linejoin:miter;stroke-opacity:1" />
        <text
           id="text10705"
           y="376.64789"
           x="464.28571"
           style="font-size:24px;font-style:normal;font-weight:bold;writing-mode:lr-tb;fill:#000000;fill-opacity:1;stroke:none;stroke-width:1px;stroke-linecap:butt;stroke-linejoin:miter;stroke-opacity:1;font-family:Sans;-inkscape-font-specification:Sans"
           xml:space="preserve"><tspan
             y="376.64789"
             x="464.28571"
             id="tspan10707"
             sodipodi:role="line">Source Code</tspan></text>
      </g>
      <path
         style="fill:#00ffff;fill-rule:evenodd;stroke:#000000;stroke-width:0.51862013px;stroke-linecap:butt;stroke-linejoin:miter;stroke-opacity:1"
         d="M 480.93392,651.14115 C 476.27419,648.45085 471.38765,646.47227 466.42252,645.1584 L 459.92356,656.41493 C 458.23919,656.09987 456.54561,655.86048 454.85277,655.733 L 451.50329,643.18828 C 440.95886,643.15859 430.55836,645.95193 421.43851,651.24411 L 424.79393,663.81097 C 423.39112,664.76879 422.03907,665.79859 420.73752,666.9148 L 409.481,660.41584 C 405.83287,664.03917 402.59854,668.18765 399.90514,672.85275 C 397.21319,677.51535 395.23625,682.39584 393.92239,687.36413 L 405.17892,693.86309 C 404.86299,695.54856 404.64721,697.23397 404.51913,698.92796 L 391.96631,702.29148 C 391.94055,712.8357 394.70431,723.24413 400,732.36218 L 412.56092,728.98464 C 413.51778,730.38698 414.5637,731.7479 415.67879,733.04914 L 409.17172,744.3197 C 412.79176,747.96203 416.95768,751.19162 421.61674,753.88153 C 426.28184,756.57492 431.15708,758.55044 436.12812,759.86427 L 442.61898,748.62178 C 444.30531,748.93796 446.01113,749.14749 447.70599,749.27565 L 451.0695,761.82847 C 461.60888,761.85168 472.00628,759.05784 481.12024,753.76453 L 477.76265,741.23385 C 479.16994,740.27363 480.52174,739.23552 481.82716,738.11598 L 493.05562,744.59873 C 496.70137,740.97675 499.93952,736.82444 502.63148,732.16183 C 505.32487,727.49672 507.30039,722.62148 508.61422,717.65044 L 497.38577,711.16769 C 497.70258,709.47754 497.92574,707.78746 498.05367,706.08878 L 510.58435,702.73119 C 510.61152,692.18425 507.83362,681.77272 502.53662,672.65239 L 489.99784,676.02401 C 489.03949,674.62041 487.99687,673.26171 486.87996,671.9595 L 493.37082,660.71701 C 489.74782,657.06945 485.5984,653.8342 480.93392,651.14115 z M 459.80015,687.74592 C 467.94623,692.44906 470.72986,702.88197 466.02671,711.02805 C 461.32356,719.17414 450.9047,721.96587 442.75861,717.26272 C 434.61253,712.55957 431.80677,702.1326 436.50991,693.98652 C 441.21306,685.84043 451.65406,683.04278 459.80015,687.74592 z"
         id="path10709"
         inkscape:export-filename="/home/abez/clip-art-so-far.png"
         inkscape:export-xdpi="33.007736"
         inkscape:export-ydpi="33.007736" />
    </g>
    <g
       id="g2575"
       inkscape:export-filename="/home/abez/clip-art-so-far.png"
       inkscape:export-xdpi="33.007736"
       inkscape:export-ydpi="33.007736"
       transform="matrix(0.5647745,0,0,0.4839355,107.06585,765.98278)">
      <path
         sodipodi:nodetypes="cccccc"
         id="path2565"
         d="M 380,482.36218 L 360,482.36218 L 350,502.36218 L 350,512.36218 L 360,532.36218 L 380,482.36218 z"
         style="fill:#800080;fill-rule:evenodd;stroke:#000000;stroke-width:1px;stroke-linecap:butt;stroke-linejoin:miter;stroke-opacity:1" />
      <path
         sodipodi:nodetypes="ccccc"
         id="path2559"
         d="M 600,422.36218 L 560,522.36218 L 360,522.36218 L 510,422.36218 L 600,422.36218 z"
         style="fill:#ff00ff;fill-rule:evenodd;stroke:#000000;stroke-width:1px;stroke-linecap:butt;stroke-linejoin:miter;stroke-opacity:1" />
      <path
         sodipodi:nodetypes="ccccccc"
         id="path2563"
         d="M 360,522.36218 L 360,492.36218 L 510,412.36218 L 590,402.36218 L 590,432.36218 L 550,522.36218 L 360,522.36218 z"
         style="fill:#b3b3b3;fill-rule:evenodd;stroke:#000000;stroke-width:1px;stroke-linecap:butt;stroke-linejoin:miter;stroke-opacity:1" />
      <path
         id="path2541"
         d="M 560,492.36218 L 560,482.36218 L 360,482.36218 L 360,492.36218 L 560,492.36218 z"
         style="fill:#800080;fill-rule:evenodd;stroke:#000000;stroke-width:1px;stroke-linecap:butt;stroke-linejoin:miter;stroke-opacity:1" />
      <path
         id="path2543"
         d="M 600,392.36218 L 560,482.36218 L 360,482.36218 L 510,392.36218 L 600,392.36218 z"
         style="fill:#ff00ff;fill-rule:evenodd;stroke:#000000;stroke-width:1px;stroke-linecap:butt;stroke-linejoin:miter;stroke-opacity:1" />
      <path
         id="path2545"
         d="M 600,392.36218 L 600,402.36218 L 560,492.36218 L 560,482.36218 L 600,392.36218 z"
         style="fill:#800080;fill-rule:evenodd;stroke:#000000;stroke-width:1px;stroke-linecap:butt;stroke-linejoin:miter;stroke-opacity:1" />
      <path
         id="path2557"
         d="M 560,532.36218 L 560,522.36218 L 360,522.36218 L 360,532.36218 L 560,532.36218 z"
         style="fill:#800080;fill-rule:evenodd;stroke:#000000;stroke-width:1px;stroke-linecap:butt;stroke-linejoin:miter;stroke-opacity:1" />
      <path
         sodipodi:nodetypes="ccccc"
         id="path2561"
         d="M 600,422.36218 L 600,432.36218 L 560,532.36218 L 560,522.36218 L 600,422.36218 z"
         style="fill:#800080;fill-rule:evenodd;stroke:#000000;stroke-width:1px;stroke-linecap:butt;stroke-linejoin:miter;stroke-opacity:1" />
      <text
         id="text2571"
         y="512.36218"
         x="370"
         style="font-size:21px;font-style:normal;font-weight:bold;writing-mode:lr-tb;fill:#000000;fill-opacity:1;stroke:none;stroke-width:1px;stroke-linecap:butt;stroke-linejoin:miter;stroke-opacity:1;font-family:Sans;-inkscape-font-specification:Sans"
         xml:space="preserve"><tspan
           y="512.36218"
           x="370"
           id="tspan2573"
           sodipodi:role="line">Documentation</tspan></text>
    </g>
    <g
       id="g10734"
       transform="matrix(0.3400478,0,0,0.2913751,415.37216,575.50606)">
      <g
         inkscape:export-ydpi="33.007736"
         inkscape:export-xdpi="33.007736"
         inkscape:export-filename="/home/abez/clip-art-so-far.png"
         transform="matrix(0.4127796,0.5096168,-0.5096168,0.4127796,198.88242,730.76089)"
         id="g3265">
        <rect
           style="fill:#c87137;fill-rule:evenodd;stroke:#000000;stroke-width:1px;stroke-linecap:butt;stroke-linejoin:miter;stroke-opacity:1"
           id="rect3257"
           width="485.71429"
           height="88.571426"
           x="-91.428574"
           y="549.50507" />
        <path
           style="fill:none;fill-rule:evenodd;stroke:#000000;stroke-width:1px;stroke-linecap:butt;stroke-linejoin:miter;stroke-opacity:1"
           d="M -54.285714,583.79075 C -29.732194,590.37111 20.526099,589.63656 54.285714,598.07647 C 86.432294,606.11311 129.55608,598.07647 162.85714,598.07647 C 192.59894,598.07647 223.60167,600.93361 254.28571,600.93361 C 274.43611,600.93361 295.28598,594.25497 314.28571,589.50504 C 324.49102,586.95371 335.19489,586.6479 345.71429,586.6479"
           id="path3259" />
        <path
           style="fill:none;fill-rule:evenodd;stroke:#000000;stroke-width:1px;stroke-linecap:butt;stroke-linejoin:miter;stroke-opacity:1"
           d="M -34.285714,560.93361 C -27.417952,559.21667 -7.6135626,563.79075 4.2857143,563.79075 C 21.294795,563.79075 37.335172,566.6479 54.285714,566.6479 C 69.47185,566.6479 82.626934,568.51429 97.142857,570.93361 C 114.22381,573.78044 132.749,569.50504 150,569.50504 C 168.03573,569.50504 185.87134,565.21933 204.28571,565.21933 C 209.54541,565.21933 214.81187,565.78321 220,566.6479"
           id="path3261" />
        <path
           style="fill:none;fill-rule:evenodd;stroke:#000000;stroke-width:1px;stroke-linecap:butt;stroke-linejoin:miter;stroke-opacity:1"
           d="M -40,609.50504 C -32.127157,609.50504 -14.050886,613.79075 -1.4285714,613.79075 C 14.932833,613.79075 33.928538,616.29075 50,619.50504 C 62.944348,622.09391 82.465578,619.60293 94.285714,616.6479 C 107.27518,613.40053 123.86256,618.07647 137.14286,618.07647 C 154.71264,618.07647 172.60315,618.07647 190,618.07647 C 193.33333,618.07647 196.66667,618.07647 200,618.07647"
           id="path3263" />
      </g>
      <g
         inkscape:export-ydpi="33.007736"
         inkscape:export-xdpi="33.007736"
         inkscape:export-filename="/home/abez/clip-art-so-far.png"
         transform="matrix(-0.4857463,0.4406209,0.4406209,0.4857463,-210.55989,695.07119)"
         id="g3271">
        <rect
           style="fill:#c87137;fill-rule:evenodd;stroke:#000000;stroke-width:1px;stroke-linecap:butt;stroke-linejoin:miter;stroke-opacity:1"
           id="rect3273"
           width="485.71429"
           height="88.571426"
           x="-91.428574"
           y="549.50507" />
        <path
           style="fill:none;fill-rule:evenodd;stroke:#000000;stroke-width:1px;stroke-linecap:butt;stroke-linejoin:miter;stroke-opacity:1"
           d="M -54.285714,583.79075 C -29.732194,590.37111 20.526099,589.63656 54.285714,598.07647 C 86.432294,606.11311 129.55608,598.07647 162.85714,598.07647 C 192.59894,598.07647 223.60167,600.93361 254.28571,600.93361 C 274.43611,600.93361 295.28598,594.25497 314.28571,589.50504 C 324.49102,586.95371 335.19489,586.6479 345.71429,586.6479"
           id="path3275" />
        <path
           style="fill:none;fill-rule:evenodd;stroke:#000000;stroke-width:1px;stroke-linecap:butt;stroke-linejoin:miter;stroke-opacity:1"
           d="M -34.285714,560.93361 C -27.417952,559.21667 -7.6135626,563.79075 4.2857143,563.79075 C 21.294795,563.79075 37.335172,566.6479 54.285714,566.6479 C 69.47185,566.6479 82.626934,568.51429 97.142857,570.93361 C 114.22381,573.78044 132.749,569.50504 150,569.50504 C 168.03573,569.50504 185.87134,565.21933 204.28571,565.21933 C 209.54541,565.21933 214.81187,565.78321 220,566.6479"
           id="path3277" />
        <path
           style="fill:none;fill-rule:evenodd;stroke:#000000;stroke-width:1px;stroke-linecap:butt;stroke-linejoin:miter;stroke-opacity:1"
           d="M -40,609.50504 C -32.127157,609.50504 -14.050886,613.79075 -1.4285714,613.79075 C 14.932833,613.79075 33.928538,616.29075 50,619.50504 C 62.944348,622.09391 82.465578,619.60293 94.285714,616.6479 C 107.27518,613.40053 123.86256,618.07647 137.14286,618.07647 C 154.71264,618.07647 172.60315,618.07647 190,618.07647 C 193.33333,618.07647 196.66667,618.07647 200,618.07647"
           id="path3279" />
      </g>
      <g
         inkscape:export-ydpi="33.007736"
         inkscape:export-xdpi="33.007736"
         inkscape:export-filename="/home/abez/clip-art-so-far.png"
         transform="translate(-380,290)"
         id="g3287">
        <rect
           style="fill:#ff7f2a;fill-rule:evenodd;stroke:#000000;stroke-width:1px;stroke-linecap:butt;stroke-linejoin:miter;stroke-opacity:1"
           id="rect3285"
           width="40"
           height="420"
           x="380"
           y="492.36218" />
        <path
           style="fill:#c8beb7;fill-rule:evenodd;stroke:#000000;stroke-width:1px;stroke-linecap:butt;stroke-linejoin:miter;stroke-opacity:1"
           d="M 260,592.36218 L 340,512.36218 L 460,512.36218 L 460,502.36218 L 480,502.36218 L 480,582.36218 L 460,582.36218 L 460,572.36218 L 320,572.36218 L 260,592.36218"
           id="path3281"
           sodipodi:nodetypes="cccccccccc" />
        <path
           style="fill:none;fill-rule:evenodd;stroke:#000000;stroke-width:1px;stroke-linecap:butt;stroke-linejoin:miter;stroke-opacity:1"
           d="M 460,512.36218 C 460,525.69552 460,539.02885 460,552.36218"
           id="path3283" />
      </g>
      <g
         inkscape:export-ydpi="33.007736"
         inkscape:export-xdpi="33.007736"
         inkscape:export-filename="/home/abez/clip-art-so-far.png"
         transform="translate(-440,330)"
         id="g3312">
        <path
           style="fill:#c8beb7;fill-rule:evenodd;stroke:#000000;stroke-width:1px;stroke-linecap:butt;stroke-linejoin:miter;stroke-opacity:1"
           d="M 240,642.36218 L 280,642.36218 L 270,652.36218 L 270,722.36218 L 260,742.36218 L 250,722.36218 L 250,652.36218 L 240,642.36218 z"
           id="path3292" />
        <path
           style="fill:none;fill-rule:evenodd;stroke:#000000;stroke-width:1px;stroke-linecap:butt;stroke-linejoin:miter;stroke-opacity:1"
           d="M 250,652.36218 L 270,662.36218 L 250,662.36218 L 270,672.36218 L 250,672.36218 L 270,682.36218 L 250,682.36218 L 270,692.36218 L 250,692.36218 L 270,702.36218 L 250,702.36218 L 270,712.36218 L 250,712.36218 L 270,722.36218 L 250,722.36218 L 250,722.36218"
           id="path3294" />
      </g>
      <path
         inkscape:export-ydpi="33.007736"
         inkscape:export-xdpi="33.007736"
         inkscape:export-filename="/home/abez/clip-art-so-far.png"
         sodipodi:nodetypes="cccccccccc"
         id="path3296"
         d="M 90,1012.3622 L 90,1017.3622 L 100,1017.3622 L 100,1092.3622 L 105,1107.3622 L 110,1092.3622 L 110,1017.3622 L 120,1017.3622 L 120,1012.3622 L 90,1012.3622 z"
         style="fill:#c8beb7;fill-rule:evenodd;stroke:#000000;stroke-width:1px;stroke-linecap:butt;stroke-linejoin:miter;stroke-opacity:1" />
      <g
         inkscape:export-ydpi="33.007736"
         inkscape:export-xdpi="33.007736"
         inkscape:export-filename="/home/abez/clip-art-so-far.png"
         transform="translate(-660,330)"
         id="g3306">
        <path
           style="fill:#ffdd55;fill-rule:evenodd;stroke:#000000;stroke-width:1px;stroke-linecap:butt;stroke-linejoin:miter;stroke-opacity:1"
           d="M 540,752.36218 L 520,772.36218 L 520,872.36218 L 540,892.36218 L 560,872.36218 L 560,772.36218 L 540,752.36218"
           id="path3300"
           sodipodi:nodetypes="ccccccc" />
        <rect
           style="fill:#ffd42a;fill-rule:evenodd;stroke:#000000;stroke-width:1px;stroke-linecap:butt;stroke-linejoin:miter;stroke-opacity:1"
           id="rect3298"
           width="60"
           height="20"
           x="510"
           y="742.36218" />
        <path
           style="fill:#c8beb7;fill-rule:evenodd;stroke:#000000;stroke-width:1px;stroke-linecap:butt;stroke-linejoin:miter;stroke-opacity:1"
           d="M 530,742.36218 L 530,562.36218 L 540,542.36218 L 550,562.36218 L 550,742.36218 L 530,742.36218 z"
           id="path3302" />
        <path
           style="fill:#917c6f;fill-rule:evenodd;stroke:#000000;stroke-width:1px;stroke-linecap:butt;stroke-linejoin:miter;stroke-opacity:1"
           d="M 540,542.36218 L 540,562.36218 L 550,562.36218 L 540,542.36218 z"
           id="path3304" />
      </g>
      <text
         inkscape:export-ydpi="33.007736"
         inkscape:export-xdpi="33.007736"
         inkscape:export-filename="/home/abez/clip-art-so-far.png"
         id="text8626"
         y="1232.3622"
         x="-160"
         style="font-size:24px;font-style:normal;font-weight:bold;writing-mode:lr-tb;fill:#000000;fill-opacity:1;stroke:none;stroke-width:1px;stroke-linecap:butt;stroke-linejoin:miter;stroke-opacity:1;font-family:Sans;-inkscape-font-specification:Sans"
         xml:space="preserve"><tspan
           y="1232.3622"
           x="-160"
           id="tspan8628"
           sodipodi:role="line">Build / Configuration</tspan></text>
    </g>
    <g
       id="g10879"
       transform="matrix(1.0001627,0,0,0.8570044,10.101266,177.7563)">
      <g
         transform="matrix(0.1437598,0,0,0.1437598,207.98416,796.0139)"
         id="g10843">
        <rect
           style="fill:#0000ff;fill-opacity:1;stroke:#000000;stroke-width:1.4959749;stroke-miterlimit:4;stroke-dasharray:none;stroke-dashoffset:0;stroke-opacity:1"
           id="rect3386"
           width="276.75537"
           height="53.427689"
           x="-536.50739"
           y="324.72202"
           transform="matrix(3.0094411e-2,-0.9995471,0.9995471,3.0094411e-2,0,0)"
           inkscape:export-filename="/home/abez/clip-art-so-far.png"
           inkscape:export-xdpi="33.007736"
           inkscape:export-ydpi="33.007736" />
        <g
           id="g3209"
           transform="translate(431.41804,441.55146)"
           inkscape:export-filename="/home/abez/clip-art-so-far.png"
           inkscape:export-xdpi="33.007736"
           inkscape:export-ydpi="33.007736">
          <path
             id="path3211"
             d="M -162.03814,125.01779 C -167.55814,125.01779 -172.03814,129.4978 -172.03814,135.01779 C -172.03814,140.53779 -167.55815,145.0178 -162.03814,145.01779 C -161.87085,145.01779 -161.70343,144.99467 -161.53814,144.98654 L -42.538136,144.98654 C -42.367776,144.99518 -42.210636,145.01779 -42.038136,145.01779 C -36.518136,145.01779 -32.038126,140.5378 -32.038136,135.01779 C -32.038136,129.49779 -36.518146,125.0178 -42.038136,125.01779 C -42.383136,125.01779 -42.702096,125.04613 -43.038136,125.08029 L -161.00689,125.08029 C -161.34292,125.04613 -161.69314,125.01779 -162.03814,125.01779 z M -152.03814,145.01779 L -152.03814,395.01779 L -152.03814,405.01779 L -151.00689,405.01779 C -146.36545,427.82532 -126.20957,445.01778 -102.03814,445.01779 C -77.866706,445.01779 -57.679576,427.82532 -53.038136,405.01779 L -52.038136,405.01779 L -52.038136,395.01779 L -52.038136,145.01779 L -152.03814,145.01779 z"
             style="fill:#00ffff;fill-opacity:1;fill-rule:nonzero;stroke:#000000;stroke-width:3.54299998;stroke-linecap:butt;stroke-linejoin:miter;stroke-miterlimit:4;stroke-dasharray:none;stroke-dashoffset:0;stroke-opacity:1" />
          <path
             id="path3213"
             d="M -115.16314,260.40561 C -128.24434,260.40561 -139.25455,263.89211 -151.53814,266.62436 L -151.53814,394.93686 L -151.53814,404.93686 L -150.50689,404.93686 C -145.86545,427.7444 -125.70957,444.93685 -101.53814,444.93686 C -77.366706,444.93687 -57.179576,427.74439 -52.538136,404.93686 L -51.538136,404.93686 L -51.538136,394.93686 L -51.538136,264.81186 C -63.102836,266.82853 -74.881776,266.46812 -86.881886,266.46811 C -97.294166,266.46811 -104.84606,260.40561 -115.16314,260.40561 z"
             style="fill:#ffff00;fill-opacity:1;fill-rule:nonzero;stroke:#000000;stroke-width:3.54299998;stroke-linecap:butt;stroke-linejoin:miter;stroke-miterlimit:4;stroke-dasharray:none;stroke-dashoffset:0;stroke-opacity:1" />
          <path
             transform="translate(-252.53814,-37.375644)"
             d="M 153.54319,340.70972 A 12.121831,12.626906 0 1 1 129.29953,340.70972 A 12.121831,12.626906 0 1 1 153.54319,340.70972 z"
             sodipodi:ry="12.626906"
             sodipodi:rx="12.121831"
             sodipodi:cy="340.70972"
             sodipodi:cx="141.42136"
             id="path3215"
             style="opacity:1;fill:#00ffff;fill-opacity:1;fill-rule:nonzero;stroke:#000000;stroke-width:3.54299998;stroke-linecap:butt;stroke-linejoin:miter;stroke-miterlimit:4;stroke-dasharray:none;stroke-dashoffset:0;stroke-opacity:1"
             sodipodi:type="arc" />
          <path
             transform="translate(-264.65997,7.5761408)"
             d="M 153.54319,340.70972 A 12.121831,12.626906 0 1 1 129.29953,340.70972 A 12.121831,12.626906 0 1 1 153.54319,340.70972 z"
             sodipodi:ry="12.626906"
             sodipodi:rx="12.121831"
             sodipodi:cy="340.70972"
             sodipodi:cx="141.42136"
             id="path3217"
             style="opacity:1;fill:#00ffff;fill-opacity:1;fill-rule:nonzero;stroke:#000000;stroke-width:3.54299998;stroke-linecap:butt;stroke-linejoin:miter;stroke-miterlimit:4;stroke-dasharray:none;stroke-dashoffset:0;stroke-opacity:1"
             sodipodi:type="arc" />
          <path
             transform="translate(-248.49753,47.982244)"
             d="M 153.54319,340.70972 A 12.121831,12.626906 0 1 1 129.29953,340.70972 A 12.121831,12.626906 0 1 1 153.54319,340.70972 z"
             sodipodi:ry="12.626906"
             sodipodi:rx="12.121831"
             sodipodi:cy="340.70972"
             sodipodi:cx="141.42136"
             id="path3219"
             style="opacity:1;fill:#00ffff;fill-opacity:1;fill-rule:nonzero;stroke:#000000;stroke-width:3.54299998;stroke-linecap:butt;stroke-linejoin:miter;stroke-miterlimit:4;stroke-dasharray:none;stroke-dashoffset:0;stroke-opacity:1"
             sodipodi:type="arc" />
        </g>
        <g
           id="g3221"
           transform="translate(595.6617,441.55146)"
           inkscape:export-filename="/home/abez/clip-art-so-far.png"
           inkscape:export-xdpi="33.007736"
           inkscape:export-ydpi="33.007736">
          <path
             id="path3223"
             d="M -162.03814,125.01779 C -167.55814,125.01779 -172.03814,129.4978 -172.03814,135.01779 C -172.03814,140.53779 -167.55815,145.0178 -162.03814,145.01779 C -161.87085,145.01779 -161.70343,144.99467 -161.53814,144.98654 L -42.538136,144.98654 C -42.367776,144.99518 -42.210636,145.01779 -42.038136,145.01779 C -36.518136,145.01779 -32.038126,140.5378 -32.038136,135.01779 C -32.038136,129.49779 -36.518146,125.0178 -42.038136,125.01779 C -42.383136,125.01779 -42.702096,125.04613 -43.038136,125.08029 L -161.00689,125.08029 C -161.34292,125.04613 -161.69314,125.01779 -162.03814,125.01779 z M -152.03814,145.01779 L -152.03814,395.01779 L -152.03814,405.01779 L -151.00689,405.01779 C -146.36545,427.82532 -126.20957,445.01778 -102.03814,445.01779 C -77.866706,445.01779 -57.679576,427.82532 -53.038136,405.01779 L -52.038136,405.01779 L -52.038136,395.01779 L -52.038136,145.01779 L -152.03814,145.01779 z"
             style="fill:#00ffff;fill-opacity:1;fill-rule:nonzero;stroke:#000000;stroke-width:3.54299998;stroke-linecap:butt;stroke-linejoin:miter;stroke-miterlimit:4;stroke-dasharray:none;stroke-dashoffset:0;stroke-opacity:1" />
          <path
             id="path3225"
             d="M -115.16314,260.40561 C -128.24434,260.40561 -139.25455,263.89211 -151.53814,266.62436 L -151.53814,394.93686 L -151.53814,404.93686 L -150.50689,404.93686 C -145.86545,427.7444 -125.70957,444.93685 -101.53814,444.93686 C -77.366706,444.93687 -57.179576,427.74439 -52.538136,404.93686 L -51.538136,404.93686 L -51.538136,394.93686 L -51.538136,264.81186 C -63.102836,266.82853 -74.881776,266.46812 -86.881886,266.46811 C -97.294166,266.46811 -104.84606,260.40561 -115.16314,260.40561 z"
             style="fill:#ff0000;fill-opacity:1;fill-rule:nonzero;stroke:#000000;stroke-width:3.54299998;stroke-linecap:butt;stroke-linejoin:miter;stroke-miterlimit:4;stroke-dasharray:none;stroke-dashoffset:0;stroke-opacity:1" />
          <path
             transform="translate(-252.53814,-37.375644)"
             d="M 153.54319,340.70972 A 12.121831,12.626906 0 1 1 129.29953,340.70972 A 12.121831,12.626906 0 1 1 153.54319,340.70972 z"
             sodipodi:ry="12.626906"
             sodipodi:rx="12.121831"
             sodipodi:cy="340.70972"
             sodipodi:cx="141.42136"
             id="path3227"
             style="opacity:1;fill:#00ffff;fill-opacity:1;fill-rule:nonzero;stroke:#000000;stroke-width:3.54299998;stroke-linecap:butt;stroke-linejoin:miter;stroke-miterlimit:4;stroke-dasharray:none;stroke-dashoffset:0;stroke-opacity:1"
             sodipodi:type="arc" />
          <path
             transform="translate(-264.65997,7.5761408)"
             d="M 153.54319,340.70972 A 12.121831,12.626906 0 1 1 129.29953,340.70972 A 12.121831,12.626906 0 1 1 153.54319,340.70972 z"
             sodipodi:ry="12.626906"
             sodipodi:rx="12.121831"
             sodipodi:cy="340.70972"
             sodipodi:cx="141.42136"
             id="path3229"
             style="opacity:1;fill:#00ffff;fill-opacity:1;fill-rule:nonzero;stroke:#000000;stroke-width:3.54299998;stroke-linecap:butt;stroke-linejoin:miter;stroke-miterlimit:4;stroke-dasharray:none;stroke-dashoffset:0;stroke-opacity:1"
             sodipodi:type="arc" />
          <path
             transform="translate(-248.49753,47.982244)"
             d="M 153.54319,340.70972 A 12.121831,12.626906 0 1 1 129.29953,340.70972 A 12.121831,12.626906 0 1 1 153.54319,340.70972 z"
             sodipodi:ry="12.626906"
             sodipodi:rx="12.121831"
             sodipodi:cy="340.70972"
             sodipodi:cx="141.42136"
             id="path3231"
             style="opacity:1;fill:#00ffff;fill-opacity:1;fill-rule:nonzero;stroke:#000000;stroke-width:3.54299998;stroke-linecap:butt;stroke-linejoin:miter;stroke-miterlimit:4;stroke-dasharray:none;stroke-dashoffset:0;stroke-opacity:1"
             sodipodi:type="arc" />
        </g>
        <rect
           style="fill:url(#linearGradient21531);fill-opacity:1;stroke:#000000;stroke-width:1.49597442;stroke-miterlimit:4;stroke-dasharray:none;stroke-dashoffset:0;stroke-opacity:1"
           width="276.75537"
           height="53.427662"
           x="240.69066"
           y="-553.0177"
           transform="matrix(-4.7169726e-2,0.9988869,-0.9988869,-4.7169726e-2,0,0)"
           inkscape:transform-center-x="10.299925"
           inkscape:transform-center-y="-67.127897"
           id="rect3416"
           inkscape:export-filename="/home/abez/clip-art-so-far.png"
           inkscape:export-xdpi="33.007736"
           inkscape:export-ydpi="33.007736" />
        <g
           id="g8583"
           transform="translate(-719.60816,72.585855)"
           inkscape:export-filename="/home/abez/clip-art-so-far.png"
           inkscape:export-xdpi="33.007736"
           inkscape:export-ydpi="33.007736">
          <g
             transform="translate(963.03814,347.28189)"
             id="g8571">
            <path
               style="fill:#00ffff;fill-opacity:1;fill-rule:nonzero;stroke:#000000;stroke-width:3.54299998;stroke-linecap:butt;stroke-linejoin:miter;stroke-miterlimit:4;stroke-dasharray:none;stroke-dashoffset:0;stroke-opacity:1"
               d="M -162.03814,125.01779 C -167.55814,125.01779 -172.03814,129.4978 -172.03814,135.01779 C -172.03814,140.53779 -167.55815,145.0178 -162.03814,145.01779 C -161.87085,145.01779 -161.70343,144.99467 -161.53814,144.98654 L -42.538136,144.98654 C -42.367776,144.99518 -42.210636,145.01779 -42.038136,145.01779 C -36.518136,145.01779 -32.038126,140.5378 -32.038136,135.01779 C -32.038136,129.49779 -36.518146,125.0178 -42.038136,125.01779 C -42.383136,125.01779 -42.702096,125.04613 -43.038136,125.08029 L -161.00689,125.08029 C -161.34292,125.04613 -161.69314,125.01779 -162.03814,125.01779 z M -152.03814,145.01779 L -152.03814,395.01779 L -152.03814,405.01779 L -151.00689,405.01779 C -146.36545,427.82532 -126.20957,445.01778 -102.03814,445.01779 C -77.866706,445.01779 -57.679576,427.82532 -53.038136,405.01779 L -52.038136,405.01779 L -52.038136,395.01779 L -52.038136,145.01779 L -152.03814,145.01779 z"
               id="path8573" />
            <path
               style="fill:#ff00ff;fill-opacity:1;fill-rule:nonzero;stroke:#000000;stroke-width:3.54299998;stroke-linecap:butt;stroke-linejoin:miter;stroke-miterlimit:4;stroke-dasharray:none;stroke-dashoffset:0;stroke-opacity:1"
               d="M -115.16314,260.40561 C -128.24434,260.40561 -139.25455,263.89211 -151.53814,266.62436 L -151.53814,394.93686 L -151.53814,404.93686 L -150.50689,404.93686 C -145.86545,427.7444 -125.70957,444.93685 -101.53814,444.93686 C -77.366706,444.93687 -57.179576,427.74439 -52.538136,404.93686 L -51.538136,404.93686 L -51.538136,394.93686 L -51.538136,264.81186 C -63.102836,266.82853 -74.881776,266.46812 -86.881886,266.46811 C -97.294166,266.46811 -104.84606,260.40561 -115.16314,260.40561 z"
               id="path8575" />
            <path
               sodipodi:type="arc"
               style="opacity:1;fill:#00ffff;fill-opacity:1;fill-rule:nonzero;stroke:#000000;stroke-width:3.54299998;stroke-linecap:butt;stroke-linejoin:miter;stroke-miterlimit:4;stroke-dasharray:none;stroke-dashoffset:0;stroke-opacity:1"
               id="path8577"
               sodipodi:cx="141.42136"
               sodipodi:cy="340.70972"
               sodipodi:rx="12.121831"
               sodipodi:ry="12.626906"
               d="M 153.54319,340.70972 A 12.121831,12.626906 0 1 1 129.29953,340.70972 A 12.121831,12.626906 0 1 1 153.54319,340.70972 z"
               transform="translate(-252.53814,-37.375644)" />
            <path
               sodipodi:type="arc"
               style="opacity:1;fill:#00ffff;fill-opacity:1;fill-rule:nonzero;stroke:#000000;stroke-width:3.54299998;stroke-linecap:butt;stroke-linejoin:miter;stroke-miterlimit:4;stroke-dasharray:none;stroke-dashoffset:0;stroke-opacity:1"
               id="path8579"
               sodipodi:cx="141.42136"
               sodipodi:cy="340.70972"
               sodipodi:rx="12.121831"
               sodipodi:ry="12.626906"
               d="M 153.54319,340.70972 A 12.121831,12.626906 0 1 1 129.29953,340.70972 A 12.121831,12.626906 0 1 1 153.54319,340.70972 z"
               transform="translate(-264.65997,7.5761408)" />
            <path
               sodipodi:type="arc"
               style="opacity:1;fill:#00ffff;fill-opacity:1;fill-rule:nonzero;stroke:#000000;stroke-width:3.54299998;stroke-linecap:butt;stroke-linejoin:miter;stroke-miterlimit:4;stroke-dasharray:none;stroke-dashoffset:0;stroke-opacity:1"
               id="path8581"
               sodipodi:cx="141.42136"
               sodipodi:cy="340.70972"
               sodipodi:rx="12.121831"
               sodipodi:ry="12.626906"
               d="M 153.54319,340.70972 A 12.121831,12.626906 0 1 1 129.29953,340.70972 A 12.121831,12.626906 0 1 1 153.54319,340.70972 z"
               transform="translate(-248.49753,47.982244)" />
          </g>
          <rect
             id="rect8567"
             inkscape:transform-center-y="-65.714286"
             inkscape:transform-center-x="17.142857"
             transform="matrix(5.5716256e-2,0.9984466,-0.9984466,5.5716256e-2,0,0)"
             y="-855.05615"
             x="374.25858"
             height="53.427654"
             width="276.75537"
             style="fill:url(#linearGradient21533);fill-opacity:1;stroke:#000000;stroke-width:1.49597418;stroke-miterlimit:4;stroke-dasharray:none;stroke-dashoffset:0;stroke-opacity:1" />
          <g
             transform="translate(963.03814,347.28189)"
             id="g8555">
            <path
               sodipodi:nodetypes="cssccssscccccc"
               style="fill:#00ffff;fill-opacity:1;fill-rule:nonzero;stroke:#000000;stroke-width:3.54299998;stroke-linecap:butt;stroke-linejoin:miter;stroke-miterlimit:4;stroke-dasharray:none;stroke-dashoffset:0;stroke-opacity:1"
               d="M -162.03814,125.01779 C -167.55814,125.01779 -172.03814,129.4978 -172.03814,135.01779 C -172.03814,140.53779 -167.55815,145.0178 -162.03814,145.01779 C -161.87085,145.01779 -161.70343,144.99467 -161.53814,144.98654 L -42.538136,144.98654 C -42.367776,144.99518 -42.210636,145.01779 -42.038136,145.01779 C -36.518136,145.01779 -32.038126,140.5378 -32.038136,135.01779 C -32.038136,129.49779 -36.518146,125.0178 -42.038136,125.01779 C -42.383136,125.01779 -42.702096,125.04613 -43.038136,125.08029 L -161.00689,125.08029 C -161.34292,125.04613 -161.69314,125.01779 -162.03814,125.01779 z M -152.03814,145.01779 L -52.038136,145.01779 L -152.03814,145.01779 z"
               id="path8557" />
          </g>
        </g>
      </g>
      <text
         transform="translate(-4.149475e-6,698.0315)"
         id="text10875"
         y="242.78415"
         x="232.39766"
         style="font-size:20px;font-style:normal;font-weight:normal;fill:#000000;fill-opacity:1;stroke:none;stroke-width:1px;stroke-linecap:butt;stroke-linejoin:miter;stroke-opacity:1;font-family:Bitstream Vera Sans"
         xml:space="preserve"><tspan
           y="242.78415"
           x="232.39766"
           id="tspan10877"
           sodipodi:role="line">tests</tspan></text>
    </g>
    <g
       id="g11192"
       transform="matrix(1.0001627,0,0,0.8570044,39.103175,140.87795)">
      <g
         transform="translate(50.918158,62.962429)"
         id="g11158">
        <g
           id="g2977"
           transform="matrix(8.1393393e-2,0,0,8.1393393e-2,227.15538,678.1186)">
          <path
             transform="translate(88.571429,104.28571)"
             d="M 344.28572,56.647896 L 166.51272,55.437218 L -6.219758,53.29804 L 83.715219,-100.05255 L 171.93404,-248.57368 L 259.77206,-94.012408 L 344.28572,56.647896 z"
             inkscape:randomized="0"
             inkscape:rounded="0"
             inkscape:flatsided="false"
             sodipodi:arg2="1.6050908"
             sodipodi:arg1="0.5331557"
             sodipodi:r2="101.70627"
             sodipodi:r1="202.37367"
             sodipodi:cy="-46.209248"
             sodipodi:cx="170"
             sodipodi:sides="3"
             id="path2965"
             style="fill:#000000;stroke-width:5;stroke-miterlimit:4;stroke-dasharray:none"
             sodipodi:type="star" />
          <path
             transform="matrix(0.7800193,0,0,0.7800193,129.59879,93.64366)"
             d="M 344.28572,56.647896 L 166.51272,55.437218 L -6.219758,53.29804 L 83.715219,-100.05255 L 171.93404,-248.57368 L 259.77206,-94.012408 L 344.28572,56.647896 z"
             inkscape:randomized="0"
             inkscape:rounded="0"
             inkscape:flatsided="false"
             sodipodi:arg2="1.6050908"
             sodipodi:arg1="0.5331557"
             sodipodi:r2="101.70627"
             sodipodi:r1="202.37367"
             sodipodi:cy="-46.209248"
             sodipodi:cx="170"
             sodipodi:sides="3"
             id="path2969"
             style="fill:#800000;stroke-width:5;stroke-miterlimit:4;stroke-dasharray:none"
             sodipodi:type="star" />
          <path
             d="M 88.162248,180.42468 C 124.2073,182.18008 160.30224,182.62166 196.3796,183.24517 C 280.67191,186.49852 364.98448,188.8806 449.33323,189.88308 L 441.10034,195.83574 C 356.43342,192.91815 271.73167,190.58301 187.01269,190.05062 C 148.34725,190.68852 109.66898,191.18237 71.03119,192.87112 L 88.162248,180.42468 z"
             id="path2975"
             style="fill:#800000;stroke-width:5;stroke-miterlimit:4;stroke-dasharray:none" />
        </g>
        <g
           id="g3070"
           transform="matrix(8.1393393e-2,0,0,8.1393393e-2,217.42871,644.09583)">
          <g
             id="g2993">
            <path
               sodipodi:type="star"
               style="fill:#000000;stroke-width:5;stroke-miterlimit:4;stroke-dasharray:none"
               id="path2984"
               sodipodi:sides="3"
               sodipodi:cx="170"
               sodipodi:cy="-46.209248"
               sodipodi:r1="202.37367"
               sodipodi:r2="101.70627"
               sodipodi:arg1="0.5331557"
               sodipodi:arg2="1.6050908"
               inkscape:flatsided="false"
               inkscape:rounded="0"
               inkscape:randomized="0"
               d="M 344.28572,56.647896 L 166.51272,55.437218 L -6.219758,53.29804 L 83.715219,-100.05255 L 171.93404,-248.57368 L 259.77206,-94.012408 L 344.28572,56.647896 z"
               transform="translate(26.960647,459.44543)" />
            <path
               sodipodi:type="star"
               style="fill:#ffff00;stroke-width:5;stroke-miterlimit:4;stroke-dasharray:none"
               id="path2986"
               sodipodi:sides="3"
               sodipodi:cx="170"
               sodipodi:cy="-46.209248"
               sodipodi:r1="202.37367"
               sodipodi:r2="101.70627"
               sodipodi:arg1="0.5331557"
               sodipodi:arg2="1.6050908"
               inkscape:flatsided="false"
               inkscape:rounded="0"
               inkscape:randomized="0"
               d="M 344.28572,56.647896 L 166.51272,55.437218 L -6.219758,53.29804 L 83.715219,-100.05255 L 171.93404,-248.57368 L 259.77206,-94.012408 L 344.28572,56.647896 z"
               transform="matrix(0.7800193,0,0,0.7800193,67.988008,448.80338)" />
            <path
               style="fill:#ffff00;stroke-width:5;stroke-miterlimit:4;stroke-dasharray:none"
               id="path2988"
               d="M 26.551466,535.5844 C 62.596518,537.3398 98.691458,537.78138 134.76882,538.40489 C 219.06113,541.65824 303.3737,544.04032 387.72245,545.0428 L 379.48956,550.99546 C 294.82264,548.07787 210.12089,545.74273 125.40191,545.21034 C 86.736468,545.84824 48.058198,546.34209 9.420408,548.03084 L 26.551466,535.5844 z" />
          </g>
        </g>
        <g
           id="g3064"
           transform="matrix(8.1393393e-2,0,0,8.1393393e-2,282.54281,608.48056)">
          <g
             transform="translate(-518.57143,65.714286)"
             id="g3009">
            <path
               sodipodi:type="star"
               style="fill:#000000;stroke-width:5;stroke-miterlimit:4;stroke-dasharray:none"
               id="path3000"
               sodipodi:sides="3"
               sodipodi:cx="170"
               sodipodi:cy="-46.209248"
               sodipodi:r1="202.37367"
               sodipodi:r2="101.70627"
               sodipodi:arg1="0.5331557"
               sodipodi:arg2="1.6050908"
               inkscape:flatsided="false"
               inkscape:rounded="0"
               inkscape:randomized="0"
               d="M 344.28572,56.647896 L 166.51272,55.437218 L -6.219758,53.29804 L 83.715219,-100.05255 L 171.93404,-248.57368 L 259.77206,-94.012408 L 344.28572,56.647896 z"
               transform="translate(58.389218,829.44544)" />
            <path
               sodipodi:type="star"
               style="fill:#ff0000;stroke-width:5;stroke-miterlimit:4;stroke-dasharray:none"
               id="path3002"
               sodipodi:sides="3"
               sodipodi:cx="170"
               sodipodi:cy="-46.209248"
               sodipodi:r1="202.37367"
               sodipodi:r2="101.70627"
               sodipodi:arg1="0.5331557"
               sodipodi:arg2="1.6050908"
               inkscape:flatsided="false"
               inkscape:rounded="0"
               inkscape:randomized="0"
               d="M 344.28572,56.647896 L 166.51272,55.437218 L -6.219758,53.29804 L 83.715219,-100.05255 L 171.93404,-248.57368 L 259.77206,-94.012408 L 344.28572,56.647896 z"
               transform="matrix(0.7800193,0,0,0.7800193,99.416579,818.80339)" />
            <path
               style="fill:#ff0000;stroke-width:5;stroke-miterlimit:4;stroke-dasharray:none"
               id="path3004"
               d="M 57.980037,905.58441 C 94.025089,907.33981 130.12003,907.78139 166.19739,908.4049 C 250.4897,911.65825 334.80227,914.04033 419.15102,915.04281 L 410.91813,920.99547 C 326.25121,918.07788 241.54946,915.74274 156.83048,915.21035 C 118.16504,915.84825 79.486769,916.3421 40.848979,918.03085 L 57.980037,905.58441 z" />
          </g>
        </g>
        <g
           id="g3058"
           transform="matrix(8.1393393e-2,0,0,8.1393393e-2,267.09675,627.5972)">
          <g
             id="g3020">
            <path
               sodipodi:type="star"
               style="fill:#000000;stroke-width:5;stroke-miterlimit:4;stroke-dasharray:none"
               id="path3014"
               sodipodi:sides="3"
               sodipodi:cx="170"
               sodipodi:cy="-46.209248"
               sodipodi:r1="202.37367"
               sodipodi:r2="101.70627"
               sodipodi:arg1="0.5331557"
               sodipodi:arg2="1.6050908"
               inkscape:flatsided="false"
               inkscape:rounded="0"
               inkscape:randomized="0"
               d="M 344.28572,56.647896 L 166.51272,55.437218 L -6.219758,53.29804 L 83.715219,-100.05255 L 171.93404,-248.57368 L 259.77206,-94.012408 L 344.28572,56.647896 z"
               transform="translate(28.389222,872.30258)" />
            <path
               sodipodi:type="star"
               style="fill:#0000ff;stroke-width:5;stroke-miterlimit:4;stroke-dasharray:none"
               id="path3016"
               sodipodi:sides="3"
               sodipodi:cx="170"
               sodipodi:cy="-46.209248"
               sodipodi:r1="202.37367"
               sodipodi:r2="101.70627"
               sodipodi:arg1="0.5331557"
               sodipodi:arg2="1.6050908"
               inkscape:flatsided="false"
               inkscape:rounded="0"
               inkscape:randomized="0"
               d="M 344.28572,56.647896 L 166.51272,55.437218 L -6.219758,53.29804 L 83.715219,-100.05255 L 171.93404,-248.57368 L 259.77206,-94.012408 L 344.28572,56.647896 z"
               transform="matrix(0.7800193,0,0,0.7800193,69.416582,861.66053)" />
            <path
               style="fill:#0000ff;stroke-width:5;stroke-miterlimit:4;stroke-dasharray:none"
               id="path3018"
               d="M 27.980042,948.44155 C 64.025092,950.1969 100.12003,950.6385 136.19739,951.262 C 220.4897,954.5154 304.80227,956.8975 389.15102,957.8999 L 380.91813,963.8526 C 296.25121,960.935 211.54946,958.5999 126.83048,958.0675 C 88.165042,958.7054 49.486772,959.1992 10.848982,960.888 L 27.980042,948.44155 z" />
          </g>
        </g>
        <g
           id="g3052"
           transform="matrix(8.1393393e-2,0,0,8.1393393e-2,216.26595,612.46868)">
          <g
             transform="translate(2.8571414,-8.5714286)"
             id="g3047">
            <path
               sodipodi:type="star"
               style="fill:#000000;stroke-width:5;stroke-miterlimit:4;stroke-dasharray:none"
               id="path3027"
               sodipodi:sides="3"
               sodipodi:cx="170"
               sodipodi:cy="-46.209248"
               sodipodi:r1="202.37367"
               sodipodi:r2="101.70627"
               sodipodi:arg1="0.5331557"
               sodipodi:arg2="1.6050908"
               inkscape:flatsided="false"
               inkscape:rounded="0"
               inkscape:randomized="0"
               d="M 344.28572,56.647896 L 166.51272,55.437218 L -6.219758,53.29804 L 83.715219,-100.05255 L 171.93404,-248.57368 L 259.77206,-94.012408 L 344.28572,56.647896 z"
               transform="translate(478.38922,853.73116)" />
            <path
               sodipodi:type="star"
               style="fill:#00ff00;stroke-width:5;stroke-miterlimit:4;stroke-dasharray:none"
               id="path3029"
               sodipodi:sides="3"
               sodipodi:cx="170"
               sodipodi:cy="-46.209248"
               sodipodi:r1="202.37367"
               sodipodi:r2="101.70627"
               sodipodi:arg1="0.5331557"
               sodipodi:arg2="1.6050908"
               inkscape:flatsided="false"
               inkscape:rounded="0"
               inkscape:randomized="0"
               d="M 344.28572,56.647896 L 166.51272,55.437218 L -6.219758,53.29804 L 83.715219,-100.05255 L 171.93404,-248.57368 L 259.77206,-94.012408 L 344.28572,56.647896 z"
               transform="matrix(0.7800193,0,0,0.7800193,519.41658,843.08911)" />
            <path
               style="fill:#00ff00;stroke-width:5;stroke-miterlimit:4;stroke-dasharray:none"
               id="path3031"
               d="M 477.98004,929.87013 C 514.02509,931.62548 550.12003,932.06708 586.19739,932.69058 C 670.4897,935.94398 754.80227,938.32608 839.15102,939.32848 L 830.91813,945.28118 C 746.25121,942.36358 661.54946,940.02848 576.83048,939.49608 C 538.16504,940.13398 499.48677,940.62778 460.84898,942.31658 L 477.98004,929.87013 z" />
          </g>
        </g>
        <g
           id="g3042"
           transform="matrix(8.1393393e-2,0,0,8.1393393e-2,186.92982,664.34913)">
          <path
             transform="translate(594.10351,412.30254)"
             d="M 344.28572,56.647896 L 166.51272,55.437218 L -6.219758,53.29804 L 83.715219,-100.05255 L 171.93404,-248.57368 L 259.77206,-94.012408 L 344.28572,56.647896 z"
             inkscape:randomized="0"
             inkscape:rounded="0"
             inkscape:flatsided="false"
             sodipodi:arg2="1.6050908"
             sodipodi:arg1="0.5331557"
             sodipodi:r2="101.70627"
             sodipodi:r1="202.37367"
             sodipodi:cy="-46.209248"
             sodipodi:cx="170"
             sodipodi:sides="3"
             id="path3036"
             style="fill:#000000;stroke-width:5;stroke-miterlimit:4;stroke-dasharray:none"
             sodipodi:type="star" />
          <path
             transform="matrix(0.7800193,0,0,0.7800193,635.13087,401.66054)"
             d="M 344.28572,56.647896 L 166.51272,55.437218 L -6.219758,53.29804 L 83.715219,-100.05255 L 171.93404,-248.57368 L 259.77206,-94.012408 L 344.28572,56.647896 z"
             inkscape:randomized="0"
             inkscape:rounded="0"
             inkscape:flatsided="false"
             sodipodi:arg2="1.6050908"
             sodipodi:arg1="0.5331557"
             sodipodi:r2="101.70627"
             sodipodi:r1="202.37367"
             sodipodi:cy="-46.209248"
             sodipodi:cx="170"
             sodipodi:sides="3"
             id="path3038"
             style="fill:#ff00ff;stroke-width:5;stroke-miterlimit:4;stroke-dasharray:none"
             sodipodi:type="star" />
          <path
             d="M 593.69433,488.44154 C 629.73938,490.19694 665.83432,490.63854 701.91168,491.26204 C 786.20399,494.51544 870.5166,496.89754 954.8653,497.89994 L 946.6324,503.85264 C 861.9655,500.93504 777.26375,498.59994 692.54477,498.06754 C 653.87933,498.70544 615.20106,499.19924 576.56327,500.88804 L 593.69433,488.44154 z"
             id="path3040"
             style="fill:#ff00ff;stroke-width:5;stroke-miterlimit:4;stroke-dasharray:none" />
        </g>
      </g>
      <text
         id="text11188"
         y="783.07086"
         x="262.20471"
         style="font-size:20px;font-style:normal;font-weight:normal;fill:#000000;fill-opacity:1;stroke:none;stroke-width:1px;stroke-linecap:butt;stroke-linejoin:miter;stroke-opacity:1;font-family:Bitstream Vera Sans"
         xml:space="preserve"><tspan
           y="783.07086"
           x="262.20471"
           id="tspan11190"
           sodipodi:role="line">Revisions</tspan></text>
    </g>
    <g
       id="g31038"
       transform="matrix(1.198186,0,0,1.198186,-70.145323,-293.1082)">
      <g
         inkscape:export-ydpi="33.007736"
         inkscape:export-xdpi="33.007736"
         inkscape:export-filename="/home/abez/clip-art-so-far.png"
         transform="matrix(0.4601003,0,0,0.4601003,418.98139,611.66503)"
         style="fill:#0000ff"
         id="g3443">
        <g
           style="fill:#0000ff"
           id="g3439"
           transform="translate(0,-80.012817)">
          <path
             id="rect3424"
             d="M -520,692.375 L -520,852.375 C -520,879.975 -470.72,902.375 -410,902.375 C -349.28,902.375 -300,879.975 -300,852.375 L -300,692.375 L -520,692.375 z"
             style="fill:#0000ff;fill-opacity:1;stroke:#ffffff;stroke-width:10;stroke-miterlimit:4;stroke-dasharray:none;stroke-dashoffset:0;stroke-opacity:1" />
          <path
             transform="translate(0,70)"
             d="M -300,622.36218 A 110,50 0 1 1 -520,622.36218 A 110,50 0 1 1 -300,622.36218 z"
             sodipodi:ry="50"
             sodipodi:rx="110"
             sodipodi:cy="622.36218"
             sodipodi:cx="-410"
             id="path3422"
             style="fill:#0000ff;fill-opacity:1;stroke:#ffffff;stroke-width:10;stroke-miterlimit:4;stroke-dasharray:none;stroke-dashoffset:0;stroke-opacity:1"
             sodipodi:type="arc" />
        </g>
      </g>
      <g
         transform="matrix(0.1250385,0,0,0.1250385,336.85233,875.58891)"
         id="g17205">
        <path
           style="fill:#edf128;fill-opacity:1;fill-rule:evenodd;stroke:#000000;stroke-width:1px;stroke-linecap:butt;stroke-linejoin:miter;stroke-opacity:1"
           d="M -460,458.07647 C -475.35668,458.07647 -429.18388,460.06621 -414.28571,463.79075 C -404.67595,466.1932 -385.63167,481.01623 -380,486.6479 C -368.29359,498.3543 -358.93981,504.85094 -348.57143,515.21933 C -338.02016,525.77059 -337.48672,543.10303 -331.42857,555.21933 C -325.52905,567.01836 -325.71429,584.9489 -325.71429,598.07647 C -325.71429,615.28201 -331.70156,624.33672 -337.14286,635.21933 C -342.76991,646.47343 -355.08196,643.79075 -371.42857,643.79075 C -385.79465,643.79075 -401.66073,631.83092 -408.57143,626.6479 C -421.80724,616.72104 -434.28219,608.07735 -451.42857,603.79075 C -465.42787,600.29093 -474.81883,593.5242 -488.57143,586.6479 C -494.34392,583.76165 -491.42857,547.90163 -491.42857,540.93361 C -491.42857,521.66004 -480.62312,504.0492 -477.14286,486.6479 C -474.94433,475.65525 -470.08846,470.68704 -460,458.07647 z"
           id="path1337" />
        <path
           style="fill:#ffe9fa;fill-opacity:1;fill-rule:evenodd;stroke:#000000;stroke-width:1px;stroke-linecap:butt;stroke-linejoin:miter;stroke-opacity:1"
           d="M -662.85714,612.36218 C -662.80489,616.31254 -663.61658,626.73819 -667.14286,633.79075 C -670.18712,639.87928 -671.42857,647.87799 -671.42857,655.21933 C -671.42857,663.06719 -673.38651,668.81613 -671.42857,676.6479 C -669.13768,685.81145 -665.8699,692.05095 -661.42857,700.93361 C -655.89906,711.99264 -645.12429,718.16182 -635.71429,725.21933 C -622.04773,735.46924 -604.34373,747.33318 -588.57143,755.21933 C -559.8035,769.60329 -518.97163,773.79075 -487.14286,773.79075 C -469.0216,773.79075 -462.9208,775.23206 -448.57143,772.36218 C -442.10706,771.06931 -434.55099,767.20399 -430,763.79075 C -422.20748,757.94636 -410.71492,754.8625 -402.85714,750.93361 C -395.39359,747.20183 -388.54629,739.48618 -382.85714,735.21933 C -377.64156,731.30764 -373.57963,725.23572 -371.42857,720.93361 C -367.42108,712.91863 -366.37673,706.44053 -364.28571,698.07647 C -362.61851,691.40765 -362.85714,684.18998 -362.85714,678.07647 C -362.85714,670.62218 -363.09783,663.32492 -361.42857,656.6479 C -359.52947,649.05148 -362.65394,640.31786 -364.28571,633.79075 C -366.58645,624.5878 -369.08577,618.87625 -371.42857,609.50504 C -373.46453,601.36122 -376.00455,593.06509 -378.57143,586.6479 C -382.65028,576.45076 -386.53407,566.50724 -392.85714,558.07647 C -397.25587,552.21149 -410.88032,549.6421 -417.14286,548.07647 C -437.00921,543.10988 -455.217,542.36218 -475.71429,542.36218 C -492.47892,542.36218 -505.71127,547.36143 -520,550.93361 C -532.49744,554.05797 -543.87501,560.72826 -555.71429,566.6479 C -565.04975,571.31563 -576.27924,574.76089 -585.71429,576.6479 C -608.27615,581.16027 -631.28601,592.04796 -654.28571,596.6479 C -662.14965,598.22068 -669.75743,606.40533 -671.42857,608.07647 C -673.68734,610.33524 -665.95615,611.58743 -662.85714,612.36218 z"
           id="path2224" />
        <path
           style="fill:#fffcfc;fill-opacity:1;fill-rule:evenodd;stroke:#000000;stroke-width:1px;stroke-linecap:butt;stroke-linejoin:miter;stroke-opacity:1"
           d="M -702.85714,689.50504 C -702.95103,689.1295 -735.93411,720.27433 -742.85714,729.50504 C -753.77214,744.05838 -759.26246,762.96019 -762.85714,780.93361 C -765.93185,796.30715 -771.42857,807.55858 -771.42857,823.79075 C -771.42857,845.0292 -769.79585,844.60712 -754.28571,852.36218 C -744.11094,857.44957 -731.05138,857.45648 -717.14286,860.93361 C -703.94719,864.23253 -685.15296,860.93361 -671.42857,860.93361 C -657.14286,860.93361 -642.85714,860.93361 -628.57143,860.93361 C -614.43811,860.93361 -614.28571,847.25174 -614.28571,832.36218 C -614.28571,819.99709 -624.53231,811.86899 -628.57143,803.79075 C -632.02423,796.88516 -664.46102,800.93361 -671.42857,800.93361 C -687.73198,800.93361 -698.32871,797.78 -708.57143,795.21933 C -725.69405,790.93867 -705.56366,769.42973 -700,766.6479 C -685.83501,759.5654 -675.43066,759.64946 -665.71429,752.36218 C -651.4019,741.62789 -644.20457,727.15932 -637.14286,709.50504 C -632.48247,697.85406 -661.77952,685.75814 -665.71429,683.79075 C -678.10377,677.59601 -691.80003,682.87077 -702.85714,689.50504 z"
           id="path1347" />
        <path
           style="fill:#fffffc;fill-opacity:1;fill-rule:evenodd;stroke:#000000;stroke-width:1px;stroke-linecap:butt;stroke-linejoin:miter;stroke-opacity:1"
           d="M -370,705.21933 C -376.78266,710.30632 -355.99509,714.93853 -350,720.93361 C -332.54068,738.39293 -325.62831,756.73387 -308.57143,773.79075 C -302.00733,780.35485 -297.8071,792.56235 -295.71429,800.93361 C -293.37568,810.28804 -290,818.46824 -290,828.07647 C -290,838.07647 -290,848.07647 -290,858.07647 C -290,867.18879 -293.47447,877.68864 -295.71429,886.6479 C -297.68023,894.51167 -305.26204,902.85034 -312.85714,906.6479 C -321.27823,910.85844 -323.90885,915.21933 -334.28571,915.21933 C -342.14304,915.21933 -349.29965,917.18013 -357.14286,915.21933 C -364.58085,913.35983 -371.46584,906.12202 -374.28571,902.36218 C -380.23105,894.43506 -385.10612,886.03021 -390,879.50504 C -394.4482,873.57411 -396.54807,866.40889 -400,859.50504 C -403.85556,851.79391 -403.47388,845.83606 -398.57143,840.93361 C -391.74173,834.10391 -380.47021,825.68954 -375.71429,820.93361 C -369.41177,814.6311 -363.05459,810.31805 -355.71429,806.6479 C -349.16067,803.37109 -340.14078,803.72036 -334.28571,806.6479 C -329.60179,808.98986 -328.57143,823.11686 -328.57143,828.07647 C -328.57143,835.21933 -328.57143,842.36218 -328.57143,849.50504 C -328.57143,856.78935 -326.05242,835.14329 -324.28571,828.07647 C -322.48082,820.8569 -322.85714,813.00798 -322.85714,805.21933 C -322.85714,797.40349 -329.19358,791.74003 -334.28571,786.6479 C -339.21174,781.72187 -346.88596,783.6623 -352.85714,786.6479 C -359.95168,790.19516 -364.43172,793.14947 -371.42857,796.6479 C -384.55531,803.21127 -400.58908,810.93361 -414.28571,810.93361 C -433.88887,810.93361 -442.88644,806.53072 -447.14286,789.50504"
           id="path3117" />
        <path
           style="fill:#edf1f1;fill-opacity:1;fill-rule:evenodd;stroke:#000000;stroke-width:1.04719651px;stroke-linecap:butt;stroke-linejoin:miter;stroke-opacity:1"
           d="M -682.85714,673.83907 C -694.19378,673.83907 -705.71429,705.94309 -705.71429,720.83708 C -705.71429,737.76063 -708.88763,753.91528 -708.57143,755.30229 C -705.16096,770.26227 -682.67796,742.62212 -671.42857,733.36989 C -659.50288,723.56142 -691.42857,760.88725 -691.42857,777.2347 C -691.42857,803.17367 -680.79335,822.83953 -668.57143,796.03391 C -656.06924,768.6136 -665.71429,794.34705 -665.71429,811.69991 C -665.71429,830.51941 -650.79693,846.85781 -640,858.69793 C -631.86285,867.62129 -632.61888,834.32835 -625.71429,824.23272 C -617.21939,811.81181 -619.92347,855.67663 -611.42857,868.09753 C -605.53384,876.71657 -586.28762,883.44918 -580,886.89674 C -562.21859,896.64648 -594.81472,834.94763 -565.71429,877.49714 C -553.81724,894.89253 -537.84677,910.20277 -520,915.09556 C -496.01306,921.67169 -508.9042,888.57025 -511.42857,877.49714 C -515.92035,857.79405 -494.5951,874.02466 -482.85714,886.89674 C -470.59138,900.34763 -446.56505,903.83003 -457.14286,880.63034 C -464.07335,865.43011 -486.24677,844.30656 -460,858.69793 C -443.91952,867.51503 -429.28052,883.78632 -434.28571,861.83114 C -439.16841,840.41326 -447.96329,838.56494 -440,821.09952 C -433.73167,807.35155 -426.88159,860.6851 -420,830.49912 C -418.09524,822.14392 -416.19048,813.78871 -414.28571,805.43352 C -408.79042,781.3285 -404.63756,790.94827 -397.14286,799.16711 C -389.46452,807.58733 -393.42764,775.35274 -388.57143,764.7019 C -384.12472,754.94919 -380,744.27375 -380,733.36989 C -380,718.56453 -381.87769,730.28122 -385.71429,723.97028"
           id="path1329" />
        <path
           style="fill:#edf1f1;fill-opacity:1;fill-rule:evenodd;stroke:#000000;stroke-width:1px;stroke-linecap:butt;stroke-linejoin:miter;stroke-opacity:1"
           d="M -588.57143,655.21933 C -587.32913,653.97702 -627.757,642.81078 -637.14286,640.93361 C -653.18398,637.72539 -670.97996,638.07647 -688.57143,638.07647 C -703.41255,638.07647 -718.22407,637.63249 -731.42857,640.93361 C -746.64007,644.73649 -756.02945,647.51976 -765.71429,652.36218 C -785.63842,662.32425 -720.17996,662.31719 -702.85714,666.6479 C -691.28014,669.54215 -725.8476,675.35264 -734.28571,683.79075 C -734.30322,683.80826 -634.16828,670.0295 -697.14286,695.21933 C -724.94177,706.33889 -662.25491,699.35448 -657.14286,698.07647 C -642.80826,694.49282 -623.34129,698.07647 -608.57143,698.07647 C -592.72357,698.07647 -581.68947,700.93361 -568.57143,700.93361 C -566.66667,700.93361 -564.7619,700.93361 -562.85714,700.93361"
           id="path1323" />
        <path
           style="fill:#edf1f1;fill-opacity:1;fill-rule:evenodd;stroke:#000000;stroke-width:1px;stroke-linecap:butt;stroke-linejoin:miter;stroke-opacity:1"
           d="M -508.57143,700.93361 C -513.12133,682.734 -474.56083,716.82357 -457.14286,723.79075 C -444.49258,728.85086 -435.73631,733.06546 -425.71429,738.07647 C -413.51451,744.17636 -401.14773,746.6479 -385.71429,746.6479 C -357.41225,746.6479 -376.62265,734.05086 -380,732.36218 C -393.86688,725.42874 -348.15259,730.72419 -334.28571,723.79075 C -321.25514,717.27547 -362.57423,715.21933 -377.14286,715.21933 C -389.18963,715.21933 -353.6321,709.17823 -342.85714,703.79075 C -338.55504,701.6397 -371.51087,696.62732 -377.14286,695.21933 C -388.7762,692.31099 -393.35197,684.73848 -408.57143,680.93361 C -422.50165,677.45106 -436.63048,678.07647 -451.42857,678.07647 C -460,678.07647 -468.57143,678.07647 -477.14286,678.07647"
           id="path1327" />
        <path
           style="fill:#ffe9fa;fill-opacity:1;fill-rule:evenodd;stroke:#000000;stroke-width:1px;stroke-linecap:butt;stroke-linejoin:miter;stroke-opacity:1"
           d="M -537.14286,632.36218 C -537.14286,626.24336 -567.13553,641.64423 -577.14286,646.6479 C -591.94416,654.04855 -600,666.64147 -600,680.93361 C -600,691.96764 -580.24495,698.72952 -571.42857,700.93361 C -556.63856,704.63111 -541.42502,703.79075 -525.71429,703.79075 C -508.54937,703.79075 -496.05603,694.1325 -485.71429,683.79075 C -476.23834,674.3148 -487.06116,686.48449 -482.85714,678.07647"
           id="path1321" />
        <path
           style="fill:#ed1d28;fill-opacity:1;fill-rule:evenodd;stroke:#000000;stroke-width:1px;stroke-linecap:butt;stroke-linejoin:miter;stroke-opacity:1"
           d="M -331.42857,572.36218 C -330.81457,569.29216 -390.56614,528.79516 -400,520.93361 C -410.84598,511.89529 -431.02042,506.85197 -442.85714,500.93361 C -455.72937,494.4975 -472.89685,491.99511 -482.85714,489.50504 C -500.41922,485.11452 -502.85714,507.84009 -502.85714,520.93361 C -502.85714,536.79421 -481.38536,540.58727 -468.57143,543.79075 C -448.56445,548.7925 -431.84339,553.58334 -417.14286,560.93361 C -405.36231,566.82389 -399.89785,569.60719 -388.57143,580.93361 C -378.18622,591.31882 -367.87173,595.91902 -360,603.79075 C -349.27386,614.5169 -338.04315,611.15868 -331.42857,609.50504 C -323.5161,607.52692 -329.88381,576.22409 -331.42857,572.36218 z"
           id="path1339" />
        <path
           style="fill:#ddb9b9;fill-opacity:1;fill-rule:evenodd;stroke:#000000;stroke-width:1px;stroke-linecap:butt;stroke-linejoin:miter;stroke-opacity:1"
           d="M -499.59386,872.99025 C -498.08792,871.82394 -496.10618,871.45777 -494.36233,870.69153 C -450.09636,851.24112 -392.34226,799.86348 -361.03775,762.1762 C -343.83439,741.46519 -307.662,713.12667 -286.21113,698.08955 C -270.8527,687.32326 -260.24284,672.71891 -246.02353,661.70641 C -236.69186,654.47928 -227.41891,648.1741 -215.46667,638.91739 C -203.85482,629.92431 -199.01981,612.42597 -187.32732,639.03619 C -179.36893,657.14819 -199.23527,662.43816 -213.28673,672.28827 C -227.59481,682.31826 -240.23243,692.28054 -253.15729,702.29051 C -270.04039,715.36604 -285.71144,732.76174 -302.65858,745.88687 C -320.88725,760.0045 -337.77669,771.87333 -357.07437,785.40105 C -370.21089,794.60978 -375.70143,811.22146 -388.26531,820.95186 C -399.24211,829.45311 -405.97698,837.29853 -417.67281,846.35665 C -430.30927,856.14326 -442.19641,865.34954 -454.9276,875.20952 C -467.45192,884.90928 -477.7378,891.75572 -490.39895,893.91638 C -497.90943,895.19806 -496.52889,879.96563 -499.59386,872.99025 z"
           id="path1341" />
        <path
           style="fill:#000000;fill-opacity:1;fill-rule:evenodd;stroke:#000000;stroke-width:1px;stroke-linecap:butt;stroke-linejoin:miter;stroke-opacity:1"
           d="M -180.82764,611.21388 C -196.11034,613.82191 -197.57169,585.06716 -207.06475,572.80973 C -216.2204,560.98795 -235.18005,549.45607 -246.38069,540.15238 C -258.77371,529.85826 -273.88992,527.27026 -288.94647,521.4062 C -301.74275,516.42243 -312.63241,514.34938 -321.68327,510.82434 C -330.05545,507.56364 -339.38254,507.38629 -348.35621,506.94043 C -360.53761,506.33518 -325.31842,516.11014 -315.93645,523.90318 C -302.88972,534.74029 -290.21007,543.61144 -277.76987,553.94474 C -266.88867,562.98309 -259.55025,575.72291 -248.59996,584.81864 C -238.58218,593.1398 -231.4991,610.29437 -223.51221,620.60703 C -215.36087,631.13205 -211.28502,643.18502 -202.18959,654.92902 C -194.58473,664.74841 -190.04379,684.90826 -188.71427,692.6991 C -185.9213,709.06554 -181.67889,721.56743 -179.32112,735.38368 C -177.32069,747.10588 -183.86726,764.89132 -186.45488,775.96777 C -189.52096,789.09238 -196.52786,807.43398 -181.02509,795.42749 C -167.78855,785.17613 -161.91223,768.62084 -157.36441,756.94388 C -151.05318,740.73917 -150.76083,727.03058 -149.91361,709.9789 C -149.03776,692.35092 -154.24747,679.85614 -157.84037,663.52919 C -160.53692,651.27549 -165.70821,638.52083 -171.31569,625.75911 C -173.64612,620.45541 -177.65699,616.06229 -180.82764,611.21388 z"
           id="path1343" />
        <path
           style="fill:#ffe6fa;fill-opacity:1;fill-rule:evenodd;stroke:#000000;stroke-width:1px;stroke-linecap:butt;stroke-linejoin:miter;stroke-opacity:1"
           d="M -627.14286,819.50504 C -627.14286,817.72041 -597.94382,800.46291 -592.85714,796.6479 C -579.19949,786.40466 -577.24646,788.49089 -581.42857,805.21933 C -586.06549,823.76701 -571.66557,815.45632 -564.28571,808.07647 C -554.06931,797.86006 -532.11336,799.50504 -518.57143,799.50504 C -492.84937,799.50504 -521.88931,814.62022 -530,816.6479 C -550.71373,821.82633 -528.02852,817.33342 -532.85714,836.6479 C -534.57575,843.52232 -523.38388,844.31749 -535.71429,856.6479 C -541.40549,862.3391 -543.10849,868.07647 -564.28571,868.07647 C -576.61443,868.07647 -591.01841,865.67901 -604.28571,862.36218 C -618.72861,858.75146 -621.3088,848.55557 -624.28571,836.6479 C -625.69075,831.02776 -626.19048,825.21933 -627.14286,819.50504 z"
           id="path1345" />
        <path
           style="fill:#edf128;fill-opacity:1;fill-rule:evenodd;stroke:#000000;stroke-width:1px;stroke-linecap:butt;stroke-linejoin:miter;stroke-opacity:1"
           d="M -774.28571,643.79075 C -768.81574,638.32078 -720.00377,624.93512 -702.85714,618.07647 C -682.95103,610.11402 -668.60375,583.82308 -654.28571,569.50504 C -641.47967,556.69899 -625.6934,540.89184 -617.14286,523.79075 C -610.1717,509.84845 -595.98064,497.47923 -585.71429,483.79075 C -577.53646,472.88699 -571.50049,461.0295 -562.85714,449.50504 C -554.39066,438.21639 -544.35841,430.25567 -531.42857,423.79075 C -515.61674,415.88484 -509.8044,413.38471 -494.28571,409.50504 C -481.82669,406.39028 -464.34703,409.50504 -451.42857,409.50504 C -438.94839,409.50504 -426.68074,420.45039 -414.28571,426.6479 C -398.97459,434.30346 -394.84836,456.95117 -388.57143,469.50504 C -383.82182,479.00426 -382.85714,501.44925 -382.85714,512.36218 C -382.85714,524.82263 -377.14286,537.07827 -377.14286,552.36218 C -377.14286,567.00997 -371.42857,579.43306 -371.42857,592.36218 C -371.42857,604.26458 -366.20704,621.81973 -362.85714,635.21933 C -358.35334,653.23452 -356.17561,662.86811 -348.57143,678.07647 C -341.6936,691.83213 -334.52611,700.75331 -322.85714,709.50504 C -305.5365,722.49552 -315.49042,717.06101 -334.28571,712.36218 C -342.60939,710.28126 -349.92072,683.94931 -354.28571,675.21933 C -360.19332,663.40412 -366.6198,647.694 -371.42857,638.07647 C -378.20767,624.51828 -383.28698,608.93192 -391.42857,598.07647 C -403.29037,582.26074 -406.06322,580.75914 -422.85714,572.36218 C -433.33727,567.12212 -453.45986,566.6479 -465.71429,566.6479 C -479.73381,566.6479 -496.34335,563.79075 -511.42857,563.79075 C -526.19943,563.79075 -541.19518,563.37526 -554.28571,566.6479 C -569.41943,570.43132 -582.83696,572.35209 -594.28571,578.07647 C -608.22874,585.04798 -616.16229,591.38162 -625.71429,600.93361 C -635.14011,610.35943 -649.95626,614.48317 -662.85714,620.93361 C -676.03854,627.52431 -687.54315,629.50504 -702.85714,629.50504 C -719.88168,629.50504 -728.59694,635.21933 -745.71429,635.21933 C -754.43197,635.21933 -765.65552,642.06472 -774.28571,643.79075 z"
           id="path1333" />
        <path
           style="fill:#edf1f1;fill-opacity:1;fill-rule:evenodd;stroke:#000000;stroke-width:1px;stroke-linecap:butt;stroke-linejoin:miter;stroke-opacity:1"
           d="M -642.85714,569.50504 C -640.95238,569.50504 -639.04762,569.50504 -637.14286,569.50504 C -592.87382,569.50504 -540.73126,530.7508 -500,540.93361 C -479.80793,545.98163 -514.95027,573.57489 -517.14286,575.21933 C -527.63093,583.08538 -543.97415,583.79075 -557.14286,583.79075 C -569.28433,583.79075 -586.62767,574.99098 -597.14286,572.36218 C -614.63171,567.98997 -623.36958,565.60753 -642.85714,569.50504 z"
           id="path1313" />
        <path
           style="fill:#edf1f1;fill-opacity:1;fill-rule:evenodd;stroke:#000000;stroke-width:1px;stroke-linecap:butt;stroke-linejoin:miter;stroke-opacity:1"
           d="M -382.85714,612.36218 C -393.40001,609.72647 -411.19342,604.02591 -425.71429,589.50504 C -441.1642,574.05513 -445.78389,566.9959 -442.85714,552.36218 C -438.6069,531.11098 -399.0975,569.75599 -397.14286,572.36218 C -388.57522,583.7857 -382.85714,595.84344 -382.85714,612.36218 z"
           id="path1315" />
        <path
           style="fill:#ffe6fa;fill-opacity:1;fill-rule:evenodd;stroke:#000000;stroke-width:1px;stroke-linecap:butt;stroke-linejoin:miter;stroke-opacity:1"
           d="M -407.52678,848.14009 C -415.74229,847.11018 -421.74077,838.27483 -427.75944,830.50353 C -432.42009,824.4857 -432.80519,816.18909 -432.61453,812.3517 C -432.11334,802.26441 -420.1522,798.77634 -414.14566,801.1157 C -404.78498,804.7614 -408.27888,794.40248 -405.8228,788.09627 C -402.44559,779.42495 -392.22032,780.45647 -385.62987,780.78393 C -381.82977,780.97274 -378.95292,766.40339 -368.31036,766.93217 C -361.19699,767.28561 -353.8808,771.98309 -349.64324,777.45463 C -345.66767,782.58787 -343.04825,793.44399 -342.33089,797.64755 C -340.99271,805.48918 -348.55494,809.91799 -352.69484,813.12423 C -359.09274,818.07924 -366.68061,823.96239 -370.74755,828.85856 C -374.8209,833.76243 -383.00028,838.78621 -388.06706,842.71031 C -393.17555,846.6667 -401.64791,847.94309 -407.52678,848.14009 z"
           id="path3111" />
        <path
           style="fill:#000000;fill-opacity:1;fill-rule:evenodd;stroke:#000000;stroke-width:0.67379016px;stroke-linecap:butt;stroke-linejoin:miter;stroke-opacity:1"
           d="M -588.9446,593.21438 C -593.69683,596.64715 -593.18314,601.73264 -589.78691,609.62992 C -585.18003,620.34239 -574.63109,623.84812 -566.16371,621.13144 C -560.37632,619.27462 -557.83758,615.35964 -556.89232,609.83954 C -555.96117,604.40179 -560.3139,599.85358 -562.26726,605.69302 C -564.6586,612.84179 -568.78633,611.94733 -573.12609,611.62323 C -577.25719,611.3147 -578.70936,610.38599 -582.13537,605.70724 C -586.99368,599.07246 -584.99373,583.75415 -588.9446,593.21438 z"
           id="path3119" />
        <path
           style="fill:#000000;fill-opacity:1;fill-rule:evenodd;stroke:#000000;stroke-width:0.67379016px;stroke-linecap:butt;stroke-linejoin:miter;stroke-opacity:1"
           d="M -474.35155,612.32279 C -479.10378,615.75556 -478.59009,620.84105 -475.19386,628.73833 C -470.58698,639.4508 -460.03804,642.95653 -451.57066,640.23985 C -445.78327,638.38303 -443.24453,634.46805 -442.29927,628.94795 C -441.36812,623.5102 -445.72085,618.96199 -447.67421,624.80143 C -450.06555,631.9502 -454.19328,631.05574 -458.53304,630.73164 C -462.66414,630.42311 -464.11631,629.4944 -467.54232,624.81565 C -472.40063,618.18087 -470.40068,602.86256 -474.35155,612.32279 z"
           id="path3121" />
      </g>
    </g>
    <rect
       style="fill:#ffffff;fill-opacity:1;stroke:#ffffff;stroke-width:3.54330707000000000;stroke-miterlimit:4;stroke-dasharray:none;stroke-dashoffset:0;stroke-opacity:1"
       id="rect21535"
       width="602.36218"
       height="88.645187"
       x="-70.866142"
       y="-49.606308"
       transform="translate(-4.149475e-6,698.0315)" />
    <text
       xml:space="preserve"
       style="font-size:23px;font-style:normal;font-weight:bold;fill:#000000;fill-opacity:1;stroke:none;stroke-width:1px;stroke-linecap:butt;stroke-linejoin:miter;stroke-opacity:1;font-family:Bitstream Vera Sans;-inkscape-font-specification:Sans"
       x="35.433067"
       y="737.07037"
       id="text16935"><tspan
         sodipodi:role="line"
         id="tspan16937"
         x="35.433067"
         y="737.07037">Mining Software Repositories</tspan></text>
  </g>
</svg>
