<?xml version="1.0" encoding="UTF-8" standalone="no"?>
<!-- Created with Inkscape (http://www.inkscape.org/) -->
<svg
   xmlns:dc="http://purl.org/dc/elements/1.1/"
   xmlns:cc="http://creativecommons.org/ns#"
   xmlns:rdf="http://www.w3.org/1999/02/22-rdf-syntax-ns#"
   xmlns:svg="http://www.w3.org/2000/svg"
   xmlns="http://www.w3.org/2000/svg"
   xmlns:sodipodi="http://sodipodi.sourceforge.net/DTD/sodipodi-0.dtd"
   xmlns:inkscape="http://www.inkscape.org/namespaces/inkscape"
   width="453.5433"
   height="340.15747"
   id="svg2"
   sodipodi:version="0.32"
   inkscape:version="0.46"
   sodipodi:docname="slide293-mysql-manual-case-study-plot.svg"
   version="1.0"
   inkscape:output_extension="org.inkscape.output.svg.inkscape">
  <defs
     id="defs4">
    <inkscape:perspective
       sodipodi:type="inkscape:persp3d"
       inkscape:vp_x="0 : 170.07874 : 1"
       inkscape:vp_y="0 : 1000 : 0"
       inkscape:vp_z="453.5433 : 170.07874 : 1"
       inkscape:persp3d-origin="226.77165 : 113.38582 : 1"
       id="perspective13951" />
  </defs>
  <sodipodi:namedview
     id="base"
     pagecolor="#ffffff"
     bordercolor="#666666"
     borderopacity="1.0"
     gridtolerance="10000"
     guidetolerance="8.8"
     objecttolerance="10"
     inkscape:pageopacity="0.0"
     inkscape:pageshadow="2"
     inkscape:zoom="1.0892718"
     inkscape:cx="249.26374"
     inkscape:cy="101.92458"
     inkscape:document-units="mm"
     inkscape:current-layer="layer1"
     inkscape:window-width="1024"
     inkscape:window-height="768"
     inkscape:window-x="0"
     inkscape:window-y="0"
     width="12.8cm"
     height="9.6cm"
     units="cm"
     showgrid="false"
     grid_units="mm"
     inkscape:object-paths="false"
     inkscape:grid-points="true"
     inkscape:grid-bbox="true"
     inkscape:guide-points="true"
     showguides="true"
     inkscape:guide-bbox="true">
    <sodipodi:guide
       orientation="vertical"
       position="56.476527"
       id="guide3573" />
    <sodipodi:guide
       orientation="horizontal"
       position="11.035643"
       id="guide3579" />
    <sodipodi:guide
       orientation="horizontal"
       position="24.018753"
       id="guide3886" />
    <sodipodi:guide
       orientation="horizontal"
       position="285.62841"
       id="guide3988" />
    <sodipodi:guide
       orientation="horizontal"
       position="303.15561"
       id="guide4081" />
    <inkscape:grid
       id="GridFromPre046Settings"
       type="xygrid"
       originx="0px"
       originy="0px"
       spacingx="2mm"
       spacingy="2mm"
       color="#0000ff"
       empcolor="#0000ff"
       opacity="0.2"
       empopacity="0.4"
       empspacing="5" />
  </sodipodi:namedview>
  <metadata
     id="metadata7">
    <rdf:RDF>
      <cc:Work
         rdf:about="">
        <dc:format>image/svg+xml</dc:format>
        <dc:type
           rdf:resource="http://purl.org/dc/dcmitype/StillImage" />
      </cc:Work>
    </rdf:RDF>
  </metadata>
  <g
     inkscape:label="Layer 1"
     inkscape:groupmode="layer"
     id="layer1"
     transform="translate(4.149475e-6,-698.0315)">
    <g
       transform="matrix(0.3436252,0,0,-0.3436252,-5.6546475,907.9126)"
       inkscape:label="lda"
       id="g13119">
      <g
         transform="scale(0.1,0.1)"
         id="g13121">
        <path
           id="path13123"
           style="fill:#0000ff;fill-opacity:1;fill-rule:nonzero;stroke:none"
           d="M 325.98,2877.12 L 1228.8,2877.12 L 1228.8,3387.347 L 325.98,3387.347 L 325.98,2877.12 z" />
        <path
           id="path13125"
           style="fill:none;stroke:#000000;stroke-width:28.34600067;stroke-linecap:butt;stroke-linejoin:miter;stroke-miterlimit:10;stroke-dasharray:none;stroke-opacity:1"
           d="M 325.98,2877.12 L 1228.8,2877.12 L 1228.8,3387.347 L 325.98,3387.347 L 325.98,2877.12 z" />
        <g
           transform="scale(10,10)"
           id="g13127">
          <text
             id="text13129"
             transform="matrix(1,0,0,-1,46.7711,313.152)">
            <tspan
               id="tspan13131"
               sodipodi:role="line"
               y="0"
               x="0 10.806243 22.485544 38.577763 50.257065"
               style="font-size:15.87380028px;font-variant:normal;font-weight:bold;writing-mode:lr-tb;fill:#ffffff;fill-opacity:1;fill-rule:nonzero;stroke:none;font-family:Helvetica;-inkscape-font-specification:Helvetica-Bold">chmod</tspan>
          </text>
        </g>
        <path
           id="path13133"
           style="fill:#ff9000;fill-opacity:1;fill-rule:nonzero;stroke:none"
           d="M 1459.82,2026.74 L 2329.332,2026.74 L 2329.332,2536.97 L 1459.82,2536.97 L 1459.82,2026.74 z" />
        <path
           id="path13135"
           style="fill:none;stroke:#000000;stroke-width:28.34600067;stroke-linecap:butt;stroke-linejoin:miter;stroke-miterlimit:10;stroke-dasharray:none;stroke-opacity:1"
           d="M 1459.82,2026.74 L 2329.332,2026.74 L 2329.332,2536.97 L 1459.82,2536.97 L 1459.82,2026.74 z" />
        <g
           transform="scale(10,10)"
           id="g13137">
          <text
             id="text13139"
             transform="matrix(1,0,0,-1,160.155,228.114)">
            <tspan
               id="tspan13141"
               sodipodi:role="line"
               y="0"
               x="0 17.356327 24.140703 36.211056 47.408348"
               style="font-size:15.87380028px;font-variant:normal;font-weight:bold;writing-mode:lr-tb;fill:#ffffff;fill-opacity:1;fill-rule:nonzero;stroke:none;font-family:Helvetica;-inkscape-font-specification:Helvetica-Bold">Win32</tspan>
          </text>
        </g>
        <path
           id="path13143"
           style="fill:#307186;fill-opacity:1;fill-rule:nonzero;stroke:none"
           d="M 1459.82,325.98 L 2781.45,325.98 L 2781.45,836.207 L 1459.82,836.207 L 1459.82,325.98 z" />
        <path
           id="path13145"
           style="fill:none;stroke:#000000;stroke-width:28.34600067;stroke-linecap:butt;stroke-linejoin:miter;stroke-miterlimit:10;stroke-dasharray:none;stroke-opacity:1"
           d="M 1459.82,325.98 L 2781.45,325.98 L 2781.45,836.207 L 1459.82,836.207 L 1459.82,325.98 z" />
        <g
           transform="scale(10,10)"
           id="g13147">
          <text
             id="text13149"
             transform="matrix(1,0,0,-1,160.155,58.0387)">
            <tspan
               id="tspan13151"
               sodipodi:role="line"
               y="0"
               x="0 11.824592 22.776125 34.600716 45.55225 57.376842 73.614349 84.56588 92.866493"
               style="font-size:15.87380028px;font-variant:normal;font-weight:bold;writing-mode:lr-tb;fill:#ffffff;fill-opacity:1;fill-rule:nonzero;stroke:none;font-family:Helvetica;-inkscape-font-specification:Helvetica-Bold">benchmark</tspan>
          </text>
        </g>
        <path
           id="path13153"
           style="fill:#ff00ff;fill-opacity:1;fill-rule:nonzero;stroke:none"
           d="M 1459.82,2877.12 L 8546.32,2877.12 L 8546.32,3387.347 L 1459.82,3387.347 L 1459.82,2877.12 z" />
        <path
           id="path13155"
           style="fill:none;stroke:#000000;stroke-width:28.34600067;stroke-linecap:butt;stroke-linejoin:miter;stroke-miterlimit:10;stroke-dasharray:none;stroke-opacity:1"
           d="M 1459.82,2877.12 L 8546.32,2877.12 L 8546.32,3387.347 L 1459.82,3387.347 L 1459.82,2877.12 z" />
        <g
           transform="scale(10,10)"
           id="g13157">
          <text
             id="text13159"
             transform="matrix(1,0,0,-1,160.155,313.152)">
            <tspan
               id="tspan13161"
               sodipodi:role="line"
               y="0"
               x="0 11.241892 17.197807"
               style="font-size:15.87380028px;font-variant:normal;font-weight:bold;writing-mode:lr-tb;fill:#ffffff;fill-opacity:1;fill-rule:nonzero;stroke:none;font-family:Helvetica;-inkscape-font-specification:Helvetica-Bold">Fix</tspan>
          </text>
        </g>
        <path
           id="path13163"
           style="fill:#a020f0;fill-opacity:1;fill-rule:nonzero;stroke:none"
           d="M 1459.82,1176.36 L 2442.715,1176.36 L 2442.715,1686.587 L 1459.82,1686.587 L 1459.82,1176.36 z" />
        <path
           id="path13165"
           style="fill:none;stroke:#000000;stroke-width:28.34600067;stroke-linecap:butt;stroke-linejoin:miter;stroke-miterlimit:10;stroke-dasharray:none;stroke-opacity:1"
           d="M 1459.82,1176.36 L 2442.715,1176.36 L 2442.715,1686.587 L 1459.82,1686.587 L 1459.82,1176.36 z" />
        <g
           transform="scale(10,10)"
           id="g13167">
          <text
             id="text13169"
             transform="matrix(1,0,0,-1,160.155,143.077)">
            <tspan
               id="tspan13171"
               sodipodi:role="line"
               y="0"
               x="0 6.2163262 17.718628 29.22093 40.723232 46.93956 58.44186"
               style="font-size:15.87380028px;font-variant:normal;font-weight:bold;writing-mode:lr-tb;fill:#ffffff;fill-opacity:1;fill-rule:nonzero;stroke:none;font-family:Helvetica;-inkscape-font-specification:Helvetica-Bold">logging</tspan>
          </text>
        </g>
        <path
           id="path13173"
           style="fill:#0000ff;fill-opacity:1;fill-rule:nonzero;stroke:none"
           d="M 3160.58,1176.36 L 4063.4,1176.36 L 4063.4,1686.587 L 3160.58,1686.587 L 3160.58,1176.36 z" />
        <path
           id="path13175"
           style="fill:none;stroke:#000000;stroke-width:28.34600067;stroke-linecap:butt;stroke-linejoin:miter;stroke-miterlimit:10;stroke-dasharray:none;stroke-opacity:1"
           d="M 3160.58,1176.36 L 4063.4,1176.36 L 4063.4,1686.587 L 3160.58,1686.587 L 3160.58,1176.36 z" />
        <g
           transform="scale(10,10)"
           id="g13177">
          <text
             id="text13179"
             transform="matrix(1,0,0,-1,330.231,143.077)">
            <tspan
               id="tspan13181"
               sodipodi:role="line"
               y="0"
               x="0 11.031052 21.189045 32.220097"
               style="font-size:15.87380028px;font-variant:normal;font-weight:bold;writing-mode:lr-tb;fill:#ffffff;fill-opacity:1;fill-rule:nonzero;stroke:none;font-family:Helvetica;-inkscape-font-specification:Helvetica-Bold">Typo</tspan>
          </text>
        </g>
        <path
           id="path13183"
           style="fill:#1fd3c4;fill-opacity:1;fill-rule:nonzero;stroke:none"
           d="M 3160.58,2026.74 L 5141.97,2026.74 L 5141.97,2536.97 L 3160.58,2536.97 L 3160.58,2026.74 z" />
        <path
           id="path13185"
           style="fill:none;stroke:#000000;stroke-width:28.34600067;stroke-linecap:butt;stroke-linejoin:miter;stroke-miterlimit:10;stroke-dasharray:none;stroke-opacity:1"
           d="M 3160.58,2026.74 L 5141.97,2026.74 L 5141.97,2536.97 L 3160.58,2536.97 L 3160.58,2026.74 z" />
        <g
           transform="scale(10,10)"
           id="g13187">
          <text
             id="text13189"
             transform="matrix(1,0,0,-1,330.231,228.114)">
            <tspan
               id="tspan13191"
               sodipodi:role="line"
               y="0"
               x="0 6.1021266 17.490229 28.005272 38.520313 46.384434 53.359619 63.87466 79.675682 91.063782 97.165909 104.14109 110.24322 120.75826 131.2733 141.78835 147.89047 159.27858"
               style="font-size:15.87380028px;font-variant:normal;font-weight:bold;writing-mode:lr-tb;fill:#ffffff;fill-opacity:1;fill-rule:nonzero;stroke:none;font-family:Helvetica;-inkscape-font-specification:Helvetica-Bold">insert_multi_value</tspan>
          </text>
        </g>
        <path
           id="path13193"
           style="fill:#a020f0;fill-opacity:1;fill-rule:nonzero;stroke:none"
           d="M 5428.26,325.98 L 6557.14,325.98 L 6557.14,836.207 L 5428.26,836.207 L 5428.26,325.98 z" />
        <path
           id="path13195"
           style="fill:none;stroke:#000000;stroke-width:28.34600067;stroke-linecap:butt;stroke-linejoin:miter;stroke-miterlimit:10;stroke-dasharray:none;stroke-opacity:1"
           d="M 5428.26,325.98 L 6557.14,325.98 L 6557.14,836.207 L 5428.26,836.207 L 5428.26,325.98 z" />
        <g
           transform="scale(10,10)"
           id="g13197">
          <text
             id="text13199"
             transform="matrix(1,0,0,-1,556.999,58.0387)">
            <tspan
               id="tspan13201"
               sodipodi:role="line"
               y="0"
               x="0 6.2699666 17.825909 29.381849 40.93779 52.493732 63.176617 73.859497"
               style="font-size:15.87380028px;font-variant:normal;font-weight:bold;writing-mode:lr-tb;fill:#ffffff;fill-opacity:1;fill-rule:nonzero;stroke:none;font-family:Helvetica;-inkscape-font-specification:Helvetica-Bold">innobase</tspan>
          </text>
        </g>
        <path
           id="path13203"
           style="fill:#1fd3c4;fill-opacity:1;fill-rule:nonzero;stroke:none"
           d="M 5428.26,1176.36 L 6557.14,1176.36 L 6557.14,1686.587 L 5428.26,1686.587 L 5428.26,1176.36 z" />
        <path
           id="path13205"
           style="fill:none;stroke:#000000;stroke-width:28.34600067;stroke-linecap:butt;stroke-linejoin:miter;stroke-miterlimit:10;stroke-dasharray:none;stroke-opacity:1"
           d="M 5428.26,1176.36 L 6557.14,1176.36 L 6557.14,1686.587 L 5428.26,1686.587 L 5428.26,1176.36 z" />
        <g
           transform="scale(10,10)"
           id="g13207">
          <text
             id="text13209"
             transform="matrix(1,0,0,-1,556.999,143.077)">
            <tspan
               id="tspan13211"
               sodipodi:role="line"
               y="0"
               x="0 13.296563 19.54516 30.206673 40.868187 52.402756 63.937328"
               style="font-size:15.87380028px;font-variant:normal;font-weight:bold;writing-mode:lr-tb;fill:#ffffff;fill-opacity:1;fill-rule:nonzero;stroke:none;font-family:Helvetica;-inkscape-font-specification:Helvetica-Bold">Cleanup</tspan>
          </text>
        </g>
        <path
           id="path13213"
           style="fill:#ff0000;fill-opacity:1;fill-rule:nonzero;stroke:none"
           d="M 5428.26,2026.74 L 6724.38,2026.74 L 6724.38,2536.97 L 5428.26,2536.97 L 5428.26,2026.74 z" />
        <path
           id="path13215"
           style="fill:none;stroke:#000000;stroke-width:28.34600067;stroke-linecap:butt;stroke-linejoin:miter;stroke-miterlimit:10;stroke-dasharray:none;stroke-opacity:1"
           d="M 5428.26,2026.74 L 6724.38,2026.74 L 6724.38,2536.97 L 5428.26,2536.97 L 5428.26,2026.74 z" />
        <g
           transform="scale(10,10)"
           id="g13217">
          <text
             id="text13219"
             transform="matrix(1,0,0,-1,556.999,228.114)">
            <tspan
               id="tspan13221"
               sodipodi:role="line"
               y="0"
               x="0 10.752092 22.377245 29.589479 41.21463 48.426868 60.052017 71.67717 78.01635 89.641502"
               style="font-size:15.87380028px;font-variant:normal;font-weight:bold;writing-mode:lr-tb;fill:#ffffff;fill-opacity:1;fill-rule:nonzero;stroke:none;font-family:Helvetica;-inkscape-font-specification:Helvetica-Bold">auto-union</tspan>
          </text>
        </g>
        <path
           id="path13223"
           style="fill:#0000ff;fill-opacity:1;fill-rule:nonzero;stroke:none"
           d="M 7129.02,2026.74 L 8555.71,2026.74 L 8555.71,2536.97 L 7129.02,2536.97 L 7129.02,2026.74 z" />
        <path
           id="path13225"
           style="fill:none;stroke:#000000;stroke-width:28.34600067;stroke-linecap:butt;stroke-linejoin:miter;stroke-miterlimit:10;stroke-dasharray:none;stroke-opacity:1"
           d="M 7129.02,2026.74 L 8555.71,2026.74 L 8555.71,2536.97 L 7129.02,2536.97 L 7129.02,2026.74 z" />
        <g
           transform="scale(10,10)"
           id="g13227">
          <text
             id="text13229"
             transform="matrix(1,0,0,-1,727.075,228.114)">
            <tspan
               id="tspan13231"
               sodipodi:role="line"
               y="0"
               x="0 11.133081 23.155096 37.81216 49.834175 63.618183 76.51326 89.408333 102.30341"
               style="font-size:15.87380028px;font-variant:normal;font-weight:bold;writing-mode:lr-tb;fill:#ffffff;fill-opacity:1;fill-rule:nonzero;stroke:none;font-family:Helvetica;-inkscape-font-specification:Helvetica-Bold">TEMPORARY</tspan>
          </text>
        </g>
        <path
           id="path13233"
           style="fill:#a020f0;fill-opacity:1;fill-rule:nonzero;stroke:none"
           d="M 7129.02,1176.36 L 8111.918,1176.36 L 8111.918,1686.587 L 7129.02,1686.587 L 7129.02,1176.36 z" />
        <path
           id="path13235"
           style="fill:none;stroke:#000000;stroke-width:28.34600067;stroke-linecap:butt;stroke-linejoin:miter;stroke-miterlimit:10;stroke-dasharray:none;stroke-opacity:1"
           d="M 7129.02,1176.36 L 8111.918,1176.36 L 8111.918,1686.587 L 7129.02,1686.587 L 7129.02,1176.36 z" />
        <g
           transform="scale(10,10)"
           id="g13237">
          <text
             id="text13239"
             transform="matrix(1,0,0,-1,727.075,143.077)">
            <tspan
               id="tspan13241"
               sodipodi:role="line"
               y="0"
               x="0 6.2163262 17.718628 29.22093 40.723232 46.93956 58.44186"
               style="font-size:15.87380028px;font-variant:normal;font-weight:bold;writing-mode:lr-tb;fill:#ffffff;fill-opacity:1;fill-rule:nonzero;stroke:none;font-family:Helvetica;-inkscape-font-specification:Helvetica-Bold">logging</tspan>
          </text>
        </g>
        <path
           id="path13243"
           style="fill:#ff0000;fill-opacity:1;fill-rule:nonzero;stroke:none"
           d="M 8829.78,2026.74 L 10125.9,2026.74 L 10125.9,2536.97 L 8829.78,2536.97 L 8829.78,2026.74 z" />
        <path
           id="path13245"
           style="fill:none;stroke:#000000;stroke-width:28.34600067;stroke-linecap:butt;stroke-linejoin:miter;stroke-miterlimit:10;stroke-dasharray:none;stroke-opacity:1"
           d="M 8829.78,2026.74 L 10125.9,2026.74 L 10125.9,2536.97 L 8829.78,2536.97 L 8829.78,2026.74 z" />
        <g
           transform="scale(10,10)"
           id="g13247">
          <text
             id="text13249"
             transform="matrix(1,0,0,-1,897.151,228.114)">
            <tspan
               id="tspan13251"
               sodipodi:role="line"
               y="0"
               x="0 11.963392 23.926785 35.890175 46.980507 54.530983"
               style="font-size:15.87380028px;font-variant:normal;font-weight:bold;writing-mode:lr-tb;fill:#ffffff;fill-opacity:1;fill-rule:nonzero;stroke:none;font-family:Helvetica;-inkscape-font-specification:Helvetica-Bold">update</tspan>
          </text>
        </g>
        <path
           id="path13253"
           style="fill:#307186;fill-opacity:1;fill-rule:nonzero;stroke:none"
           d="M 8829.78,1176.36 L 10151.41,1176.36 L 10151.41,1686.587 L 8829.78,1686.587 L 8829.78,1176.36 z" />
        <path
           id="path13255"
           style="fill:none;stroke:#000000;stroke-width:28.34600067;stroke-linecap:butt;stroke-linejoin:miter;stroke-miterlimit:10;stroke-dasharray:none;stroke-opacity:1"
           d="M 8829.78,1176.36 L 10151.41,1176.36 L 10151.41,1686.587 L 8829.78,1686.587 L 8829.78,1176.36 z" />
        <g
           transform="scale(10,10)"
           id="g13257">
          <text
             id="text13259"
             transform="matrix(1,0,0,-1,897.151,143.077)">
            <tspan
               id="tspan13261"
               sodipodi:role="line"
               y="0"
               x="0 10.693553 16.97419 23.254826 34.821438"
               style="font-size:15.87380028px;font-variant:normal;font-weight:bold;writing-mode:lr-tb;fill:#ffffff;fill-opacity:1;fill-rule:nonzero;stroke:none;font-family:Helvetica;-inkscape-font-specification:Helvetica-Bold">allow</tspan>
          </text>
        </g>
        <path
           id="path13263"
           style="fill:#1fd3c4;fill-opacity:1;fill-rule:nonzero;stroke:none"
           d="M 8829.78,2877.12 L 11664.38,2877.12 L 11664.38,3387.347 L 8829.78,3387.347 L 8829.78,2877.12 z" />
        <path
           id="path13265"
           style="fill:none;stroke:#000000;stroke-width:28.34600067;stroke-linecap:butt;stroke-linejoin:miter;stroke-miterlimit:10;stroke-dasharray:none;stroke-opacity:1"
           d="M 8829.78,2877.12 L 11664.38,2877.12 L 11664.38,3387.347 L 8829.78,3387.347 L 8829.78,2877.12 z" />
        <g
           transform="scale(10,10)"
           id="g13267">
          <text
             id="text13269"
             transform="matrix(1,0,0,-1,897.151,313.152)">
            <tspan
               id="tspan13271"
               sodipodi:role="line"
               y="0"
               x="0 11.119832 21.366604 32.486435 38.320293 48.567066"
               style="font-size:15.87380028px;font-variant:normal;font-weight:bold;writing-mode:lr-tb;fill:#ffffff;fill-opacity:1;fill-rule:nonzero;stroke:none;font-family:Helvetica;-inkscape-font-specification:Helvetica-Bold">Tables</tspan>
          </text>
        </g>
        <path
           id="path13273"
           style="fill:#1fd3c4;fill-opacity:1;fill-rule:nonzero;stroke:none"
           d="M 8829.78,325.98 L 9680.159,325.98 L 9680.159,836.207 L 8829.78,836.207 L 8829.78,325.98 z" />
        <path
           id="path13275"
           style="fill:none;stroke:#000000;stroke-width:28.34600067;stroke-linecap:butt;stroke-linejoin:miter;stroke-miterlimit:10;stroke-dasharray:none;stroke-opacity:1"
           d="M 8829.78,325.98 L 9680.159,325.98 L 9680.159,836.207 L 8829.78,836.207 L 8829.78,325.98 z" />
        <g
           transform="scale(10,10)"
           id="g13277">
          <text
             id="text13279"
             transform="matrix(1,0,0,-1,897.151,58.0387)">
            <tspan
               id="tspan13281"
               sodipodi:role="line"
               y="0"
               x="0 10.675188 24.001301 36.43848"
               style="font-size:15.87380028px;font-variant:normal;font-weight:bold;writing-mode:lr-tb;fill:#ffffff;fill-opacity:1;fill-rule:nonzero;stroke:none;font-family:Helvetica;-inkscape-font-specification:Helvetica-Bold">LOCK</tspan>
          </text>
        </g>
        <path
           id="path13283"
           style="fill:#0000ff;fill-opacity:1;fill-rule:nonzero;stroke:none"
           d="M 10530.5,1176.36 L 11433.32,1176.36 L 11433.32,1686.587 L 10530.5,1686.587 L 10530.5,1176.36 z" />
        <path
           id="path13285"
           style="fill:none;stroke:#000000;stroke-width:28.34600067;stroke-linecap:butt;stroke-linejoin:miter;stroke-miterlimit:10;stroke-dasharray:none;stroke-opacity:1"
           d="M 10530.5,1176.36 L 11433.32,1176.36 L 11433.32,1686.587 L 10530.5,1686.587 L 10530.5,1176.36 z" />
        <g
           transform="scale(10,10)"
           id="g13287">
          <text
             id="text13289"
             transform="matrix(1,0,0,-1,1067.23,143.077)">
            <tspan
               id="tspan13291"
               sodipodi:role="line"
               y="0"
               x="0 8.3418484 20.20768"
               style="font-size:15.87380028px;font-variant:normal;font-weight:bold;writing-mode:lr-tb;fill:#ffffff;fill-opacity:1;fill-rule:nonzero;stroke:none;font-family:Helvetica;-inkscape-font-specification:Helvetica-Bold">row</tspan>
          </text>
        </g>
        <path
           id="path13293"
           style="fill:#a020f0;fill-opacity:1;fill-rule:nonzero;stroke:none"
           d="M 10530.5,2026.74 L 11659.38,2026.74 L 11659.38,2536.97 L 10530.5,2536.97 L 10530.5,2026.74 z" />
        <path
           id="path13295"
           style="fill:none;stroke:#000000;stroke-width:28.34600067;stroke-linecap:butt;stroke-linejoin:miter;stroke-miterlimit:10;stroke-dasharray:none;stroke-opacity:1"
           d="M 10530.5,2026.74 L 11659.38,2026.74 L 11659.38,2536.97 L 10530.5,2536.97 L 10530.5,2026.74 z" />
        <g
           transform="scale(10,10)"
           id="g13297">
          <text
             id="text13299"
             transform="matrix(1,0,0,-1,1067.23,228.114)">
            <tspan
               id="tspan13301"
               sodipodi:role="line"
               y="0"
               x="0 10.579623 21.159246 29.087944 39.667568 45.834274 57.286953"
               style="font-size:15.87380028px;font-variant:normal;font-weight:bold;writing-mode:lr-tb;fill:#ffffff;fill-opacity:1;fill-rule:nonzero;stroke:none;font-family:Helvetica;-inkscape-font-specification:Helvetica-Bold">version</tspan>
          </text>
        </g>
        <path
           id="path13303"
           style="fill:#ff0000;fill-opacity:1;fill-rule:nonzero;stroke:none"
           d="M 11947.8,2877.12 L 13243.92,2877.12 L 13243.92,3387.347 L 11947.8,3387.347 L 11947.8,2877.12 z" />
        <path
           id="path13305"
           style="fill:none;stroke:#000000;stroke-width:28.34600067;stroke-linecap:butt;stroke-linejoin:miter;stroke-miterlimit:10;stroke-dasharray:none;stroke-opacity:1"
           d="M 11947.8,2877.12 L 13243.92,2877.12 L 13243.92,3387.347 L 11947.8,3387.347 L 11947.8,2877.12 z" />
        <g
           transform="scale(10,10)"
           id="g13307">
          <text
             id="text13309"
             transform="matrix(1,0,0,-1,1208.96,313.152)">
            <tspan
               id="tspan13311"
               sodipodi:role="line"
               y="0"
               x="0 11.963392 23.926785 35.890175 46.980507 54.530983"
               style="font-size:15.87380028px;font-variant:normal;font-weight:bold;writing-mode:lr-tb;fill:#ffffff;fill-opacity:1;fill-rule:nonzero;stroke:none;font-family:Helvetica;-inkscape-font-specification:Helvetica-Bold">update</tspan>
          </text>
        </g>
        <path
           id="path13313"
           style="fill:#0000ff;fill-opacity:1;fill-rule:nonzero;stroke:none"
           d="M 11947.8,2026.74 L 13178.02,2026.74 L 13178.02,2536.97 L 11947.8,2536.97 L 11947.8,2026.74 z" />
        <path
           id="path13315"
           style="fill:none;stroke:#000000;stroke-width:28.34600067;stroke-linecap:butt;stroke-linejoin:miter;stroke-miterlimit:10;stroke-dasharray:none;stroke-opacity:1"
           d="M 11947.8,2026.74 L 13178.02,2026.74 L 13178.02,2536.97 L 11947.8,2536.97 L 11947.8,2026.74 z" />
        <g
           transform="scale(10,10)"
           id="g13317">
          <text
             id="text13319"
             transform="matrix(1,0,0,-1,1208.96,228.114)">
            <tspan
               id="tspan13321"
               sodipodi:role="line"
               y="0"
               x="0 13.261204 24.760416 35.38657 46.012722 56.638874 67.26503 78.764236"
               style="font-size:15.87380028px;font-variant:normal;font-weight:bold;writing-mode:lr-tb;fill:#ffffff;fill-opacity:1;fill-rule:nonzero;stroke:none;font-family:Helvetica;-inkscape-font-specification:Helvetica-Bold">Checksum</tspan>
          </text>
        </g>
        <path
           id="path13323"
           style="fill:#1fd3c4;fill-opacity:1;fill-rule:nonzero;stroke:none"
           d="M 11947.8,1176.36 L 13076.68,1176.36 L 13076.68,1686.587 L 11947.8,1686.587 L 11947.8,1176.36 z" />
        <path
           id="path13325"
           style="fill:none;stroke:#000000;stroke-width:28.34600067;stroke-linecap:butt;stroke-linejoin:miter;stroke-miterlimit:10;stroke-dasharray:none;stroke-opacity:1"
           d="M 11947.8,1176.36 L 13076.68,1176.36 L 13076.68,1686.587 L 11947.8,1686.587 L 11947.8,1176.36 z" />
        <g
           transform="scale(10,10)"
           id="g13327">
          <text
             id="text13329"
             transform="matrix(1,0,0,-1,1208.96,143.077)">
            <tspan
               id="tspan13331"
               sodipodi:role="line"
               y="0"
               x="0 15.636935 26.876829 35.465797 47.578747"
               style="font-size:15.87380028px;font-variant:normal;font-weight:bold;writing-mode:lr-tb;fill:#ffffff;fill-opacity:1;fill-rule:nonzero;stroke:none;font-family:Helvetica;-inkscape-font-specification:Helvetica-Bold">Merge</tspan>
          </text>
        </g>
        <path
           id="path13333"
           style="fill:#ffffff;fill-opacity:1;fill-rule:nonzero;stroke:none"
           d="M 325.98,3500.73 L 1176.359,3500.73 L 1176.359,4237.726 L 325.98,4237.726 L 325.98,3500.73 z" />
        <path
           id="path13335"
           style="fill:none;stroke:#000000;stroke-width:28.34600067;stroke-linecap:butt;stroke-linejoin:miter;stroke-miterlimit:10;stroke-dasharray:none;stroke-opacity:1"
           d="M 325.98,3500.73 L 1176.359,3500.73 L 1176.359,4237.726 L 325.98,4237.726 L 325.98,3500.73 z" />
        <g
           transform="scale(10,10)"
           id="g13337">
          <text
             id="text13339"
             transform="matrix(1,0,0,-1,46.7711,398.191)">
            <tspan
               id="tspan13341"
               sodipodi:role="line"
               y="0"
               x="0 11.480183 22.960365 34.440548"
               style="font-size:15.87380028px;font-variant:normal;font-weight:bold;writing-mode:lr-tb;fill:#000000;fill-opacity:1;fill-rule:nonzero;stroke:none;font-family:Helvetica;-inkscape-font-specification:Helvetica-Bold">2000</tspan>
            <tspan
               id="tspan13343"
               sodipodi:role="line"
               y="22.677"
               x="0 9.0460148 18.965088"
               style="font-size:15.87380028px;font-variant:normal;font-weight:bold;writing-mode:lr-tb;fill:#000000;fill-opacity:1;fill-rule:nonzero;stroke:none;font-family:Helvetica;-inkscape-font-specification:Helvetica-Bold">Jul</tspan>
          </text>
        </g>
        <path
           id="path13345"
           style="fill:#ffffff;fill-opacity:1;fill-rule:nonzero;stroke:none"
           d="M 1459.82,3500.73 L 2310.199,3500.73 L 2310.199,4237.726 L 1459.82,4237.726 L 1459.82,3500.73 z" />
        <path
           id="path13347"
           style="fill:none;stroke:#000000;stroke-width:28.34600067;stroke-linecap:butt;stroke-linejoin:miter;stroke-miterlimit:10;stroke-dasharray:none;stroke-opacity:1"
           d="M 1459.82,3500.73 L 2310.199,3500.73 L 2310.199,4237.726 L 1459.82,4237.726 L 1459.82,3500.73 z" />
        <g
           transform="scale(10,10)"
           id="g13349">
          <text
             id="text13351"
             transform="matrix(1,0,0,-1,160.155,398.191)">
            <tspan
               id="tspan13353"
               sodipodi:role="line"
               y="0"
               x="0 11.480183 22.960365 34.440548"
               style="font-size:15.87380028px;font-variant:normal;font-weight:bold;writing-mode:lr-tb;fill:#000000;fill-opacity:1;fill-rule:nonzero;stroke:none;font-family:Helvetica;-inkscape-font-specification:Helvetica-Bold">2000</tspan>
            <tspan
               id="tspan13355"
               sodipodi:role="line"
               y="22.677"
               x="0 12.529275 23.296556"
               style="font-size:15.87380028px;font-variant:normal;font-weight:bold;writing-mode:lr-tb;fill:#000000;fill-opacity:1;fill-rule:nonzero;stroke:none;font-family:Helvetica;-inkscape-font-specification:Helvetica-Bold">Sep</tspan>
          </text>
        </g>
        <path
           id="path13357"
           style="fill:#ffffff;fill-opacity:1;fill-rule:nonzero;stroke:none"
           d="M 3160.58,3500.73 L 4041.432,3500.73 L 4041.432,4237.726 L 3160.58,4237.726 L 3160.58,3500.73 z" />
        <path
           id="path13359"
           style="fill:none;stroke:#000000;stroke-width:28.34600067;stroke-linecap:butt;stroke-linejoin:miter;stroke-miterlimit:10;stroke-dasharray:none;stroke-opacity:1"
           d="M 3160.58,3500.73 L 4041.432,3500.73 L 4041.432,4237.726 L 3160.58,4237.726 L 3160.58,3500.73 z" />
        <g
           transform="scale(10,10)"
           id="g13361">
          <text
             id="text13363"
             transform="matrix(1,0,0,-1,330.231,398.191)">
            <tspan
               id="tspan13365"
               sodipodi:role="line"
               y="0"
               x="0 11.480183 22.960365 34.440548"
               style="font-size:15.87380028px;font-variant:normal;font-weight:bold;writing-mode:lr-tb;fill:#000000;fill-opacity:1;fill-rule:nonzero;stroke:none;font-family:Helvetica;-inkscape-font-specification:Helvetica-Bold">2000</tspan>
            <tspan
               id="tspan13367"
               sodipodi:role="line"
               y="22.677"
               x="0 13.442014 25.122036"
               style="font-size:15.87380028px;font-variant:normal;font-weight:bold;writing-mode:lr-tb;fill:#000000;fill-opacity:1;fill-rule:nonzero;stroke:none;font-family:Helvetica;-inkscape-font-specification:Helvetica-Bold">Nov</tspan>
          </text>
        </g>
        <path
           id="path13369"
           style="fill:#ffffff;fill-opacity:1;fill-rule:nonzero;stroke:none"
           d="M 7129.02,3500.73 L 7979.399,3500.73 L 7979.399,4237.726 L 7129.02,4237.726 L 7129.02,3500.73 z" />
        <path
           id="path13371"
           style="fill:none;stroke:#000000;stroke-width:28.34600067;stroke-linecap:butt;stroke-linejoin:miter;stroke-miterlimit:10;stroke-dasharray:none;stroke-opacity:1"
           d="M 7129.02,3500.73 L 7979.399,3500.73 L 7979.399,4237.726 L 7129.02,4237.726 L 7129.02,3500.73 z" />
        <g
           transform="scale(10,10)"
           id="g13373">
          <text
             id="text13375"
             transform="matrix(1,0,0,-1,727.075,398.191)">
            <tspan
               id="tspan13377"
               sodipodi:role="line"
               y="0"
               x="0 11.480183 22.960365 34.440548"
               style="font-size:15.87380028px;font-variant:normal;font-weight:bold;writing-mode:lr-tb;fill:#000000;fill-opacity:1;fill-rule:nonzero;stroke:none;font-family:Helvetica;-inkscape-font-specification:Helvetica-Bold">2001</tspan>
            <tspan
               id="tspan13379"
               sodipodi:role="line"
               y="22.677"
               x="0 15.720515 27.043987"
               style="font-size:15.87380028px;font-variant:normal;font-weight:bold;writing-mode:lr-tb;fill:#000000;fill-opacity:1;fill-rule:nonzero;stroke:none;font-family:Helvetica;-inkscape-font-specification:Helvetica-Bold">Mar</tspan>
          </text>
        </g>
        <path
           id="path13381"
           style="fill:#ffffff;fill-opacity:1;fill-rule:nonzero;stroke:none"
           d="M 5428.26,3500.73 L 6278.643,3500.73 L 6278.643,4237.726 L 5428.26,4237.726 L 5428.26,3500.73 z" />
        <path
           id="path13383"
           style="fill:none;stroke:#000000;stroke-width:28.34600067;stroke-linecap:butt;stroke-linejoin:miter;stroke-miterlimit:10;stroke-dasharray:none;stroke-opacity:1"
           d="M 5428.26,3500.73 L 6278.643,3500.73 L 6278.643,4237.726 L 5428.26,4237.726 L 5428.26,3500.73 z" />
        <g
           transform="scale(10,10)"
           id="g13385">
          <text
             id="text13387"
             transform="matrix(1,0,0,-1,556.999,398.191)">
            <tspan
               id="tspan13389"
               sodipodi:role="line"
               y="0"
               x="0 11.480183 22.960365 34.440548"
               style="font-size:15.87380028px;font-variant:normal;font-weight:bold;writing-mode:lr-tb;fill:#000000;fill-opacity:1;fill-rule:nonzero;stroke:none;font-family:Helvetica;-inkscape-font-specification:Helvetica-Bold">2001</tspan>
            <tspan
               id="tspan13391"
               sodipodi:role="line"
               y="22.677"
               x="0 9.3939199 18.78784"
               style="font-size:15.87380028px;font-variant:normal;font-weight:bold;writing-mode:lr-tb;fill:#000000;fill-opacity:1;fill-rule:nonzero;stroke:none;font-family:Helvetica;-inkscape-font-specification:Helvetica-Bold">Jan</tspan>
          </text>
        </g>
        <path
           id="path13393"
           style="fill:#ffffff;fill-opacity:1;fill-rule:nonzero;stroke:none"
           d="M 8829.78,3500.73 L 9680.159,3500.73 L 9680.159,4237.726 L 8829.78,4237.726 L 8829.78,3500.73 z" />
        <path
           id="path13395"
           style="fill:none;stroke:#000000;stroke-width:28.34600067;stroke-linecap:butt;stroke-linejoin:miter;stroke-miterlimit:10;stroke-dasharray:none;stroke-opacity:1"
           d="M 8829.78,3500.73 L 9680.159,3500.73 L 9680.159,4237.726 L 8829.78,4237.726 L 8829.78,3500.73 z" />
        <g
           transform="scale(10,10)"
           id="g13397">
          <text
             id="text13399"
             transform="matrix(1,0,0,-1,897.151,398.191)">
            <tspan
               id="tspan13401"
               sodipodi:role="line"
               y="0"
               x="0 11.480183 22.960365 34.440548"
               style="font-size:15.87380028px;font-variant:normal;font-weight:bold;writing-mode:lr-tb;fill:#000000;fill-opacity:1;fill-rule:nonzero;stroke:none;font-family:Helvetica;-inkscape-font-specification:Helvetica-Bold">2001</tspan>
            <tspan
               id="tspan13403"
               sodipodi:role="line"
               y="22.677"
               x="0 9.0460148 18.965088"
               style="font-size:15.87380028px;font-variant:normal;font-weight:bold;writing-mode:lr-tb;fill:#000000;fill-opacity:1;fill-rule:nonzero;stroke:none;font-family:Helvetica;-inkscape-font-specification:Helvetica-Bold">Jul</tspan>
          </text>
        </g>
        <path
           id="path13405"
           style="fill:#ffffff;fill-opacity:1;fill-rule:nonzero;stroke:none"
           d="M 10530.5,3500.73 L 11380.883,3500.73 L 11380.883,4237.726 L 10530.5,4237.726 L 10530.5,3500.73 z" />
        <path
           id="path13407"
           style="fill:none;stroke:#000000;stroke-width:28.34600067;stroke-linecap:butt;stroke-linejoin:miter;stroke-miterlimit:10;stroke-dasharray:none;stroke-opacity:1"
           d="M 10530.5,3500.73 L 11380.883,3500.73 L 11380.883,4237.726 L 10530.5,4237.726 L 10530.5,3500.73 z" />
        <g
           transform="scale(10,10)"
           id="g13409">
          <text
             id="text13411"
             transform="matrix(1,0,0,-1,1067.23,398.191)">
            <tspan
               id="tspan13413"
               sodipodi:role="line"
               y="0"
               x="0 11.480183 22.960365 34.440548"
               style="font-size:15.87380028px;font-variant:normal;font-weight:bold;writing-mode:lr-tb;fill:#000000;fill-opacity:1;fill-rule:nonzero;stroke:none;font-family:Helvetica;-inkscape-font-specification:Helvetica-Bold">2001</tspan>
            <tspan
               id="tspan13415"
               sodipodi:role="line"
               y="22.677"
               x="0 13.292733 24.823475"
               style="font-size:15.87380028px;font-variant:normal;font-weight:bold;writing-mode:lr-tb;fill:#000000;fill-opacity:1;fill-rule:nonzero;stroke:none;font-family:Helvetica;-inkscape-font-specification:Helvetica-Bold">Aug</tspan>
          </text>
        </g>
        <path
           id="path13417"
           style="fill:#ffffff;fill-opacity:1;fill-rule:nonzero;stroke:none"
           d="M 11947.8,3500.73 L 12798.179,3500.73 L 12798.179,4237.726 L 11947.8,4237.726 L 11947.8,3500.73 z" />
        <path
           id="path13419"
           style="fill:none;stroke:#000000;stroke-width:28.34600067;stroke-linecap:butt;stroke-linejoin:miter;stroke-miterlimit:10;stroke-dasharray:none;stroke-opacity:1"
           d="M 11947.8,3500.73 L 12798.179,3500.73 L 12798.179,4237.726 L 11947.8,4237.726 L 11947.8,3500.73 z" />
        <g
           transform="scale(10,10)"
           id="g13421">
          <text
             id="text13423"
             transform="matrix(1,0,0,-1,1208.96,398.191)">
            <tspan
               id="tspan13425"
               sodipodi:role="line"
               y="0"
               x="0 11.480183 22.960365 34.440548"
               style="font-size:15.87380028px;font-variant:normal;font-weight:bold;writing-mode:lr-tb;fill:#000000;fill-opacity:1;fill-rule:nonzero;stroke:none;font-family:Helvetica;-inkscape-font-specification:Helvetica-Bold">2001</tspan>
            <tspan
               id="tspan13427"
               sodipodi:role="line"
               y="22.677"
               x="0 12.529275 23.296556"
               style="font-size:15.87380028px;font-variant:normal;font-weight:bold;writing-mode:lr-tb;fill:#000000;fill-opacity:1;fill-rule:nonzero;stroke:none;font-family:Helvetica;-inkscape-font-specification:Helvetica-Bold">Sep</tspan>
          </text>
        </g>
      </g>
    </g>
    <text
       xml:space="preserve"
       style="font-size:24px;font-style:normal;font-weight:bold;writing-mode:lr-tb;fill:#000000;fill-opacity:1;stroke:none;stroke-width:1px;stroke-linecap:butt;stroke-linejoin:miter;stroke-opacity:1;font-family:Sans;-inkscape-font-specification:Sans"
       x="56.476524"
       y="735.03339"
       id="text14335"><tspan
         sodipodi:role="line"
         id="tspan14337"
         x="56.476524"
         y="735.03339">MySQL 3.23 Case Study</tspan></text>
    <path
       style="fill:#ffffff;fill-rule:evenodd;stroke:#000000;stroke-width:0.63930029px;stroke-linecap:butt;stroke-linejoin:miter;stroke-opacity:1"
       d="M 31.218973,981.75898 C 34.831841,982.41607 41.686848,981.30812 46.26715,980.03822 C 53.0528,978.15689 59.657796,976.6116 66.544193,973.59925 C 72.121415,971.15958 78.583532,970.43327 83.420444,968.6479 C 87.089013,967.29378 90.716197,966.37714 94.015984,964.62077 C 97.385687,962.82718 102.47616,961.18567 105.87618,960.24301 C 108.86092,959.41549 110.4344,956.05324 111.67862,960.54088 C 112.9526,965.13591 113.22978,967.23569 113.61217,971.4445 C 113.98591,975.55821 116.70879,977.12292 112.00708,978.42648 C 109.77332,979.04579 105.82252,981.57035 103.46257,982.97446 C 100.01797,985.02387 96.30422,986.57144 92.038112,986.95903 C 88.879329,987.24602 85.890369,989.46058 82.707229,990.63553 C 78.444414,992.20899 74.707577,993.12582 70.889587,994.18436 C 70.046489,994.41812 69.203387,994.65187 68.360276,994.88563 C 64.023295,996.08806 59.547404,997.57214 55.320539,997.95617 C 51.683145,998.28664 48.116545,999.2 44.852636,999.49657 C 41.060497,999.84109 37.604797,999.95556 34.0342,999.77223 C 28.017882,999.4634 27.892944,1000.0498 25.521996,995.59532 C 24.705183,994.06062 26.283537,989.32832 26.733928,988.17757 C 27.665125,985.79827 30.164341,984.45363 31.218973,981.75898 z"
       id="path14339" />
    <g
       id="g14381"
       transform="matrix(0.7163259,0,0,0.7252371,-5.6507066,285.73792)">
      <path
         id="path3078"
         d="M 91.076632,934.37219 C 91.136118,934.3127 102.03143,946.64638 103.30967,947.66897 C 112.24456,954.81688 113.86987,964.24416 120.86142,972.40093 C 127.32612,979.94313 129.2572,990.15183 134.1582,998.72863 C 136.40646,1002.663 134.70154,1008.5063 136.55162,1012.8232 C 138.29152,1016.8829 134.8235,1022.928 132.82852,1026.1199 C 132.48973,1026.662 132.11936,1027.1837 131.76478,1027.7156 C 129.43836,1031.2052 120.66647,1031.7112 117.13832,1033.0343 C 114.35726,1034.0771 91.573445,1036.2255 87.61947,1036.2255 C 75.26243,1036.2255 62.059869,1039.6826 49.324747,1039.6826 C 36.422179,1039.6826 24.02356,1037.0233 11.295956,1037.0233 C 5.2922529,1037.0233 -5.8194171,1035.7788 -10.776697,1033.3002 C -14.887167,1031.245 -17.956958,1023.4715 -17.956958,1019.4715 C -17.956958,1013.1018 -20.603739,1007.1756 -19.286636,1000.5901 C -17.946739,993.89063 -16.898205,986.68113 -13.436052,980.91093 C -10.723597,976.39013 -9.1349641,971.27573 -5.9898581,967.08226 C -3.9711641,964.39068 -2.8332111,961.00033 -0.13927415,958.30639 C 2.3480119,955.8191 4.7089579,952.55124 6.7750549,949.79645 C 7.2325839,949.18641 7.6615029,948.55542 8.1047319,947.9349 C 9.6691079,945.74477 13.524581,943.00572 15.816863,941.28651 C 18.477781,939.29082 20.289477,937.05569 22.997124,935.70187 C 25.96645,934.2172 28.989538,933.10456 31.773,931.71283 C 35.589626,929.80452 41.042441,930.66186 45.069778,929.31941 C 48.255784,928.25741 53.762168,929.31941 57.036878,929.31941 C 61.330226,929.31941 65.239652,930.64909 69.535853,930.64909 C 71.746692,930.64909 73.90889,931.21048 75.918307,931.71283 C 78.108864,932.26047 80.802574,932.77657 83.098568,932.77657 C 84.521999,932.77657 86.24618,933.29972 87.61947,933.57438 C 88.90425,933.83134 89.661204,934.13628 91.076632,934.37219 z"
         style="fill:#00ffff;fill-rule:evenodd;stroke:#000000;stroke-width:0.52652562px;stroke-linecap:butt;stroke-linejoin:miter;stroke-opacity:1" />
      <path
         id="path3082"
         d="M 92.406314,948.99864 C 94.823045,949.48199 89.628139,953.1065 87.885407,954.84923 C 85.738299,956.99633 84.9867,959.56161 82.566698,961.49762 C 81.04168,962.71763 81.494992,964.95677 79.375469,965.48665 C 77.396306,965.98144 73.30813,962.07867 71.929275,960.69981 C 69.54095,958.31149 66.510516,955.69093 64.483076,952.98768 C 62.893338,950.86802 59.455542,948.94816 60.759977,946.33929 C 61.936451,943.98635 67.95426,941.81838 70.599593,941.81838 C 73.690372,941.81838 76.332919,939.95683 79.375469,939.95683 C 81.127293,939.95683 84.767602,941.87712 86.02386,942.88213 C 86.369961,943.15901 86.733022,943.414 87.0876,943.67993 C 88.515743,944.75103 90.043509,945.57209 91.342569,946.87116 C 91.873681,947.40227 92.152371,948.36378 92.406314,948.99864 z"
         style="fill:#ffffff;fill-rule:evenodd;stroke:#000000;stroke-width:0.52652562px;stroke-linecap:butt;stroke-linejoin:miter;stroke-opacity:1" />
      <path
         id="path3110"
         d="M 40.454144,856.27448 C 41.01324,857.01994 40.735466,854.30075 41.394366,853.64186 C 43.803036,851.23318 44.592198,850.25705 47.787892,850.25705 C 52.963818,850.25705 52.214988,856.45288 57.378182,850.25705 C 60.104642,846.98529 63.034326,850.80429 64.523882,852.88968 C 65.330361,854.01874 67.085308,851.57336 68.472824,851.57336 C 70.420711,851.57336 72.26393,857.76033 72.797858,859.09515 C 73.86422,861.76106 70.003392,863.90995 71.105452,864.7365 C 72.654838,865.89854 72.419944,869.00189 71.481544,870.56589 C 70.385944,872.39189 67.91565,871.34589 68.472824,873.57461 C 69.046121,875.86778 68.858931,879.02591 66.028245,879.59204 C 63.245752,880.14854 62.60962,881.28445 59.258626,881.28445 C 55.572426,881.28445 53.953676,879.57219 50.984656,878.08769 C 48.366649,876.77869 47.5164,874.61943 45.531356,872.63439 C 43.584222,870.68725 43.309171,867.47219 42.522636,865.11259 C 41.998227,863.53937 42.180779,861.71935 41.582414,860.22343 C 41.185551,859.23127 41.10128,858.32094 40.642187,857.40275 C 40.471677,857.06173 40.516827,856.65057 40.454144,856.27448 z"
         style="fill:#ffccaa;fill-rule:evenodd;stroke:#000000;stroke-width:0.52652562px;stroke-linecap:butt;stroke-linejoin:miter;stroke-opacity:1" />
      <path
         id="path3084"
         d="M 95.125376,919.75805 C 99.50142,923.69151 99.638454,932.62089 99.638454,940.06689 C 99.638454,948.95162 85.497203,952.94432 80.081787,955.11048 C 70.0097,959.13932 62.982905,961.12792 50.746792,961.12792 C 35.776122,961.12792 29.615525,956.93239 18.403078,947.58869 C 12.090926,942.32856 7.1203869,926.80164 7.1203869,919.00587 C 7.1203869,908.5643 3.7503759,899.41961 8.6247439,889.67087 C 9.3339059,888.25255 9.6276489,886.66216 10.129102,885.1578 C 12.884163,876.89261 13.926594,872.29756 17.650899,864.84895 C 20.554488,859.04176 29.485673,855.30109 35.703203,852.81408 C 42.466735,850.10867 54.746186,849.23206 60.525126,853.56626 C 66.131828,857.77129 70.829958,859.70902 74.816531,866.35331 C 78.15533,871.91797 80.531787,876.27946 83.090507,881.3969 C 84.961769,885.13942 87.332371,890.09037 88.355763,894.18395 C 89.385695,898.30367 91.06876,902.61866 92.86884,906.21882 C 94.801726,910.08459 95.125376,915.09283 95.125376,919.75805 z"
         style="fill:#ffe6d5;fill-rule:evenodd;stroke:#000000;stroke-width:0.52652562px;stroke-linecap:butt;stroke-linejoin:miter;stroke-opacity:1" />
      <path
         sodipodi:nodetypes="cssc"
         id="path3086"
         d="M 72.584447,877.51653 C 74.806811,876.56094 79.786169,878.15528 78.559212,883.06311 C 77.712069,886.45168 72.859535,883.85507 71.685715,882.68125 C 69.924034,880.91957 71.41398,878.97962 72.584447,877.51653 z"
         style="fill:#000000;fill-rule:evenodd;stroke:#000000;stroke-width:0.26730263px;stroke-linecap:butt;stroke-linejoin:miter;stroke-opacity:1" />
      <path
         sodipodi:nodetypes="csssc"
         id="path3088"
         d="M 56.476523,878.9142 C 57.611912,879.63612 59.267414,881.15503 59.267414,883.20391 C 59.267414,885.49037 55.320978,885.6847 53.478892,885.6847 C 49.310741,885.6847 50.456687,881.64834 50.998093,879.48272 C 51.338981,878.11917 54.709224,878.75915 56.476523,878.9142 z"
         style="fill:#000000;fill-rule:evenodd;stroke:#000000;stroke-width:0.28942627px;stroke-linecap:butt;stroke-linejoin:miter;stroke-opacity:1" />
      <path
         sodipodi:nodetypes="csssc"
         id="path3090"
         d="M 88.811087,897.55863 C 88.066506,895.66146 92.314914,891.61256 90.680463,889.56949 C 88.842215,887.27168 87.210086,887.31296 84.474985,887.31296 C 79.044663,887.31296 75.478295,887.2042 71.123802,889.38145 C 69.351211,890.26774 69.243352,893.13475 69.243352,894.83475"
         style="fill:#ffe6d5;fill-rule:evenodd;stroke:#000000;stroke-width:0.52652562px;stroke-linecap:butt;stroke-linejoin:miter;stroke-opacity:1" />
      <g
         transform="matrix(-0.5265256,0,0,0.5265256,66.037912,520.83625)"
         id="g3217">
        <path
           style="fill:#000000;fill-rule:evenodd;stroke:#000000;stroke-width:1px;stroke-linecap:butt;stroke-linejoin:miter;stroke-opacity:1"
           d="M -51.772451,754.68021 C -52.266561,754.87785 -45.572731,755.58867 -40.701021,757.53735 C -37.067121,758.99091 -29.351661,759.32307 -25.701021,759.32307 C -18.857611,759.32307 -12.353971,760.03735 -5.3438813,760.03735 C -0.13931127,760.03735 4.2507887,758.60878 9.2989787,758.60878 C 11.807309,758.60878 14.500659,757.99702 16.798979,757.53735 C 21.790639,756.53902 20.367479,760.39157 23.227549,763.25164 C 25.617279,765.64136 23.505709,772.16648 22.156119,773.96592 C 19.416019,777.61939 15.756999,782.34406 11.798979,784.32307 C 7.5606887,786.44221 4.8487587,790.03735 -0.34388127,790.03735 C -6.7856513,790.03735 -13.552581,791.46592 -20.343881,791.46592 C -25.243151,791.46592 -30.576011,792.11235 -34.629591,789.68021 C -38.063441,787.6199 -40.993041,786.27158 -42.486731,782.53735 C -44.266191,778.0887 -46.830671,773.84949 -48.915311,769.68021 C -50.208291,767.09423 -50.034301,764.48994 -50.701021,761.82307 C -51.384991,759.0872 -52.333941,757.48768 -51.772451,754.68021 z"
           id="path3092" />
        <path
           style="fill:#ffffff;fill-rule:evenodd;stroke:#000000;stroke-width:1px;stroke-linecap:butt;stroke-linejoin:miter;stroke-opacity:1"
           d="M -44.986741,757.8945 C -44.988881,757.88593 -46.772451,762.21843 -46.772451,766.10878 C -46.772451,768.60934 -45.023961,770.03735 -42.843881,770.03735 C -39.918501,770.03735 -37.695891,771.16994 -36.058161,767.8945 C -35.143251,766.06467 -35.343881,763.56919 -35.343881,761.46592 C -35.343881,759.58058 -36.728981,758.28424 -38.201021,757.18021 C -40.266461,755.63113 -43.182571,756.45116 -44.986741,757.8945 z"
           id="path3094" />
        <path
           style="fill:#ffffff;fill-rule:evenodd;stroke:#000000;stroke-width:1px;stroke-linecap:butt;stroke-linejoin:miter;stroke-opacity:1"
           d="M -34.281781,758.21757 C -34.283921,758.209 -36.067491,762.5415 -36.067491,766.43185 C -36.067491,768.93241 -34.319001,770.36042 -32.138921,770.36042 C -29.213541,770.36042 -26.990931,771.49301 -25.353201,768.21757 C -24.438291,766.38774 -24.638921,763.89226 -24.638921,761.78899 C -24.638921,759.90365 -26.024021,758.60731 -27.496061,757.50328 C -29.561501,755.9542 -32.477611,756.77423 -34.281781,758.21757 z"
           id="path3096" />
        <path
           style="fill:#ffffff;fill-rule:evenodd;stroke:#000000;stroke-width:1px;stroke-linecap:butt;stroke-linejoin:miter;stroke-opacity:1"
           d="M -23.567491,758.57471 C -23.569631,758.56614 -25.353201,762.89864 -25.353201,766.78899 C -25.353201,769.28955 -23.604711,770.71756 -21.424631,770.71756 C -18.499251,770.71756 -16.276641,771.85015 -14.638911,768.57471 C -13.724001,766.74488 -13.924631,764.2494 -13.924631,762.14613 C -13.924631,760.26079 -15.309731,758.96445 -16.781771,757.86042 C -18.847211,756.31134 -21.763321,757.13137 -23.567491,758.57471 z"
           id="path3098" />
        <path
           style="fill:#ffffff;fill-rule:evenodd;stroke:#000000;stroke-width:1px;stroke-linecap:butt;stroke-linejoin:miter;stroke-opacity:1"
           d="M -12.138921,758.93186 C -12.141061,758.92329 -13.924631,763.25579 -13.924631,767.14614 C -13.924631,769.6467 -12.176141,771.07471 -9.9960613,771.07471 C -7.0706813,771.07471 -4.8480713,772.2073 -3.2103413,768.93186 C -2.2954313,767.10203 -2.4960613,764.60655 -2.4960613,762.50328 C -2.4960613,760.61794 -3.8811613,759.3216 -5.3532013,758.21757 C -7.4186413,756.66849 -10.334751,757.48852 -12.138921,758.93186 z"
           id="path3100" />
        <path
           style="fill:#ffffff;fill-rule:evenodd;stroke:#000000;stroke-width:1px;stroke-linecap:butt;stroke-linejoin:miter;stroke-opacity:1"
           d="M -1.4246413,758.21757 C -1.4267813,758.209 -3.2103513,762.5415 -3.2103513,766.43185 C -3.2103513,768.93241 -1.4618613,770.36042 0.71821873,770.36042 C 3.6435987,770.36042 5.8662087,771.49301 7.5039387,768.21757 C 8.4188487,766.38774 8.2182187,763.89226 8.2182187,761.78899 C 8.2182187,759.90365 6.8331187,758.60731 5.3610787,757.50328 C 3.2956387,755.9542 0.37952873,756.77423 -1.4246413,758.21757 z"
           id="path3102" />
        <path
           style="fill:#ffffff;fill-rule:evenodd;stroke:#000000;stroke-width:1px;stroke-linecap:butt;stroke-linejoin:miter;stroke-opacity:1"
           d="M 9.6467887,757.86043 C 9.6446487,757.85186 7.8610787,762.18436 7.8610787,766.07471 C 7.8610787,768.57527 9.6095687,770.00328 11.789649,770.00328 C 14.715029,770.00328 16.937639,771.13587 18.575369,767.86043 C 19.490279,766.0306 19.289649,763.53512 19.289649,761.43185 C 19.289649,759.54651 17.904549,758.25017 16.432509,757.14614 C 14.367069,755.59706 11.450959,756.41709 9.6467887,757.86043 z"
           id="path3104" />
        <path
           style="fill:#ffe6d5;fill-rule:evenodd;stroke:#000000;stroke-width:1px;stroke-linecap:butt;stroke-linejoin:miter;stroke-opacity:1"
           d="M -54.986741,749.68021 C -55.338881,750.84566 -54.673021,754.14935 -54.272451,755.75164 C -53.645641,758.25887 -51.637611,759.45791 -49.986741,761.10878 C -47.850681,763.24484 -43.554291,763.32461 -41.058161,764.32307 C -38.250401,765.44617 -34.652371,765.17565 -31.772451,765.75164 C -28.343961,766.43734 -22.791831,767.18021 -19.629591,767.18021 C -15.110461,767.18021 -10.966041,768.25164 -6.4153113,768.25164 C -2.1295913,768.25164 2.1561187,768.25164 6.4418387,768.25164 C 9.8942187,768.25164 13.346599,768.25164 16.798979,768.25164 C 20.128219,768.25164 22.916069,766.01746 24.298979,763.25164 C 25.978389,759.89281 28.584689,757.85751 28.584689,753.96592 C 28.584689,753.48973 28.584689,753.01354 28.584689,752.53735"
           id="path3106" />
        <path
           style="fill:#ff0000;fill-rule:evenodd;stroke:#000000;stroke-width:1px;stroke-linecap:butt;stroke-linejoin:miter;stroke-opacity:1"
           d="M -32.129601,787.8945 C -32.129601,787.41831 -32.129601,787.41831 -32.129601,787.8945 C -32.129601,790.41378 -30.255991,779.32307 -23.558171,779.32307 C -21.637371,779.32307 -19.613511,782.21238 -18.915311,783.60878 C -18.108641,785.22212 -11.992631,780.86173 -10.343881,780.03735 C -6.0694013,777.90011 -3.8153713,784.06586 -1.7724513,786.10878 C -1.2367013,786.64454 -1.4153113,788.67501 -1.4153113,789.68021"
           id="path3108" />
      </g>
      <path
         id="path3112"
         d="M 5.4279809,856.19888 C 4.5315499,854.40603 14.129264,854.89538 15.582401,855.25866 C 18.104422,855.88917 25.172691,856.70217 25.172691,859.95978 C 25.172691,861.9135 25.650471,864.0661 25.172691,865.97722 C 24.39853,869.07387 21.448865,869.2852 22.540063,872.55879 C 23.994432,876.9219 24.048106,879.70081 20.847657,882.90126 C 20.563855,883.18506 20.346205,883.52807 20.095478,883.84148 C 19.002669,885.20749 15.462232,886.62822 13.89,887.41433 C 10.810631,888.95402 7.2998379,887.54892 4.8638459,885.72193 C 4.4721999,885.4282 4.1116669,885.09512 3.7355749,884.78171 C 2.5699109,883.81031 1.5715599,887.03884 0.16272485,887.60238 C -3.9328441,889.2406 -6.3538721,882.78162 -7.3590671,880.26863 C -7.4844331,879.95522 -7.6097931,879.64181 -7.7351591,879.32841 C -8.9369111,876.32402 -5.1170841,874.26159 -3.7862171,873.31097 C -2.8737901,872.65924 -5.8979061,872.47938 -6.7949371,871.80661 C -9.9580031,869.43431 -6.5115711,866.03286 -4.5383961,864.84895 C -3.7916931,864.40093 -3.0340381,863.97141 -2.2818601,863.53264 C 0.95122885,861.64667 1.1316589,866.10518 -3.7862171,862.59241 C -6.8470471,860.4061 -7.7963521,858.76585 -6.2308021,855.63475 C -5.4537551,854.08066 0.79495585,853.37821 2.4192609,853.37821 C 3.0931349,853.37821 5.1263079,855.6961 5.4279809,856.19888 z"
         style="fill:#ffccaa;fill-rule:evenodd;stroke:#000000;stroke-width:0.52652562px;stroke-linecap:butt;stroke-linejoin:miter;stroke-opacity:1" />
      <path
         id="path3114"
         d="M 81.502953,966.28446 C 81.317469,965.54252 83.253993,970.27953 85.226053,973.73063 C 87.504229,977.71743 89.42372,982.36323 91.076637,986.49553 C 91.327363,987.12233 91.608507,987.73663 91.874439,988.35713 C 93.303682,991.69203 94.267861,995.05093 94.267861,998.72863 C 94.267861,1001.3813 94.117412,1004.4234 93.204121,1006.7066 C 92.153413,1009.3334 91.545034,1011.3545 90.278829,1013.8869 C 88.98246,1016.4796 86.3608,1018.5791 84.694178,1020.8012 C 83.020737,1023.0325 81.016254,1024.9571 78.311724,1022.9287 C 75.466358,1020.7947 73.17355,1018.8543 70.599593,1016.2803 C 68.703474,1014.3842 68.255964,1011.5931 67.142431,1009.366 C 66.259974,1007.6011 66.610561,1004.9538 66.610561,1002.9835 C 66.610561,999.86493 66.569229,996.97033 67.674301,994.20773 C 68.767368,991.47503 67.726343,988.14893 68.472108,985.16593 C 69.156965,982.42643 70.067723,978.90903 70.067723,976.12403 C 70.067723,972.86003 73.927593,969.58963 74.58863,966.28446"
         style="fill:#ff0000;fill-rule:evenodd;stroke:#000000;stroke-width:0.52652562px;stroke-linecap:butt;stroke-linejoin:miter;stroke-opacity:1" />
      <path
         id="path3116"
         d="M 74.58863,962.56136 C 75.759617,963.73235 77.71944,961.23169 79.375469,961.23169 C 81.995307,961.23169 82.433282,963.48992 82.832631,965.48665 C 83.149194,967.06946 81.740037,968.4408 80.705146,969.47569 C 80.003103,970.17773 76.745257,969.74163 75.652369,969.74163 C 74.203724,969.74163 72.96791,966.44998 72.727077,965.48665 C 72.300449,963.78015 73.087116,963.16197 74.58863,962.56136 z"
         style="fill:#ff0000;fill-rule:evenodd;stroke:#000000;stroke-width:0.52652562px;stroke-linecap:butt;stroke-linejoin:miter;stroke-opacity:1" />
      <path
         id="path3130"
         d="M 95.387248,959.06194 C 93.414064,958.20494 91.1482,955.63802 88.142944,954.9512 C 84.996248,954.23205 82.346709,955.87365 79.595171,956.544 C 79.21,956.63783 78.824838,956.73167 78.439668,956.82551 C 74.907391,957.68604 71.719198,960.89205 68.543894,961.92931 C 63.879242,963.45311 59.668443,963.10138 55.114848,964.58889 C 51.725912,965.69594 46.674795,964.02397 43.152287,963.21893 C 40.427211,962.59615 37.135529,962.38945 34.219246,961.72296 C 31.928357,961.1994 29.461096,960.25459 27.300963,960.96024 C 24.950864,961.72793 21.660048,960.57645 20.967958,963.60478 C 20.177967,967.06146 19.387981,970.51815 18.59799,973.97483 C 17.907411,976.99654 19.604964,979.88486 21.983279,981.84112 C 25.569917,984.79118 29.388024,987.89801 33.997863,988.95158 C 39.776789,990.27228 43.764042,991.5911 49.249188,990.25482 C 50.01952,990.06711 50.78985,989.8794 51.560194,989.69179 C 56.791402,988.41728 61.409421,987.53709 66.522481,986.29141 C 71.080628,985.18095 76.112502,983.60007 80.284772,980.98011 C 80.709443,980.71344 81.134105,980.44677 81.558777,980.1801 C 84.194926,978.52468 86.426506,976.54612 88.86203,974.4838 C 90.956925,972.70995 94.212421,971.35386 95.328288,968.86898 C 97.24347,964.60416 97.971684,960.84979 94.209486,958.2472 C 93.946632,958.06536 93.769991,957.78302 93.550229,957.55094"
         style="fill:#ffffff;fill-rule:evenodd;stroke:#000000;stroke-width:0.52652562px;stroke-linecap:butt;stroke-linejoin:miter;stroke-opacity:1" />
      <path
         id="path3080"
         d="M 88.876167,956.69991 C 89.213115,956.85966 93.823994,949.21177 94.840548,948.26934 C 96.687779,946.5568 97.040841,944.51855 99.616516,946.38008 C 101.23834,947.55223 101.09563,950.3012 101.28232,952.08848 C 101.44169,953.61429 98.944832,955.70607 97.910089,956.66537 C 97.338676,957.19511 104.9533,957.75111 108.14257,954.7944 C 109.66398,953.38392 111.99547,955.03874 112.98556,956.10671 C 114.52121,957.76313 113.34423,959.92358 112.41066,961.35399 C 111.06809,963.41106 107.39536,963.93257 105.51791,964.4804 C 103.47853,965.07554 101.51072,965.26968 104.5428,965.3844 C 105.66135,965.42676 107.49923,968.05658 108.36806,968.72821 C 109.75555,969.80076 111.10641,970.89469 111.60823,972.61435 C 112.21692,974.70022 109.69946,975.54103 108.29289,975.68797 C 105.46467,975.98343 104.10967,975.88212 101.9466,974.31878 C 100.3267,973.14804 100.65687,971.67403 98.872993,971.00343 C 96.141673,969.9767 100.12396,975.73629 100.37223,976.141 C 101.72869,978.35256 96.053874,979.55302 95.163555,979.51936 C 93.287263,979.44831 90.190338,976.67481 90.267716,974.62958 C 90.329696,972.99205 86.767365,971.58036 87.531325,967.37523 C 88.093442,964.28121 88.26856,961.31172 87.120976,958.32712 C 87.049849,958.1421 87.260478,957.95604 87.330218,957.77049"
         style="fill:#f4e3d7;fill-rule:evenodd;stroke:#000000;stroke-width:0.52652562px;stroke-linecap:butt;stroke-linejoin:miter;stroke-opacity:1" />
    </g>
    <path
       id="path14341"
       d="M 109.64882,962.55553 C 110.83908,961.22766 112.28109,956.3597 114.98806,954.46627 C 116.71045,953.26152 118.36938,954.44969 119.54805,955.5301 C 120.46756,956.37296 120.52099,957.76631 120.25984,958.77925 C 119.86526,960.30983 123.57869,959.5362 124.03974,960.94571 C 124.47182,962.26663 122.80428,962.92925 124.11688,964.13243 C 125.1749,965.10225 125.70751,965.9849 125.20868,967.47023 C 124.7582,968.81158 123.19518,970.17005 122.22574,971.22765 C 121.51657,972.00131 119.04364,972.66624 117.87624,972.95345 C 116.25537,973.35222 115.10715,972.39615 113.68421,972.74623 C 113.39025,972.81855 111.9437,971.1508 111.67897,970.90814 C 111.00621,970.29147 110.44472,968.75844 110.32848,967.85257 C 110.19258,966.79331 109.62897,965.84834 109.48734,964.74453 C 109.37924,963.902 109.40826,963.48863 109.64882,962.55553 z"
       style="fill:#ffe6d5;fill-rule:evenodd;stroke:#000000;stroke-width:0.35717034px;stroke-linecap:butt;stroke-linejoin:miter;stroke-opacity:1" />
    <g
       id="g14373"
       transform="matrix(0.6393003,0,0,0.6393003,-73.308793,338.0459)">
      <g
         transform="matrix(5.5752016e-3,3.3540574e-2,3.3540574e-2,-5.5752016e-3,378.62847,949.01712)"
         id="g11628">
        <path
           style="fill:#808000;fill-rule:evenodd;stroke:#000000;stroke-width:0.93984586px;stroke-linecap:butt;stroke-linejoin:miter;stroke-opacity:1"
           d="M -315.14486,-2546.9351 C -292.5243,-2546.9351 -218.32139,-2546.8664 -185.83947,-2561.211 C -175.87203,-2565.6127 -185.83947,-2686.4455 -185.83947,-2696.831 C -185.83947,-2748.4037 -196.66872,-2792.1932 -210.08423,-2839.589 C -227.26968,-2900.3039 -282.29146,-2941.9249 -307.06328,-2996.6229 C -328.20532,-3043.3061 -409.51801,-3077.5579 -452.53186,-3096.5535 C -516.39478,-3124.7563 -591.8536,-3128.9588 -662.65313,-3139.3809 C -720.58334,-3147.9085 -789.73623,-3139.3809 -848.52965,-3139.3809 C -916.33402,-3139.3809 -1035.3569,-3081.4379 -1082.8957,-3039.4502 C -1144.803,-2984.7719 -1210.9434,-2962.4144 -1260.6906,-2903.8301 C -1315.4419,-2839.3527 -1400.035,-2804.1221 -1422.3224,-2725.3826 C -1443.4155,-2650.8622 -1470.8119,-2591.1561 -1470.8119,-2504.1078 C -1470.8119,-2417.6856 -1490.02,-2331.504 -1462.7303,-2247.1434 C -1443.0158,-2186.2 -1392.714,-2121.0618 -1349.5881,-2082.9717 C -1288.6979,-2029.1916 -1235.3892,-1986.1434 -1163.7115,-1954.4894 C -1108.0039,-1929.8881 -953.76945,-1933.0758 -897.01917,-1933.0758 C -803.67734,-1933.0758 -713.38473,-1940.2137 -622.2452,-1940.2137 C -550.16346,-1940.2137 -478.90593,-1982.5709 -412.12392,-1997.3168 C -357.99158,-2009.2697 -305.58133,-2023.2811 -258.57375,-2054.42 C -200.87245,-2092.6427 -174.08692,-2156.2863 -161.59471,-2211.4539 C -151.43398,-2256.3252 -153.51312,-2300.6264 -153.51312,-2347.0739 C -153.51312,-2389.4168 -152.75276,-2429.3709 -161.59471,-2468.4183 C -170.64601,-2508.3901 -239.14061,-2511.2456 -274.73693,-2511.2456 C -342.39022,-2511.2456 -322.17616,-2466.563 -298.98169,-2425.5909 C -276.95289,-2386.6779 -274.73693,-2346.1672 -274.73693,-2297.1086 C -274.73693,-2255.7668 -294.85431,-2218.7447 -315.14486,-2182.9023 C -339.48409,-2139.908 -362.1925,-2110.6939 -404.04233,-2082.9717 C -437.17025,-2061.027 -491.63787,-2047.2822 -533.34773,-2047.2822 C -572.24854,-2047.2822 -645.40726,-2027.892 -686.89789,-2018.7305 C -735.52466,-2007.9934 -783.43901,-1997.3168 -832.36647,-1997.3168 C -883.134,-1997.3168 -927.63063,-2004.4548 -977.83504,-2004.4548 C -1027.1144,-2004.4548 -1071.5615,-2025.8684 -1123.3036,-2025.8684 C -1170.529,-2025.8684 -1231.7306,-2064.5312 -1260.6906,-2090.1095 C -1298.0153,-2123.0758 -1327.7837,-2172.9372 -1349.5881,-2211.4539 C -1371.5907,-2250.3206 -1370.7017,-2300.3226 -1381.9144,-2339.936 C -1392.0073,-2375.5932 -1381.8604,-2418.2145 -1389.996,-2454.1424 C -1398.0683,-2489.7908 -1389.317,-2535.658 -1381.9144,-2568.3489 C -1372.8874,-2608.2133 -1341.5065,-2632.0122 -1341.5065,-2675.4174 C -1341.5065,-2710.4694 -1294.5489,-2755.6601 -1284.9353,-2789.6238 C -1278.595,-2812.0235 -1214.7695,-2867.4952 -1196.0379,-2889.5544 C -1166.9973,-2923.7538 -1110.7544,-2957.7414 -1074.8141,-2989.485 C -1042.3589,-3018.1503 -987.502,-3037.3157 -945.50869,-3046.5881 C -889.16811,-3059.0285 -853.69138,-3082.2776 -791.95853,-3082.2776 C -738.74563,-3082.2776 -678.49293,-3089.4156 -622.2452,-3089.4156 C -578.54337,-3089.4156 -532.81753,-3076.8072 -492.93979,-3068.0019 C -444.43072,-3057.2907 -405.64967,-2992.3243 -387.87916,-2960.9334 C -365.7221,-2921.7938 -359.10998,-2887.8458 -347.47122,-2846.727 C -337.62572,-2811.9436 -332.91132,-2773.8743 -323.22645,-2739.6585 C -313.65579,-2705.846 -315.14486,-2668.4796 -315.14486,-2632.59 C -315.14486,-2600.4133 -306.42933,-2585.4243 -315.14486,-2546.9351 z"
           id="path5392" />
        <path
           style="fill:#ffff00;fill-rule:evenodd;stroke:#000000;stroke-width:0.93984586px;stroke-linecap:butt;stroke-linejoin:miter;stroke-opacity:1"
           d="M -331.30804,-2546.9351 C -331.30804,-2524.5926 -238.3204,-2568.4361 -218.16582,-2604.0384 C -202.20081,-2632.2399 -210.45817,-2691.0142 -218.16582,-2718.2448 C -229.28929,-2757.5431 -246.38439,-2789.5054 -266.65534,-2825.3133 C -288.3572,-2863.6487 -301.08185,-2907.54 -323.22645,-2946.6576 C -347.91354,-2990.2663 -356.9864,-3015.4173 -404.04233,-3046.5881 C -445.53861,-3074.0762 -501.08237,-3078.7222 -549.5109,-3089.4156 C -596.99858,-3099.9012 -652.99228,-3096.5535 -703.06107,-3096.5535 C -749.42972,-3096.5535 -808.71847,-3085.5831 -848.52965,-3068.0019 C -893.83621,-3047.9938 -943.77442,-3040.2161 -993.99822,-3018.0366 C -1040.6923,-2997.4158 -1088.1952,-2982.4055 -1131.3852,-2953.7955 C -1177.9312,-2922.9624 -1225.5051,-2894.6048 -1252.6091,-2846.727 C -1273.3886,-2810.0206 -1313.1001,-2782.6992 -1333.4249,-2746.7964 C -1356.755,-2705.5847 -1386.7442,-2658.3542 -1398.0776,-2618.3141 C -1408.0318,-2583.1467 -1422.3224,-2563.6989 -1422.3224,-2518.3835 C -1422.3224,-2473.7025 -1417.6315,-2430.4319 -1406.1591,-2389.9014 C -1393.8385,-2346.3734 -1394.0031,-2296.9897 -1381.9144,-2254.2813 C -1367.581,-2203.6423 -1323.5154,-2162.1687 -1309.1801,-2111.5233 C -1297.7574,-2071.1677 -1195.9828,-2054.4079 -1163.7115,-2047.2822 C -1108.2684,-2035.0399 -1066.9249,-2014.4817 -1010.1614,-2004.4548 C -950.77054,-1993.9636 -902.9357,-1983.041 -840.44806,-1983.041 C -794.65239,-1983.041 -748.85673,-1983.041 -703.06107,-1983.041 C -647.60904,-1983.041 -598.91185,-1986.4088 -549.5109,-1997.3168 C -488.09249,-2010.8785 -425.86379,-2016.2318 -371.71598,-2040.1443 C -318.54532,-2063.6252 -287.89213,-2071.3526 -242.41058,-2111.5233 C -203.30615,-2146.0614 -210.08423,-2194.4699 -210.08423,-2240.0054 C -210.08423,-2280.4535 -210.08423,-2320.9016 -210.08423,-2361.3498 C -210.08423,-2411.1939 -254.73828,-2422.9594 -298.98169,-2432.7288 C -320.0627,-2437.3836 -315.14486,-2336.6716 -315.14486,-2325.6603 C -315.14486,-2286.693 -321.50968,-2253.2085 -331.30804,-2218.5918 C -345.86831,-2167.1515 -370.9375,-2147.5565 -420.20551,-2125.799 C -465.41801,-2105.8325 -509.54961,-2092.807 -557.59249,-2075.8338 C -602.39926,-2060.0039 -644.97462,-2051.5203 -686.89789,-2033.0063 C -727.18198,-2015.2163 -784.09041,-2018.7305 -832.36647,-2018.7305 C -887.94017,-2018.7305 -936.2822,-2029.1846 -985.91663,-2040.1443 C -1026.8689,-2049.1868 -1067.3354,-2052.7687 -1107.1405,-2061.5579 C -1164.6776,-2074.2625 -1187.7321,-2079.2541 -1236.4458,-2111.5233 C -1280.3662,-2140.6171 -1312.8571,-2167.3409 -1325.3433,-2211.4539 C -1336.4319,-2250.6288 -1341.5065,-2293.7012 -1341.5065,-2332.7981 C -1341.5065,-2371.3523 -1354.5646,-2421.759 -1365.7512,-2461.2804 C -1376.1845,-2498.14 -1358.3458,-2537.4085 -1349.5881,-2568.3489 C -1338.5762,-2607.2529 -1319.5935,-2638.6278 -1309.1801,-2675.4174 C -1298.226,-2714.1174 -1277.03,-2753.7787 -1244.5274,-2782.4859 C -1207.3089,-2815.3584 -1185.5494,-2854.3201 -1155.63,-2889.5544 C -1119.289,-2932.3509 -1061.1129,-2957.2084 -1010.1614,-2975.2091 C -965.7574,-2990.8967 -921.21016,-3007.3534 -880.856,-3025.1745 C -848.35104,-3039.5291 -790.52433,-3039.4502 -751.55059,-3039.4502 C -698.76758,-3039.4502 -657.30586,-3057.8988 -606.08202,-3046.5881 C -563.596,-3037.2069 -525.70977,-3034.1948 -484.8582,-3025.1745 C -435.86366,-3014.3561 -400.38628,-2973.283 -371.71598,-2939.5196 C -346.33977,-2909.6356 -339.38963,-2862.8178 -339.38963,-2825.3133 C -339.38963,-2787.2455 -323.22645,-2752.2459 -323.22645,-2711.1069 C -323.22645,-2670.6588 -323.22645,-2630.2106 -323.22645,-2589.7625 C -323.22645,-2575.2899 -328.61418,-2561.211 -331.30804,-2546.9351 z"
           id="path5394" />
        <path
           sodipodi:type="arc"
           style="fill:#ffff00;stroke:#000000;stroke-width:6.69999981;stroke-miterlimit:4;stroke-dasharray:none;stroke-opacity:1"
           id="path5396"
           sodipodi:cx="-193.9493"
           sodipodi:cy="-2454.8875"
           sodipodi:rx="105.05586"
           sodipodi:ry="96.974648"
           d="M -88.893433,-2454.8875 A 105.05586,96.974648 0 1 1 -299.00516,-2454.8875 A 105.05586,96.974648 0 1 1 -88.893433,-2454.8875 z"
           transform="translate(-40.406102,-32.324881)" />
        <path
           style="fill:#6c5353;fill-rule:evenodd;stroke:#000000;stroke-width:1px;stroke-linecap:butt;stroke-linejoin:miter;stroke-opacity:1"
           d="M -205.71429,-2570.495 C -212.41644,-2572.1705 -42.386495,-2581.9235 114.28571,-2581.9235 C 239.49692,-2581.9235 352.37789,-2570.495 480,-2570.495 C 596.63322,-2570.495 703.43176,-2616.2092 822.85714,-2616.2092 C 892.55485,-2616.2092 1009.6589,-2637.8191 1085.7143,-2650.495 C 1182.2434,-2666.5831 1287.2644,-2673.3521 1382.8571,-2673.3521 C 1460.1507,-2673.3521 1535.6172,-2696.2092 1611.4286,-2696.2092 C 1712.7909,-2696.2092 1731.2168,-2645.8393 1748.5714,-2559.0664 C 1763.0559,-2486.6438 1728.0043,-2401.3564 1680,-2353.3521 C 1632.3329,-2305.685 1497.1225,-2353.3521 1440,-2353.3521 C 1338.5757,-2353.3521 1237.0363,-2387.6378 1131.4286,-2387.6378 C 1055.2381,-2387.6378 979.04762,-2387.6378 902.85714,-2387.6378 C 827.22955,-2387.6378 754.28497,-2399.0664 674.28571,-2399.0664 C 587.91796,-2399.0664 511.79259,-2387.6378 422.85714,-2387.6378 C 346.66667,-2387.6378 270.47619,-2387.6378 194.28571,-2387.6378 C 109.12037,-2387.6378 9.8496389,-2402.3183 -68.571428,-2421.9235 C -128.2122,-2436.8337 -205.71429,-2407.0298 -205.71429,-2479.0664 C -205.71429,-2486.6854 -205.71429,-2494.3045 -205.71429,-2501.9235"
           id="path5400" />
        <path
           style="fill:none;fill-rule:evenodd;stroke:#0000ff;stroke-width:2.5;stroke-linecap:butt;stroke-linejoin:miter;stroke-miterlimit:4;stroke-dasharray:none;stroke-opacity:1"
           d="M -1235.593,-2546.5477 C -1261.1229,-2444.4283 -1070.8911,-2678.7103 -980.6294,-2732.8673 C -884.82602,-2790.3493 -805.64823,-2866.5393 -725.66576,-2850.5428 C -612.63403,-2827.9365 -840.25444,-2644.6107 -951.21052,-2644.6107 C -1031.7408,-2644.6107 -1108.1112,-2572.5075 -1108.1112,-2497.5163 C -1108.1112,-2412.7231 -1155.7781,-2338.7961 -1098.3049,-2262.1652 C -1039.8381,-2184.2094 -805.48703,-2463.0781 -774.69723,-2487.71 C -696.61402,-2550.1765 -607.99023,-2603.313 -607.99023,-2448.4848 C -607.99023,-2346.9697 -623.50383,-2312.6235 -500.121,-2281.7778"
           id="path11626" />
      </g>
    </g>
    <path
       style="fill:none;fill-rule:evenodd;stroke:#000000;stroke-width:1px;stroke-linecap:butt;stroke-linejoin:miter;stroke-opacity:1"
       d="M 147.34614,273.14022 C 148.64094,272.81652 155.06947,275.32752 157.90365,275.89436 C 175.11256,276.60868 185.8,282.04445 181.7728,261.20564 C 183.45313,250.42618 184.24716,243.28479 184.98596,232.28724 C 185.34331,221.08114 207.86752,220.40208 217.11752,220.35267 C 224.41266,220.35267 231.49368,219.43462 238.69157,219.43462 C 245.14804,219.43462 251.41984,218.51658 257.9705,218.51658 C 264.85241,218.51658 271.7133,217.59853 278.6265,217.59853 C 285.91467,217.59853 293.31999,217.13951 300.65957,217.13951 C 307.81303,217.13951 315.12932,217.13951 322.23361,217.13951 C 329.41912,217.13951 336.55448,216.68049 343.80766,216.68049 C 351.59763,216.68049 359.43969,217.59853 367.21779,217.59853 C 397.46063,220.10312 428.14345,203.37778 440.66135,237.33649 C 440.66135,240.75536 441.5794,244.13649 441.5794,247.43498 C 441.5794,250.71543 442.2105,255.00865 442.95646,257.99249 C 443.79583,261.34995 442.95646,265.97676 442.95646,269.46805 C 442.95646,272.59559 442.71212,275.73899 442.03842,279.10751 C 441.75092,284.91606 441.26535,290.45416 439.74331,296.09134 C 439.81522,299.55013 437.73122,302.38894 436.07113,305.27178 C 431.77641,307.91649 426.60091,306.9331 421.84144,307.56689 C 418.64849,308.36513 414.60523,308.02591 411.28393,308.02591 C 400.42506,307.05138 389.55349,307.8091 378.69335,308.02591 C 371.502,308.02591 364.31065,308.02591 357.1193,308.02591 C 332.6755,310.82256 307.00813,304.72638 282.7577,309.40298 C 260.49944,311.8286 238.58763,313.8675 216.19948,310.78005 C 212.61751,310.78005 209.24266,310.32102 205.64196,310.32102 C 202.7174,310.32102 198.82035,310.10744 196.0025,309.40298 C 193.25964,308.71727 190.76662,308.11545 188.19912,306.18982 C 186.17634,304.67274 184.36501,301.6538 183.6089,299.76351 C 182.88509,297.954 182.15364,296.23758 181.77281,294.71427 C 180.91787,291.2945 181.0702,290.51513 178.10063,288.28796 C 174.12393,285.30543 168.44944,284.38334 163.87094,283.23871 C 160.04151,282.28135 155.90031,282.19541 151.93636,281.40262 C 148.31859,280.67907 144.15399,279.80655 140.91983,278.18947 C 138.59919,277.02915 137.45418,274.72382 135.41156,272.6812 C 134.10899,271.37863 133.01479,268.6024 132.65743,267.17293 C 132.19507,265.3235 129.45895,261.69403 131.28036,265.33685 C 132.10323,266.98259 134.56127,267.89535 135.87058,268.55 C 137.69581,269.46262 139.14281,269.9566 140.91983,270.84511 C 143.42136,272.09588 144.66267,273.14022 147.34614,273.14022 z"
       id="path14413"
       transform="translate(-4.149475e-6,698.0315)"
       sodipodi:nodetypes="cccccssssssccssscccccccccssssssssssssssc" />
    <text
       xml:space="preserve"
       style="font-size:18px;font-style:normal;font-weight:bold;text-align:center;writing-mode:lr-tb;text-anchor:middle;fill:#000000;fill-opacity:1;stroke:none;stroke-width:1px;stroke-linecap:butt;stroke-linejoin:miter;stroke-opacity:1;font-family:Sans;-inkscape-font-specification:Sans"
       x="316.72534"
       y="935.36798"
       id="text14415"><tspan
         sodipodi:role="line"
         x="319.85425"
         y="935.36798"
         id="tspan14419">This plot was created </tspan><tspan
         sodipodi:role="line"
         x="316.72534"
         y="957.86798"
         id="tspan14421">from MySQL changelog</tspan><tspan
         sodipodi:role="line"
         x="319.85425"
         y="980.36798"
         id="tspan14429">topics that could be </tspan><tspan
         sodipodi:role="line"
         x="316.72534"
         y="1002.868"
         id="tspan14435">easily named</tspan></text>
  </g>
</svg>
