<?xml version="1.0" encoding="UTF-8" standalone="no"?>
<!-- Created with Inkscape (http://www.inkscape.org/) -->
<svg
   xmlns:dc="http://purl.org/dc/elements/1.1/"
   xmlns:cc="http://creativecommons.org/ns#"
   xmlns:rdf="http://www.w3.org/1999/02/22-rdf-syntax-ns#"
   xmlns:svg="http://www.w3.org/2000/svg"
   xmlns="http://www.w3.org/2000/svg"
   xmlns:sodipodi="http://sodipodi.sourceforge.net/DTD/sodipodi-0.dtd"
   xmlns:inkscape="http://www.inkscape.org/namespaces/inkscape"
   width="453.5433"
   height="340.15747"
   id="svg2"
   sodipodi:version="0.32"
   inkscape:version="0.46"
   sodipodi:docname="slide080-sections-of-articles.svg"
   version="1.0"
   inkscape:output_extension="org.inkscape.output.svg.inkscape">
  <defs
     id="defs4">
    <inkscape:perspective
       sodipodi:type="inkscape:persp3d"
       inkscape:vp_x="0 : 170.07874 : 1"
       inkscape:vp_y="0 : 1000 : 0"
       inkscape:vp_z="453.5433 : 170.07874 : 1"
       inkscape:persp3d-origin="226.77165 : 113.38582 : 1"
       id="perspective10129" />
  </defs>
  <sodipodi:namedview
     id="base"
     pagecolor="#ffffff"
     bordercolor="#666666"
     borderopacity="1.0"
     gridtolerance="10000"
     guidetolerance="8.8"
     objecttolerance="10"
     inkscape:pageopacity="0.0"
     inkscape:pageshadow="2"
     inkscape:zoom="1.540463"
     inkscape:cx="226.77165"
     inkscape:cy="170.07874"
     inkscape:document-units="mm"
     inkscape:current-layer="layer1"
     inkscape:window-width="952"
     inkscape:window-height="1167"
     inkscape:window-x="0"
     inkscape:window-y="25"
     width="12.8cm"
     height="9.6cm"
     units="cm"
     showgrid="false"
     grid_units="mm"
     inkscape:object-paths="false"
     inkscape:grid-points="true"
     inkscape:grid-bbox="true"
     inkscape:guide-points="true"
     showguides="true"
     inkscape:guide-bbox="true">
    <sodipodi:guide
       orientation="vertical"
       position="56.476527"
       id="guide3573" />
    <sodipodi:guide
       orientation="horizontal"
       position="11.035643"
       id="guide3579" />
    <sodipodi:guide
       orientation="horizontal"
       position="24.018753"
       id="guide3886" />
    <sodipodi:guide
       orientation="horizontal"
       position="285.62841"
       id="guide3988" />
    <sodipodi:guide
       orientation="horizontal"
       position="303.15561"
       id="guide4081" />
    <inkscape:grid
       id="GridFromPre046Settings"
       type="xygrid"
       originx="0px"
       originy="0px"
       spacingx="2mm"
       spacingy="2mm"
       color="#0000ff"
       empcolor="#0000ff"
       opacity="0.2"
       empopacity="0.4"
       empspacing="5" />
  </sodipodi:namedview>
  <metadata
     id="metadata7">
    <rdf:RDF>
      <cc:Work
         rdf:about="">
        <dc:format>image/svg+xml</dc:format>
        <dc:type
           rdf:resource="http://purl.org/dc/dcmitype/StillImage" />
      </cc:Work>
    </rdf:RDF>
  </metadata>
  <g
     inkscape:label="Layer 1"
     inkscape:groupmode="layer"
     id="layer1"
     transform="translate(4.149475e-6,-698.0315)">
    <path
       style="fill:#00ffff;fill-rule:evenodd;stroke:#000000;stroke-width:1px;stroke-linecap:butt;stroke-linejoin:miter;stroke-opacity:1"
       d="M 73.354569,113.60221 C 67.51217,113.60221 73.354569,125.28701 73.354569,131.12941 C 73.354569,143.75907 67.939971,154.45771 56.476527,159.04309 C 52.119109,160.78606 60.932658,165.34758 50.634128,168.78042 C 42.743752,171.41055 32.08871,180.83429 25.966219,186.95678 C 19.916111,193.00689 14.498271,196.69341 9.7373322,203.83482 C 9.1371878,204.73504 8.4390213,205.5659 7.7898658,206.43144 C 4.3257936,211.0502 7.1265629,220.092 4.5440884,225.25695 C 2.442697,229.45973 3.2457774,237.05398 3.2457774,242.13499 C 3.2457774,250.55832 2.2423871,260.07491 5.1932438,267.45206 C 8.5328348,275.80103 10.575999,285.64254 12.98311,294.06743 C 14.483836,299.31997 25.520306,316.13872 29.211997,316.13872 C 58.256443,316.13872 27.239867,329.12183 64.915548,329.12183 C 76.600347,329.12183 88.285145,329.12183 99.969944,329.12183 C 110.32943,329.12183 123.0075,332.06542 125.93616,323.27943 C 126.76297,320.79901 128.10001,318.51895 129.18194,316.13872 C 131.78196,310.41869 138.63369,321.94634 142.16505,308.99801 C 143.57634,303.82329 149.21159,300.28651 150.60407,294.71659 C 152.24127,288.1678 154.44033,282.02684 155.79732,275.24192 C 158.04984,263.97932 167.48211,253.45701 167.48211,241.48584 C 167.48211,230.55216 167.13405,222.43932 163.58718,213.57215 C 160.22934,205.17756 153.43398,198.75822 145.41083,194.74664 C 136.32642,190.20444 130.87162,177.73971 120.74292,172.67536 C 113.34704,168.97742 108.00903,158.99285 101.26826,154.499 C 94.265407,149.83044 90.391499,140.66133 83.741057,135.67349 C 79.24303,132.29997 76.419185,125.15868 74.65288,120.74292 C 73.761246,118.51383 73.840398,116.03135 73.354569,113.60221 z"
       id="path10497"
       transform="translate(-4.149475e-6,698.0315)" />
    <g
       id="g4288"
       transform="matrix(0.323439,0,0,0.323439,-69.430379,624.15946)">
      <path
         id="path3284"
         d="M 476.792,351.31632 C 474.9254,349.45357 454.02181,349.29601 440.42651,349.29601 C 420.4756,349.29601 401.92544,347.27571 381.83766,347.27571 C 361.78245,347.27571 343.09847,349.29601 323.24881,349.29601 C 305.93047,349.29601 301.88761,370.09107 299.00515,381.62089 C 293.31416,404.38487 305.06607,432.97357 305.06607,456.37218 C 305.06607,480.37769 311.12698,504.21871 311.12698,529.10316 C 311.12698,549.97043 305.74723,581.61951 294.96454,597.79354 C 289.45311,606.06069 292.52538,638.5445 294.96454,648.30116 C 297.98655,660.38919 368.61828,657.15555 381.83766,662.4433 C 398.67728,669.17915 431.13553,662.4433 450.52803,662.4433 C 472.07796,662.4433 493.62788,662.4433 515.1778,662.4433 C 537.61585,662.4433 573.47717,670.814 589.92909,654.36208 C 602.91264,641.37853 604.07122,598.81009 604.07122,581.6311 C 604.07122,576.91705 604.07122,572.20301 604.07122,567.48896 C 604.07122,550.6377 601.27819,509.37496 593.9697,494.75798 C 587.3546,481.52778 585.88848,451.21521 585.88848,436.16913 C 585.88848,420.68012 585.88848,405.19112 585.88848,389.70211 C 585.88848,376.63999 587.37914,367.446 579.82756,357.37723 C 573.63549,349.12114 549.93508,351.31632 539.42146,351.31632 C 524.62113,351.31632 511.60216,353.33662 496.99505,353.33662 C 489.62498,353.33662 484.59694,352.61714 476.792,351.31632 z"
         style="fill:#f9f9f9;fill-rule:evenodd;stroke:#000000;stroke-width:1px;stroke-linecap:butt;stroke-linejoin:miter;stroke-opacity:1" />
      <rect
         ry="0"
         y="425.58737"
         x="397.5199"
         height="75.711731"
         width="101.9757"
         id="rect3302"
         style="fill:#00ffff;stroke:#000000;stroke-width:4.03955746;stroke-miterlimit:4;stroke-dasharray:none;stroke-opacity:1" />
      <path
         id="path4074"
         d="M 402.04071,523.04225 C 413.2509,526.17562 440.66056,525.06255 458.60926,525.06255 C 474.66586,525.06255 483.13345,532.27955 499.01536,529.10316"
         style="fill:none;fill-rule:evenodd;stroke:#000000;stroke-width:1px;stroke-linecap:butt;stroke-linejoin:miter;stroke-opacity:1" />
      <path
         id="path4076"
         d="M 325.26912,420.00669 C 327.54523,420.00669 351.36687,417.98638 365.67522,417.98638"
         style="fill:none;fill-rule:evenodd;stroke:#000000;stroke-width:1px;stroke-linecap:butt;stroke-linejoin:miter;stroke-opacity:1" />
      <path
         id="path4078"
         d="M 323.24881,440.20974 C 326.26173,440.20974 352.31943,440.20974 367.69553,440.20974"
         style="fill:none;fill-rule:evenodd;stroke:#000000;stroke-width:1px;stroke-linecap:butt;stroke-linejoin:miter;stroke-opacity:1" />
      <path
         id="path4082"
         d="M 329.30973,462.4331 C 318.68137,464.20449 350.85965,462.4331 361.63461,462.4331"
         style="fill:none;fill-rule:evenodd;stroke:#000000;stroke-width:1px;stroke-linecap:butt;stroke-linejoin:miter;stroke-opacity:1" />
      <path
         id="path4084"
         d="M 331.33003,486.67676 C 329.29347,487.01618 360.13248,488.69706 369.71583,488.69706"
         style="fill:none;fill-rule:evenodd;stroke:#000000;stroke-width:1px;stroke-linecap:butt;stroke-linejoin:miter;stroke-opacity:1" />
      <path
         id="path4086"
         d="M 333.35034,514.96103 C 325.37907,516.28957 349.51278,514.96103 357.594,514.96103"
         style="fill:none;fill-rule:evenodd;stroke:#000000;stroke-width:1px;stroke-linecap:butt;stroke-linejoin:miter;stroke-opacity:1" />
      <path
         id="path4088"
         d="M 535.38085,428.08791 C 525.39465,429.75228 555.56148,430.10822 565.68543,430.10822"
         style="fill:none;fill-rule:evenodd;stroke:#000000;stroke-width:1px;stroke-linecap:butt;stroke-linejoin:miter;stroke-opacity:1" />
      <path
         id="path4090"
         d="M 531.34024,450.31127 C 518.71907,452.41479 556.93077,450.31127 569.72604,450.31127"
         style="fill:none;fill-rule:evenodd;stroke:#000000;stroke-width:1px;stroke-linecap:butt;stroke-linejoin:miter;stroke-opacity:1" />
      <path
         id="path4092"
         d="M 533.36054,472.53462 C 509.86328,476.45083 563.90931,472.53462 585.88848,472.53462"
         style="fill:none;fill-rule:evenodd;stroke:#000000;stroke-width:1px;stroke-linecap:butt;stroke-linejoin:miter;stroke-opacity:1" />
      <path
         id="path4094"
         d="M 525.27932,502.8392 C 511.32961,505.16415 553.56359,502.8392 567.70573,502.8392 C 569.72604,502.8392 571.74634,502.8392 573.76665,502.8392"
         style="fill:none;fill-rule:evenodd;stroke:#000000;stroke-width:1px;stroke-linecap:butt;stroke-linejoin:miter;stroke-opacity:1" />
      <path
         id="path4096"
         d="M 521.23871,533.14377 C 525.34096,533.14377 554.6847,531.12347 571.74634,531.12347"
         style="fill:none;fill-rule:evenodd;stroke:#000000;stroke-width:1px;stroke-linecap:butt;stroke-linejoin:miter;stroke-opacity:1" />
      <rect
         ry="0"
         y="591.95239"
         x="310.33664"
         height="56.128941"
         width="98.555344"
         id="rect4100"
         style="fill:#008080;stroke:#000000;stroke-width:3.41930103;stroke-miterlimit:4;stroke-dasharray:none;stroke-opacity:1" />
      <rect
         ry="0"
         y="591.55267"
         x="495.80496"
         height="32.684761"
         width="99.354828"
         id="rect4102"
         style="fill:#ff00ff;stroke:#000000;stroke-width:2.61981726;stroke-miterlimit:4;stroke-dasharray:none;stroke-opacity:1" />
      <rect
         ry="0"
         y="623.87756"
         x="495.80496"
         height="32.684761"
         width="99.354828"
         id="rect4104"
         style="fill:#ff0000;stroke:#000000;stroke-width:2.61981726;stroke-miterlimit:4;stroke-dasharray:none;stroke-opacity:1" />
      <path
         id="path4106"
         d="M 414.16254,599.81384 C 424.37546,599.81384 447.97771,599.81384 464.67017,599.81384 C 470.05765,599.81384 475.44513,599.81384 480.83261,599.81384"
         style="fill:none;fill-rule:evenodd;stroke:#000000;stroke-width:1px;stroke-linecap:butt;stroke-linejoin:miter;stroke-opacity:1" />
      <path
         id="path4108"
         d="M 412.14224,622.0372 C 422.02679,622.0372 444.31396,620.01689 460.62956,620.01689 C 465.56057,620.01689 470.05184,619.17655 474.7717,617.99659"
         style="fill:none;fill-rule:evenodd;stroke:#000000;stroke-width:1px;stroke-linecap:butt;stroke-linejoin:miter;stroke-opacity:1" />
      <path
         id="path4110"
         d="M 420.22346,642.24025 C 437.05933,642.24025 453.89521,642.24025 470.73109,642.24025"
         style="fill:none;fill-rule:evenodd;stroke:#000000;stroke-width:1px;stroke-linecap:butt;stroke-linejoin:miter;stroke-opacity:1" />
      <path
         id="path4112"
         d="M 335.37064,539.20469 C 340.89204,539.20469 352.14506,540.52083 361.63461,545.26561"
         style="fill:none;fill-rule:evenodd;stroke:#000000;stroke-width:1px;stroke-linecap:butt;stroke-linejoin:miter;stroke-opacity:1" />
      <path
         id="path4114"
         d="M 327.28942,571.52957 C 337.39095,571.52957 347.49248,571.52957 357.594,571.52957"
         style="fill:none;fill-rule:evenodd;stroke:#000000;stroke-width:1px;stroke-linecap:butt;stroke-linejoin:miter;stroke-opacity:1" />
      <path
         id="path4116"
         d="M 424.26407,567.48896 C 437.1662,567.48896 470.4319,571.67916 486.89353,563.44835"
         style="fill:none;fill-rule:evenodd;stroke:#000000;stroke-width:1px;stroke-linecap:butt;stroke-linejoin:miter;stroke-opacity:1" />
      <path
         id="path4118"
         d="M 531.34024,563.44835 C 532.44168,563.44835 546.10308,563.44835 553.56359,563.44835"
         style="fill:none;fill-rule:evenodd;stroke:#000000;stroke-width:1px;stroke-linecap:butt;stroke-linejoin:miter;stroke-opacity:1" />
      <text
         id="text4120"
         y="407.88486"
         x="329.30972"
         style="font-size:60px;font-style:normal;font-weight:normal;fill:#000000;fill-opacity:1;stroke:none;stroke-width:1px;stroke-linecap:butt;stroke-linejoin:miter;stroke-opacity:1;font-family:Bitstream Vera Sans"
         xml:space="preserve"><tspan
           y="407.88486"
           x="329.30972"
           id="tspan4122"
           sodipodi:role="line">Section</tspan></text>
      <path
         id="path4234"
         d="M 442.44681,442.23005 C 400.05098,463.42796 483.21207,427.31347 444.46712,456.37218 C 429.25112,467.78418 424.7998,466.47371 458.60926,466.47371 C 477.17311,466.47371 470.07746,484.31478 484.87322,480.61584 C 507.75625,474.89509 468.95049,459.52249 466.69048,458.39249 C 462.46131,456.2779 484.29744,443.67457 474.7717,434.14883 C 463.01074,422.38787 454.32312,464.94444 452.54834,468.49401 C 448.9431,475.7045 407.72418,505.61441 420.22346,480.61584 C 428.25998,464.5428 458.2263,475.97442 468.71078,478.59554 C 476.36279,480.50854 472.29443,476.80371 476.792,474.55493"
         style="fill:#ff00ff;fill-rule:evenodd;stroke:#000000;stroke-width:1px;stroke-linecap:butt;stroke-linejoin:miter;stroke-opacity:1" />
    </g>
    <path
       style="fill:#00ff00;fill-rule:evenodd;stroke:#000000;stroke-width:1px;stroke-linecap:butt;stroke-linejoin:miter;stroke-opacity:1"
       d="M 364.17622,119.44461 C 364.08654,119.22039 362.92812,128.44493 357.68467,137.62096 C 352.95994,145.88924 345.13816,152.83495 339.50832,160.3414 C 333.07451,168.91981 320.79096,171.94508 312.89294,177.8686 C 305.08556,183.72414 291.8624,185.31155 283.03179,188.25509 C 281.53732,188.75324 280.0024,189.12063 278.4877,189.5534 C 269.416,192.14531 260.98995,193.95588 252.52148,197.34326 C 243.36776,201.00475 234.06547,206.66449 226.55526,212.923 C 219.39419,218.89056 214.92624,223.84708 210.97553,231.74851 C 205.27361,243.15234 209.02806,258.66709 209.02806,271.34699 C 209.02806,282.946 211.17661,294.89471 215.51962,305.75223 C 219.7901,316.42843 223.75045,328.26448 232.39766,336.91169 C 233.47959,337.99362 234.56151,339.07554 235.64344,340.15747 C 243.36448,347.87851 243.33436,350.81906 254.46895,356.38636 C 255.69301,356.99839 257.06557,357.2519 258.36388,357.68467 C 263.81159,359.50057 271.32186,359.63214 277.18939,359.63214 C 287.26531,359.63214 298.90654,361.22553 308.34885,357.68467 C 314.43266,355.40324 328.79845,355.08805 334.31507,355.08805 C 340.59615,355.08805 348.63307,352.64457 354.43889,351.19311 C 360.8356,349.59394 367.27438,349.69419 373.2644,347.29818 C 378.13675,345.34924 384.21857,346.36519 388.84413,344.0524 C 396.97393,339.9875 407.19115,341.51735 415.45951,338.21 C 431.57621,331.76332 416.15035,329.12183 438.82911,329.12183 C 439.60446,329.12183 435.78563,316.13872 447.91728,316.13872 C 452.85637,316.13872 452.51686,307.39084 455.05799,303.15561 C 458.10932,298.07006 460.68756,292.32746 462.84786,286.92672 C 465.65985,279.89674 468.1826,274.16827 470.63772,266.8029 C 473.01443,259.67278 472.58519,252.55293 472.58519,244.73161 C 472.58519,236.62517 471.94918,231.80107 469.98857,223.95864 C 467.76753,215.07449 459.54578,208.91545 455.70715,201.2382 C 453.44752,196.71894 442.09303,190.86079 438.17995,188.90424 C 431.43429,185.53141 426.23424,179.7117 420.0036,177.21944 C 411.63871,173.87349 406.81664,168.14067 399.87978,162.93802 C 393.34879,158.03978 389.79291,151.55285 384.30004,146.05998 C 380.0061,141.76604 376.66874,134.37021 373.2644,129.83109 C 370.86325,126.62956 369.16548,125.52818 367.422,122.04123 C 366.80237,120.80196 365.25815,120.31015 364.17622,119.44461 z"
       id="path10499"
       transform="translate(-4.149475e-6,698.0315)" />
    <g
       id="g4316"
       transform="matrix(0.323439,0,0,0.323439,92.476382,542.54947)">
      <path
         id="path4236"
         d="M 865.22323,662.96675 C 863.35663,661.104 842.45304,660.94644 828.85774,660.94644 C 808.90683,660.94644 790.35667,658.92614 770.26889,658.92614 C 750.21368,658.92614 731.5297,660.94644 711.68004,660.94644 C 694.3617,660.94644 690.31884,681.7415 687.43638,693.27132 C 681.74539,716.0353 693.4973,744.624 693.4973,768.02261 C 693.4973,792.02812 699.55821,815.86914 699.55821,840.75359 C 699.55821,861.62086 694.17846,893.26994 683.39577,909.44397 C 677.88434,917.71112 680.95661,950.19493 683.39577,959.95159 C 686.41778,972.03962 757.04951,968.80598 770.26889,974.09373 C 787.10851,980.82958 819.56676,974.09373 838.95926,974.09373 C 860.50919,974.09373 882.05911,974.09373 903.60903,974.09373 C 926.04708,974.09373 961.9084,982.46443 978.36032,966.01251 C 991.34387,953.02896 992.50245,910.46052 992.50245,893.28153 C 992.50245,888.56748 992.50245,883.85344 992.50245,879.13939 C 992.50245,862.28813 989.70942,821.02539 982.40093,806.40841 C 975.78583,793.17821 974.31971,762.86564 974.31971,747.81956 C 974.31971,732.33055 974.31971,716.84155 974.31971,701.35254 C 974.31971,688.29042 975.81037,679.09643 968.25879,669.02766 C 962.06672,660.77157 938.36631,662.96675 927.85269,662.96675 C 913.05236,662.96675 900.03339,664.98705 885.42628,664.98705 C 878.05621,664.98705 873.02817,664.26757 865.22323,662.96675 z"
         style="fill:#f9f9f9;fill-rule:evenodd;stroke:#000000;stroke-width:1px;stroke-linecap:butt;stroke-linejoin:miter;stroke-opacity:1" />
      <rect
         ry="0"
         y="737.23779"
         x="785.95117"
         height="75.711731"
         width="101.9757"
         id="rect4238"
         style="fill:#00ff00;stroke:#000000;stroke-width:4.03955746;stroke-miterlimit:4;stroke-dasharray:none;stroke-opacity:1" />
      <path
         id="path4240"
         d="M 790.47194,834.69268 C 801.68213,837.82605 829.09179,836.71298 847.04049,836.71298 C 863.09709,836.71298 871.56468,843.92998 887.44659,840.75359"
         style="fill:none;fill-rule:evenodd;stroke:#000000;stroke-width:1px;stroke-linecap:butt;stroke-linejoin:miter;stroke-opacity:1" />
      <path
         id="path4242"
         d="M 713.70035,731.65712 C 715.97646,731.65712 739.7981,729.63681 754.10645,729.63681"
         style="fill:none;fill-rule:evenodd;stroke:#000000;stroke-width:1px;stroke-linecap:butt;stroke-linejoin:miter;stroke-opacity:1" />
      <path
         id="path4244"
         d="M 711.68004,751.86017 C 714.69296,751.86017 740.75066,751.86017 756.12676,751.86017"
         style="fill:none;fill-rule:evenodd;stroke:#000000;stroke-width:1px;stroke-linecap:butt;stroke-linejoin:miter;stroke-opacity:1" />
      <path
         id="path4246"
         d="M 717.74096,774.08353 C 707.1126,775.85492 739.29088,774.08353 750.06584,774.08353"
         style="fill:none;fill-rule:evenodd;stroke:#000000;stroke-width:1px;stroke-linecap:butt;stroke-linejoin:miter;stroke-opacity:1" />
      <path
         id="path4248"
         d="M 719.76126,798.32719 C 717.7247,798.66661 748.56371,800.34749 758.14706,800.34749"
         style="fill:none;fill-rule:evenodd;stroke:#000000;stroke-width:1px;stroke-linecap:butt;stroke-linejoin:miter;stroke-opacity:1" />
      <path
         id="path4250"
         d="M 721.78157,826.61146 C 713.8103,827.94 737.94401,826.61146 746.02523,826.61146"
         style="fill:none;fill-rule:evenodd;stroke:#000000;stroke-width:1px;stroke-linecap:butt;stroke-linejoin:miter;stroke-opacity:1" />
      <path
         id="path4252"
         d="M 923.81208,739.73834 C 913.82588,741.40271 943.99271,741.75865 954.11666,741.75865"
         style="fill:none;fill-rule:evenodd;stroke:#000000;stroke-width:1px;stroke-linecap:butt;stroke-linejoin:miter;stroke-opacity:1" />
      <path
         id="path4254"
         d="M 919.77147,761.9617 C 907.1503,764.06522 945.362,761.9617 958.15727,761.9617"
         style="fill:none;fill-rule:evenodd;stroke:#000000;stroke-width:1px;stroke-linecap:butt;stroke-linejoin:miter;stroke-opacity:1" />
      <path
         id="path4256"
         d="M 921.79177,784.18505 C 898.29451,788.10126 952.34054,784.18505 974.31971,784.18505"
         style="fill:none;fill-rule:evenodd;stroke:#000000;stroke-width:1px;stroke-linecap:butt;stroke-linejoin:miter;stroke-opacity:1" />
      <path
         id="path4258"
         d="M 913.71055,814.48963 C 899.76084,816.81458 941.99482,814.48963 956.13696,814.48963 C 958.15727,814.48963 960.17757,814.48963 962.19788,814.48963"
         style="fill:none;fill-rule:evenodd;stroke:#000000;stroke-width:1px;stroke-linecap:butt;stroke-linejoin:miter;stroke-opacity:1" />
      <path
         id="path4260"
         d="M 909.66994,844.7942 C 913.77219,844.7942 943.11593,842.7739 960.17757,842.7739"
         style="fill:none;fill-rule:evenodd;stroke:#000000;stroke-width:1px;stroke-linecap:butt;stroke-linejoin:miter;stroke-opacity:1" />
      <rect
         ry="0"
         y="903.60284"
         x="698.76788"
         height="56.128941"
         width="98.555344"
         id="rect4262"
         style="fill:#ffd5d5;stroke:#000000;stroke-width:3.41930103;stroke-miterlimit:4;stroke-dasharray:none;stroke-opacity:1" />
      <rect
         ry="0"
         y="903.20312"
         x="884.23621"
         height="32.684761"
         width="99.354828"
         id="rect4264"
         style="fill:#ffaaaa;stroke:#000000;stroke-width:2.61981726;stroke-miterlimit:4;stroke-dasharray:none;stroke-opacity:1" />
      <rect
         ry="0"
         y="935.52802"
         x="884.23621"
         height="32.684761"
         width="99.354828"
         id="rect4266"
         style="fill:#ffaaaa;stroke:#000000;stroke-width:2.61981726;stroke-miterlimit:4;stroke-dasharray:none;stroke-opacity:1" />
      <path
         id="path4268"
         d="M 802.59377,911.46427 C 812.80669,911.46427 836.40894,911.46427 853.1014,911.46427 C 858.48888,911.46427 863.87636,911.46427 869.26384,911.46427"
         style="fill:none;fill-rule:evenodd;stroke:#000000;stroke-width:1px;stroke-linecap:butt;stroke-linejoin:miter;stroke-opacity:1" />
      <path
         id="path4270"
         d="M 800.57347,933.68763 C 810.45802,933.68763 832.74519,931.66732 849.06079,931.66732 C 853.9918,931.66732 858.48307,930.82698 863.20293,929.64702"
         style="fill:none;fill-rule:evenodd;stroke:#000000;stroke-width:1px;stroke-linecap:butt;stroke-linejoin:miter;stroke-opacity:1" />
      <path
         id="path4272"
         d="M 808.65469,953.89068 C 825.49056,953.89068 842.32644,953.89068 859.16232,953.89068"
         style="fill:none;fill-rule:evenodd;stroke:#000000;stroke-width:1px;stroke-linecap:butt;stroke-linejoin:miter;stroke-opacity:1" />
      <path
         id="path4274"
         d="M 723.80187,850.85512 C 729.32327,850.85512 740.57629,852.17126 750.06584,856.91604"
         style="fill:none;fill-rule:evenodd;stroke:#000000;stroke-width:1px;stroke-linecap:butt;stroke-linejoin:miter;stroke-opacity:1" />
      <path
         id="path4276"
         d="M 715.72065,883.18 C 725.82218,883.18 735.92371,883.18 746.02523,883.18"
         style="fill:none;fill-rule:evenodd;stroke:#000000;stroke-width:1px;stroke-linecap:butt;stroke-linejoin:miter;stroke-opacity:1" />
      <path
         id="path4278"
         d="M 812.6953,879.13939 C 825.59743,879.13939 858.86313,883.32959 875.32476,875.09878"
         style="fill:none;fill-rule:evenodd;stroke:#000000;stroke-width:1px;stroke-linecap:butt;stroke-linejoin:miter;stroke-opacity:1" />
      <path
         id="path4280"
         d="M 919.77147,875.09878 C 920.87291,875.09878 934.53431,875.09878 941.99482,875.09878"
         style="fill:none;fill-rule:evenodd;stroke:#000000;stroke-width:1px;stroke-linecap:butt;stroke-linejoin:miter;stroke-opacity:1" />
      <text
         id="text4282"
         y="719.53528"
         x="717.74097"
         style="font-size:60px;font-style:normal;font-weight:normal;fill:#000000;fill-opacity:1;stroke:none;stroke-width:1px;stroke-linecap:butt;stroke-linejoin:miter;stroke-opacity:1;font-family:Bitstream Vera Sans"
         xml:space="preserve"><tspan
           y="719.53528"
           x="717.74097"
           id="tspan4284"
           sodipodi:role="line">Section</tspan></text>
      <path
         id="path4286"
         d="M 813.36839,761.03925 C 839.12009,760.34852 793.25015,764.66087 825.01206,769.27044 C 837.48567,771.08073 837.18575,769.09495 831.00891,778.79224 C 827.61739,784.11674 844.0685,791.73462 838.22338,793.97702 C 829.18337,797.44511 823.21503,777.99731 822.66807,776.73769 C 821.64452,774.38056 806.94949,773.82449 800.59834,765.93832 C 792.75688,756.20166 830.49296,776.73545 833.83232,778.14693 C 840.6158,781.01416 873.55273,785.3747 850.03459,775.43408 C 834.91341,769.04267 839.14908,783.82283 839.46008,788.24818 C 839.68705,791.47799 837.28332,788.30657 834.55146,788.37985"
         style="fill:#000080;fill-rule:evenodd;stroke:#000000;stroke-width:0.58522153px;stroke-linecap:butt;stroke-linejoin:miter;stroke-opacity:1" />
    </g>
    <text
       xml:space="preserve"
       style="font-size:20px;font-style:normal;font-weight:normal;fill:#000000;fill-opacity:1;stroke:none;stroke-width:1px;stroke-linecap:butt;stroke-linejoin:miter;stroke-opacity:1;font-family:Bitstream Vera Sans"
       x="50.419258"
       y="730.16406"
       id="text10020"><tspan
         sodipodi:role="line"
         id="tspan10022"
         x="50.419258"
         y="730.16406">Arts</tspan></text>
    <text
       xml:space="preserve"
       style="font-size:20px;font-style:normal;font-weight:normal;text-align:center;text-anchor:middle;fill:#000000;fill-opacity:1;stroke:none;stroke-width:1px;stroke-linecap:butt;stroke-linejoin:miter;stroke-opacity:1;font-family:Bitstream Vera Sans"
       x="364.52994"
       y="729.14966"
       id="text10024"><tspan
         sodipodi:role="line"
         id="tspan10026"
         x="364.52994"
         y="729.14966">International</tspan><tspan
         sodipodi:role="line"
         x="364.52994"
         y="754.14966"
         id="tspan10028">News</tspan></text>
    <g
       id="g4431"
       transform="matrix(0.3492953,0,0,0.3492953,185.25549,645.97835)">
      <g
         transform="translate(0,32.324881)"
         id="g4378">
        <path
           style="fill:#e6e6e6;fill-rule:evenodd;stroke:#000000;stroke-width:1px;stroke-linecap:butt;stroke-linejoin:miter;stroke-opacity:1"
           d="M 254.55844,737.19459 C 260.85677,751.8543 262.63966,777.39947 262.63966,799.82405 C 262.63966,815.84736 260.61936,830.42718 260.61936,846.29106 C 260.61936,864.82502 255.34434,868.51442 278.8021,868.51442 C 292.95376,868.51442 308.26609,869.73472 321.22851,866.49411 C 332.16963,863.75883 326.63955,897.3779 325.26912,902.85961 C 321.25916,918.89944 325.2433,937.29517 321.22851,951.34693 C 317.61718,963.98659 334.15986,971.54998 343.45187,971.54998 C 365.08645,971.54998 385.33626,974.85144 404.06102,965.48906 C 412.95664,961.04125 405.07041,904.37295 402.04071,896.79869 C 392.80214,873.70225 408.10163,835.15756 408.10163,811.94588 C 408.10163,790.39596 408.10163,768.84604 408.10163,747.29611 C 408.10163,730.16089 408.69627,725.07276 389.91888,725.07276 C 377.11459,725.07276 366.70367,723.05245 353.55339,723.05245 C 338.34412,723.05245 321.12054,725.07276 305.06607,725.07276 C 290.65056,725.07276 278.6659,727.09306 264.65997,727.09306 C 259.89806,727.09306 257.92562,733.82741 254.55844,737.19459 z"
           id="path4344" />
        <path
           style="fill:none;fill-rule:evenodd;stroke:#000000;stroke-width:1px;stroke-linecap:butt;stroke-linejoin:miter;stroke-opacity:1"
           d="M 278.8021,765.47886 C 268.61118,765.47886 299.99164,765.99577 309.10668,761.43825"
           id="path4346" />
        <path
           style="fill:none;fill-rule:evenodd;stroke:#000000;stroke-width:1px;stroke-linecap:butt;stroke-linejoin:miter;stroke-opacity:1"
           d="M 274.76149,783.66161 C 260.60333,783.66161 303.45247,785.07516 317.1879,781.6413"
           id="path4348" />
        <path
           style="fill:none;fill-rule:evenodd;stroke:#000000;stroke-width:1px;stroke-linecap:butt;stroke-linejoin:miter;stroke-opacity:1"
           d="M 272.74119,811.94588 C 257.7885,811.94588 302.52559,808.81742 317.1879,805.88496"
           id="path4350" />
        <path
           style="fill:none;fill-rule:evenodd;stroke:#000000;stroke-width:1px;stroke-linecap:butt;stroke-linejoin:miter;stroke-opacity:1"
           d="M 276.7818,832.14893 C 263.24592,832.14893 303.65202,836.18954 317.1879,836.18954"
           id="path4352" />
        <path
           style="fill:none;fill-rule:evenodd;stroke:#000000;stroke-width:1px;stroke-linecap:butt;stroke-linejoin:miter;stroke-opacity:1"
           d="M 276.7818,852.35198 C 261.23434,852.35198 308.00328,851.36048 323.24881,848.31137"
           id="path4354" />
        <path
           style="fill:none;fill-rule:evenodd;stroke:#000000;stroke-width:1px;stroke-linecap:butt;stroke-linejoin:miter;stroke-opacity:1"
           d="M 341.43156,765.47886 C 325.2551,765.47886 374.22541,771.42253 389.91888,767.49916 C 391.87887,767.00917 393.95949,767.49916 395.9798,767.49916"
           id="path4356" />
        <path
           style="fill:none;fill-rule:evenodd;stroke:#000000;stroke-width:1px;stroke-linecap:butt;stroke-linejoin:miter;stroke-opacity:1"
           d="M 343.45187,783.66161 C 344.27445,783.45596 365.31573,783.66161 377.79705,783.66161"
           id="path4358" />
        <path
           style="fill:none;fill-rule:evenodd;stroke:#000000;stroke-width:1px;stroke-linecap:butt;stroke-linejoin:miter;stroke-opacity:1"
           d="M 341.43156,805.88496 C 342.6447,805.58168 364.93072,805.88496 377.79705,805.88496"
           id="path4360" />
        <path
           style="fill:none;fill-rule:evenodd;stroke:#000000;stroke-width:1px;stroke-linecap:butt;stroke-linejoin:miter;stroke-opacity:1"
           d="M 345.47217,828.10832 C 347.21096,827.67362 373.96071,826.08801 387.89858,826.08801"
           id="path4362" />
        <path
           style="fill:none;fill-rule:evenodd;stroke:#000000;stroke-width:1px;stroke-linecap:butt;stroke-linejoin:miter;stroke-opacity:1"
           d="M 347.49248,852.35198 C 352.85821,851.01054 379.48142,853.44612 391.93919,850.33167"
           id="path4364" />
        <path
           style="fill:none;fill-rule:evenodd;stroke:#000000;stroke-width:1px;stroke-linecap:butt;stroke-linejoin:miter;stroke-opacity:1"
           d="M 341.43156,880.63625 C 346.32452,879.41301 370.13653,878.61594 381.83766,878.61594"
           id="path4366" />
        <path
           style="fill:none;fill-rule:evenodd;stroke:#000000;stroke-width:1px;stroke-linecap:butt;stroke-linejoin:miter;stroke-opacity:1"
           d="M 349.51278,902.85961 C 359.3127,900.40963 369.85327,904.52029 379.81736,902.85961"
           id="path4368" />
        <path
           style="fill:none;fill-rule:evenodd;stroke:#000000;stroke-width:1px;stroke-linecap:butt;stroke-linejoin:miter;stroke-opacity:1"
           d="M 337.39095,929.12357 C 344.33774,927.38687 366.82931,930.35028 379.81736,927.10327"
           id="path4370" />
        <path
           style="fill:none;fill-rule:evenodd;stroke:#000000;stroke-width:1px;stroke-linecap:butt;stroke-linejoin:miter;stroke-opacity:1"
           d="M 345.47217,951.34693 C 357.15739,948.42562 387.27147,949.32662 406.08132,949.32662"
           id="path4372" />
        <text
           xml:space="preserve"
           style="font-size:30px;font-style:normal;font-weight:normal;fill:#000000;fill-opacity:1;stroke:none;stroke-width:1px;stroke-linecap:butt;stroke-linejoin:miter;stroke-opacity:1;font-family:Bitstream Vera Sans"
           x="288.90363"
           y="755.37738"
           id="text4374"><tspan
             sodipodi:role="line"
             id="tspan4376"
             x="288.90363"
             y="755.37738">Article</tspan></text>
      </g>
    </g>
    <g
       id="g4477"
       transform="matrix(0.3492953,0,0,0.3492953,-146.5923,641.05919)">
      <path
         sodipodi:nodetypes="csssccssssssc"
         id="path4397"
         d="M 474.73996,764.18635 C 481.03829,778.84606 482.82118,804.39123 482.82118,826.81581 C 482.82118,842.83912 480.80088,857.41894 480.80088,873.28282 C 480.80088,891.81678 475.52586,895.50618 498.98362,895.50618 C 513.13528,895.50618 528.44761,896.72648 541.41003,893.48587 C 606.90589,893.75192 565.31408,895.04069 624.24254,891.46557 C 615.00397,868.36913 628.28315,862.14932 628.28315,838.93764 C 628.28315,817.38772 628.28315,795.8378 628.28315,774.28787 C 628.28315,757.15265 628.87779,752.06452 610.1004,752.06452 C 597.29611,752.06452 586.88519,750.04421 573.73491,750.04421 C 558.52564,750.04421 541.30206,752.06452 525.24759,752.06452 C 510.83208,752.06452 498.84742,754.08482 484.84149,754.08482 C 480.07958,754.08482 478.10714,760.81917 474.73996,764.18635 z"
         style="fill:#e6e6e6;fill-rule:evenodd;stroke:#000000;stroke-width:1px;stroke-linecap:butt;stroke-linejoin:miter;stroke-opacity:1" />
      <path
         id="path4399"
         d="M 498.98362,792.47062 C 488.7927,792.47062 520.17316,792.98753 529.2882,788.43001"
         style="fill:none;fill-rule:evenodd;stroke:#000000;stroke-width:1px;stroke-linecap:butt;stroke-linejoin:miter;stroke-opacity:1" />
      <path
         id="path4401"
         d="M 494.94301,810.65337 C 480.78485,810.65337 523.63399,812.06692 537.36942,808.63306"
         style="fill:none;fill-rule:evenodd;stroke:#000000;stroke-width:1px;stroke-linecap:butt;stroke-linejoin:miter;stroke-opacity:1" />
      <path
         id="path4403"
         d="M 492.92271,838.93764 C 477.97002,838.93764 522.70711,835.80918 537.36942,832.87672"
         style="fill:none;fill-rule:evenodd;stroke:#000000;stroke-width:1px;stroke-linecap:butt;stroke-linejoin:miter;stroke-opacity:1" />
      <path
         id="path4405"
         d="M 496.96332,859.14069 C 483.42744,859.14069 523.83354,863.1813 537.36942,863.1813"
         style="fill:none;fill-rule:evenodd;stroke:#000000;stroke-width:1px;stroke-linecap:butt;stroke-linejoin:miter;stroke-opacity:1" />
      <path
         id="path4407"
         d="M 496.96332,879.34374 C 481.41586,879.34374 528.1848,878.35224 543.43033,875.30313"
         style="fill:none;fill-rule:evenodd;stroke:#000000;stroke-width:1px;stroke-linecap:butt;stroke-linejoin:miter;stroke-opacity:1" />
      <path
         id="path4409"
         d="M 561.61308,792.47062 C 545.43662,792.47062 594.40693,798.41429 610.1004,794.49092 C 612.06039,794.00093 614.14101,794.49092 616.16132,794.49092"
         style="fill:none;fill-rule:evenodd;stroke:#000000;stroke-width:1px;stroke-linecap:butt;stroke-linejoin:miter;stroke-opacity:1" />
      <path
         id="path4411"
         d="M 563.63339,810.65337 C 564.45597,810.44772 585.49725,810.65337 597.97857,810.65337"
         style="fill:none;fill-rule:evenodd;stroke:#000000;stroke-width:1px;stroke-linecap:butt;stroke-linejoin:miter;stroke-opacity:1" />
      <path
         id="path4413"
         d="M 561.61308,832.87672 C 562.82622,832.57344 585.11224,832.87672 597.97857,832.87672"
         style="fill:none;fill-rule:evenodd;stroke:#000000;stroke-width:1px;stroke-linecap:butt;stroke-linejoin:miter;stroke-opacity:1" />
      <path
         id="path4415"
         d="M 565.65369,855.10008 C 567.39248,854.66538 594.14223,853.07977 608.0801,853.07977"
         style="fill:none;fill-rule:evenodd;stroke:#000000;stroke-width:1px;stroke-linecap:butt;stroke-linejoin:miter;stroke-opacity:1" />
      <path
         id="path4417"
         d="M 567.674,879.34374 C 573.03973,878.0023 599.66294,880.43788 612.12071,877.32343"
         style="fill:none;fill-rule:evenodd;stroke:#000000;stroke-width:1px;stroke-linecap:butt;stroke-linejoin:miter;stroke-opacity:1" />
      <text
         id="text4427"
         y="782.36914"
         x="509.08514"
         style="font-size:30px;font-style:normal;font-weight:normal;fill:#000000;fill-opacity:1;stroke:none;stroke-width:1px;stroke-linecap:butt;stroke-linejoin:miter;stroke-opacity:1;font-family:Bitstream Vera Sans"
         xml:space="preserve"><tspan
           y="782.36914"
           x="509.08514"
           id="tspan4429"
           sodipodi:role="line">Article</tspan></text>
    </g>
    <g
       id="g4492"
       transform="matrix(0.3492953,0,0,0.3492953,-174.00552,635.88598)">
      <path
         sodipodi:nodetypes="csssccssssssc"
         id="path4451"
         d="M 670.65834,943.08711 C 675.05734,957.7633 676.30258,983.33719 676.30258,1005.787 C 676.30258,1021.8283 674.89152,1036.4244 674.89152,1052.3062 C 674.89152,1070.861 671.20725,1074.5546 687.59106,1074.5546 C 697.47514,1074.5546 708.16988,1075.7763 717.22334,1072.5319 C 762.96823,1072.7983 733.91888,1074.0885 775.07683,1070.5094 C 768.62425,1047.387 777.89895,1041.1601 777.89895,1017.9224 C 777.89895,996.3483 777.89895,974.77415 777.89895,953.19999 C 777.89895,936.0455 778.31427,930.95165 765.1994,930.95165 C 756.25638,930.95165 748.98499,928.92907 739.80031,928.92907 C 729.17756,928.92907 717.14793,930.95165 705.93486,930.95165 C 695.8665,930.95165 687.49594,932.97422 677.71364,932.97422 C 674.38774,932.97422 673.01011,939.71615 670.65834,943.08711 z"
         style="fill:#e6e6e6;fill-rule:evenodd;stroke:#000000;stroke-width:0.8361966px;stroke-linecap:butt;stroke-linejoin:miter;stroke-opacity:1" />
      <path
         id="path4463"
         d="M 697.00421,967.39677 C 680.82775,967.39677 729.79806,973.34044 745.49153,969.41707 C 747.45152,968.92708 749.53214,969.41707 751.55245,969.41707"
         style="fill:none;fill-rule:evenodd;stroke:#000000;stroke-width:1px;stroke-linecap:butt;stroke-linejoin:miter;stroke-opacity:1" />
      <path
         id="path4465"
         d="M 699.02452,985.57952 C 699.8471,985.37387 720.88838,985.57952 733.3697,985.57952"
         style="fill:none;fill-rule:evenodd;stroke:#000000;stroke-width:1px;stroke-linecap:butt;stroke-linejoin:miter;stroke-opacity:1" />
      <path
         id="path4467"
         d="M 697.00421,1007.8029 C 698.21735,1007.4996 720.50337,1007.8029 733.3697,1007.8029"
         style="fill:none;fill-rule:evenodd;stroke:#000000;stroke-width:1px;stroke-linecap:butt;stroke-linejoin:miter;stroke-opacity:1" />
      <path
         id="path4469"
         d="M 701.04482,1030.0262 C 702.78361,1029.5915 729.53336,1028.0059 743.47123,1028.0059"
         style="fill:none;fill-rule:evenodd;stroke:#000000;stroke-width:1px;stroke-linecap:butt;stroke-linejoin:miter;stroke-opacity:1" />
      <path
         id="path4471"
         d="M 703.06513,1054.2698 C 708.43086,1052.9284 735.05407,1055.364 747.51184,1052.2495"
         style="fill:none;fill-rule:evenodd;stroke:#000000;stroke-width:1px;stroke-linecap:butt;stroke-linejoin:miter;stroke-opacity:1" />
      <text
         id="text4473"
         y="957.29529"
         x="678.82147"
         style="font-size:30px;font-style:normal;font-weight:normal;fill:#000000;fill-opacity:1;stroke:none;stroke-width:1px;stroke-linecap:butt;stroke-linejoin:miter;stroke-opacity:1;font-family:Bitstream Vera Sans"
         xml:space="preserve"><tspan
           y="957.29529"
           x="678.82147"
           id="tspan4475"
           sodipodi:role="line">Article</tspan></text>
    </g>
    <g
       transform="matrix(0.3492953,0,0,0.3492953,-3.1412357,636.98995)"
       id="g10319">
      <g
         id="g10321"
         transform="translate(0,32.324881)">
        <path
           id="path10323"
           d="M 254.55844,737.19459 C 260.85677,751.8543 262.63966,777.39947 262.63966,799.82405 C 262.63966,815.84736 260.61936,830.42718 260.61936,846.29106 C 260.61936,864.82502 255.34434,868.51442 278.8021,868.51442 C 292.95376,868.51442 308.26609,869.73472 321.22851,866.49411 C 332.16963,863.75883 326.63955,897.3779 325.26912,902.85961 C 321.25916,918.89944 325.2433,937.29517 321.22851,951.34693 C 317.61718,963.98659 334.15986,971.54998 343.45187,971.54998 C 365.08645,971.54998 385.33626,974.85144 404.06102,965.48906 C 412.95664,961.04125 405.07041,904.37295 402.04071,896.79869 C 392.80214,873.70225 408.10163,835.15756 408.10163,811.94588 C 408.10163,790.39596 408.10163,768.84604 408.10163,747.29611 C 408.10163,730.16089 408.69627,725.07276 389.91888,725.07276 C 377.11459,725.07276 366.70367,723.05245 353.55339,723.05245 C 338.34412,723.05245 321.12054,725.07276 305.06607,725.07276 C 290.65056,725.07276 278.6659,727.09306 264.65997,727.09306 C 259.89806,727.09306 257.92562,733.82741 254.55844,737.19459 z"
           style="fill:#e6e6e6;fill-rule:evenodd;stroke:#000000;stroke-width:1px;stroke-linecap:butt;stroke-linejoin:miter;stroke-opacity:1" />
        <path
           id="path10325"
           d="M 278.8021,765.47886 C 268.61118,765.47886 299.99164,765.99577 309.10668,761.43825"
           style="fill:none;fill-rule:evenodd;stroke:#000000;stroke-width:1px;stroke-linecap:butt;stroke-linejoin:miter;stroke-opacity:1" />
        <path
           id="path10327"
           d="M 274.76149,783.66161 C 260.60333,783.66161 303.45247,785.07516 317.1879,781.6413"
           style="fill:none;fill-rule:evenodd;stroke:#000000;stroke-width:1px;stroke-linecap:butt;stroke-linejoin:miter;stroke-opacity:1" />
        <path
           id="path10329"
           d="M 272.74119,811.94588 C 257.7885,811.94588 302.52559,808.81742 317.1879,805.88496"
           style="fill:none;fill-rule:evenodd;stroke:#000000;stroke-width:1px;stroke-linecap:butt;stroke-linejoin:miter;stroke-opacity:1" />
        <path
           id="path10331"
           d="M 276.7818,832.14893 C 263.24592,832.14893 303.65202,836.18954 317.1879,836.18954"
           style="fill:none;fill-rule:evenodd;stroke:#000000;stroke-width:1px;stroke-linecap:butt;stroke-linejoin:miter;stroke-opacity:1" />
        <path
           id="path10333"
           d="M 276.7818,852.35198 C 261.23434,852.35198 308.00328,851.36048 323.24881,848.31137"
           style="fill:none;fill-rule:evenodd;stroke:#000000;stroke-width:1px;stroke-linecap:butt;stroke-linejoin:miter;stroke-opacity:1" />
        <path
           id="path10335"
           d="M 341.43156,765.47886 C 325.2551,765.47886 374.22541,771.42253 389.91888,767.49916 C 391.87887,767.00917 393.95949,767.49916 395.9798,767.49916"
           style="fill:none;fill-rule:evenodd;stroke:#000000;stroke-width:1px;stroke-linecap:butt;stroke-linejoin:miter;stroke-opacity:1" />
        <path
           id="path10337"
           d="M 343.45187,783.66161 C 344.27445,783.45596 365.31573,783.66161 377.79705,783.66161"
           style="fill:none;fill-rule:evenodd;stroke:#000000;stroke-width:1px;stroke-linecap:butt;stroke-linejoin:miter;stroke-opacity:1" />
        <path
           id="path10339"
           d="M 341.43156,805.88496 C 342.6447,805.58168 364.93072,805.88496 377.79705,805.88496"
           style="fill:none;fill-rule:evenodd;stroke:#000000;stroke-width:1px;stroke-linecap:butt;stroke-linejoin:miter;stroke-opacity:1" />
        <path
           id="path10341"
           d="M 345.47217,828.10832 C 347.21096,827.67362 373.96071,826.08801 387.89858,826.08801"
           style="fill:none;fill-rule:evenodd;stroke:#000000;stroke-width:1px;stroke-linecap:butt;stroke-linejoin:miter;stroke-opacity:1" />
        <path
           id="path10343"
           d="M 347.49248,852.35198 C 352.85821,851.01054 379.48142,853.44612 391.93919,850.33167"
           style="fill:none;fill-rule:evenodd;stroke:#000000;stroke-width:1px;stroke-linecap:butt;stroke-linejoin:miter;stroke-opacity:1" />
        <path
           id="path10345"
           d="M 341.43156,880.63625 C 346.32452,879.41301 370.13653,878.61594 381.83766,878.61594"
           style="fill:none;fill-rule:evenodd;stroke:#000000;stroke-width:1px;stroke-linecap:butt;stroke-linejoin:miter;stroke-opacity:1" />
        <path
           id="path10347"
           d="M 349.51278,902.85961 C 359.3127,900.40963 369.85327,904.52029 379.81736,902.85961"
           style="fill:none;fill-rule:evenodd;stroke:#000000;stroke-width:1px;stroke-linecap:butt;stroke-linejoin:miter;stroke-opacity:1" />
        <path
           id="path10349"
           d="M 337.39095,929.12357 C 344.33774,927.38687 366.82931,930.35028 379.81736,927.10327"
           style="fill:none;fill-rule:evenodd;stroke:#000000;stroke-width:1px;stroke-linecap:butt;stroke-linejoin:miter;stroke-opacity:1" />
        <path
           id="path10351"
           d="M 345.47217,951.34693 C 357.15739,948.42562 387.27147,949.32662 406.08132,949.32662"
           style="fill:none;fill-rule:evenodd;stroke:#000000;stroke-width:1px;stroke-linecap:butt;stroke-linejoin:miter;stroke-opacity:1" />
        <text
           id="text10353"
           y="755.37738"
           x="288.90363"
           style="font-size:30px;font-style:normal;font-weight:normal;fill:#000000;fill-opacity:1;stroke:none;stroke-width:1px;stroke-linecap:butt;stroke-linejoin:miter;stroke-opacity:1;font-family:Bitstream Vera Sans"
           xml:space="preserve"><tspan
             y="755.37738"
             x="288.90363"
             id="tspan10355"
             sodipodi:role="line">Article</tspan></text>
      </g>
    </g>
    <g
       transform="matrix(0.3492953,0,0,0.3492953,225.26136,701.0057)"
       id="g10357">
      <path
         style="fill:#e6e6e6;fill-rule:evenodd;stroke:#000000;stroke-width:1px;stroke-linecap:butt;stroke-linejoin:miter;stroke-opacity:1"
         d="M 474.73996,764.18635 C 481.03829,778.84606 482.82118,804.39123 482.82118,826.81581 C 482.82118,842.83912 480.80088,857.41894 480.80088,873.28282 C 480.80088,891.81678 475.52586,895.50618 498.98362,895.50618 C 513.13528,895.50618 528.44761,896.72648 541.41003,893.48587 C 606.90589,893.75192 565.31408,895.04069 624.24254,891.46557 C 615.00397,868.36913 628.28315,862.14932 628.28315,838.93764 C 628.28315,817.38772 628.28315,795.8378 628.28315,774.28787 C 628.28315,757.15265 628.87779,752.06452 610.1004,752.06452 C 597.29611,752.06452 586.88519,750.04421 573.73491,750.04421 C 558.52564,750.04421 541.30206,752.06452 525.24759,752.06452 C 510.83208,752.06452 498.84742,754.08482 484.84149,754.08482 C 480.07958,754.08482 478.10714,760.81917 474.73996,764.18635 z"
         id="path10359"
         sodipodi:nodetypes="csssccssssssc" />
      <path
         style="fill:none;fill-rule:evenodd;stroke:#000000;stroke-width:1px;stroke-linecap:butt;stroke-linejoin:miter;stroke-opacity:1"
         d="M 498.98362,792.47062 C 488.7927,792.47062 520.17316,792.98753 529.2882,788.43001"
         id="path10361" />
      <path
         style="fill:none;fill-rule:evenodd;stroke:#000000;stroke-width:1px;stroke-linecap:butt;stroke-linejoin:miter;stroke-opacity:1"
         d="M 494.94301,810.65337 C 480.78485,810.65337 523.63399,812.06692 537.36942,808.63306"
         id="path10363" />
      <path
         style="fill:none;fill-rule:evenodd;stroke:#000000;stroke-width:1px;stroke-linecap:butt;stroke-linejoin:miter;stroke-opacity:1"
         d="M 492.92271,838.93764 C 477.97002,838.93764 522.70711,835.80918 537.36942,832.87672"
         id="path10365" />
      <path
         style="fill:none;fill-rule:evenodd;stroke:#000000;stroke-width:1px;stroke-linecap:butt;stroke-linejoin:miter;stroke-opacity:1"
         d="M 496.96332,859.14069 C 483.42744,859.14069 523.83354,863.1813 537.36942,863.1813"
         id="path10367" />
      <path
         style="fill:none;fill-rule:evenodd;stroke:#000000;stroke-width:1px;stroke-linecap:butt;stroke-linejoin:miter;stroke-opacity:1"
         d="M 496.96332,879.34374 C 481.41586,879.34374 528.1848,878.35224 543.43033,875.30313"
         id="path10369" />
      <path
         style="fill:none;fill-rule:evenodd;stroke:#000000;stroke-width:1px;stroke-linecap:butt;stroke-linejoin:miter;stroke-opacity:1"
         d="M 561.61308,792.47062 C 545.43662,792.47062 594.40693,798.41429 610.1004,794.49092 C 612.06039,794.00093 614.14101,794.49092 616.16132,794.49092"
         id="path10371" />
      <path
         style="fill:none;fill-rule:evenodd;stroke:#000000;stroke-width:1px;stroke-linecap:butt;stroke-linejoin:miter;stroke-opacity:1"
         d="M 563.63339,810.65337 C 564.45597,810.44772 585.49725,810.65337 597.97857,810.65337"
         id="path10373" />
      <path
         style="fill:none;fill-rule:evenodd;stroke:#000000;stroke-width:1px;stroke-linecap:butt;stroke-linejoin:miter;stroke-opacity:1"
         d="M 561.61308,832.87672 C 562.82622,832.57344 585.11224,832.87672 597.97857,832.87672"
         id="path10375" />
      <path
         style="fill:none;fill-rule:evenodd;stroke:#000000;stroke-width:1px;stroke-linecap:butt;stroke-linejoin:miter;stroke-opacity:1"
         d="M 565.65369,855.10008 C 567.39248,854.66538 594.14223,853.07977 608.0801,853.07977"
         id="path10377" />
      <path
         style="fill:none;fill-rule:evenodd;stroke:#000000;stroke-width:1px;stroke-linecap:butt;stroke-linejoin:miter;stroke-opacity:1"
         d="M 567.674,879.34374 C 573.03973,878.0023 599.66294,880.43788 612.12071,877.32343"
         id="path10379" />
      <text
         xml:space="preserve"
         style="font-size:30px;font-style:normal;font-weight:normal;fill:#000000;fill-opacity:1;stroke:none;stroke-width:1px;stroke-linecap:butt;stroke-linejoin:miter;stroke-opacity:1;font-family:Bitstream Vera Sans"
         x="509.08514"
         y="782.36914"
         id="text10381"><tspan
           sodipodi:role="line"
           id="tspan10383"
           x="509.08514"
           y="782.36914">Article</tspan></text>
    </g>
    <g
       transform="matrix(0.3492953,0,0,0.3492953,0.2123512,581.92177)"
       id="g10385">
      <path
         style="fill:#e6e6e6;fill-rule:evenodd;stroke:#000000;stroke-width:0.8361966px;stroke-linecap:butt;stroke-linejoin:miter;stroke-opacity:1"
         d="M 670.65834,943.08711 C 675.05734,957.7633 676.30258,983.33719 676.30258,1005.787 C 676.30258,1021.8283 674.89152,1036.4244 674.89152,1052.3062 C 674.89152,1070.861 671.20725,1074.5546 687.59106,1074.5546 C 697.47514,1074.5546 708.16988,1075.7763 717.22334,1072.5319 C 762.96823,1072.7983 733.91888,1074.0885 775.07683,1070.5094 C 768.62425,1047.387 777.89895,1041.1601 777.89895,1017.9224 C 777.89895,996.3483 777.89895,974.77415 777.89895,953.19999 C 777.89895,936.0455 778.31427,930.95165 765.1994,930.95165 C 756.25638,930.95165 748.98499,928.92907 739.80031,928.92907 C 729.17756,928.92907 717.14793,930.95165 705.93486,930.95165 C 695.8665,930.95165 687.49594,932.97422 677.71364,932.97422 C 674.38774,932.97422 673.01011,939.71615 670.65834,943.08711 z"
         id="path10387"
         sodipodi:nodetypes="csssccssssssc" />
      <path
         style="fill:none;fill-rule:evenodd;stroke:#000000;stroke-width:1px;stroke-linecap:butt;stroke-linejoin:miter;stroke-opacity:1"
         d="M 697.00421,967.39677 C 680.82775,967.39677 729.79806,973.34044 745.49153,969.41707 C 747.45152,968.92708 749.53214,969.41707 751.55245,969.41707"
         id="path10389" />
      <path
         style="fill:none;fill-rule:evenodd;stroke:#000000;stroke-width:1px;stroke-linecap:butt;stroke-linejoin:miter;stroke-opacity:1"
         d="M 699.02452,985.57952 C 699.8471,985.37387 720.88838,985.57952 733.3697,985.57952"
         id="path10391" />
      <path
         style="fill:none;fill-rule:evenodd;stroke:#000000;stroke-width:1px;stroke-linecap:butt;stroke-linejoin:miter;stroke-opacity:1"
         d="M 697.00421,1007.8029 C 698.21735,1007.4996 720.50337,1007.8029 733.3697,1007.8029"
         id="path10393" />
      <path
         style="fill:none;fill-rule:evenodd;stroke:#000000;stroke-width:1px;stroke-linecap:butt;stroke-linejoin:miter;stroke-opacity:1"
         d="M 701.04482,1030.0262 C 702.78361,1029.5915 729.53336,1028.0059 743.47123,1028.0059"
         id="path10395" />
      <path
         style="fill:none;fill-rule:evenodd;stroke:#000000;stroke-width:1px;stroke-linecap:butt;stroke-linejoin:miter;stroke-opacity:1"
         d="M 703.06513,1054.2698 C 708.43086,1052.9284 735.05407,1055.364 747.51184,1052.2495"
         id="path10397" />
      <text
         xml:space="preserve"
         style="font-size:30px;font-style:normal;font-weight:normal;fill:#000000;fill-opacity:1;stroke:none;stroke-width:1px;stroke-linecap:butt;stroke-linejoin:miter;stroke-opacity:1;font-family:Bitstream Vera Sans"
         x="678.82147"
         y="957.29529"
         id="text10399"><tspan
           sodipodi:role="line"
           id="tspan10401"
           x="678.82147"
           y="957.29529">Article</tspan></text>
    </g>
    <g
       id="g10403"
       transform="matrix(0.3492953,0,0,0.3492953,183.59628,645.04825)">
      <path
         sodipodi:nodetypes="csssccssssssc"
         id="path10405"
         d="M 474.73996,764.18635 C 481.03829,778.84606 482.82118,804.39123 482.82118,826.81581 C 482.82118,842.83912 480.80088,857.41894 480.80088,873.28282 C 480.80088,891.81678 475.52586,895.50618 498.98362,895.50618 C 513.13528,895.50618 528.44761,896.72648 541.41003,893.48587 C 606.90589,893.75192 565.31408,895.04069 624.24254,891.46557 C 615.00397,868.36913 628.28315,862.14932 628.28315,838.93764 C 628.28315,817.38772 628.28315,795.8378 628.28315,774.28787 C 628.28315,757.15265 628.87779,752.06452 610.1004,752.06452 C 597.29611,752.06452 586.88519,750.04421 573.73491,750.04421 C 558.52564,750.04421 541.30206,752.06452 525.24759,752.06452 C 510.83208,752.06452 498.84742,754.08482 484.84149,754.08482 C 480.07958,754.08482 478.10714,760.81917 474.73996,764.18635 z"
         style="fill:#e6e6e6;fill-rule:evenodd;stroke:#000000;stroke-width:1px;stroke-linecap:butt;stroke-linejoin:miter;stroke-opacity:1" />
      <path
         id="path10407"
         d="M 498.98362,792.47062 C 488.7927,792.47062 520.17316,792.98753 529.2882,788.43001"
         style="fill:none;fill-rule:evenodd;stroke:#000000;stroke-width:1px;stroke-linecap:butt;stroke-linejoin:miter;stroke-opacity:1" />
      <path
         id="path10409"
         d="M 494.94301,810.65337 C 480.78485,810.65337 523.63399,812.06692 537.36942,808.63306"
         style="fill:none;fill-rule:evenodd;stroke:#000000;stroke-width:1px;stroke-linecap:butt;stroke-linejoin:miter;stroke-opacity:1" />
      <path
         id="path10411"
         d="M 492.92271,838.93764 C 477.97002,838.93764 522.70711,835.80918 537.36942,832.87672"
         style="fill:none;fill-rule:evenodd;stroke:#000000;stroke-width:1px;stroke-linecap:butt;stroke-linejoin:miter;stroke-opacity:1" />
      <path
         id="path10413"
         d="M 496.96332,859.14069 C 483.42744,859.14069 523.83354,863.1813 537.36942,863.1813"
         style="fill:none;fill-rule:evenodd;stroke:#000000;stroke-width:1px;stroke-linecap:butt;stroke-linejoin:miter;stroke-opacity:1" />
      <path
         id="path10415"
         d="M 496.96332,879.34374 C 481.41586,879.34374 528.1848,878.35224 543.43033,875.30313"
         style="fill:none;fill-rule:evenodd;stroke:#000000;stroke-width:1px;stroke-linecap:butt;stroke-linejoin:miter;stroke-opacity:1" />
      <path
         id="path10417"
         d="M 561.61308,792.47062 C 545.43662,792.47062 594.40693,798.41429 610.1004,794.49092 C 612.06039,794.00093 614.14101,794.49092 616.16132,794.49092"
         style="fill:none;fill-rule:evenodd;stroke:#000000;stroke-width:1px;stroke-linecap:butt;stroke-linejoin:miter;stroke-opacity:1" />
      <path
         id="path10419"
         d="M 563.63339,810.65337 C 564.45597,810.44772 585.49725,810.65337 597.97857,810.65337"
         style="fill:none;fill-rule:evenodd;stroke:#000000;stroke-width:1px;stroke-linecap:butt;stroke-linejoin:miter;stroke-opacity:1" />
      <path
         id="path10421"
         d="M 561.61308,832.87672 C 562.82622,832.57344 585.11224,832.87672 597.97857,832.87672"
         style="fill:none;fill-rule:evenodd;stroke:#000000;stroke-width:1px;stroke-linecap:butt;stroke-linejoin:miter;stroke-opacity:1" />
      <path
         id="path10423"
         d="M 565.65369,855.10008 C 567.39248,854.66538 594.14223,853.07977 608.0801,853.07977"
         style="fill:none;fill-rule:evenodd;stroke:#000000;stroke-width:1px;stroke-linecap:butt;stroke-linejoin:miter;stroke-opacity:1" />
      <path
         id="path10425"
         d="M 567.674,879.34374 C 573.03973,878.0023 599.66294,880.43788 612.12071,877.32343"
         style="fill:none;fill-rule:evenodd;stroke:#000000;stroke-width:1px;stroke-linecap:butt;stroke-linejoin:miter;stroke-opacity:1" />
      <text
         id="text10427"
         y="782.36914"
         x="509.08514"
         style="font-size:30px;font-style:normal;font-weight:normal;fill:#000000;fill-opacity:1;stroke:none;stroke-width:1px;stroke-linecap:butt;stroke-linejoin:miter;stroke-opacity:1;font-family:Bitstream Vera Sans"
         xml:space="preserve"><tspan
           y="782.36914"
           x="509.08514"
           id="tspan10429"
           sodipodi:role="line">Article</tspan></text>
    </g>
    <g
       id="g10431"
       transform="matrix(0.3492953,0,0,0.3492953,182.3231,581.21402)">
      <path
         sodipodi:nodetypes="csssccssssssc"
         id="path10433"
         d="M 670.65834,943.08711 C 675.05734,957.7633 676.30258,983.33719 676.30258,1005.787 C 676.30258,1021.8283 674.89152,1036.4244 674.89152,1052.3062 C 674.89152,1070.861 671.20725,1074.5546 687.59106,1074.5546 C 697.47514,1074.5546 708.16988,1075.7763 717.22334,1072.5319 C 762.96823,1072.7983 733.91888,1074.0885 775.07683,1070.5094 C 768.62425,1047.387 777.89895,1041.1601 777.89895,1017.9224 C 777.89895,996.3483 777.89895,974.77415 777.89895,953.19999 C 777.89895,936.0455 778.31427,930.95165 765.1994,930.95165 C 756.25638,930.95165 748.98499,928.92907 739.80031,928.92907 C 729.17756,928.92907 717.14793,930.95165 705.93486,930.95165 C 695.8665,930.95165 687.49594,932.97422 677.71364,932.97422 C 674.38774,932.97422 673.01011,939.71615 670.65834,943.08711 z"
         style="fill:#e6e6e6;fill-rule:evenodd;stroke:#000000;stroke-width:0.8361966px;stroke-linecap:butt;stroke-linejoin:miter;stroke-opacity:1" />
      <path
         id="path10435"
         d="M 697.00421,967.39677 C 680.82775,967.39677 729.79806,973.34044 745.49153,969.41707 C 747.45152,968.92708 749.53214,969.41707 751.55245,969.41707"
         style="fill:none;fill-rule:evenodd;stroke:#000000;stroke-width:1px;stroke-linecap:butt;stroke-linejoin:miter;stroke-opacity:1" />
      <path
         id="path10437"
         d="M 699.02452,985.57952 C 699.8471,985.37387 720.88838,985.57952 733.3697,985.57952"
         style="fill:none;fill-rule:evenodd;stroke:#000000;stroke-width:1px;stroke-linecap:butt;stroke-linejoin:miter;stroke-opacity:1" />
      <path
         id="path10439"
         d="M 697.00421,1007.8029 C 698.21735,1007.4996 720.50337,1007.8029 733.3697,1007.8029"
         style="fill:none;fill-rule:evenodd;stroke:#000000;stroke-width:1px;stroke-linecap:butt;stroke-linejoin:miter;stroke-opacity:1" />
      <path
         id="path10441"
         d="M 701.04482,1030.0262 C 702.78361,1029.5915 729.53336,1028.0059 743.47123,1028.0059"
         style="fill:none;fill-rule:evenodd;stroke:#000000;stroke-width:1px;stroke-linecap:butt;stroke-linejoin:miter;stroke-opacity:1" />
      <path
         id="path10443"
         d="M 703.06513,1054.2698 C 708.43086,1052.9284 735.05407,1055.364 747.51184,1052.2495"
         style="fill:none;fill-rule:evenodd;stroke:#000000;stroke-width:1px;stroke-linecap:butt;stroke-linejoin:miter;stroke-opacity:1" />
      <text
         id="text10445"
         y="957.29529"
         x="678.82147"
         style="font-size:30px;font-style:normal;font-weight:normal;fill:#000000;fill-opacity:1;stroke:none;stroke-width:1px;stroke-linecap:butt;stroke-linejoin:miter;stroke-opacity:1;font-family:Bitstream Vera Sans"
         xml:space="preserve"><tspan
           y="957.29529"
           x="678.82147"
           id="tspan10447"
           sodipodi:role="line">Article</tspan></text>
    </g>
    <g
       transform="matrix(0.3492953,0,0,0.3492953,68.033827,708.82778)"
       id="g10449">
      <path
         style="fill:#e6e6e6;fill-rule:evenodd;stroke:#000000;stroke-width:1px;stroke-linecap:butt;stroke-linejoin:miter;stroke-opacity:1"
         d="M 474.73996,764.18635 C 481.03829,778.84606 482.82118,804.39123 482.82118,826.81581 C 482.82118,842.83912 480.80088,857.41894 480.80088,873.28282 C 480.80088,891.81678 475.52586,895.50618 498.98362,895.50618 C 513.13528,895.50618 528.44761,896.72648 541.41003,893.48587 C 606.90589,893.75192 565.31408,895.04069 624.24254,891.46557 C 615.00397,868.36913 628.28315,862.14932 628.28315,838.93764 C 628.28315,817.38772 628.28315,795.8378 628.28315,774.28787 C 628.28315,757.15265 628.87779,752.06452 610.1004,752.06452 C 597.29611,752.06452 586.88519,750.04421 573.73491,750.04421 C 558.52564,750.04421 541.30206,752.06452 525.24759,752.06452 C 510.83208,752.06452 498.84742,754.08482 484.84149,754.08482 C 480.07958,754.08482 478.10714,760.81917 474.73996,764.18635 z"
         id="path10451"
         sodipodi:nodetypes="csssccssssssc" />
      <path
         style="fill:none;fill-rule:evenodd;stroke:#000000;stroke-width:1px;stroke-linecap:butt;stroke-linejoin:miter;stroke-opacity:1"
         d="M 498.98362,792.47062 C 488.7927,792.47062 520.17316,792.98753 529.2882,788.43001"
         id="path10453" />
      <path
         style="fill:none;fill-rule:evenodd;stroke:#000000;stroke-width:1px;stroke-linecap:butt;stroke-linejoin:miter;stroke-opacity:1"
         d="M 494.94301,810.65337 C 480.78485,810.65337 523.63399,812.06692 537.36942,808.63306"
         id="path10455" />
      <path
         style="fill:none;fill-rule:evenodd;stroke:#000000;stroke-width:1px;stroke-linecap:butt;stroke-linejoin:miter;stroke-opacity:1"
         d="M 492.92271,838.93764 C 477.97002,838.93764 522.70711,835.80918 537.36942,832.87672"
         id="path10457" />
      <path
         style="fill:none;fill-rule:evenodd;stroke:#000000;stroke-width:1px;stroke-linecap:butt;stroke-linejoin:miter;stroke-opacity:1"
         d="M 496.96332,859.14069 C 483.42744,859.14069 523.83354,863.1813 537.36942,863.1813"
         id="path10459" />
      <path
         style="fill:none;fill-rule:evenodd;stroke:#000000;stroke-width:1px;stroke-linecap:butt;stroke-linejoin:miter;stroke-opacity:1"
         d="M 496.96332,879.34374 C 481.41586,879.34374 528.1848,878.35224 543.43033,875.30313"
         id="path10461" />
      <path
         style="fill:none;fill-rule:evenodd;stroke:#000000;stroke-width:1px;stroke-linecap:butt;stroke-linejoin:miter;stroke-opacity:1"
         d="M 561.61308,792.47062 C 545.43662,792.47062 594.40693,798.41429 610.1004,794.49092 C 612.06039,794.00093 614.14101,794.49092 616.16132,794.49092"
         id="path10463" />
      <path
         style="fill:none;fill-rule:evenodd;stroke:#000000;stroke-width:1px;stroke-linecap:butt;stroke-linejoin:miter;stroke-opacity:1"
         d="M 563.63339,810.65337 C 564.45597,810.44772 585.49725,810.65337 597.97857,810.65337"
         id="path10465" />
      <path
         style="fill:none;fill-rule:evenodd;stroke:#000000;stroke-width:1px;stroke-linecap:butt;stroke-linejoin:miter;stroke-opacity:1"
         d="M 561.61308,832.87672 C 562.82622,832.57344 585.11224,832.87672 597.97857,832.87672"
         id="path10467" />
      <path
         style="fill:none;fill-rule:evenodd;stroke:#000000;stroke-width:1px;stroke-linecap:butt;stroke-linejoin:miter;stroke-opacity:1"
         d="M 565.65369,855.10008 C 567.39248,854.66538 594.14223,853.07977 608.0801,853.07977"
         id="path10469" />
      <path
         style="fill:none;fill-rule:evenodd;stroke:#000000;stroke-width:1px;stroke-linecap:butt;stroke-linejoin:miter;stroke-opacity:1"
         d="M 567.674,879.34374 C 573.03973,878.0023 599.66294,880.43788 612.12071,877.32343"
         id="path10471" />
      <text
         xml:space="preserve"
         style="font-size:30px;font-style:normal;font-weight:normal;fill:#000000;fill-opacity:1;stroke:none;stroke-width:1px;stroke-linecap:butt;stroke-linejoin:miter;stroke-opacity:1;font-family:Bitstream Vera Sans"
         x="509.08514"
         y="782.36914"
         id="text10473"><tspan
           sodipodi:role="line"
           id="tspan10475"
           x="509.08514"
           y="782.36914">Article</tspan></text>
    </g>
    <g
       transform="matrix(0.3492953,0,0,0.3492953,98.665317,643.43322)"
       id="g10477">
      <path
         style="fill:#e6e6e6;fill-rule:evenodd;stroke:#000000;stroke-width:0.8361966px;stroke-linecap:butt;stroke-linejoin:miter;stroke-opacity:1"
         d="M 670.65834,943.08711 C 675.05734,957.7633 676.30258,983.33719 676.30258,1005.787 C 676.30258,1021.8283 674.89152,1036.4244 674.89152,1052.3062 C 674.89152,1070.861 671.20725,1074.5546 687.59106,1074.5546 C 697.47514,1074.5546 708.16988,1075.7763 717.22334,1072.5319 C 762.96823,1072.7983 733.91888,1074.0885 775.07683,1070.5094 C 768.62425,1047.387 777.89895,1041.1601 777.89895,1017.9224 C 777.89895,996.3483 777.89895,974.77415 777.89895,953.19999 C 777.89895,936.0455 778.31427,930.95165 765.1994,930.95165 C 756.25638,930.95165 748.98499,928.92907 739.80031,928.92907 C 729.17756,928.92907 717.14793,930.95165 705.93486,930.95165 C 695.8665,930.95165 687.49594,932.97422 677.71364,932.97422 C 674.38774,932.97422 673.01011,939.71615 670.65834,943.08711 z"
         id="path10479"
         sodipodi:nodetypes="csssccssssssc" />
      <path
         style="fill:none;fill-rule:evenodd;stroke:#000000;stroke-width:1px;stroke-linecap:butt;stroke-linejoin:miter;stroke-opacity:1"
         d="M 697.00421,967.39677 C 680.82775,967.39677 729.79806,973.34044 745.49153,969.41707 C 747.45152,968.92708 749.53214,969.41707 751.55245,969.41707"
         id="path10481" />
      <path
         style="fill:none;fill-rule:evenodd;stroke:#000000;stroke-width:1px;stroke-linecap:butt;stroke-linejoin:miter;stroke-opacity:1"
         d="M 699.02452,985.57952 C 699.8471,985.37387 720.88838,985.57952 733.3697,985.57952"
         id="path10483" />
      <path
         style="fill:none;fill-rule:evenodd;stroke:#000000;stroke-width:1px;stroke-linecap:butt;stroke-linejoin:miter;stroke-opacity:1"
         d="M 697.00421,1007.8029 C 698.21735,1007.4996 720.50337,1007.8029 733.3697,1007.8029"
         id="path10485" />
      <path
         style="fill:none;fill-rule:evenodd;stroke:#000000;stroke-width:1px;stroke-linecap:butt;stroke-linejoin:miter;stroke-opacity:1"
         d="M 701.04482,1030.0262 C 702.78361,1029.5915 729.53336,1028.0059 743.47123,1028.0059"
         id="path10487" />
      <path
         style="fill:none;fill-rule:evenodd;stroke:#000000;stroke-width:1px;stroke-linecap:butt;stroke-linejoin:miter;stroke-opacity:1"
         d="M 703.06513,1054.2698 C 708.43086,1052.9284 735.05407,1055.364 747.51184,1052.2495"
         id="path10489" />
      <text
         xml:space="preserve"
         style="font-size:30px;font-style:normal;font-weight:normal;fill:#000000;fill-opacity:1;stroke:none;stroke-width:1px;stroke-linecap:butt;stroke-linejoin:miter;stroke-opacity:1;font-family:Bitstream Vera Sans"
         x="678.82147"
         y="957.29529"
         id="text10491"><tspan
           sodipodi:role="line"
           id="tspan10493"
           x="678.82147"
           y="957.29529">Article</tspan></text>
    </g>
  </g>
</svg>
