<?xml version="1.0" encoding="UTF-8" standalone="no"?>
<!-- Created with Inkscape (http://www.inkscape.org/) -->
<svg
   xmlns:dc="http://purl.org/dc/elements/1.1/"
   xmlns:cc="http://creativecommons.org/ns#"
   xmlns:rdf="http://www.w3.org/1999/02/22-rdf-syntax-ns#"
   xmlns:svg="http://www.w3.org/2000/svg"
   xmlns="http://www.w3.org/2000/svg"
   xmlns:xlink="http://www.w3.org/1999/xlink"
   xmlns:sodipodi="http://sodipodi.sourceforge.net/DTD/sodipodi-0.dtd"
   xmlns:inkscape="http://www.inkscape.org/namespaces/inkscape"
   width="453.5433"
   height="340.15747"
   id="svg2"
   sodipodi:version="0.32"
   inkscape:version="0.46"
   sodipodi:docname="slide310-maxdb7500-process.svg"
   version="1.0"
   inkscape:output_extension="org.inkscape.output.svg.inkscape">
  <defs
     id="defs4">
    <inkscape:perspective
       sodipodi:type="inkscape:persp3d"
       inkscape:vp_x="0 : 170.07874 : 1"
       inkscape:vp_y="0 : 1000 : 0"
       inkscape:vp_z="453.5433 : 170.07874 : 1"
       inkscape:persp3d-origin="226.77165 : 113.38582 : 1"
       id="perspective16419" />
    <inkscape:perspective
       id="perspective16701"
       inkscape:persp3d-origin="372.04724 : 350.78739 : 1"
       inkscape:vp_z="744.09448 : 526.18109 : 1"
       inkscape:vp_y="0 : 1000 : 0"
       inkscape:vp_x="0 : 526.18109 : 1"
       sodipodi:type="inkscape:persp3d" />
  </defs>
  <sodipodi:namedview
     id="base"
     pagecolor="#ffffff"
     bordercolor="#666666"
     borderopacity="1.0"
     gridtolerance="10000"
     guidetolerance="8.8"
     objecttolerance="10"
     inkscape:pageopacity="0.0"
     inkscape:pageshadow="2"
     inkscape:zoom="0.95426912"
     inkscape:cx="166.90574"
     inkscape:cy="89.598463"
     inkscape:document-units="mm"
     inkscape:current-layer="layer1"
     inkscape:window-width="1024"
     inkscape:window-height="768"
     inkscape:window-x="0"
     inkscape:window-y="0"
     width="12.8cm"
     height="9.6cm"
     units="cm"
     showgrid="false"
     grid_units="mm"
     inkscape:object-paths="false"
     inkscape:grid-points="true"
     inkscape:grid-bbox="true"
     inkscape:guide-points="true"
     showguides="true"
     inkscape:guide-bbox="true">
    <sodipodi:guide
       orientation="vertical"
       position="56.476527"
       id="guide3573" />
    <sodipodi:guide
       orientation="horizontal"
       position="11.035643"
       id="guide3579" />
    <sodipodi:guide
       orientation="horizontal"
       position="24.018753"
       id="guide3886" />
    <sodipodi:guide
       orientation="horizontal"
       position="285.62841"
       id="guide3988" />
    <sodipodi:guide
       orientation="horizontal"
       position="303.15561"
       id="guide4081" />
    <inkscape:grid
       id="GridFromPre046Settings"
       type="xygrid"
       originx="0px"
       originy="0px"
       spacingx="2mm"
       spacingy="2mm"
       color="#0000ff"
       empcolor="#0000ff"
       opacity="0.2"
       empopacity="0.4"
       empspacing="5" />
  </sodipodi:namedview>
  <metadata
     id="metadata7">
    <rdf:RDF>
      <cc:Work
         rdf:about="">
        <dc:format>image/svg+xml</dc:format>
        <dc:type
           rdf:resource="http://purl.org/dc/dcmitype/StillImage" />
      </cc:Work>
    </rdf:RDF>
  </metadata>
  <g
     inkscape:label="Layer 1"
     inkscape:groupmode="layer"
     id="layer1"
     transform="translate(4.149475e-6,-698.0315)">
    <g
       id="g6226"
       transform="translate(-83.907497,-40.896773)">
      <g
         style="fill:#0000ff"
         transform="matrix(1.1,0,0,1,-17.539366,-7.086619)"
         id="g6217">
        <rect
           style="fill:#0000ff;fill-rule:evenodd;stroke:none;stroke-width:1px;stroke-linecap:butt;stroke-linejoin:miter;stroke-opacity:1"
           id="rect6213"
           width="70.866142"
           height="63.779549"
           x="106.29921"
           y="811.4173" />
        <path
           sodipodi:type="arc"
           style="opacity:1;fill:#0000ff;fill-opacity:1;fill-rule:nonzero;stroke:#ffffff;stroke-width:3.54330707;stroke-linecap:butt;stroke-linejoin:miter;stroke-miterlimit:4;stroke-dasharray:none;stroke-dashoffset:0;stroke-opacity:1"
           id="path5702"
           sodipodi:cx="134.64568"
           sodipodi:cy="106.2992"
           sodipodi:rx="35.433071"
           sodipodi:ry="21.259842"
           d="M 170.07875,106.2992 A 35.433071,21.259842 0 1 1 99.212605,106.2992 A 35.433071,21.259842 0 1 1 170.07875,106.2992 z"
           transform="translate(7.0866037,705.11812)" />
        <path
           sodipodi:type="arc"
           style="opacity:1;fill:#0000ff;fill-opacity:1;fill-rule:nonzero;stroke:none;stroke-width:3.54330707;stroke-linecap:butt;stroke-linejoin:miter;stroke-miterlimit:4;stroke-dasharray:none;stroke-dashoffset:0;stroke-opacity:1"
           id="path6215"
           sodipodi:cx="134.64568"
           sodipodi:cy="106.2992"
           sodipodi:rx="35.433071"
           sodipodi:ry="21.259842"
           d="M 170.07875,106.2992 A 35.433071,21.259842 0 1 1 99.212605,106.2992 A 35.433071,21.259842 0 1 1 170.07875,106.2992 z"
           transform="translate(7.0866039,768.89764)" />
      </g>
      <text
         id="text6222"
         y="846.8504"
         x="138.24199"
         style="font-size:20px;font-style:normal;font-weight:bold;text-align:center;writing-mode:lr-tb;text-anchor:middle;fill:#ffffff;fill-opacity:1;stroke:none;stroke-width:1px;stroke-linecap:butt;stroke-linejoin:miter;stroke-opacity:1;font-family:Sans;-inkscape-font-specification:Sans"
         xml:space="preserve"><tspan
           y="846.8504"
           x="138.24199"
           id="tspan6224"
           sodipodi:role="line">MaxDB</tspan><tspan
           y="871.8504"
           x="138.24199"
           sodipodi:role="line"
           id="tspan10590">7.500</tspan></text>
    </g>
    <text
       xml:space="preserve"
       style="font-size:24px;font-style:normal;font-weight:bold;writing-mode:lr-tb;fill:#000000;fill-opacity:1;stroke:none;stroke-width:1px;stroke-linecap:butt;stroke-linejoin:miter;stroke-opacity:1;font-family:Sans;-inkscape-font-specification:Sans"
       x="54.458645"
       y="735.03339"
       id="text10592"><tspan
         sodipodi:role="line"
         id="tspan10594"
         x="54.458645"
         y="735.03339">MaxDB 7.500 Case Study</tspan></text>
    <g
       id="g8207"
       transform="matrix(1,0,0,1.1222363,23.037973,-217.52111)">
      <g
         id="g7782"
         transform="matrix(0.2016425,0,0,0.2016425,29.14907,864.52892)">
        <path
           transform="translate(594.10351,412.30254)"
           d="M 344.28572,56.647896 L 166.51272,55.437218 L -6.219758,53.29804 L 83.715219,-100.05255 L 171.93404,-248.57368 L 259.77206,-94.012408 L 344.28572,56.647896 z"
           inkscape:randomized="0"
           inkscape:rounded="0"
           inkscape:flatsided="false"
           sodipodi:arg2="1.6050908"
           sodipodi:arg1="0.5331557"
           sodipodi:r2="101.70627"
           sodipodi:r1="202.37367"
           sodipodi:cy="-46.209248"
           sodipodi:cx="170"
           sodipodi:sides="3"
           id="path7784"
           style="fill:#000000;stroke-width:5;stroke-miterlimit:4;stroke-dasharray:none"
           sodipodi:type="star" />
        <path
           transform="matrix(0.7800193,0,0,0.7800193,635.13087,401.66054)"
           d="M 344.28572,56.647896 L 166.51272,55.437218 L -6.219758,53.29804 L 83.715219,-100.05255 L 171.93404,-248.57368 L 259.77206,-94.012408 L 344.28572,56.647896 z"
           inkscape:randomized="0"
           inkscape:rounded="0"
           inkscape:flatsided="false"
           sodipodi:arg2="1.6050908"
           sodipodi:arg1="0.5331557"
           sodipodi:r2="101.70627"
           sodipodi:r1="202.37367"
           sodipodi:cy="-46.209248"
           sodipodi:cx="170"
           sodipodi:sides="3"
           id="path7786"
           style="fill:#ff00ff;stroke-width:5;stroke-miterlimit:4;stroke-dasharray:none"
           sodipodi:type="star" />
        <path
           d="M 593.69433,488.44154 C 629.73938,490.19694 665.83432,490.63854 701.91168,491.26204 C 786.20399,494.51544 870.5166,496.89754 954.8653,497.89994 L 946.6324,503.85264 C 861.9655,500.93504 777.26375,498.59994 692.54477,498.06754 C 653.87933,498.70544 615.20106,499.19924 576.56327,500.88804 L 593.69433,488.44154 z"
           id="path7788"
           style="fill:#ff00ff;stroke-width:5;stroke-miterlimit:4;stroke-dasharray:none" />
      </g>
      <text
         xml:space="preserve"
         style="font-size:20px;font-style:normal;font-weight:normal;fill:#000000;fill-opacity:1;stroke:none;stroke-width:1px;stroke-linecap:butt;stroke-linejoin:miter;stroke-opacity:1;font-family:Bitstream Vera Sans"
         x="159.96118"
         y="951.53088"
         id="text7800"><tspan
           sodipodi:role="line"
           id="tspan7802"
           x="159.96118"
           y="951.53088">delta</tspan></text>
    </g>
    <g
       id="g8215"
       transform="translate(-57.664259,-164.24974)">
      <g
         id="g7772"
         transform="matrix(0.2016425,0,0,0.2016425,224.58403,780.65358)">
        <g
           id="g7774">
          <path
             sodipodi:type="star"
             style="fill:#000000;stroke-width:5;stroke-miterlimit:4;stroke-dasharray:none"
             id="path7776"
             sodipodi:sides="3"
             sodipodi:cx="170"
             sodipodi:cy="-46.209248"
             sodipodi:r1="202.37367"
             sodipodi:r2="101.70627"
             sodipodi:arg1="0.5331557"
             sodipodi:arg2="1.6050908"
             inkscape:flatsided="false"
             inkscape:rounded="0"
             inkscape:randomized="0"
             d="M 344.28572,56.647896 L 166.51272,55.437218 L -6.219758,53.29804 L 83.715219,-100.05255 L 171.93404,-248.57368 L 259.77206,-94.012408 L 344.28572,56.647896 z"
             transform="translate(28.389222,872.30258)" />
          <path
             sodipodi:type="star"
             style="fill:#0000ff;stroke-width:5;stroke-miterlimit:4;stroke-dasharray:none"
             id="path7778"
             sodipodi:sides="3"
             sodipodi:cx="170"
             sodipodi:cy="-46.209248"
             sodipodi:r1="202.37367"
             sodipodi:r2="101.70627"
             sodipodi:arg1="0.5331557"
             sodipodi:arg2="1.6050908"
             inkscape:flatsided="false"
             inkscape:rounded="0"
             inkscape:randomized="0"
             d="M 344.28572,56.647896 L 166.51272,55.437218 L -6.219758,53.29804 L 83.715219,-100.05255 L 171.93404,-248.57368 L 259.77206,-94.012408 L 344.28572,56.647896 z"
             transform="matrix(0.7800193,0,0,0.7800193,69.416582,861.66053)" />
          <path
             style="fill:#0000ff;stroke-width:5;stroke-miterlimit:4;stroke-dasharray:none"
             id="path7780"
             d="M 27.980042,948.44155 C 64.025092,950.1969 100.12003,950.6385 136.19739,951.262 C 220.4897,954.5154 304.80227,956.8975 389.15102,957.8999 L 380.91813,963.8526 C 296.25121,960.935 211.54946,958.5999 126.83048,958.0675 C 88.165042,958.7054 49.486772,959.1992 10.848982,960.888 L 27.980042,948.44155 z" />
        </g>
      </g>
      <text
         xml:space="preserve"
         style="font-size:20px;font-style:normal;font-weight:normal;fill:#000000;fill-opacity:1;stroke:none;stroke-width:1px;stroke-linecap:butt;stroke-linejoin:miter;stroke-opacity:1;font-family:Bitstream Vera Sans"
         x="241.75479"
         y="961.91742"
         id="text7804"><tspan
           sodipodi:role="line"
           id="tspan7806"
           x="241.75479"
           y="961.91742">delta</tspan></text>
    </g>
    <g
       transform="translate(-65.628866,-115.63549)"
       id="g8254">
      <g
         transform="matrix(0.2016425,0,0,0.2016425,224.58403,780.65358)"
         id="g8256">
        <g
           id="g8258">
          <path
             transform="translate(28.389222,872.30258)"
             d="M 344.28572,56.647896 L 166.51272,55.437218 L -6.219758,53.29804 L 83.715219,-100.05255 L 171.93404,-248.57368 L 259.77206,-94.012408 L 344.28572,56.647896 z"
             inkscape:randomized="0"
             inkscape:rounded="0"
             inkscape:flatsided="false"
             sodipodi:arg2="1.6050908"
             sodipodi:arg1="0.5331557"
             sodipodi:r2="101.70627"
             sodipodi:r1="202.37367"
             sodipodi:cy="-46.209248"
             sodipodi:cx="170"
             sodipodi:sides="3"
             id="path8260"
             style="fill:#000000;stroke-width:5;stroke-miterlimit:4;stroke-dasharray:none"
             sodipodi:type="star" />
          <path
             transform="matrix(0.7800193,0,0,0.7800193,69.416582,861.66053)"
             d="M 344.28572,56.647896 L 166.51272,55.437218 L -6.219758,53.29804 L 83.715219,-100.05255 L 171.93404,-248.57368 L 259.77206,-94.012408 L 344.28572,56.647896 z"
             inkscape:randomized="0"
             inkscape:rounded="0"
             inkscape:flatsided="false"
             sodipodi:arg2="1.6050908"
             sodipodi:arg1="0.5331557"
             sodipodi:r2="101.70627"
             sodipodi:r1="202.37367"
             sodipodi:cy="-46.209248"
             sodipodi:cx="170"
             sodipodi:sides="3"
             id="path8262"
             style="fill:#0000ff;stroke-width:5;stroke-miterlimit:4;stroke-dasharray:none"
             sodipodi:type="star" />
          <path
             d="M 27.980042,948.44155 C 64.025092,950.1969 100.12003,950.6385 136.19739,951.262 C 220.4897,954.5154 304.80227,956.8975 389.15102,957.8999 L 380.91813,963.8526 C 296.25121,960.935 211.54946,958.5999 126.83048,958.0675 C 88.165042,958.7054 49.486772,959.1992 10.848982,960.888 L 27.980042,948.44155 z"
             id="path8264"
             style="fill:#0000ff;stroke-width:5;stroke-miterlimit:4;stroke-dasharray:none" />
        </g>
      </g>
      <text
         id="text8266"
         y="961.91742"
         x="241.75479"
         style="font-size:20px;font-style:normal;font-weight:normal;fill:#000000;fill-opacity:1;stroke:none;stroke-width:1px;stroke-linecap:butt;stroke-linejoin:miter;stroke-opacity:1;font-family:Bitstream Vera Sans"
         xml:space="preserve"><tspan
           y="961.91742"
           x="241.75479"
           id="tspan8268"
           sodipodi:role="line">delta</tspan></text>
    </g>
    <g
       id="g8350"
       transform="translate(92.910068,65.020672)">
      <g
         transform="matrix(0.2244767,0,0,0.2244767,-35.823543,553.62022)"
         id="g8352">
        <g
           id="g8354"
           transform="translate(2.8571414,-8.5714286)">
          <path
             transform="translate(478.38922,853.73116)"
             d="M 344.28572,56.647896 L 166.51272,55.437218 L -6.219758,53.29804 L 83.715219,-100.05255 L 171.93404,-248.57368 L 259.77206,-94.012408 L 344.28572,56.647896 z"
             inkscape:randomized="0"
             inkscape:rounded="0"
             inkscape:flatsided="false"
             sodipodi:arg2="1.6050908"
             sodipodi:arg1="0.5331557"
             sodipodi:r2="101.70627"
             sodipodi:r1="202.37367"
             sodipodi:cy="-46.209248"
             sodipodi:cx="170"
             sodipodi:sides="3"
             id="path8356"
             style="fill:#000000;stroke-width:5;stroke-miterlimit:4;stroke-dasharray:none"
             sodipodi:type="star" />
          <path
             transform="matrix(0.7800193,0,0,0.7800193,519.41658,843.08911)"
             d="M 344.28572,56.647896 L 166.51272,55.437218 L -6.219758,53.29804 L 83.715219,-100.05255 L 171.93404,-248.57368 L 259.77206,-94.012408 L 344.28572,56.647896 z"
             inkscape:randomized="0"
             inkscape:rounded="0"
             inkscape:flatsided="false"
             sodipodi:arg2="1.6050908"
             sodipodi:arg1="0.5331557"
             sodipodi:r2="101.70627"
             sodipodi:r1="202.37367"
             sodipodi:cy="-46.209248"
             sodipodi:cx="170"
             sodipodi:sides="3"
             id="path8358"
             style="fill:#00ff00;stroke-width:5;stroke-miterlimit:4;stroke-dasharray:none"
             sodipodi:type="star" />
          <path
             d="M 477.98004,929.87013 C 514.02509,931.62548 550.12003,932.06708 586.19739,932.69058 C 670.4897,935.94398 754.80227,938.32608 839.15102,939.32848 L 830.91813,945.28118 C 746.25121,942.36358 661.54946,940.02848 576.83048,939.49608 C 538.16504,940.13398 499.48677,940.62778 460.84898,942.31658 L 477.98004,929.87013 z"
             id="path8360"
             style="fill:#00ff00;stroke-width:5;stroke-miterlimit:4;stroke-dasharray:none" />
        </g>
      </g>
      <text
         id="text8362"
         y="742.06891"
         x="85.863792"
         style="font-size:20px;font-style:normal;font-weight:normal;fill:#000000;fill-opacity:1;stroke:none;stroke-width:1px;stroke-linecap:butt;stroke-linejoin:miter;stroke-opacity:1;font-family:Bitstream Vera Sans"
         xml:space="preserve"><tspan
           y="742.06891"
           x="85.863792"
           id="tspan8364"
           sodipodi:role="line">delta</tspan></text>
    </g>
    <g
       id="g8286"
       transform="translate(143.07306,-59.115705)">
      <g
         id="g8288"
         transform="matrix(0.2141804,0,0,0.2141804,102.8525,691.75309)">
        <g
           transform="translate(-518.57143,65.714286)"
           id="g8290">
          <path
             sodipodi:type="star"
             style="fill:#000000;stroke-width:5;stroke-miterlimit:4;stroke-dasharray:none"
             id="path8292"
             sodipodi:sides="3"
             sodipodi:cx="170"
             sodipodi:cy="-46.209248"
             sodipodi:r1="202.37367"
             sodipodi:r2="101.70627"
             sodipodi:arg1="0.5331557"
             sodipodi:arg2="1.6050908"
             inkscape:flatsided="false"
             inkscape:rounded="0"
             inkscape:randomized="0"
             d="M 344.28572,56.647896 L 166.51272,55.437218 L -6.219758,53.29804 L 83.715219,-100.05255 L 171.93404,-248.57368 L 259.77206,-94.012408 L 344.28572,56.647896 z"
             transform="translate(58.389218,829.44544)" />
          <path
             sodipodi:type="star"
             style="fill:#ff0000;stroke-width:5;stroke-miterlimit:4;stroke-dasharray:none"
             id="path8294"
             sodipodi:sides="3"
             sodipodi:cx="170"
             sodipodi:cy="-46.209248"
             sodipodi:r1="202.37367"
             sodipodi:r2="101.70627"
             sodipodi:arg1="0.5331557"
             sodipodi:arg2="1.6050908"
             inkscape:flatsided="false"
             inkscape:rounded="0"
             inkscape:randomized="0"
             d="M 344.28572,56.647896 L 166.51272,55.437218 L -6.219758,53.29804 L 83.715219,-100.05255 L 171.93404,-248.57368 L 259.77206,-94.012408 L 344.28572,56.647896 z"
             transform="matrix(0.7800193,0,0,0.7800193,99.416579,818.80339)" />
          <path
             style="fill:#ff0000;stroke-width:5;stroke-miterlimit:4;stroke-dasharray:none"
             id="path8296"
             d="M 57.980037,905.58441 C 94.025089,907.33981 130.12003,907.78139 166.19739,908.4049 C 250.4897,911.65825 334.80227,914.04033 419.15102,915.04281 L 410.91813,920.99547 C 326.25121,918.07788 241.54946,915.74274 156.83048,915.21035 C 118.16504,915.84825 79.486769,916.3421 40.848979,918.03085 L 57.980037,905.58441 z" />
        </g>
      </g>
      <text
         xml:space="preserve"
         style="font-size:20px;font-style:normal;font-weight:normal;fill:#000000;fill-opacity:1;stroke:none;stroke-width:1px;stroke-linecap:butt;stroke-linejoin:miter;stroke-opacity:1;font-family:Bitstream Vera Sans"
         x="15.156291"
         y="885.08398"
         id="text8298"><tspan
           sodipodi:role="line"
           id="tspan8300"
           x="15.156291"
           y="885.08398">delta</tspan></text>
    </g>
    <g
       id="g8366"
       transform="translate(47.501478,-128.83603)">
      <g
         transform="matrix(0.2016425,0,0,0.2016425,29.14907,864.52892)"
         id="g8368">
        <path
           sodipodi:type="star"
           style="fill:#000000;stroke-width:5;stroke-miterlimit:4;stroke-dasharray:none"
           id="path8370"
           sodipodi:sides="3"
           sodipodi:cx="170"
           sodipodi:cy="-46.209248"
           sodipodi:r1="202.37367"
           sodipodi:r2="101.70627"
           sodipodi:arg1="0.5331557"
           sodipodi:arg2="1.6050908"
           inkscape:flatsided="false"
           inkscape:rounded="0"
           inkscape:randomized="0"
           d="M 344.28572,56.647896 L 166.51272,55.437218 L -6.219758,53.29804 L 83.715219,-100.05255 L 171.93404,-248.57368 L 259.77206,-94.012408 L 344.28572,56.647896 z"
           transform="translate(594.10351,412.30254)" />
        <path
           sodipodi:type="star"
           style="fill:#ff00ff;stroke-width:5;stroke-miterlimit:4;stroke-dasharray:none"
           id="path8372"
           sodipodi:sides="3"
           sodipodi:cx="170"
           sodipodi:cy="-46.209248"
           sodipodi:r1="202.37367"
           sodipodi:r2="101.70627"
           sodipodi:arg1="0.5331557"
           sodipodi:arg2="1.6050908"
           inkscape:flatsided="false"
           inkscape:rounded="0"
           inkscape:randomized="0"
           d="M 344.28572,56.647896 L 166.51272,55.437218 L -6.219758,53.29804 L 83.715219,-100.05255 L 171.93404,-248.57368 L 259.77206,-94.012408 L 344.28572,56.647896 z"
           transform="matrix(0.7800193,0,0,0.7800193,635.13087,401.66054)" />
        <path
           style="fill:#ff00ff;stroke-width:5;stroke-miterlimit:4;stroke-dasharray:none"
           id="path8374"
           d="M 593.69433,488.44154 C 629.73938,490.19694 665.83432,490.63854 701.91168,491.26204 C 786.20399,494.51544 870.5166,496.89754 954.8653,497.89994 L 946.6324,503.85264 C 861.9655,500.93504 777.26375,498.59994 692.54477,498.06754 C 653.87933,498.70544 615.20106,499.19924 576.56327,500.88804 L 593.69433,488.44154 z" />
      </g>
      <text
         id="text8376"
         y="951.53088"
         x="159.96118"
         style="font-size:20px;font-style:normal;font-weight:normal;fill:#000000;fill-opacity:1;stroke:none;stroke-width:1px;stroke-linecap:butt;stroke-linejoin:miter;stroke-opacity:1;font-family:Bitstream Vera Sans"
         xml:space="preserve"><tspan
           y="951.53088"
           x="159.96118"
           id="tspan8378"
           sodipodi:role="line">delta</tspan></text>
    </g>
    <path
       style="fill:none;fill-rule:evenodd;stroke:#000000;stroke-width:0.18507983px;stroke-linecap:butt;stroke-linejoin:miter;stroke-opacity:1"
       d="M 269.18544,895.37086 C 269.1297,895.34298 269.18544,895.24622 269.18544,895.37086 z"
       id="path4582" />
    <g
       id="g4750"
       transform="matrix(-0.1850798,0,0,0.1850798,152.28759,646.93356)">
      <path
         id="path4560"
         d="M -1655.7143,539.50507 C -1653.9054,546.74077 -1656.316,556.19667 -1644.2857,565.21937 C -1643.4339,565.85817 -1642.381,566.17167 -1641.4286,566.64787"
         style="fill:none;fill-rule:evenodd;stroke:#000000;stroke-width:1px;stroke-linecap:butt;stroke-linejoin:miter;stroke-opacity:1" />
      <path
         id="path4574"
         d="M -1581.4286,739.50507 C -1581.1785,738.87977 -1580.4762,738.55267 -1581.4286,739.50507 z"
         style="fill:none;fill-rule:evenodd;stroke:#000000;stroke-width:1px;stroke-linecap:butt;stroke-linejoin:miter;stroke-opacity:1" />
      <g
         transform="translate(-688.08485,-26.734539)"
         id="g4605">
        <path
           style="fill:#b3b3b3;fill-rule:evenodd;stroke:#000000;stroke-width:1px;stroke-linecap:butt;stroke-linejoin:miter;stroke-opacity:1"
           d="M -541.44176,731.13367 C -533.00365,748.00991 -579.1421,729.11337 -598.01031,729.11337 C -620.7537,729.11337 -643.79447,731.13367 -666.70068,731.13367 C -682.8476,731.13367 -684.88343,741.5825 -684.88343,757.39764 C -684.88343,779.83203 -707.20567,805.37633 -717.20831,822.0474 C -719.42686,825.74499 -721.8815,853.78175 -724.57524,857.14893 C -737.89995,873.80482 -736.67605,908.05422 -736.67605,929.87991 C -736.67605,954.39397 -749.38961,973.81141 -749.38961,998.32518 C -749.38961,1014.9903 -750.3659,1024.8214 -754.49114,1041.3223 C -757.55564,1053.5804 -697.63847,1048.3216 -688.92404,1048.3216 C -640.91539,1048.3216 -591.96171,1054.3825 -545.48237,1054.3825 C -505.82616,1054.3825 -456.17528,1051.8266 -418.20315,1064.484 C -373.56405,1059.8046 -390.98553,1086.4905 -385.61574,981.91763 C -393.71351,957.62433 -382.72978,945.56774 -386.75717,918.22726 C -390.73896,891.19628 -381.73614,856.59464 -381.73614,829.31281 C -381.73614,811.74078 -377.79705,779.55558 -377.79705,759.41794 C -377.79705,745.89751 -390.83148,735.95629 -402.04071,733.15398 C -425.08609,727.39263 -452.67502,729.11337 -476.792,729.11337 C -494.05434,729.11337 -508.22396,729.39521 -523.25902,733.15398 C -528.14492,734.37545 -537.46738,731.92855 -541.44176,731.13367 z"
           id="path4607"
           sodipodi:nodetypes="cssssssssssccssssssc" />
        <path
           style="fill:#e6e6e6;fill-rule:evenodd;stroke:#000000;stroke-width:1px;stroke-linecap:butt;stroke-linejoin:miter;stroke-opacity:1"
           d="M -642.45702,747.29611 C -636.73899,727.07728 -626.29458,693.06918 -626.29458,664.46361 C -626.29458,650.49978 -632.79292,615.58056 -618.21336,611.93567 C -588.59264,604.53049 -556.96067,605.87476 -525.27932,605.87476 C -501.57676,605.87476 -472.62689,609.37917 -450.52803,603.85445 C -418.47974,595.84238 -428.30061,620.02708 -420.22346,640.21994 C -409.99944,665.77999 -414.16254,704.84996 -414.16254,733.15398 C -414.16254,760.21433 -413.1533,759.41794 -448.50773,759.41794 C -473.15391,759.41794 -496.36384,757.39764 -521.23871,757.39764 C -543.46207,757.39764 -565.68543,757.39764 -587.90878,757.39764 C -604.08672,757.39764 -625.5864,750.67024 -642.45702,747.29611 z"
           id="path4609" />
        <path
           style="fill:#000000;fill-rule:evenodd;stroke:#000000;stroke-width:1.07651937px;stroke-linecap:butt;stroke-linejoin:miter;stroke-opacity:1"
           d="M -607.37854,771.77701 C -605.08928,788.04844 -600.7085,815.4644 -584.09977,805.63474 C -561.81626,792.44653 -533.21375,785.70298 -508.30843,779.42231 C -493.72275,775.74405 -472.16856,757.91808 -458.5027,751.0255 C -443.07594,743.24479 -436.28614,742.37083 -441.17896,722.62869 C -443.85328,711.83802 -443.34443,696.32233 -443.34443,685.49441 C -443.34443,668.68589 -482.19127,677.57759 -490.9847,681.12567 C -505.93029,687.15609 -522.56804,690.18261 -538.62496,694.23189 C -559.64513,699.5328 -571.01758,705.15373 -593.30301,705.15373 C -613.65353,706.18888 -608.89758,747.98838 -607.37854,771.77701 z"
           id="path4611"
           sodipodi:nodetypes="cssssssscc" />
        <path
           style="fill:#ffff00;fill-rule:evenodd;stroke:#000000;stroke-width:1px;stroke-linecap:butt;stroke-linejoin:miter;stroke-opacity:1"
           d="M -601.54584,768.50932 C -599.41004,783.55863 -595.32293,808.91542 -579.82756,799.82405 C -559.03782,787.62639 -532.35268,781.38933 -509.11688,775.58039 C -495.50895,772.1784 -475.39964,755.69131 -462.64987,749.31642 C -448.25724,742.12011 -441.92259,741.31179 -446.48742,723.05245 C -448.98247,713.07225 -448.50773,698.72192 -448.50773,688.70727 C -448.50773,673.16121 -484.75048,681.38507 -492.95444,684.66666 C -506.89816,690.24414 -522.4206,693.04335 -537.40115,696.78849 C -557.01223,701.69126 -567.62233,706.89001 -588.41386,706.89001 C -607.40019,707.84741 -602.96305,746.50742 -601.54584,768.50932 z"
           id="path4613"
           sodipodi:nodetypes="cssssssscc" />
        <path
           style="fill:none;fill-rule:evenodd;stroke:#000000;stroke-width:1px;stroke-linecap:butt;stroke-linejoin:miter;stroke-opacity:1"
           d="M -601.54584,759.92302 C -587.28855,756.31187 -570.35852,753.92581 -558.10928,747.80119 C -550.15688,743.82499 -539.80853,745.1578 -533.36054,738.70982 C -527.83015,733.17942 -512.47513,729.89607 -505.58135,727.59814 C -498.5605,725.25786 -492.10999,724.10995 -484.87322,722.0423 C -479.92921,720.62972 -475.30903,718.77543 -470.73109,716.48646 C -465.89368,714.06776 -460.63597,714.77177 -456.08387,712.95093 C -453.82722,712.04826 -450.40052,711.94077 -448.00265,711.94077"
           id="path4615" />
        <path
           style="fill:none;fill-rule:evenodd;stroke:#000000;stroke-width:1px;stroke-linecap:butt;stroke-linejoin:miter;stroke-opacity:1"
           d="M -479.31738,681.6362 C -477.80467,681.03111 -479.6145,690.7424 -476.792,697.79864 C -473.69214,705.54829 -474.7717,716.98535 -474.7717,725.57783 C -474.7717,729.09576 -474.48077,733.00044 -475.27677,736.18444 C -475.97745,738.98713 -475.2457,742.59509 -475.78185,745.27581 C -476.29929,747.86303 -475.78185,751.19979 -475.78185,753.86211 C -475.78185,754.41777 -475.39661,756.17353 -475.27677,756.89256"
           id="path4617" />
        <path
           style="fill:none;fill-rule:evenodd;stroke:#000000;stroke-width:1px;stroke-linecap:butt;stroke-linejoin:miter;stroke-opacity:1"
           d="M -514.16765,691.23265 C -514.16765,697.0739 -515.68287,706.19782 -515.68287,713.96108 C -515.68287,720.09084 -515.1778,726.10617 -515.1778,732.14383 C -515.1778,738.79534 -515.68287,745.31439 -515.68287,751.8418 C -515.68287,756.85092 -516.18795,761.84611 -516.18795,766.99409 C -516.18795,770.1929 -516.18795,773.39172 -516.18795,776.59054"
           id="path4619" />
        <path
           style="fill:none;fill-rule:evenodd;stroke:#000000;stroke-width:1px;stroke-linecap:butt;stroke-linejoin:miter;stroke-opacity:1"
           d="M -548.00776,699.81894 C -548.00776,706.33386 -549.52298,717.00077 -549.52298,725.57783 C -549.52298,733.24546 -547.50268,740.85006 -547.50268,748.30627 C -547.50268,753.29654 -546.9976,758.40611 -546.9976,763.45855 C -546.9976,766.44334 -547.29173,769.60265 -548.51283,772.04485 C -549.63815,774.29549 -549.52298,777.39348 -549.52298,780.12607 C -549.52298,782.14638 -549.52298,784.16668 -549.52298,786.18699"
           id="path4621" />
        <path
           style="fill:none;fill-rule:evenodd;stroke:#000000;stroke-width:1px;stroke-linecap:butt;stroke-linejoin:miter;stroke-opacity:1"
           d="M -578.81741,707.39509 C -578.81741,716.45338 -577.64922,726.46091 -579.82756,735.17428 C -581.8857,743.40682 -579.82756,750.23908 -579.82756,758.40779 C -579.82756,763.80469 -578.11787,770.91855 -575.78695,775.58039 C -574.10267,778.94895 -573.76665,781.8271 -573.76665,785.68191 C -573.76665,788.46279 -573.88617,791.26471 -573.26157,793.76313 C -573.09814,794.41686 -572.89265,795.2388 -572.75649,795.78344"
           id="path4623" />
        <path
           sodipodi:type="arc"
           style="fill:#ff0000;stroke:#000000;stroke-width:5;stroke-miterlimit:4;stroke-dasharray:none;stroke-opacity:1"
           id="path4625"
           sodipodi:cx="-568.21082"
           sodipodi:cy="655.11969"
           sodipodi:rx="28.284271"
           sodipodi:ry="27.02158"
           d="M -539.92654,655.11969 A 28.284271,27.02158 0 1 1 -596.49509,655.11969 A 28.284271,27.02158 0 1 1 -539.92654,655.11969 z" />
        <path
           sodipodi:type="arc"
           style="fill:#ff0000;stroke:#000000;stroke-width:5;stroke-miterlimit:4;stroke-dasharray:none;stroke-opacity:1"
           id="path4627"
           sodipodi:cx="-475.27676"
           sodipodi:cy="649.31134"
           sodipodi:rx="25.253813"
           sodipodi:ry="24.748737"
           d="M -450.02295,649.31134 A 25.253813,24.748737 0 1 1 -500.53058,649.31134 A 25.253813,24.748737 0 1 1 -450.02295,649.31134 z" />
        <path
           style="fill:#ffffff;fill-rule:evenodd;stroke:#000000;stroke-width:1px;stroke-linecap:butt;stroke-linejoin:miter;stroke-opacity:1"
           d="M -564.04048,673.78905 C -560.71892,675.71452 -557.75741,675.16182 -554.62763,671.38366 C -553.09553,669.53414 -551.1969,664.32843 -550.90425,662.41013 C -550.40801,659.15732 -547.70301,656.85926 -547.18086,653.4366 C -546.47044,648.77978 -549.65933,645.42373 -552.2422,642.75115 C -554.95996,639.939 -558.91873,639.13036 -562.26866,638.6193 C -566.05544,638.04161 -570.01964,639.4889 -573.47332,638.14912 C -576.51404,636.96953 -580.39677,640.88688 -582.1945,642.51879 C -584.60078,644.70315 -585.37635,648.75491 -585.87068,651.99518 C -586.41812,655.58357 -587.62643,658.81134 -586.43527,662.19411 C -585.41729,665.08505 -584.25269,668.51688 -581.57907,665.28936 C -579.18727,662.40204 -579.7441,657.81556 -580.10315,653.9903 C -580.35238,651.33512 -573.17246,649.7887 -570.8791,649.57344 C -567.30568,649.23802 -565.03237,649.48442 -562.09438,651.28536 C -559.98107,652.58078 -560.09045,656.42091 -559.87777,658.68674 C -559.55434,662.13249 -564.30089,662.14569 -566.63469,662.36474 C -569.4746,662.63131 -568.20172,655.78704 -570.70482,662.23948 C -571.98015,665.52699 -569.51958,667.70849 -566.66556,667.4406 C -564.16777,667.20615 -562.93536,673.82307 -568.11061,673.6638 C -572.10375,673.54091 -576.22757,673.71352 -570.48334,675.4084 C -568.66577,675.94469 -565.32812,674.44978 -564.04048,673.78905 z"
           id="path4629" />
        <path
           style="fill:#ffffff;fill-rule:evenodd;stroke:#000000;stroke-width:0.78064203px;stroke-linecap:butt;stroke-linejoin:miter;stroke-opacity:1"
           d="M -476.7658,634.78332 C -479.20694,633.04447 -481.54902,633.258 -484.2572,635.96616 C -485.58291,637.29188 -487.43834,641.19938 -487.80575,642.66899 C -488.42874,645.16095 -490.69878,646.74972 -491.3543,649.37181 C -492.24619,652.93939 -490.01253,655.78043 -488.20003,658.04606 C -486.29288,660.43 -483.27501,661.3473 -480.70864,661.98889 C -477.8076,662.71415 -474.62094,661.87847 -472.0344,663.17174 C -469.75712,664.31038 -466.45358,661.54897 -464.93729,660.41175 C -462.90771,658.88956 -462.00933,655.79701 -461.38873,653.31465 C -460.70147,650.56559 -459.52686,648.14504 -460.20588,645.42897 C -460.78618,643.10779 -461.44097,640.35552 -463.75444,642.66899 C -465.82405,644.73859 -465.72586,648.34395 -465.72586,651.34323 C -465.72586,653.42509 -471.41909,654.10321 -473.21725,654.10321 C -476.01907,654.10321 -477.76798,653.74587 -479.92007,652.1318 C -481.46809,650.97079 -481.10293,647.99412 -481.10293,646.21754 C -481.10293,643.51582 -477.41282,643.85184 -475.58295,643.85184 C -473.35626,643.85184 -474.84488,649.07852 -472.42868,644.24613 C -471.19763,641.78403 -472.9509,639.909 -475.18867,639.909 C -477.14712,639.909 -477.62225,634.67626 -473.61153,635.17759 C -470.51693,635.56442 -467.2992,635.73111 -471.64012,633.99474 C -473.01365,633.44533 -475.71682,634.36372 -476.7658,634.78332 z"
           id="path4631" />
        <path
           style="fill:#ffff00;fill-rule:evenodd;stroke:#000000;stroke-width:1.04572976px;stroke-linecap:butt;stroke-linejoin:miter;stroke-opacity:1"
           d="M -642.76947,805.90663 C -643.78885,812.63341 -636.71154,822.30935 -626.19606,827.11521 C -617.26426,831.19728 -602.32843,830.145 -591.94434,830.145 C -581.2784,830.145 -562.55283,820.77186 -553.27305,813.98609 C -545.53426,808.32715 -543.15935,797.4375 -540.01432,808.93643 C -538.27486,815.29625 -534.93127,819.99555 -528.96538,824.08541 C -524.40531,827.21152 -512.16393,830.145 -506.8675,830.145 C -497.39881,830.145 -491.97205,830.02348 -483.66472,828.12514 C -474.99536,826.14407 -464.9468,821.59042 -457.14726,818.02582 C -454.93748,817.01589 -452.72768,816.00596 -450.5179,814.99602 C -443.99,812.0126 -440.57385,808.53311 -440.57385,801.8669 C -440.57385,794.79738 -440.57385,816.00596 -440.57385,823.07547 C -440.57385,833.53259 -439.46895,844.68295 -439.46895,855.39331 C -439.46895,868.42125 -440.57385,881.65627 -440.57385,894.78066 C -440.57385,904.29569 -440.55911,911.92257 -444.99342,920.02896 C -450.23683,929.61446 -453.86256,940.255 -462.67173,948.30705 C -472.2822,957.09154 -475.56438,968.7597 -486.9794,976.58515 C -500.24769,985.6811 -510.51734,991.9639 -523.4409,1000.8235 C -530.87882,1005.9225 -537.48562,1009.9129 -546.64369,1009.9129 C -554.24736,1009.9129 -565.19746,998.00343 -569.84646,993.75399 C -579.1345,985.26424 -597.87257,980.7608 -606.30797,973.05039 C -610.09292,969.59075 -620.51252,955.74006 -622.32892,951.58933 C -625.2408,944.93531 -631.00985,940.30116 -632.82543,933.66304 C -634.5091,927.50715 -635.38127,919.39632 -638.3499,913.96936 C -641.55821,908.10421 -640.23745,898.39953 -643.32191,892.76079 C -647.15754,885.74888 -644.20365,878.42777 -646.08416,871.55222 C -647.88791,864.95728 -644.97925,860.48544 -644.97925,853.37344 C -644.97925,847.17915 -647.18905,841.03862 -647.18905,834.18473 C -647.18905,828.46179 -647.18905,822.73884 -647.18905,817.01589 C -647.18905,813.21543 -644.56763,809.19385 -642.76947,805.90663 z"
           id="path4633"
           sodipodi:nodetypes="cssssssssssssssssssssssssssssc" />
        <text
           xml:space="preserve"
           style="font-size:70px;font-style:normal;font-variant:normal;font-weight:normal;font-stretch:normal;text-align:center;line-height:125%;writing-mode:lr-tb;text-anchor:middle;fill:#000000;fill-opacity:1;stroke:none;stroke-width:1px;stroke-linecap:butt;stroke-linejoin:miter;stroke-opacity:1;font-family:Bitstream Vera Serif;-inkscape-font-specification:Bitstream Vera Serif"
           x="532.63116"
           y="885.21936"
           id="text4635"
           sodipodi:linespacing="125%"
           transform="scale(-1,1)"><tspan
             sodipodi:role="line"
             id="tspan4637"
             x="532.63116"
             y="885.21936">LDA</tspan><tspan
             sodipodi:role="line"
             x="532.63116"
             y="972.71936"
             id="tspan4639">LSI</tspan></text>
        <path
           sodipodi:type="arc"
           style="fill:#000000;stroke:#000000;stroke-width:5;stroke-miterlimit:4;stroke-dasharray:none;stroke-opacity:1"
           id="path4641"
           sodipodi:cx="-553.21429"
           sodipodi:cy="658.07648"
           sodipodi:rx="9.6428576"
           sodipodi:ry="10"
           d="M -543.57144,658.07648 A 9.6428576,10 0 1 1 -562.85715,658.07648 A 9.6428576,10 0 1 1 -543.57144,658.07648 z" />
        <path
           sodipodi:type="arc"
           style="fill:#000000;stroke:#000000;stroke-width:5;stroke-miterlimit:4;stroke-dasharray:none;stroke-opacity:1"
           id="path4643"
           sodipodi:cx="-553.21429"
           sodipodi:cy="658.07648"
           sodipodi:rx="9.6428576"
           sodipodi:ry="10"
           d="M -543.57144,658.07648 A 9.6428576,10 0 1 1 -562.85715,658.07648 A 9.6428576,10 0 1 1 -543.57144,658.07648 z"
           transform="translate(89.642865,-3.5714377)" />
      </g>
      <g
         transform="translate(-908.57143,-734.28571)"
         id="g4686"
         style="fill:#cccccc">
        <path
           style="fill:#cccccc;fill-rule:evenodd;stroke:#000000;stroke-width:1px;stroke-linecap:butt;stroke-linejoin:miter;stroke-opacity:1"
           d="M -648.57143,1378.0765 C -650.23107,1369.3353 -645.24862,1365.1262 -631.42857,1362.3622 C -620.08558,1360.0936 -616.09256,1364.7565 -614.28571,1373.7908 C -612.81569,1381.1409 -614.28571,1390.5472 -614.28571,1398.0765 C -614.28571,1409.8041 -613.0619,1420.217 -610,1430.9336 C -609.46062,1432.8215 -609.04762,1434.7431 -608.57143,1436.6479 C -605.61695,1448.4658 -596.34398,1461.7325 -587.14286,1470.9336 C -576.10886,1481.9676 -573.63554,1491.0962 -557.14286,1495.2193 C -536.1424,1500.4694 -517.31783,1505.2193 -494.28571,1505.2193 C -480.86826,1505.2193 -467.78491,1506.6479 -454.28571,1506.6479 C -445.89785,1506.6479 -447.14286,1519.5119 -447.14286,1526.6479 C -447.14286,1537.7001 -451.95656,1541.8964 -461.42857,1543.7908 C -472.28301,1545.9616 -485.95429,1543.7908 -497.14286,1543.7908 C -508.24644,1543.7908 -521.3641,1539.2451 -531.42857,1535.2193 C -540.43204,1531.6179 -549.43767,1528.4746 -558.57143,1526.6479 C -568.57852,1524.6465 -578.73436,1519.0257 -585.71429,1513.7908 C -593.35322,1508.0616 -599.98038,1502.3818 -607.14286,1495.2193 C -614.65281,1487.7094 -621.01266,1481.3495 -628.57143,1473.7908 C -634.23893,1468.1232 -638.25466,1457.915 -640,1450.9336 C -640.25825,1449.9006 -640.95238,1449.0288 -641.42857,1448.0765 C -645.18368,1440.5662 -645.71429,1430.7476 -645.71429,1422.3622 C -645.71429,1413.7908 -645.71429,1405.2193 -645.71429,1396.6479 C -645.71429,1390.3215 -648.57143,1384.9358 -648.57143,1378.0765 z"
           id="path4688" />
        <path
           style="fill:#cccccc;fill-rule:evenodd;stroke:#000000;stroke-width:1px;stroke-linecap:butt;stroke-linejoin:miter;stroke-opacity:1"
           d="M -637.14286,1413.7908 C -635.34256,1415.141 -618.74123,1413.8332 -612.85714,1412.3622"
           id="path4690" />
        <path
           style="fill:#cccccc;fill-rule:evenodd;stroke:#000000;stroke-width:1px;stroke-linecap:butt;stroke-linejoin:miter;stroke-opacity:1"
           d="M -632.85714,1445.2193 C -628.57994,1448.4272 -616.62657,1448.6617 -608.57143,1446.6479"
           id="path4692" />
        <path
           style="fill:#cccccc;fill-rule:evenodd;stroke:#000000;stroke-width:1px;stroke-linecap:butt;stroke-linejoin:miter;stroke-opacity:1"
           d="M -611.42857,1480.9336 C -605.753,1485.1903 -594.19303,1476.5552 -588.57143,1470.9336"
           id="path4694" />
        <path
           style="fill:#cccccc;fill-rule:evenodd;stroke:#000000;stroke-width:1px;stroke-linecap:butt;stroke-linejoin:miter;stroke-opacity:1"
           d="M -578.57143,1508.0765 C -572.38095,1501.886 -561.28944,1503.3293 -554.28571,1498.0765"
           id="path4696" />
        <path
           style="fill:#cccccc;fill-rule:evenodd;stroke:#000000;stroke-width:1px;stroke-linecap:butt;stroke-linejoin:miter;stroke-opacity:1"
           d="M -530,1522.3622 C -523.90581,1517.7915 -510.41549,1518.3099 -507.14286,1505.2193"
           id="path4698" />
        <path
           style="fill:#cccccc;fill-rule:evenodd;stroke:#000000;stroke-width:1px;stroke-linecap:butt;stroke-linejoin:miter;stroke-opacity:1"
           d="M -491.42857,1533.7908 C -481.54705,1526.3796 -476.3746,1519.013 -471.42857,1506.6479 C -471.07487,1505.7636 -471.42857,1504.7431 -471.42857,1503.7908"
           id="path4700" />
      </g>
      <g
         style="fill:#cccccc"
         id="g4702"
         transform="matrix(-2.1946907e-2,-0.9997591,0.9997591,-2.1946907e-2,-2455.786,200.18064)">
        <path
           id="path4704"
           d="M -648.57143,1378.0765 C -650.23107,1369.3353 -645.24862,1365.1262 -631.42857,1362.3622 C -620.08558,1360.0936 -616.09256,1364.7565 -614.28571,1373.7908 C -612.81569,1381.1409 -614.28571,1390.5472 -614.28571,1398.0765 C -614.28571,1409.8041 -613.0619,1420.217 -610,1430.9336 C -609.46062,1432.8215 -609.04762,1434.7431 -608.57143,1436.6479 C -605.61695,1448.4658 -596.34398,1461.7325 -587.14286,1470.9336 C -576.10886,1481.9676 -573.63554,1491.0962 -557.14286,1495.2193 C -536.1424,1500.4694 -517.31783,1505.2193 -494.28571,1505.2193 C -480.86826,1505.2193 -467.78491,1506.6479 -454.28571,1506.6479 C -445.89785,1506.6479 -447.14286,1519.5119 -447.14286,1526.6479 C -447.14286,1537.7001 -451.95656,1541.8964 -461.42857,1543.7908 C -472.28301,1545.9616 -485.95429,1543.7908 -497.14286,1543.7908 C -508.24644,1543.7908 -521.3641,1539.2451 -531.42857,1535.2193 C -540.43204,1531.6179 -549.43767,1528.4746 -558.57143,1526.6479 C -568.57852,1524.6465 -578.73436,1519.0257 -585.71429,1513.7908 C -593.35322,1508.0616 -599.98038,1502.3818 -607.14286,1495.2193 C -614.65281,1487.7094 -621.01266,1481.3495 -628.57143,1473.7908 C -634.23893,1468.1232 -638.25466,1457.915 -640,1450.9336 C -640.25825,1449.9006 -640.95238,1449.0288 -641.42857,1448.0765 C -645.18368,1440.5662 -645.71429,1430.7476 -645.71429,1422.3622 C -645.71429,1413.7908 -645.71429,1405.2193 -645.71429,1396.6479 C -645.71429,1390.3215 -648.57143,1384.9358 -648.57143,1378.0765 z"
           style="fill:#cccccc;fill-rule:evenodd;stroke:#000000;stroke-width:1px;stroke-linecap:butt;stroke-linejoin:miter;stroke-opacity:1" />
        <path
           id="path4706"
           d="M -637.14286,1413.7908 C -635.34256,1415.141 -618.74123,1413.8332 -612.85714,1412.3622"
           style="fill:#cccccc;fill-rule:evenodd;stroke:#000000;stroke-width:1px;stroke-linecap:butt;stroke-linejoin:miter;stroke-opacity:1" />
        <path
           id="path4708"
           d="M -632.85714,1445.2193 C -628.57994,1448.4272 -616.62657,1448.6617 -608.57143,1446.6479"
           style="fill:#cccccc;fill-rule:evenodd;stroke:#000000;stroke-width:1px;stroke-linecap:butt;stroke-linejoin:miter;stroke-opacity:1" />
        <path
           id="path4710"
           d="M -611.42857,1480.9336 C -605.753,1485.1903 -594.19303,1476.5552 -588.57143,1470.9336"
           style="fill:#cccccc;fill-rule:evenodd;stroke:#000000;stroke-width:1px;stroke-linecap:butt;stroke-linejoin:miter;stroke-opacity:1" />
        <path
           id="path4712"
           d="M -578.57143,1508.0765 C -572.38095,1501.886 -561.28944,1503.3293 -554.28571,1498.0765"
           style="fill:#cccccc;fill-rule:evenodd;stroke:#000000;stroke-width:1px;stroke-linecap:butt;stroke-linejoin:miter;stroke-opacity:1" />
        <path
           id="path4714"
           d="M -530,1522.3622 C -523.90581,1517.7915 -510.41549,1518.3099 -507.14286,1505.2193"
           style="fill:#cccccc;fill-rule:evenodd;stroke:#000000;stroke-width:1px;stroke-linecap:butt;stroke-linejoin:miter;stroke-opacity:1" />
        <path
           id="path4716"
           d="M -491.42857,1533.7908 C -481.54705,1526.3796 -476.3746,1519.013 -471.42857,1506.6479 C -471.07487,1505.7636 -471.42857,1504.7431 -471.42857,1503.7908"
           style="fill:#cccccc;fill-rule:evenodd;stroke:#000000;stroke-width:1px;stroke-linecap:butt;stroke-linejoin:miter;stroke-opacity:1" />
      </g>
      <g
         inkscape:transform-center-y="-50.508659"
         inkscape:transform-center-x="-3.5566632"
         transform="matrix(0.1241189,0.9922674,-0.9922674,0.1241189,-353.79122,579.71897)"
         id="g4734">
        <path
           inkscape:transform-center-y="-20.59074"
           inkscape:transform-center-x="42.525082"
           id="path4736"
           d="M -162.64901,1168.1827 C -156.91972,1162.8749 -148.06398,1174.1242 -140.35963,1175.4052 C -128.88937,1177.3123 -131.80619,1178.1835 -125.12418,1169.2174 C -120.76317,1163.3657 -121.37447,1156.4172 -125.49616,1151.151 C -132.35205,1142.3915 -138.8953,1135.4234 -148.54409,1129.0332 C -158.97897,1122.1224 -166.98549,1114.6917 -179.233,1108.88 C -189.50015,1104.008 -196.98871,1105.1789 -207.77117,1105.401 C -209.27668,1105.432 -210.78224,1105.463 -212.28775,1105.494 C -218.8687,1105.6295 -226.01339,1110.9819 -229.25548,1115.3323 C -232.99735,1120.3532 -237.82546,1121.6077 -232.19386,1126.2371 C -226.33256,1131.0554 -215.64117,1135.2099 -208.8989,1138.4093 C -205.43042,1140.0551 -209.31108,1130.0371 -206.8731,1127.0713 C -203.34663,1122.7814 -199.02055,1135.2699 -194.00346,1137.6507 C -191.23637,1138.9637 -189.78127,1128.7526 -184.15069,1133.3811 C -180.02382,1136.7736 -191.51361,1142.1486 -179.4016,1144.5796 C -172.78779,1145.907 -165.9245,1139.7411 -170.27543,1148.9102 C -173.75467,1156.2422 -163.50446,1154.6448 -158.41141,1154.5399 C -150.56966,1154.3784 -160.45467,1166.4652 -162.64901,1168.1827 z"
           style="fill:#b3b3b3;fill-rule:evenodd;stroke:#000000;stroke-width:1px;stroke-linecap:butt;stroke-linejoin:miter;stroke-opacity:1" />
        <path
           id="path4738"
           d="M -157.28837,1184.8617 C -154.38725,1191.8044 -141.56166,1185.7089 -134.0507,1187.7631 C -122.86837,1190.8215 -125.13044,1188.8707 -122.93704,1199.3687 C -121.50552,1206.2203 -125.03729,1211.9796 -131.01971,1214.843 C -140.97066,1219.6058 -149.87099,1222.9473 -161.32971,1224.5143 C -173.72194,1226.209 -184.14283,1229.3501 -197.70172,1229.3501 C -209.06822,1229.3501 -215.33283,1225.2635 -224.98072,1220.6458 C -226.32783,1220.0011 -227.67494,1219.3563 -229.02205,1218.7115 C -234.91054,1215.8932 -239.0715,1208.3309 -240.13572,1203.2373 C -241.364,1197.3585 -245.18882,1194.2917 -238.11506,1192.5989 C -230.75275,1190.8369 -219.31057,1191.6317 -211.84639,1191.6317 C -208.00653,1191.6317 -215.80869,1198.7042 -214.87739,1202.2702 C -213.53028,1207.4283 -204.26634,1198.4017 -198.71205,1198.4017 C -195.64868,1198.4017 -198.71219,1207.8313 -191.63972,1206.1387 C -186.45602,1204.8982 -194.53359,1195.533 -182.54672,1198.4017 C -176.00126,1199.9681 -172.44338,1208.1185 -172.44338,1198.4017 C -172.44338,1190.6316 -163.86617,1196.2205 -159.30904,1198.4017 C -152.29244,1201.76 -156.04199,1187.2479 -157.28837,1184.8617 z"
           style="fill:#b3b3b3;fill-rule:evenodd;stroke:#000000;stroke-width:0.97856432px;stroke-linecap:butt;stroke-linejoin:miter;stroke-opacity:1" />
        <path
           id="path4740"
           d="M -104.6647,1151.5475 C -108.59358,1152.9612 -120.69445,1152.5576 -127.89821,1152.5576 C -133.76196,1152.5576 -142.55017,1162.1588 -146.08096,1165.6896 C -149.80349,1169.4121 -148.10126,1179.8656 -148.10126,1184.8825 C -148.10126,1191.848 -144.96665,1197.1085 -140.02004,1202.0551 C -134.42797,1207.6472 -124.37801,1208.116 -116.78653,1208.116 C -106.1134,1208.116 -99.622284,1210.9002 -90.522574,1204.0754 C -84.972724,1199.913 -83.451504,1193.3057 -83.451504,1186.9028 C -83.451504,1180.2834 -83.978204,1174.6945 -85.471804,1168.7201 C -87.164994,1161.9473 -89.126034,1158.3067 -94.563184,1155.5881 C -98.871804,1153.4338 -98.112844,1152.8579 -104.6647,1151.5475 z"
           style="fill:#cccccc;fill-rule:evenodd;stroke:#000000;stroke-width:1px;stroke-linecap:butt;stroke-linejoin:miter;stroke-opacity:1" />
      </g>
      <g
         inkscape:transform-center-y="-50.08127"
         inkscape:transform-center-x="7.9887418"
         id="g4742"
         transform="matrix(0.2274656,0.9737861,-0.9737861,0.2274656,252.0028,441.88077)">
        <path
           inkscape:transform-center-y="-20.59074"
           inkscape:transform-center-x="42.525082"
           id="path4744"
           d="M -162.64901,1168.1827 C -156.91972,1162.8749 -148.06398,1174.1242 -140.35963,1175.4052 C -128.88937,1177.3123 -131.80619,1178.1835 -125.12418,1169.2174 C -120.76317,1163.3657 -121.37447,1156.4172 -125.49616,1151.151 C -132.35205,1142.3915 -138.8953,1135.4234 -148.54409,1129.0332 C -158.97897,1122.1224 -166.98549,1114.6917 -179.233,1108.88 C -189.50015,1104.008 -196.98871,1105.1789 -207.77117,1105.401 C -209.27668,1105.432 -210.78224,1105.463 -212.28775,1105.494 C -218.8687,1105.6295 -226.01339,1110.9819 -229.25548,1115.3323 C -232.99735,1120.3532 -237.82546,1121.6077 -232.19386,1126.2371 C -226.33256,1131.0554 -215.64117,1135.2099 -208.8989,1138.4093 C -205.43042,1140.0551 -209.31108,1130.0371 -206.8731,1127.0713 C -203.34663,1122.7814 -199.02055,1135.2699 -194.00346,1137.6507 C -191.23637,1138.9637 -189.78127,1128.7526 -184.15069,1133.3811 C -180.02382,1136.7736 -191.51361,1142.1486 -179.4016,1144.5796 C -172.78779,1145.907 -165.9245,1139.7411 -170.27543,1148.9102 C -173.75467,1156.2422 -163.50446,1154.6448 -158.41141,1154.5399 C -150.56966,1154.3784 -160.45467,1166.4652 -162.64901,1168.1827 z"
           style="fill:#b3b3b3;fill-rule:evenodd;stroke:#000000;stroke-width:1px;stroke-linecap:butt;stroke-linejoin:miter;stroke-opacity:1" />
        <path
           id="path4746"
           d="M -157.28837,1184.8617 C -154.38725,1191.8044 -141.56166,1185.7089 -134.0507,1187.7631 C -122.86837,1190.8215 -125.13044,1188.8707 -122.93704,1199.3687 C -121.50552,1206.2203 -125.03729,1211.9796 -131.01971,1214.843 C -140.97066,1219.6058 -149.87099,1222.9473 -161.32971,1224.5143 C -173.72194,1226.209 -184.14283,1229.3501 -197.70172,1229.3501 C -209.06822,1229.3501 -215.33283,1225.2635 -224.98072,1220.6458 C -226.32783,1220.0011 -227.67494,1219.3563 -229.02205,1218.7115 C -234.91054,1215.8932 -239.0715,1208.3309 -240.13572,1203.2373 C -241.364,1197.3585 -245.18882,1194.2917 -238.11506,1192.5989 C -230.75275,1190.8369 -219.31057,1191.6317 -211.84639,1191.6317 C -208.00653,1191.6317 -215.80869,1198.7042 -214.87739,1202.2702 C -213.53028,1207.4283 -204.26634,1198.4017 -198.71205,1198.4017 C -195.64868,1198.4017 -198.71219,1207.8313 -191.63972,1206.1387 C -186.45602,1204.8982 -194.53359,1195.533 -182.54672,1198.4017 C -176.00126,1199.9681 -172.44338,1208.1185 -172.44338,1198.4017 C -172.44338,1190.6316 -163.86617,1196.2205 -159.30904,1198.4017 C -152.29244,1201.76 -156.04199,1187.2479 -157.28837,1184.8617 z"
           style="fill:#b3b3b3;fill-rule:evenodd;stroke:#000000;stroke-width:0.97856432px;stroke-linecap:butt;stroke-linejoin:miter;stroke-opacity:1" />
        <path
           id="path4748"
           d="M -104.6647,1151.5475 C -108.59358,1152.9612 -120.69445,1152.5576 -127.89821,1152.5576 C -133.76196,1152.5576 -142.55017,1162.1588 -146.08096,1165.6896 C -149.80349,1169.4121 -148.10126,1179.8656 -148.10126,1184.8825 C -148.10126,1191.848 -144.96665,1197.1085 -140.02004,1202.0551 C -134.42797,1207.6472 -124.37801,1208.116 -116.78653,1208.116 C -106.1134,1208.116 -99.622284,1210.9002 -90.522574,1204.0754 C -84.972724,1199.913 -83.451504,1193.3057 -83.451504,1186.9028 C -83.451504,1180.2834 -83.978204,1174.6945 -85.471804,1168.7201 C -87.164994,1161.9473 -89.126034,1158.3067 -94.563184,1155.5881 C -98.871804,1153.4338 -98.112844,1152.8579 -104.6647,1151.5475 z"
           style="fill:#cccccc;fill-rule:evenodd;stroke:#000000;stroke-width:1px;stroke-linecap:butt;stroke-linejoin:miter;stroke-opacity:1" />
      </g>
    </g>
    <g
       id="g12207"
       transform="matrix(0.369788,0,0,0.369788,292.85755,611.54198)">
      <rect
         y="901.86176"
         x="99.415688"
         height="141.73228"
         width="318.89758"
         id="rect24413"
         style="fill:#ff0000;fill-opacity:1;stroke:#000000;stroke-width:2.5;stroke-miterlimit:4;stroke-dasharray:none;stroke-dashoffset:0;stroke-opacity:1" />
      <rect
         y="901.86182"
         x="99.41568"
         height="141.73228"
         width="35.433071"
         id="rect24415"
         style="fill:#ff0000;fill-opacity:1;stroke:#000000;stroke-width:2.5;stroke-miterlimit:4;stroke-dasharray:none;stroke-dashoffset:0;stroke-opacity:1" />
      <rect
         style="fill:#ff0000;fill-opacity:1;stroke:#000000;stroke-width:2.5;stroke-miterlimit:4;stroke-dasharray:none;stroke-dashoffset:0;stroke-opacity:1"
         id="rect24417"
         width="35.433071"
         height="141.73228"
         x="134.84875"
         y="901.86182" />
      <rect
         y="901.86182"
         x="170.28181"
         height="141.73228"
         width="35.433071"
         id="rect24419"
         style="fill:#ff0000;fill-opacity:1;stroke:#000000;stroke-width:2.5;stroke-miterlimit:4;stroke-dasharray:none;stroke-dashoffset:0;stroke-opacity:1" />
      <rect
         style="fill:#ff0000;fill-opacity:1;stroke:#000000;stroke-width:2.5;stroke-miterlimit:4;stroke-dasharray:none;stroke-dashoffset:0;stroke-opacity:1"
         id="rect24421"
         width="35.433071"
         height="141.73228"
         x="205.71489"
         y="901.86182" />
      <rect
         y="901.86182"
         x="241.14796"
         height="141.73228"
         width="35.433071"
         id="rect24423"
         style="fill:#ff0000;fill-opacity:1;stroke:#000000;stroke-width:2.5;stroke-miterlimit:4;stroke-dasharray:none;stroke-dashoffset:0;stroke-opacity:1" />
      <rect
         style="fill:#ff0000;fill-opacity:1;stroke:#000000;stroke-width:2.5;stroke-miterlimit:4;stroke-dasharray:none;stroke-dashoffset:0;stroke-opacity:1"
         id="rect24425"
         width="35.433071"
         height="141.73228"
         x="276.58102"
         y="901.86182" />
      <rect
         y="901.86182"
         x="312.01413"
         height="141.73228"
         width="35.433071"
         id="rect24427"
         style="fill:#ff0000;fill-opacity:1;stroke:#000000;stroke-width:2.5;stroke-miterlimit:4;stroke-dasharray:none;stroke-dashoffset:0;stroke-opacity:1" />
      <rect
         style="fill:#ff0000;fill-opacity:1;stroke:#000000;stroke-width:2.5;stroke-miterlimit:4;stroke-dasharray:none;stroke-dashoffset:0;stroke-opacity:1"
         id="rect24429"
         width="35.433071"
         height="141.73228"
         x="347.4472"
         y="901.86182" />
      <rect
         y="901.86182"
         x="99.41568"
         height="35.433067"
         width="318.89764"
         id="rect24431"
         style="fill:none;fill-opacity:1;stroke:#000000;stroke-width:2.5;stroke-miterlimit:4;stroke-dasharray:none;stroke-dashoffset:0;stroke-opacity:1" />
      <rect
         y="937.29492"
         x="99.415665"
         height="35.433067"
         width="318.89764"
         id="rect24942"
         style="fill:none;fill-opacity:1;stroke:#000000;stroke-width:2.5;stroke-miterlimit:4;stroke-dasharray:none;stroke-dashoffset:0;stroke-opacity:1" />
      <rect
         y="972.72797"
         x="99.41568"
         height="35.433067"
         width="318.89764"
         id="rect24944"
         style="fill:none;fill-opacity:1;stroke:#000000;stroke-width:2.5;stroke-miterlimit:4;stroke-dasharray:none;stroke-dashoffset:0;stroke-opacity:1" />
      <rect
         y="1008.161"
         x="99.41568"
         height="35.433067"
         width="318.89764"
         id="rect24946"
         style="fill:none;fill-opacity:1;stroke:#000000;stroke-width:2.5;stroke-miterlimit:4;stroke-dasharray:none;stroke-dashoffset:0;stroke-opacity:1" />
      <rect
         y="972.72791"
         x="99.415634"
         height="35.433067"
         width="318.89764"
         id="rect25108"
         style="fill:#ff0000;fill-opacity:1;stroke:#000000;stroke-width:2.5;stroke-miterlimit:4;stroke-dasharray:none;stroke-dashoffset:0;stroke-opacity:1" />
      <text
         id="text25110"
         y="990.36658"
         x="107.96034"
         style="font-size:20px;font-style:normal;font-weight:normal;fill:#000000;fill-opacity:1;stroke:none;stroke-width:1px;stroke-linecap:butt;stroke-linejoin:miter;stroke-opacity:1;font-family:Bitstream Vera Sans"
         xml:space="preserve"><tspan
           y="990.36658"
           x="107.96034"
           id="tspan25112"
           sodipodi:role="line">...  ...   ...  ...   ...  ...   ...   ...  ...</tspan></text>
      <text
         id="text25114"
         y="1063.4816"
         x="99.238922"
         style="font-size:20px;font-style:normal;font-weight:normal;fill:#000000;fill-opacity:1;stroke:none;stroke-width:1px;stroke-linecap:butt;stroke-linejoin:miter;stroke-opacity:1;font-family:Bitstream Vera Sans"
         xml:space="preserve"><tspan
           y="1063.4816"
           x="99.238922"
           id="tspan25116"
           sodipodi:role="line">Time &gt;</tspan></text>
      <text
         transform="matrix(0,-1,1,0,0,0)"
         id="text25118"
         y="87.703827"
         x="-1043.594"
         style="font-size:20px;font-style:normal;font-weight:normal;fill:#000000;fill-opacity:1;stroke:none;stroke-width:1px;stroke-linecap:butt;stroke-linejoin:miter;stroke-opacity:1;font-family:Bitstream Vera Sans"
         xml:space="preserve"><tspan
           y="87.703827"
           x="-1043.594"
           id="tspan25120"
           sodipodi:role="line">Topics &gt;</tspan></text>
    </g>
    <path
       style="fill:#ff0000;fill-rule:evenodd;stroke:#000000;stroke-width:0.33333334px;stroke-linecap:butt;stroke-linejoin:miter;stroke-opacity:1"
       d="M 93.601223,787.1564 L 140.84532,787.1564 L 140.84532,775.34538 L 164.46736,798.96742 L 140.84532,822.58947 L 140.84532,810.77845 L 93.601223,810.77845 L 93.601223,787.1564 z"
       id="path13897" />
    <path
       style="fill:#ff0000;fill-rule:evenodd;stroke:#000000;stroke-width:0.33333334px;stroke-linecap:butt;stroke-linejoin:miter;stroke-opacity:1"
       d="M 255.40523,787.48276 L 302.64933,787.48276 L 302.64933,775.67174 L 326.27137,799.29378 L 302.64933,822.91583 L 302.64933,811.10481 L 255.40523,811.10481 L 255.40523,787.48276 z"
       id="path13899" />
    <path
       style="fill:#ff0000;fill-rule:evenodd;stroke:#000000;stroke-width:0.33333334px;stroke-linecap:butt;stroke-linejoin:miter;stroke-opacity:1"
       d="M 385.27333,843.73057 L 385.27333,890.97467 L 397.08436,890.97467 L 373.46231,914.59672 L 349.84027,890.97467 L 361.65129,890.97467 L 361.65129,843.73057 L 385.27333,843.73057 z"
       id="path13901" />
    <path
       style="fill:#ff0000;fill-rule:evenodd;stroke:#000000;stroke-width:0.33333334px;stroke-linecap:butt;stroke-linejoin:miter;stroke-opacity:1"
       d="M 345.03081,1002.3592 L 297.78671,1002.3592 L 297.78671,1014.1702 L 274.16466,990.54822 L 297.78671,966.92621 L 297.78671,978.73723 L 345.03081,978.73723 L 345.03081,1002.3592 z"
       id="path13905" />
    <image
       y="931.0094"
       x="-171.27272"
       id="image16703"
       height="236.98483"
       width="299.93393"
       sodipodi:absref="/home/abez/projects/lda-paper/presentation-icsm/time-smear-plot.1024768.png"
       xlink:href="time-smear-plot.1024768.png" />
    <path
       style="fill:#ff0000;fill-rule:evenodd;stroke:#000000;stroke-width:0.33333334px;stroke-linecap:butt;stroke-linejoin:miter;stroke-opacity:1"
       d="M 160.75472,1002.3592 L 113.51062,1002.3592 L 113.51062,1014.1702 L 89.888565,990.54817 L 113.51062,966.92613 L 113.51062,978.73715 L 160.75472,978.73715 L 160.75472,1002.3592 z"
       id="path13907"
       inkscape:transform-center-x="-35.599742"
       inkscape:transform-center-y="-23.788712" />
    <text
       xml:space="preserve"
       style="font-size:12px;font-style:normal;font-weight:bold;writing-mode:lr-tb;fill:#000000;fill-opacity:1;stroke:none;stroke-width:1px;stroke-linecap:butt;stroke-linejoin:miter;stroke-opacity:1;font-family:Sans;-inkscape-font-specification:Sans"
       x="3.8245168"
       y="929.13086"
       id="text13909"><tspan
         sodipodi:role="line"
         id="tspan13911"
         x="3.8245168"
         y="929.13086">Auto-Generated Plot</tspan></text>
    <text
       xml:space="preserve"
       style="font-size:12px;font-style:normal;font-weight:bold;writing-mode:lr-tb;fill:#000000;fill-opacity:1;stroke:none;stroke-width:1px;stroke-linecap:butt;stroke-linejoin:miter;stroke-opacity:1;font-family:Sans;-inkscape-font-specification:Sans"
       x="157.60657"
       y="928.30927"
       id="text13913"><tspan
         sodipodi:role="line"
         id="tspan13915"
         x="157.60657"
         y="928.30927">Automated Analysis</tspan></text>
    <text
       xml:space="preserve"
       style="font-size:12px;font-style:normal;font-weight:bold;writing-mode:lr-tb;fill:#000000;fill-opacity:1;stroke:none;stroke-width:1px;stroke-linecap:butt;stroke-linejoin:miter;stroke-opacity:1;font-family:Sans;-inkscape-font-specification:Sans"
       x="331.58859"
       y="934.37964"
       id="text13917"><tspan
         sodipodi:role="line"
         id="tspan13919"
         x="331.58859"
         y="934.37964">Extracted Topics</tspan></text>
    <g
       id="g16639"
       transform="translate(278.74736,41.916897)">
      <path
         transform="translate(-4.149475e-6,698.0315)"
         id="path16637"
         d="M -111.07978,207.07132 C -109.30185,205.7548 -103.20519,205.49186 -100.07659,203.92756 C -97.929146,202.85383 -93.889913,202.87963 -91.693212,202.87963 C -90.441127,202.87963 -89.994115,205.75387 -89.073406,207.59528 C -88.168096,209.4059 -87.512535,212.79084 -86.977561,214.93074 C -86.148264,218.24793 -87.501522,221.7021 -87.501522,224.886 C -87.501522,227.22273 -88.011625,229.54622 -88.549444,231.6975 C -88.617432,231.96945 -95.699067,231.6975 -96.408863,231.6975 C -98.64077,231.6975 -102.05853,231.20202 -104.26828,230.64958 C -108.46177,229.60121 -108.1136,229.95684 -106.36413,226.45789 C -105.2102,224.15005 -104.79224,219.76208 -104.79224,217.02659 C -104.79224,212.93347 -107.16232,208.05069 -111.07978,207.07132 z"
         style="fill:#ffe6d5;fill-rule:evenodd;stroke:#000000;stroke-width:1px;stroke-linecap:butt;stroke-linejoin:miter;stroke-opacity:1" />
      <path
         transform="translate(-4.149475e-6,698.0315)"
         id="path16616"
         d="M -75.302036,236.94175 C -79.13028,236.94175 -81.03408,242.02464 -83.741057,244.73161 C -86.57838,247.56894 -87.467425,248.14596 -89.583456,246.02993 C -91.775459,243.83792 -92.06103,240.66372 -92.829234,237.5909 C -93.67421,234.211 -94.127545,233.30947 -94.127545,231.74851 C -94.127545,230.37997 -93.161153,229.18125 -92.829234,227.85357 C -92.125126,225.03714 -97.802668,231.0444 -100.6191,231.74851 C -104.97061,232.83638 -102.11845,224.11364 -101.91741,223.30948 C -100.8462,219.02464 -101.16625,218.85118 -104.51403,221.36202 C -107.39335,223.5215 -107.96153,224.76553 -109.05812,229.15188 C -110.03937,233.07688 -107.54985,233.58617 -104.51403,234.34513 C -99.773043,235.53037 -99.320789,235.05492 -99.320789,240.83668 C -99.320789,244.24328 -98.420598,246.532 -97.373322,248.62655 C -95.600992,252.17121 -94.666109,252.81841 -90.881767,251.87233 C -87.698957,251.07662 -85.104979,251.22317 -81.793591,251.22317 C -79.599746,251.22317 -77.607343,247.68608 -76.600347,246.67908 C -73.02724,243.10598 -76.038265,236.20552 -72.705414,239.53837 C -72.246392,239.99739 -72.705414,238.24006 -72.705414,237.5909"
         style="fill:#b3b3b3;fill-rule:evenodd;stroke:#000000;stroke-width:1px;stroke-linecap:butt;stroke-linejoin:miter;stroke-opacity:1" />
      <path
         id="path16618"
         d="M -38.955905,932.07863 C -35.127665,932.07863 -33.223865,926.99574 -30.516886,924.28877 C -27.679563,921.45144 -26.790518,920.87442 -24.674487,922.99045 C -22.482484,925.18246 -22.196913,928.35666 -21.428709,931.42948 C -20.583733,934.80938 -20.130398,935.71091 -20.130398,937.27187 C -20.130398,938.64041 -21.09679,939.83913 -21.428709,941.16681 C -22.132817,943.98324 -16.455274,937.97598 -13.638845,937.27187 C -9.2873355,936.184 -12.139495,944.90674 -12.340535,945.7109 C -13.411745,949.99574 -13.091695,950.1692 -9.7439155,947.65836 C -6.8645955,945.49888 -6.2964155,944.25485 -5.1998255,939.8685 C -4.2185755,935.9435 -6.7080955,935.43421 -9.7439155,934.67525 C -14.484895,933.49001 -14.937153,933.96546 -14.937153,928.1837 C -14.937153,924.7771 -15.837344,922.48838 -16.88462,920.39383 C -18.656951,916.84917 -19.591834,916.20197 -23.376176,917.14805 C -26.558986,917.94376 -29.152964,917.79721 -32.464355,917.79721 C -34.658195,917.79721 -36.650605,921.3343 -37.657595,922.3413 C -41.230705,925.9144 -38.219675,932.81486 -41.552525,929.48201 C -42.011555,929.02299 -41.552525,930.78032 -41.552525,931.42948"
         style="fill:#b3b3b3;fill-rule:evenodd;stroke:#000000;stroke-width:1px;stroke-linecap:butt;stroke-linejoin:miter;stroke-opacity:1" />
      <path
         id="path16594"
         d="M -51.582514,919.39352 C -48.852485,918.71101 -43.909479,919.27669 -41.196026,921.99014 C -37.263209,925.92296 -38.599404,940.71838 -38.599404,946.00889 C -38.599404,953.51289 -36.540572,960.30935 -35.353627,967.43102 C -34.445013,972.8827 -39.013666,973.27342 -44.441803,973.27342 C -50.868373,973.27342 -57.105868,975.22089 -63.916468,975.22089 C -69.503607,975.22089 -70.578426,974.23093 -72.355489,970.6768 C -72.788259,969.81126 -73.22103,968.94572 -73.6538,968.08018 C -75.713048,963.96168 -74.520847,957.47128 -75.601267,953.1496 C -76.649222,948.95778 -75.601267,944.9907 -75.601267,940.81565 C -75.601267,936.39818 -74.952111,931.72482 -74.952111,927.18338 C -74.952111,923.96633 -70.565359,923.1655 -68.460556,922.6393 C -67.646927,922.43589 -66.799741,921.53208 -66.51309,921.34098"
         style="fill:#ffff00;fill-rule:evenodd;stroke:#000000;stroke-width:1px;stroke-linecap:butt;stroke-linejoin:miter;stroke-opacity:1" />
      <path
         id="path16592"
         d="M -49.635047,930.42916 C -49.38451,931.43131 -51.582514,921.62167 -51.582514,912.90196 C -51.582514,906.41041 -51.582514,899.91885 -51.582514,893.4273 C -51.582514,890.74063 -62.864304,892.90122 -63.916468,893.4273 C -66.554538,894.74633 -66.492558,906.32828 -67.162245,909.00703 C -68.419882,914.03758 -67.806,920.08588 -67.162245,925.23592 C -66.698039,928.94957 -67.12308,931.15665 -65.863934,933.67494 C -64.989955,935.4229 -56.888117,934.02761 -55.477447,933.67494 C -51.393838,932.65404 -53.745219,935.56688 -49.635047,930.42916 z"
         style="fill:#ffff00;fill-rule:evenodd;stroke:#000000;stroke-width:1px;stroke-linecap:butt;stroke-linejoin:miter;stroke-opacity:1" />
      <path
         id="path16596"
         d="M -55.477447,903.16463 C -54.437271,904.75321 -52.231669,913.39426 -52.231669,914.20027 C -52.231669,914.96627 -58.074069,913.77855 -58.074069,909.00703 C -58.074069,905.47202 -58.414618,906.83609 -55.477447,903.16463 z"
         style="fill:#00ffff;fill-rule:evenodd;stroke:#000000;stroke-width:1px;stroke-linecap:butt;stroke-linejoin:miter;stroke-opacity:1" />
      <path
         id="path16598"
         d="M -60.67069,905.76125 C -60.67069,902.93994 -62.477699,912.21769 -65.214779,912.90196 C -70.812922,914.3015 -64.478056,907.62115 -63.916468,907.05956 C -63.092498,906.23559 -61.752616,906.19402 -60.67069,905.76125 z"
         style="fill:#00ffff;fill-rule:evenodd;stroke:#000000;stroke-width:1px;stroke-linecap:butt;stroke-linejoin:miter;stroke-opacity:1" />
      <path
         id="path16600"
         d="M -53.52998,921.99014 C -52.651808,921.11197 -62.097124,922.34675 -63.267312,922.6393 C -66.150161,923.36001 -70.034154,918.19379 -67.162245,923.93761 C -64.893214,928.47567 -65.158205,927.98068 -59.37238,926.53423 C -56.156335,925.73022 -52.669185,926.29412 -53.52998,921.99014 z"
         style="fill:#808000;fill-rule:evenodd;stroke:#000000;stroke-width:1px;stroke-linecap:butt;stroke-linejoin:miter;stroke-opacity:1" />
      <text
         transform="scale(0.6394919,1.5637414)"
         id="text16608"
         y="609.15436"
         x="-113.44025"
         style="font-size:12.66583252px;font-style:normal;font-weight:bold;writing-mode:lr-tb;fill:#000000;fill-opacity:1;stroke:none;stroke-width:1px;stroke-linecap:butt;stroke-linejoin:miter;stroke-opacity:1;font-family:Sans;-inkscape-font-specification:Sans"
         xml:space="preserve"><tspan
           y="609.15436"
           x="-113.44025"
           id="tspan16610"
           sodipodi:role="line">Plotter</tspan></text>
      <g
         transform="matrix(-0.4305979,0.9025439,-0.9025439,-0.4305979,690.11831,1374.3639)"
         id="g16630">
        <rect
           style="fill:#ff6600;fill-rule:evenodd;stroke:#000000;stroke-width:1px;stroke-linecap:butt;stroke-linejoin:miter;stroke-opacity:1"
           id="rect16620"
           width="24.787201"
           height="3.672178"
           x="-103.73903"
           y="123.03995"
           transform="translate(-4.149475e-6,698.0315)" />
        <path
           style="fill:#ffcc00;fill-rule:evenodd;stroke:#000000;stroke-width:1px;stroke-linecap:butt;stroke-linejoin:miter;stroke-opacity:1"
           d="M -79.86987,123.95799 C -79.304117,121.42206 -77.761815,121.20386 -74.361603,121.20386 C -73.954319,121.20386 -71.821521,124.93728 -70.230403,125.33506 C -68.352782,125.80447 -66.599758,123.96838 -64.722136,123.49897 C -62.82119,123.02374 -67.008773,126.70365 -68.394314,128.08919 C -70.299853,129.99473 -72.894705,130.86579 -74.820626,130.38431 C -76.995007,129.84071 -78.871896,128.19577 -80.328893,126.25311 C -80.797005,125.62896 -80.022878,124.72303 -79.86987,123.95799 z"
           id="path16622"
           transform="translate(-4.149475e-6,698.0315)" />
        <path
           style="fill:#ff00ff;fill-rule:evenodd;stroke:#000000;stroke-width:1px;stroke-linecap:butt;stroke-linejoin:miter;stroke-opacity:1"
           d="M -64.578219,123.23753 C -65.059152,122.59629 -65.92984,124.11875 -66.674064,124.41644 C -67.693451,124.8242 -68.031497,125.20238 -69.16288,125.20238 C -70.074359,125.20238 -70.620726,125.05868 -71.127734,124.67842 C -71.57152,124.34558 -71.843878,123.96228 -72.175657,123.6305 C -73.133261,122.6729 -74.024297,124.5284 -74.271502,124.9404 C -74.595515,125.48043 -73.247965,125.87378 -72.961599,125.98833 C -72.907348,126.01003 -75.207983,128.00059 -75.319424,128.08417 C -75.589292,128.28657 -73.685169,128.34615 -73.354569,128.34615 C -71.987033,128.34615 -72.627924,128.84909 -73.354569,129.39407 C -74.3898,130.1705 -73.016988,129.85052 -72.044666,129.65605 C -71.256077,129.49834 -70.540113,129.31266 -69.817831,129.13209 C -69.187608,128.97454 -68.784614,128.61916 -68.245948,128.21516 C -67.628043,127.75173 -67.27007,127.23928 -66.805054,126.77427 C -66.374114,126.34333 -65.991414,126.09854 -65.495151,125.72635 C -64.947367,125.31551 -64.460384,124.60005 -64.316239,124.02347 C -64.135755,123.30154 -64.61072,123.2294 -64.054258,123.36852"
           id="path16624"
           transform="translate(-4.149475e-6,698.0315)" />
        <path
           style="fill:none;fill-rule:evenodd;stroke:#000000;stroke-width:1px;stroke-linecap:butt;stroke-linejoin:miter;stroke-opacity:1"
           d="M -76.891308,123.49951 C -76.871529,123.4204 -75.185968,123.66386 -74.795463,123.76149 C -74.381692,123.86493 -73.779172,123.76149 -73.354569,123.76149"
           id="path16626"
           transform="translate(-4.149475e-6,698.0315)" />
        <path
           style="fill:none;fill-rule:evenodd;stroke:#000000;stroke-width:1px;stroke-linecap:butt;stroke-linejoin:miter;stroke-opacity:1"
           d="M -77.80824,126.3813 C -77.617335,126.42902 -75.912716,126.99618 -75.057443,127.16724 C -74.922049,127.19432 -74.795463,127.25457 -74.664472,127.29823"
           id="path16628"
           transform="translate(-4.149475e-6,698.0315)" />
      </g>
    </g>
  </g>
</svg>
