<?xml version="1.0" encoding="UTF-8" standalone="no"?>
<!-- Created with Inkscape (http://www.inkscape.org/) -->
<svg
   xmlns:dc="http://purl.org/dc/elements/1.1/"
   xmlns:cc="http://creativecommons.org/ns#"
   xmlns:rdf="http://www.w3.org/1999/02/22-rdf-syntax-ns#"
   xmlns:svg="http://www.w3.org/2000/svg"
   xmlns="http://www.w3.org/2000/svg"
   xmlns:xlink="http://www.w3.org/1999/xlink"
   xmlns:sodipodi="http://sodipodi.sourceforge.net/DTD/sodipodi-0.dtd"
   xmlns:inkscape="http://www.inkscape.org/namespaces/inkscape"
   width="453.5433"
   height="340.15747"
   id="svg2"
   sodipodi:version="0.32"
   inkscape:version="0.46"
   sodipodi:docname="slide-0600-propose.svg"
   version="1.0"
   inkscape:output_extension="org.inkscape.output.svg.inkscape">
  <defs
     id="defs4">
    <radialGradient
       inkscape:collect="always"
       xlink:href="#linearGradient3295"
       id="radialGradient3318"
       gradientUnits="userSpaceOnUse"
       gradientTransform="matrix(1,0,0,0.6743401,0,184.64391)"
       cx="-397.70615"
       cy="566.98389"
       fx="-397.70615"
       fy="566.98389"
       r="55.417976" />
    <linearGradient
       id="linearGradient3295">
      <stop
         style="stop-color:#ff00f0;stop-opacity:1;"
         offset="0"
         id="stop3297" />
      <stop
         id="stop3305"
         offset="1"
         style="stop-color:#ff7078;stop-opacity:1;" />
    </linearGradient>
    <radialGradient
       inkscape:collect="always"
       xlink:href="#linearGradient3295"
       id="radialGradient3316"
       gradientUnits="userSpaceOnUse"
       gradientTransform="matrix(-0.6264123,0,0,-0.409953,-664.80583,832.75564)"
       cx="-397.70615"
       cy="566.98389"
       fx="-397.70615"
       fy="566.98389"
       r="55.417976" />
    <linearGradient
       id="linearGradient3372">
      <stop
         style="stop-color:#2000ff;stop-opacity:1;"
         offset="0"
         id="stop3374" />
      <stop
         id="stop3380"
         offset="0.5"
         style="stop-color:#1f00ff;stop-opacity:1;" />
      <stop
         style="stop-color:#1f00ff;stop-opacity:1;"
         offset="0.75"
         id="stop3382" />
      <stop
         id="stop3384"
         offset="0.875"
         style="stop-color:#ff0016;stop-opacity:1;" />
      <stop
         style="stop-color:#ff0000;stop-opacity:1;"
         offset="1"
         id="stop3376" />
    </linearGradient>
    <marker
       inkscape:stockid="Arrow1Lend"
       orient="auto"
       refY="0.0"
       refX="0.0"
       id="Arrow1Lend"
       style="overflow:visible;">
      <path
         id="path17898"
         d="M 0.0,0.0 L 5.0,-5.0 L -12.5,0.0 L 5.0,5.0 L 0.0,0.0 z "
         style="fill-rule:evenodd;stroke:#000000;stroke-width:1.0pt;marker-start:none;"
         transform="scale(0.8) rotate(180) translate(12.5,0)" />
    </marker>
    <inkscape:perspective
       sodipodi:type="inkscape:persp3d"
       inkscape:vp_x="0 : 170.07874 : 1"
       inkscape:vp_y="0 : 1000 : 0"
       inkscape:vp_z="453.5433 : 170.07874 : 1"
       inkscape:persp3d-origin="226.77165 : 113.38582 : 1"
       id="perspective30041" />
    <radialGradient
       inkscape:collect="always"
       xlink:href="#linearGradient3295"
       id="radialGradient31204"
       gradientUnits="userSpaceOnUse"
       gradientTransform="matrix(-0.6264123,0,0,-0.409953,-664.80583,832.75564)"
       cx="-397.70615"
       cy="566.98389"
       fx="-397.70615"
       fy="566.98389"
       r="55.417976" />
    <radialGradient
       inkscape:collect="always"
       xlink:href="#linearGradient3295"
       id="radialGradient31206"
       gradientUnits="userSpaceOnUse"
       gradientTransform="matrix(1,0,0,0.6743401,0,184.64391)"
       cx="-397.70615"
       cy="566.98389"
       fx="-397.70615"
       fy="566.98389"
       r="55.417976" />
  </defs>
  <sodipodi:namedview
     id="base"
     pagecolor="#ffffff"
     bordercolor="#666666"
     borderopacity="1.0"
     gridtolerance="10000"
     guidetolerance="8.8"
     objecttolerance="10"
     inkscape:pageopacity="0.0"
     inkscape:pageshadow="2"
     inkscape:zoom="1.540463"
     inkscape:cx="230.38387"
     inkscape:cy="74.538336"
     inkscape:document-units="mm"
     inkscape:current-layer="layer1"
     inkscape:window-width="1240"
     inkscape:window-height="1167"
     inkscape:window-x="0"
     inkscape:window-y="25"
     width="12.8cm"
     height="9.6cm"
     units="cm"
     showgrid="true"
     grid_units="mm"
     inkscape:object-paths="false"
     inkscape:grid-points="true"
     inkscape:grid-bbox="true"
     inkscape:guide-points="true"
     showguides="true"
     inkscape:guide-bbox="true">
    <sodipodi:guide
       orientation="vertical"
       position="56.476527"
       id="guide3573" />
    <sodipodi:guide
       orientation="horizontal"
       position="11.035643"
       id="guide3579" />
    <sodipodi:guide
       orientation="horizontal"
       position="24.018753"
       id="guide3886" />
    <sodipodi:guide
       orientation="horizontal"
       position="285.62841"
       id="guide3988" />
    <sodipodi:guide
       orientation="horizontal"
       position="303.15561"
       id="guide4081" />
    <inkscape:grid
       id="GridFromPre046Settings"
       type="xygrid"
       originx="0px"
       originy="0px"
       spacingx="2mm"
       spacingy="2mm"
       color="#0000ff"
       empcolor="#0000ff"
       opacity="0.2"
       empopacity="0.4"
       empspacing="5" />
  </sodipodi:namedview>
  <metadata
     id="metadata7">
    <rdf:RDF>
      <cc:Work
         rdf:about="">
        <dc:format>image/svg+xml</dc:format>
        <dc:type
           rdf:resource="http://purl.org/dc/dcmitype/StillImage" />
      </cc:Work>
    </rdf:RDF>
  </metadata>
  <g
     inkscape:label="Layer 1"
     inkscape:groupmode="layer"
     id="layer1"
     transform="translate(4.149475e-6,-698.0315)">
    <text
       xml:space="preserve"
       style="font-size:24px;font-style:normal;font-weight:bold;fill:#000000;fill-opacity:1;stroke:none;stroke-width:1px;stroke-linecap:butt;stroke-linejoin:miter;stroke-opacity:1;font-family:Bitstream Vera Sans;-inkscape-font-specification:Sans Bold"
       x="106.73649"
       y="719.29132"
       id="text17301"><tspan
         sodipodi:role="line"
         id="tspan17303"
         x="106.73649"
         y="719.29132">Process Recovery</tspan></text>
    <path
       style="fill:#00ffff;fill-rule:evenodd;stroke:#000000;stroke-width:0.80473608px;stroke-linecap:butt;stroke-linejoin:miter;stroke-opacity:1"
       d="M 226.53556,868.1362 L 117.81813,935.93326 L 171.53029,935.93326 L 63.770729,1038.1978 L 411.1157,1038.1978 L 285.42017,935.93326 L 353.38053,935.93326 L 226.53556,868.1362 z"
       id="path31200" />
    <g
       id="g4232"
       transform="matrix(0.370005,0,0,0.370005,-209.98978,1206.5453)"
       inkscape:export-filename="/home/abez/clip-art-so-far.png"
       inkscape:export-xdpi="33.007736"
       inkscape:export-ydpi="33.007736">
      <g
         transform="translate(1578.1704,-1768.4792)"
         style="fill:#0000ff"
         id="g4067">
        <g
           style="fill:#0000ff"
           id="g4069"
           transform="translate(0,-80.012817)">
          <path
             id="path4071"
             d="M -520,692.375 L -520,852.375 C -520,879.975 -470.72,902.375 -410,902.375 C -349.28,902.375 -300,879.975 -300,852.375 L -300,692.375 L -520,692.375 z"
             style="fill:#0000ff;fill-opacity:1;stroke:#ffffff;stroke-width:10;stroke-miterlimit:4;stroke-dasharray:none;stroke-dashoffset:0;stroke-opacity:1" />
          <path
             transform="translate(0,70)"
             d="M -300,622.36218 A 110,50 0 1 1 -520,622.36218 A 110,50 0 1 1 -300,622.36218 z"
             sodipodi:ry="50"
             sodipodi:rx="110"
             sodipodi:cy="622.36218"
             sodipodi:cx="-410"
             id="path4073"
             style="fill:#0000ff;fill-opacity:1;stroke:#ffffff;stroke-width:10;stroke-miterlimit:4;stroke-dasharray:none;stroke-dashoffset:0;stroke-opacity:1"
             sodipodi:type="arc" />
        </g>
      </g>
      <g
         transform="matrix(0.3661515,0.9305553,-0.9305553,0.3661515,903.82055,-1480.5672)"
         id="g4075">
        <g
           id="g4077">
          <rect
             y="-227.63782"
             x="480"
             height="280"
             width="20"
             id="rect4079"
             style="fill:#ff6600;fill-opacity:1;stroke:#000000;stroke-width:2;stroke-miterlimit:4;stroke-dasharray:none;stroke-dashoffset:0;stroke-opacity:1" />
        </g>
        <path
           style="fill:#b3b3b3;fill-rule:evenodd;stroke:#000000;stroke-width:1px;stroke-linecap:butt;stroke-linejoin:miter;stroke-opacity:1"
           d="M 360,-107.63782 C 360,-107.63782 360,-207.63782 580,-207.63782 C 800,-207.63782 600,-207.63782 600,-207.63782 L 600,-167.63782 C 600,-167.63782 425.71429,-201.92353 360,-107.63782 z"
           id="path4081" />
      </g>
      <path
         style="fill:#ff0000;fill-rule:evenodd;stroke:#000000;stroke-width:0.71735239px;stroke-linecap:butt;stroke-linejoin:miter;stroke-opacity:1"
         d="M 1176.657,-1090.1201 C 1169.2146,-1090.1201 1161.9928,-1089.1107 1155.1365,-1087.2507 L 1155.1365,-1069.2721 C 1152.9009,-1068.4846 1150.7066,-1067.6001 1148.5906,-1066.582 L 1135.9024,-1079.2926 C 1123.2509,-1072.0357 1112.7242,-1061.4966 1105.4598,-1048.85 L 1118.1704,-1036.117 C 1117.1524,-1033.9994 1116.245,-1031.8308 1115.4579,-1029.5935 L 1097.4793,-1029.5935 C 1095.6151,-1022.7302 1094.6099,-1015.524 1094.6099,-1008.073 C 1094.6099,-1000.626 1095.617,-993.41251 1097.4793,-986.55243 L 1115.4579,-986.55243 C 1116.2451,-984.31493 1117.1523,-982.14679 1118.1704,-980.029 L 1105.4598,-967.31842 C 1112.7213,-954.66987 1123.2304,-944.11322 1135.88,-936.85336 L 1148.5906,-949.58636 C 1150.7067,-948.56827 1152.9008,-947.66142 1155.1365,-946.87387 L 1155.1365,-928.87281 C 1161.9919,-927.01334 1169.2157,-926.02582 1176.657,-926.02582 C 1184.108,-926.02582 1191.3142,-927.03109 1198.1776,-928.89523 L 1198.1776,-946.85145 C 1200.4163,-947.63897 1202.6046,-948.56772 1204.7234,-949.58636 L 1217.434,-936.87577 C 1230.075,-944.13696 1240.5977,-954.67448 1247.8543,-967.31842 L 1235.1661,-980.00659 C 1236.1878,-982.13009 1237.0891,-984.30852 1237.8786,-986.55243 L 1255.8124,-986.55243 C 1257.6746,-993.41252 1258.6818,-1000.626 1258.6818,-1008.073 C 1258.6818,-1015.524 1257.6765,-1022.7302 1255.8124,-1029.5935 L 1237.8786,-1029.5935 C 1237.0892,-1031.8373 1236.1876,-1034.0161 1235.1661,-1036.1394 L 1247.8543,-1048.8275 C 1240.5926,-1061.4803 1230.0644,-1072.0309 1217.4116,-1079.2926 L 1204.7234,-1066.582 C 1202.6047,-1067.6006 1200.4161,-1068.5071 1198.1776,-1069.2945 L 1198.1776,-1087.2507 C 1191.315,-1089.1144 1184.107,-1090.1201 1176.657,-1090.1201 z M 1176.657,-1031.6559 C 1189.6678,-1031.6559 1200.2176,-1021.0837 1200.2176,-1008.073 C 1200.2176,-995.06228 1189.6678,-984.51246 1176.657,-984.51246 C 1163.6463,-984.51246 1153.0741,-995.06228 1153.0741,-1008.073 C 1153.0741,-1021.0837 1163.6463,-1031.6559 1176.657,-1031.6559 z"
         id="path4083" />
      <g
         inkscape:transform-center-y="35.318361"
         inkscape:transform-center-x="-183.17828"
         id="g4111"
         transform="matrix(1.5166232,-0.6988298,0.6988298,1.5166232,2153.2083,-353.57144)">
        <path
           id="path4113"
           d="M -352.5,-722.625 C -400.8,-722.625 -440,-709.185 -440,-692.625 L -265,-692.625 C -265,-709.185 -304.2,-722.625 -352.5,-722.625 z"
           style="fill:#ffff00;fill-opacity:1;stroke:#000000;stroke-width:4;stroke-miterlimit:4;stroke-dasharray:none;stroke-dashoffset:0;stroke-opacity:1" />
        <path
           sodipodi:nodetypes="ccccc"
           id="path4115"
           d="M -352.5,-765.13782 C -381.48,-765.13782 -405,-743.85782 -405,-717.63782 L -351.78892,-717.63782 L -300,-717.63782 C -300,-743.85782 -323.52,-765.13782 -352.5,-765.13782 z"
           style="fill:#ffff00;fill-opacity:1;stroke:#000000;stroke-width:4;stroke-miterlimit:4;stroke-dasharray:none;stroke-dashoffset:0;stroke-opacity:1" />
        <path
           id="path4117"
           d="M -352.86596,-723.5059 C -381.64395,-723.5059 -405,-709.677 -405,-692.63782 L -300.73192,-692.63782 C -300.73192,-709.677 -324.08797,-723.5059 -352.86596,-723.5059 z"
           style="fill:#ffff00;fill-opacity:1;stroke:#000000;stroke-width:3.13192129;stroke-miterlimit:4;stroke-dasharray:none;stroke-dashoffset:0;stroke-opacity:1" />
        <path
           sodipodi:nodetypes="ccccc"
           id="path4119"
           d="M -354.62529,-766.10268 C -370.97845,-766.10268 -384.25058,-744.39042 -384.25058,-717.63782 L -354.22404,-717.63782 L -325,-717.63782 C -325,-744.39042 -338.27213,-766.10268 -354.62529,-766.10268 z"
           style="fill:#ffff00;fill-opacity:1;stroke:#000000;stroke-width:3.03513718;stroke-miterlimit:4;stroke-dasharray:none;stroke-dashoffset:0;stroke-opacity:1" />
        <path
           id="path4121"
           d="M -355,-717.63782 L -355,-767.63782"
           style="fill:none;fill-rule:evenodd;stroke:#000000;stroke-width:1px;stroke-linecap:butt;stroke-linejoin:miter;stroke-opacity:1" />
        <path
           d="M -350,-767.63782 A 5,5 0 1 1 -360,-767.63782 A 5,5 0 1 1 -350,-767.63782 z"
           sodipodi:ry="5"
           sodipodi:rx="5"
           sodipodi:cy="-767.63782"
           sodipodi:cx="-355"
           id="path4123"
           style="fill:#ffff00;fill-opacity:1;stroke:#000000;stroke-width:4;stroke-miterlimit:4;stroke-dasharray:none;stroke-dashoffset:0;stroke-opacity:1"
           sodipodi:type="arc" />
      </g>
    </g>
    <g
       id="g30996"
       transform="translate(-185.20616,170.07874)">
      <g
         transform="matrix(5.3510682e-2,0,0,5.3510682e-2,426.06343,738.64661)"
         id="g29980">
        <g
           id="g29964"
           transform="translate(-880,1800)">
          <rect
             y="-307.63782"
             x="-1520"
             height="560"
             width="680"
             id="rect29954"
             style="fill:#ffffff;fill-opacity:1;stroke:#000000;stroke-width:10;stroke-miterlimit:4;stroke-dasharray:none;stroke-dashoffset:0;stroke-opacity:1" />
          <path
             sodipodi:nodetypes="cc"
             id="path29958"
             d="M -1520,-307.63782 C -1520,-307.63782 -1479.2245,249.53376 -840,252.36218"
             style="fill:none;fill-rule:evenodd;stroke:#ff007e;stroke-width:10;stroke-linecap:butt;stroke-linejoin:miter;stroke-miterlimit:4;stroke-dasharray:none;stroke-opacity:1" />
        </g>
      </g>
      <g
         transform="matrix(5.3510682e-2,0,0,5.3510682e-2,383.25489,733.70043)"
         id="g29972">
        <rect
           style="fill:#ffffff;fill-opacity:1;stroke:#000000;stroke-width:10;stroke-miterlimit:4;stroke-dasharray:none;stroke-dashoffset:0;stroke-opacity:1"
           id="rect29960"
           width="680"
           height="560"
           x="-1600.0001"
           y="892.36218" />
        <path
           style="fill:none;fill-rule:evenodd;stroke:#9c1d30;stroke-width:10;stroke-linecap:butt;stroke-linejoin:miter;stroke-miterlimit:4;stroke-dasharray:none;stroke-opacity:1"
           d="M -1600,1412.3622 C -1240.7898,1432.1612 -1360,1292.3622 -1280,1092.3622 C -1229.3233,965.67045 -1148.1593,1451.3526 -920,1452.3622"
           id="path29962"
           sodipodi:nodetypes="csc" />
      </g>
      <g
         transform="matrix(5.3510682e-2,0,0,5.3510682e-2,467.62891,733.70043)"
         id="g29976">
        <rect
           style="fill:#ffffff;fill-opacity:1;stroke:#000000;stroke-width:10;stroke-miterlimit:4;stroke-dasharray:none;stroke-dashoffset:0;stroke-opacity:1"
           id="rect29968"
           width="680"
           height="560"
           x="-2400"
           y="892.36218" />
        <path
           style="fill:none;fill-rule:evenodd;stroke:#d40000;stroke-width:10;stroke-linecap:butt;stroke-linejoin:miter;stroke-miterlimit:4;stroke-dasharray:none;stroke-opacity:1"
           d="M -2400,1452.3622 C -2040,1452.3622 -2255.4066,1092.3622 -2040,1092.3622 C -1840.0001,1092.3622 -2080,1452.3622 -1719.9999,1452.3622"
           id="path29970"
           sodipodi:nodetypes="csc" />
      </g>
      <g
         transform="matrix(5.3510682e-2,0,0,5.3510682e-2,468.58311,770.75302)"
         id="g29985">
        <rect
           style="fill:#ffffff;fill-opacity:1;stroke:#000000;stroke-width:10;stroke-miterlimit:4;stroke-dasharray:none;stroke-dashoffset:0;stroke-opacity:1"
           id="rect29987"
           width="680"
           height="560"
           x="-2400"
           y="892.36218" />
        <path
           style="fill:none;fill-rule:evenodd;stroke:#aa4400;stroke-width:10;stroke-linecap:butt;stroke-linejoin:miter;stroke-miterlimit:4;stroke-dasharray:none;stroke-opacity:1"
           d="M -1719.9999,892.3622 C -2079.9999,892.3622 -2020.8232,925.2436 -2079.9999,1132.3622 C -2159.9999,1412.3622 -2039.9998,1452.3622 -2399.9999,1452.3622"
           id="path29989"
           sodipodi:nodetypes="csc" />
      </g>
    </g>
    <g
       id="g31038"
       transform="matrix(0.7302548,0,0,0.7302548,-98.866827,208.60445)">
      <g
         inkscape:export-ydpi="33.007736"
         inkscape:export-xdpi="33.007736"
         inkscape:export-filename="/home/abez/clip-art-so-far.png"
         transform="matrix(0.4601003,0,0,0.4601003,418.98139,611.66503)"
         style="fill:#0000ff"
         id="g3443">
        <g
           style="fill:#0000ff"
           id="g3439"
           transform="translate(0,-80.012817)">
          <path
             id="rect3424"
             d="M -520,692.375 L -520,852.375 C -520,879.975 -470.72,902.375 -410,902.375 C -349.28,902.375 -300,879.975 -300,852.375 L -300,692.375 L -520,692.375 z"
             style="fill:#0000ff;fill-opacity:1;stroke:#ffffff;stroke-width:10;stroke-miterlimit:4;stroke-dasharray:none;stroke-dashoffset:0;stroke-opacity:1" />
          <path
             transform="translate(0,70)"
             d="M -300,622.36218 A 110,50 0 1 1 -520,622.36218 A 110,50 0 1 1 -300,622.36218 z"
             sodipodi:ry="50"
             sodipodi:rx="110"
             sodipodi:cy="622.36218"
             sodipodi:cx="-410"
             id="path3422"
             style="fill:#0000ff;fill-opacity:1;stroke:#ffffff;stroke-width:10;stroke-miterlimit:4;stroke-dasharray:none;stroke-dashoffset:0;stroke-opacity:1"
             sodipodi:type="arc" />
        </g>
      </g>
      <g
         transform="matrix(0.1250385,0,0,0.1250385,336.85233,875.58891)"
         id="g17205">
        <path
           style="fill:#edf128;fill-opacity:1;fill-rule:evenodd;stroke:#000000;stroke-width:1px;stroke-linecap:butt;stroke-linejoin:miter;stroke-opacity:1"
           d="M -460,458.07647 C -475.35668,458.07647 -429.18388,460.06621 -414.28571,463.79075 C -404.67595,466.1932 -385.63167,481.01623 -380,486.6479 C -368.29359,498.3543 -358.93981,504.85094 -348.57143,515.21933 C -338.02016,525.77059 -337.48672,543.10303 -331.42857,555.21933 C -325.52905,567.01836 -325.71429,584.9489 -325.71429,598.07647 C -325.71429,615.28201 -331.70156,624.33672 -337.14286,635.21933 C -342.76991,646.47343 -355.08196,643.79075 -371.42857,643.79075 C -385.79465,643.79075 -401.66073,631.83092 -408.57143,626.6479 C -421.80724,616.72104 -434.28219,608.07735 -451.42857,603.79075 C -465.42787,600.29093 -474.81883,593.5242 -488.57143,586.6479 C -494.34392,583.76165 -491.42857,547.90163 -491.42857,540.93361 C -491.42857,521.66004 -480.62312,504.0492 -477.14286,486.6479 C -474.94433,475.65525 -470.08846,470.68704 -460,458.07647 z"
           id="path1337" />
        <path
           style="fill:#ffe9fa;fill-opacity:1;fill-rule:evenodd;stroke:#000000;stroke-width:1px;stroke-linecap:butt;stroke-linejoin:miter;stroke-opacity:1"
           d="M -662.85714,612.36218 C -662.80489,616.31254 -663.61658,626.73819 -667.14286,633.79075 C -670.18712,639.87928 -671.42857,647.87799 -671.42857,655.21933 C -671.42857,663.06719 -673.38651,668.81613 -671.42857,676.6479 C -669.13768,685.81145 -665.8699,692.05095 -661.42857,700.93361 C -655.89906,711.99264 -645.12429,718.16182 -635.71429,725.21933 C -622.04773,735.46924 -604.34373,747.33318 -588.57143,755.21933 C -559.8035,769.60329 -518.97163,773.79075 -487.14286,773.79075 C -469.0216,773.79075 -462.9208,775.23206 -448.57143,772.36218 C -442.10706,771.06931 -434.55099,767.20399 -430,763.79075 C -422.20748,757.94636 -410.71492,754.8625 -402.85714,750.93361 C -395.39359,747.20183 -388.54629,739.48618 -382.85714,735.21933 C -377.64156,731.30764 -373.57963,725.23572 -371.42857,720.93361 C -367.42108,712.91863 -366.37673,706.44053 -364.28571,698.07647 C -362.61851,691.40765 -362.85714,684.18998 -362.85714,678.07647 C -362.85714,670.62218 -363.09783,663.32492 -361.42857,656.6479 C -359.52947,649.05148 -362.65394,640.31786 -364.28571,633.79075 C -366.58645,624.5878 -369.08577,618.87625 -371.42857,609.50504 C -373.46453,601.36122 -376.00455,593.06509 -378.57143,586.6479 C -382.65028,576.45076 -386.53407,566.50724 -392.85714,558.07647 C -397.25587,552.21149 -410.88032,549.6421 -417.14286,548.07647 C -437.00921,543.10988 -455.217,542.36218 -475.71429,542.36218 C -492.47892,542.36218 -505.71127,547.36143 -520,550.93361 C -532.49744,554.05797 -543.87501,560.72826 -555.71429,566.6479 C -565.04975,571.31563 -576.27924,574.76089 -585.71429,576.6479 C -608.27615,581.16027 -631.28601,592.04796 -654.28571,596.6479 C -662.14965,598.22068 -669.75743,606.40533 -671.42857,608.07647 C -673.68734,610.33524 -665.95615,611.58743 -662.85714,612.36218 z"
           id="path2224" />
        <path
           style="fill:#fffcfc;fill-opacity:1;fill-rule:evenodd;stroke:#000000;stroke-width:1px;stroke-linecap:butt;stroke-linejoin:miter;stroke-opacity:1"
           d="M -702.85714,689.50504 C -702.95103,689.1295 -735.93411,720.27433 -742.85714,729.50504 C -753.77214,744.05838 -759.26246,762.96019 -762.85714,780.93361 C -765.93185,796.30715 -771.42857,807.55858 -771.42857,823.79075 C -771.42857,845.0292 -769.79585,844.60712 -754.28571,852.36218 C -744.11094,857.44957 -731.05138,857.45648 -717.14286,860.93361 C -703.94719,864.23253 -685.15296,860.93361 -671.42857,860.93361 C -657.14286,860.93361 -642.85714,860.93361 -628.57143,860.93361 C -614.43811,860.93361 -614.28571,847.25174 -614.28571,832.36218 C -614.28571,819.99709 -624.53231,811.86899 -628.57143,803.79075 C -632.02423,796.88516 -664.46102,800.93361 -671.42857,800.93361 C -687.73198,800.93361 -698.32871,797.78 -708.57143,795.21933 C -725.69405,790.93867 -705.56366,769.42973 -700,766.6479 C -685.83501,759.5654 -675.43066,759.64946 -665.71429,752.36218 C -651.4019,741.62789 -644.20457,727.15932 -637.14286,709.50504 C -632.48247,697.85406 -661.77952,685.75814 -665.71429,683.79075 C -678.10377,677.59601 -691.80003,682.87077 -702.85714,689.50504 z"
           id="path1347" />
        <path
           style="fill:#fffffc;fill-opacity:1;fill-rule:evenodd;stroke:#000000;stroke-width:1px;stroke-linecap:butt;stroke-linejoin:miter;stroke-opacity:1"
           d="M -370,705.21933 C -376.78266,710.30632 -355.99509,714.93853 -350,720.93361 C -332.54068,738.39293 -325.62831,756.73387 -308.57143,773.79075 C -302.00733,780.35485 -297.8071,792.56235 -295.71429,800.93361 C -293.37568,810.28804 -290,818.46824 -290,828.07647 C -290,838.07647 -290,848.07647 -290,858.07647 C -290,867.18879 -293.47447,877.68864 -295.71429,886.6479 C -297.68023,894.51167 -305.26204,902.85034 -312.85714,906.6479 C -321.27823,910.85844 -323.90885,915.21933 -334.28571,915.21933 C -342.14304,915.21933 -349.29965,917.18013 -357.14286,915.21933 C -364.58085,913.35983 -371.46584,906.12202 -374.28571,902.36218 C -380.23105,894.43506 -385.10612,886.03021 -390,879.50504 C -394.4482,873.57411 -396.54807,866.40889 -400,859.50504 C -403.85556,851.79391 -403.47388,845.83606 -398.57143,840.93361 C -391.74173,834.10391 -380.47021,825.68954 -375.71429,820.93361 C -369.41177,814.6311 -363.05459,810.31805 -355.71429,806.6479 C -349.16067,803.37109 -340.14078,803.72036 -334.28571,806.6479 C -329.60179,808.98986 -328.57143,823.11686 -328.57143,828.07647 C -328.57143,835.21933 -328.57143,842.36218 -328.57143,849.50504 C -328.57143,856.78935 -326.05242,835.14329 -324.28571,828.07647 C -322.48082,820.8569 -322.85714,813.00798 -322.85714,805.21933 C -322.85714,797.40349 -329.19358,791.74003 -334.28571,786.6479 C -339.21174,781.72187 -346.88596,783.6623 -352.85714,786.6479 C -359.95168,790.19516 -364.43172,793.14947 -371.42857,796.6479 C -384.55531,803.21127 -400.58908,810.93361 -414.28571,810.93361 C -433.88887,810.93361 -442.88644,806.53072 -447.14286,789.50504"
           id="path3117" />
        <path
           style="fill:#edf1f1;fill-opacity:1;fill-rule:evenodd;stroke:#000000;stroke-width:1.04719651px;stroke-linecap:butt;stroke-linejoin:miter;stroke-opacity:1"
           d="M -682.85714,673.83907 C -694.19378,673.83907 -705.71429,705.94309 -705.71429,720.83708 C -705.71429,737.76063 -708.88763,753.91528 -708.57143,755.30229 C -705.16096,770.26227 -682.67796,742.62212 -671.42857,733.36989 C -659.50288,723.56142 -691.42857,760.88725 -691.42857,777.2347 C -691.42857,803.17367 -680.79335,822.83953 -668.57143,796.03391 C -656.06924,768.6136 -665.71429,794.34705 -665.71429,811.69991 C -665.71429,830.51941 -650.79693,846.85781 -640,858.69793 C -631.86285,867.62129 -632.61888,834.32835 -625.71429,824.23272 C -617.21939,811.81181 -619.92347,855.67663 -611.42857,868.09753 C -605.53384,876.71657 -586.28762,883.44918 -580,886.89674 C -562.21859,896.64648 -594.81472,834.94763 -565.71429,877.49714 C -553.81724,894.89253 -537.84677,910.20277 -520,915.09556 C -496.01306,921.67169 -508.9042,888.57025 -511.42857,877.49714 C -515.92035,857.79405 -494.5951,874.02466 -482.85714,886.89674 C -470.59138,900.34763 -446.56505,903.83003 -457.14286,880.63034 C -464.07335,865.43011 -486.24677,844.30656 -460,858.69793 C -443.91952,867.51503 -429.28052,883.78632 -434.28571,861.83114 C -439.16841,840.41326 -447.96329,838.56494 -440,821.09952 C -433.73167,807.35155 -426.88159,860.6851 -420,830.49912 C -418.09524,822.14392 -416.19048,813.78871 -414.28571,805.43352 C -408.79042,781.3285 -404.63756,790.94827 -397.14286,799.16711 C -389.46452,807.58733 -393.42764,775.35274 -388.57143,764.7019 C -384.12472,754.94919 -380,744.27375 -380,733.36989 C -380,718.56453 -381.87769,730.28122 -385.71429,723.97028"
           id="path1329" />
        <path
           style="fill:#edf1f1;fill-opacity:1;fill-rule:evenodd;stroke:#000000;stroke-width:1px;stroke-linecap:butt;stroke-linejoin:miter;stroke-opacity:1"
           d="M -588.57143,655.21933 C -587.32913,653.97702 -627.757,642.81078 -637.14286,640.93361 C -653.18398,637.72539 -670.97996,638.07647 -688.57143,638.07647 C -703.41255,638.07647 -718.22407,637.63249 -731.42857,640.93361 C -746.64007,644.73649 -756.02945,647.51976 -765.71429,652.36218 C -785.63842,662.32425 -720.17996,662.31719 -702.85714,666.6479 C -691.28014,669.54215 -725.8476,675.35264 -734.28571,683.79075 C -734.30322,683.80826 -634.16828,670.0295 -697.14286,695.21933 C -724.94177,706.33889 -662.25491,699.35448 -657.14286,698.07647 C -642.80826,694.49282 -623.34129,698.07647 -608.57143,698.07647 C -592.72357,698.07647 -581.68947,700.93361 -568.57143,700.93361 C -566.66667,700.93361 -564.7619,700.93361 -562.85714,700.93361"
           id="path1323" />
        <path
           style="fill:#edf1f1;fill-opacity:1;fill-rule:evenodd;stroke:#000000;stroke-width:1px;stroke-linecap:butt;stroke-linejoin:miter;stroke-opacity:1"
           d="M -508.57143,700.93361 C -513.12133,682.734 -474.56083,716.82357 -457.14286,723.79075 C -444.49258,728.85086 -435.73631,733.06546 -425.71429,738.07647 C -413.51451,744.17636 -401.14773,746.6479 -385.71429,746.6479 C -357.41225,746.6479 -376.62265,734.05086 -380,732.36218 C -393.86688,725.42874 -348.15259,730.72419 -334.28571,723.79075 C -321.25514,717.27547 -362.57423,715.21933 -377.14286,715.21933 C -389.18963,715.21933 -353.6321,709.17823 -342.85714,703.79075 C -338.55504,701.6397 -371.51087,696.62732 -377.14286,695.21933 C -388.7762,692.31099 -393.35197,684.73848 -408.57143,680.93361 C -422.50165,677.45106 -436.63048,678.07647 -451.42857,678.07647 C -460,678.07647 -468.57143,678.07647 -477.14286,678.07647"
           id="path1327" />
        <path
           style="fill:#ffe9fa;fill-opacity:1;fill-rule:evenodd;stroke:#000000;stroke-width:1px;stroke-linecap:butt;stroke-linejoin:miter;stroke-opacity:1"
           d="M -537.14286,632.36218 C -537.14286,626.24336 -567.13553,641.64423 -577.14286,646.6479 C -591.94416,654.04855 -600,666.64147 -600,680.93361 C -600,691.96764 -580.24495,698.72952 -571.42857,700.93361 C -556.63856,704.63111 -541.42502,703.79075 -525.71429,703.79075 C -508.54937,703.79075 -496.05603,694.1325 -485.71429,683.79075 C -476.23834,674.3148 -487.06116,686.48449 -482.85714,678.07647"
           id="path1321" />
        <path
           style="fill:#ed1d28;fill-opacity:1;fill-rule:evenodd;stroke:#000000;stroke-width:1px;stroke-linecap:butt;stroke-linejoin:miter;stroke-opacity:1"
           d="M -331.42857,572.36218 C -330.81457,569.29216 -390.56614,528.79516 -400,520.93361 C -410.84598,511.89529 -431.02042,506.85197 -442.85714,500.93361 C -455.72937,494.4975 -472.89685,491.99511 -482.85714,489.50504 C -500.41922,485.11452 -502.85714,507.84009 -502.85714,520.93361 C -502.85714,536.79421 -481.38536,540.58727 -468.57143,543.79075 C -448.56445,548.7925 -431.84339,553.58334 -417.14286,560.93361 C -405.36231,566.82389 -399.89785,569.60719 -388.57143,580.93361 C -378.18622,591.31882 -367.87173,595.91902 -360,603.79075 C -349.27386,614.5169 -338.04315,611.15868 -331.42857,609.50504 C -323.5161,607.52692 -329.88381,576.22409 -331.42857,572.36218 z"
           id="path1339" />
        <path
           style="fill:#ddb9b9;fill-opacity:1;fill-rule:evenodd;stroke:#000000;stroke-width:1px;stroke-linecap:butt;stroke-linejoin:miter;stroke-opacity:1"
           d="M -499.59386,872.99025 C -498.08792,871.82394 -496.10618,871.45777 -494.36233,870.69153 C -450.09636,851.24112 -392.34226,799.86348 -361.03775,762.1762 C -343.83439,741.46519 -307.662,713.12667 -286.21113,698.08955 C -270.8527,687.32326 -260.24284,672.71891 -246.02353,661.70641 C -236.69186,654.47928 -227.41891,648.1741 -215.46667,638.91739 C -203.85482,629.92431 -199.01981,612.42597 -187.32732,639.03619 C -179.36893,657.14819 -199.23527,662.43816 -213.28673,672.28827 C -227.59481,682.31826 -240.23243,692.28054 -253.15729,702.29051 C -270.04039,715.36604 -285.71144,732.76174 -302.65858,745.88687 C -320.88725,760.0045 -337.77669,771.87333 -357.07437,785.40105 C -370.21089,794.60978 -375.70143,811.22146 -388.26531,820.95186 C -399.24211,829.45311 -405.97698,837.29853 -417.67281,846.35665 C -430.30927,856.14326 -442.19641,865.34954 -454.9276,875.20952 C -467.45192,884.90928 -477.7378,891.75572 -490.39895,893.91638 C -497.90943,895.19806 -496.52889,879.96563 -499.59386,872.99025 z"
           id="path1341" />
        <path
           style="fill:#000000;fill-opacity:1;fill-rule:evenodd;stroke:#000000;stroke-width:1px;stroke-linecap:butt;stroke-linejoin:miter;stroke-opacity:1"
           d="M -180.82764,611.21388 C -196.11034,613.82191 -197.57169,585.06716 -207.06475,572.80973 C -216.2204,560.98795 -235.18005,549.45607 -246.38069,540.15238 C -258.77371,529.85826 -273.88992,527.27026 -288.94647,521.4062 C -301.74275,516.42243 -312.63241,514.34938 -321.68327,510.82434 C -330.05545,507.56364 -339.38254,507.38629 -348.35621,506.94043 C -360.53761,506.33518 -325.31842,516.11014 -315.93645,523.90318 C -302.88972,534.74029 -290.21007,543.61144 -277.76987,553.94474 C -266.88867,562.98309 -259.55025,575.72291 -248.59996,584.81864 C -238.58218,593.1398 -231.4991,610.29437 -223.51221,620.60703 C -215.36087,631.13205 -211.28502,643.18502 -202.18959,654.92902 C -194.58473,664.74841 -190.04379,684.90826 -188.71427,692.6991 C -185.9213,709.06554 -181.67889,721.56743 -179.32112,735.38368 C -177.32069,747.10588 -183.86726,764.89132 -186.45488,775.96777 C -189.52096,789.09238 -196.52786,807.43398 -181.02509,795.42749 C -167.78855,785.17613 -161.91223,768.62084 -157.36441,756.94388 C -151.05318,740.73917 -150.76083,727.03058 -149.91361,709.9789 C -149.03776,692.35092 -154.24747,679.85614 -157.84037,663.52919 C -160.53692,651.27549 -165.70821,638.52083 -171.31569,625.75911 C -173.64612,620.45541 -177.65699,616.06229 -180.82764,611.21388 z"
           id="path1343" />
        <path
           style="fill:#ffe6fa;fill-opacity:1;fill-rule:evenodd;stroke:#000000;stroke-width:1px;stroke-linecap:butt;stroke-linejoin:miter;stroke-opacity:1"
           d="M -627.14286,819.50504 C -627.14286,817.72041 -597.94382,800.46291 -592.85714,796.6479 C -579.19949,786.40466 -577.24646,788.49089 -581.42857,805.21933 C -586.06549,823.76701 -571.66557,815.45632 -564.28571,808.07647 C -554.06931,797.86006 -532.11336,799.50504 -518.57143,799.50504 C -492.84937,799.50504 -521.88931,814.62022 -530,816.6479 C -550.71373,821.82633 -528.02852,817.33342 -532.85714,836.6479 C -534.57575,843.52232 -523.38388,844.31749 -535.71429,856.6479 C -541.40549,862.3391 -543.10849,868.07647 -564.28571,868.07647 C -576.61443,868.07647 -591.01841,865.67901 -604.28571,862.36218 C -618.72861,858.75146 -621.3088,848.55557 -624.28571,836.6479 C -625.69075,831.02776 -626.19048,825.21933 -627.14286,819.50504 z"
           id="path1345" />
        <path
           style="fill:#edf128;fill-opacity:1;fill-rule:evenodd;stroke:#000000;stroke-width:1px;stroke-linecap:butt;stroke-linejoin:miter;stroke-opacity:1"
           d="M -774.28571,643.79075 C -768.81574,638.32078 -720.00377,624.93512 -702.85714,618.07647 C -682.95103,610.11402 -668.60375,583.82308 -654.28571,569.50504 C -641.47967,556.69899 -625.6934,540.89184 -617.14286,523.79075 C -610.1717,509.84845 -595.98064,497.47923 -585.71429,483.79075 C -577.53646,472.88699 -571.50049,461.0295 -562.85714,449.50504 C -554.39066,438.21639 -544.35841,430.25567 -531.42857,423.79075 C -515.61674,415.88484 -509.8044,413.38471 -494.28571,409.50504 C -481.82669,406.39028 -464.34703,409.50504 -451.42857,409.50504 C -438.94839,409.50504 -426.68074,420.45039 -414.28571,426.6479 C -398.97459,434.30346 -394.84836,456.95117 -388.57143,469.50504 C -383.82182,479.00426 -382.85714,501.44925 -382.85714,512.36218 C -382.85714,524.82263 -377.14286,537.07827 -377.14286,552.36218 C -377.14286,567.00997 -371.42857,579.43306 -371.42857,592.36218 C -371.42857,604.26458 -366.20704,621.81973 -362.85714,635.21933 C -358.35334,653.23452 -356.17561,662.86811 -348.57143,678.07647 C -341.6936,691.83213 -334.52611,700.75331 -322.85714,709.50504 C -305.5365,722.49552 -315.49042,717.06101 -334.28571,712.36218 C -342.60939,710.28126 -349.92072,683.94931 -354.28571,675.21933 C -360.19332,663.40412 -366.6198,647.694 -371.42857,638.07647 C -378.20767,624.51828 -383.28698,608.93192 -391.42857,598.07647 C -403.29037,582.26074 -406.06322,580.75914 -422.85714,572.36218 C -433.33727,567.12212 -453.45986,566.6479 -465.71429,566.6479 C -479.73381,566.6479 -496.34335,563.79075 -511.42857,563.79075 C -526.19943,563.79075 -541.19518,563.37526 -554.28571,566.6479 C -569.41943,570.43132 -582.83696,572.35209 -594.28571,578.07647 C -608.22874,585.04798 -616.16229,591.38162 -625.71429,600.93361 C -635.14011,610.35943 -649.95626,614.48317 -662.85714,620.93361 C -676.03854,627.52431 -687.54315,629.50504 -702.85714,629.50504 C -719.88168,629.50504 -728.59694,635.21933 -745.71429,635.21933 C -754.43197,635.21933 -765.65552,642.06472 -774.28571,643.79075 z"
           id="path1333" />
        <path
           style="fill:#edf1f1;fill-opacity:1;fill-rule:evenodd;stroke:#000000;stroke-width:1px;stroke-linecap:butt;stroke-linejoin:miter;stroke-opacity:1"
           d="M -642.85714,569.50504 C -640.95238,569.50504 -639.04762,569.50504 -637.14286,569.50504 C -592.87382,569.50504 -540.73126,530.7508 -500,540.93361 C -479.80793,545.98163 -514.95027,573.57489 -517.14286,575.21933 C -527.63093,583.08538 -543.97415,583.79075 -557.14286,583.79075 C -569.28433,583.79075 -586.62767,574.99098 -597.14286,572.36218 C -614.63171,567.98997 -623.36958,565.60753 -642.85714,569.50504 z"
           id="path1313" />
        <path
           style="fill:#edf1f1;fill-opacity:1;fill-rule:evenodd;stroke:#000000;stroke-width:1px;stroke-linecap:butt;stroke-linejoin:miter;stroke-opacity:1"
           d="M -382.85714,612.36218 C -393.40001,609.72647 -411.19342,604.02591 -425.71429,589.50504 C -441.1642,574.05513 -445.78389,566.9959 -442.85714,552.36218 C -438.6069,531.11098 -399.0975,569.75599 -397.14286,572.36218 C -388.57522,583.7857 -382.85714,595.84344 -382.85714,612.36218 z"
           id="path1315" />
        <path
           style="fill:#ffe6fa;fill-opacity:1;fill-rule:evenodd;stroke:#000000;stroke-width:1px;stroke-linecap:butt;stroke-linejoin:miter;stroke-opacity:1"
           d="M -407.52678,848.14009 C -415.74229,847.11018 -421.74077,838.27483 -427.75944,830.50353 C -432.42009,824.4857 -432.80519,816.18909 -432.61453,812.3517 C -432.11334,802.26441 -420.1522,798.77634 -414.14566,801.1157 C -404.78498,804.7614 -408.27888,794.40248 -405.8228,788.09627 C -402.44559,779.42495 -392.22032,780.45647 -385.62987,780.78393 C -381.82977,780.97274 -378.95292,766.40339 -368.31036,766.93217 C -361.19699,767.28561 -353.8808,771.98309 -349.64324,777.45463 C -345.66767,782.58787 -343.04825,793.44399 -342.33089,797.64755 C -340.99271,805.48918 -348.55494,809.91799 -352.69484,813.12423 C -359.09274,818.07924 -366.68061,823.96239 -370.74755,828.85856 C -374.8209,833.76243 -383.00028,838.78621 -388.06706,842.71031 C -393.17555,846.6667 -401.64791,847.94309 -407.52678,848.14009 z"
           id="path3111" />
        <path
           style="fill:#000000;fill-opacity:1;fill-rule:evenodd;stroke:#000000;stroke-width:0.67379016px;stroke-linecap:butt;stroke-linejoin:miter;stroke-opacity:1"
           d="M -588.9446,593.21438 C -593.69683,596.64715 -593.18314,601.73264 -589.78691,609.62992 C -585.18003,620.34239 -574.63109,623.84812 -566.16371,621.13144 C -560.37632,619.27462 -557.83758,615.35964 -556.89232,609.83954 C -555.96117,604.40179 -560.3139,599.85358 -562.26726,605.69302 C -564.6586,612.84179 -568.78633,611.94733 -573.12609,611.62323 C -577.25719,611.3147 -578.70936,610.38599 -582.13537,605.70724 C -586.99368,599.07246 -584.99373,583.75415 -588.9446,593.21438 z"
           id="path3119" />
        <path
           style="fill:#000000;fill-opacity:1;fill-rule:evenodd;stroke:#000000;stroke-width:0.67379016px;stroke-linecap:butt;stroke-linejoin:miter;stroke-opacity:1"
           d="M -474.35155,612.32279 C -479.10378,615.75556 -478.59009,620.84105 -475.19386,628.73833 C -470.58698,639.4508 -460.03804,642.95653 -451.57066,640.23985 C -445.78327,638.38303 -443.24453,634.46805 -442.29927,628.94795 C -441.36812,623.5102 -445.72085,618.96199 -447.67421,624.80143 C -450.06555,631.9502 -454.19328,631.05574 -458.53304,630.73164 C -462.66414,630.42311 -464.11631,629.4944 -467.54232,624.81565 C -472.40063,618.18087 -470.40068,602.86256 -474.35155,612.32279 z"
           id="path3121" />
      </g>
    </g>
    <text
       xml:space="preserve"
       style="font-size:24px;font-style:normal;font-weight:bold;fill:#000000;fill-opacity:1;stroke:none;stroke-width:1px;stroke-linecap:butt;stroke-linejoin:miter;stroke-opacity:1;font-family:Bitstream Vera Sans;-inkscape-font-specification:Sans Bold"
       x="204.72392"
       y="297.92743"
       id="text31034"
       transform="translate(-4.149475e-6,698.0315)"><tspan
         sodipodi:role="line"
         id="tspan31036"></tspan></text>
    <g
       id="g3332"
       inkscape:export-filename="/home/abez/clip-art-so-far.png"
       inkscape:export-xdpi="33.007736"
       inkscape:export-ydpi="33.007736"
       transform="matrix(0.4438719,0,0,0.4438719,425.50357,906.85683)">
      <g
         transform="translate(40,0)"
         id="g3244">
        <rect
           style="fill:#666666;fill-opacity:1;stroke:#000000;stroke-width:2;stroke-miterlimit:4;stroke-dasharray:none;stroke-dashoffset:0;stroke-opacity:1"
           id="rect2450"
           width="220"
           height="100"
           x="-540"
           y="92.362183" />
        <rect
           style="fill:#ffff00;fill-opacity:1;stroke:#000000;stroke-width:2;stroke-miterlimit:4;stroke-dasharray:none;stroke-dashoffset:0;stroke-opacity:1"
           id="rect2452"
           width="20"
           height="20"
           x="-520"
           y="72.362183" />
        <rect
           style="fill:#ffff00;fill-opacity:1;stroke:#000000;stroke-width:2;stroke-miterlimit:4;stroke-dasharray:none;stroke-dashoffset:0;stroke-opacity:1"
           id="rect3226"
           width="20"
           height="20"
           x="-480"
           y="72.362183" />
        <rect
           style="fill:#ffff00;fill-opacity:1;stroke:#000000;stroke-width:2;stroke-miterlimit:4;stroke-dasharray:none;stroke-dashoffset:0;stroke-opacity:1"
           id="rect3228"
           width="20"
           height="20"
           x="-440"
           y="72.362183" />
        <rect
           style="fill:#ffff00;fill-opacity:1;stroke:#000000;stroke-width:2;stroke-miterlimit:4;stroke-dasharray:none;stroke-dashoffset:0;stroke-opacity:1"
           id="rect3230"
           width="20"
           height="20"
           x="-400"
           y="72.362183" />
        <rect
           style="fill:#ffff00;fill-opacity:1;stroke:#000000;stroke-width:2;stroke-miterlimit:4;stroke-dasharray:none;stroke-dashoffset:0;stroke-opacity:1"
           id="rect3232"
           width="20"
           height="20"
           x="-360"
           y="72.362183" />
        <rect
           y="192.36218"
           x="-520"
           height="20"
           width="20"
           id="rect3234"
           style="fill:#ffff00;fill-opacity:1;stroke:#000000;stroke-width:2;stroke-miterlimit:4;stroke-dasharray:none;stroke-dashoffset:0;stroke-opacity:1" />
        <rect
           y="192.36218"
           x="-480"
           height="20"
           width="20"
           id="rect3236"
           style="fill:#ffff00;fill-opacity:1;stroke:#000000;stroke-width:2;stroke-miterlimit:4;stroke-dasharray:none;stroke-dashoffset:0;stroke-opacity:1" />
        <rect
           y="192.36218"
           x="-440"
           height="20"
           width="20"
           id="rect3238"
           style="fill:#ffff00;fill-opacity:1;stroke:#000000;stroke-width:2;stroke-miterlimit:4;stroke-dasharray:none;stroke-dashoffset:0;stroke-opacity:1" />
        <rect
           y="192.36218"
           x="-400"
           height="20"
           width="20"
           id="rect3240"
           style="fill:#ffff00;fill-opacity:1;stroke:#000000;stroke-width:2;stroke-miterlimit:4;stroke-dasharray:none;stroke-dashoffset:0;stroke-opacity:1" />
        <rect
           y="192.36218"
           x="-360"
           height="20"
           width="20"
           id="rect3242"
           style="fill:#ffff00;fill-opacity:1;stroke:#000000;stroke-width:2;stroke-miterlimit:4;stroke-dasharray:none;stroke-dashoffset:0;stroke-opacity:1" />
      </g>
      <path
         id="path3320"
         d="M -472.89623,176.91322 C -472.89623,172.64559 -472.89623,159.4014 -472.89623,151.02899 C -472.89623,144.70681 -472.1205,138.43225 -472.1205,132.44545 C -472.1205,126.18291 -464.54066,116.54851 -461.2603,111.87081 C -457.28756,106.20583 -452.06066,101.6872 -444.96999,99.260551 C -435.37042,95.975269 -427.52624,104.47632 -422.47385,109.87972 C -419.14917,113.43538 -418.59521,122.56086 -418.59521,127.13587 C -418.59521,131.78198 -413.22806,132.57098 -409.28646,135.10024 C -403.43276,138.85648 -410.24023,139.7766 -413.94083,140.40983 C -419.73902,141.40199 -418.59521,143.45408 -418.59521,148.3742 C -418.59521,152.22476 -419.76366,156.75443 -424.02531,157.66598 C -428.09813,158.53713 -437.70703,156.33858 -442.64281,156.33858 C -448.33427,156.33858 -448.07291,162.35919 -448.07291,165.63035 C -448.07291,169.3135 -438.25686,168.28514 -435.66124,168.28514 C -429.86136,168.28514 -427.09578,167.97411 -422.47385,170.93994 C -419.12749,173.08725 -423.31641,178.96149 -424.80104,180.2317 C -428.02902,182.9935 -441.74352,178.93074 -444.96999,178.24061 C -449.48177,177.27557 -455.85084,178.24061 -460.48457,178.24061 C -464.42968,178.24061 -468.78643,176.91322 -472.89623,176.91322 z"
         style="fill:#e4a2dd;fill-opacity:1;fill-rule:evenodd;stroke:#000000;stroke-width:0.71031868px;stroke-linecap:butt;stroke-linejoin:miter;stroke-opacity:1" />
      <path
         id="path3322"
         d="M -397.5,167.00504 C -396.00338,167.0318 -391.37431,167.13704 -388.92857,166.6479 C -385.64874,165.99193 -382.43864,165.3126 -379.28571,164.86218 C -376.4523,164.45741 -373.67472,161.1402 -372.5,158.79075 C -371.47744,156.74563 -371.49704,154.06464 -371.07143,152.36218 C -370.46235,149.92585 -366.08274,151.6479 -363.57143,151.6479 C -358.27604,151.6479 -353.04154,152.36218 -347.85714,152.36218 C -341.78446,152.36218 -336.32549,151.51167 -330.71429,150.57647 C -326.6262,149.89512 -322.07239,144.32887 -320.71429,140.93361 C -320.34969,140.02213 -320.2381,139.02885 -320,138.07647 C -318.89337,133.64996 -317.85714,128.55051 -317.85714,123.79075 C -317.85714,120.86278 -317.54221,117.55048 -318.21429,114.86218 C -318.75845,112.68554 -318.96831,111.35681 -320.35714,109.50504 C -322.2779,106.94403 -324.63812,105.29265 -327.5,104.1479 C -331.93707,102.37307 -337.52106,102.00504 -342.5,102.00504 C -347.26191,102.00504 -352.02381,102.00504 -356.78571,102.00504 C -361.34481,102.00504 -365.79545,102.36218 -370.35714,102.36218 C -373.15068,102.36218 -376.52819,103.79075 -379.64286,103.79075 C -383.14342,103.79075 -387.51178,105.01861 -390.71429,105.93361 C -393.98527,106.86818 -394.03042,106.78369 -396.07143,109.50504 C -397.78008,111.78324 -398.21429,115.62715 -398.21429,118.43361 C -398.21429,120.69551 -398.21429,122.95742 -398.21429,125.21932 C -398.21429,127.98251 -398.4435,130.71773 -397.5,133.07647 C -396.50374,135.56711 -396.52476,138.24124 -395.35714,140.57647 C -394.27075,142.74926 -392.87767,144.48451 -391.07143,146.29075 C -388.99125,148.37093 -384.5897,149.17068 -382.14286,150.21932 C -379.27575,151.44809 -377.85714,148.80194 -377.85714,152.71932 C -377.85714,154.95382 -379.49151,156.85369 -381.07143,158.43361 C -382.77655,160.13873 -384.46916,161.24976 -386.42857,162.71932 C -388.54569,164.30716 -392.00453,164.36671 -393.57143,165.93361 C -394.23112,166.5933 -396.75194,166.85543 -397.5,167.00504 z"
         style="fill:#ffffff;fill-rule:evenodd;stroke:#000000;stroke-width:1px;stroke-linecap:butt;stroke-linejoin:miter;stroke-opacity:1" />
      <text
         id="text3324"
         y="181.6479"
         x="-335.71426"
         style="font-size:20px;font-style:normal;font-weight:bold;fill:#ffffff;fill-opacity:1;stroke:none;stroke-width:1px;stroke-linecap:butt;stroke-linejoin:miter;stroke-opacity:1;font-family:Bitstream Vera Sans;-inkscape-font-specification:Bitstream Vera Sans Bold"
         xml:space="preserve"><tspan
           style="font-size:24px"
           y="181.6479"
           x="-335.71426"
           id="tspan3326"
           sodipodi:role="line">NLP</tspan></text>
    </g>
    <g
       id="g3350"
       inkscape:export-filename="/home/abez/clip-art-so-far.png"
       inkscape:export-xdpi="33.007736"
       inkscape:export-ydpi="33.007736"
       transform="matrix(0.4709498,0,0,0.4709498,561.59707,800.2309)">
      <g
         transform="translate(40,240)"
         id="g3257">
        <rect
           style="fill:#666666;fill-opacity:1;stroke:#000000;stroke-width:2;stroke-miterlimit:4;stroke-dasharray:none;stroke-dashoffset:0;stroke-opacity:1"
           id="rect3259"
           width="220"
           height="100"
           x="-540"
           y="92.362183" />
        <rect
           style="fill:#ffff00;fill-opacity:1;stroke:#000000;stroke-width:2;stroke-miterlimit:4;stroke-dasharray:none;stroke-dashoffset:0;stroke-opacity:1"
           id="rect3261"
           width="20"
           height="20"
           x="-520"
           y="72.362183" />
        <rect
           style="fill:#ffff00;fill-opacity:1;stroke:#000000;stroke-width:2;stroke-miterlimit:4;stroke-dasharray:none;stroke-dashoffset:0;stroke-opacity:1"
           id="rect3263"
           width="20"
           height="20"
           x="-480"
           y="72.362183" />
        <rect
           style="fill:#ffff00;fill-opacity:1;stroke:#000000;stroke-width:2;stroke-miterlimit:4;stroke-dasharray:none;stroke-dashoffset:0;stroke-opacity:1"
           id="rect3265"
           width="20"
           height="20"
           x="-440"
           y="72.362183" />
        <rect
           style="fill:#ffff00;fill-opacity:1;stroke:#000000;stroke-width:2;stroke-miterlimit:4;stroke-dasharray:none;stroke-dashoffset:0;stroke-opacity:1"
           id="rect3267"
           width="20"
           height="20"
           x="-400"
           y="72.362183" />
        <rect
           style="fill:#ffff00;fill-opacity:1;stroke:#000000;stroke-width:2;stroke-miterlimit:4;stroke-dasharray:none;stroke-dashoffset:0;stroke-opacity:1"
           id="rect3269"
           width="20"
           height="20"
           x="-360"
           y="72.362183" />
        <rect
           y="192.36218"
           x="-520"
           height="20"
           width="20"
           id="rect3271"
           style="fill:#ffff00;fill-opacity:1;stroke:#000000;stroke-width:2;stroke-miterlimit:4;stroke-dasharray:none;stroke-dashoffset:0;stroke-opacity:1" />
        <rect
           y="192.36218"
           x="-480"
           height="20"
           width="20"
           id="rect3274"
           style="fill:#ffff00;fill-opacity:1;stroke:#000000;stroke-width:2;stroke-miterlimit:4;stroke-dasharray:none;stroke-dashoffset:0;stroke-opacity:1" />
        <rect
           y="192.36218"
           x="-440"
           height="20"
           width="20"
           id="rect3276"
           style="fill:#ffff00;fill-opacity:1;stroke:#000000;stroke-width:2;stroke-miterlimit:4;stroke-dasharray:none;stroke-dashoffset:0;stroke-opacity:1" />
        <rect
           y="192.36218"
           x="-400"
           height="20"
           width="20"
           id="rect3278"
           style="fill:#ffff00;fill-opacity:1;stroke:#000000;stroke-width:2;stroke-miterlimit:4;stroke-dasharray:none;stroke-dashoffset:0;stroke-opacity:1" />
        <rect
           y="192.36218"
           x="-360"
           height="20"
           width="20"
           id="rect3280"
           style="fill:#ffff00;fill-opacity:1;stroke:#000000;stroke-width:2;stroke-miterlimit:4;stroke-dasharray:none;stroke-dashoffset:0;stroke-opacity:1" />
      </g>
      <g
         transform="translate(6.0609153,-192.93914)"
         id="g3311">
        <path
           style="fill:url(#radialGradient31204);fill-opacity:1;fill-rule:evenodd;stroke:#000000;stroke-width:0.61710304px;stroke-linecap:butt;stroke-linejoin:miter;stroke-opacity:1"
           d="M -383.22227,591.41441 C -383.10937,594.34805 -384.99593,603.57552 -390.18276,608.60933 C -394.30469,612.60965 -397.72522,616.5557 -402.8382,620.27731 C -406.12488,622.66959 -411.47642,622.73372 -415.49364,622.73372 C -418.86647,622.73372 -422.20198,622.73372 -425.618,622.73372 C -428.23873,622.73372 -433.12498,619.26543 -435.10958,617.82089 C -439.18188,614.85677 -443.13859,611.52539 -445.8667,607.99522 C -448.09621,605.11024 -449.66333,601.88102 -449.66333,598.16956 C -449.66333,594.49702 -450.59878,591.3612 -449.66333,587.72979 C -448.55977,583.44576 -443.78482,580.88557 -440.17175,579.13233 C -437.8075,577.98507 -433.4989,578.51822 -430.68017,578.51822 C -426.03984,578.51822 -421.39952,578.51822 -416.75918,578.51822 C -412.48869,578.51822 -409.04458,577.90412 -404.73652,577.90412 C -399.88242,577.90412 -394.77735,578.63167 -390.18276,579.74643 C -385.53575,580.87391 -382.37005,583.66886 -381.32395,587.72979 C -380.98079,589.06197 -382.5895,590.18621 -383.22227,591.41441 z"
           id="path3307" />
        <path
           style="fill:url(#radialGradient31206);fill-opacity:1;fill-rule:evenodd;stroke:#000000;stroke-width:1px;stroke-linecap:butt;stroke-linejoin:miter;stroke-opacity:1"
           d="M -449.51788,581.6311 C -449.69811,576.8055 -446.68642,561.62704 -438.4062,553.34683 C -431.82599,546.76661 -426.36548,540.27568 -418.20315,534.15393 C -412.95633,530.21881 -404.41316,530.11332 -398.0001,530.11332 C -392.61574,530.11332 -387.29096,530.11332 -381.83766,530.11332 C -377.65394,530.11332 -369.85357,535.81839 -366.68537,538.19454 C -360.18438,543.07029 -353.86791,548.55014 -349.51278,554.35698 C -345.9536,559.10255 -343.45187,564.41436 -343.45187,570.51942 C -343.45187,576.56046 -341.95852,581.71863 -343.45187,587.69201 C -345.21359,594.7389 -352.83628,598.95021 -358.60415,601.83415 C -362.37843,603.72129 -369.25665,602.8443 -373.75644,602.8443 C -381.16423,602.8443 -388.57201,602.8443 -395.9798,602.8443 C -402.79719,602.8443 -408.29534,603.85445 -415.1727,603.85445 C -422.92174,603.85445 -431.07144,602.65769 -438.4062,600.824 C -445.82466,598.96938 -450.87836,594.37192 -452.54834,587.69201 C -453.09617,585.50068 -450.52803,583.6514 -449.51788,581.6311 z"
           id="path3282" />
        <path
           style="fill:none;fill-rule:evenodd;stroke:#000000;stroke-width:1px;stroke-linecap:butt;stroke-linejoin:miter;stroke-opacity:1"
           d="M -381.83766,544.25545 C -397.34779,548.13298 -413.1822,535.38996 -429.31483,548.29606 C -440.72689,557.42571 -442.60425,560.73276 -448.50773,572.53972 C -452.29433,580.11293 -443.8664,584.45684 -439.41636,586.68186 C -433.0171,589.88149 -428.12877,580.26912 -426.28437,576.58033 C -423.60451,571.2206 -429.95351,568.12764 -424.26407,562.4382 C -417.56378,555.73791 -413.13906,560.36457 -415.1727,568.49911 C -417.00292,575.82 -424.26407,576.34404 -424.26407,585.67171 C -424.26407,595.10964 -410.38373,594.8001 -408.10163,585.67171 C -406.50696,579.29301 -403.60504,574.75642 -402.04071,568.49911 C -399.90508,559.95658 -404.66746,557.2256 -411.13209,553.34683 C -415.18438,550.91545 -426.7637,556.61695 -416.18285,551.32652 C -410.20853,548.33936 -405.76314,551.99069 -401.03056,554.35698 C -393.70581,558.01935 -390.64959,558.39759 -381.83766,558.39759 C -375.51688,558.39759 -370.43091,558.07128 -379.81736,560.41789 C -381.16423,560.75461 -382.5111,561.09133 -383.85797,561.42805 C -392.0097,563.46598 -394.70803,560.38159 -396.98995,569.50927 C -398.72552,576.45153 -401.18741,580.30724 -398.0001,586.68186 C -394.171,594.34006 -385.87827,582.0482 -385.87827,577.59049 C -385.87827,569.92566 -383.02231,570.34493 -378.8072,574.56003 C -374.82794,578.53929 -383.09074,588.94509 -384.86812,590.72247 C -386.47802,592.33237 -379.57366,578.47879 -387.89858,582.64125 C -395.11603,586.24998 -392.68433,594.07172 -385.87827,595.77323 C -379.36342,597.40194 -374.96431,595.15852 -372.74629,590.72247 C -370.40251,586.0349 -369.99717,580.73616 -368.70568,575.57018 C -367.82611,572.0519 -369.84504,567.64459 -372.74629,565.46866 C -373.53307,564.87857 -358.60415,562.6713 -358.60415,572.53972 C -358.60415,578.48238 -361.50217,583.51896 -365.67522,587.69201 C -369.80067,591.81746 -354.81597,590.40672 -352.54324,588.70216 C -347.15532,584.66122 -346.48232,582.89383 -346.48232,575.57018 C -346.48232,569.93422 -349.27385,563.9262 -351.53309,559.40774 C -354.00791,554.4581 -359.99828,544.97762 -363.65492,542.23515 C -368.82409,538.35827 -374.87097,535.34523 -380.82751,534.15393 C -385.74647,533.17013 -402.34325,535.08844 -389.91888,538.19454 C -389.26555,538.35787 -388.57201,538.19454 -387.89858,538.19454 C -380.7662,538.19454 -375.69841,542.00288 -371.73614,547.28591 C -367.43524,553.02044 -355.56134,556.37728 -369.71583,556.37728 C -374.61488,556.37728 -378.40368,552.53799 -380.82751,549.30622"
           id="path3293" />
      </g>
      <text
         id="text3328"
         y="423.22366"
         x="-326.86874"
         style="font-size:24px;font-style:normal;font-weight:bold;fill:#ffffff;fill-opacity:1;stroke:none;stroke-width:1px;stroke-linecap:butt;stroke-linejoin:miter;stroke-opacity:1;font-family:Bitstream Vera Sans;-inkscape-font-specification:Bitstream Vera Sans Bold"
         xml:space="preserve"><tspan
           y="423.22366"
           x="-326.86874"
           id="tspan3330"
           sodipodi:role="line">ML</tspan></text>
    </g>
    <g
       id="g4153"
       transform="matrix(0.2152741,0,0,0.2152741,209.06669,1130.7126)"
       inkscape:export-filename="/home/abez/clip-art-so-far.png"
       inkscape:export-xdpi="33.007736"
       inkscape:export-ydpi="33.007736">
      <g
         transform="matrix(0.3661515,0.9305553,-0.9305553,0.3661515,185.65016,-1488.176)"
         id="g4085">
        <g
           id="g4087">
          <rect
             y="-227.63782"
             x="480"
             height="280"
             width="20"
             id="rect4089"
             style="fill:#ff6600;fill-opacity:1;stroke:#000000;stroke-width:2;stroke-miterlimit:4;stroke-dasharray:none;stroke-dashoffset:0;stroke-opacity:1" />
        </g>
        <path
           style="fill:#b3b3b3;fill-rule:evenodd;stroke:#000000;stroke-width:1px;stroke-linecap:butt;stroke-linejoin:miter;stroke-opacity:1"
           d="M 360,-107.63782 C 360,-107.63782 360,-207.63782 580,-207.63782 C 800,-207.63782 600,-207.63782 600,-207.63782 L 600,-167.63782 C 600,-167.63782 425.71429,-201.92353 360,-107.63782 z"
           id="path4091" />
      </g>
      <path
         style="fill:#ff0000;fill-rule:evenodd;stroke:#000000;stroke-width:0.71735239px;stroke-linecap:butt;stroke-linejoin:miter;stroke-opacity:1"
         d="M 458.48664,-1097.7289 C 451.04423,-1097.7289 443.82236,-1096.7195 436.96607,-1094.8595 L 436.96607,-1076.8809 C 434.73049,-1076.0934 432.53621,-1075.2089 430.42023,-1074.1908 L 417.73205,-1086.9014 C 405.08055,-1079.6445 394.55385,-1069.1054 387.28941,-1056.4588 L 400,-1043.7258 C 398.98203,-1041.6082 398.07464,-1039.4396 397.28751,-1037.2023 L 379.30887,-1037.2023 C 377.44473,-1030.339 376.43946,-1023.1328 376.43946,-1015.6818 C 376.43946,-1008.2348 377.44665,-1001.0213 379.30887,-994.16125 L 397.28751,-994.16125 C 398.07473,-991.92375 398.98188,-989.75561 400,-987.63782 L 387.28941,-974.92724 C 394.55092,-962.27869 405.06002,-951.72204 417.70964,-944.46218 L 430.42023,-957.19518 C 432.53629,-956.17709 434.73039,-955.27024 436.96607,-954.48269 L 436.96607,-936.48163 C 443.82147,-934.62216 451.04531,-933.63464 458.48664,-933.63464 C 465.93762,-933.63464 473.14385,-934.63991 480.00721,-936.50405 L 480.00721,-954.46027 C 482.2459,-955.24779 484.43419,-956.17654 486.55305,-957.19518 L 499.26364,-944.48459 C 511.90462,-951.74578 522.42726,-962.2833 529.68387,-974.92724 L 516.99569,-987.61541 C 518.01737,-989.73891 518.91871,-991.91734 519.70818,-994.16125 L 537.64199,-994.16125 C 539.50421,-1001.0213 540.5114,-1008.2348 540.5114,-1015.6818 C 540.5114,-1023.1328 539.50613,-1030.339 537.64199,-1037.2023 L 519.70818,-1037.2023 C 518.91878,-1039.4461 518.01725,-1041.6249 516.99569,-1043.7482 L 529.68387,-1056.4363 C 522.42218,-1069.0891 511.894,-1079.6397 499.24122,-1086.9014 L 486.55305,-1074.1908 C 484.43434,-1075.2094 482.24574,-1076.1159 480.00721,-1076.9033 L 480.00721,-1094.8595 C 473.14464,-1096.7232 465.93664,-1097.7289 458.48664,-1097.7289 z M 458.48664,-1039.2647 C 471.49736,-1039.2647 482.04718,-1028.6925 482.04718,-1015.6818 C 482.04718,-1002.6711 471.49736,-992.12128 458.48664,-992.12128 C 445.47592,-992.12128 434.90368,-1002.6711 434.90368,-1015.6818 C 434.90369,-1028.6925 445.47592,-1039.2647 458.48664,-1039.2647 z"
         id="path4093" />
    </g>
    <g
       id="g4184"
       transform="matrix(0.2003624,0,0,0.2003624,231.67739,1109.2722)"
       inkscape:export-filename="/home/abez/clip-art-so-far.png"
       inkscape:export-xdpi="33.007736"
       inkscape:export-ydpi="33.007736">
      <path
         id="path4186"
         d="M 760,-1107.6378 C 752.55759,-1107.6378 745.33572,-1106.6284 738.47943,-1104.7684 L 738.47943,-1086.7898 C 736.24385,-1086.0023 734.04957,-1085.1178 731.93359,-1084.0997 L 719.24541,-1096.8103 C 706.59391,-1089.5534 696.06721,-1079.0143 688.80277,-1066.3677 L 701.51336,-1053.6347 C 700.49539,-1051.5171 699.588,-1049.3485 698.80087,-1047.1112 L 680.82223,-1047.1112 C 678.95809,-1040.2479 677.95282,-1033.0417 677.95282,-1025.5907 C 677.95282,-1018.1437 678.96001,-1010.9302 680.82223,-1004.0701 L 698.80087,-1004.0701 C 699.58809,-1001.8326 700.49524,-999.66452 701.51336,-997.54672 L 688.80277,-984.83613 C 696.06428,-972.18758 706.57338,-961.63093 719.223,-954.37107 L 731.93359,-967.10407 C 734.04965,-966.08598 736.24375,-965.17913 738.47943,-964.39158 L 738.47943,-946.39052 C 745.33483,-944.53105 752.55867,-943.54353 760,-943.54353 C 767.45098,-943.54353 774.65721,-944.5488 781.52057,-946.41294 L 781.52057,-964.36916 C 783.75926,-965.15668 785.94755,-966.08543 788.06641,-967.10407 L 800.777,-954.39348 C 813.41798,-961.65467 823.94062,-972.19219 831.19723,-984.83613 L 818.50905,-997.52432 C 819.53073,-999.64782 820.43207,-1001.8262 821.22154,-1004.0701 L 839.15535,-1004.0701 C 841.01757,-1010.9302 842.02476,-1018.1437 842.02476,-1025.5907 C 842.02476,-1033.0417 841.01949,-1040.2479 839.15535,-1047.1112 L 821.22154,-1047.1112 C 820.43214,-1049.355 819.53061,-1051.5338 818.50905,-1053.6571 L 831.19723,-1066.3452 C 823.93554,-1078.998 813.40736,-1089.5486 800.75458,-1096.8103 L 788.06641,-1084.0997 C 785.9477,-1085.1183 783.7591,-1086.0248 781.52057,-1086.8122 L 781.52057,-1104.7684 C 774.658,-1106.6321 767.45,-1107.6378 760,-1107.6378 z M 760,-1049.1736 C 773.01072,-1049.1736 783.56054,-1038.6014 783.56054,-1025.5907 C 783.56054,-1012.58 773.01072,-1002.0301 760,-1002.0301 C 746.98928,-1002.0301 736.41704,-1012.58 736.41704,-1025.5907 C 736.41705,-1038.6014 746.98928,-1049.1736 760,-1049.1736 z"
         style="fill:#ff0000;fill-rule:evenodd;stroke:#000000;stroke-width:0.71735239px;stroke-linecap:butt;stroke-linejoin:miter;stroke-opacity:1" />
      <g
         id="g4188"
         transform="matrix(1.3897505,0.9257984,-0.9257984,1.3897505,647.05277,220.2747)">
        <path
           id="path4190"
           d="M -352.5,-722.625 C -400.8,-722.625 -440,-709.185 -440,-692.625 L -265,-692.625 C -265,-709.185 -304.2,-722.625 -352.5,-722.625 z"
           style="fill:#ffff00;fill-opacity:1;stroke:#000000;stroke-width:4;stroke-miterlimit:4;stroke-dasharray:none;stroke-dashoffset:0;stroke-opacity:1" />
        <path
           sodipodi:nodetypes="ccccc"
           id="path4192"
           d="M -352.5,-765.13782 C -381.48,-765.13782 -405,-743.85782 -405,-717.63782 L -351.78892,-717.63782 L -300,-717.63782 C -300,-743.85782 -323.52,-765.13782 -352.5,-765.13782 z"
           style="fill:#ffff00;fill-opacity:1;stroke:#000000;stroke-width:4;stroke-miterlimit:4;stroke-dasharray:none;stroke-dashoffset:0;stroke-opacity:1" />
        <path
           id="path4194"
           d="M -352.86596,-723.5059 C -381.64395,-723.5059 -405,-709.677 -405,-692.63782 L -300.73192,-692.63782 C -300.73192,-709.677 -324.08797,-723.5059 -352.86596,-723.5059 z"
           style="fill:#ffff00;fill-opacity:1;stroke:#000000;stroke-width:3.13192129;stroke-miterlimit:4;stroke-dasharray:none;stroke-dashoffset:0;stroke-opacity:1" />
        <path
           sodipodi:nodetypes="ccccc"
           id="path4196"
           d="M -354.62529,-766.10268 C -370.97845,-766.10268 -384.25058,-744.39042 -384.25058,-717.63782 L -354.22404,-717.63782 L -325,-717.63782 C -325,-744.39042 -338.27213,-766.10268 -354.62529,-766.10268 z"
           style="fill:#ffff00;fill-opacity:1;stroke:#000000;stroke-width:3.03513718;stroke-miterlimit:4;stroke-dasharray:none;stroke-dashoffset:0;stroke-opacity:1" />
        <path
           id="path4198"
           d="M -355,-717.63782 L -355,-767.63782"
           style="fill:none;fill-rule:evenodd;stroke:#000000;stroke-width:1px;stroke-linecap:butt;stroke-linejoin:miter;stroke-opacity:1" />
        <path
           d="M -350,-767.63782 A 5,5 0 1 1 -360,-767.63782 A 5,5 0 1 1 -350,-767.63782 z"
           sodipodi:ry="5"
           sodipodi:rx="5"
           sodipodi:cy="-767.63782"
           sodipodi:cx="-355"
           id="path4200"
           style="fill:#ffff00;fill-opacity:1;stroke:#000000;stroke-width:4;stroke-miterlimit:4;stroke-dasharray:none;stroke-dashoffset:0;stroke-opacity:1"
           sodipodi:type="arc" />
      </g>
    </g>
    <path
       style="fill:#00ff00;fill-rule:evenodd;stroke:#000000;stroke-width:0.30854338px;stroke-linecap:butt;stroke-linejoin:miter;stroke-opacity:1"
       d="M 66.451842,952.82543 C 63.401738,951.85393 60.31025,951.32491 57.257558,951.1922 L 54.910705,958.56033 C 53.891705,958.59125 52.876969,958.66732 51.876889,958.80833 L 48.336113,951.94293 C 42.203891,953.26554 36.514039,956.21063 31.886029,960.44531 L 35.433067,967.32283 C 34.739458,968.05778 34.084502,968.8281 33.469875,969.64223 L 26.101731,967.29538 C 24.441844,969.86483 23.089185,972.68692 22.116566,975.74054 C 21.144467,978.79252 20.615625,981.88028 20.483323,984.93483 L 27.851466,987.28168 C 27.882018,988.30143 27.970773,989.3084 28.111584,990.30922 L 21.243245,993.8592 C 22.568129,999.99079 25.497024,1005.689 29.733524,1010.3155 L 36.604777,1006.7564 C 37.3391,1007.4498 38.119927,1008.1079 38.933359,1008.7225 L 36.583575,1016.0999 C 39.150404,1017.7567 41.982009,1019.1044 45.031672,1020.0758 C 48.085289,1021.0484 51.169829,1021.5771 54.225963,1021.709 L 56.569883,1014.3501 C 57.590159,1014.3196 58.608213,1014.2246 59.609551,1014.0837 L 63.159508,1020.9521 C 69.287975,1019.6263 74.975966,1016.6813 79.600404,1012.4468 L 76.056702,1005.5905 C 76.752606,1004.8536 77.406367,1004.0785 78.022821,1003.2619 L 85.372589,1005.6029 C 87.031267,1003.0346 88.385658,1000.2098 89.357758,997.15778 C 90.330376,994.10417 90.859058,991.01963 90.990997,987.9635 L 83.641229,985.6225 C 83.610593,984.59992 83.52554,983.58929 83.384043,982.58576 L 90.240262,979.04205 C 88.915863,972.90869 85.978356,967.21046 81.740809,962.58279 L 74.881663,966.13567 C 74.146312,965.44168 73.367696,964.78448 72.553075,964.16955 L 74.897002,956.8106 C 72.327811,955.151 69.505059,953.79792 66.451842,952.82543 z M 58.820172,976.78568 C 64.152324,978.48404 67.095876,984.19397 65.397514,989.52611 C 63.699151,994.85826 57.998415,997.80474 52.666264,996.10638 C 47.334113,994.40802 44.378448,988.70435 46.07681,983.3722 C 47.775179,978.04005 53.488022,975.08732 58.820172,976.78568 z"
       id="path2520"
       inkscape:export-filename="/home/abez/clip-art-so-far.png"
       inkscape:export-xdpi="33.007736"
       inkscape:export-ydpi="33.007736" />
  </g>
</svg>
