<?xml version="1.0" encoding="UTF-8" standalone="no"?>
<!-- Created with Inkscape (http://www.inkscape.org/) -->
<svg
   xmlns:dc="http://purl.org/dc/elements/1.1/"
   xmlns:cc="http://creativecommons.org/ns#"
   xmlns:rdf="http://www.w3.org/1999/02/22-rdf-syntax-ns#"
   xmlns:svg="http://www.w3.org/2000/svg"
   xmlns="http://www.w3.org/2000/svg"
   xmlns:sodipodi="http://sodipodi.sourceforge.net/DTD/sodipodi-0.dtd"
   xmlns:inkscape="http://www.inkscape.org/namespaces/inkscape"
   width="453.5433"
   height="340.15747"
   id="svg2"
   sodipodi:version="0.32"
   inkscape:version="0.46"
   sodipodi:docname="slide350-observation-power-law.svg"
   version="1.0"
   inkscape:output_extension="org.inkscape.output.svg.inkscape">
  <defs
     id="defs4">
    <inkscape:perspective
       sodipodi:type="inkscape:persp3d"
       inkscape:vp_x="0 : 170.07874 : 1"
       inkscape:vp_y="0 : 1000 : 0"
       inkscape:vp_z="453.5433 : 170.07874 : 1"
       inkscape:persp3d-origin="226.77165 : 113.38582 : 1"
       id="perspective6834" />
  </defs>
  <sodipodi:namedview
     id="base"
     pagecolor="#ffffff"
     bordercolor="#666666"
     borderopacity="1.0"
     gridtolerance="10000"
     guidetolerance="8.8"
     objecttolerance="10"
     inkscape:pageopacity="0.0"
     inkscape:pageshadow="2"
     inkscape:zoom="0.7702315"
     inkscape:cx="226.77165"
     inkscape:cy="297.24746"
     inkscape:document-units="mm"
     inkscape:current-layer="layer1"
     inkscape:window-width="1024"
     inkscape:window-height="768"
     inkscape:window-x="0"
     inkscape:window-y="0"
     width="12.8cm"
     height="9.6cm"
     units="cm"
     showgrid="false"
     grid_units="mm"
     inkscape:object-paths="false"
     inkscape:grid-points="true"
     inkscape:grid-bbox="true"
     inkscape:guide-points="true"
     showguides="true"
     inkscape:guide-bbox="true">
    <sodipodi:guide
       orientation="vertical"
       position="56.476527"
       id="guide3573" />
    <sodipodi:guide
       orientation="horizontal"
       position="11.035643"
       id="guide3579" />
    <sodipodi:guide
       orientation="horizontal"
       position="24.018753"
       id="guide3886" />
    <sodipodi:guide
       orientation="horizontal"
       position="285.62841"
       id="guide3988" />
    <sodipodi:guide
       orientation="horizontal"
       position="303.15561"
       id="guide4081" />
    <inkscape:grid
       id="GridFromPre046Settings"
       type="xygrid"
       originx="0px"
       originy="0px"
       spacingx="2mm"
       spacingy="2mm"
       color="#0000ff"
       empcolor="#0000ff"
       opacity="0.2"
       empopacity="0.4"
       empspacing="5" />
  </sodipodi:namedview>
  <metadata
     id="metadata7">
    <rdf:RDF>
      <cc:Work
         rdf:about="">
        <dc:format>image/svg+xml</dc:format>
        <dc:type
           rdf:resource="http://purl.org/dc/dcmitype/StillImage" />
      </cc:Work>
    </rdf:RDF>
  </metadata>
  <g
     inkscape:label="Layer 1"
     inkscape:groupmode="layer"
     id="layer1"
     transform="translate(4.149475e-6,-698.0315)">
    <path
       sodipodi:type="star"
       style="opacity:1;fill:#ffff00;fill-opacity:1;fill-rule:nonzero;stroke:#bf7134;stroke-width:3.54330707000000000;stroke-linecap:butt;stroke-linejoin:miter;stroke-miterlimit:4;stroke-dasharray:none;stroke-dashoffset:0;stroke-opacity:1"
       id="path7646"
       sodipodi:sides="13"
       sodipodi:cx="277.24942"
       sodipodi:cy="129.92528"
       sodipodi:r1="169.02493"
       sodipodi:r2="85.330437"
       sodipodi:arg1="0.73160396"
       sodipodi:arg2="0.97326493"
       inkscape:flatsided="false"
       inkscape:rounded="0"
       inkscape:randomized="0"
       d="M 403.02152,242.84475 L 325.25661,200.47025 L 336.13879,288.35971 L 286.97379,214.6998 L 255.76521,297.57926 L 246.46324,209.50853 L 180.31341,268.39129 L 213.00543,186.0857 L 127.06848,207.48243 L 194.26514,149.79719 L 108.22819,128.80617 L 194.53555,108.95626 L 128.10863,50.386271 L 213.75472,72.919084 L 182.15543,-9.8121944 L 247.51975,49.94134 L 257.98712,-37.998489 L 288.09549,45.286953 L 338.23156,-27.715473 L 326.18653,60.022185 L 404.50573,18.68114 L 353.06667,90.771373 L 441.62702,90.562444 L 362.57799,130.49025 L 441.09138,171.4613 L 352.54156,170.0797 L 403.02152,242.84475 z"
       transform="matrix(1.0131816,0.3218391,-0.1994132,0.4838526,74.524909,686.95067)" />
    <g
       id="g7626"
       transform="translate(-14.389615,53.663514)">
      <path
         d="M 95.134832,752.2639 C 94.620252,753.38164 94.471965,754.60408 94.351907,755.81471 C 94.221804,757.39605 94.225675,758.98401 94.230446,760.56945 C 94.316717,762.03789 94.160601,763.49275 94.029969,764.95247 C 93.87792,766.61586 93.820835,768.28421 93.782035,769.95326 C 93.761274,771.69729 93.809119,773.43803 93.660664,775.17724 C 93.535995,776.43745 93.434603,777.6997 93.38538,778.96517 C 93.335435,780.42459 93.324999,781.88471 93.318461,783.34484 C 93.279141,785.36668 93.271574,787.38427 93.421566,789.40137 C 93.602962,791.43543 93.650533,793.47509 93.835905,795.50867 C 93.979475,797.44962 94.168243,799.38387 94.377825,801.31858 C 94.513291,803.13317 94.664331,804.94371 94.847226,806.7543 C 95.029722,808.54029 95.068823,810.33553 95.112547,812.12886 C 95.116808,813.70728 95.329708,815.275 95.455997,816.84671 C 95.493725,818.32922 95.612776,819.79978 95.777792,821.27261 C 95.92096,822.86912 96.224129,824.44929 96.559926,826.0153 C 96.900567,827.7362 97.346548,829.44119 98.045142,831.05284 C 98.756748,832.70147 99.86943,834.10373 101.05682,835.43154 C 102.49035,836.97884 104.04109,838.41155 105.66861,839.75139 C 107.63689,841.34821 109.73735,842.77238 111.87001,844.13864 C 114.26084,845.65242 116.77032,846.95409 119.29623,848.22265 C 122.17632,849.59814 125.2098,850.61681 128.23996,851.60363 C 131.70735,852.70979 135.24189,853.58499 138.79142,854.38103 C 142.86288,855.25848 146.97653,855.92697 151.08564,856.60084 C 155.04208,857.22445 158.97014,858.00249 162.91138,858.71416 C 167.39074,859.53275 171.91961,860.05942 176.44473,860.5528 C 180.48742,861.05653 184.52717,861.58727 188.56582,862.1235 C 192.96666,862.61132 197.3162,863.45075 201.707,864.01887 C 206.0021,864.54467 210.28019,865.18939 214.563,865.8028 C 218.58739,866.35354 222.57473,867.12009 226.57419,867.82017 C 230.41808,868.5844 234.28862,869.18401 238.1637,869.76248 C 241.977,870.18347 245.78183,870.69114 249.59982,871.07092 C 253.33099,871.46321 257.0573,871.89822 260.78652,872.308 C 264.83242,872.81377 268.89898,873.15426 272.96531,873.44943 C 276.95825,873.7088 280.96039,873.76029 284.96039,873.78543 C 288.9603,873.80003 292.96022,873.78883 296.96015,873.79204 C 300.996,873.79548 305.0318,873.78985 309.06763,873.77906 C 312.92071,873.76932 316.77379,873.78432 320.62687,873.78539 C 324.69255,873.78327 328.75822,873.78317 332.82389,873.79654 C 337.24258,873.83474 341.6613,873.79188 346.08,873.78554 C 351.05876,873.80069 356.03733,873.87655 361.01552,873.78289 C 366.65049,873.6245 372.28677,873.52058 377.92302,873.42137 C 381.66254,873.3695 385.4016,873.30535 389.14145,873.29667 C 391.5862,873.30668 394.04087,873.26022 396.47561,873.03113 C 396.67266,873.03175 396.86972,873.03237 397.06677,873.033 L 391.70371,876.92881 C 391.52833,876.92913 391.35294,876.92944 391.17755,876.92976 C 388.77514,876.99265 386.37415,877.1054 383.96988,877.05461 C 380.29942,877.05147 376.62921,877.00862 372.9587,877.0374 C 367.33778,877.07475 361.71866,877.19048 356.10036,877.36855 C 351.06887,877.46901 346.03581,877.42999 341.00354,877.47381 C 336.59493,877.46745 332.18632,877.42452 327.77771,877.4628 C 323.70186,877.47605 319.626,877.47605 315.55014,877.47385 C 311.69089,877.47491 307.83164,877.4898 303.97238,877.48111 C 299.94423,877.47168 295.91613,877.46837 291.88797,877.47771 C 287.88878,877.48622 283.88951,877.48864 279.89038,877.46307 C 275.87874,877.42674 271.86341,877.40317 267.8608,877.09995 C 263.78274,876.78362 259.70602,876.41547 255.64139,875.95961 C 251.91569,875.53868 248.18984,875.12056 244.46153,874.7236 C 240.64203,874.31146 236.82833,873.84191 233.01392,873.38799 C 229.14532,872.8037 225.284,872.17999 221.4476,871.40801 C 217.45251,870.67857 213.4483,870.00712 209.42972,869.41938 C 205.17769,868.78172 200.92869,868.12417 196.66222,867.58705 C 192.24484,867.02962 187.86821,866.20022 183.43815,865.7475 C 179.4141,865.22355 175.39483,864.66391 171.36913,864.15388 C 166.82751,863.62256 162.28341,863.0728 157.77472,862.30718 C 153.83248,861.58939 149.89762,860.83851 145.93957,860.21172 C 141.83483,859.52053 137.73257,858.80361 133.65933,857.94392 C 130.05777,857.1803 126.47721,856.30399 122.96763,855.18522 C 119.9109,854.18136 116.86314,853.11569 113.95024,851.74129 C 111.39139,850.47711 108.874,849.14167 106.45867,847.61621 C 104.30316,846.22598 102.16404,844.80427 100.16093,843.19865 C 98.511916,841.83029 96.934673,840.38599 95.491425,838.79879 C 94.259311,837.41608 93.04242,835.9945 92.309653,834.27201 C 91.617554,832.61539 91.166025,830.86695 90.797693,829.11218 C 90.433482,827.53482 90.085164,825.94382 89.941384,824.32909 C 89.774572,822.84696 89.633068,821.37027 89.613776,819.87719 C 89.50999,818.28895 89.279674,816.70797 89.274218,815.11549 C 89.260293,813.33613 89.212419,811.55555 89.046555,809.78298 C 88.867849,807.97212 88.690582,806.16474 88.584041,804.34785 C 88.384217,802.40489 88.182879,800.46538 88.065842,798.51503 C 87.880466,796.48017 87.785035,794.4418 87.635145,792.40415 C 87.483705,790.37798 87.479671,788.35283 87.476347,786.32138 C 87.470451,784.86445 87.446723,783.40692 87.473304,781.95029 C 87.517641,780.66392 87.61609,779.3825 87.779948,778.10524 C 87.954129,776.37729 87.957481,774.64967 87.950939,772.91308 C 87.963482,771.23276 87.98269,769.54982 88.162899,767.87739 C 88.287053,766.43848 88.400919,765.00268 88.362876,763.55689 C 88.377267,761.95622 88.385185,760.35454 88.456372,758.75525 C 88.547064,757.51316 88.664848,756.26308 89.058804,755.07397 L 95.134832,752.2639 z"
         id="path6844"
         style="opacity:1;fill:#ffff00;fill-opacity:1;fill-rule:nonzero;stroke:#4234bf;stroke-width:2.77921128;stroke-linecap:butt;stroke-linejoin:miter;stroke-miterlimit:4;stroke-dasharray:none;stroke-dashoffset:0;stroke-opacity:1" />
      <path
         id="path6846"
         d="M 70.866138,752.56056 L 71.082524,894.29285 L 404.15339,894.29285"
         style="fill:none;fill-rule:evenodd;stroke:#000000;stroke-width:3.54330707;stroke-linecap:butt;stroke-linejoin:miter;stroke-miterlimit:4;stroke-dasharray:none;stroke-opacity:1" />
      <text
         id="text7618"
         y="931.88977"
         x="106.29921"
         style="font-size:24px;font-style:normal;font-weight:bold;writing-mode:lr-tb;fill:#000000;fill-opacity:1;stroke:none;stroke-width:1px;stroke-linecap:butt;stroke-linejoin:miter;stroke-opacity:1;font-family:Sans;-inkscape-font-specification:Sans"
         xml:space="preserve"><tspan
           y="931.88977"
           x="106.29921"
           id="tspan7620"
           sodipodi:role="line">Topic Frequency -&gt;</tspan></text>
      <text
         transform="matrix(0,-1,1,0,0,0)"
         id="text7622"
         y="56.909294"
         x="-858.85974"
         style="font-size:24px;font-style:normal;font-weight:bold;writing-mode:lr-tb;fill:#000000;fill-opacity:1;stroke:none;stroke-width:1px;stroke-linecap:butt;stroke-linejoin:miter;stroke-opacity:1;font-family:Sans;-inkscape-font-specification:Sans"
         xml:space="preserve"><tspan
           y="56.909294"
           x="-858.85974"
           id="tspan7624"
           sodipodi:role="line">Count</tspan></text>
    </g>
    <text
       xml:space="preserve"
       style="font-size:24px;font-style:normal;font-weight:bold;writing-mode:lr-tb;fill:#000000;fill-opacity:1;stroke:none;stroke-width:1px;stroke-linecap:butt;stroke-linejoin:miter;stroke-opacity:1;font-family:Sans;-inkscape-font-specification:Sans"
       x="56.918758"
       y="55.563679"
       id="text7634"
       transform="translate(-4.149475e-6,698.0315)"><tspan
         sodipodi:role="line"
         id="tspan7636"
         x="56.918758"
         y="55.563679">Observations:</tspan></text>
    <text
       xml:space="preserve"
       style="font-size:24px;font-style:normal;font-weight:bold;text-align:center;writing-mode:lr-tb;text-anchor:middle;fill:#000000;fill-opacity:1;stroke:none;stroke-width:1px;stroke-linecap:butt;stroke-linejoin:miter;stroke-opacity:1;font-family:Sans;-inkscape-font-specification:Sans"
       x="528.26508"
       y="703.53418"
       id="text7638"
       transform="matrix(0.964653,0.2635234,-0.2635234,0.964653,0,0)"><tspan
         sodipodi:role="line"
         id="tspan7640"
         x="528.26508"
         y="703.53418">Power Law-like</tspan><tspan
         sodipodi:role="line"
         x="528.26508"
         y="733.53418"
         id="tspan7642">distribution of topic</tspan><tspan
         sodipodi:role="line"
         x="528.26508"
         y="763.53418"
         id="tspan7644">recurrence</tspan></text>
    <text
       xml:space="preserve"
       style="font-size:24px;font-style:normal;font-weight:bold;writing-mode:lr-tb;fill:#000000;fill-opacity:1;stroke:none;stroke-width:1px;stroke-linecap:butt;stroke-linejoin:miter;stroke-opacity:1;font-family:Sans;-inkscape-font-specification:Sans"
       x="42.844261"
       y="312.89294"
       id="text7753"
       transform="translate(-4.149475e-6,698.0315)"><tspan
         sodipodi:role="line"
         id="tspan7755"
         x="42.844261"
         y="312.89294">Only ~10% of topics reoccur!</tspan></text>
  </g>
</svg>
