<?xml version="1.0" encoding="UTF-8" standalone="no"?>
<!-- Created with Inkscape (http://www.inkscape.org/) -->
<svg
   xmlns:dc="http://purl.org/dc/elements/1.1/"
   xmlns:cc="http://creativecommons.org/ns#"
   xmlns:rdf="http://www.w3.org/1999/02/22-rdf-syntax-ns#"
   xmlns:svg="http://www.w3.org/2000/svg"
   xmlns="http://www.w3.org/2000/svg"
   xmlns:sodipodi="http://sodipodi.sourceforge.net/DTD/sodipodi-0.dtd"
   xmlns:inkscape="http://www.inkscape.org/namespaces/inkscape"
   width="453.5433"
   height="340.15747"
   id="svg2"
   sodipodi:version="0.32"
   inkscape:version="0.46"
   sodipodi:docname="slide070-newspaper-sections.svg"
   version="1.0"
   inkscape:output_extension="org.inkscape.output.svg.inkscape">
  <defs
     id="defs4">
    <inkscape:perspective
       sodipodi:type="inkscape:persp3d"
       inkscape:vp_x="0 : 170.07874 : 1"
       inkscape:vp_y="0 : 1000 : 0"
       inkscape:vp_z="453.5433 : 170.07874 : 1"
       inkscape:persp3d-origin="226.77165 : 113.38582 : 1"
       id="perspective9773" />
  </defs>
  <sodipodi:namedview
     id="base"
     pagecolor="#ffffff"
     bordercolor="#666666"
     borderopacity="1.0"
     gridtolerance="10000"
     guidetolerance="8.8"
     objecttolerance="10"
     inkscape:pageopacity="0.0"
     inkscape:pageshadow="2"
     inkscape:zoom="1.0892718"
     inkscape:cx="136.81729"
     inkscape:cy="242.87675"
     inkscape:document-units="mm"
     inkscape:current-layer="layer1"
     inkscape:window-width="1024"
     inkscape:window-height="768"
     inkscape:window-x="0"
     inkscape:window-y="0"
     width="12.8cm"
     height="9.6cm"
     units="cm"
     showgrid="false"
     grid_units="mm"
     inkscape:object-paths="false"
     inkscape:grid-points="true"
     inkscape:grid-bbox="true"
     inkscape:guide-points="true"
     showguides="true"
     inkscape:guide-bbox="true">
    <sodipodi:guide
       orientation="vertical"
       position="56.476527"
       id="guide3573" />
    <sodipodi:guide
       orientation="horizontal"
       position="11.035643"
       id="guide3579" />
    <sodipodi:guide
       orientation="horizontal"
       position="24.018753"
       id="guide3886" />
    <sodipodi:guide
       orientation="horizontal"
       position="285.62841"
       id="guide3988" />
    <sodipodi:guide
       orientation="horizontal"
       position="303.15561"
       id="guide4081" />
    <inkscape:grid
       id="GridFromPre046Settings"
       type="xygrid"
       originx="0px"
       originy="0px"
       spacingx="2mm"
       spacingy="2mm"
       color="#0000ff"
       empcolor="#0000ff"
       opacity="0.2"
       empopacity="0.4"
       empspacing="5" />
  </sodipodi:namedview>
  <metadata
     id="metadata7">
    <rdf:RDF>
      <cc:Work
         rdf:about="">
        <dc:format>image/svg+xml</dc:format>
        <dc:type
           rdf:resource="http://purl.org/dc/dcmitype/StillImage" />
      </cc:Work>
    </rdf:RDF>
  </metadata>
  <g
     inkscape:label="Layer 1"
     inkscape:groupmode="layer"
     id="layer1"
     transform="translate(4.149475e-6,-698.0315)">
    <g
       id="g2590"
       transform="matrix(0.5409796,0,0,0.5409796,73.725273,605.96367)">
      <path
         id="path2486"
         d="M 235.71429,240.93361 C 241.73043,241.07095 252.00869,250.66527 257.14286,260.93361 C 260.34378,267.33545 258.45281,278.31371 255.71429,283.79075 C 251.07016,293.07901 243.94265,295.56239 237.14286,302.36218 C 228.98579,310.51925 219.98774,315.93974 210,320.93361 C 196.20104,327.83309 184.44209,333.7282 170,339.50504 C 168.17704,340.23422 166.19048,340.45742 164.28571,340.93361 C 153.44342,343.64418 143.94105,353.79075 132.85714,353.79075 C 119.54391,353.79075 107.4465,359.50504 94.285714,359.50504 C 80.536078,359.50504 67.408182,349.13777 64.285714,336.6479 C 60.640357,322.06647 85.462006,303.48275 95.714286,296.6479 C 116.48618,282.79997 137.46633,269.87341 160,262.36218 C 175.3879,257.23288 185.31071,251.74879 200,248.07647 C 207.103,246.30072 215.33853,245.21933 222.85714,245.21933 C 227.37468,245.21933 231.28447,241.81957 235.71429,240.93361 z"
         style="fill:#808080;fill-rule:evenodd;stroke:#000000;stroke-width:1px;stroke-linecap:butt;stroke-linejoin:miter;stroke-opacity:1" />
      <path
         id="path2484"
         d="M 237.14286,260.93361 C 230.33994,267.73653 173.91775,295.85244 155.71429,309.50504 C 143.28465,318.82727 133.81323,328.54895 122.85714,339.50504 C 122.15929,340.20289 146.31681,334.71155 161.42857,330.93361 C 176.38341,327.1949 199.38598,317.10842 211.42857,308.07647 C 213.98408,306.15984 217.14286,305.21933 220,303.79075 C 229.85853,298.86149 238.20619,297.01313 247.14286,288.07647 C 255.25357,279.96576 263.136,274.10389 264.28571,269.50504 C 267.07912,258.33141 243.13371,279.27457 234.28571,286.6479 C 218.58297,299.73352 193.58681,309.49889 175.71429,316.6479 C 165.93489,320.55966 154.2315,322.73288 144.28571,325.21933 C 139.29694,326.46652 161.13218,310.19502 184.28571,300.93361 C 204.62256,292.79887 222.36127,278.55758 241.42857,273.79075 C 250.88406,271.42688 257.68908,260.17727 258.57143,256.6479 C 258.69809,256.14124 236.06287,258.07647 218.57143,258.07647 C 201.38036,258.07647 175.11061,283.29581 160,292.36218 C 144.39936,301.72257 129.04749,316.40987 114.28571,323.79075 C 104.16794,328.84964 105.06237,340.51751 114.28571,342.36218 C 131.5299,345.81102 151.68611,334.37627 164.28571,328.07647 C 168.09524,326.17171 171.90476,324.26694 175.71429,322.36218 C 195.03863,312.70001 216.51531,310.87579 235.71429,298.07647 C 250.17709,288.4346 276.32846,279.10459 271.42857,259.50504 C 270.96487,257.65025 251.19482,260.40893 248.57143,260.93361"
         style="fill:none;fill-rule:evenodd;stroke:#000000;stroke-width:1px;stroke-linecap:butt;stroke-linejoin:miter;stroke-opacity:1" />
      <path
         id="path2476"
         d="M 237.14286,236.6479 C 230.41866,228.55818 211.01267,229.3664 198.57143,225.21933 C 179.32815,218.8049 151.59318,218.07647 131.42857,218.07647 C 116.42141,218.07647 100.77691,213.79075 87.142857,213.79075 C 72.166693,213.79075 59.300615,210.93361 44.285714,210.93361 C 33.157771,210.93361 21.753456,210.29721 11.428571,212.36218 C -3.1998608,215.28787 -18.025381,227.53042 -28.571429,238.07647 C -39.140799,248.64584 -47.652253,258.58586 -58.571429,269.50504 C -67.557032,278.49064 -70.576894,290.08193 -78.571429,298.07647 C -84.664139,304.16918 -92.238118,317.02894 -94.285714,325.21933 C -97.445891,337.86003 -87.609584,344.12083 -81.428571,352.36218 C -74.372275,361.77058 -49.257093,370.73771 -38.571429,373.79075 C -14.947688,380.54039 11.561277,382.36218 37.142857,382.36218 C 58.344756,382.36218 77.081693,378.07647 97.142857,378.07647 C 117.78058,378.07647 141.85109,366.7646 160,359.50504 C 182.252,350.60424 199.42037,340.42425 220,328.07647 C 233.70448,319.85378 243.60114,301.81904 258.57143,298.07647 C 266.73117,296.03653 275.71568,282.36032 280,276.6479 C 289.304,264.24256 259.99011,272.36713 257.14286,273.79075 C 247.2103,278.75703 233.63659,287.98959 227.14286,296.6479 C 222.21558,303.21759 203.95554,312.77997 194.28571,316.6479 C 190.33117,318.22972 186.66667,320.45742 182.85714,322.36218 C 180.95238,323.31456 179.04762,324.26694 177.14286,325.21933 C 164.96119,331.31016 155.67441,339.15786 142.85714,342.36218 C 130.39965,345.47656 122.06752,350.77387 110,353.79075 C 101.23905,355.98099 113.35581,332.17348 114.28571,330.93361 C 122.95375,319.37624 134.82287,313.2536 145.71429,302.36218 C 155.87808,292.19838 171.83627,284.48482 184.28571,279.50504 C 192.56041,276.19516 203.01135,270.46081 210,265.21933 C 216.92971,260.02205 224.429,256.18329 231.42857,250.93361 C 237.5804,246.31974 238.65416,244.2044 237.14286,236.6479 z"
         style="fill:#e6e6e6;fill-rule:evenodd;stroke:#000000;stroke-width:1px;stroke-linecap:butt;stroke-linejoin:miter;stroke-opacity:1" />
      <path
         id="path2488"
         d="M 2.8571429,228.07647 C 9.6070758,226.37919 38.735864,232.36218 54.285714,232.36218 C 81.361176,232.36218 104.64641,236.6479 131.42857,236.6479 C 142.46194,236.6479 152.94035,239.50504 164.28571,239.50504"
         style="fill:none;fill-rule:evenodd;stroke:#000000;stroke-width:1px;stroke-linecap:butt;stroke-linejoin:miter;stroke-opacity:1" />
      <path
         id="path2490"
         d="M -14.285714,242.36218 C -0.20028366,242.36218 25.308512,246.6479 44.285714,246.6479"
         style="fill:none;fill-rule:evenodd;stroke:#000000;stroke-width:1px;stroke-linecap:butt;stroke-linejoin:miter;stroke-opacity:1" />
      <path
         id="path2492"
         d="M -20,253.79075 C -12.448023,253.79075 11.64404,255.98748 25.714286,259.50504 C 29.896202,260.55052 32.82073,260.93361 37.142857,260.93361"
         style="fill:none;fill-rule:evenodd;stroke:#000000;stroke-width:1px;stroke-linecap:butt;stroke-linejoin:miter;stroke-opacity:1" />
      <path
         id="path2494"
         d="M -34.285714,265.21933 C -23.706198,267.8642 -2.4595016,268.38084 12.857143,270.93361 C 13.796566,271.09018 14.761905,270.93361 15.714286,270.93361"
         style="fill:none;fill-rule:evenodd;stroke:#000000;stroke-width:1px;stroke-linecap:butt;stroke-linejoin:miter;stroke-opacity:1" />
      <path
         id="path2496"
         d="M -37.142857,276.6479 C -25.258912,278.62855 -0.20220554,286.6479 14.285714,286.6479"
         style="fill:none;fill-rule:evenodd;stroke:#000000;stroke-width:1px;stroke-linecap:butt;stroke-linejoin:miter;stroke-opacity:1" />
      <path
         id="path2500"
         d="M -47.142857,289.50504 C -49.385328,298.47493 -28.269826,291.08441 -20,295.21933 C -16.566142,296.93625 -13.333333,299.02885 -10,300.93361 C -7.4850872,302.3707 -4.2857143,301.88599 -1.4285714,302.36218"
         style="fill:none;fill-rule:evenodd;stroke:#000000;stroke-width:1px;stroke-linecap:butt;stroke-linejoin:miter;stroke-opacity:1" />
      <path
         id="path2504"
         d="M 68.571429,248.07647 C 56.375001,254.17468 95.460069,252.90179 108.57143,256.6479 C 120.82314,260.14839 135.62035,258.07647 148.57143,258.07647 C 154.00351,258.07647 117.161,288.05832 111.42857,293.79075 C 94.41081,310.80851 96.728329,316.6479 70,316.6479 C 58.777997,316.6479 51.299978,313.40146 41.428571,310.93361 C 31.851215,308.53927 26.017236,310.80368 18.571429,305.21933 C 14.284418,302.00407 36.395256,283.99431 38.571429,282.36218 C 39.423264,281.72331 40.47619,281.4098 41.428571,280.93361 C 50.608552,276.34362 61.169453,263.18386 67.142857,255.21933 C 68.59972,253.27684 68.095238,250.45742 68.571429,248.07647 z"
         style="fill:none;fill-rule:evenodd;stroke:#000000;stroke-width:1px;stroke-linecap:butt;stroke-linejoin:miter;stroke-opacity:1" />
      <path
         id="path2506"
         d="M 78.571429,273.79075 C 82.857143,268.07647 65.714286,283.79075 65.714286,290.93361 C 65.714286,297.77095 81.495425,297.02175 85.714286,298.07647 C 96.198534,300.69753 97.13572,285.24787 98.571429,279.50504 C 101.29593,268.60702 84.449152,271.43966 78.571429,273.79075 z"
         style="fill:none;fill-rule:evenodd;stroke:#000000;stroke-width:1px;stroke-linecap:butt;stroke-linejoin:miter;stroke-opacity:1" />
      <path
         id="path2508"
         d="M 77.142857,283.79075 C 78.418521,278.6881 89.137976,288.93849 92.857143,285.21933"
         style="fill:none;fill-rule:evenodd;stroke:#000000;stroke-width:1px;stroke-linecap:butt;stroke-linejoin:miter;stroke-opacity:1" />
      <path
         id="path2510"
         d="M 81.25,277.36218 C 81.403904,276.74657 83.21704,276.46932 84.642857,276.46932"
         style="fill:none;fill-rule:evenodd;stroke:#000000;stroke-width:1px;stroke-linecap:butt;stroke-linejoin:miter;stroke-opacity:1" />
      <path
         id="path2512"
         d="M 87.5,277.18361 C 87.569928,276.9039 89.661133,277.90246 90.357143,278.07647"
         style="fill:none;fill-rule:evenodd;stroke:#000000;stroke-width:1px;stroke-linecap:butt;stroke-linejoin:miter;stroke-opacity:1" />
      <path
         id="path2514"
         d="M 73.928572,277.8979 C 74.068614,277.93291 69.821429,277.77396 69.821429,274.86218 C 69.821429,272.55329 71.689257,271.51755 73.214286,270.75504 C 75.265389,269.72949 78.439562,269.50504 80.714286,269.50504 C 82.302224,269.50504 85.576402,268.53909 86.964286,268.07647 C 91.569112,266.54152 98.757482,268.79075 103.21429,268.79075 C 104.51329,268.79075 111.89582,268.33834 112.5,270.75504 C 112.89366,272.32966 109.53604,274.41192 108.75,275.04075 C 106.70041,276.68042 103.73963,276.74237 101.42857,277.8979 C 100.9807,278.12183 99.794814,278.07647 99.285714,278.07647"
         style="fill:none;fill-rule:evenodd;stroke:#000000;stroke-width:1px;stroke-linecap:butt;stroke-linejoin:miter;stroke-opacity:1" />
      <path
         id="path2516"
         d="M 80.178572,268.96932 C 80.04107,269.03807 81.112579,265.85131 83.035714,262.00504 C 83.996372,260.08372 83.734731,259.65042 85.357143,258.43361 C 87.239323,257.02197 93.903457,257.54075 96.428572,257.54075 C 98.536564,257.54075 99.659794,257.54922 101.42857,258.43361 C 103.22491,259.33178 103.04781,261.61765 102.32143,263.43361 C 101.8,264.73717 102.48212,266.71944 102.14286,268.07647"
         style="fill:none;fill-rule:evenodd;stroke:#000000;stroke-width:1px;stroke-linecap:butt;stroke-linejoin:miter;stroke-opacity:1" />
      <path
         id="path2518"
         d="M 66.071429,292.18361 C 65.921221,292.55913 62.81112,286.9245 62.142857,285.75504 C 61.535933,284.69292 61.539878,283.34312 61.25,282.18361 C 61.037717,281.33448 57.704989,284.30005 57.5,284.50504 C 56.066716,285.93832 54.927925,286.75762 54.464286,288.61218 C 54.196827,289.68202 55.090208,290.81579 55.714286,291.6479 C 57.089069,293.48094 59.05476,294.55424 60.357143,296.29075 C 61.384413,297.66045 62.718443,298.89043 63.392857,300.57647 C 63.786321,301.56013 63.041974,302.7068 62.678572,303.43361 C 61.835739,305.11927 60.298156,307.2426 58.928572,308.61218 C 57.686863,309.85389 56.544283,311.35361 55.178572,312.71932 C 55.059524,312.83837 54.940476,312.95742 54.821429,313.07647"
         style="fill:none;fill-rule:evenodd;stroke:#000000;stroke-width:1px;stroke-linecap:butt;stroke-linejoin:miter;stroke-opacity:1" />
      <path
         id="path2528"
         d="M 91.785714,297.00504 C 91.428572,295.57647 95.030187,296.97485 96.071429,295.93361 C 96.204528,295.80051 96.428572,295.81456 96.607143,295.75504 C 98.279729,295.19751 100.05178,291.93826 101.42857,291.11218 C 103.39309,289.93347 103.79328,287.32538 106.07143,289.1479 C 107.3983,290.20939 107.5,290.19081 107.5,292.00504 C 107.5,294.23338 103.9214,298.08364 102.32143,299.68361 C 101.36698,300.63806 100.55737,302.14031 100,303.25504 C 99.517349,304.22034 99.045839,305.16336 98.571429,306.11218"
         style="fill:none;fill-rule:evenodd;stroke:#000000;stroke-width:1px;stroke-linecap:butt;stroke-linejoin:miter;stroke-opacity:1" />
      <path
         id="path2530"
         d="M 36.964286,296.11218 C 36.537537,296.96568 34.96064,295.50686 34.107143,295.93361 C 32.979815,296.49727 32.579804,297.40011 32.321429,298.43361 C 31.995608,299.73689 32.508375,300.03238 31.428571,301.11218 C 30.503131,302.03762 30.887329,302.831 31.607143,303.79075 C 32.43443,304.8938 33.638521,304.98274 34.821429,305.21932 C 36.141189,305.48328 37.583367,305.75504 39.107143,305.75504 C 40.51852,305.75504 41.150486,305.5901 41.964286,304.50504 C 42.516329,303.76898 42.321429,302.73233 42.321429,301.82647 C 42.321429,301.04285 44.464286,300.26311 44.464286,298.96932 C 44.464286,297.92682 43.326246,297.13365 42.678572,296.6479 C 42.051754,296.17778 40.468726,296.29075 39.642857,296.29075 C 38.38726,296.29075 38.391126,295.54144 36.964286,296.11218 z"
         style="fill:none;fill-rule:evenodd;stroke:#000000;stroke-width:1px;stroke-linecap:butt;stroke-linejoin:miter;stroke-opacity:1" />
      <path
         id="path2532"
         d="M 44.642857,298.07647 C 44.184109,298.07647 46.403149,300.01533 46.785714,300.3979 C 47.660331,301.27251 48.516473,302.0902 49.642857,302.54075 C 50.685198,302.95769 51.398798,303.10624 52.142857,302.36218 C 52.902425,301.60261 52.34672,300.43162 51.785714,299.68361 C 51.148294,298.83372 49.968079,298.14979 49.107143,297.71932 C 47.925208,297.12836 47.765302,296.30097 48.035714,295.21932 C 48.248327,294.36887 49.747707,294.00618 50.535714,293.61218 C 51.345207,293.20743 52.321429,291.23351 52.321429,290.3979 C 52.321429,289.09634 51.456501,288.37894 50.357143,287.71932 C 49.469163,287.18654 47.569307,286.46932 46.428572,286.46932 C 45.33087,286.46932 44.185661,286.29075 43.035714,286.29075 C 41.778962,286.29075 40.551417,286.46147 39.464286,287.00504 C 38.294851,287.58976 37.639125,288.23425 37.321429,289.50504 C 37.061182,290.54602 37.276868,291.46921 36.607143,292.36218 C 36.170478,292.9444 32.618442,292.96744 31.964286,293.07647 C 30.20346,293.36994 28.709699,293.75156 27.321429,294.86218 C 25.728797,296.13629 27.754187,296.6479 28.928571,296.6479 C 30.29092,296.6479 31.865578,296.02478 33.214286,295.75504 C 33.331022,295.73169 33.452381,295.75504 33.571429,295.75504"
         style="fill:none;fill-rule:evenodd;stroke:#000000;stroke-width:1px;stroke-linecap:butt;stroke-linejoin:miter;stroke-opacity:1" />
      <path
         id="path2534"
         d="M 39.285714,286.46932 C 40.55958,286.46932 41.302337,284.91221 42.321429,284.1479 C 43.030698,283.61594 44.87739,283.10712 45.714286,282.8979 C 46.885366,282.60513 48.008108,282.70552 49.107143,283.25504 C 50.223486,283.81321 51.248776,284.68116 51.785714,285.75504 C 52.310312,286.80423 52.061811,287.52427 51.607143,288.43361"
         style="fill:none;fill-rule:evenodd;stroke:#000000;stroke-width:1px;stroke-linecap:butt;stroke-linejoin:miter;stroke-opacity:1" />
      <path
         id="path2536"
         d="M 52.5,287.00504 C 52.645921,287.29688 54.576707,286.08408 55.178572,285.93361 C 56.475176,285.60946 57.160292,284.4876 58.035714,283.61218 C 58.994817,282.65308 60.006,281.91125 61.071429,281.11218 C 61.93808,280.46219 62.407411,279.27135 63.035714,278.43361 C 63.914688,277.26164 64.615004,276.61022 65.892857,276.29075 C 67.316282,275.9349 66.269827,274.28675 66.071429,273.79075 C 65.767207,273.0302 63.04868,273.47501 62.5,273.61218 C 61.592235,273.83912 61.026589,275.66615 60.714286,276.29075 C 60.224073,277.27118 59.376033,277.89377 59.107143,278.96932 C 58.849687,279.99915 57.547637,280.71931 56.785714,281.29075 C 55.842892,281.99787 54.863034,282.79821 53.75,283.07647 C 52.84346,283.3031 51.756712,283.03907 50.892857,283.25504 C 50.710247,283.30069 50.535714,283.37409 50.357143,283.43361"
         style="fill:none;fill-rule:evenodd;stroke:#000000;stroke-width:1px;stroke-linecap:butt;stroke-linejoin:miter;stroke-opacity:1" />
      <path
         id="path2538"
         d="M 61.071429,281.46932 C 59.991114,281.7394 58.412494,279.81263 56.785714,280.21932 C 55.466513,280.54912 58.625449,283.07316 58.928572,283.25504 C 59.112603,283.36546 59.285714,283.49313 59.464286,283.61218"
         style="fill:none;fill-rule:evenodd;stroke:#000000;stroke-width:1px;stroke-linecap:butt;stroke-linejoin:miter;stroke-opacity:1" />
      <path
         id="path2540"
         d="M 58.035714,284.1479 C 60.897468,285.86495 54.925719,282.29897 53.75,282.00504 C 52.378474,281.66216 54.622037,284.65585 54.642857,284.68361 C 54.979785,285.13285 55.595238,285.27885 56.071429,285.57647 C 56.222857,285.67111 56.428572,285.57647 56.607143,285.57647"
         style="fill:none;fill-rule:evenodd;stroke:#000000;stroke-width:1px;stroke-linecap:butt;stroke-linejoin:miter;stroke-opacity:1" />
      <path
         id="path2542"
         d="M 45.357143,282.71932 C 45.447409,282.77574 47.630261,280.16627 48.75,279.32647 C 49.784332,278.55072 51.119863,278.19995 52.321429,277.71932 C 54.761568,276.74327 52.529986,275.88408 51.607143,275.57647 C 50.403505,275.17525 49.12401,276.55018 48.214286,277.00504 C 47.26995,277.47721 46.290396,278.92893 45.535714,279.68361 C 45.297619,279.9217 45.059524,280.1598 44.821429,280.3979 C 43.885939,281.33338 43.736512,282.7463 43.214286,283.79075 C 42.977387,284.26455 43.297619,284.04075 43.392857,284.32647"
         style="fill:none;fill-rule:evenodd;stroke:#000000;stroke-width:1px;stroke-linecap:butt;stroke-linejoin:miter;stroke-opacity:1" />
      <path
         id="path2544"
         d="M -55.714286,322.36218 C -46.634114,324.60672 -28.086863,326.6479 -12.857143,326.6479 C 4.5705673,326.6479 27.209921,331.80417 44.285714,335.21933 C 50.308571,336.4239 58.037411,335.21933 64.285714,335.21933"
         style="fill:none;fill-rule:evenodd;stroke:#000000;stroke-width:1px;stroke-linecap:butt;stroke-linejoin:miter;stroke-opacity:1" />
      <path
         id="path2558"
         d="M -67.142857,346.6479 C -61.551875,347.76609 -43.119604,355.08809 -34.285714,359.50504 C -18.996142,367.14983 1.8444969,361.85586 17.142857,369.50504 C 25.59476,373.73099 57.791871,370.05707 65.714286,368.07647 C 70.578061,366.86052 75.429281,367.79058 80,366.6479"
         style="fill:none;fill-rule:evenodd;stroke:#000000;stroke-width:1px;stroke-linecap:butt;stroke-linejoin:miter;stroke-opacity:1" />
      <path
         d="M 21.663654,220.2146 C 22.415604,220.41196 23.022372,220.82377 23.533978,221.39814 C 24.113313,222.13506 24.038421,223.02374 23.929289,223.8984 C 23.606759,225.4253 22.589508,226.61835 21.526915,227.7039 C 20.164656,228.94461 18.61796,229.68431 16.945861,230.5954 C 16.808061,230.67048 16.647715,230.7087 16.490995,230.71678 C 16.10874,230.7365 15.833935,230.57956 15.492718,230.44186 C 14.380802,229.61598 13.735425,228.37608 13.150978,227.15272 C 12.631874,226.02823 12.643135,225.02631 12.996937,223.86274 C 13.344424,222.95656 14.037488,222.34177 14.771721,221.75139 C 16.594261,220.52605 18.479972,219.33411 20.587094,218.68841 C 21.554897,218.41761 22.557968,218.44071 23.552473,218.42583 C 24.497545,218.41306 25.442671,218.39872 26.387851,218.40036 C 27.106624,218.40247 27.825353,218.4051 28.544131,218.40241 C 29.424679,218.38125 30.297651,218.5088 31.174087,218.57603 C 32.189904,218.65592 33.16558,218.90105 34.152996,219.13344 C 35.467772,219.28319 36.575223,219.68092 37.773304,220.23032 C 38.924711,220.86239 40.199662,221.17579 41.415133,221.63966 C 42.906647,222.46467 44.509594,223.02497 46.108267,223.59597 C 47.619197,224.14938 49.211747,224.3444 50.806521,224.45112 C 52.333862,224.52579 53.863679,224.5104 55.392233,224.49813 C 56.475667,224.4219 57.566191,224.37096 58.642176,224.21724 C 59.192236,224.13389 58.921501,224.174 59.454357,224.09676 L 56.499156,226.30774 C 55.97265,226.37985 56.241351,226.34352 55.693037,226.41661 C 54.619434,226.53288 53.538073,226.57931 52.459803,226.62954 C 50.934032,226.62307 49.407527,226.61799 47.883203,226.54396 C 46.271457,226.42615 44.671622,226.16426 43.152217,225.59185 C 41.544529,225.01264 39.944434,224.41493 38.403054,223.67216 C 37.169852,223.25044 35.937346,222.83497 34.782141,222.21863 C 34.100414,221.92805 33.428874,221.66474 32.7026,221.50466 C 32.26489,221.40818 32.038259,221.40019 31.6077,221.32026 C 31.449308,221.29085 31.29269,221.25259 31.135184,221.21876 C 30.16224,220.97861 29.187587,220.77703 28.18419,220.71113 C 27.306784,220.63439 26.429113,220.54055 25.546855,220.57965 C 24.829716,220.57564 24.112588,220.57647 23.395455,220.5729 C 22.470325,220.56818 21.545138,220.5474 20.620011,220.5665 C 19.630536,220.59624 18.630637,220.63677 17.680798,220.94442 C 17.254141,221.09462 16.826847,221.24651 16.418385,221.44262 C 16.269212,221.51424 15.836092,221.75698 15.978467,221.67265 C 17.746684,220.62534 19.707057,219.528 18.17557,220.38759 C 17.460918,220.94326 16.736247,221.48061 16.314018,222.30876 C 15.885826,223.41511 15.854911,224.25309 16.308941,225.36767 C 16.819969,226.51604 17.424765,227.69876 18.523944,228.38384 C 18.904714,228.47836 19.007847,228.5557 19.393813,228.46038 C 19.533892,228.42579 19.916425,228.21872 19.793591,228.29442 C 14.673396,231.44987 17.198133,229.89116 18.209833,229.07396 C 19.266316,228.08093 20.270322,226.9559 20.647898,225.52016 C 20.740504,224.75307 20.877327,223.97281 20.369079,223.31394 C 19.896743,222.79103 19.307643,222.4544 18.599866,222.36417 L 21.663654,220.2146 z"
         id="path2570"
         style="fill:#000000;stroke-width:5;stroke-miterlimit:4;stroke-dasharray:none" />
      <path
         d="M 38.819635,222.01179 C 39.079055,223.02424 39.152877,224.07013 39.151777,225.11123 C 39.206577,226.58569 38.89143,228.01593 38.517611,229.43127 C 38.247602,230.33467 38.077016,231.27132 37.737351,232.15322 C 37.536481,232.67476 37.323508,233.09178 37.081126,233.59754 C 36.419229,234.81478 35.847715,236.07162 35.123637,237.25333 C 34.553527,238.05528 34.07257,238.91428 33.523927,239.73013 C 33.122243,240.34121 32.538634,240.77857 32.004783,241.26227 C 31.955242,241.32053 31.905702,241.37878 31.856161,241.43704 L 28.439789,242.92284 C 28.486973,242.84273 28.534158,242.76262 28.581342,242.68251 C 29.060784,242.1461 29.712086,241.78474 30.148291,241.19891 C 30.727942,240.39497 31.192104,239.51866 31.788455,238.72686 C 31.994726,238.39378 32.224263,238.07509 32.421833,237.73677 C 32.925367,236.87451 33.282844,235.92816 33.816724,235.08144 C 34.13297,234.41809 34.479553,233.74946 34.701952,233.04618 C 34.916152,232.36883 35.051646,231.66269 35.263667,230.98411 C 35.634443,229.59846 35.993622,228.20193 35.930523,226.75517 C 35.916394,225.77596 35.86167,224.77476 35.547408,223.83909 L 38.819635,222.01179 z"
         id="path2572"
         style="fill:#000000;stroke-width:5;stroke-miterlimit:4;stroke-dasharray:none" />
      <path
         d="M 61.989214,233.52476 C 61.383153,234.53479 60.524358,235.36994 59.788256,236.28778 C 58.864696,237.39907 57.874033,238.45031 56.933483,239.54828 C 56.14574,240.51193 55.346258,241.4681 54.699855,242.5345 L 51.34471,244.0276 C 51.965816,242.9092 52.838326,241.96858 53.609487,240.95482 C 54.548239,239.86358 55.51404,238.79957 56.455518,237.71247 C 57.153687,236.83009 57.899547,235.99255 58.603184,235.11497 L 61.989214,233.52476 z"
         id="path2576"
         style="fill:#000000;stroke-width:5;stroke-miterlimit:4;stroke-dasharray:none" />
      <path
         d="M 61.718827,230.69525 C 61.43735,230.69382 61.111418,230.68417 60.839809,230.77465 C 60.749617,230.80469 60.507675,230.95981 60.590642,230.9134 C 63.636316,229.20979 64.354446,228.44624 63.375777,229.43963 C 63.035852,229.96513 63.119846,230.19113 63.682039,230.39173 C 63.95623,230.44123 64.04926,230.49008 64.332027,230.40466 C 64.468799,230.36335 64.847158,230.15795 64.722229,230.22728 C 63.847878,230.71248 62.994607,231.24248 62.082737,231.65285 C 61.857333,231.75428 62.462384,231.33558 62.640443,231.16414 C 62.813782,230.99724 62.970641,230.81404 63.13574,230.63898 C 63.623511,230.08381 63.98686,229.47447 64.169104,228.76073 L 67.483624,227.1616 C 67.328532,227.9718 66.981837,228.59753 66.46258,229.24271 C 64.9459,230.96676 64.641183,230.92212 61.817584,232.48024 C 61.438551,232.6894 60.960157,232.5633 60.582681,232.44771 C 59.922956,232.09543 59.655141,231.65058 59.964009,230.91775 C 60.859543,229.25757 62.962178,228.51327 64.753239,228.49062 L 61.718827,230.69525 z"
         id="path2578"
         style="fill:#000000;stroke-width:5;stroke-miterlimit:4;stroke-dasharray:none" />
      <path
         d="M 81.41408,235.5966 C 81.370279,234.59866 81.662386,233.84743 82.156377,232.99601 C 82.553153,232.44266 83.043481,231.94167 83.632931,231.5906 C 85.476702,230.49247 86.494186,229.63485 88.288885,229.17569 C 88.998465,229.04692 89.938749,228.84582 90.41958,229.56844 C 90.521834,229.72212 90.572082,229.90464 90.648333,230.07274 C 90.681151,230.27872 90.742316,230.48214 90.746786,230.69067 C 90.778007,232.14716 89.843952,233.8994 89.179888,235.14958 C 88.03488,236.95842 86.622682,238.57646 85.170616,240.14203 C 84.07723,241.36014 82.830275,242.42754 81.711176,243.62052 C 81.679829,243.66452 81.647752,243.79704 81.617137,243.75253 C 80.744339,242.48349 85.277952,241.47376 78.596097,244.94747 C 78.416676,245.04074 78.923352,244.7096 79.081446,244.58351 C 79.640444,244.13767 79.854685,243.92687 80.402028,243.43161 C 82.328593,241.59057 84.209351,239.70192 86.085676,237.80987 C 87.767088,236.03617 89.508089,234.33092 91.462303,232.8598 C 93.894159,231.07174 96.497557,229.37454 99.401326,228.48648 C 100.78682,228.20399 101.39455,228.48867 102.08942,229.69203 C 102.57921,230.98094 102.64489,232.23329 102.50068,233.58985 C 102.23872,234.99893 101.64367,236.36653 100.74453,237.49149 C 100.52362,237.76789 100.271,238.01738 100.03424,238.28032 C 98.459089,239.82363 96.760458,241.23293 95.147643,242.73678 C 94.275863,243.55738 93.397917,244.36942 92.472733,245.12949 C 91.329462,246.09121 91.337148,245.80052 88.749725,246.74013 C 88.633947,246.78218 88.945074,246.59003 89.043642,246.51616 C 89.760093,245.97924 89.520468,246.15807 90.375107,245.57273 C 92.291189,244.2934 94.13184,242.90823 95.892298,241.42297 C 97.602903,239.93917 99.264537,238.40642 100.83635,236.77642 C 101.92898,235.70752 102.90044,234.52842 103.91815,233.39149 C 105.48696,232.03517 107.34229,230.83044 109.3792,230.35763 C 110.05803,230.29616 110.58092,230.61912 110.95194,231.16269 C 111.40665,232.32415 110.98761,233.6478 110.70542,234.80378 C 110.34959,236.45224 109.84549,238.06777 109.26429,239.64988 C 109.03135,240.15955 108.86176,240.69985 108.60748,241.20018 C 108.4052,241.5982 108.1281,241.95637 107.88808,242.33162 C 107.21895,243.27706 106.54704,244.23182 105.76269,245.08645 C 104.9846,245.84197 104.13484,246.5197 103.27552,247.17972 C 103.16233,247.26296 103.04913,247.34621 102.93594,247.42946 L 99.511659,248.78481 C 99.628458,248.70132 99.745257,248.61784 99.862055,248.53435 C 100.74501,247.9067 101.58064,247.21116 102.38697,246.48836 C 103.21464,245.701 103.84635,244.73329 104.52897,243.82238 C 104.60374,243.68654 104.66932,243.54522 104.75329,243.41486 C 105.0138,243.0104 105.01714,243.12999 105.2681,242.7172 C 105.46437,242.39437 105.56689,242.09492 105.72162,241.74853 C 105.80826,241.55456 105.90006,241.36293 105.98928,241.17013 C 106.61395,239.6092 107.14532,238.00575 107.4764,236.3549 C 107.72148,235.30275 108.12119,234.11589 107.73971,233.05154 C 107.4283,232.60519 106.96633,232.47745 106.44034,232.61209 C 106.14733,232.70106 106.07062,232.7158 105.78142,232.84064 C 105.65568,232.89492 105.29266,233.08694 105.41001,233.01633 C 106.31339,232.47277 107.23403,231.95835 108.14104,231.42087 C 108.28393,231.3362 107.8416,231.5667 107.70268,231.65773 C 107.55264,231.75604 107.41892,231.87725 107.27705,231.98701 C 106.18853,233.10158 105.24271,234.35614 104.09674,235.4196 C 103.98655,235.53313 102.67826,236.8825 102.59044,236.96715 C 101.46947,238.04781 100.28426,239.05866 99.135754,240.10931 C 97.405062,241.60452 95.575539,242.97663 93.69006,244.27106 C 93.447252,244.43703 93.200775,244.59775 92.961635,244.76896 C 92.797704,244.88632 92.639269,245.01125 92.481265,245.13648 C 92.400353,245.20061 92.339588,245.29529 92.24509,245.33688 C 91.072317,245.85301 89.884384,246.33466 88.692137,246.80406 C 88.546778,246.86129 89.403859,246.25412 89.053002,246.50503 C 90.016651,245.72911 90.962178,244.93529 91.861582,244.08405 C 93.48004,242.58149 95.180675,241.17029 96.777134,239.64455 C 97.010427,239.39877 97.257795,239.16562 97.477015,238.9072 C 98.374866,237.84883 98.979821,236.53578 99.277708,235.18815 C 99.416028,233.95487 99.370306,232.69839 98.916705,231.52697 C 98.274844,230.45606 97.728174,230.41895 96.547171,230.69805 C 95.83875,230.9344 95.842495,230.91388 95.120868,231.24271 C 94.839631,231.37087 94.028885,231.81787 94.286645,231.64735 C 94.999365,231.17585 95.742399,230.75069 96.490102,230.3369 C 97.121926,229.98725 93.909052,231.94643 94.710041,231.57162 C 94.387459,231.8037 94.055679,232.0235 93.742293,232.26786 C 92.115111,233.53662 90.718121,235.07004 89.241065,236.50183 C 87.389117,238.35926 85.563078,240.24254 83.693291,242.08208 C 82.68064,243.05292 78.75384,246.93365 78.197069,245.25479 C 78.169379,245.1713 78.288385,245.10442 78.334043,245.02923 C 79.495097,243.82445 80.778676,242.74233 81.90707,241.5056 C 83.373816,239.9671 84.77485,238.3586 85.962663,236.59141 C 86.604599,235.4444 87.498882,233.74326 87.521885,232.39328 C 87.524826,232.22071 87.477187,232.05099 87.454838,231.87984 C 87.395531,231.75777 87.357814,231.6226 87.276917,231.51363 C 86.86362,230.95693 85.916687,231.31911 85.389689,231.41 C 84.141365,231.81873 82.304978,232.97293 87.008008,230.26685 C 87.198263,230.15738 86.630598,230.492 86.451651,230.61912 C 86.266299,230.75079 86.082533,230.88671 85.916603,231.04215 C 85.76015,231.1887 85.630932,231.36185 85.488097,231.5217 C 85.016368,232.26074 84.622312,232.98902 84.756014,233.89379 L 81.41408,235.5966 z"
         id="path2584"
         style="fill:#000000;stroke-width:5;stroke-miterlimit:4;stroke-dasharray:none" />
      <path
         d="M 125.20429,236.62957 C 125.29377,236.64495 125.38526,236.65135 125.47273,236.67569 C 125.59617,236.71004 125.71405,236.7619 125.83472,236.80501 C 125.97049,236.84701 126.1049,236.89367 126.24202,236.931 C 126.81026,237.08568 127.38354,237.15213 127.96721,237.2192 C 130.46972,237.56587 132.97233,237.92231 135.48298,238.2113 C 137.94037,238.46441 140.4088,238.58683 142.87825,238.62316 C 143.41578,238.56647 144.00167,238.6341 144.51511,238.41955 C 144.66261,238.35792 145.06588,238.0948 144.92636,238.17283 C 142.16697,239.71613 141.36433,240.34344 142.58114,239.43022 C 143.1523,238.89511 143.50373,238.53209 143.23429,237.73841 C 142.85421,236.93729 142.04136,236.60628 141.28913,236.23608 C 139.97526,235.73199 138.64197,235.28389 137.32493,234.78663 C 136.33038,234.40356 135.28171,234.27969 134.22675,234.21904 C 133.30718,234.21578 132.37918,234.12761 131.45965,234.18075 C 131.23404,234.19379 130.37992,234.31706 130.15641,234.34812 C 129.48068,234.46572 128.85451,234.72427 128.25498,235.04992 C 128.04549,235.16371 127.42911,235.52659 127.63757,235.41092 C 130.19482,233.99199 130.90619,233.45086 129.5053,234.45213 C 128.32991,235.3228 127.3424,236.40374 126.40578,237.51839 C 125.7109,238.34324 125.30334,239.34765 124.97408,240.3629 C 124.79526,241.15208 124.58809,241.98739 124.65782,242.80531 C 124.6738,242.99265 124.72229,243.17578 124.75453,243.36101 C 125.20028,244.75737 126.08153,245.95895 127.12194,246.97132 C 127.85318,247.6893 128.65202,248.34095 129.53987,248.85773 C 129.73621,248.97201 130.80461,249.49322 130.97322,249.57624 C 132.66223,250.40023 134.52656,250.57714 136.37308,250.70575 C 138.18143,250.79462 139.9927,250.78104 141.80267,250.78711 C 143.53602,250.80376 145.26934,250.78911 147.0026,250.77158 L 144.11849,252.86781 C 142.38909,252.8563 140.65966,252.85038 138.93032,252.87453 C 137.11734,252.8849 135.30236,252.89202 133.49256,252.76608 C 131.60577,252.61692 129.70481,252.41098 127.98899,251.5456 C 127.48314,251.30582 126.98918,251.08826 126.50907,250.79914 C 125.61114,250.25842 124.80306,249.58194 124.05521,248.85146 C 122.99119,247.76791 122.05189,246.52511 121.54426,245.07891 C 121.49726,244.8755 121.43156,244.67553 121.40325,244.46869 C 121.28758,243.62349 121.50416,242.74893 121.66404,241.92676 C 121.9739,240.86638 122.38356,239.80916 123.06969,238.93264 C 124.02487,237.814 124.98369,236.68627 126.15404,235.7812 C 127.85807,234.49274 126.71342,235.32336 130.44571,233.1426 C 131.25726,232.66842 132.12605,232.31292 133.06142,232.17974 C 134.43384,232.01444 135.81003,232.04685 137.19014,232.09284 C 138.27233,232.15949 139.33177,232.34292 140.33998,232.7616 C 141.65317,233.28106 142.9959,233.71594 144.30671,234.24078 C 145.18092,234.63686 146.0489,235.02293 146.47599,235.94124 C 146.82078,236.83755 146.65564,237.37272 145.98661,238.05951 C 144.62578,239.26395 145.49123,238.54005 142.05859,240.45955 C 141.91395,240.54043 141.75349,240.59232 141.5932,240.63439 C 141.06316,240.77352 140.5042,240.71635 139.96476,240.72524 C 137.54828,240.59888 135.13468,240.42271 132.72812,240.16704 C 130.15733,239.89675 127.59281,239.57771 125.02215,239.30939 C 124.04194,239.20346 123.10182,238.97593 122.1405,238.77915 L 125.20429,236.62957 z"
         id="path2586"
         style="fill:#000000;stroke-width:5;stroke-miterlimit:4;stroke-dasharray:none" />
      <path
         d="M 181.86055,240.31582 C 181.25108,239.62535 180.51182,239.12494 179.70334,238.69759 C 179.06141,238.46851 178.36787,238.30414 177.68175,238.29592 C 177.52604,238.29406 176.52849,238.38679 176.41955,238.39644 C 174.90762,238.49869 173.40386,238.67705 171.89638,238.82528 C 170.88256,238.85813 169.88477,239.04776 168.94561,239.43493 C 168.72256,239.52689 168.08183,239.86316 168.28913,239.73973 C 169.13249,239.23757 170.00055,238.77809 170.85626,238.29728 C 170.13465,238.75106 169.62187,239.33725 169.40477,240.16 C 169.28733,241.0845 169.72641,241.62206 170.47647,242.10001 C 172.04927,242.98502 173.89629,243.09091 175.6401,243.38994 C 176.97569,243.59925 178.32,243.73972 179.55978,244.30638 C 180.31628,244.66795 180.68277,245.31131 180.86897,246.09439 C 181.04893,247.0135 180.9285,247.93656 180.71641,248.83757 C 180.32427,250.00897 179.47698,250.93804 178.65093,251.82765 C 177.64482,252.74567 176.66146,253.69612 175.5504,254.48701 C 172.98171,256.10302 171.44082,257.11635 168.64669,257.38593 C 167.65006,257.51244 166.65931,257.38181 165.66721,257.29246 C 165.49978,257.24163 165.32587,257.20862 165.16491,257.13999 C 164.7564,256.96578 164.3341,256.67101 163.96594,256.43294 C 163.43186,256.08758 162.89199,255.75299 162.35411,255.41366 C 161.98417,255.15618 161.59732,254.92523 161.21855,254.68133 L 164.32512,252.68999 C 164.69307,252.93841 165.0624,253.18489 165.42426,253.44219 C 166.43533,254.11499 167.4416,254.93808 168.66194,255.15731 C 169.62965,255.24366 170.5973,255.35422 171.5677,255.21309 C 172.16599,255.13546 172.75013,255.04611 173.32909,254.86895 C 174.52723,254.50231 176.92725,253.13298 172.18754,255.80806 C 172.62384,255.51967 172.89889,255.35836 173.29379,255.0188 C 173.97164,254.43594 174.60413,253.79546 175.2952,253.2261 C 176.11963,252.39208 176.94892,251.4905 177.42581,250.40841 C 177.67364,249.57114 177.73591,248.7141 177.60328,247.84794 C 177.46734,247.15925 177.1683,246.63709 176.49833,246.33853 C 175.3031,245.80903 174.00818,245.65574 172.72996,245.43007 C 170.92292,245.12352 169.03287,244.94785 167.39014,244.07271 C 166.54884,243.472 166.03054,242.84885 166.07569,241.77004 C 166.24018,240.76722 166.64971,240.22032 167.47009,239.60795 C 170.53614,237.83671 171.5456,236.86529 174.8007,236.67107 C 176.30855,236.52078 177.81709,236.38347 179.32616,236.2462 C 180.50732,236.14686 181.68659,236.17816 182.7826,236.69031 C 183.59155,237.15967 184.32924,237.70626 185.02783,238.32636 L 181.86055,240.31582 z"
         id="path2588"
         style="fill:#000000;stroke-width:5;stroke-miterlimit:4;stroke-dasharray:none" />
    </g>
    <g
       id="g4288"
       transform="matrix(0.323439,0,0,0.323439,-36.757739,769.89555)">
      <path
         id="path3284"
         d="M 476.792,351.31632 C 474.9254,349.45357 454.02181,349.29601 440.42651,349.29601 C 420.4756,349.29601 401.92544,347.27571 381.83766,347.27571 C 361.78245,347.27571 343.09847,349.29601 323.24881,349.29601 C 305.93047,349.29601 301.88761,370.09107 299.00515,381.62089 C 293.31416,404.38487 305.06607,432.97357 305.06607,456.37218 C 305.06607,480.37769 311.12698,504.21871 311.12698,529.10316 C 311.12698,549.97043 305.74723,581.61951 294.96454,597.79354 C 289.45311,606.06069 292.52538,638.5445 294.96454,648.30116 C 297.98655,660.38919 368.61828,657.15555 381.83766,662.4433 C 398.67728,669.17915 431.13553,662.4433 450.52803,662.4433 C 472.07796,662.4433 493.62788,662.4433 515.1778,662.4433 C 537.61585,662.4433 573.47717,670.814 589.92909,654.36208 C 602.91264,641.37853 604.07122,598.81009 604.07122,581.6311 C 604.07122,576.91705 604.07122,572.20301 604.07122,567.48896 C 604.07122,550.6377 601.27819,509.37496 593.9697,494.75798 C 587.3546,481.52778 585.88848,451.21521 585.88848,436.16913 C 585.88848,420.68012 585.88848,405.19112 585.88848,389.70211 C 585.88848,376.63999 587.37914,367.446 579.82756,357.37723 C 573.63549,349.12114 549.93508,351.31632 539.42146,351.31632 C 524.62113,351.31632 511.60216,353.33662 496.99505,353.33662 C 489.62498,353.33662 484.59694,352.61714 476.792,351.31632 z"
         style="fill:#f9f9f9;fill-rule:evenodd;stroke:#000000;stroke-width:1px;stroke-linecap:butt;stroke-linejoin:miter;stroke-opacity:1" />
      <rect
         ry="0"
         y="425.58737"
         x="397.5199"
         height="75.711731"
         width="101.9757"
         id="rect3302"
         style="fill:#00ffff;stroke:#000000;stroke-width:4.03955746;stroke-miterlimit:4;stroke-dasharray:none;stroke-opacity:1" />
      <path
         id="path4074"
         d="M 402.04071,523.04225 C 413.2509,526.17562 440.66056,525.06255 458.60926,525.06255 C 474.66586,525.06255 483.13345,532.27955 499.01536,529.10316"
         style="fill:none;fill-rule:evenodd;stroke:#000000;stroke-width:1px;stroke-linecap:butt;stroke-linejoin:miter;stroke-opacity:1" />
      <path
         id="path4076"
         d="M 325.26912,420.00669 C 327.54523,420.00669 351.36687,417.98638 365.67522,417.98638"
         style="fill:none;fill-rule:evenodd;stroke:#000000;stroke-width:1px;stroke-linecap:butt;stroke-linejoin:miter;stroke-opacity:1" />
      <path
         id="path4078"
         d="M 323.24881,440.20974 C 326.26173,440.20974 352.31943,440.20974 367.69553,440.20974"
         style="fill:none;fill-rule:evenodd;stroke:#000000;stroke-width:1px;stroke-linecap:butt;stroke-linejoin:miter;stroke-opacity:1" />
      <path
         id="path4082"
         d="M 329.30973,462.4331 C 318.68137,464.20449 350.85965,462.4331 361.63461,462.4331"
         style="fill:none;fill-rule:evenodd;stroke:#000000;stroke-width:1px;stroke-linecap:butt;stroke-linejoin:miter;stroke-opacity:1" />
      <path
         id="path4084"
         d="M 331.33003,486.67676 C 329.29347,487.01618 360.13248,488.69706 369.71583,488.69706"
         style="fill:none;fill-rule:evenodd;stroke:#000000;stroke-width:1px;stroke-linecap:butt;stroke-linejoin:miter;stroke-opacity:1" />
      <path
         id="path4086"
         d="M 333.35034,514.96103 C 325.37907,516.28957 349.51278,514.96103 357.594,514.96103"
         style="fill:none;fill-rule:evenodd;stroke:#000000;stroke-width:1px;stroke-linecap:butt;stroke-linejoin:miter;stroke-opacity:1" />
      <path
         id="path4088"
         d="M 535.38085,428.08791 C 525.39465,429.75228 555.56148,430.10822 565.68543,430.10822"
         style="fill:none;fill-rule:evenodd;stroke:#000000;stroke-width:1px;stroke-linecap:butt;stroke-linejoin:miter;stroke-opacity:1" />
      <path
         id="path4090"
         d="M 531.34024,450.31127 C 518.71907,452.41479 556.93077,450.31127 569.72604,450.31127"
         style="fill:none;fill-rule:evenodd;stroke:#000000;stroke-width:1px;stroke-linecap:butt;stroke-linejoin:miter;stroke-opacity:1" />
      <path
         id="path4092"
         d="M 533.36054,472.53462 C 509.86328,476.45083 563.90931,472.53462 585.88848,472.53462"
         style="fill:none;fill-rule:evenodd;stroke:#000000;stroke-width:1px;stroke-linecap:butt;stroke-linejoin:miter;stroke-opacity:1" />
      <path
         id="path4094"
         d="M 525.27932,502.8392 C 511.32961,505.16415 553.56359,502.8392 567.70573,502.8392 C 569.72604,502.8392 571.74634,502.8392 573.76665,502.8392"
         style="fill:none;fill-rule:evenodd;stroke:#000000;stroke-width:1px;stroke-linecap:butt;stroke-linejoin:miter;stroke-opacity:1" />
      <path
         id="path4096"
         d="M 521.23871,533.14377 C 525.34096,533.14377 554.6847,531.12347 571.74634,531.12347"
         style="fill:none;fill-rule:evenodd;stroke:#000000;stroke-width:1px;stroke-linecap:butt;stroke-linejoin:miter;stroke-opacity:1" />
      <rect
         ry="0"
         y="591.95239"
         x="310.33664"
         height="56.128941"
         width="98.555344"
         id="rect4100"
         style="fill:#008080;stroke:#000000;stroke-width:3.41930103;stroke-miterlimit:4;stroke-dasharray:none;stroke-opacity:1" />
      <rect
         ry="0"
         y="591.55267"
         x="495.80496"
         height="32.684761"
         width="99.354828"
         id="rect4102"
         style="fill:#ff00ff;stroke:#000000;stroke-width:2.61981726;stroke-miterlimit:4;stroke-dasharray:none;stroke-opacity:1" />
      <rect
         ry="0"
         y="623.87756"
         x="495.80496"
         height="32.684761"
         width="99.354828"
         id="rect4104"
         style="fill:#ff0000;stroke:#000000;stroke-width:2.61981726;stroke-miterlimit:4;stroke-dasharray:none;stroke-opacity:1" />
      <path
         id="path4106"
         d="M 414.16254,599.81384 C 424.37546,599.81384 447.97771,599.81384 464.67017,599.81384 C 470.05765,599.81384 475.44513,599.81384 480.83261,599.81384"
         style="fill:none;fill-rule:evenodd;stroke:#000000;stroke-width:1px;stroke-linecap:butt;stroke-linejoin:miter;stroke-opacity:1" />
      <path
         id="path4108"
         d="M 412.14224,622.0372 C 422.02679,622.0372 444.31396,620.01689 460.62956,620.01689 C 465.56057,620.01689 470.05184,619.17655 474.7717,617.99659"
         style="fill:none;fill-rule:evenodd;stroke:#000000;stroke-width:1px;stroke-linecap:butt;stroke-linejoin:miter;stroke-opacity:1" />
      <path
         id="path4110"
         d="M 420.22346,642.24025 C 437.05933,642.24025 453.89521,642.24025 470.73109,642.24025"
         style="fill:none;fill-rule:evenodd;stroke:#000000;stroke-width:1px;stroke-linecap:butt;stroke-linejoin:miter;stroke-opacity:1" />
      <path
         id="path4112"
         d="M 335.37064,539.20469 C 340.89204,539.20469 352.14506,540.52083 361.63461,545.26561"
         style="fill:none;fill-rule:evenodd;stroke:#000000;stroke-width:1px;stroke-linecap:butt;stroke-linejoin:miter;stroke-opacity:1" />
      <path
         id="path4114"
         d="M 327.28942,571.52957 C 337.39095,571.52957 347.49248,571.52957 357.594,571.52957"
         style="fill:none;fill-rule:evenodd;stroke:#000000;stroke-width:1px;stroke-linecap:butt;stroke-linejoin:miter;stroke-opacity:1" />
      <path
         id="path4116"
         d="M 424.26407,567.48896 C 437.1662,567.48896 470.4319,571.67916 486.89353,563.44835"
         style="fill:none;fill-rule:evenodd;stroke:#000000;stroke-width:1px;stroke-linecap:butt;stroke-linejoin:miter;stroke-opacity:1" />
      <path
         id="path4118"
         d="M 531.34024,563.44835 C 532.44168,563.44835 546.10308,563.44835 553.56359,563.44835"
         style="fill:none;fill-rule:evenodd;stroke:#000000;stroke-width:1px;stroke-linecap:butt;stroke-linejoin:miter;stroke-opacity:1" />
      <path
         id="path4234"
         d="M 442.44681,442.23005 C 400.05098,463.42796 483.21207,427.31347 444.46712,456.37218 C 429.25112,467.78418 424.7998,466.47371 458.60926,466.47371 C 477.17311,466.47371 470.07746,484.31478 484.87322,480.61584 C 507.75625,474.89509 468.95049,459.52249 466.69048,458.39249 C 462.46131,456.2779 484.29744,443.67457 474.7717,434.14883 C 463.01074,422.38787 454.32312,464.94444 452.54834,468.49401 C 448.9431,475.7045 407.72418,505.61441 420.22346,480.61584 C 428.25998,464.5428 458.2263,475.97442 468.71078,478.59554 C 476.36279,480.50854 472.29443,476.80371 476.792,474.55493"
         style="fill:#ff00ff;fill-rule:evenodd;stroke:#000000;stroke-width:1px;stroke-linecap:butt;stroke-linejoin:miter;stroke-opacity:1" />
    </g>
    <g
       id="g4316"
       transform="matrix(0.323439,0,0,0.323439,68.545101,671.78049)">
      <path
         id="path4236"
         d="M 865.22323,662.96675 C 863.35663,661.104 842.45304,660.94644 828.85774,660.94644 C 808.90683,660.94644 790.35667,658.92614 770.26889,658.92614 C 750.21368,658.92614 731.5297,660.94644 711.68004,660.94644 C 694.3617,660.94644 690.31884,681.7415 687.43638,693.27132 C 681.74539,716.0353 693.4973,744.624 693.4973,768.02261 C 693.4973,792.02812 699.55821,815.86914 699.55821,840.75359 C 699.55821,861.62086 694.17846,893.26994 683.39577,909.44397 C 677.88434,917.71112 680.95661,950.19493 683.39577,959.95159 C 686.41778,972.03962 757.04951,968.80598 770.26889,974.09373 C 787.10851,980.82958 819.56676,974.09373 838.95926,974.09373 C 860.50919,974.09373 882.05911,974.09373 903.60903,974.09373 C 926.04708,974.09373 961.9084,982.46443 978.36032,966.01251 C 991.34387,953.02896 992.50245,910.46052 992.50245,893.28153 C 992.50245,888.56748 992.50245,883.85344 992.50245,879.13939 C 992.50245,862.28813 989.70942,821.02539 982.40093,806.40841 C 975.78583,793.17821 974.31971,762.86564 974.31971,747.81956 C 974.31971,732.33055 974.31971,716.84155 974.31971,701.35254 C 974.31971,688.29042 975.81037,679.09643 968.25879,669.02766 C 962.06672,660.77157 938.36631,662.96675 927.85269,662.96675 C 913.05236,662.96675 900.03339,664.98705 885.42628,664.98705 C 878.05621,664.98705 873.02817,664.26757 865.22323,662.96675 z"
         style="fill:#f9f9f9;fill-rule:evenodd;stroke:#000000;stroke-width:1px;stroke-linecap:butt;stroke-linejoin:miter;stroke-opacity:1" />
      <rect
         ry="0"
         y="737.23779"
         x="785.95117"
         height="75.711731"
         width="101.9757"
         id="rect4238"
         style="fill:#00ff00;stroke:#000000;stroke-width:4.03955746;stroke-miterlimit:4;stroke-dasharray:none;stroke-opacity:1" />
      <path
         id="path4240"
         d="M 790.47194,834.69268 C 801.68213,837.82605 829.09179,836.71298 847.04049,836.71298 C 863.09709,836.71298 871.56468,843.92998 887.44659,840.75359"
         style="fill:none;fill-rule:evenodd;stroke:#000000;stroke-width:1px;stroke-linecap:butt;stroke-linejoin:miter;stroke-opacity:1" />
      <path
         id="path4242"
         d="M 713.70035,731.65712 C 715.97646,731.65712 739.7981,729.63681 754.10645,729.63681"
         style="fill:none;fill-rule:evenodd;stroke:#000000;stroke-width:1px;stroke-linecap:butt;stroke-linejoin:miter;stroke-opacity:1" />
      <path
         id="path4244"
         d="M 711.68004,751.86017 C 714.69296,751.86017 740.75066,751.86017 756.12676,751.86017"
         style="fill:none;fill-rule:evenodd;stroke:#000000;stroke-width:1px;stroke-linecap:butt;stroke-linejoin:miter;stroke-opacity:1" />
      <path
         id="path4246"
         d="M 717.74096,774.08353 C 707.1126,775.85492 739.29088,774.08353 750.06584,774.08353"
         style="fill:none;fill-rule:evenodd;stroke:#000000;stroke-width:1px;stroke-linecap:butt;stroke-linejoin:miter;stroke-opacity:1" />
      <path
         id="path4248"
         d="M 719.76126,798.32719 C 717.7247,798.66661 748.56371,800.34749 758.14706,800.34749"
         style="fill:none;fill-rule:evenodd;stroke:#000000;stroke-width:1px;stroke-linecap:butt;stroke-linejoin:miter;stroke-opacity:1" />
      <path
         id="path4250"
         d="M 721.78157,826.61146 C 713.8103,827.94 737.94401,826.61146 746.02523,826.61146"
         style="fill:none;fill-rule:evenodd;stroke:#000000;stroke-width:1px;stroke-linecap:butt;stroke-linejoin:miter;stroke-opacity:1" />
      <path
         id="path4252"
         d="M 923.81208,739.73834 C 913.82588,741.40271 943.99271,741.75865 954.11666,741.75865"
         style="fill:none;fill-rule:evenodd;stroke:#000000;stroke-width:1px;stroke-linecap:butt;stroke-linejoin:miter;stroke-opacity:1" />
      <path
         id="path4254"
         d="M 919.77147,761.9617 C 907.1503,764.06522 945.362,761.9617 958.15727,761.9617"
         style="fill:none;fill-rule:evenodd;stroke:#000000;stroke-width:1px;stroke-linecap:butt;stroke-linejoin:miter;stroke-opacity:1" />
      <path
         id="path4256"
         d="M 921.79177,784.18505 C 898.29451,788.10126 952.34054,784.18505 974.31971,784.18505"
         style="fill:none;fill-rule:evenodd;stroke:#000000;stroke-width:1px;stroke-linecap:butt;stroke-linejoin:miter;stroke-opacity:1" />
      <path
         id="path4258"
         d="M 913.71055,814.48963 C 899.76084,816.81458 941.99482,814.48963 956.13696,814.48963 C 958.15727,814.48963 960.17757,814.48963 962.19788,814.48963"
         style="fill:none;fill-rule:evenodd;stroke:#000000;stroke-width:1px;stroke-linecap:butt;stroke-linejoin:miter;stroke-opacity:1" />
      <path
         id="path4260"
         d="M 909.66994,844.7942 C 913.77219,844.7942 943.11593,842.7739 960.17757,842.7739"
         style="fill:none;fill-rule:evenodd;stroke:#000000;stroke-width:1px;stroke-linecap:butt;stroke-linejoin:miter;stroke-opacity:1" />
      <rect
         ry="0"
         y="903.60284"
         x="698.76788"
         height="56.128941"
         width="98.555344"
         id="rect4262"
         style="fill:#ffd5d5;stroke:#000000;stroke-width:3.41930103;stroke-miterlimit:4;stroke-dasharray:none;stroke-opacity:1" />
      <rect
         ry="0"
         y="903.20312"
         x="884.23621"
         height="32.684761"
         width="99.354828"
         id="rect4264"
         style="fill:#ffaaaa;stroke:#000000;stroke-width:2.61981726;stroke-miterlimit:4;stroke-dasharray:none;stroke-opacity:1" />
      <rect
         ry="0"
         y="935.52802"
         x="884.23621"
         height="32.684761"
         width="99.354828"
         id="rect4266"
         style="fill:#ffaaaa;stroke:#000000;stroke-width:2.61981726;stroke-miterlimit:4;stroke-dasharray:none;stroke-opacity:1" />
      <path
         id="path4268"
         d="M 802.59377,911.46427 C 812.80669,911.46427 836.40894,911.46427 853.1014,911.46427 C 858.48888,911.46427 863.87636,911.46427 869.26384,911.46427"
         style="fill:none;fill-rule:evenodd;stroke:#000000;stroke-width:1px;stroke-linecap:butt;stroke-linejoin:miter;stroke-opacity:1" />
      <path
         id="path4270"
         d="M 800.57347,933.68763 C 810.45802,933.68763 832.74519,931.66732 849.06079,931.66732 C 853.9918,931.66732 858.48307,930.82698 863.20293,929.64702"
         style="fill:none;fill-rule:evenodd;stroke:#000000;stroke-width:1px;stroke-linecap:butt;stroke-linejoin:miter;stroke-opacity:1" />
      <path
         id="path4272"
         d="M 808.65469,953.89068 C 825.49056,953.89068 842.32644,953.89068 859.16232,953.89068"
         style="fill:none;fill-rule:evenodd;stroke:#000000;stroke-width:1px;stroke-linecap:butt;stroke-linejoin:miter;stroke-opacity:1" />
      <path
         id="path4274"
         d="M 723.80187,850.85512 C 729.32327,850.85512 740.57629,852.17126 750.06584,856.91604"
         style="fill:none;fill-rule:evenodd;stroke:#000000;stroke-width:1px;stroke-linecap:butt;stroke-linejoin:miter;stroke-opacity:1" />
      <path
         id="path4276"
         d="M 715.72065,883.18 C 725.82218,883.18 735.92371,883.18 746.02523,883.18"
         style="fill:none;fill-rule:evenodd;stroke:#000000;stroke-width:1px;stroke-linecap:butt;stroke-linejoin:miter;stroke-opacity:1" />
      <path
         id="path4278"
         d="M 812.6953,879.13939 C 825.59743,879.13939 858.86313,883.32959 875.32476,875.09878"
         style="fill:none;fill-rule:evenodd;stroke:#000000;stroke-width:1px;stroke-linecap:butt;stroke-linejoin:miter;stroke-opacity:1" />
      <path
         id="path4280"
         d="M 919.77147,875.09878 C 920.87291,875.09878 934.53431,875.09878 941.99482,875.09878"
         style="fill:none;fill-rule:evenodd;stroke:#000000;stroke-width:1px;stroke-linecap:butt;stroke-linejoin:miter;stroke-opacity:1" />
      <path
         id="path4286"
         d="M 815.38142,761.05933 C 844.84128,760.36944 792.36622,764.67658 828.70174,769.28059 C 842.97151,771.08869 842.6284,769.10531 835.56212,778.7909 C 831.68223,784.10897 850.50225,791.71766 843.81545,793.95735 C 833.47371,797.42125 826.64594,777.99693 826.02022,776.73883 C 824.84929,774.38454 808.03822,773.82914 800.77252,765.95249 C 791.80192,756.22758 834.97187,776.73659 838.79209,778.14636 C 846.55237,781.01013 884.23211,785.36541 857.32744,775.43679 C 840.02885,769.05309 844.87445,783.81541 845.23023,788.23542 C 845.48988,791.46133 842.74002,788.29374 839.61479,788.36693"
         style="fill:#000080;fill-rule:evenodd;stroke:#000000;stroke-width:0.62556213px;stroke-linecap:butt;stroke-linejoin:miter;stroke-opacity:1" />
    </g>
    <path
       style="fill:#f9f9f9;fill-rule:evenodd;stroke:#000000;stroke-width:0.323439px;stroke-linecap:butt;stroke-linejoin:miter;stroke-opacity:1"
       d="M 372.19789,735.03336 C 371.59415,734.43088 364.83312,734.37992 360.43587,734.37992 C 353.98297,734.37992 347.98312,733.72647 341.48595,733.72647 C 334.99931,733.72647 328.95618,734.37992 322.53603,734.37992 C 316.9346,734.37992 315.62698,741.10585 314.69468,744.83504 C 312.854,752.1978 316.65502,761.4445 316.65502,769.01252 C 316.65502,776.77684 318.61536,784.48796 318.61536,792.53656 C 318.61536,799.28585 316.87534,809.5224 313.38779,814.75371 C 311.60518,817.42763 312.59887,827.93416 313.38779,831.08984 C 314.36523,834.99958 337.21029,833.9537 341.48595,835.66396 C 346.93254,837.8426 357.4308,835.66396 363.70309,835.66396 C 370.67318,835.66396 377.64327,835.66396 384.61335,835.66396 C 391.87069,835.66396 403.46964,838.37137 408.79083,833.05018 C 412.99022,828.85079 413.36495,815.0825 413.36495,809.52614 C 413.36495,808.00144 413.36495,806.47673 413.36495,804.95203 C 413.36495,799.50167 412.46157,786.15569 410.09772,781.42799 C 407.95814,777.14883 407.48394,767.34456 407.48394,762.47807 C 407.48394,757.46832 407.48394,752.45857 407.48394,747.44882 C 407.48394,743.22403 407.96608,740.25033 405.5236,736.9937 C 403.52085,734.32336 395.85521,735.03336 392.4547,735.03336 C 387.66769,735.03336 383.45685,735.68681 378.73234,735.68681 C 376.34857,735.68681 374.72231,735.4541 372.19789,735.03336 z"
       id="path9936" />
    <rect
       style="fill:#ff0000;stroke:#000000;stroke-width:1.30655038;stroke-miterlimit:4;stroke-dasharray:none;stroke-opacity:1"
       id="rect9938"
       width="32.982918"
       height="24.488127"
       x="346.5582"
       y="759.05548"
       ry="0" />
    <path
       style="fill:none;fill-rule:evenodd;stroke:#000000;stroke-width:0.323439px;stroke-linecap:butt;stroke-linejoin:miter;stroke-opacity:1"
       d="M 348.0204,790.57623 C 351.64622,791.58968 360.51157,791.22967 366.31688,791.22967 C 371.51021,791.22967 374.24896,793.56393 379.38579,792.53656"
       id="path9940" />
    <path
       style="fill:none;fill-rule:evenodd;stroke:#000000;stroke-width:0.323439px;stroke-linecap:butt;stroke-linejoin:miter;stroke-opacity:1"
       d="M 323.18948,757.25051 C 323.92566,757.25051 331.63051,756.59706 336.25839,756.59706"
       id="path9942" />
    <path
       style="fill:none;fill-rule:evenodd;stroke:#000000;stroke-width:0.323439px;stroke-linecap:butt;stroke-linejoin:miter;stroke-opacity:1"
       d="M 322.53603,763.78496 C 323.51053,763.78496 331.9386,763.78496 336.91183,763.78496"
       id="path9944" />
    <path
       style="fill:none;fill-rule:evenodd;stroke:#000000;stroke-width:0.323439px;stroke-linecap:butt;stroke-linejoin:miter;stroke-opacity:1"
       d="M 324.49637,770.97286 C 321.05874,771.5458 331.46645,770.97286 334.95149,770.97286"
       id="path9946" />
    <path
       style="fill:none;fill-rule:evenodd;stroke:#000000;stroke-width:0.323439px;stroke-linecap:butt;stroke-linejoin:miter;stroke-opacity:1"
       d="M 325.14981,778.81421 C 324.49111,778.92399 334.46565,779.46765 337.56528,779.46765"
       id="path9948" />
    <path
       style="fill:none;fill-rule:evenodd;stroke:#000000;stroke-width:0.323439px;stroke-linecap:butt;stroke-linejoin:miter;stroke-opacity:1"
       d="M 325.80326,787.96244 C 323.22504,788.39215 331.03082,787.96244 333.6446,787.96244"
       id="path9950" />
    <path
       style="fill:none;fill-rule:evenodd;stroke:#000000;stroke-width:0.323439px;stroke-linecap:butt;stroke-linejoin:miter;stroke-opacity:1"
       d="M 391.1478,759.86429 C 387.91788,760.40261 397.67501,760.51774 400.94949,760.51774"
       id="path9952" />
    <path
       style="fill:none;fill-rule:evenodd;stroke:#000000;stroke-width:0.323439px;stroke-linecap:butt;stroke-linejoin:miter;stroke-opacity:1"
       d="M 389.84091,767.05219 C 385.75873,767.73255 398.11789,767.05219 402.25638,767.05219"
       id="path9954" />
    <path
       style="fill:none;fill-rule:evenodd;stroke:#000000;stroke-width:0.323439px;stroke-linecap:butt;stroke-linejoin:miter;stroke-opacity:1"
       d="M 390.49436,774.24009 C 382.89443,775.50674 400.37502,774.24009 407.48394,774.24009"
       id="path9956" />
    <path
       style="fill:none;fill-rule:evenodd;stroke:#000000;stroke-width:0.323439px;stroke-linecap:butt;stroke-linejoin:miter;stroke-opacity:1"
       d="M 387.88058,784.04177 C 383.3687,784.79375 397.02881,784.04177 401.60293,784.04177 C 402.25638,784.04177 402.90982,784.04177 403.56327,784.04177"
       id="path9958" />
    <path
       style="fill:none;fill-rule:evenodd;stroke:#000000;stroke-width:0.323439px;stroke-linecap:butt;stroke-linejoin:miter;stroke-opacity:1"
       d="M 386.57368,793.84345 C 387.90051,793.84345 397.39142,793.19001 402.90982,793.19001"
       id="path9960" />
    <rect
       style="fill:#0000ff;stroke:#000000;stroke-width:1.10593534;stroke-miterlimit:4;stroke-dasharray:none;stroke-opacity:1"
       id="rect9962"
       width="31.876642"
       height="18.154289"
       x="318.35974"
       y="812.86444"
       ry="0" />
    <rect
       style="fill:#ffff00;stroke:#000000;stroke-width:0.84735107;stroke-miterlimit:4;stroke-dasharray:none;stroke-opacity:1"
       id="rect9964"
       width="32.135227"
       height="10.571527"
       x="378.34741"
       y="812.73517"
       ry="0" />
    <path
       style="fill:none;fill-rule:evenodd;stroke:#000000;stroke-width:0.323439px;stroke-linecap:butt;stroke-linejoin:miter;stroke-opacity:1"
       d="M 351.94108,815.40715 C 355.24433,815.40715 362.87822,815.40715 368.27721,815.40715 C 370.01973,815.40715 371.76226,815.40715 373.50478,815.40715"
       id="path9968" />
    <path
       style="fill:none;fill-rule:evenodd;stroke:#000000;stroke-width:0.323439px;stroke-linecap:butt;stroke-linejoin:miter;stroke-opacity:1"
       d="M 351.28763,822.59505 C 354.48468,822.59505 361.69322,821.94161 366.97032,821.94161 C 368.5652,821.94161 370.01785,821.66981 371.54444,821.28816"
       id="path9970" />
    <path
       style="fill:none;fill-rule:evenodd;stroke:#000000;stroke-width:0.323439px;stroke-linecap:butt;stroke-linejoin:miter;stroke-opacity:1"
       d="M 353.90141,829.12951 C 359.34679,829.12951 364.79217,829.12951 370.23755,829.12951"
       id="path9972" />
    <path
       style="fill:none;fill-rule:evenodd;stroke:#000000;stroke-width:0.323439px;stroke-linecap:butt;stroke-linejoin:miter;stroke-opacity:1"
       d="M 326.4567,795.80379 C 328.24254,795.80379 331.8822,796.22948 334.95149,797.76413"
       id="path9974" />
    <path
       style="fill:none;fill-rule:evenodd;stroke:#000000;stroke-width:0.323439px;stroke-linecap:butt;stroke-linejoin:miter;stroke-opacity:1"
       d="M 323.84292,806.25892 C 327.11015,806.25892 330.37738,806.25892 333.6446,806.25892"
       id="path9976" />
    <path
       style="fill:none;fill-rule:evenodd;stroke:#000000;stroke-width:0.323439px;stroke-linecap:butt;stroke-linejoin:miter;stroke-opacity:1"
       d="M 355.2083,804.95203 C 359.38136,804.95203 370.14078,806.3073 375.46511,803.64513"
       id="path9978" />
    <path
       style="fill:none;fill-rule:evenodd;stroke:#000000;stroke-width:0.323439px;stroke-linecap:butt;stroke-linejoin:miter;stroke-opacity:1"
       d="M 389.84091,803.64513 C 390.19716,803.64513 394.61579,803.64513 397.02881,803.64513"
       id="path9980" />
    <path
       style="fill:#00ff00;fill-rule:evenodd;stroke:#000000;stroke-width:0.88653046px;stroke-linecap:butt;stroke-linejoin:miter;stroke-opacity:1"
       d="M 367.97485,762.76796 C 336.17318,760.03183 360.85818,780.43683 360.85818,768.31407 C 360.85818,764.61667 360.85818,775.70888 360.85818,779.40629 C 372.60086,783.75442 367.97485,770.31434 367.97485,773.86018 C 367.97485,779.38945 391.88004,768.31407 367.97485,768.31407 C 365.60262,768.31407 372.71929,768.31407 375.09151,768.31407 C 380.39596,768.31407 366.16263,762.76796 360.85818,762.76796 C 358.48596,762.76796 360.85818,766.46537 360.85818,768.31407 C 360.85818,770.16277 356.11375,768.31407 353.74152,768.31407"
       id="path10014" />
    <text
       xml:space="preserve"
       style="font-size:20px;font-style:normal;font-weight:normal;fill:#000000;fill-opacity:1;stroke:none;stroke-width:1px;stroke-linecap:butt;stroke-linejoin:miter;stroke-opacity:1;font-family:Bitstream Vera Sans"
       x="88.600166"
       y="900.68738"
       id="text10020"><tspan
         sodipodi:role="line"
         id="tspan10022"
         x="88.600166"
         y="900.68738">Arts</tspan></text>
    <text
       xml:space="preserve"
       style="font-size:14.10325241px;font-style:normal;font-weight:normal;text-align:center;text-anchor:middle;fill:#000000;fill-opacity:1;stroke:none;stroke-width:1px;stroke-linecap:butt;stroke-linejoin:miter;stroke-opacity:1;font-family:Bitstream Vera Sans"
       x="337.9537"
       y="897.04858"
       id="text10024"><tspan
         sodipodi:role="line"
         id="tspan10026"
         x="337.9537"
         y="897.04858">International</tspan><tspan
         sodipodi:role="line"
         x="337.9537"
         y="914.67767"
         id="tspan10028">News</tspan></text>
    <text
       xml:space="preserve"
       style="font-size:20px;font-style:normal;font-weight:normal;text-align:center;text-anchor:middle;fill:#000000;fill-opacity:1;stroke:none;stroke-width:1px;stroke-linecap:butt;stroke-linejoin:miter;stroke-opacity:1;font-family:Bitstream Vera Sans"
       x="362.82907"
       y="752.56055"
       id="text10030"><tspan
         sodipodi:role="line"
         x="362.82907"
         y="752.56055"
         id="tspan10034">Opinion</tspan></text>
    <path
       style="fill:#000000;fill-opacity:1;stroke:#001e16;stroke-width:3.54330707;stroke-miterlimit:4;stroke-dasharray:none;stroke-dashoffset:0;stroke-opacity:1"
       id="path10040"
       d="M 143.98396,814.62205 C 144.86846,816.94371 146.47832,818.89182 147.69884,821.03196 C 148.77438,822.91787 149.74275,824.86356 150.81797,826.74967 C 153.08394,830.97252 156.17922,834.64745 158.64469,838.74393 C 159.82726,840.70881 160.91921,842.72687 162.07004,844.7105 C 164.56129,848.84478 165.97367,853.45415 166.84681,858.16833 C 167.25204,860.27941 167.34585,862.35523 166.82347,864.44218 C 166.48354,865.88809 165.83423,867.22608 165.28276,868.59611 C 165.19431,868.81752 165.10586,869.03893 165.01741,869.26034 L 156.32987,873.25945 C 156.42295,873.04944 156.51604,872.83943 156.60912,872.62943 C 157.09618,871.24387 157.83201,869.95839 158.21547,868.53471 C 158.31476,868.21905 158.62485,867.26489 158.68469,866.94488 C 158.95599,865.49385 158.65934,863.98888 158.59658,862.53534 C 157.99104,857.8443 156.71236,853.29594 154.34103,849.16538 C 153.23521,847.17444 152.20244,845.1413 151.02696,843.19068 C 148.55342,839.08601 145.40428,835.42411 143.10654,831.2054 C 142.0082,829.35586 141.01759,827.44191 139.87136,825.62166 C 138.58699,823.58204 136.92891,821.77664 135.77409,819.65306 L 143.98396,814.62205 z" />
    <path
       style="fill:#000000;fill-opacity:1;stroke:#001e16;stroke-width:3.54330707;stroke-miterlimit:4;stroke-dasharray:none;stroke-dashoffset:0;stroke-opacity:1"
       id="path10042"
       d="M 180.38219,114.34858 C 180.51412,114.82222 180.67012,115.2898 180.77799,115.7695 C 181.32064,118.18264 181.76597,120.62256 182.32918,123.03247 C 182.80526,125.06956 183.37565,127.08347 183.8878,129.11179 C 184.90871,135.1855 187.09527,140.94482 189.39772,146.62584 C 191.70734,152.00972 194.24767,157.28433 196.67402,162.61488 C 198.81974,166.64827 200.23848,171.0075 202.05944,175.18354 C 203.32389,178.08333 203.94284,179.11745 205.42261,181.89905 C 208.41085,187.38725 212.12874,192.41177 216.18833,197.14442 C 219.24144,200.82752 222.82721,204.00118 226.9897,206.39232 C 228.14433,207.0556 229.36584,207.59496 230.55392,208.19629 C 237.56705,211.62827 244.87948,214.3752 252.17916,217.12119 C 255.50726,218.15493 258.86175,219.18712 262.27355,219.9188 C 266.7433,220.87737 262.50334,219.79455 266.82634,220.95982 C 269.10089,221.63749 271.40514,222.1975 273.73174,222.66126 L 266.01738,228.01267 C 263.74955,227.45684 261.50165,226.82783 259.26438,226.15923 C 254.3996,224.88481 249.43006,223.9661 244.72281,222.12839 C 237.49921,219.2485 230.33863,216.202 223.25401,212.99595 C 222.03142,212.3821 220.78057,211.82157 219.58625,211.15439 C 215.2934,208.75631 211.38376,205.7466 208.38368,201.82735 C 204.45725,196.92128 200.68711,191.86922 197.77663,186.2765 C 196.18641,183.26365 195.77845,182.60642 194.37756,179.48434 C 192.51995,175.34439 191.00329,171.04224 188.8107,167.05728 C 186.34751,161.72963 183.93085,156.38516 181.5325,151.02834 C 179.1506,145.33051 177.15209,139.4574 176.01861,133.37303 C 175.75219,132.34657 175.48576,131.3201 175.21933,130.29364 C 174.9414,129.29729 174.64861,128.30497 174.38554,127.30459 C 173.77361,124.9777 173.25385,122.60305 172.54297,120.30299 C 172.41946,119.90336 172.23518,119.52512 172.08128,119.13618 L 180.38219,114.34858 z"
       transform="translate(-4.149475e-6,698.0315)" />
    <path
       style="fill:#000000;fill-opacity:1;stroke:#001e16;stroke-width:3.54330707;stroke-miterlimit:4;stroke-dasharray:none;stroke-dashoffset:0;stroke-opacity:1"
       id="path10044"
       d="M 208.41735,90.000539 C 208.86038,90.377286 210.04749,91.401145 210.45229,91.674123 C 211.43494,92.33679 212.90667,93.019547 213.93839,93.526769 C 217.31002,95.18435 215.2384,94.121493 218.70727,95.95782 C 224.52594,98.942249 230.51635,100.23155 236.94124,101.09301 C 243.40807,101.51707 249.79709,102.78651 256.26997,103.14808 C 257.57017,103.2207 258.87373,103.20788 260.17561,103.23778 C 265.80717,103.18834 271.47545,103.15255 276.96572,101.78314 C 277.58431,101.6221 278.20186,101.45702 278.82148,101.30001 C 280.39573,100.90111 280.64192,100.91287 282.13721,100.34487 C 283.72572,99.741464 285.18436,98.875994 286.69075,98.099872 C 289.23639,97.014814 291.71437,95.721113 294.11301,94.339383 C 295.6613,93.513292 297.30023,92.816269 298.98944,92.333449 C 300.09457,92.053273 301.23437,91.998892 302.36815,91.961323 L 294.64976,97.630834 C 293.56164,97.70906 292.47336,97.829065 291.43526,98.186823 C 289.82118,98.759212 288.23377,99.417883 286.74955,100.27875 C 284.33443,101.55492 281.92497,102.84698 279.41564,103.93186 C 278.666,104.31514 277.13125,105.11493 276.36797,105.44283 C 274.20474,106.37217 271.89258,106.81574 269.61756,107.37376 C 264.16661,108.46017 258.60912,108.42643 253.06939,108.37109 C 251.75335,108.32931 250.43563,108.32434 249.12127,108.24574 C 242.63441,107.85779 236.23587,106.56657 229.74845,106.17586 C 228.48924,106.01185 227.22452,105.88572 225.97082,105.68384 C 220.82844,104.85575 215.80424,103.23478 211.1409,100.9221 C 207.48993,99.083649 203.59578,97.662051 200.33939,95.136117 L 208.41735,90.000539 z"
       transform="translate(-4.149475e-6,698.0315)" />
    <path
       sodipodi:type="star"
       style="fill:#000000;fill-opacity:1;stroke:#001e16;stroke-width:3.54330707;stroke-miterlimit:4;stroke-dasharray:none;stroke-dashoffset:0;stroke-opacity:1"
       id="path10046"
       sodipodi:sides="3"
       sodipodi:cx="120.74292"
       sodipodi:cy="-58.423996"
       sodipodi:r1="16.58843"
       sodipodi:r2="8.3367929"
       sodipodi:arg1="1.0370881"
       sodipodi:arg2="2.0842857"
       inkscape:flatsided="false"
       inkscape:rounded="0"
       inkscape:randomized="0"
       d="M 129.18194,-44.142576 L 116.64772,-51.162351 L 104.15534,-58.256299 L 116.50175,-65.601362 L 128.89148,-72.873113 L 129.07929,-58.508275 L 129.18194,-44.142576 z"
       transform="matrix(0.9474169,-0.320002,0.320002,0.9474169,175.46149,1017.9176)" />
    <path
       sodipodi:type="star"
       style="fill:#000000;fill-opacity:1;stroke:#001e16;stroke-width:3.54330707;stroke-miterlimit:4;stroke-dasharray:none;stroke-dashoffset:0;stroke-opacity:1"
       id="path10048"
       sodipodi:sides="3"
       sodipodi:cx="120.74292"
       sodipodi:cy="-58.423996"
       sodipodi:r1="16.58843"
       sodipodi:r2="8.3367929"
       sodipodi:arg1="1.0370881"
       sodipodi:arg2="2.0842857"
       inkscape:flatsided="false"
       inkscape:rounded="0"
       inkscape:randomized="0"
       d="M 129.18194,-44.142576 L 116.64772,-51.162351 L 104.15534,-58.256299 L 116.50175,-65.601362 L 128.89148,-72.873113 L 129.07929,-58.508275 L 129.18194,-44.142576 z"
       transform="matrix(0.3874853,-0.9218759,0.9218759,0.3874853,167.89188,1007.2525)"
       inkscape:transform-center-x="-9.0881767"
       inkscape:transform-center-y="-4.5440884" />
    <path
       sodipodi:type="star"
       style="fill:#000000;fill-opacity:1;stroke:#001e16;stroke-width:3.54330707;stroke-miterlimit:4;stroke-dasharray:none;stroke-dashoffset:0;stroke-opacity:1"
       id="path10050"
       sodipodi:sides="3"
       sodipodi:cx="120.74292"
       sodipodi:cy="-58.423996"
       sodipodi:r1="16.58843"
       sodipodi:r2="8.3367929"
       sodipodi:arg1="1.0370881"
       sodipodi:arg2="2.0842857"
       inkscape:flatsided="false"
       inkscape:rounded="0"
       inkscape:randomized="0"
       d="M 129.18194,-44.142576 L 116.64772,-51.162351 L 104.15534,-58.256299 L 116.50175,-65.601362 L 128.89148,-72.873113 L 129.07929,-58.508275 L 129.18194,-44.142576 z"
       transform="matrix(0.3874853,-0.9218759,0.9218759,0.3874853,311.34228,919.898)"
       inkscape:transform-center-x="-9.0881767"
       inkscape:transform-center-y="-4.5440884" />
  </g>
</svg>
