<?xml version="1.0" encoding="UTF-8" standalone="no"?>
<!-- Created with Inkscape (http://www.inkscape.org/) -->
<svg
   xmlns:dc="http://purl.org/dc/elements/1.1/"
   xmlns:cc="http://creativecommons.org/ns#"
   xmlns:rdf="http://www.w3.org/1999/02/22-rdf-syntax-ns#"
   xmlns:svg="http://www.w3.org/2000/svg"
   xmlns="http://www.w3.org/2000/svg"
   xmlns:sodipodi="http://sodipodi.sourceforge.net/DTD/sodipodi-0.dtd"
   xmlns:inkscape="http://www.inkscape.org/namespaces/inkscape"
   width="453.5433"
   height="340.15747"
   id="svg2"
   sodipodi:version="0.32"
   inkscape:version="0.46"
   sodipodi:docname="slide060-newspaper.svg"
   version="1.0"
   inkscape:output_extension="org.inkscape.output.svg.inkscape">
  <defs
     id="defs4">
    <inkscape:perspective
       sodipodi:type="inkscape:persp3d"
       inkscape:vp_x="0 : 170.07874 : 1"
       inkscape:vp_y="0 : 1000 : 0"
       inkscape:vp_z="453.5433 : 170.07874 : 1"
       inkscape:persp3d-origin="226.77165 : 113.38582 : 1"
       id="perspective9322" />
  </defs>
  <sodipodi:namedview
     id="base"
     pagecolor="#ffffff"
     bordercolor="#666666"
     borderopacity="1.0"
     gridtolerance="10000"
     guidetolerance="8.8"
     objecttolerance="10"
     inkscape:pageopacity="0.0"
     inkscape:pageshadow="2"
     inkscape:zoom="1.540463"
     inkscape:cx="226.77165"
     inkscape:cy="170.07874"
     inkscape:document-units="mm"
     inkscape:current-layer="layer1"
     inkscape:window-width="1024"
     inkscape:window-height="768"
     inkscape:window-x="0"
     inkscape:window-y="0"
     width="12.8cm"
     height="9.6cm"
     units="cm"
     showgrid="true"
     grid_units="mm"
     inkscape:object-paths="false"
     inkscape:grid-points="true"
     inkscape:grid-bbox="true"
     inkscape:guide-points="true"
     showguides="true"
     inkscape:guide-bbox="true">
    <sodipodi:guide
       orientation="vertical"
       position="56.476527"
       id="guide3573" />
    <sodipodi:guide
       orientation="horizontal"
       position="11.035643"
       id="guide3579" />
    <sodipodi:guide
       orientation="horizontal"
       position="24.018753"
       id="guide3886" />
    <sodipodi:guide
       orientation="horizontal"
       position="285.62841"
       id="guide3988" />
    <sodipodi:guide
       orientation="horizontal"
       position="303.15561"
       id="guide4081" />
    <inkscape:grid
       id="GridFromPre046Settings"
       type="xygrid"
       originx="0px"
       originy="0px"
       spacingx="2mm"
       spacingy="2mm"
       color="#0000ff"
       empcolor="#0000ff"
       opacity="0.2"
       empopacity="0.4"
       empspacing="5" />
  </sodipodi:namedview>
  <metadata
     id="metadata7">
    <rdf:RDF>
      <cc:Work
         rdf:about="">
        <dc:format>image/svg+xml</dc:format>
        <dc:type
           rdf:resource="http://purl.org/dc/dcmitype/StillImage" />
      </cc:Work>
    </rdf:RDF>
  </metadata>
  <g
     inkscape:label="Layer 1"
     inkscape:groupmode="layer"
     id="layer1"
     transform="translate(4.149475e-6,-698.0315)">
    <g
       id="g2590"
       transform="translate(133.10461,561.74355)">
      <path
         id="path2486"
         d="M 235.71429,240.93361 C 241.73043,241.07095 252.00869,250.66527 257.14286,260.93361 C 260.34378,267.33545 258.45281,278.31371 255.71429,283.79075 C 251.07016,293.07901 243.94265,295.56239 237.14286,302.36218 C 228.98579,310.51925 219.98774,315.93974 210,320.93361 C 196.20104,327.83309 184.44209,333.7282 170,339.50504 C 168.17704,340.23422 166.19048,340.45742 164.28571,340.93361 C 153.44342,343.64418 143.94105,353.79075 132.85714,353.79075 C 119.54391,353.79075 107.4465,359.50504 94.285714,359.50504 C 80.536078,359.50504 67.408182,349.13777 64.285714,336.6479 C 60.640357,322.06647 85.462006,303.48275 95.714286,296.6479 C 116.48618,282.79997 137.46633,269.87341 160,262.36218 C 175.3879,257.23288 185.31071,251.74879 200,248.07647 C 207.103,246.30072 215.33853,245.21933 222.85714,245.21933 C 227.37468,245.21933 231.28447,241.81957 235.71429,240.93361 z"
         style="fill:#808080;fill-rule:evenodd;stroke:#000000;stroke-width:1px;stroke-linecap:butt;stroke-linejoin:miter;stroke-opacity:1" />
      <path
         id="path2484"
         d="M 237.14286,260.93361 C 230.33994,267.73653 173.91775,295.85244 155.71429,309.50504 C 143.28465,318.82727 133.81323,328.54895 122.85714,339.50504 C 122.15929,340.20289 146.31681,334.71155 161.42857,330.93361 C 176.38341,327.1949 199.38598,317.10842 211.42857,308.07647 C 213.98408,306.15984 217.14286,305.21933 220,303.79075 C 229.85853,298.86149 238.20619,297.01313 247.14286,288.07647 C 255.25357,279.96576 263.136,274.10389 264.28571,269.50504 C 267.07912,258.33141 243.13371,279.27457 234.28571,286.6479 C 218.58297,299.73352 193.58681,309.49889 175.71429,316.6479 C 165.93489,320.55966 154.2315,322.73288 144.28571,325.21933 C 139.29694,326.46652 161.13218,310.19502 184.28571,300.93361 C 204.62256,292.79887 222.36127,278.55758 241.42857,273.79075 C 250.88406,271.42688 257.68908,260.17727 258.57143,256.6479 C 258.69809,256.14124 236.06287,258.07647 218.57143,258.07647 C 201.38036,258.07647 175.11061,283.29581 160,292.36218 C 144.39936,301.72257 129.04749,316.40987 114.28571,323.79075 C 104.16794,328.84964 105.06237,340.51751 114.28571,342.36218 C 131.5299,345.81102 151.68611,334.37627 164.28571,328.07647 C 168.09524,326.17171 171.90476,324.26694 175.71429,322.36218 C 195.03863,312.70001 216.51531,310.87579 235.71429,298.07647 C 250.17709,288.4346 276.32846,279.10459 271.42857,259.50504 C 270.96487,257.65025 251.19482,260.40893 248.57143,260.93361"
         style="fill:none;fill-rule:evenodd;stroke:#000000;stroke-width:1px;stroke-linecap:butt;stroke-linejoin:miter;stroke-opacity:1" />
      <path
         id="path2476"
         d="M 237.14286,236.6479 C 230.41866,228.55818 211.01267,229.3664 198.57143,225.21933 C 179.32815,218.8049 151.59318,218.07647 131.42857,218.07647 C 116.42141,218.07647 100.77691,213.79075 87.142857,213.79075 C 72.166693,213.79075 59.300615,210.93361 44.285714,210.93361 C 33.157771,210.93361 21.753456,210.29721 11.428571,212.36218 C -3.1998608,215.28787 -18.025381,227.53042 -28.571429,238.07647 C -39.140799,248.64584 -47.652253,258.58586 -58.571429,269.50504 C -67.557032,278.49064 -70.576894,290.08193 -78.571429,298.07647 C -84.664139,304.16918 -92.238118,317.02894 -94.285714,325.21933 C -97.445891,337.86003 -87.609584,344.12083 -81.428571,352.36218 C -74.372275,361.77058 -49.257093,370.73771 -38.571429,373.79075 C -14.947688,380.54039 11.561277,382.36218 37.142857,382.36218 C 58.344756,382.36218 77.081693,378.07647 97.142857,378.07647 C 117.78058,378.07647 141.85109,366.7646 160,359.50504 C 182.252,350.60424 199.42037,340.42425 220,328.07647 C 233.70448,319.85378 243.60114,301.81904 258.57143,298.07647 C 266.73117,296.03653 275.71568,282.36032 280,276.6479 C 289.304,264.24256 259.99011,272.36713 257.14286,273.79075 C 247.2103,278.75703 233.63659,287.98959 227.14286,296.6479 C 222.21558,303.21759 203.95554,312.77997 194.28571,316.6479 C 190.33117,318.22972 186.66667,320.45742 182.85714,322.36218 C 180.95238,323.31456 179.04762,324.26694 177.14286,325.21933 C 164.96119,331.31016 155.67441,339.15786 142.85714,342.36218 C 130.39965,345.47656 122.06752,350.77387 110,353.79075 C 101.23905,355.98099 113.35581,332.17348 114.28571,330.93361 C 122.95375,319.37624 134.82287,313.2536 145.71429,302.36218 C 155.87808,292.19838 171.83627,284.48482 184.28571,279.50504 C 192.56041,276.19516 203.01135,270.46081 210,265.21933 C 216.92971,260.02205 224.429,256.18329 231.42857,250.93361 C 237.5804,246.31974 238.65416,244.2044 237.14286,236.6479 z"
         style="fill:#e6e6e6;fill-rule:evenodd;stroke:#000000;stroke-width:1px;stroke-linecap:butt;stroke-linejoin:miter;stroke-opacity:1" />
      <path
         id="path2488"
         d="M 2.8571429,228.07647 C 9.6070758,226.37919 38.735864,232.36218 54.285714,232.36218 C 81.361176,232.36218 104.64641,236.6479 131.42857,236.6479 C 142.46194,236.6479 152.94035,239.50504 164.28571,239.50504"
         style="fill:none;fill-rule:evenodd;stroke:#000000;stroke-width:1px;stroke-linecap:butt;stroke-linejoin:miter;stroke-opacity:1" />
      <path
         id="path2490"
         d="M -14.285714,242.36218 C -0.20028366,242.36218 25.308512,246.6479 44.285714,246.6479"
         style="fill:none;fill-rule:evenodd;stroke:#000000;stroke-width:1px;stroke-linecap:butt;stroke-linejoin:miter;stroke-opacity:1" />
      <path
         id="path2492"
         d="M -20,253.79075 C -12.448023,253.79075 11.64404,255.98748 25.714286,259.50504 C 29.896202,260.55052 32.82073,260.93361 37.142857,260.93361"
         style="fill:none;fill-rule:evenodd;stroke:#000000;stroke-width:1px;stroke-linecap:butt;stroke-linejoin:miter;stroke-opacity:1" />
      <path
         id="path2494"
         d="M -34.285714,265.21933 C -23.706198,267.8642 -2.4595016,268.38084 12.857143,270.93361 C 13.796566,271.09018 14.761905,270.93361 15.714286,270.93361"
         style="fill:none;fill-rule:evenodd;stroke:#000000;stroke-width:1px;stroke-linecap:butt;stroke-linejoin:miter;stroke-opacity:1" />
      <path
         id="path2496"
         d="M -37.142857,276.6479 C -25.258912,278.62855 -0.20220554,286.6479 14.285714,286.6479"
         style="fill:none;fill-rule:evenodd;stroke:#000000;stroke-width:1px;stroke-linecap:butt;stroke-linejoin:miter;stroke-opacity:1" />
      <path
         id="path2500"
         d="M -47.142857,289.50504 C -49.385328,298.47493 -28.269826,291.08441 -20,295.21933 C -16.566142,296.93625 -13.333333,299.02885 -10,300.93361 C -7.4850872,302.3707 -4.2857143,301.88599 -1.4285714,302.36218"
         style="fill:none;fill-rule:evenodd;stroke:#000000;stroke-width:1px;stroke-linecap:butt;stroke-linejoin:miter;stroke-opacity:1" />
      <path
         id="path2504"
         d="M 68.571429,248.07647 C 56.375001,254.17468 95.460069,252.90179 108.57143,256.6479 C 120.82314,260.14839 135.62035,258.07647 148.57143,258.07647 C 154.00351,258.07647 117.161,288.05832 111.42857,293.79075 C 94.41081,310.80851 96.728329,316.6479 70,316.6479 C 58.777997,316.6479 51.299978,313.40146 41.428571,310.93361 C 31.851215,308.53927 26.017236,310.80368 18.571429,305.21933 C 14.284418,302.00407 36.395256,283.99431 38.571429,282.36218 C 39.423264,281.72331 40.47619,281.4098 41.428571,280.93361 C 50.608552,276.34362 61.169453,263.18386 67.142857,255.21933 C 68.59972,253.27684 68.095238,250.45742 68.571429,248.07647 z"
         style="fill:none;fill-rule:evenodd;stroke:#000000;stroke-width:1px;stroke-linecap:butt;stroke-linejoin:miter;stroke-opacity:1" />
      <path
         id="path2506"
         d="M 78.571429,273.79075 C 82.857143,268.07647 65.714286,283.79075 65.714286,290.93361 C 65.714286,297.77095 81.495425,297.02175 85.714286,298.07647 C 96.198534,300.69753 97.13572,285.24787 98.571429,279.50504 C 101.29593,268.60702 84.449152,271.43966 78.571429,273.79075 z"
         style="fill:none;fill-rule:evenodd;stroke:#000000;stroke-width:1px;stroke-linecap:butt;stroke-linejoin:miter;stroke-opacity:1" />
      <path
         id="path2508"
         d="M 77.142857,283.79075 C 78.418521,278.6881 89.137976,288.93849 92.857143,285.21933"
         style="fill:none;fill-rule:evenodd;stroke:#000000;stroke-width:1px;stroke-linecap:butt;stroke-linejoin:miter;stroke-opacity:1" />
      <path
         id="path2510"
         d="M 81.25,277.36218 C 81.403904,276.74657 83.21704,276.46932 84.642857,276.46932"
         style="fill:none;fill-rule:evenodd;stroke:#000000;stroke-width:1px;stroke-linecap:butt;stroke-linejoin:miter;stroke-opacity:1" />
      <path
         id="path2512"
         d="M 87.5,277.18361 C 87.569928,276.9039 89.661133,277.90246 90.357143,278.07647"
         style="fill:none;fill-rule:evenodd;stroke:#000000;stroke-width:1px;stroke-linecap:butt;stroke-linejoin:miter;stroke-opacity:1" />
      <path
         id="path2514"
         d="M 73.928572,277.8979 C 74.068614,277.93291 69.821429,277.77396 69.821429,274.86218 C 69.821429,272.55329 71.689257,271.51755 73.214286,270.75504 C 75.265389,269.72949 78.439562,269.50504 80.714286,269.50504 C 82.302224,269.50504 85.576402,268.53909 86.964286,268.07647 C 91.569112,266.54152 98.757482,268.79075 103.21429,268.79075 C 104.51329,268.79075 111.89582,268.33834 112.5,270.75504 C 112.89366,272.32966 109.53604,274.41192 108.75,275.04075 C 106.70041,276.68042 103.73963,276.74237 101.42857,277.8979 C 100.9807,278.12183 99.794814,278.07647 99.285714,278.07647"
         style="fill:none;fill-rule:evenodd;stroke:#000000;stroke-width:1px;stroke-linecap:butt;stroke-linejoin:miter;stroke-opacity:1" />
      <path
         id="path2516"
         d="M 80.178572,268.96932 C 80.04107,269.03807 81.112579,265.85131 83.035714,262.00504 C 83.996372,260.08372 83.734731,259.65042 85.357143,258.43361 C 87.239323,257.02197 93.903457,257.54075 96.428572,257.54075 C 98.536564,257.54075 99.659794,257.54922 101.42857,258.43361 C 103.22491,259.33178 103.04781,261.61765 102.32143,263.43361 C 101.8,264.73717 102.48212,266.71944 102.14286,268.07647"
         style="fill:none;fill-rule:evenodd;stroke:#000000;stroke-width:1px;stroke-linecap:butt;stroke-linejoin:miter;stroke-opacity:1" />
      <path
         id="path2518"
         d="M 66.071429,292.18361 C 65.921221,292.55913 62.81112,286.9245 62.142857,285.75504 C 61.535933,284.69292 61.539878,283.34312 61.25,282.18361 C 61.037717,281.33448 57.704989,284.30005 57.5,284.50504 C 56.066716,285.93832 54.927925,286.75762 54.464286,288.61218 C 54.196827,289.68202 55.090208,290.81579 55.714286,291.6479 C 57.089069,293.48094 59.05476,294.55424 60.357143,296.29075 C 61.384413,297.66045 62.718443,298.89043 63.392857,300.57647 C 63.786321,301.56013 63.041974,302.7068 62.678572,303.43361 C 61.835739,305.11927 60.298156,307.2426 58.928572,308.61218 C 57.686863,309.85389 56.544283,311.35361 55.178572,312.71932 C 55.059524,312.83837 54.940476,312.95742 54.821429,313.07647"
         style="fill:none;fill-rule:evenodd;stroke:#000000;stroke-width:1px;stroke-linecap:butt;stroke-linejoin:miter;stroke-opacity:1" />
      <path
         id="path2528"
         d="M 91.785714,297.00504 C 91.428572,295.57647 95.030187,296.97485 96.071429,295.93361 C 96.204528,295.80051 96.428572,295.81456 96.607143,295.75504 C 98.279729,295.19751 100.05178,291.93826 101.42857,291.11218 C 103.39309,289.93347 103.79328,287.32538 106.07143,289.1479 C 107.3983,290.20939 107.5,290.19081 107.5,292.00504 C 107.5,294.23338 103.9214,298.08364 102.32143,299.68361 C 101.36698,300.63806 100.55737,302.14031 100,303.25504 C 99.517349,304.22034 99.045839,305.16336 98.571429,306.11218"
         style="fill:none;fill-rule:evenodd;stroke:#000000;stroke-width:1px;stroke-linecap:butt;stroke-linejoin:miter;stroke-opacity:1" />
      <path
         id="path2530"
         d="M 36.964286,296.11218 C 36.537537,296.96568 34.96064,295.50686 34.107143,295.93361 C 32.979815,296.49727 32.579804,297.40011 32.321429,298.43361 C 31.995608,299.73689 32.508375,300.03238 31.428571,301.11218 C 30.503131,302.03762 30.887329,302.831 31.607143,303.79075 C 32.43443,304.8938 33.638521,304.98274 34.821429,305.21932 C 36.141189,305.48328 37.583367,305.75504 39.107143,305.75504 C 40.51852,305.75504 41.150486,305.5901 41.964286,304.50504 C 42.516329,303.76898 42.321429,302.73233 42.321429,301.82647 C 42.321429,301.04285 44.464286,300.26311 44.464286,298.96932 C 44.464286,297.92682 43.326246,297.13365 42.678572,296.6479 C 42.051754,296.17778 40.468726,296.29075 39.642857,296.29075 C 38.38726,296.29075 38.391126,295.54144 36.964286,296.11218 z"
         style="fill:none;fill-rule:evenodd;stroke:#000000;stroke-width:1px;stroke-linecap:butt;stroke-linejoin:miter;stroke-opacity:1" />
      <path
         id="path2532"
         d="M 44.642857,298.07647 C 44.184109,298.07647 46.403149,300.01533 46.785714,300.3979 C 47.660331,301.27251 48.516473,302.0902 49.642857,302.54075 C 50.685198,302.95769 51.398798,303.10624 52.142857,302.36218 C 52.902425,301.60261 52.34672,300.43162 51.785714,299.68361 C 51.148294,298.83372 49.968079,298.14979 49.107143,297.71932 C 47.925208,297.12836 47.765302,296.30097 48.035714,295.21932 C 48.248327,294.36887 49.747707,294.00618 50.535714,293.61218 C 51.345207,293.20743 52.321429,291.23351 52.321429,290.3979 C 52.321429,289.09634 51.456501,288.37894 50.357143,287.71932 C 49.469163,287.18654 47.569307,286.46932 46.428572,286.46932 C 45.33087,286.46932 44.185661,286.29075 43.035714,286.29075 C 41.778962,286.29075 40.551417,286.46147 39.464286,287.00504 C 38.294851,287.58976 37.639125,288.23425 37.321429,289.50504 C 37.061182,290.54602 37.276868,291.46921 36.607143,292.36218 C 36.170478,292.9444 32.618442,292.96744 31.964286,293.07647 C 30.20346,293.36994 28.709699,293.75156 27.321429,294.86218 C 25.728797,296.13629 27.754187,296.6479 28.928571,296.6479 C 30.29092,296.6479 31.865578,296.02478 33.214286,295.75504 C 33.331022,295.73169 33.452381,295.75504 33.571429,295.75504"
         style="fill:none;fill-rule:evenodd;stroke:#000000;stroke-width:1px;stroke-linecap:butt;stroke-linejoin:miter;stroke-opacity:1" />
      <path
         id="path2534"
         d="M 39.285714,286.46932 C 40.55958,286.46932 41.302337,284.91221 42.321429,284.1479 C 43.030698,283.61594 44.87739,283.10712 45.714286,282.8979 C 46.885366,282.60513 48.008108,282.70552 49.107143,283.25504 C 50.223486,283.81321 51.248776,284.68116 51.785714,285.75504 C 52.310312,286.80423 52.061811,287.52427 51.607143,288.43361"
         style="fill:none;fill-rule:evenodd;stroke:#000000;stroke-width:1px;stroke-linecap:butt;stroke-linejoin:miter;stroke-opacity:1" />
      <path
         id="path2536"
         d="M 52.5,287.00504 C 52.645921,287.29688 54.576707,286.08408 55.178572,285.93361 C 56.475176,285.60946 57.160292,284.4876 58.035714,283.61218 C 58.994817,282.65308 60.006,281.91125 61.071429,281.11218 C 61.93808,280.46219 62.407411,279.27135 63.035714,278.43361 C 63.914688,277.26164 64.615004,276.61022 65.892857,276.29075 C 67.316282,275.9349 66.269827,274.28675 66.071429,273.79075 C 65.767207,273.0302 63.04868,273.47501 62.5,273.61218 C 61.592235,273.83912 61.026589,275.66615 60.714286,276.29075 C 60.224073,277.27118 59.376033,277.89377 59.107143,278.96932 C 58.849687,279.99915 57.547637,280.71931 56.785714,281.29075 C 55.842892,281.99787 54.863034,282.79821 53.75,283.07647 C 52.84346,283.3031 51.756712,283.03907 50.892857,283.25504 C 50.710247,283.30069 50.535714,283.37409 50.357143,283.43361"
         style="fill:none;fill-rule:evenodd;stroke:#000000;stroke-width:1px;stroke-linecap:butt;stroke-linejoin:miter;stroke-opacity:1" />
      <path
         id="path2538"
         d="M 61.071429,281.46932 C 59.991114,281.7394 58.412494,279.81263 56.785714,280.21932 C 55.466513,280.54912 58.625449,283.07316 58.928572,283.25504 C 59.112603,283.36546 59.285714,283.49313 59.464286,283.61218"
         style="fill:none;fill-rule:evenodd;stroke:#000000;stroke-width:1px;stroke-linecap:butt;stroke-linejoin:miter;stroke-opacity:1" />
      <path
         id="path2540"
         d="M 58.035714,284.1479 C 60.897468,285.86495 54.925719,282.29897 53.75,282.00504 C 52.378474,281.66216 54.622037,284.65585 54.642857,284.68361 C 54.979785,285.13285 55.595238,285.27885 56.071429,285.57647 C 56.222857,285.67111 56.428572,285.57647 56.607143,285.57647"
         style="fill:none;fill-rule:evenodd;stroke:#000000;stroke-width:1px;stroke-linecap:butt;stroke-linejoin:miter;stroke-opacity:1" />
      <path
         id="path2542"
         d="M 45.357143,282.71932 C 45.447409,282.77574 47.630261,280.16627 48.75,279.32647 C 49.784332,278.55072 51.119863,278.19995 52.321429,277.71932 C 54.761568,276.74327 52.529986,275.88408 51.607143,275.57647 C 50.403505,275.17525 49.12401,276.55018 48.214286,277.00504 C 47.26995,277.47721 46.290396,278.92893 45.535714,279.68361 C 45.297619,279.9217 45.059524,280.1598 44.821429,280.3979 C 43.885939,281.33338 43.736512,282.7463 43.214286,283.79075 C 42.977387,284.26455 43.297619,284.04075 43.392857,284.32647"
         style="fill:none;fill-rule:evenodd;stroke:#000000;stroke-width:1px;stroke-linecap:butt;stroke-linejoin:miter;stroke-opacity:1" />
      <path
         id="path2544"
         d="M -55.714286,322.36218 C -46.634114,324.60672 -28.086863,326.6479 -12.857143,326.6479 C 4.5705673,326.6479 27.209921,331.80417 44.285714,335.21933 C 50.308571,336.4239 58.037411,335.21933 64.285714,335.21933"
         style="fill:none;fill-rule:evenodd;stroke:#000000;stroke-width:1px;stroke-linecap:butt;stroke-linejoin:miter;stroke-opacity:1" />
      <path
         id="path2558"
         d="M -67.142857,346.6479 C -61.551875,347.76609 -43.119604,355.08809 -34.285714,359.50504 C -18.996142,367.14983 1.8444969,361.85586 17.142857,369.50504 C 25.59476,373.73099 57.791871,370.05707 65.714286,368.07647 C 70.578061,366.86052 75.429281,367.79058 80,366.6479"
         style="fill:none;fill-rule:evenodd;stroke:#000000;stroke-width:1px;stroke-linecap:butt;stroke-linejoin:miter;stroke-opacity:1" />
      <path
         d="M 21.663654,220.2146 C 22.415604,220.41196 23.022372,220.82377 23.533978,221.39814 C 24.113313,222.13506 24.038421,223.02374 23.929289,223.8984 C 23.606759,225.4253 22.589508,226.61835 21.526915,227.7039 C 20.164656,228.94461 18.61796,229.68431 16.945861,230.5954 C 16.808061,230.67048 16.647715,230.7087 16.490995,230.71678 C 16.10874,230.7365 15.833935,230.57956 15.492718,230.44186 C 14.380802,229.61598 13.735425,228.37608 13.150978,227.15272 C 12.631874,226.02823 12.643135,225.02631 12.996937,223.86274 C 13.344424,222.95656 14.037488,222.34177 14.771721,221.75139 C 16.594261,220.52605 18.479972,219.33411 20.587094,218.68841 C 21.554897,218.41761 22.557968,218.44071 23.552473,218.42583 C 24.497545,218.41306 25.442671,218.39872 26.387851,218.40036 C 27.106624,218.40247 27.825353,218.4051 28.544131,218.40241 C 29.424679,218.38125 30.297651,218.5088 31.174087,218.57603 C 32.189904,218.65592 33.16558,218.90105 34.152996,219.13344 C 35.467772,219.28319 36.575223,219.68092 37.773304,220.23032 C 38.924711,220.86239 40.199662,221.17579 41.415133,221.63966 C 42.906647,222.46467 44.509594,223.02497 46.108267,223.59597 C 47.619197,224.14938 49.211747,224.3444 50.806521,224.45112 C 52.333862,224.52579 53.863679,224.5104 55.392233,224.49813 C 56.475667,224.4219 57.566191,224.37096 58.642176,224.21724 C 59.192236,224.13389 58.921501,224.174 59.454357,224.09676 L 56.499156,226.30774 C 55.97265,226.37985 56.241351,226.34352 55.693037,226.41661 C 54.619434,226.53288 53.538073,226.57931 52.459803,226.62954 C 50.934032,226.62307 49.407527,226.61799 47.883203,226.54396 C 46.271457,226.42615 44.671622,226.16426 43.152217,225.59185 C 41.544529,225.01264 39.944434,224.41493 38.403054,223.67216 C 37.169852,223.25044 35.937346,222.83497 34.782141,222.21863 C 34.100414,221.92805 33.428874,221.66474 32.7026,221.50466 C 32.26489,221.40818 32.038259,221.40019 31.6077,221.32026 C 31.449308,221.29085 31.29269,221.25259 31.135184,221.21876 C 30.16224,220.97861 29.187587,220.77703 28.18419,220.71113 C 27.306784,220.63439 26.429113,220.54055 25.546855,220.57965 C 24.829716,220.57564 24.112588,220.57647 23.395455,220.5729 C 22.470325,220.56818 21.545138,220.5474 20.620011,220.5665 C 19.630536,220.59624 18.630637,220.63677 17.680798,220.94442 C 17.254141,221.09462 16.826847,221.24651 16.418385,221.44262 C 16.269212,221.51424 15.836092,221.75698 15.978467,221.67265 C 17.746684,220.62534 19.707057,219.528 18.17557,220.38759 C 17.460918,220.94326 16.736247,221.48061 16.314018,222.30876 C 15.885826,223.41511 15.854911,224.25309 16.308941,225.36767 C 16.819969,226.51604 17.424765,227.69876 18.523944,228.38384 C 18.904714,228.47836 19.007847,228.5557 19.393813,228.46038 C 19.533892,228.42579 19.916425,228.21872 19.793591,228.29442 C 14.673396,231.44987 17.198133,229.89116 18.209833,229.07396 C 19.266316,228.08093 20.270322,226.9559 20.647898,225.52016 C 20.740504,224.75307 20.877327,223.97281 20.369079,223.31394 C 19.896743,222.79103 19.307643,222.4544 18.599866,222.36417 L 21.663654,220.2146 z"
         id="path2570"
         style="fill:#000000;stroke-width:5;stroke-miterlimit:4;stroke-dasharray:none" />
      <path
         d="M 38.819635,222.01179 C 39.079055,223.02424 39.152877,224.07013 39.151777,225.11123 C 39.206577,226.58569 38.89143,228.01593 38.517611,229.43127 C 38.247602,230.33467 38.077016,231.27132 37.737351,232.15322 C 37.536481,232.67476 37.323508,233.09178 37.081126,233.59754 C 36.419229,234.81478 35.847715,236.07162 35.123637,237.25333 C 34.553527,238.05528 34.07257,238.91428 33.523927,239.73013 C 33.122243,240.34121 32.538634,240.77857 32.004783,241.26227 C 31.955242,241.32053 31.905702,241.37878 31.856161,241.43704 L 28.439789,242.92284 C 28.486973,242.84273 28.534158,242.76262 28.581342,242.68251 C 29.060784,242.1461 29.712086,241.78474 30.148291,241.19891 C 30.727942,240.39497 31.192104,239.51866 31.788455,238.72686 C 31.994726,238.39378 32.224263,238.07509 32.421833,237.73677 C 32.925367,236.87451 33.282844,235.92816 33.816724,235.08144 C 34.13297,234.41809 34.479553,233.74946 34.701952,233.04618 C 34.916152,232.36883 35.051646,231.66269 35.263667,230.98411 C 35.634443,229.59846 35.993622,228.20193 35.930523,226.75517 C 35.916394,225.77596 35.86167,224.77476 35.547408,223.83909 L 38.819635,222.01179 z"
         id="path2572"
         style="fill:#000000;stroke-width:5;stroke-miterlimit:4;stroke-dasharray:none" />
      <path
         d="M 61.989214,233.52476 C 61.383153,234.53479 60.524358,235.36994 59.788256,236.28778 C 58.864696,237.39907 57.874033,238.45031 56.933483,239.54828 C 56.14574,240.51193 55.346258,241.4681 54.699855,242.5345 L 51.34471,244.0276 C 51.965816,242.9092 52.838326,241.96858 53.609487,240.95482 C 54.548239,239.86358 55.51404,238.79957 56.455518,237.71247 C 57.153687,236.83009 57.899547,235.99255 58.603184,235.11497 L 61.989214,233.52476 z"
         id="path2576"
         style="fill:#000000;stroke-width:5;stroke-miterlimit:4;stroke-dasharray:none" />
      <path
         d="M 61.718827,230.69525 C 61.43735,230.69382 61.111418,230.68417 60.839809,230.77465 C 60.749617,230.80469 60.507675,230.95981 60.590642,230.9134 C 63.636316,229.20979 64.354446,228.44624 63.375777,229.43963 C 63.035852,229.96513 63.119846,230.19113 63.682039,230.39173 C 63.95623,230.44123 64.04926,230.49008 64.332027,230.40466 C 64.468799,230.36335 64.847158,230.15795 64.722229,230.22728 C 63.847878,230.71248 62.994607,231.24248 62.082737,231.65285 C 61.857333,231.75428 62.462384,231.33558 62.640443,231.16414 C 62.813782,230.99724 62.970641,230.81404 63.13574,230.63898 C 63.623511,230.08381 63.98686,229.47447 64.169104,228.76073 L 67.483624,227.1616 C 67.328532,227.9718 66.981837,228.59753 66.46258,229.24271 C 64.9459,230.96676 64.641183,230.92212 61.817584,232.48024 C 61.438551,232.6894 60.960157,232.5633 60.582681,232.44771 C 59.922956,232.09543 59.655141,231.65058 59.964009,230.91775 C 60.859543,229.25757 62.962178,228.51327 64.753239,228.49062 L 61.718827,230.69525 z"
         id="path2578"
         style="fill:#000000;stroke-width:5;stroke-miterlimit:4;stroke-dasharray:none" />
      <path
         d="M 81.41408,235.5966 C 81.370279,234.59866 81.662386,233.84743 82.156377,232.99601 C 82.553153,232.44266 83.043481,231.94167 83.632931,231.5906 C 85.476702,230.49247 86.494186,229.63485 88.288885,229.17569 C 88.998465,229.04692 89.938749,228.84582 90.41958,229.56844 C 90.521834,229.72212 90.572082,229.90464 90.648333,230.07274 C 90.681151,230.27872 90.742316,230.48214 90.746786,230.69067 C 90.778007,232.14716 89.843952,233.8994 89.179888,235.14958 C 88.03488,236.95842 86.622682,238.57646 85.170616,240.14203 C 84.07723,241.36014 82.830275,242.42754 81.711176,243.62052 C 81.679829,243.66452 81.647752,243.79704 81.617137,243.75253 C 80.744339,242.48349 85.277952,241.47376 78.596097,244.94747 C 78.416676,245.04074 78.923352,244.7096 79.081446,244.58351 C 79.640444,244.13767 79.854685,243.92687 80.402028,243.43161 C 82.328593,241.59057 84.209351,239.70192 86.085676,237.80987 C 87.767088,236.03617 89.508089,234.33092 91.462303,232.8598 C 93.894159,231.07174 96.497557,229.37454 99.401326,228.48648 C 100.78682,228.20399 101.39455,228.48867 102.08942,229.69203 C 102.57921,230.98094 102.64489,232.23329 102.50068,233.58985 C 102.23872,234.99893 101.64367,236.36653 100.74453,237.49149 C 100.52362,237.76789 100.271,238.01738 100.03424,238.28032 C 98.459089,239.82363 96.760458,241.23293 95.147643,242.73678 C 94.275863,243.55738 93.397917,244.36942 92.472733,245.12949 C 91.329462,246.09121 91.337148,245.80052 88.749725,246.74013 C 88.633947,246.78218 88.945074,246.59003 89.043642,246.51616 C 89.760093,245.97924 89.520468,246.15807 90.375107,245.57273 C 92.291189,244.2934 94.13184,242.90823 95.892298,241.42297 C 97.602903,239.93917 99.264537,238.40642 100.83635,236.77642 C 101.92898,235.70752 102.90044,234.52842 103.91815,233.39149 C 105.48696,232.03517 107.34229,230.83044 109.3792,230.35763 C 110.05803,230.29616 110.58092,230.61912 110.95194,231.16269 C 111.40665,232.32415 110.98761,233.6478 110.70542,234.80378 C 110.34959,236.45224 109.84549,238.06777 109.26429,239.64988 C 109.03135,240.15955 108.86176,240.69985 108.60748,241.20018 C 108.4052,241.5982 108.1281,241.95637 107.88808,242.33162 C 107.21895,243.27706 106.54704,244.23182 105.76269,245.08645 C 104.9846,245.84197 104.13484,246.5197 103.27552,247.17972 C 103.16233,247.26296 103.04913,247.34621 102.93594,247.42946 L 99.511659,248.78481 C 99.628458,248.70132 99.745257,248.61784 99.862055,248.53435 C 100.74501,247.9067 101.58064,247.21116 102.38697,246.48836 C 103.21464,245.701 103.84635,244.73329 104.52897,243.82238 C 104.60374,243.68654 104.66932,243.54522 104.75329,243.41486 C 105.0138,243.0104 105.01714,243.12999 105.2681,242.7172 C 105.46437,242.39437 105.56689,242.09492 105.72162,241.74853 C 105.80826,241.55456 105.90006,241.36293 105.98928,241.17013 C 106.61395,239.6092 107.14532,238.00575 107.4764,236.3549 C 107.72148,235.30275 108.12119,234.11589 107.73971,233.05154 C 107.4283,232.60519 106.96633,232.47745 106.44034,232.61209 C 106.14733,232.70106 106.07062,232.7158 105.78142,232.84064 C 105.65568,232.89492 105.29266,233.08694 105.41001,233.01633 C 106.31339,232.47277 107.23403,231.95835 108.14104,231.42087 C 108.28393,231.3362 107.8416,231.5667 107.70268,231.65773 C 107.55264,231.75604 107.41892,231.87725 107.27705,231.98701 C 106.18853,233.10158 105.24271,234.35614 104.09674,235.4196 C 103.98655,235.53313 102.67826,236.8825 102.59044,236.96715 C 101.46947,238.04781 100.28426,239.05866 99.135754,240.10931 C 97.405062,241.60452 95.575539,242.97663 93.69006,244.27106 C 93.447252,244.43703 93.200775,244.59775 92.961635,244.76896 C 92.797704,244.88632 92.639269,245.01125 92.481265,245.13648 C 92.400353,245.20061 92.339588,245.29529 92.24509,245.33688 C 91.072317,245.85301 89.884384,246.33466 88.692137,246.80406 C 88.546778,246.86129 89.403859,246.25412 89.053002,246.50503 C 90.016651,245.72911 90.962178,244.93529 91.861582,244.08405 C 93.48004,242.58149 95.180675,241.17029 96.777134,239.64455 C 97.010427,239.39877 97.257795,239.16562 97.477015,238.9072 C 98.374866,237.84883 98.979821,236.53578 99.277708,235.18815 C 99.416028,233.95487 99.370306,232.69839 98.916705,231.52697 C 98.274844,230.45606 97.728174,230.41895 96.547171,230.69805 C 95.83875,230.9344 95.842495,230.91388 95.120868,231.24271 C 94.839631,231.37087 94.028885,231.81787 94.286645,231.64735 C 94.999365,231.17585 95.742399,230.75069 96.490102,230.3369 C 97.121926,229.98725 93.909052,231.94643 94.710041,231.57162 C 94.387459,231.8037 94.055679,232.0235 93.742293,232.26786 C 92.115111,233.53662 90.718121,235.07004 89.241065,236.50183 C 87.389117,238.35926 85.563078,240.24254 83.693291,242.08208 C 82.68064,243.05292 78.75384,246.93365 78.197069,245.25479 C 78.169379,245.1713 78.288385,245.10442 78.334043,245.02923 C 79.495097,243.82445 80.778676,242.74233 81.90707,241.5056 C 83.373816,239.9671 84.77485,238.3586 85.962663,236.59141 C 86.604599,235.4444 87.498882,233.74326 87.521885,232.39328 C 87.524826,232.22071 87.477187,232.05099 87.454838,231.87984 C 87.395531,231.75777 87.357814,231.6226 87.276917,231.51363 C 86.86362,230.95693 85.916687,231.31911 85.389689,231.41 C 84.141365,231.81873 82.304978,232.97293 87.008008,230.26685 C 87.198263,230.15738 86.630598,230.492 86.451651,230.61912 C 86.266299,230.75079 86.082533,230.88671 85.916603,231.04215 C 85.76015,231.1887 85.630932,231.36185 85.488097,231.5217 C 85.016368,232.26074 84.622312,232.98902 84.756014,233.89379 L 81.41408,235.5966 z"
         id="path2584"
         style="fill:#000000;stroke-width:5;stroke-miterlimit:4;stroke-dasharray:none" />
      <path
         d="M 125.20429,236.62957 C 125.29377,236.64495 125.38526,236.65135 125.47273,236.67569 C 125.59617,236.71004 125.71405,236.7619 125.83472,236.80501 C 125.97049,236.84701 126.1049,236.89367 126.24202,236.931 C 126.81026,237.08568 127.38354,237.15213 127.96721,237.2192 C 130.46972,237.56587 132.97233,237.92231 135.48298,238.2113 C 137.94037,238.46441 140.4088,238.58683 142.87825,238.62316 C 143.41578,238.56647 144.00167,238.6341 144.51511,238.41955 C 144.66261,238.35792 145.06588,238.0948 144.92636,238.17283 C 142.16697,239.71613 141.36433,240.34344 142.58114,239.43022 C 143.1523,238.89511 143.50373,238.53209 143.23429,237.73841 C 142.85421,236.93729 142.04136,236.60628 141.28913,236.23608 C 139.97526,235.73199 138.64197,235.28389 137.32493,234.78663 C 136.33038,234.40356 135.28171,234.27969 134.22675,234.21904 C 133.30718,234.21578 132.37918,234.12761 131.45965,234.18075 C 131.23404,234.19379 130.37992,234.31706 130.15641,234.34812 C 129.48068,234.46572 128.85451,234.72427 128.25498,235.04992 C 128.04549,235.16371 127.42911,235.52659 127.63757,235.41092 C 130.19482,233.99199 130.90619,233.45086 129.5053,234.45213 C 128.32991,235.3228 127.3424,236.40374 126.40578,237.51839 C 125.7109,238.34324 125.30334,239.34765 124.97408,240.3629 C 124.79526,241.15208 124.58809,241.98739 124.65782,242.80531 C 124.6738,242.99265 124.72229,243.17578 124.75453,243.36101 C 125.20028,244.75737 126.08153,245.95895 127.12194,246.97132 C 127.85318,247.6893 128.65202,248.34095 129.53987,248.85773 C 129.73621,248.97201 130.80461,249.49322 130.97322,249.57624 C 132.66223,250.40023 134.52656,250.57714 136.37308,250.70575 C 138.18143,250.79462 139.9927,250.78104 141.80267,250.78711 C 143.53602,250.80376 145.26934,250.78911 147.0026,250.77158 L 144.11849,252.86781 C 142.38909,252.8563 140.65966,252.85038 138.93032,252.87453 C 137.11734,252.8849 135.30236,252.89202 133.49256,252.76608 C 131.60577,252.61692 129.70481,252.41098 127.98899,251.5456 C 127.48314,251.30582 126.98918,251.08826 126.50907,250.79914 C 125.61114,250.25842 124.80306,249.58194 124.05521,248.85146 C 122.99119,247.76791 122.05189,246.52511 121.54426,245.07891 C 121.49726,244.8755 121.43156,244.67553 121.40325,244.46869 C 121.28758,243.62349 121.50416,242.74893 121.66404,241.92676 C 121.9739,240.86638 122.38356,239.80916 123.06969,238.93264 C 124.02487,237.814 124.98369,236.68627 126.15404,235.7812 C 127.85807,234.49274 126.71342,235.32336 130.44571,233.1426 C 131.25726,232.66842 132.12605,232.31292 133.06142,232.17974 C 134.43384,232.01444 135.81003,232.04685 137.19014,232.09284 C 138.27233,232.15949 139.33177,232.34292 140.33998,232.7616 C 141.65317,233.28106 142.9959,233.71594 144.30671,234.24078 C 145.18092,234.63686 146.0489,235.02293 146.47599,235.94124 C 146.82078,236.83755 146.65564,237.37272 145.98661,238.05951 C 144.62578,239.26395 145.49123,238.54005 142.05859,240.45955 C 141.91395,240.54043 141.75349,240.59232 141.5932,240.63439 C 141.06316,240.77352 140.5042,240.71635 139.96476,240.72524 C 137.54828,240.59888 135.13468,240.42271 132.72812,240.16704 C 130.15733,239.89675 127.59281,239.57771 125.02215,239.30939 C 124.04194,239.20346 123.10182,238.97593 122.1405,238.77915 L 125.20429,236.62957 z"
         id="path2586"
         style="fill:#000000;stroke-width:5;stroke-miterlimit:4;stroke-dasharray:none" />
      <path
         d="M 181.86055,240.31582 C 181.25108,239.62535 180.51182,239.12494 179.70334,238.69759 C 179.06141,238.46851 178.36787,238.30414 177.68175,238.29592 C 177.52604,238.29406 176.52849,238.38679 176.41955,238.39644 C 174.90762,238.49869 173.40386,238.67705 171.89638,238.82528 C 170.88256,238.85813 169.88477,239.04776 168.94561,239.43493 C 168.72256,239.52689 168.08183,239.86316 168.28913,239.73973 C 169.13249,239.23757 170.00055,238.77809 170.85626,238.29728 C 170.13465,238.75106 169.62187,239.33725 169.40477,240.16 C 169.28733,241.0845 169.72641,241.62206 170.47647,242.10001 C 172.04927,242.98502 173.89629,243.09091 175.6401,243.38994 C 176.97569,243.59925 178.32,243.73972 179.55978,244.30638 C 180.31628,244.66795 180.68277,245.31131 180.86897,246.09439 C 181.04893,247.0135 180.9285,247.93656 180.71641,248.83757 C 180.32427,250.00897 179.47698,250.93804 178.65093,251.82765 C 177.64482,252.74567 176.66146,253.69612 175.5504,254.48701 C 172.98171,256.10302 171.44082,257.11635 168.64669,257.38593 C 167.65006,257.51244 166.65931,257.38181 165.66721,257.29246 C 165.49978,257.24163 165.32587,257.20862 165.16491,257.13999 C 164.7564,256.96578 164.3341,256.67101 163.96594,256.43294 C 163.43186,256.08758 162.89199,255.75299 162.35411,255.41366 C 161.98417,255.15618 161.59732,254.92523 161.21855,254.68133 L 164.32512,252.68999 C 164.69307,252.93841 165.0624,253.18489 165.42426,253.44219 C 166.43533,254.11499 167.4416,254.93808 168.66194,255.15731 C 169.62965,255.24366 170.5973,255.35422 171.5677,255.21309 C 172.16599,255.13546 172.75013,255.04611 173.32909,254.86895 C 174.52723,254.50231 176.92725,253.13298 172.18754,255.80806 C 172.62384,255.51967 172.89889,255.35836 173.29379,255.0188 C 173.97164,254.43594 174.60413,253.79546 175.2952,253.2261 C 176.11963,252.39208 176.94892,251.4905 177.42581,250.40841 C 177.67364,249.57114 177.73591,248.7141 177.60328,247.84794 C 177.46734,247.15925 177.1683,246.63709 176.49833,246.33853 C 175.3031,245.80903 174.00818,245.65574 172.72996,245.43007 C 170.92292,245.12352 169.03287,244.94785 167.39014,244.07271 C 166.54884,243.472 166.03054,242.84885 166.07569,241.77004 C 166.24018,240.76722 166.64971,240.22032 167.47009,239.60795 C 170.53614,237.83671 171.5456,236.86529 174.8007,236.67107 C 176.30855,236.52078 177.81709,236.38347 179.32616,236.2462 C 180.50732,236.14686 181.68659,236.17816 182.7826,236.69031 C 183.59155,237.15967 184.32924,237.70626 185.02783,238.32636 L 181.86055,240.31582 z"
         id="path2588"
         style="fill:#000000;stroke-width:5;stroke-miterlimit:4;stroke-dasharray:none" />
    </g>
    <text
       xml:space="preserve"
       style="font-size:13px;font-style:normal;font-weight:bold;writing-mode:lr-tb;fill:#000000;fill-opacity:1;stroke:none;stroke-width:1px;stroke-linecap:butt;stroke-linejoin:miter;stroke-opacity:1;font-family:Sans;-inkscape-font-specification:Sans"
       x="120.47243"
       y="981.49603"
       id="text3769"><tspan
         sodipodi:role="line"
         id="tspan3771"
         x="120.47243"
         y="981.49603">apologies to those with </tspan><tspan
         sodipodi:role="line"
         x="120.47243"
         y="997.74603"
         id="tspan3773">prior LDA/LSI experience</tspan></text>
    <text
       xml:space="preserve"
       style="font-size:24px;font-style:normal;font-weight:bold;writing-mode:lr-tb;fill:#000000;fill-opacity:1;stroke:none;stroke-width:1px;stroke-linecap:butt;stroke-linejoin:miter;stroke-opacity:1;font-family:Sans;-inkscape-font-specification:Sans"
       x="56.692909"
       y="752.56055"
       id="text3775"><tspan
         sodipodi:role="line"
         id="tspan3777"
         x="56.692909"
         y="752.56055">Example</tspan></text>
    <text
       xml:space="preserve"
       style="font-size:12px;font-style:normal;font-weight:bold;writing-mode:lr-tb;fill:#000000;fill-opacity:1;stroke:none;stroke-width:1px;stroke-linecap:butt;stroke-linejoin:miter;stroke-opacity:1;font-family:Sans;-inkscape-font-specification:Sans"
       x="396.8504"
       y="967.32281"
       id="text6924"><tspan
         sodipodi:role="line"
         id="tspan6926"
         x="396.8504"
         y="967.32281">[Blei]</tspan></text>
  </g>
</svg>
