<?xml version="1.0" encoding="UTF-8" standalone="no"?>
<!-- Created with Inkscape (http://www.inkscape.org/) -->
<svg
   xmlns:dc="http://purl.org/dc/elements/1.1/"
   xmlns:cc="http://creativecommons.org/ns#"
   xmlns:rdf="http://www.w3.org/1999/02/22-rdf-syntax-ns#"
   xmlns:svg="http://www.w3.org/2000/svg"
   xmlns="http://www.w3.org/2000/svg"
   xmlns:sodipodi="http://sodipodi.sourceforge.net/DTD/sodipodi-0.dtd"
   xmlns:inkscape="http://www.inkscape.org/namespaces/inkscape"
   width="453.5433"
   height="340.15747"
   id="svg2"
   sodipodi:version="0.32"
   inkscape:version="0.46"
   sodipodi:docname="slide220-apply-sliding-window.svg"
   version="1.0"
   inkscape:output_extension="org.inkscape.output.svg.inkscape">
  <defs
     id="defs4">
    <inkscape:perspective
       sodipodi:type="inkscape:persp3d"
       inkscape:vp_x="0 : 170.07874 : 1"
       inkscape:vp_y="0 : 1000 : 0"
       inkscape:vp_z="453.5433 : 170.07874 : 1"
       inkscape:persp3d-origin="226.77165 : 113.38582 : 1"
       id="perspective24051" />
  </defs>
  <sodipodi:namedview
     id="base"
     pagecolor="#ffffff"
     bordercolor="#666666"
     borderopacity="1.0"
     gridtolerance="10000"
     guidetolerance="8.8"
     objecttolerance="10"
     inkscape:pageopacity="0.0"
     inkscape:pageshadow="2"
     inkscape:zoom="1.540463"
     inkscape:cx="189.76727"
     inkscape:cy="212.9604"
     inkscape:document-units="mm"
     inkscape:current-layer="layer1"
     inkscape:window-width="952"
     inkscape:window-height="1167"
     inkscape:window-x="0"
     inkscape:window-y="25"
     width="12.8cm"
     height="9.6cm"
     units="cm"
     showgrid="false"
     grid_units="mm"
     inkscape:object-paths="false"
     inkscape:grid-points="true"
     inkscape:grid-bbox="true"
     inkscape:guide-points="true"
     showguides="true"
     inkscape:guide-bbox="true">
    <sodipodi:guide
       orientation="vertical"
       position="56.476527"
       id="guide3573" />
    <sodipodi:guide
       orientation="horizontal"
       position="11.035643"
       id="guide3579" />
    <sodipodi:guide
       orientation="horizontal"
       position="24.018753"
       id="guide3886" />
    <sodipodi:guide
       orientation="horizontal"
       position="285.62841"
       id="guide3988" />
    <sodipodi:guide
       orientation="horizontal"
       position="303.15561"
       id="guide4081" />
    <inkscape:grid
       id="GridFromPre046Settings"
       type="xygrid"
       originx="0px"
       originy="0px"
       spacingx="2mm"
       spacingy="2mm"
       color="#0000ff"
       empcolor="#0000ff"
       opacity="0.2"
       empopacity="0.4"
       empspacing="5" />
  </sodipodi:namedview>
  <metadata
     id="metadata7">
    <rdf:RDF>
      <cc:Work
         rdf:about="">
        <dc:format>image/svg+xml</dc:format>
        <dc:type
           rdf:resource="http://purl.org/dc/dcmitype/StillImage" />
      </cc:Work>
    </rdf:RDF>
  </metadata>
  <g
     inkscape:label="Layer 1"
     inkscape:groupmode="layer"
     id="layer1"
     transform="translate(4.149475e-6,-698.0315)">
    <path
       style="fill:#ffaaaa;fill-rule:evenodd;stroke:#000000;stroke-width:0.3274819px;stroke-linecap:butt;stroke-linejoin:miter;stroke-opacity:1"
       d="M 240.68715,814.02663 C 257.05257,814.02663 272.18416,802.2478 288.32329,794.17822 C 300.04406,788.31783 309.63984,773.48706 317.43427,763.74401 C 327.66975,750.94969 328.96068,734.25839 342.57558,724.04722 C 353.27398,716.02342 363.35816,714.75341 374.33303,708.1685 C 380.64602,704.38069 395.62639,706.84525 403.44399,706.84525 C 413.60503,706.84525 427.67048,719.1137 431.23175,728.01689 C 434.29147,735.66617 449.2834,748.24145 453.72661,757.12787 C 454.60875,758.89217 455.49092,760.65649 456.37306,762.42079 C 460.45063,770.57594 468.50436,778.52177 474.89822,784.91562 C 482.48017,792.49758 487.5976,797.88145 496.06985,802.11759 C 506.67421,807.41975 518.92118,810.05693 530.47376,810.05693 C 537.44457,810.05693 536.90606,810.71854 544.36767,810.71854 C 545.69089,810.71854 550.32217,812.0418 559.58477,814.02663"
       id="path24138"
       sodipodi:nodetypes="cssssssssssssc" />
    <path
       style="fill:#ffaaaa;fill-rule:evenodd;stroke:#000000;stroke-width:0.3274819px;stroke-linecap:butt;stroke-linejoin:miter;stroke-opacity:1"
       d="M -42.777431,814.02663 C -26.412011,814.02663 -11.280421,802.2478 4.8587061,794.17822 C 16.579478,788.31783 26.175254,773.48706 33.969686,763.74401 C 44.205164,750.94969 45.496094,734.25839 59.110994,724.04722 C 69.809401,716.02342 79.893583,714.75341 90.868453,708.1685 C 97.181444,704.38069 112.16181,706.84525 119.97941,706.84525 C 130.14045,706.84525 144.2059,719.1137 147.76717,728.01689 C 150.82689,735.66617 165.81882,748.24145 170.26203,757.12787 C 171.14417,758.89217 172.02634,760.65649 172.90848,762.42079 C 176.98605,770.57594 185.03978,778.52177 191.43364,784.91562 C 199.01559,792.49758 204.13302,797.88145 212.60527,802.11759 C 223.20963,807.41975 235.4566,810.05693 247.00918,810.05693 C 253.97999,810.05693 253.44148,810.71854 260.90309,810.71854 C 262.22631,810.71854 266.85759,812.0418 276.12019,814.02663"
       id="path5331"
       sodipodi:nodetypes="cssssssssssssc" />
    <path
       style="fill:#ffaaaa;fill-rule:evenodd;stroke:#000000;stroke-width:0.3274819px;stroke-linecap:butt;stroke-linejoin:miter;stroke-opacity:1"
       d="M 49.132167,814.02663 C 65.497586,814.02663 80.629177,802.2478 96.768304,794.17822 C 108.48907,788.31783 118.08485,773.48706 125.87928,763.74401 C 136.11476,750.94969 137.40569,734.25839 151.02059,724.04722 C 161.71899,716.02342 171.80317,714.75341 182.77804,708.1685 C 189.09103,704.38069 204.0714,706.84525 211.889,706.84525 C 222.05004,706.84525 236.11549,719.1137 239.67676,728.01689 C 242.73648,735.66617 257.72841,748.24145 262.17162,757.12787 C 263.05376,758.89217 263.93593,760.65649 264.81807,762.42079 C 268.89564,770.57594 276.94937,778.52177 283.34323,784.91562 C 290.92518,792.49758 296.04261,797.88145 304.51486,802.11759 C 315.11922,807.41975 327.36619,810.05693 338.91877,810.05693 C 345.88958,810.05693 345.35107,810.71854 352.81268,810.71854 C 354.1359,810.71854 358.76718,812.0418 368.02978,814.02663"
       id="path24134"
       sodipodi:nodetypes="cssssssssssssc" />
    <path
       style="fill:#ffaaaa;fill-rule:evenodd;stroke:#000000;stroke-width:0.3274819px;stroke-linecap:butt;stroke-linejoin:miter;stroke-opacity:1"
       d="M 134.38794,814.02663 C 150.75336,814.02663 165.88495,802.2478 182.02408,794.17822 C 193.74485,788.31783 203.34063,773.48706 211.13506,763.74401 C 221.37054,750.94969 222.66147,734.25839 236.27637,724.04722 C 246.97477,716.02342 257.05895,714.75341 268.03382,708.1685 C 274.34681,704.38069 289.32718,706.84525 297.14478,706.84525 C 307.30582,706.84525 321.37127,719.1137 324.93254,728.01689 C 327.99226,735.66617 342.98419,748.24145 347.4274,757.12787 C 348.30954,758.89217 349.19171,760.65649 350.07385,762.42079 C 354.15142,770.57594 362.20515,778.52177 368.59901,784.91562 C 376.18096,792.49758 381.29839,797.88145 389.77064,802.11759 C 400.375,807.41975 412.62197,810.05693 424.17455,810.05693 C 431.14536,810.05693 430.60685,810.71854 438.06846,810.71854 C 439.39168,810.71854 444.02296,812.0418 453.28556,814.02663"
       id="path24136"
       sodipodi:nodetypes="cssssssssssssc" />
    <path
       style="fill:#d40055;fill-opacity:1;stroke:#f41e16;stroke-width:5.81158686;stroke-miterlimit:4;stroke-dasharray:5.81158688, 5.81158688;stroke-dashoffset:0;stroke-opacity:1"
       d="M 49.132167,766.55076 C 104.71548,767.78045 136.90854,756.36467 218.90023,743.16049 L 410.54949,766.55076 L 410.54949,808.80413 L 220.16344,778.1429 L 49.132167,808.80413 L 49.132167,766.55076 z"
       id="rect5701"
       sodipodi:nodetypes="ccccccc" />
    <g
       id="g3064"
       transform="matrix(0.1244728,0,0,0.1244728,119.00507,679.61354)">
      <g
         transform="translate(-518.57143,65.714286)"
         id="g3009">
        <path
           sodipodi:type="star"
           style="fill:#000000;stroke-width:5;stroke-miterlimit:4;stroke-dasharray:none"
           id="path3000"
           sodipodi:sides="3"
           sodipodi:cx="170"
           sodipodi:cy="-46.209248"
           sodipodi:r1="202.37367"
           sodipodi:r2="101.70627"
           sodipodi:arg1="0.5331557"
           sodipodi:arg2="1.6050908"
           inkscape:flatsided="false"
           inkscape:rounded="0"
           inkscape:randomized="0"
           d="M 344.28572,56.647896 L 166.51272,55.437218 L -6.219758,53.29804 L 83.715219,-100.05255 L 171.93404,-248.57368 L 259.77206,-94.012408 L 344.28572,56.647896 z"
           transform="translate(58.389218,829.44544)" />
        <path
           sodipodi:type="star"
           style="fill:#ff0000;stroke-width:5;stroke-miterlimit:4;stroke-dasharray:none"
           id="path3002"
           sodipodi:sides="3"
           sodipodi:cx="170"
           sodipodi:cy="-46.209248"
           sodipodi:r1="202.37367"
           sodipodi:r2="101.70627"
           sodipodi:arg1="0.5331557"
           sodipodi:arg2="1.6050908"
           inkscape:flatsided="false"
           inkscape:rounded="0"
           inkscape:randomized="0"
           d="M 344.28572,56.647896 L 166.51272,55.437218 L -6.219758,53.29804 L 83.715219,-100.05255 L 171.93404,-248.57368 L 259.77206,-94.012408 L 344.28572,56.647896 z"
           transform="matrix(0.7800193,0,0,0.7800193,99.416579,818.80339)" />
        <path
           style="fill:#ff0000;stroke-width:5;stroke-miterlimit:4;stroke-dasharray:none"
           id="path3004"
           d="M 57.980037,905.58441 C 94.025089,907.33981 130.12003,907.78139 166.19739,908.4049 C 250.4897,911.65825 334.80227,914.04033 419.15102,915.04281 L 410.91813,920.99547 C 326.25121,918.07788 241.54946,915.74274 156.83048,915.21035 C 118.16504,915.84825 79.486769,916.3421 40.848979,918.03085 L 57.980037,905.58441 z" />
      </g>
    </g>
    <g
       id="g3052"
       transform="matrix(0.1304566,0,0,0.1304566,46.319737,675.518)">
      <g
         transform="translate(2.8571414,-8.5714286)"
         id="g3047">
        <path
           sodipodi:type="star"
           style="fill:#000000;stroke-width:5;stroke-miterlimit:4;stroke-dasharray:none"
           id="path3027"
           sodipodi:sides="3"
           sodipodi:cx="170"
           sodipodi:cy="-46.209248"
           sodipodi:r1="202.37367"
           sodipodi:r2="101.70627"
           sodipodi:arg1="0.5331557"
           sodipodi:arg2="1.6050908"
           inkscape:flatsided="false"
           inkscape:rounded="0"
           inkscape:randomized="0"
           d="M 344.28572,56.647896 L 166.51272,55.437218 L -6.219758,53.29804 L 83.715219,-100.05255 L 171.93404,-248.57368 L 259.77206,-94.012408 L 344.28572,56.647896 z"
           transform="translate(478.38922,853.73116)" />
        <path
           sodipodi:type="star"
           style="fill:#00ff00;stroke-width:5;stroke-miterlimit:4;stroke-dasharray:none"
           id="path3029"
           sodipodi:sides="3"
           sodipodi:cx="170"
           sodipodi:cy="-46.209248"
           sodipodi:r1="202.37367"
           sodipodi:r2="101.70627"
           sodipodi:arg1="0.5331557"
           sodipodi:arg2="1.6050908"
           inkscape:flatsided="false"
           inkscape:rounded="0"
           inkscape:randomized="0"
           d="M 344.28572,56.647896 L 166.51272,55.437218 L -6.219758,53.29804 L 83.715219,-100.05255 L 171.93404,-248.57368 L 259.77206,-94.012408 L 344.28572,56.647896 z"
           transform="matrix(0.7800193,0,0,0.7800193,519.41658,843.08911)" />
        <path
           style="fill:#00ff00;stroke-width:5;stroke-miterlimit:4;stroke-dasharray:none"
           id="path3031"
           d="M 477.98004,929.87013 C 514.02509,931.62548 550.12003,932.06708 586.19739,932.69058 C 670.4897,935.94398 754.80227,938.32608 839.15102,939.32848 L 830.91813,945.28118 C 746.25121,942.36358 661.54946,940.02848 576.83048,939.49608 C 538.16504,940.13398 499.48677,940.62778 460.84898,942.31658 L 477.98004,929.87013 z" />
      </g>
    </g>
    <g
       id="g5778"
       transform="matrix(0.1171863,0,0,0.1171863,219.45475,672.41475)">
      <g
         transform="translate(-518.57143,65.714286)"
         id="g5780">
        <path
           sodipodi:type="star"
           style="fill:#000000;stroke-width:5;stroke-miterlimit:4;stroke-dasharray:none"
           id="path5782"
           sodipodi:sides="3"
           sodipodi:cx="170"
           sodipodi:cy="-46.209248"
           sodipodi:r1="202.37367"
           sodipodi:r2="101.70627"
           sodipodi:arg1="0.5331557"
           sodipodi:arg2="1.6050908"
           inkscape:flatsided="false"
           inkscape:rounded="0"
           inkscape:randomized="0"
           d="M 344.28572,56.647896 L 166.51272,55.437218 L -6.219758,53.29804 L 83.715219,-100.05255 L 171.93404,-248.57368 L 259.77206,-94.012408 L 344.28572,56.647896 z"
           transform="translate(58.389218,829.44544)" />
        <path
           sodipodi:type="star"
           style="fill:#ff0000;stroke-width:5;stroke-miterlimit:4;stroke-dasharray:none"
           id="path5784"
           sodipodi:sides="3"
           sodipodi:cx="170"
           sodipodi:cy="-46.209248"
           sodipodi:r1="202.37367"
           sodipodi:r2="101.70627"
           sodipodi:arg1="0.5331557"
           sodipodi:arg2="1.6050908"
           inkscape:flatsided="false"
           inkscape:rounded="0"
           inkscape:randomized="0"
           d="M 344.28572,56.647896 L 166.51272,55.437218 L -6.219758,53.29804 L 83.715219,-100.05255 L 171.93404,-248.57368 L 259.77206,-94.012408 L 344.28572,56.647896 z"
           transform="matrix(0.7800193,0,0,0.7800193,99.416579,818.80339)" />
        <path
           style="fill:#ff0000;stroke-width:5;stroke-miterlimit:4;stroke-dasharray:none"
           id="path5786"
           d="M 57.980037,905.58441 C 94.025089,907.33981 130.12003,907.78139 166.19739,908.4049 C 250.4897,911.65825 334.80227,914.04033 419.15102,915.04281 L 410.91813,920.99547 C 326.25121,918.07788 241.54946,915.74274 156.83048,915.21035 C 118.16504,915.84825 79.486769,916.3421 40.848979,918.03085 L 57.980037,905.58441 z" />
      </g>
    </g>
    <g
       id="g3058"
       transform="matrix(0.1171863,0,0,0.1171863,305.32447,680.2541)">
      <g
         id="g3020">
        <path
           sodipodi:type="star"
           style="fill:#000000;stroke-width:5;stroke-miterlimit:4;stroke-dasharray:none"
           id="path3014"
           sodipodi:sides="3"
           sodipodi:cx="170"
           sodipodi:cy="-46.209248"
           sodipodi:r1="202.37367"
           sodipodi:r2="101.70627"
           sodipodi:arg1="0.5331557"
           sodipodi:arg2="1.6050908"
           inkscape:flatsided="false"
           inkscape:rounded="0"
           inkscape:randomized="0"
           d="M 344.28572,56.647896 L 166.51272,55.437218 L -6.219758,53.29804 L 83.715219,-100.05255 L 171.93404,-248.57368 L 259.77206,-94.012408 L 344.28572,56.647896 z"
           transform="translate(28.389222,872.30258)" />
        <path
           sodipodi:type="star"
           style="fill:#0000ff;stroke-width:5;stroke-miterlimit:4;stroke-dasharray:none"
           id="path3016"
           sodipodi:sides="3"
           sodipodi:cx="170"
           sodipodi:cy="-46.209248"
           sodipodi:r1="202.37367"
           sodipodi:r2="101.70627"
           sodipodi:arg1="0.5331557"
           sodipodi:arg2="1.6050908"
           inkscape:flatsided="false"
           inkscape:rounded="0"
           inkscape:randomized="0"
           d="M 344.28572,56.647896 L 166.51272,55.437218 L -6.219758,53.29804 L 83.715219,-100.05255 L 171.93404,-248.57368 L 259.77206,-94.012408 L 344.28572,56.647896 z"
           transform="matrix(0.7800193,0,0,0.7800193,69.416582,861.66053)" />
        <path
           style="fill:#0000ff;stroke-width:5;stroke-miterlimit:4;stroke-dasharray:none"
           id="path3018"
           d="M 27.980042,948.44155 C 64.025092,950.1969 100.12003,950.6385 136.19739,951.262 C 220.4897,954.5154 304.80227,956.8975 389.15102,957.8999 L 380.91813,963.8526 C 296.25121,960.935 211.54946,958.5999 126.83048,958.0675 C 88.165042,958.7054 49.486772,959.1992 10.848982,960.888 L 27.980042,948.44155 z" />
      </g>
    </g>
    <g
       id="g5793"
       transform="matrix(0.1171863,0,0,0.1171863,154.86328,673.24879)">
      <g
         transform="translate(2.8571414,-8.5714286)"
         id="g5795">
        <path
           sodipodi:type="star"
           style="fill:#000000;stroke-width:5;stroke-miterlimit:4;stroke-dasharray:none"
           id="path5797"
           sodipodi:sides="3"
           sodipodi:cx="170"
           sodipodi:cy="-46.209248"
           sodipodi:r1="202.37367"
           sodipodi:r2="101.70627"
           sodipodi:arg1="0.5331557"
           sodipodi:arg2="1.6050908"
           inkscape:flatsided="false"
           inkscape:rounded="0"
           inkscape:randomized="0"
           d="M 344.28572,56.647896 L 166.51272,55.437218 L -6.219758,53.29804 L 83.715219,-100.05255 L 171.93404,-248.57368 L 259.77206,-94.012408 L 344.28572,56.647896 z"
           transform="translate(478.38922,853.73116)" />
        <path
           sodipodi:type="star"
           style="fill:#00ff00;stroke-width:5;stroke-miterlimit:4;stroke-dasharray:none"
           id="path5799"
           sodipodi:sides="3"
           sodipodi:cx="170"
           sodipodi:cy="-46.209248"
           sodipodi:r1="202.37367"
           sodipodi:r2="101.70627"
           sodipodi:arg1="0.5331557"
           sodipodi:arg2="1.6050908"
           inkscape:flatsided="false"
           inkscape:rounded="0"
           inkscape:randomized="0"
           d="M 344.28572,56.647896 L 166.51272,55.437218 L -6.219758,53.29804 L 83.715219,-100.05255 L 171.93404,-248.57368 L 259.77206,-94.012408 L 344.28572,56.647896 z"
           transform="matrix(0.7800193,0,0,0.7800193,519.41658,843.08911)" />
        <path
           style="fill:#00ff00;stroke-width:5;stroke-miterlimit:4;stroke-dasharray:none"
           id="path5801"
           d="M 477.98004,929.87013 C 514.02509,931.62548 550.12003,932.06708 586.19739,932.69058 C 670.4897,935.94398 754.80227,938.32608 839.15102,939.32848 L 830.91813,945.28118 C 746.25121,942.36358 661.54946,940.02848 576.83048,939.49608 C 538.16504,940.13398 499.48677,940.62778 460.84898,942.31658 L 477.98004,929.87013 z" />
      </g>
    </g>
    <g
       id="g3042"
       transform="matrix(0.1171863,0,0,0.1171863,191.74574,728.99899)">
      <path
         transform="translate(594.10351,412.30254)"
         d="M 344.28572,56.647896 L 166.51272,55.437218 L -6.219758,53.29804 L 83.715219,-100.05255 L 171.93404,-248.57368 L 259.77206,-94.012408 L 344.28572,56.647896 z"
         inkscape:randomized="0"
         inkscape:rounded="0"
         inkscape:flatsided="false"
         sodipodi:arg2="1.6050908"
         sodipodi:arg1="0.5331557"
         sodipodi:r2="101.70627"
         sodipodi:r1="202.37367"
         sodipodi:cy="-46.209248"
         sodipodi:cx="170"
         sodipodi:sides="3"
         id="path3036"
         style="fill:#000000;stroke-width:5;stroke-miterlimit:4;stroke-dasharray:none"
         sodipodi:type="star" />
      <path
         transform="matrix(0.7800193,0,0,0.7800193,635.13087,401.66054)"
         d="M 344.28572,56.647896 L 166.51272,55.437218 L -6.219758,53.29804 L 83.715219,-100.05255 L 171.93404,-248.57368 L 259.77206,-94.012408 L 344.28572,56.647896 z"
         inkscape:randomized="0"
         inkscape:rounded="0"
         inkscape:flatsided="false"
         sodipodi:arg2="1.6050908"
         sodipodi:arg1="0.5331557"
         sodipodi:r2="101.70627"
         sodipodi:r1="202.37367"
         sodipodi:cy="-46.209248"
         sodipodi:cx="170"
         sodipodi:sides="3"
         id="path3038"
         style="fill:#ff00ff;stroke-width:5;stroke-miterlimit:4;stroke-dasharray:none"
         sodipodi:type="star" />
      <path
         d="M 593.69433,488.44154 C 629.73938,490.19694 665.83432,490.63854 701.91168,491.26204 C 786.20399,494.51544 870.5166,496.89754 954.8653,497.89994 L 946.6324,503.85264 C 861.9655,500.93504 777.26375,498.59994 692.54477,498.06754 C 653.87933,498.70544 615.20106,499.19924 576.56327,500.88804 L 593.69433,488.44154 z"
         id="path3040"
         style="fill:#ff00ff;stroke-width:5;stroke-miterlimit:4;stroke-dasharray:none" />
    </g>
    <g
       id="g5807"
       transform="matrix(0.1171863,0,0,0.1171863,348.63149,688.2426)">
      <g
         id="g5809">
        <path
           sodipodi:type="star"
           style="fill:#000000;stroke-width:5;stroke-miterlimit:4;stroke-dasharray:none"
           id="path5811"
           sodipodi:sides="3"
           sodipodi:cx="170"
           sodipodi:cy="-46.209248"
           sodipodi:r1="202.37367"
           sodipodi:r2="101.70627"
           sodipodi:arg1="0.5331557"
           sodipodi:arg2="1.6050908"
           inkscape:flatsided="false"
           inkscape:rounded="0"
           inkscape:randomized="0"
           d="M 344.28572,56.647896 L 166.51272,55.437218 L -6.219758,53.29804 L 83.715219,-100.05255 L 171.93404,-248.57368 L 259.77206,-94.012408 L 344.28572,56.647896 z"
           transform="translate(28.389222,872.30258)" />
        <path
           sodipodi:type="star"
           style="fill:#0000ff;stroke-width:5;stroke-miterlimit:4;stroke-dasharray:none"
           id="path5813"
           sodipodi:sides="3"
           sodipodi:cx="170"
           sodipodi:cy="-46.209248"
           sodipodi:r1="202.37367"
           sodipodi:r2="101.70627"
           sodipodi:arg1="0.5331557"
           sodipodi:arg2="1.6050908"
           inkscape:flatsided="false"
           inkscape:rounded="0"
           inkscape:randomized="0"
           d="M 344.28572,56.647896 L 166.51272,55.437218 L -6.219758,53.29804 L 83.715219,-100.05255 L 171.93404,-248.57368 L 259.77206,-94.012408 L 344.28572,56.647896 z"
           transform="matrix(0.7800193,0,0,0.7800193,69.416582,861.66053)" />
        <path
           style="fill:#0000ff;stroke-width:5;stroke-miterlimit:4;stroke-dasharray:none"
           id="path5815"
           d="M 27.980042,948.44155 C 64.025092,950.1969 100.12003,950.6385 136.19739,951.262 C 220.4897,954.5154 304.80227,956.8975 389.15102,957.8999 L 380.91813,963.8526 C 296.25121,960.935 211.54946,958.5999 126.83048,958.0675 C 88.165042,958.7054 49.486772,959.1992 10.848982,960.888 L 27.980042,948.44155 z" />
      </g>
    </g>
    <path
       sodipodi:type="star"
       style="fill:#000000;fill-opacity:1;stroke:#001e16;stroke-width:17.71653557;stroke-miterlimit:4;stroke-dasharray:none;stroke-dashoffset:0;stroke-opacity:1"
       id="path7110"
       sodipodi:sides="3"
       sodipodi:cx="-111.65474"
       sodipodi:cy="170.07874"
       sodipodi:r1="8.2112398"
       sodipodi:r2="4.1266956"
       sodipodi:arg1="0.32175055"
       sodipodi:arg2="1.3689481"
       inkscape:flatsided="false"
       inkscape:rounded="0"
       inkscape:randomized="0"
       d="M -103.86487,172.67536 L -110.82742,174.12165 L -117.79841,175.52665 L -115.56967,168.77376 L -113.30093,162.0342 L -108.56713,167.3408 L -103.86487,172.67536 z"
       transform="matrix(0.5811587,0,0,0.5811587,385.80421,715.9423)" />
    <text
       xml:space="preserve"
       style="font-size:23.24634743px;font-style:normal;font-weight:normal;fill:#000000;fill-opacity:1;stroke:none;stroke-width:1px;stroke-linecap:butt;stroke-linejoin:miter;stroke-opacity:1;font-family:Bitstream Vera Sans"
       x="107.98508"
       y="844.6441"
       id="text7112"><tspan
         sodipodi:role="line"
         id="tspan7114"
         x="107.98508"
         y="844.6441">Development History</tspan></text>
    <text
       xml:space="preserve"
       style="font-size:11.62317371px;font-style:normal;font-weight:normal;fill:#000000;fill-opacity:1;stroke:none;stroke-width:1px;stroke-linecap:butt;stroke-linejoin:miter;stroke-opacity:1;font-family:Bitstream Vera Sans"
       x="117.03939"
       y="785.03662"
       id="text7132"><tspan
         sodipodi:role="line"
         id="tspan7134"
         x="117.03939"
         y="785.03662">delta</tspan></text>
    <text
       xml:space="preserve"
       style="font-size:11.62317371px;font-style:normal;font-weight:normal;fill:#000000;fill-opacity:1;stroke:none;stroke-width:1px;stroke-linecap:butt;stroke-linejoin:miter;stroke-opacity:1;font-family:Bitstream Vera Sans"
       x="171.18919"
       y="779.56097"
       id="text7136"><tspan
         sodipodi:role="line"
         id="tspan7138"
         x="171.18919"
         y="779.56097">delta</tspan></text>
    <text
       xml:space="preserve"
       style="font-size:11.62317371px;font-style:normal;font-weight:normal;fill:#000000;fill-opacity:1;stroke:none;stroke-width:1px;stroke-linecap:butt;stroke-linejoin:miter;stroke-opacity:1;font-family:Bitstream Vera Sans"
       x="217.96973"
       y="774.27924"
       id="text7140"><tspan
         sodipodi:role="line"
         id="tspan7142"
         x="217.96973"
         y="774.27924">delta</tspan></text>
    <text
       xml:space="preserve"
       style="font-size:11.62317371px;font-style:normal;font-weight:normal;fill:#000000;fill-opacity:1;stroke:none;stroke-width:1px;stroke-linecap:butt;stroke-linejoin:miter;stroke-opacity:1;font-family:Bitstream Vera Sans"
       x="267.76837"
       y="779.56097"
       id="text7144"><tspan
         sodipodi:role="line"
         id="tspan7146"
         x="267.76837"
         y="779.56097">delta</tspan></text>
    <text
       xml:space="preserve"
       style="font-size:11.62317371px;font-style:normal;font-weight:normal;fill:#000000;fill-opacity:1;stroke:none;stroke-width:1px;stroke-linecap:butt;stroke-linejoin:miter;stroke-opacity:1;font-family:Bitstream Vera Sans"
       x="315.30344"
       y="785.59717"
       id="text7148"><tspan
         sodipodi:role="line"
         id="tspan7150"
         x="315.30344"
         y="785.59717">delta</tspan></text>
    <text
       xml:space="preserve"
       style="font-size:11.62317371px;font-style:normal;font-weight:normal;fill:#000000;fill-opacity:1;stroke:none;stroke-width:1px;stroke-linecap:butt;stroke-linejoin:miter;stroke-opacity:1;font-family:Bitstream Vera Sans"
       x="359.82037"
       y="792.38788"
       id="text7152"><tspan
         sodipodi:role="line"
         id="tspan7154"
         x="359.82037"
         y="792.38788">delta</tspan></text>
    <text
       xml:space="preserve"
       style="font-size:11.62317371px;font-style:normal;font-weight:normal;fill:#000000;fill-opacity:1;stroke:none;stroke-width:1px;stroke-linecap:butt;stroke-linejoin:miter;stroke-opacity:1;font-family:Bitstream Vera Sans"
       x="69.328369"
       y="792.38788"
       id="text7156"><tspan
         sodipodi:role="line"
         id="tspan7158"
         x="69.328369"
         y="792.38788">delta</tspan></text>
    <path
       style="fill:none;fill-rule:evenodd;stroke:#000000;stroke-width:10.29611874;stroke-linecap:butt;stroke-linejoin:miter;stroke-miterlimit:4;stroke-dasharray:none;stroke-opacity:1"
       d="M 138.16608,806.9178 C 208.33687,779.75494 313.97033,812.95401 313.97033,812.95401"
       id="path5821" />
    <path
       style="fill:#d40055;fill-opacity:1;stroke:#f41e16;stroke-width:5.81158686;stroke-miterlimit:4;stroke-dasharray:5.81158688, 5.81158688;stroke-dashoffset:0;stroke-opacity:1"
       d="M 47.144905,918.54876 C 102.72823,919.77845 134.92129,908.36267 216.91298,895.15849 L 408.56224,918.54876 L 408.56224,960.80213 L 218.17619,930.1409 L 47.144905,960.80213 L 47.144905,918.54876 z"
       id="path24140"
       sodipodi:nodetypes="ccccccc" />
    <g
       id="g24142"
       transform="matrix(0.1244728,0,0,0.1244728,117.01782,831.61154)">
      <g
         transform="translate(-518.57143,65.714286)"
         id="g24144">
        <path
           sodipodi:type="star"
           style="fill:#000000;stroke-width:5;stroke-miterlimit:4;stroke-dasharray:none"
           id="path24146"
           sodipodi:sides="3"
           sodipodi:cx="170"
           sodipodi:cy="-46.209248"
           sodipodi:r1="202.37367"
           sodipodi:r2="101.70627"
           sodipodi:arg1="0.5331557"
           sodipodi:arg2="1.6050908"
           inkscape:flatsided="false"
           inkscape:rounded="0"
           inkscape:randomized="0"
           d="M 344.28572,56.647896 L 166.51272,55.437218 L -6.219758,53.29804 L 83.715219,-100.05255 L 171.93404,-248.57368 L 259.77206,-94.012408 L 344.28572,56.647896 z"
           transform="translate(58.389218,829.44544)" />
        <path
           sodipodi:type="star"
           style="fill:#ff0000;stroke-width:5;stroke-miterlimit:4;stroke-dasharray:none"
           id="path24148"
           sodipodi:sides="3"
           sodipodi:cx="170"
           sodipodi:cy="-46.209248"
           sodipodi:r1="202.37367"
           sodipodi:r2="101.70627"
           sodipodi:arg1="0.5331557"
           sodipodi:arg2="1.6050908"
           inkscape:flatsided="false"
           inkscape:rounded="0"
           inkscape:randomized="0"
           d="M 344.28572,56.647896 L 166.51272,55.437218 L -6.219758,53.29804 L 83.715219,-100.05255 L 171.93404,-248.57368 L 259.77206,-94.012408 L 344.28572,56.647896 z"
           transform="matrix(0.7800193,0,0,0.7800193,99.416579,818.80339)" />
        <path
           style="fill:#ff0000;stroke-width:5;stroke-miterlimit:4;stroke-dasharray:none"
           id="path24150"
           d="M 57.980037,905.58441 C 94.025089,907.33981 130.12003,907.78139 166.19739,908.4049 C 250.4897,911.65825 334.80227,914.04033 419.15102,915.04281 L 410.91813,920.99547 C 326.25121,918.07788 241.54946,915.74274 156.83048,915.21035 C 118.16504,915.84825 79.486769,916.3421 40.848979,918.03085 L 57.980037,905.58441 z" />
      </g>
    </g>
    <g
       id="g24152"
       transform="matrix(0.1304566,0,0,0.1304566,44.332475,827.516)">
      <g
         transform="translate(2.8571414,-8.5714286)"
         id="g24154">
        <path
           sodipodi:type="star"
           style="fill:#000000;stroke-width:5;stroke-miterlimit:4;stroke-dasharray:none"
           id="path24156"
           sodipodi:sides="3"
           sodipodi:cx="170"
           sodipodi:cy="-46.209248"
           sodipodi:r1="202.37367"
           sodipodi:r2="101.70627"
           sodipodi:arg1="0.5331557"
           sodipodi:arg2="1.6050908"
           inkscape:flatsided="false"
           inkscape:rounded="0"
           inkscape:randomized="0"
           d="M 344.28572,56.647896 L 166.51272,55.437218 L -6.219758,53.29804 L 83.715219,-100.05255 L 171.93404,-248.57368 L 259.77206,-94.012408 L 344.28572,56.647896 z"
           transform="translate(478.38922,853.73116)" />
        <path
           sodipodi:type="star"
           style="fill:#00ff00;stroke-width:5;stroke-miterlimit:4;stroke-dasharray:none"
           id="path24158"
           sodipodi:sides="3"
           sodipodi:cx="170"
           sodipodi:cy="-46.209248"
           sodipodi:r1="202.37367"
           sodipodi:r2="101.70627"
           sodipodi:arg1="0.5331557"
           sodipodi:arg2="1.6050908"
           inkscape:flatsided="false"
           inkscape:rounded="0"
           inkscape:randomized="0"
           d="M 344.28572,56.647896 L 166.51272,55.437218 L -6.219758,53.29804 L 83.715219,-100.05255 L 171.93404,-248.57368 L 259.77206,-94.012408 L 344.28572,56.647896 z"
           transform="matrix(0.7800193,0,0,0.7800193,519.41658,843.08911)" />
        <path
           style="fill:#00ff00;stroke-width:5;stroke-miterlimit:4;stroke-dasharray:none"
           id="path24160"
           d="M 477.98004,929.87013 C 514.02509,931.62548 550.12003,932.06708 586.19739,932.69058 C 670.4897,935.94398 754.80227,938.32608 839.15102,939.32848 L 830.91813,945.28118 C 746.25121,942.36358 661.54946,940.02848 576.83048,939.49608 C 538.16504,940.13398 499.48677,940.62778 460.84898,942.31658 L 477.98004,929.87013 z" />
      </g>
    </g>
    <g
       id="g24162"
       transform="matrix(0.1171863,0,0,0.1171863,217.4675,824.41275)">
      <g
         transform="translate(-518.57143,65.714286)"
         id="g24164">
        <path
           sodipodi:type="star"
           style="fill:#000000;stroke-width:5;stroke-miterlimit:4;stroke-dasharray:none"
           id="path24166"
           sodipodi:sides="3"
           sodipodi:cx="170"
           sodipodi:cy="-46.209248"
           sodipodi:r1="202.37367"
           sodipodi:r2="101.70627"
           sodipodi:arg1="0.5331557"
           sodipodi:arg2="1.6050908"
           inkscape:flatsided="false"
           inkscape:rounded="0"
           inkscape:randomized="0"
           d="M 344.28572,56.647896 L 166.51272,55.437218 L -6.219758,53.29804 L 83.715219,-100.05255 L 171.93404,-248.57368 L 259.77206,-94.012408 L 344.28572,56.647896 z"
           transform="translate(58.389218,829.44544)" />
        <path
           sodipodi:type="star"
           style="fill:#ff0000;stroke-width:5;stroke-miterlimit:4;stroke-dasharray:none"
           id="path24168"
           sodipodi:sides="3"
           sodipodi:cx="170"
           sodipodi:cy="-46.209248"
           sodipodi:r1="202.37367"
           sodipodi:r2="101.70627"
           sodipodi:arg1="0.5331557"
           sodipodi:arg2="1.6050908"
           inkscape:flatsided="false"
           inkscape:rounded="0"
           inkscape:randomized="0"
           d="M 344.28572,56.647896 L 166.51272,55.437218 L -6.219758,53.29804 L 83.715219,-100.05255 L 171.93404,-248.57368 L 259.77206,-94.012408 L 344.28572,56.647896 z"
           transform="matrix(0.7800193,0,0,0.7800193,99.416579,818.80339)" />
        <path
           style="fill:#ff0000;stroke-width:5;stroke-miterlimit:4;stroke-dasharray:none"
           id="path24170"
           d="M 57.980037,905.58441 C 94.025089,907.33981 130.12003,907.78139 166.19739,908.4049 C 250.4897,911.65825 334.80227,914.04033 419.15102,915.04281 L 410.91813,920.99547 C 326.25121,918.07788 241.54946,915.74274 156.83048,915.21035 C 118.16504,915.84825 79.486769,916.3421 40.848979,918.03085 L 57.980037,905.58441 z" />
      </g>
    </g>
    <g
       id="g24172"
       transform="matrix(0.1171863,0,0,0.1171863,303.33722,832.2521)">
      <g
         id="g24174">
        <path
           sodipodi:type="star"
           style="fill:#000000;stroke-width:5;stroke-miterlimit:4;stroke-dasharray:none"
           id="path24176"
           sodipodi:sides="3"
           sodipodi:cx="170"
           sodipodi:cy="-46.209248"
           sodipodi:r1="202.37367"
           sodipodi:r2="101.70627"
           sodipodi:arg1="0.5331557"
           sodipodi:arg2="1.6050908"
           inkscape:flatsided="false"
           inkscape:rounded="0"
           inkscape:randomized="0"
           d="M 344.28572,56.647896 L 166.51272,55.437218 L -6.219758,53.29804 L 83.715219,-100.05255 L 171.93404,-248.57368 L 259.77206,-94.012408 L 344.28572,56.647896 z"
           transform="translate(28.389222,872.30258)" />
        <path
           sodipodi:type="star"
           style="fill:#0000ff;stroke-width:5;stroke-miterlimit:4;stroke-dasharray:none"
           id="path24178"
           sodipodi:sides="3"
           sodipodi:cx="170"
           sodipodi:cy="-46.209248"
           sodipodi:r1="202.37367"
           sodipodi:r2="101.70627"
           sodipodi:arg1="0.5331557"
           sodipodi:arg2="1.6050908"
           inkscape:flatsided="false"
           inkscape:rounded="0"
           inkscape:randomized="0"
           d="M 344.28572,56.647896 L 166.51272,55.437218 L -6.219758,53.29804 L 83.715219,-100.05255 L 171.93404,-248.57368 L 259.77206,-94.012408 L 344.28572,56.647896 z"
           transform="matrix(0.7800193,0,0,0.7800193,69.416582,861.66053)" />
        <path
           style="fill:#0000ff;stroke-width:5;stroke-miterlimit:4;stroke-dasharray:none"
           id="path24180"
           d="M 27.980042,948.44155 C 64.025092,950.1969 100.12003,950.6385 136.19739,951.262 C 220.4897,954.5154 304.80227,956.8975 389.15102,957.8999 L 380.91813,963.8526 C 296.25121,960.935 211.54946,958.5999 126.83048,958.0675 C 88.165042,958.7054 49.486772,959.1992 10.848982,960.888 L 27.980042,948.44155 z" />
      </g>
    </g>
    <g
       id="g24182"
       transform="matrix(0.1171863,0,0,0.1171863,152.87603,825.24679)">
      <g
         transform="translate(2.8571414,-8.5714286)"
         id="g24184">
        <path
           sodipodi:type="star"
           style="fill:#000000;stroke-width:5;stroke-miterlimit:4;stroke-dasharray:none"
           id="path24186"
           sodipodi:sides="3"
           sodipodi:cx="170"
           sodipodi:cy="-46.209248"
           sodipodi:r1="202.37367"
           sodipodi:r2="101.70627"
           sodipodi:arg1="0.5331557"
           sodipodi:arg2="1.6050908"
           inkscape:flatsided="false"
           inkscape:rounded="0"
           inkscape:randomized="0"
           d="M 344.28572,56.647896 L 166.51272,55.437218 L -6.219758,53.29804 L 83.715219,-100.05255 L 171.93404,-248.57368 L 259.77206,-94.012408 L 344.28572,56.647896 z"
           transform="translate(478.38922,853.73116)" />
        <path
           sodipodi:type="star"
           style="fill:#00ff00;stroke-width:5;stroke-miterlimit:4;stroke-dasharray:none"
           id="path24188"
           sodipodi:sides="3"
           sodipodi:cx="170"
           sodipodi:cy="-46.209248"
           sodipodi:r1="202.37367"
           sodipodi:r2="101.70627"
           sodipodi:arg1="0.5331557"
           sodipodi:arg2="1.6050908"
           inkscape:flatsided="false"
           inkscape:rounded="0"
           inkscape:randomized="0"
           d="M 344.28572,56.647896 L 166.51272,55.437218 L -6.219758,53.29804 L 83.715219,-100.05255 L 171.93404,-248.57368 L 259.77206,-94.012408 L 344.28572,56.647896 z"
           transform="matrix(0.7800193,0,0,0.7800193,519.41658,843.08911)" />
        <path
           style="fill:#00ff00;stroke-width:5;stroke-miterlimit:4;stroke-dasharray:none"
           id="path24190"
           d="M 477.98004,929.87013 C 514.02509,931.62548 550.12003,932.06708 586.19739,932.69058 C 670.4897,935.94398 754.80227,938.32608 839.15102,939.32848 L 830.91813,945.28118 C 746.25121,942.36358 661.54946,940.02848 576.83048,939.49608 C 538.16504,940.13398 499.48677,940.62778 460.84898,942.31658 L 477.98004,929.87013 z" />
      </g>
    </g>
    <g
       id="g24192"
       transform="matrix(0.1171863,0,0,0.1171863,189.75849,880.99699)">
      <path
         transform="translate(594.10351,412.30254)"
         d="M 344.28572,56.647896 L 166.51272,55.437218 L -6.219758,53.29804 L 83.715219,-100.05255 L 171.93404,-248.57368 L 259.77206,-94.012408 L 344.28572,56.647896 z"
         inkscape:randomized="0"
         inkscape:rounded="0"
         inkscape:flatsided="false"
         sodipodi:arg2="1.6050908"
         sodipodi:arg1="0.5331557"
         sodipodi:r2="101.70627"
         sodipodi:r1="202.37367"
         sodipodi:cy="-46.209248"
         sodipodi:cx="170"
         sodipodi:sides="3"
         id="path24194"
         style="fill:#000000;stroke-width:5;stroke-miterlimit:4;stroke-dasharray:none"
         sodipodi:type="star" />
      <path
         transform="matrix(0.7800193,0,0,0.7800193,635.13087,401.66054)"
         d="M 344.28572,56.647896 L 166.51272,55.437218 L -6.219758,53.29804 L 83.715219,-100.05255 L 171.93404,-248.57368 L 259.77206,-94.012408 L 344.28572,56.647896 z"
         inkscape:randomized="0"
         inkscape:rounded="0"
         inkscape:flatsided="false"
         sodipodi:arg2="1.6050908"
         sodipodi:arg1="0.5331557"
         sodipodi:r2="101.70627"
         sodipodi:r1="202.37367"
         sodipodi:cy="-46.209248"
         sodipodi:cx="170"
         sodipodi:sides="3"
         id="path24196"
         style="fill:#ff00ff;stroke-width:5;stroke-miterlimit:4;stroke-dasharray:none"
         sodipodi:type="star" />
      <path
         d="M 593.69433,488.44154 C 629.73938,490.19694 665.83432,490.63854 701.91168,491.26204 C 786.20399,494.51544 870.5166,496.89754 954.8653,497.89994 L 946.6324,503.85264 C 861.9655,500.93504 777.26375,498.59994 692.54477,498.06754 C 653.87933,498.70544 615.20106,499.19924 576.56327,500.88804 L 593.69433,488.44154 z"
         id="path24198"
         style="fill:#ff00ff;stroke-width:5;stroke-miterlimit:4;stroke-dasharray:none" />
    </g>
    <g
       id="g24200"
       transform="matrix(0.1171863,0,0,0.1171863,346.64424,840.2406)">
      <g
         id="g24202">
        <path
           sodipodi:type="star"
           style="fill:#000000;stroke-width:5;stroke-miterlimit:4;stroke-dasharray:none"
           id="path24204"
           sodipodi:sides="3"
           sodipodi:cx="170"
           sodipodi:cy="-46.209248"
           sodipodi:r1="202.37367"
           sodipodi:r2="101.70627"
           sodipodi:arg1="0.5331557"
           sodipodi:arg2="1.6050908"
           inkscape:flatsided="false"
           inkscape:rounded="0"
           inkscape:randomized="0"
           d="M 344.28572,56.647896 L 166.51272,55.437218 L -6.219758,53.29804 L 83.715219,-100.05255 L 171.93404,-248.57368 L 259.77206,-94.012408 L 344.28572,56.647896 z"
           transform="translate(28.389222,872.30258)" />
        <path
           sodipodi:type="star"
           style="fill:#0000ff;stroke-width:5;stroke-miterlimit:4;stroke-dasharray:none"
           id="path24206"
           sodipodi:sides="3"
           sodipodi:cx="170"
           sodipodi:cy="-46.209248"
           sodipodi:r1="202.37367"
           sodipodi:r2="101.70627"
           sodipodi:arg1="0.5331557"
           sodipodi:arg2="1.6050908"
           inkscape:flatsided="false"
           inkscape:rounded="0"
           inkscape:randomized="0"
           d="M 344.28572,56.647896 L 166.51272,55.437218 L -6.219758,53.29804 L 83.715219,-100.05255 L 171.93404,-248.57368 L 259.77206,-94.012408 L 344.28572,56.647896 z"
           transform="matrix(0.7800193,0,0,0.7800193,69.416582,861.66053)" />
        <path
           style="fill:#0000ff;stroke-width:5;stroke-miterlimit:4;stroke-dasharray:none"
           id="path24208"
           d="M 27.980042,948.44155 C 64.025092,950.1969 100.12003,950.6385 136.19739,951.262 C 220.4897,954.5154 304.80227,956.8975 389.15102,957.8999 L 380.91813,963.8526 C 296.25121,960.935 211.54946,958.5999 126.83048,958.0675 C 88.165042,958.7054 49.486772,959.1992 10.848982,960.888 L 27.980042,948.44155 z" />
      </g>
    </g>
    <text
       xml:space="preserve"
       style="font-size:11.62317371px;font-style:normal;font-weight:normal;fill:#000000;fill-opacity:1;stroke:none;stroke-width:1px;stroke-linecap:butt;stroke-linejoin:miter;stroke-opacity:1;font-family:Bitstream Vera Sans"
       x="115.05214"
       y="937.03461"
       id="text24212"><tspan
         sodipodi:role="line"
         id="tspan24214"
         x="115.05214"
         y="937.03461">delta</tspan></text>
    <text
       xml:space="preserve"
       style="font-size:11.62317371px;font-style:normal;font-weight:normal;fill:#000000;fill-opacity:1;stroke:none;stroke-width:1px;stroke-linecap:butt;stroke-linejoin:miter;stroke-opacity:1;font-family:Bitstream Vera Sans"
       x="169.20195"
       y="931.55896"
       id="text24216"><tspan
         sodipodi:role="line"
         id="tspan24218"
         x="169.20195"
         y="931.55896">delta</tspan></text>
    <text
       xml:space="preserve"
       style="font-size:11.62317371px;font-style:normal;font-weight:normal;fill:#000000;fill-opacity:1;stroke:none;stroke-width:1px;stroke-linecap:butt;stroke-linejoin:miter;stroke-opacity:1;font-family:Bitstream Vera Sans"
       x="215.98247"
       y="926.27722"
       id="text24220"><tspan
         sodipodi:role="line"
         id="tspan24222"
         x="215.98247"
         y="926.27722">delta</tspan></text>
    <text
       xml:space="preserve"
       style="font-size:11.62317371px;font-style:normal;font-weight:normal;fill:#000000;fill-opacity:1;stroke:none;stroke-width:1px;stroke-linecap:butt;stroke-linejoin:miter;stroke-opacity:1;font-family:Bitstream Vera Sans"
       x="265.7811"
       y="931.55896"
       id="text24224"><tspan
         sodipodi:role="line"
         id="tspan24226"
         x="265.7811"
         y="931.55896">delta</tspan></text>
    <text
       xml:space="preserve"
       style="font-size:11.62317371px;font-style:normal;font-weight:normal;fill:#000000;fill-opacity:1;stroke:none;stroke-width:1px;stroke-linecap:butt;stroke-linejoin:miter;stroke-opacity:1;font-family:Bitstream Vera Sans"
       x="313.31616"
       y="937.59515"
       id="text24228"><tspan
         sodipodi:role="line"
         id="tspan24230"
         x="313.31616"
         y="937.59515">delta</tspan></text>
    <text
       xml:space="preserve"
       style="font-size:11.62317371px;font-style:normal;font-weight:normal;fill:#000000;fill-opacity:1;stroke:none;stroke-width:1px;stroke-linecap:butt;stroke-linejoin:miter;stroke-opacity:1;font-family:Bitstream Vera Sans"
       x="357.83313"
       y="944.38586"
       id="text24232"><tspan
         sodipodi:role="line"
         id="tspan24234"
         x="357.83313"
         y="944.38586">delta</tspan></text>
    <text
       xml:space="preserve"
       style="font-size:11.62317371px;font-style:normal;font-weight:normal;fill:#000000;fill-opacity:1;stroke:none;stroke-width:1px;stroke-linecap:butt;stroke-linejoin:miter;stroke-opacity:1;font-family:Bitstream Vera Sans"
       x="67.34111"
       y="944.38586"
       id="text24236"><tspan
         sodipodi:role="line"
         id="tspan24238"
         x="67.34111"
         y="944.38586">delta</tspan></text>
    <g
       id="g24242"
       transform="translate(69.459636,-6.4915548)">
      <path
         transform="matrix(0.5323697,-0.2330835,0.2330835,0.5323697,272.85581,858.78092)"
         d="M -103.86487,172.67536 L -110.82742,174.12165 L -117.79841,175.52665 L -115.56967,168.77376 L -113.30093,162.0342 L -108.56713,167.3408 L -103.86487,172.67536 z"
         inkscape:randomized="0"
         inkscape:rounded="0"
         inkscape:flatsided="false"
         sodipodi:arg2="1.3689481"
         sodipodi:arg1="0.32175055"
         sodipodi:r2="4.1266956"
         sodipodi:r1="8.2112398"
         sodipodi:cy="170.07874"
         sodipodi:cx="-111.65474"
         sodipodi:sides="3"
         id="path24210"
         style="fill:#000000;fill-opacity:1;stroke:#001e16;stroke-width:17.71653557;stroke-miterlimit:4;stroke-dasharray:none;stroke-dashoffset:0;stroke-opacity:1"
         sodipodi:type="star" />
      <g
         transform="matrix(0.1880831,0,0,0.1880831,171.20809,1018.2882)"
         id="g24106">
        <g
           id="g5375"
           transform="translate(242.43661,121.21829)">
          <g
             id="g5359">
            <path
               style="fill:#ffb380;fill-rule:evenodd;stroke:#000000;stroke-width:1px;stroke-linecap:butt;stroke-linejoin:miter;stroke-opacity:1"
               d="M -638.41641,-329.52649 C -661.22677,-326.59398 -679.82264,-322.4454 -694.98495,-337.60771 C -698.53719,-341.15996 -684.74091,-398.78695 -682.86312,-406.29809 C -677.59197,-427.38268 -682.86312,-457.05434 -682.86312,-479.02907 C -682.86312,-503.27273 -682.86312,-527.51639 -682.86312,-551.76005 C -682.86312,-583.21753 -683.68027,-615.5475 -678.82251,-644.69409 C -671.91047,-686.16635 -674.7819,-735.58098 -674.7819,-778.03422 C -674.7819,-803.89873 -678.82251,-831.65692 -678.82251,-858.84643 C -678.82251,-881.12686 -675.86729,-902.99217 -670.74129,-923.49619 C -662.37934,-956.94399 -664.89777,-959.86168 -626.29458,-959.86168 C -588.9833,-959.86168 -551.70866,-960.48616 -521.23871,-951.78046 C -495.7011,-944.484 -455.37642,-951.78046 -428.30468,-951.78046 C -397.62973,-951.78046 -369.85929,-955.82107 -339.41125,-955.82107 C -301.13093,-955.82107 -272.70729,-963.90229 -234.35539,-963.90229 C -200.8333,-963.90229 -174.12409,-971.98351 -141.42136,-971.98351 C -112.74085,-971.98351 -73.049722,-965.58228 -44.446712,-959.86168 C -11.816391,-953.33562 -4.0406102,-936.87344 -4.0406102,-903.29314 C -4.0406102,-883.10836 -0.72614988,-853.66981 4.0406102,-834.60277 C 9.7417708,-811.79812 7.6473898,-788.2846 12.121831,-765.91239 C 17.025686,-741.39312 16.162441,-715.52139 16.162441,-689.1408 C 16.162441,-662.68288 8.0812208,-636.74439 8.0812208,-608.3286 C 8.0812208,-576.00372 8.0812208,-543.67883 8.0812208,-511.35395 C 8.0812208,-479.02907 8.0812208,-446.70419 8.0812208,-414.37931 C 8.0812208,-389.39102 12.121831,-360.90894 12.121831,-333.5671 C 12.121831,-305.0696 -18.871403,-313.36405 -40.406102,-313.36405 C -49.368713,-313.36405 -56.568542,-387.87895 -56.568542,-398.21687 C -56.568542,-422.71053 -58.314202,-447.80277 -52.527932,-470.94785 C -47.240345,-492.0982 -48.487322,-517.62212 -48.487322,-539.63822 C -48.487322,-561.55812 -44.446712,-581.11082 -44.446712,-604.28799 C -44.446712,-626.95044 -40.406102,-652.15082 -40.406102,-677.01897 C -40.406102,-700.51543 -43.038275,-727.95377 -48.487322,-749.74995 C -55.140896,-776.36425 -56.568542,-800.97098 -56.568542,-830.56216 C -56.568542,-850.76521 -56.568542,-870.96826 -56.568542,-891.17131 C -56.568542,-913.67974 -95.243603,-903.29314 -121.21831,-903.29314 C -150.53218,-903.29314 -176.22071,-911.37436 -202.03051,-911.37436 C -235.0919,-911.37436 -263.5152,-915.41497 -294.96454,-915.41497 C -320.07196,-915.41497 -348.72686,-913.08607 -371.73614,-907.33375 C -394.47472,-901.6491 -420.32631,-903.29314 -444.46712,-903.29314 C -449.8546,-903.29314 -455.24208,-903.29314 -460.62956,-903.29314 C -481.78047,-903.29314 -506.60693,-907.33375 -529.31993,-907.33375 C -560.80021,-907.33375 -587.82821,-911.37436 -618.21336,-911.37436 C -636.78215,-911.37436 -642.45702,-857.64351 -642.45702,-842.68399 C -642.45702,-820.71886 -638.60218,-799.16613 -634.3758,-778.03422 C -630.40841,-758.19727 -634.3758,-733.72742 -634.3758,-713.38446 C -634.3758,-690.14869 -632.93134,-666.63437 -638.41641,-644.69409 C -644.20804,-621.52757 -646.49763,-597.29874 -646.49763,-571.96311 C -646.49763,-546.37257 -646.49763,-520.78204 -646.49763,-495.19151 C -646.49763,-469.54516 -652.8021,-447.6784 -646.49763,-422.46053 C -640.48185,-398.3974 -645.26139,-379.58196 -634.3758,-357.81077 C -631.5091,-352.07737 -637.79126,-332.0271 -638.41641,-329.52649 z"
               id="path5357" />
            <path
               style="fill:#ffb380;fill-rule:evenodd;stroke:#000000;stroke-width:0.82688373px;stroke-linecap:butt;stroke-linejoin:miter;stroke-opacity:1"
               d="M -353.03766,-919.53056 C -353.20352,-898.27122 -347.51537,-860.65482 -347.51537,-826.54369 C -347.51537,-794.17723 -342.02076,-765.73798 -347.51537,-733.55684 C -352.25285,-705.81007 -352.15376,-679.38429 -355.7988,-652.69871 C -359.1403,-628.23539 -333.6019,-636.52708 -322.66507,-636.52708 C -300.89627,-636.52708 -295.04036,-632.56191 -289.53134,-664.82743 C -285.67882,-687.39109 -285.86912,-716.15062 -289.53134,-737.59975 C -293.63256,-761.61999 -295.05363,-786.04145 -295.05363,-810.37207 C -295.05363,-842.95681 -295.90341,-875.67886 -292.29248,-907.40184 C -288.10251,-944.21195 -296.8106,-939.74509 -319.90392,-939.74509 C -335.53671,-939.74509 -345.81651,-940.67717 -353.03766,-919.53056 z"
               id="path5341" />
            <path
               style="fill:#ff9955;fill-rule:evenodd;stroke:#000000;stroke-width:0.87879479px;stroke-linecap:butt;stroke-linejoin:miter;stroke-opacity:1"
               d="M -345.93957,-620.50349 C -346.09267,-621.4996 -310.11319,-611.59558 -298.60889,-606.91735 C -296.93539,-606.23681 -298.60889,-541.13228 -298.60889,-534.45789 C -298.60889,-509.23573 -303.34823,-476.44953 -306.96136,-452.94101 C -309.99655,-433.19282 -306.96136,-405.48667 -306.96136,-385.01027 C -306.96136,-349.67748 -314.3776,-357.83797 -334.80294,-357.83797 C -352.24404,-357.83797 -364.46029,-365.12344 -368.21283,-389.53899 C -371.67739,-412.08085 -365.35222,-449.03404 -362.64452,-471.05587 C -359.26137,-498.57099 -361.40141,-528.95986 -357.0762,-557.10147 C -353.30696,-581.62566 -355.03142,-595.85545 -345.93957,-620.50349 z"
               id="path5349" />
            <path
               style="fill:#ffccaa;fill-rule:evenodd;stroke:#000000;stroke-width:0.82251632px;stroke-linecap:butt;stroke-linejoin:miter;stroke-opacity:1"
               d="M -606.16825,-658.21245 C -591.71652,-652.34958 -485.5481,-660.94527 -452.58087,-660.94527 C -389.00497,-660.94527 -324.83011,-658.21245 -262.61754,-658.21245 C -223.78512,-658.21245 -178.01105,-656.2086 -141.36435,-650.01399 C -112.81047,-645.18736 -77.817955,-652.74681 -48.403564,-652.74681 C -24.639142,-652.74681 -32.236473,-630.65368 -32.236473,-617.22015 C -32.236473,-595.05178 -49.44554,-594.12355 -80.737749,-589.89195 C -120.98304,-584.44963 -178.5015,-583.18857 -218.15803,-589.89195 C -257.937,-596.61602 -312.98418,-595.35759 -351.53654,-595.35759 C -391.72992,-595.35759 -431.69869,-598.09041 -472.78974,-598.09041 C -499.73489,-598.09041 -526.68004,-598.09041 -553.62519,-598.09041 C -580.00462,-598.09041 -603.68489,-595.35759 -630.41889,-595.35759 C -654.90579,-595.35759 -646.58598,-614.89464 -646.58598,-628.15143 C -646.58598,-655.16124 -641.74173,-648.59133 -606.16825,-658.21245 z"
               id="path5345" />
            <path
               style="fill:#803300;fill-rule:evenodd;stroke:#000000;stroke-width:1px;stroke-linecap:butt;stroke-linejoin:miter;stroke-opacity:1"
               d="M -646.49763,-341.64832 C -657.15879,-355.86321 -662.59872,-288.87498 -658.61946,-272.95795 C -655.02538,-258.58165 -600.46982,-264.87673 -589.92909,-264.87673 C -555.37408,-264.87673 -512.15772,-272.95795 -472.75139,-272.95795 C -425.06169,-272.95795 -378.72879,-268.91734 -331.33003,-268.91734 C -310.20531,-268.91734 -276.09034,-262.17849 -254.55844,-256.79551 C -232.54283,-251.29161 -200.26128,-256.79551 -177.78685,-256.79551 C -154.89006,-256.79551 -131.99327,-256.79551 -109.09647,-256.79551 C -86.179304,-256.79551 -63.030577,-267.70663 -44.446712,-276.99856 C -15.284397,-291.57972 -5.8877745,-304.93655 -20.203051,-333.5671 C -30.616898,-354.3948 -73.54545,-345.68893 -92.934034,-345.68893 C -167.34143,-345.68893 -237.90646,-333.5671 -311.12698,-333.5671 C -344.79873,-333.5671 -378.47049,-333.5671 -412.14224,-333.5671 C -447.16086,-333.5671 -482.17948,-333.5671 -517.1981,-333.5671 C -555.13866,-333.5671 -587.14633,-345.68893 -626.29458,-345.68893 C -633.16229,-345.68893 -639.76328,-342.99519 -646.49763,-341.64832 z"
               id="path5355" />
            <path
               style="fill:#ffb380;fill-rule:evenodd;stroke:#000000;stroke-width:1px;stroke-linecap:butt;stroke-linejoin:miter;stroke-opacity:1"
               d="M -662.66007,-382.05443 C -615.45236,-373.65702 -528.61069,-390.13565 -468.71078,-390.13565 C -429.65155,-390.13565 -390.59232,-390.13565 -351.53309,-390.13565 C -300.7436,-390.13565 -246.28604,-386.09504 -193.94929,-386.09504 C -145.46197,-386.09504 -96.974644,-386.09504 -48.487322,-386.09504 C -26.536918,-386.09504 -24.243661,-343.72542 -24.243661,-329.52649 C -24.243661,-296.70139 -56.608118,-311.32396 -84.852814,-297.20161 C -106.53111,-286.36246 -172.04674,-293.161 -197.9899,-293.161 C -237.06761,-293.161 -281.76859,-285.07978 -323.24881,-285.07978 C -357.04294,-285.07978 -385.29175,-297.20161 -420.22346,-297.20161 C -454.87339,-297.20161 -487.46923,-297.20161 -521.23871,-297.20161 C -550.86985,-297.20161 -580.501,-297.20161 -610.13214,-297.20161 C -637.34978,-297.20161 -653.54301,-307.94232 -666.70068,-325.48588 C -677.87016,-340.37853 -668.22003,-368.15452 -662.66007,-382.05443 z"
               id="path5351" />
          </g>
          <path
             id="path5367"
             d="M -606.09153,-802.27789 C -570.90124,-821.27914 -492.35057,-866.92765 -436.3859,-866.92765 C -391.13026,-866.92765 -476.72023,-778.07011 -517.1981,-757.83118 C -596.7478,-718.05633 -513.99748,-721.46569 -472.75139,-721.46569 C -463.71631,-721.46569 -456.58895,-729.54691 -448.50773,-733.58752"
             style="fill:none;fill-rule:evenodd;stroke:#00e9bb;stroke-width:1px;stroke-linecap:butt;stroke-linejoin:miter;stroke-opacity:1" />
          <path
             id="path5369"
             d="M -254.55844,-818.44033 C -228.65906,-818.44033 -171.39447,-840.33222 -153.54319,-822.48094 C -143.07674,-812.01449 -196.85715,-747.48445 -189.90868,-733.58752 C -188.64785,-731.06586 -153.67305,-733.58752 -149.50258,-733.58752"
             style="fill:none;fill-rule:evenodd;stroke:#00e8e4;stroke-width:1px;stroke-linecap:butt;stroke-linejoin:miter;stroke-opacity:1" />
          <path
             id="path5371"
             d="M -238.396,-523.47579 C -227.19386,-501.0715 -54.948123,-625.30473 -161.62441,-483.06968 C -215.48558,-411.25478 -32.749379,-506.88885 -84.852814,-454.78541 C -119.36322,-420.27501 -93.229323,-426.50114 -76.771593,-426.50114"
             style="fill:none;fill-rule:evenodd;stroke:#00f6d1;stroke-width:1px;stroke-linecap:butt;stroke-linejoin:miter;stroke-opacity:1" />
          <path
             id="path5373"
             d="M -589.92909,-523.47579 C -595.12436,-518.28051 -529.84808,-555.80067 -452.54834,-555.80067 C -412.51765,-555.80067 -525.03665,-479.02907 -412.14224,-479.02907 C -318.9084,-479.02907 -431.51534,-422.46053 -375.77675,-422.46053"
             style="fill:none;fill-rule:evenodd;stroke:#00b1a9;stroke-width:1px;stroke-linecap:butt;stroke-linejoin:miter;stroke-opacity:1" />
        </g>
      </g>
      <path
         sodipodi:nodetypes="cc"
         id="path24240"
         d="M 71.912437,970.02763 C 138.83744,983.01073 247.71668,976.06383 247.71668,976.06383"
         style="fill:none;fill-rule:evenodd;stroke:#000000;stroke-width:10.29611874;stroke-linecap:butt;stroke-linejoin:miter;stroke-miterlimit:4;stroke-dasharray:none;stroke-opacity:1" />
    </g>
    <text
       xml:space="preserve"
       style="font-size:23.24634743px;font-style:normal;font-weight:normal;fill:#000000;fill-opacity:1;stroke:none;stroke-width:1px;stroke-linecap:butt;stroke-linejoin:miter;stroke-opacity:1;font-family:Bitstream Vera Sans"
       x="95.954544"
       y="1014.1702"
       id="text24259"><tspan
         sodipodi:role="line"
         id="tspan24261"
         x="95.954544"
         y="1014.1702">Apply a sliding window</tspan></text>
  </g>
</svg>
