<?xml version="1.0" encoding="UTF-8" standalone="no"?>
<!-- Created with Inkscape (http://www.inkscape.org/) -->
<svg
   xmlns:dc="http://purl.org/dc/elements/1.1/"
   xmlns:cc="http://creativecommons.org/ns#"
   xmlns:rdf="http://www.w3.org/1999/02/22-rdf-syntax-ns#"
   xmlns:svg="http://www.w3.org/2000/svg"
   xmlns="http://www.w3.org/2000/svg"
   xmlns:sodipodi="http://sodipodi.sourceforge.net/DTD/sodipodi-0.dtd"
   xmlns:inkscape="http://www.inkscape.org/namespaces/inkscape"
   width="453.5433"
   height="340.15747"
   id="svg2"
   sodipodi:version="0.32"
   inkscape:version="0.46"
   sodipodi:docname="slide340-observations-local-topics.svg"
   version="1.0"
   inkscape:output_extension="org.inkscape.output.svg.inkscape">
  <defs
     id="defs4">
    <inkscape:perspective
       sodipodi:type="inkscape:persp3d"
       inkscape:vp_x="0 : 170.07874 : 1"
       inkscape:vp_y="0 : 1000 : 0"
       inkscape:vp_z="453.5433 : 170.07874 : 1"
       inkscape:persp3d-origin="226.77165 : 113.38582 : 1"
       id="perspective5698" />
  </defs>
  <sodipodi:namedview
     id="base"
     pagecolor="#ffffff"
     bordercolor="#666666"
     borderopacity="1.0"
     gridtolerance="10000"
     guidetolerance="8.8"
     objecttolerance="10"
     inkscape:pageopacity="0.0"
     inkscape:pageshadow="2"
     inkscape:zoom="1.6462963"
     inkscape:cx="224.50393"
     inkscape:cy="170.07874"
     inkscape:document-units="mm"
     inkscape:current-layer="layer1"
     inkscape:window-width="1024"
     inkscape:window-height="768"
     inkscape:window-x="0"
     inkscape:window-y="0"
     width="12.8cm"
     height="9.6cm"
     units="cm"
     showgrid="true"
     grid_units="mm"
     inkscape:object-paths="false"
     inkscape:grid-points="true"
     inkscape:grid-bbox="true"
     inkscape:guide-points="true"
     showguides="true"
     inkscape:guide-bbox="true">
    <sodipodi:guide
       orientation="vertical"
       position="56.476527"
       id="guide3573" />
    <sodipodi:guide
       orientation="horizontal"
       position="11.035643"
       id="guide3579" />
    <sodipodi:guide
       orientation="horizontal"
       position="24.018753"
       id="guide3886" />
    <sodipodi:guide
       orientation="horizontal"
       position="285.62841"
       id="guide3988" />
    <sodipodi:guide
       orientation="horizontal"
       position="303.15561"
       id="guide4081" />
    <inkscape:grid
       id="GridFromPre046Settings"
       type="xygrid"
       originx="0px"
       originy="0px"
       spacingx="2mm"
       spacingy="2mm"
       color="#0000ff"
       empcolor="#0000ff"
       opacity="0.2"
       empopacity="0.4"
       empspacing="5" />
  </sodipodi:namedview>
  <metadata
     id="metadata7">
    <rdf:RDF>
      <cc:Work
         rdf:about="">
        <dc:format>image/svg+xml</dc:format>
        <dc:type
           rdf:resource="http://purl.org/dc/dcmitype/StillImage" />
      </cc:Work>
    </rdf:RDF>
  </metadata>
  <g
     inkscape:label="Layer 1"
     inkscape:groupmode="layer"
     id="layer1"
     transform="translate(4.149475e-6,-698.0315)">
    <g
       id="g5434"
       transform="matrix(0.1173245,0,0,0.1173245,185.55256,1434.6342)">
      <path
         id="path5426"
         d="M -421.69808,-4417.6956 C -417.72211,-4417.6956 -416.11815,-4284.8268 -405.48552,-4231.828 C -397.17406,-4190.3989 -499.50875,-4194.335 -527.07928,-4183.3408 C -585.59667,-4160.0062 -682.6316,-4175.2597 -745.94809,-4175.2597 C -813.02995,-4175.2597 -818.90435,-4195.3824 -818.90435,-4256.0716 C -818.90435,-4302.9866 -821.39788,-4351.1839 -810.7981,-4393.452 C -794.70858,-4457.6112 -791.85376,-4470.6773 -721.62934,-4482.3452 C -676.39304,-4489.8612 -583.99312,-4466.2506 -543.29184,-4450.0204 C -504.8998,-4434.7111 -464.32591,-4434.6941 -421.69808,-4417.6956 z"
         style="fill:#ffd42a;fill-rule:evenodd;stroke:#000000;stroke-width:1.00154614px;stroke-linecap:butt;stroke-linejoin:miter;stroke-opacity:1" />
      <path
         id="path5428"
         d="M -518.97305,-4328.8024 C -491.79914,-4317.9665 -478.4418,-4226.7827 -478.4418,-4183.3408 C -478.4418,-4153.5858 -628.69305,-4189.5441 -632.46058,-4191.422 C -673.27692,-4211.7672 -624.65669,-4304.2574 -608.14179,-4320.7212 C -587.24617,-4341.5523 -542.20549,-4333.4345 -518.97305,-4328.8024 z"
         style="fill:#222b00;fill-rule:evenodd;stroke:#000000;stroke-width:1.00154614px;stroke-linecap:butt;stroke-linejoin:miter;stroke-opacity:1" />
      <path
         id="path5430"
         d="M -656.77938,-4353.046 C -625.67603,-4384.0532 -710.06761,-4264.1528 -754.05434,-4264.1528 C -814.7468,-4264.1528 -750.78555,-4372.4671 -737.84184,-4385.3708 C -711.09941,-4412.0306 -663.36952,-4366.1857 -656.77938,-4353.046 z"
         style="fill:#ddff55;fill-rule:evenodd;stroke:#000000;stroke-width:1.00154614px;stroke-linecap:butt;stroke-linejoin:miter;stroke-opacity:1" />
      <path
         id="path5432"
         d="M -364.95427,-4445.9797 C -325.57748,-4436.166 -456.44658,-4504.8645 -527.07928,-4575.279 C -577.69498,-4625.7382 -600.49859,-4682.1809 -616.24802,-4744.9841 C -622.21956,-4768.7964 -686.53997,-4629.0784 -705.41684,-4591.4413 C -734.27665,-4533.9001 -771.31058,-4516.6781 -827.0106,-4494.467 C -891.80321,-4468.63 -777.24785,-4421.1753 -729.73559,-4397.4926 C -687.22278,-4376.3019 -626.99862,-4381.3302 -575.71677,-4381.3302 C -507.88622,-4381.3302 -472.76537,-4405.5737 -405.48552,-4405.5737 C -373.51731,-4405.5737 -392.05344,-4400.9541 -364.95427,-4445.9797 z"
         style="fill:#6c6753;fill-rule:evenodd;stroke:#000000;stroke-width:1.00154614px;stroke-linecap:butt;stroke-linejoin:miter;stroke-opacity:1" />
    </g>
    <g
       id="g5471"
       transform="matrix(0.1173245,0,0,0.1173245,197.87822,1457.3893)">
      <path
         id="path5459"
         d="M 101.89206,-4684.5406 C 112.42512,-4661.3086 107.07354,-4571.6853 107.07354,-4524.5406 C 107.07354,-4493.259 101.89206,-4469.3337 101.89206,-4438.8263 C 101.89206,-4378.3827 54.479276,-4386.1839 8.6241385,-4398.8263 C -36.767367,-4411.3409 -98.334035,-4398.8263 -146.82234,-4398.8263 C -180.4942,-4398.8263 -207.46855,-4404.5406 -240.09018,-4404.5406 C -254.66716,-4404.5406 -277.27242,-4499.9896 -281.54258,-4518.8263 C -291.47245,-4562.6296 -279.83568,-4583.4987 -271.17946,-4621.6835 C -264.21491,-4652.406 -258.26241,-4687.3571 -240.09018,-4707.3978 C -214.54009,-4735.5748 -212.76246,-4783.2494 -188.27466,-4810.2549 C -165.92873,-4834.8984 -158.63249,-4860.0876 -136.45922,-4884.5406 C -120.97139,-4901.6208 -104.11298,-4926.3889 -89.825258,-4947.3978 C -64.809169,-4984.182 -39.698323,-4955.5949 -22.46514,-4930.2549 C -3.2061401,-4901.9361 9.7692089,-4867.6188 29.350385,-4838.8263 C 47.045295,-4812.8073 53.151582,-4780.6154 65.621225,-4753.1121 C 77.932636,-4725.9576 82.62844,-4711.0959 101.89206,-4684.5406 z"
         style="fill:#6f918a;fill-rule:evenodd;stroke:#000000;stroke-width:0.95224524px;stroke-linecap:butt;stroke-linejoin:miter;stroke-opacity:1" />
      <path
         id="path5461"
         d="M 117.43666,-4633.1121 C 121.35028,-4650.3762 -12.013788,-4844.3459 -32.828263,-4890.2549 C -68.006172,-4967.8444 -53.554418,-4911.7979 -53.554418,-4850.2549 C -53.554418,-4825.825 -76.456008,-4771.1711 -84.643697,-4753.1121 C -102.18863,-4714.4145 -112.93078,-4673.423 -136.45922,-4638.8263 C -168.02519,-4592.4111 -208.94568,-4614.4949 -245.27174,-4644.5406 C -276.89103,-4670.6933 -331.50022,-4686.0772 -291.9057,-4718.8263 C -255.2435,-4749.15 -222.90823,-4783.4892 -188.27466,-4821.6835 C -158.20014,-4854.8501 -151.58244,-4909.2567 -141.64078,-4953.1121 C -132.46571,-4993.5856 -137.49666,-5009.6829 -105.36994,-5027.3978 C -83.84728,-5039.2655 -48.705279,-4985.9817 -38.009825,-4970.2549 C -18.693517,-4941.8519 -0.34346401,-4910.0342 13.8057,-4878.8263 C 27.323479,-4849.0111 37.092214,-4821.7506 50.07654,-4793.1121 C 63.778666,-4762.8903 78.497917,-4736.1393 91.528942,-4707.3978 C 107.82307,-4671.4589 126.75047,-4684.4691 117.43666,-4633.1121 z"
         style="fill:#ff5599;fill-rule:evenodd;stroke:#000000;stroke-width:0.95224524px;stroke-linecap:butt;stroke-linejoin:miter;stroke-opacity:1" />
      <path
         id="path5463"
         d="M 24.168823,-4695.9692 C 6.4453491,-4751.1985 -36.437302,-4750.3544 -48.372857,-4684.5406 C -55.17101,-4647.0552 -17.971636,-4661.6835 13.8057,-4661.6835 C 41.843785,-4661.6835 36.688792,-4661.4512 24.168823,-4695.9692 z"
         style="fill:#2b0000;fill-rule:evenodd;stroke:#000000;stroke-width:0.95224524px;stroke-linecap:butt;stroke-linejoin:miter;stroke-opacity:1" />
      <path
         id="path5465"
         d="M -6.9204554,-4404.5406 C 14.84894,-4404.5406 -27.321171,-4529.537 -38.009825,-4553.1121 C -68.798871,-4621.0213 -136.46004,-4495.9673 -146.82234,-4473.1121 C -150.27669,-4465.493 -153.73103,-4457.874 -157.18538,-4450.2549 C -186.33652,-4385.9583 -90.265133,-4398.8263 -63.917542,-4398.8263 C -33.082975,-4398.8263 -44.620367,-4390.682 -6.9204554,-4404.5406 z"
         style="fill:#2b0000;fill-rule:evenodd;stroke:#000000;stroke-width:0.95224524px;stroke-linecap:butt;stroke-linejoin:miter;stroke-opacity:1" />
    </g>
    <g
       id="g5440"
       transform="matrix(0.1173245,0,0,0.1173245,287.95004,1379.643)">
      <path
         id="path5410"
         d="M -816.20326,-3820.6137 C -820.16694,-3820.6137 -821.76592,-3687.7445 -832.3657,-3634.7456 C -840.65154,-3593.3164 -738.6328,-3597.2525 -711.14739,-3586.2583 C -652.81072,-3562.9236 -556.07542,-3578.1771 -492.95444,-3578.1771 C -426.07972,-3578.1771 -420.22346,-3598.2999 -420.22346,-3658.9893 C -420.22346,-3705.9044 -417.73763,-3754.1018 -428.30468,-3796.37 C -444.34452,-3860.5294 -447.19052,-3873.5955 -517.1981,-3885.2635 C -562.29468,-3892.7795 -654.4093,-3869.1688 -694.98495,-3852.9386 C -733.25843,-3837.6292 -773.70702,-3837.6122 -816.20326,-3820.6137 z"
         style="fill:#e9afaf;fill-rule:evenodd;stroke:#000000;stroke-width:1px;stroke-linecap:butt;stroke-linejoin:miter;stroke-opacity:1" />
      <path
         id="path5412"
         d="M -719.22861,-3731.7203 C -746.31865,-3720.8843 -759.63471,-3629.7003 -759.63471,-3586.2583 C -759.63471,-3556.5032 -609.84737,-3592.4616 -606.09153,-3594.3395 C -565.40122,-3614.6847 -613.87135,-3707.1752 -630.33519,-3723.639 C -651.16633,-3744.4702 -696.06794,-3736.3524 -719.22861,-3731.7203 z"
         style="fill:#c87137;fill-rule:evenodd;stroke:#000000;stroke-width:1px;stroke-linecap:butt;stroke-linejoin:miter;stroke-opacity:1" />
      <path
         id="path5414"
         d="M -581.84786,-3755.9639 C -612.85514,-3786.9712 -528.72413,-3667.0705 -484.87322,-3667.0705 C -424.36817,-3667.0705 -488.13192,-3775.3851 -501.03566,-3788.2888 C -527.69552,-3814.9487 -575.27797,-3769.1037 -581.84786,-3755.9639 z"
         style="fill:#2b1100;fill-rule:evenodd;stroke:#000000;stroke-width:1px;stroke-linecap:butt;stroke-linejoin:miter;stroke-opacity:1" />
      <path
         id="path5408"
         d="M -872.7718,-3848.8979 C -912.02698,-3839.0841 -781.56206,-3907.7828 -711.14739,-3978.1975 C -660.68801,-4028.6568 -637.95482,-4085.0997 -622.25397,-4147.9031 C -616.30088,-4171.7154 -552.17915,-4031.9971 -533.36054,-3994.3599 C -504.58984,-3936.8185 -467.67027,-3919.5965 -412.14224,-3897.3853 C -347.5497,-3871.5482 -461.75133,-3824.0934 -509.11688,-3800.4106 C -551.4984,-3779.2199 -611.53666,-3784.2482 -662.66007,-3784.2482 C -730.28121,-3784.2482 -765.29366,-3808.4918 -832.3657,-3808.4918 C -864.23521,-3808.4918 -845.7563,-3803.8721 -872.7718,-3848.8979 z"
         style="fill:#ff0000;fill-rule:evenodd;stroke:#000000;stroke-width:1px;stroke-linecap:butt;stroke-linejoin:miter;stroke-opacity:1" />
    </g>
    <g
       id="g5446"
       transform="matrix(0.1173245,0,0,0.1173245,309.75691,1375.8505)">
      <path
         id="path5404"
         d="M -1527.3506,-3933.7508 C -1579.7839,-3973.0757 -1559.6755,-3805.343 -1559.6755,-3739.8015 C -1559.6755,-3668.0814 -1625.4762,-3578.7525 -1543.5131,-3537.771 C -1502.5011,-3517.265 -1413.9216,-3529.6898 -1365.7262,-3529.6898 C -1290.5579,-3529.6898 -1198.9123,-3534.4197 -1139.4521,-3570.0959 C -1098.4077,-3594.7225 -1114.482,-3736.896 -1123.2896,-3772.1264 C -1137.4791,-3828.8843 -1145.1519,-3888.5818 -1163.6957,-3925.6696 C -1183.0361,-3964.3504 -1242.044,-3974.1569 -1284.914,-3974.1569 C -1332.5408,-3974.1569 -1381.383,-3986.4051 -1430.376,-3974.1569 C -1465.1236,-3965.47 -1487.4424,-3941.7324 -1527.3506,-3933.7508 z"
         style="fill:#552200;fill-rule:evenodd;stroke:#000000;stroke-width:1px;stroke-linecap:butt;stroke-linejoin:miter;stroke-opacity:1" />
      <path
         id="path5406"
         d="M -1373.8075,-3521.6085 C -1393.7193,-3516.6306 -1389.9699,-3643.1737 -1389.9699,-3675.1517 C -1389.9699,-3737.5978 -1312.9222,-3750.8441 -1268.7516,-3739.8015 C -1221.8331,-3728.0719 -1212.1831,-3658.8607 -1212.1831,-3618.5832 C -1212.1831,-3561.7932 -1187.3646,-3545.9959 -1252.5892,-3529.6898 C -1290.1908,-3520.2893 -1334.3675,-3521.6085 -1373.8075,-3521.6085 z"
         style="fill:#ffcc00;fill-rule:evenodd;stroke:#000000;stroke-width:1px;stroke-linecap:butt;stroke-linejoin:miter;stroke-opacity:1" />
      <path
         id="path5402"
         d="M -1389.9699,-4143.8625 C -1443.1031,-4166.0321 -1491.7898,-4122.8548 -1543.5131,-4071.1315 C -1588.4842,-4026.1604 -1615.4828,-3983.7607 -1640.4877,-3933.7508 C -1663.2711,-3888.1841 -1668.1006,-3849.7403 -1616.2441,-3836.7761 C -1566.1547,-3824.2538 -1519.2017,-3820.6137 -1462.7009,-3820.6137 C -1413.4499,-3820.6137 -1361.6071,-3817.6029 -1317.2389,-3828.6949 C -1269.5888,-3840.6074 -1272.1568,-3918.859 -1260.6704,-3941.832 C -1257.8302,-3947.5124 -1294.2886,-3836.7761 -1204.1018,-3836.7761 C -1145.7186,-3836.7761 -1112.3761,-3837.8589 -1082.8835,-3877.1822 C -1063.4255,-3903.1263 -1104.7192,-4001.6657 -1115.2084,-4022.6442 C -1147.7402,-4087.7078 -1206.5274,-4087.0928 -1260.6704,-4127.7001 C -1287.6433,-4147.9297 -1357.2251,-4143.8625 -1389.9699,-4143.8625 z"
         style="fill:#ff6600;fill-rule:evenodd;stroke:#000000;stroke-width:1px;stroke-linecap:butt;stroke-linejoin:miter;stroke-opacity:1" />
    </g>
    <g
       id="g5451"
       transform="matrix(0.1173245,0,0,0.1173245,306.91255,1391.0205)">
      <path
         id="path5420"
         d="M -2097.1429,-3941.9235 C -2108.7589,-3918.6915 -2102.8571,-3829.0682 -2102.8571,-3781.9235 C -2102.8571,-3750.6419 -2097.1429,-3726.7166 -2097.1429,-3696.2092 C -2097.1429,-3635.7656 -2044.8554,-3643.5668 -1994.2857,-3656.2092 C -1944.2273,-3668.7238 -1876.3307,-3656.2092 -1822.8571,-3656.2092 C -1785.7233,-3656.2092 -1755.9756,-3661.9235 -1720,-3661.9235 C -1703.9243,-3661.9235 -1678.9949,-3757.3725 -1674.2857,-3776.2092 C -1663.3349,-3820.0125 -1676.1681,-3840.8816 -1685.7143,-3879.0664 C -1693.3949,-3909.7889 -1699.9594,-3944.74 -1720,-3964.7807 C -1748.177,-3992.9577 -1750.1374,-4040.6323 -1777.1429,-4067.6378 C -1801.7863,-4092.2813 -1809.8327,-4117.4705 -1834.2857,-4141.9235 C -1851.3659,-4159.0037 -1869.9576,-4183.7718 -1885.7143,-4204.7807 C -1913.3024,-4241.5649 -1940.995,-4212.9778 -1960,-4187.6378 C -1981.2391,-4159.319 -1995.5485,-4125.0017 -2017.1429,-4096.2092 C -2036.6571,-4070.1902 -2043.3912,-4037.9983 -2057.1429,-4010.495 C -2070.7201,-3983.3405 -2075.8987,-3968.4788 -2097.1429,-3941.9235 z"
         style="fill:#ffff00;fill-rule:evenodd;stroke:#000000;stroke-width:1px;stroke-linecap:butt;stroke-linejoin:miter;stroke-opacity:1" />
      <path
         id="path5418"
         d="M -2114.2857,-3890.495 C -2118.6017,-3907.7591 -1971.5259,-4101.7288 -1948.5714,-4147.6378 C -1909.7767,-4225.2273 -1925.7143,-4169.1808 -1925.7143,-4107.6378 C -1925.7143,-4083.2079 -1900.4581,-4028.554 -1891.4286,-4010.495 C -1872.0798,-3971.7974 -1860.2332,-3930.8059 -1834.2857,-3896.2092 C -1799.4743,-3849.794 -1754.3466,-3871.8778 -1714.2857,-3901.9235 C -1679.4155,-3928.0762 -1619.1917,-3943.4601 -1662.8571,-3976.2092 C -1703.2887,-4006.5329 -1738.9485,-4040.8721 -1777.1429,-4079.0664 C -1810.3095,-4112.233 -1817.6076,-4166.6396 -1828.5714,-4210.495 C -1838.6898,-4250.9685 -1833.1416,-4267.0658 -1868.5714,-4284.7807 C -1892.3069,-4296.6484 -1931.062,-4243.3646 -1942.8571,-4227.6378 C -1964.1594,-4199.2348 -1984.3961,-4167.4171 -2000,-4136.2092 C -2014.9076,-4106.394 -2025.6807,-4079.1335 -2040,-4050.495 C -2055.1109,-4020.2732 -2071.3435,-3993.5222 -2085.7143,-3964.7807 C -2103.6837,-3928.8418 -2124.5571,-3941.852 -2114.2857,-3890.495 z"
         style="fill:#808000;fill-rule:evenodd;stroke:#000000;stroke-width:1px;stroke-linecap:butt;stroke-linejoin:miter;stroke-opacity:1" />
      <path
         id="path5422"
         d="M -2011.4286,-3953.3521 C -1991.8829,-4008.5814 -1944.5913,-4007.7373 -1931.4286,-3941.9235 C -1923.9315,-3904.4381 -1964.9555,-3919.0664 -2000,-3919.0664 C -2030.9208,-3919.0664 -2025.2358,-3918.8341 -2011.4286,-3953.3521 z"
         style="fill:#2b0000;fill-rule:evenodd;stroke:#000000;stroke-width:1px;stroke-linecap:butt;stroke-linejoin:miter;stroke-opacity:1" />
      <path
         id="path5424"
         d="M -1977.1429,-3661.9235 C -2001.1505,-3661.9235 -1954.6447,-3786.9199 -1942.8571,-3810.495 C -1908.9025,-3878.4042 -1834.2848,-3753.3502 -1822.8571,-3730.495 C -1819.0476,-3722.8759 -1815.2381,-3715.2569 -1811.4286,-3707.6378 C -1779.2803,-3643.3412 -1885.2292,-3656.2092 -1914.2857,-3656.2092 C -1948.2905,-3656.2092 -1935.5669,-3648.0649 -1977.1429,-3661.9235 z"
         style="fill:#2b0000;fill-rule:evenodd;stroke:#000000;stroke-width:1px;stroke-linecap:butt;stroke-linejoin:miter;stroke-opacity:1" />
    </g>
    <g
       id="g6226"
       transform="translate(11.884136,104.91292)">
      <g
         style="fill:#0000ff"
         transform="matrix(1.1,0,0,1,-17.539366,-7.086619)"
         id="g6217">
        <rect
           style="fill:#0000ff;fill-rule:evenodd;stroke:none;stroke-width:1px;stroke-linecap:butt;stroke-linejoin:miter;stroke-opacity:1"
           id="rect6213"
           width="70.866142"
           height="63.779549"
           x="106.29921"
           y="811.4173" />
        <path
           sodipodi:type="arc"
           style="opacity:1;fill:#0000ff;fill-opacity:1;fill-rule:nonzero;stroke:#ffffff;stroke-width:3.54330707;stroke-linecap:butt;stroke-linejoin:miter;stroke-miterlimit:4;stroke-dasharray:none;stroke-dashoffset:0;stroke-opacity:1"
           id="path5702"
           sodipodi:cx="134.64568"
           sodipodi:cy="106.2992"
           sodipodi:rx="35.433071"
           sodipodi:ry="21.259842"
           d="M 170.07875,106.2992 A 35.433071,21.259842 0 1 1 99.212605,106.2992 A 35.433071,21.259842 0 1 1 170.07875,106.2992 z"
           transform="translate(7.0866037,705.11812)" />
        <path
           sodipodi:type="arc"
           style="opacity:1;fill:#0000ff;fill-opacity:1;fill-rule:nonzero;stroke:none;stroke-width:3.54330707;stroke-linecap:butt;stroke-linejoin:miter;stroke-miterlimit:4;stroke-dasharray:none;stroke-dashoffset:0;stroke-opacity:1"
           id="path6215"
           sodipodi:cx="134.64568"
           sodipodi:cy="106.2992"
           sodipodi:rx="35.433071"
           sodipodi:ry="21.259842"
           d="M 170.07875,106.2992 A 35.433071,21.259842 0 1 1 99.212605,106.2992 A 35.433071,21.259842 0 1 1 170.07875,106.2992 z"
           transform="translate(7.0866039,768.89764)" />
      </g>
      <text
         id="text6222"
         y="853.93701"
         x="99.212593"
         style="font-size:24px;font-style:normal;font-weight:bold;writing-mode:lr-tb;fill:#ffffff;fill-opacity:1;stroke:none;stroke-width:1px;stroke-linecap:butt;stroke-linejoin:miter;stroke-opacity:1;font-family:Sans;-inkscape-font-specification:Sans"
         xml:space="preserve"><tspan
           y="853.93701"
           x="99.212593"
           id="tspan6224"
           sodipodi:role="line">ODBC</tspan></text>
    </g>
    <g
       id="g5499"
       transform="matrix(0.1133439,0,0,0.1133439,287.24891,1405.2713)">
      <path
         d="M 1196.0206,-4192.3496 A 593.96967,598.01031 0 1 1 8.0812378,-4192.3496 A 593.96967,598.01031 0 1 1 1196.0206,-4192.3496 z"
         sodipodi:ry="598.01031"
         sodipodi:rx="593.96967"
         sodipodi:cy="-4192.3496"
         sodipodi:cx="602.0509"
         id="path5477"
         style="fill:#245599;fill-opacity:1;stroke:#000000;stroke-width:6.69999981;stroke-miterlimit:4;stroke-dasharray:none;stroke-opacity:1"
         sodipodi:type="arc" />
      <path
         id="path5479"
         d="M 395.9798,-4596.4108 C 373.1477,-4561.501 316.0451,-4532.1998 266.68027,-4507.5174 C 192.05582,-4470.2052 318.6328,-4491.355 371.73614,-4491.355 C 443.84377,-4491.355 425.68633,-4480.4292 460.62956,-4410.5428 C 487.29922,-4357.2035 498.97101,-4346.9253 549.52298,-4321.6494 C 591.26846,-4300.7766 625.03136,-4277.5401 646.49763,-4248.9184 C 672.93428,-4213.6695 750.26246,-4224.3519 783.87837,-4232.7559 C 830.57195,-4244.4293 873.54362,-4183.2395 897.01546,-4151.9437 C 925.04781,-4114.5673 914.77372,-4066.2419 897.01546,-4030.7254 C 873.71005,-3984.1146 851.8733,-3945.1772 816.20326,-3909.5071 C 794.02879,-3887.3326 870.4388,-3806.7842 880.85302,-3796.37 C 922.49873,-3754.7243 926.79091,-3721.0896 880.85302,-3675.1517 C 815.16248,-3609.4612 921.16243,-3699.3229 953.584,-3723.639 C 1000.6612,-3758.9469 1009.6847,-3812.0646 1050.5586,-3852.9386 C 1082.5536,-3884.9335 1093.8017,-3959.0833 1123.2896,-3998.4005 C 1142.7759,-4024.3823 1131.3708,-4092.9714 1131.3708,-4127.7001 C 1131.3708,-4171.7998 1097.0573,-4214.5542 1066.7211,-4232.7559 C 1017.4241,-4262.3341 970.51486,-4244.3014 921.25912,-4281.2432 C 885.85027,-4307.7999 898.34202,-4376.7695 905.09668,-4410.5428 C 909.90311,-4434.5749 1025.5357,-4374.5669 1034.3962,-4370.1367 C 1093.453,-4340.6083 1072.7467,-4426.8462 1066.7211,-4450.9489 C 1058.9653,-4481.9722 998.39498,-4497.9791 985.90888,-4547.9235 C 972.83102,-4600.235 954.97196,-4628.0417 905.09668,-4652.9794 C 865.5409,-4672.7573 824.88283,-4691.2156 783.87837,-4701.4667 C 723.821,-4716.4811 700.50087,-4729.0463 686.90373,-4661.0606 C 673.54028,-4594.2433 658.70236,-4611.5839 598.01031,-4596.4108 C 550.97792,-4584.6527 496.1669,-4588.3296 444.46712,-4588.3296 C 417.1981,-4588.3296 433.5313,-4587.023 395.9798,-4596.4108 z"
         style="fill:#4bf44e;fill-opacity:1;fill-rule:evenodd;stroke:#000000;stroke-width:1px;stroke-linecap:butt;stroke-linejoin:miter;stroke-opacity:1" />
      <path
         id="path5497"
         d="M 549.52298,-4406.5022 C 543.37825,-4421.1486 562.969,-4438.0969 569.72604,-4454.9895 C 576.71617,-4472.4648 600.85658,-4490.1606 614.17275,-4503.4768 C 621.85504,-4511.1591 646.60638,-4519.6393 656.59915,-4519.6393 C 673.71725,-4519.6393 693.04243,-4527.7205 711.14739,-4527.7205 C 730.94758,-4527.7205 753.79333,-4529.7408 775.79715,-4529.7408 C 790.92547,-4529.7408 813.73002,-4512.9079 826.30478,-4503.4768 C 836.54549,-4495.7963 843.96026,-4482.5716 848.52814,-4471.1519 C 854.04127,-4457.3691 855.57884,-4446.8268 854.58905,-4442.8677 C 851.76951,-4431.5895 831.86916,-4448.9286 820.24387,-4448.9286 C 793.35681,-4448.9286 758.73044,-4444.888 735.39105,-4444.888 C 710.92547,-4444.888 673.08087,-4422.9839 656.59915,-4406.5022 C 642.36965,-4392.2727 624.99407,-4384.9986 610.13214,-4370.1367 C 591.73354,-4351.7381 657.14327,-4362.0555 670.74129,-4362.0555 C 718.48044,-4362.0555 766.85093,-4360.0352 814.18295,-4360.0352 C 841.45273,-4360.0352 887.81027,-4310.6515 905.09668,-4293.3651 C 935.91051,-4262.5513 963.98402,-4234.4777 993.9901,-4204.4717 C 1020.6306,-4177.8312 1026.0009,-4135.5266 1048.5383,-4105.4767 C 1060.5831,-4089.417 1072.782,-4070.3203 1072.782,-4054.9691 C 1072.782,-4054.0841 1023.685,-4065.0706 989.94949,-4065.0706 C 937.30544,-4065.0706 923.51384,-4055.0863 878.83271,-4032.7457 C 858.08542,-4022.3721 848.69295,-3982.7325 842.46722,-3964.0554 C 836.3892,-3945.8213 846.8383,-3911.197 858.62966,-3899.4056 C 868.74835,-3889.2869 864.69058,-3914.7796 864.69058,-3939.8117 C 864.69058,-3962.9786 862.67027,-3986.4738 862.67027,-4008.5021 C 862.67027,-4024.309 846.33913,-4062.6018 838.42661,-4073.1518 C 817.68128,-4100.8123 805.51623,-4132.9776 783.87837,-4160.0249 C 762.26297,-4187.0442 744.37432,-4217.7117 721.24892,-4240.8372 C 718.55518,-4243.5309 715.86144,-4246.2246 713.1677,-4248.9184 C 695.75886,-4266.3272 687.83844,-4284.3492 670.74129,-4301.4463 C 655.71929,-4316.4683 633.39112,-4330.3005 614.17275,-4335.7915 C 598.50814,-4340.2671 587.94485,-4353.9652 571.74634,-4358.0148 C 556.2534,-4361.8881 544.41092,-4364.0758 529.31993,-4364.0758"
         style="fill:none;fill-rule:evenodd;stroke:#000000;stroke-width:10;stroke-linecap:butt;stroke-linejoin:miter;stroke-miterlimit:4;stroke-dasharray:10, 10;stroke-dashoffset:0;stroke-opacity:1" />
    </g>
    <text
       xml:space="preserve"
       style="font-size:24px;font-style:normal;font-weight:bold;text-align:center;writing-mode:lr-tb;text-anchor:middle;fill:#ffffff;fill-opacity:1;stroke:none;stroke-width:1px;stroke-linecap:butt;stroke-linejoin:miter;stroke-opacity:1;font-family:Sans;-inkscape-font-specification:Sans"
       x="355.71582"
       y="901.74762"
       id="text6872"><tspan
         sodipodi:role="line"
         id="tspan6874"
         x="355.71582"
         y="901.74762">404</tspan><tspan
         sodipodi:role="line"
         x="355.71582"
         y="931.74762"
         id="tspan6876">Not</tspan><tspan
         sodipodi:role="line"
         x="355.71582"
         y="961.74762"
         id="tspan6878">Found</tspan></text>
    <text
       xml:space="preserve"
       style="font-size:24px;font-style:normal;font-weight:bold;writing-mode:lr-tb;fill:#000000;fill-opacity:1;stroke:none;stroke-width:1px;stroke-linecap:butt;stroke-linejoin:miter;stroke-opacity:1;font-family:Sans;-inkscape-font-specification:Sans"
       x="56.692909"
       y="747.63782"
       id="text6880"><tspan
         sodipodi:role="line"
         id="tspan6882"
         x="56.692909"
         y="747.63782">Observations</tspan></text>
    <text
       xml:space="preserve"
       style="font-size:24px;font-style:normal;font-weight:bold;writing-mode:lr-tb;fill:#000000;fill-opacity:1;stroke:none;stroke-width:1px;stroke-linecap:butt;stroke-linejoin:miter;stroke-opacity:1;font-family:Sans;-inkscape-font-specification:Sans"
       x="63.779522"
       y="790.15747"
       id="text6884"><tspan
         sodipodi:role="line"
         id="tspan6886"
         x="63.779522"
         y="790.15747">* some important local </tspan><tspan
         sodipodi:role="line"
         x="63.779522"
         y="820.15747"
         id="tspan6888">   topics were not found </tspan><tspan
         sodipodi:role="line"
         x="63.779522"
         y="850.15747"
         id="tspan6890">   with global topic analysis</tspan></text>
    <text
       xml:space="preserve"
       style="font-size:24px;font-style:normal;font-weight:bold;writing-mode:lr-tb;fill:#000000;fill-opacity:1;stroke:none;stroke-width:1px;stroke-linecap:butt;stroke-linejoin:miter;stroke-opacity:1;font-family:Sans;-inkscape-font-specification:Sans"
       x="248.03149"
       y="917.71655"
       id="text6892"><tspan
         sodipodi:role="line"
         id="tspan6894"
         x="248.03149"
         y="917.71655">vs</tspan></text>
  </g>
</svg>
