<?xml version="1.0" encoding="UTF-8" standalone="no"?>
<!-- Created with Inkscape (http://www.inkscape.org/) -->
<svg
   xmlns:dc="http://purl.org/dc/elements/1.1/"
   xmlns:cc="http://creativecommons.org/ns#"
   xmlns:rdf="http://www.w3.org/1999/02/22-rdf-syntax-ns#"
   xmlns:svg="http://www.w3.org/2000/svg"
   xmlns="http://www.w3.org/2000/svg"
   xmlns:xlink="http://www.w3.org/1999/xlink"
   xmlns:sodipodi="http://sodipodi.sourceforge.net/DTD/sodipodi-0.dtd"
   xmlns:inkscape="http://www.inkscape.org/namespaces/inkscape"
   width="453.5433"
   height="340.15747"
   id="svg2"
   sodipodi:version="0.32"
   inkscape:version="0.46"
   sodipodi:docname="slide400-conclusions.svg"
   version="1.0"
   inkscape:output_extension="org.inkscape.output.svg.inkscape">
  <defs
     id="defs4">
    <inkscape:perspective
       sodipodi:type="inkscape:persp3d"
       inkscape:vp_x="0 : 170.07874 : 1"
       inkscape:vp_y="0 : 1000 : 0"
       inkscape:vp_z="453.5433 : 170.07874 : 1"
       inkscape:persp3d-origin="226.77165 : 113.38582 : 1"
       id="perspective6938" />
    <inkscape:perspective
       id="perspective7488"
       inkscape:persp3d-origin="372.04724 : 350.78739 : 1"
       inkscape:vp_z="744.09448 : 526.18109 : 1"
       inkscape:vp_y="0 : 1000 : 0"
       inkscape:vp_x="0 : 526.18109 : 1"
       sodipodi:type="inkscape:persp3d" />
    <inkscape:perspective
       id="perspective7514"
       inkscape:persp3d-origin="372.04724 : 350.78739 : 1"
       inkscape:vp_z="744.09448 : 526.18109 : 1"
       inkscape:vp_y="0 : 1000 : 0"
       inkscape:vp_x="0 : 526.18109 : 1"
       sodipodi:type="inkscape:persp3d" />
    <inkscape:perspective
       id="perspective7527"
       inkscape:persp3d-origin="372.04724 : 350.78739 : 1"
       inkscape:vp_z="744.09448 : 526.18109 : 1"
       inkscape:vp_y="0 : 1000 : 0"
       inkscape:vp_x="0 : 526.18109 : 1"
       sodipodi:type="inkscape:persp3d" />
  </defs>
  <sodipodi:namedview
     id="base"
     pagecolor="#ffffff"
     bordercolor="#666666"
     borderopacity="1.0"
     gridtolerance="10000"
     guidetolerance="8.8"
     objecttolerance="10"
     inkscape:pageopacity="0.0"
     inkscape:pageshadow="2"
     inkscape:zoom="1.0892718"
     inkscape:cx="341.83656"
     inkscape:cy="77.179626"
     inkscape:document-units="mm"
     inkscape:current-layer="layer1"
     inkscape:window-width="1024"
     inkscape:window-height="768"
     inkscape:window-x="0"
     inkscape:window-y="0"
     width="12.8cm"
     height="9.6cm"
     units="cm"
     showgrid="false"
     grid_units="mm"
     inkscape:object-paths="false"
     inkscape:grid-points="true"
     inkscape:grid-bbox="true"
     inkscape:guide-points="true"
     showguides="true"
     inkscape:guide-bbox="true">
    <sodipodi:guide
       orientation="vertical"
       position="56.476527"
       id="guide3573" />
    <sodipodi:guide
       orientation="horizontal"
       position="11.035643"
       id="guide3579" />
    <sodipodi:guide
       orientation="horizontal"
       position="24.018753"
       id="guide3886" />
    <sodipodi:guide
       orientation="horizontal"
       position="285.62841"
       id="guide3988" />
    <sodipodi:guide
       orientation="horizontal"
       position="303.15561"
       id="guide4081" />
    <inkscape:grid
       id="GridFromPre046Settings"
       type="xygrid"
       originx="0px"
       originy="0px"
       spacingx="2mm"
       spacingy="2mm"
       color="#0000ff"
       empcolor="#0000ff"
       opacity="0.2"
       empopacity="0.4"
       empspacing="5" />
  </sodipodi:namedview>
  <metadata
     id="metadata7">
    <rdf:RDF>
      <cc:Work
         rdf:about="">
        <dc:format>image/svg+xml</dc:format>
        <dc:type
           rdf:resource="http://purl.org/dc/dcmitype/StillImage" />
      </cc:Work>
    </rdf:RDF>
  </metadata>
  <g
     inkscape:label="Layer 1"
     inkscape:groupmode="layer"
     id="layer1"
     transform="translate(4.149475e-6,-698.0315)">
    <text
       xml:space="preserve"
       style="font-size:24px;font-style:normal;font-weight:bold;writing-mode:lr-tb;fill:#000000;fill-opacity:1;stroke:none;stroke-width:1px;stroke-linecap:butt;stroke-linejoin:miter;stroke-opacity:1;font-family:Sans;-inkscape-font-specification:Sans"
       x="56.692909"
       y="752.56055"
       id="text6940"><tspan
         sodipodi:role="line"
         id="tspan6942"
         x="56.692909"
         y="752.56055">Conclusions</tspan></text>
    <image
       y="922.15747"
       x="283.46457"
       id="image7516"
       height="151.46458"
       width="146.73131"
       sodipodi:absref="/home/abez/projects/lda-paper/presentation-icsm/month-1024768.png"
       xlink:href="month-1024768.png" />
    <image
       y="961.63605"
       x="70.866135"
       id="image7529"
       height="111.98599"
       width="141.73228"
       sodipodi:absref="/home/abez/projects/lda-paper/presentation-icsm/time-smear-plot.1024768.png"
       xlink:href="time-smear-plot.1024768.png" />
    <g
       id="g7417"
       transform="translate(-1.017677,28.593317)">
      <g
         transform="matrix(8.8019455e-2,0,0,8.8019455e-2,185.92811,1258.8428)"
         id="g5434">
        <path
           style="fill:#ffd42a;fill-rule:evenodd;stroke:#000000;stroke-width:1.00154614px;stroke-linecap:butt;stroke-linejoin:miter;stroke-opacity:1"
           d="M -421.69808,-4417.6956 C -417.72211,-4417.6956 -416.11815,-4284.8268 -405.48552,-4231.828 C -397.17406,-4190.3989 -499.50875,-4194.335 -527.07928,-4183.3408 C -585.59667,-4160.0062 -682.6316,-4175.2597 -745.94809,-4175.2597 C -813.02995,-4175.2597 -818.90435,-4195.3824 -818.90435,-4256.0716 C -818.90435,-4302.9866 -821.39788,-4351.1839 -810.7981,-4393.452 C -794.70858,-4457.6112 -791.85376,-4470.6773 -721.62934,-4482.3452 C -676.39304,-4489.8612 -583.99312,-4466.2506 -543.29184,-4450.0204 C -504.8998,-4434.7111 -464.32591,-4434.6941 -421.69808,-4417.6956 z"
           id="path5426" />
        <path
           style="fill:#222b00;fill-rule:evenodd;stroke:#000000;stroke-width:1.00154614px;stroke-linecap:butt;stroke-linejoin:miter;stroke-opacity:1"
           d="M -518.97305,-4328.8024 C -491.79914,-4317.9665 -478.4418,-4226.7827 -478.4418,-4183.3408 C -478.4418,-4153.5858 -628.69305,-4189.5441 -632.46058,-4191.422 C -673.27692,-4211.7672 -624.65669,-4304.2574 -608.14179,-4320.7212 C -587.24617,-4341.5523 -542.20549,-4333.4345 -518.97305,-4328.8024 z"
           id="path5428" />
        <path
           style="fill:#ddff55;fill-rule:evenodd;stroke:#000000;stroke-width:1.00154614px;stroke-linecap:butt;stroke-linejoin:miter;stroke-opacity:1"
           d="M -656.77938,-4353.046 C -625.67603,-4384.0532 -710.06761,-4264.1528 -754.05434,-4264.1528 C -814.7468,-4264.1528 -750.78555,-4372.4671 -737.84184,-4385.3708 C -711.09941,-4412.0306 -663.36952,-4366.1857 -656.77938,-4353.046 z"
           id="path5430" />
        <path
           style="fill:#6c6753;fill-rule:evenodd;stroke:#000000;stroke-width:1.00154614px;stroke-linecap:butt;stroke-linejoin:miter;stroke-opacity:1"
           d="M -364.95427,-4445.9797 C -325.57748,-4436.166 -456.44658,-4504.8645 -527.07928,-4575.279 C -577.69498,-4625.7382 -600.49859,-4682.1809 -616.24802,-4744.9841 C -622.21956,-4768.7964 -686.53997,-4629.0784 -705.41684,-4591.4413 C -734.27665,-4533.9001 -771.31058,-4516.6781 -827.0106,-4494.467 C -891.80321,-4468.63 -777.24785,-4421.1753 -729.73559,-4397.4926 C -687.22278,-4376.3019 -626.99862,-4381.3302 -575.71677,-4381.3302 C -507.88622,-4381.3302 -472.76537,-4405.5737 -405.48552,-4405.5737 C -373.51731,-4405.5737 -392.05344,-4400.9541 -364.95427,-4445.9797 z"
           id="path5432" />
      </g>
      <g
         transform="matrix(8.8019455e-2,0,0,8.8019455e-2,195.1751,1275.9142)"
         id="g5471">
        <path
           style="fill:#6f918a;fill-rule:evenodd;stroke:#000000;stroke-width:0.95224524px;stroke-linecap:butt;stroke-linejoin:miter;stroke-opacity:1"
           d="M 101.89206,-4684.5406 C 112.42512,-4661.3086 107.07354,-4571.6853 107.07354,-4524.5406 C 107.07354,-4493.259 101.89206,-4469.3337 101.89206,-4438.8263 C 101.89206,-4378.3827 54.479276,-4386.1839 8.6241385,-4398.8263 C -36.767367,-4411.3409 -98.334035,-4398.8263 -146.82234,-4398.8263 C -180.4942,-4398.8263 -207.46855,-4404.5406 -240.09018,-4404.5406 C -254.66716,-4404.5406 -277.27242,-4499.9896 -281.54258,-4518.8263 C -291.47245,-4562.6296 -279.83568,-4583.4987 -271.17946,-4621.6835 C -264.21491,-4652.406 -258.26241,-4687.3571 -240.09018,-4707.3978 C -214.54009,-4735.5748 -212.76246,-4783.2494 -188.27466,-4810.2549 C -165.92873,-4834.8984 -158.63249,-4860.0876 -136.45922,-4884.5406 C -120.97139,-4901.6208 -104.11298,-4926.3889 -89.825258,-4947.3978 C -64.809169,-4984.182 -39.698323,-4955.5949 -22.46514,-4930.2549 C -3.2061401,-4901.9361 9.7692089,-4867.6188 29.350385,-4838.8263 C 47.045295,-4812.8073 53.151582,-4780.6154 65.621225,-4753.1121 C 77.932636,-4725.9576 82.62844,-4711.0959 101.89206,-4684.5406 z"
           id="path5459" />
        <path
           style="fill:#ff5599;fill-rule:evenodd;stroke:#000000;stroke-width:0.95224524px;stroke-linecap:butt;stroke-linejoin:miter;stroke-opacity:1"
           d="M 117.43666,-4633.1121 C 121.35028,-4650.3762 -12.013788,-4844.3459 -32.828263,-4890.2549 C -68.006172,-4967.8444 -53.554418,-4911.7979 -53.554418,-4850.2549 C -53.554418,-4825.825 -76.456008,-4771.1711 -84.643697,-4753.1121 C -102.18863,-4714.4145 -112.93078,-4673.423 -136.45922,-4638.8263 C -168.02519,-4592.4111 -208.94568,-4614.4949 -245.27174,-4644.5406 C -276.89103,-4670.6933 -331.50022,-4686.0772 -291.9057,-4718.8263 C -255.2435,-4749.15 -222.90823,-4783.4892 -188.27466,-4821.6835 C -158.20014,-4854.8501 -151.58244,-4909.2567 -141.64078,-4953.1121 C -132.46571,-4993.5856 -137.49666,-5009.6829 -105.36994,-5027.3978 C -83.84728,-5039.2655 -48.705279,-4985.9817 -38.009825,-4970.2549 C -18.693517,-4941.8519 -0.34346401,-4910.0342 13.8057,-4878.8263 C 27.323479,-4849.0111 37.092214,-4821.7506 50.07654,-4793.1121 C 63.778666,-4762.8903 78.497917,-4736.1393 91.528942,-4707.3978 C 107.82307,-4671.4589 126.75047,-4684.4691 117.43666,-4633.1121 z"
           id="path5461" />
        <path
           style="fill:#2b0000;fill-rule:evenodd;stroke:#000000;stroke-width:0.95224524px;stroke-linecap:butt;stroke-linejoin:miter;stroke-opacity:1"
           d="M 24.168823,-4695.9692 C 6.4453491,-4751.1985 -36.437302,-4750.3544 -48.372857,-4684.5406 C -55.17101,-4647.0552 -17.971636,-4661.6835 13.8057,-4661.6835 C 41.843785,-4661.6835 36.688792,-4661.4512 24.168823,-4695.9692 z"
           id="path5463" />
        <path
           style="fill:#2b0000;fill-rule:evenodd;stroke:#000000;stroke-width:0.95224524px;stroke-linecap:butt;stroke-linejoin:miter;stroke-opacity:1"
           d="M -6.9204554,-4404.5406 C 14.84894,-4404.5406 -27.321171,-4529.537 -38.009825,-4553.1121 C -68.798871,-4621.0213 -136.46004,-4495.9673 -146.82234,-4473.1121 C -150.27669,-4465.493 -153.73103,-4457.874 -157.18538,-4450.2549 C -186.33652,-4385.9583 -90.265133,-4398.8263 -63.917542,-4398.8263 C -33.082975,-4398.8263 -44.620367,-4390.682 -6.9204554,-4404.5406 z"
           id="path5465" />
      </g>
      <g
         transform="matrix(8.8019455e-2,0,0,8.8019455e-2,262.74898,1217.5872)"
         id="g5440">
        <path
           style="fill:#e9afaf;fill-rule:evenodd;stroke:#000000;stroke-width:1px;stroke-linecap:butt;stroke-linejoin:miter;stroke-opacity:1"
           d="M -816.20326,-3820.6137 C -820.16694,-3820.6137 -821.76592,-3687.7445 -832.3657,-3634.7456 C -840.65154,-3593.3164 -738.6328,-3597.2525 -711.14739,-3586.2583 C -652.81072,-3562.9236 -556.07542,-3578.1771 -492.95444,-3578.1771 C -426.07972,-3578.1771 -420.22346,-3598.2999 -420.22346,-3658.9893 C -420.22346,-3705.9044 -417.73763,-3754.1018 -428.30468,-3796.37 C -444.34452,-3860.5294 -447.19052,-3873.5955 -517.1981,-3885.2635 C -562.29468,-3892.7795 -654.4093,-3869.1688 -694.98495,-3852.9386 C -733.25843,-3837.6292 -773.70702,-3837.6122 -816.20326,-3820.6137 z"
           id="path5410" />
        <path
           style="fill:#c87137;fill-rule:evenodd;stroke:#000000;stroke-width:1px;stroke-linecap:butt;stroke-linejoin:miter;stroke-opacity:1"
           d="M -719.22861,-3731.7203 C -746.31865,-3720.8843 -759.63471,-3629.7003 -759.63471,-3586.2583 C -759.63471,-3556.5032 -609.84737,-3592.4616 -606.09153,-3594.3395 C -565.40122,-3614.6847 -613.87135,-3707.1752 -630.33519,-3723.639 C -651.16633,-3744.4702 -696.06794,-3736.3524 -719.22861,-3731.7203 z"
           id="path5412" />
        <path
           style="fill:#2b1100;fill-rule:evenodd;stroke:#000000;stroke-width:1px;stroke-linecap:butt;stroke-linejoin:miter;stroke-opacity:1"
           d="M -581.84786,-3755.9639 C -612.85514,-3786.9712 -528.72413,-3667.0705 -484.87322,-3667.0705 C -424.36817,-3667.0705 -488.13192,-3775.3851 -501.03566,-3788.2888 C -527.69552,-3814.9487 -575.27797,-3769.1037 -581.84786,-3755.9639 z"
           id="path5414" />
        <path
           style="fill:#ff0000;fill-rule:evenodd;stroke:#000000;stroke-width:1px;stroke-linecap:butt;stroke-linejoin:miter;stroke-opacity:1"
           d="M -872.7718,-3848.8979 C -912.02698,-3839.0841 -781.56206,-3907.7828 -711.14739,-3978.1975 C -660.68801,-4028.6568 -637.95482,-4085.0997 -622.25397,-4147.9031 C -616.30088,-4171.7154 -552.17915,-4031.9971 -533.36054,-3994.3599 C -504.58984,-3936.8185 -467.67027,-3919.5965 -412.14224,-3897.3853 C -347.5497,-3871.5482 -461.75133,-3824.0934 -509.11688,-3800.4106 C -551.4984,-3779.2199 -611.53666,-3784.2482 -662.66007,-3784.2482 C -730.28121,-3784.2482 -765.29366,-3808.4918 -832.3657,-3808.4918 C -864.23521,-3808.4918 -845.7563,-3803.8721 -872.7718,-3848.8979 z"
           id="path5408" />
      </g>
      <g
         transform="matrix(8.8019455e-2,0,0,8.8019455e-2,279.10898,1214.742)"
         id="g5446">
        <path
           style="fill:#552200;fill-rule:evenodd;stroke:#000000;stroke-width:1px;stroke-linecap:butt;stroke-linejoin:miter;stroke-opacity:1"
           d="M -1527.3506,-3933.7508 C -1579.7839,-3973.0757 -1559.6755,-3805.343 -1559.6755,-3739.8015 C -1559.6755,-3668.0814 -1625.4762,-3578.7525 -1543.5131,-3537.771 C -1502.5011,-3517.265 -1413.9216,-3529.6898 -1365.7262,-3529.6898 C -1290.5579,-3529.6898 -1198.9123,-3534.4197 -1139.4521,-3570.0959 C -1098.4077,-3594.7225 -1114.482,-3736.896 -1123.2896,-3772.1264 C -1137.4791,-3828.8843 -1145.1519,-3888.5818 -1163.6957,-3925.6696 C -1183.0361,-3964.3504 -1242.044,-3974.1569 -1284.914,-3974.1569 C -1332.5408,-3974.1569 -1381.383,-3986.4051 -1430.376,-3974.1569 C -1465.1236,-3965.47 -1487.4424,-3941.7324 -1527.3506,-3933.7508 z"
           id="path5404" />
        <path
           style="fill:#ffcc00;fill-rule:evenodd;stroke:#000000;stroke-width:1px;stroke-linecap:butt;stroke-linejoin:miter;stroke-opacity:1"
           d="M -1373.8075,-3521.6085 C -1393.7193,-3516.6306 -1389.9699,-3643.1737 -1389.9699,-3675.1517 C -1389.9699,-3737.5978 -1312.9222,-3750.8441 -1268.7516,-3739.8015 C -1221.8331,-3728.0719 -1212.1831,-3658.8607 -1212.1831,-3618.5832 C -1212.1831,-3561.7932 -1187.3646,-3545.9959 -1252.5892,-3529.6898 C -1290.1908,-3520.2893 -1334.3675,-3521.6085 -1373.8075,-3521.6085 z"
           id="path5406" />
        <path
           style="fill:#ff6600;fill-rule:evenodd;stroke:#000000;stroke-width:1px;stroke-linecap:butt;stroke-linejoin:miter;stroke-opacity:1"
           d="M -1389.9699,-4143.8625 C -1443.1031,-4166.0321 -1491.7898,-4122.8548 -1543.5131,-4071.1315 C -1588.4842,-4026.1604 -1615.4828,-3983.7607 -1640.4877,-3933.7508 C -1663.2711,-3888.1841 -1668.1006,-3849.7403 -1616.2441,-3836.7761 C -1566.1547,-3824.2538 -1519.2017,-3820.6137 -1462.7009,-3820.6137 C -1413.4499,-3820.6137 -1361.6071,-3817.6029 -1317.2389,-3828.6949 C -1269.5888,-3840.6074 -1272.1568,-3918.859 -1260.6704,-3941.832 C -1257.8302,-3947.5124 -1294.2886,-3836.7761 -1204.1018,-3836.7761 C -1145.7186,-3836.7761 -1112.3761,-3837.8589 -1082.8835,-3877.1822 C -1063.4255,-3903.1263 -1104.7192,-4001.6657 -1115.2084,-4022.6442 C -1147.7402,-4087.7078 -1206.5274,-4087.0928 -1260.6704,-4127.7001 C -1287.6433,-4147.9297 -1357.2251,-4143.8625 -1389.9699,-4143.8625 z"
           id="path5402" />
      </g>
      <g
         transform="matrix(8.8019455e-2,0,0,8.8019455e-2,276.97508,1226.1229)"
         id="g5451">
        <path
           style="fill:#ffff00;fill-rule:evenodd;stroke:#000000;stroke-width:1px;stroke-linecap:butt;stroke-linejoin:miter;stroke-opacity:1"
           d="M -2097.1429,-3941.9235 C -2108.7589,-3918.6915 -2102.8571,-3829.0682 -2102.8571,-3781.9235 C -2102.8571,-3750.6419 -2097.1429,-3726.7166 -2097.1429,-3696.2092 C -2097.1429,-3635.7656 -2044.8554,-3643.5668 -1994.2857,-3656.2092 C -1944.2273,-3668.7238 -1876.3307,-3656.2092 -1822.8571,-3656.2092 C -1785.7233,-3656.2092 -1755.9756,-3661.9235 -1720,-3661.9235 C -1703.9243,-3661.9235 -1678.9949,-3757.3725 -1674.2857,-3776.2092 C -1663.3349,-3820.0125 -1676.1681,-3840.8816 -1685.7143,-3879.0664 C -1693.3949,-3909.7889 -1699.9594,-3944.74 -1720,-3964.7807 C -1748.177,-3992.9577 -1750.1374,-4040.6323 -1777.1429,-4067.6378 C -1801.7863,-4092.2813 -1809.8327,-4117.4705 -1834.2857,-4141.9235 C -1851.3659,-4159.0037 -1869.9576,-4183.7718 -1885.7143,-4204.7807 C -1913.3024,-4241.5649 -1940.995,-4212.9778 -1960,-4187.6378 C -1981.2391,-4159.319 -1995.5485,-4125.0017 -2017.1429,-4096.2092 C -2036.6571,-4070.1902 -2043.3912,-4037.9983 -2057.1429,-4010.495 C -2070.7201,-3983.3405 -2075.8987,-3968.4788 -2097.1429,-3941.9235 z"
           id="path5420" />
        <path
           style="fill:#808000;fill-rule:evenodd;stroke:#000000;stroke-width:1px;stroke-linecap:butt;stroke-linejoin:miter;stroke-opacity:1"
           d="M -2114.2857,-3890.495 C -2118.6017,-3907.7591 -1971.5259,-4101.7288 -1948.5714,-4147.6378 C -1909.7767,-4225.2273 -1925.7143,-4169.1808 -1925.7143,-4107.6378 C -1925.7143,-4083.2079 -1900.4581,-4028.554 -1891.4286,-4010.495 C -1872.0798,-3971.7974 -1860.2332,-3930.8059 -1834.2857,-3896.2092 C -1799.4743,-3849.794 -1754.3466,-3871.8778 -1714.2857,-3901.9235 C -1679.4155,-3928.0762 -1619.1917,-3943.4601 -1662.8571,-3976.2092 C -1703.2887,-4006.5329 -1738.9485,-4040.8721 -1777.1429,-4079.0664 C -1810.3095,-4112.233 -1817.6076,-4166.6396 -1828.5714,-4210.495 C -1838.6898,-4250.9685 -1833.1416,-4267.0658 -1868.5714,-4284.7807 C -1892.3069,-4296.6484 -1931.062,-4243.3646 -1942.8571,-4227.6378 C -1964.1594,-4199.2348 -1984.3961,-4167.4171 -2000,-4136.2092 C -2014.9076,-4106.394 -2025.6807,-4079.1335 -2040,-4050.495 C -2055.1109,-4020.2732 -2071.3435,-3993.5222 -2085.7143,-3964.7807 C -2103.6837,-3928.8418 -2124.5571,-3941.852 -2114.2857,-3890.495 z"
           id="path5418" />
        <path
           style="fill:#2b0000;fill-rule:evenodd;stroke:#000000;stroke-width:1px;stroke-linecap:butt;stroke-linejoin:miter;stroke-opacity:1"
           d="M -2011.4286,-3953.3521 C -1991.8829,-4008.5814 -1944.5913,-4007.7373 -1931.4286,-3941.9235 C -1923.9315,-3904.4381 -1964.9555,-3919.0664 -2000,-3919.0664 C -2030.9208,-3919.0664 -2025.2358,-3918.8341 -2011.4286,-3953.3521 z"
           id="path5422" />
        <path
           style="fill:#2b0000;fill-rule:evenodd;stroke:#000000;stroke-width:1px;stroke-linecap:butt;stroke-linejoin:miter;stroke-opacity:1"
           d="M -1977.1429,-3661.9235 C -2001.1505,-3661.9235 -1954.6447,-3786.9199 -1942.8571,-3810.495 C -1908.9025,-3878.4042 -1834.2848,-3753.3502 -1822.8571,-3730.495 C -1819.0476,-3722.8759 -1815.2381,-3715.2569 -1811.4286,-3707.6378 C -1779.2803,-3643.3412 -1885.2292,-3656.2092 -1914.2857,-3656.2092 C -1948.2905,-3656.2092 -1935.5669,-3648.0649 -1977.1429,-3661.9235 z"
           id="path5424" />
      </g>
      <g
         transform="matrix(6.1647302e-2,0,0,6.1647302e-2,287.39993,1137.2933)"
         id="g5499">
        <path
           sodipodi:type="arc"
           style="fill:#245599;fill-opacity:1;stroke:#000000;stroke-width:6.69999981;stroke-miterlimit:4;stroke-dasharray:none;stroke-opacity:1"
           id="path5477"
           sodipodi:cx="602.0509"
           sodipodi:cy="-4192.3496"
           sodipodi:rx="593.96967"
           sodipodi:ry="598.01031"
           d="M 1196.0206,-4192.3496 A 593.96967,598.01031 0 1 1 8.0812378,-4192.3496 A 593.96967,598.01031 0 1 1 1196.0206,-4192.3496 z" />
        <path
           style="fill:#4bf44e;fill-opacity:1;fill-rule:evenodd;stroke:#000000;stroke-width:1px;stroke-linecap:butt;stroke-linejoin:miter;stroke-opacity:1"
           d="M 395.9798,-4596.4108 C 373.1477,-4561.501 316.0451,-4532.1998 266.68027,-4507.5174 C 192.05582,-4470.2052 318.6328,-4491.355 371.73614,-4491.355 C 443.84377,-4491.355 425.68633,-4480.4292 460.62956,-4410.5428 C 487.29922,-4357.2035 498.97101,-4346.9253 549.52298,-4321.6494 C 591.26846,-4300.7766 625.03136,-4277.5401 646.49763,-4248.9184 C 672.93428,-4213.6695 750.26246,-4224.3519 783.87837,-4232.7559 C 830.57195,-4244.4293 873.54362,-4183.2395 897.01546,-4151.9437 C 925.04781,-4114.5673 914.77372,-4066.2419 897.01546,-4030.7254 C 873.71005,-3984.1146 851.8733,-3945.1772 816.20326,-3909.5071 C 794.02879,-3887.3326 870.4388,-3806.7842 880.85302,-3796.37 C 922.49873,-3754.7243 926.79091,-3721.0896 880.85302,-3675.1517 C 815.16248,-3609.4612 921.16243,-3699.3229 953.584,-3723.639 C 1000.6612,-3758.9469 1009.6847,-3812.0646 1050.5586,-3852.9386 C 1082.5536,-3884.9335 1093.8017,-3959.0833 1123.2896,-3998.4005 C 1142.7759,-4024.3823 1131.3708,-4092.9714 1131.3708,-4127.7001 C 1131.3708,-4171.7998 1097.0573,-4214.5542 1066.7211,-4232.7559 C 1017.4241,-4262.3341 970.51486,-4244.3014 921.25912,-4281.2432 C 885.85027,-4307.7999 898.34202,-4376.7695 905.09668,-4410.5428 C 909.90311,-4434.5749 1025.5357,-4374.5669 1034.3962,-4370.1367 C 1093.453,-4340.6083 1072.7467,-4426.8462 1066.7211,-4450.9489 C 1058.9653,-4481.9722 998.39498,-4497.9791 985.90888,-4547.9235 C 972.83102,-4600.235 954.97196,-4628.0417 905.09668,-4652.9794 C 865.5409,-4672.7573 824.88283,-4691.2156 783.87837,-4701.4667 C 723.821,-4716.4811 700.50087,-4729.0463 686.90373,-4661.0606 C 673.54028,-4594.2433 658.70236,-4611.5839 598.01031,-4596.4108 C 550.97792,-4584.6527 496.1669,-4588.3296 444.46712,-4588.3296 C 417.1981,-4588.3296 433.5313,-4587.023 395.9798,-4596.4108 z"
           id="path5479" />
        <path
           style="fill:none;fill-rule:evenodd;stroke:#000000;stroke-width:10;stroke-linecap:butt;stroke-linejoin:miter;stroke-miterlimit:4;stroke-dasharray:10, 10;stroke-dashoffset:0;stroke-opacity:1"
           d="M 549.52298,-4406.5022 C 543.37825,-4421.1486 562.969,-4438.0969 569.72604,-4454.9895 C 576.71617,-4472.4648 600.85658,-4490.1606 614.17275,-4503.4768 C 621.85504,-4511.1591 646.60638,-4519.6393 656.59915,-4519.6393 C 673.71725,-4519.6393 693.04243,-4527.7205 711.14739,-4527.7205 C 730.94758,-4527.7205 753.79333,-4529.7408 775.79715,-4529.7408 C 790.92547,-4529.7408 813.73002,-4512.9079 826.30478,-4503.4768 C 836.54549,-4495.7963 843.96026,-4482.5716 848.52814,-4471.1519 C 854.04127,-4457.3691 855.57884,-4446.8268 854.58905,-4442.8677 C 851.76951,-4431.5895 831.86916,-4448.9286 820.24387,-4448.9286 C 793.35681,-4448.9286 758.73044,-4444.888 735.39105,-4444.888 C 710.92547,-4444.888 673.08087,-4422.9839 656.59915,-4406.5022 C 642.36965,-4392.2727 624.99407,-4384.9986 610.13214,-4370.1367 C 591.73354,-4351.7381 657.14327,-4362.0555 670.74129,-4362.0555 C 718.48044,-4362.0555 766.85093,-4360.0352 814.18295,-4360.0352 C 841.45273,-4360.0352 887.81027,-4310.6515 905.09668,-4293.3651 C 935.91051,-4262.5513 963.98402,-4234.4777 993.9901,-4204.4717 C 1020.6306,-4177.8312 1026.0009,-4135.5266 1048.5383,-4105.4767 C 1060.5831,-4089.417 1072.782,-4070.3203 1072.782,-4054.9691 C 1072.782,-4054.0841 1023.685,-4065.0706 989.94949,-4065.0706 C 937.30544,-4065.0706 923.51384,-4055.0863 878.83271,-4032.7457 C 858.08542,-4022.3721 848.69295,-3982.7325 842.46722,-3964.0554 C 836.3892,-3945.8213 846.8383,-3911.197 858.62966,-3899.4056 C 868.74835,-3889.2869 864.69058,-3914.7796 864.69058,-3939.8117 C 864.69058,-3962.9786 862.67027,-3986.4738 862.67027,-4008.5021 C 862.67027,-4024.309 846.33913,-4062.6018 838.42661,-4073.1518 C 817.68128,-4100.8123 805.51623,-4132.9776 783.87837,-4160.0249 C 762.26297,-4187.0442 744.37432,-4217.7117 721.24892,-4240.8372 C 718.55518,-4243.5309 715.86144,-4246.2246 713.1677,-4248.9184 C 695.75886,-4266.3272 687.83844,-4284.3492 670.74129,-4301.4463 C 655.71929,-4316.4683 633.39112,-4330.3005 614.17275,-4335.7915 C 598.50814,-4340.2671 587.94485,-4353.9652 571.74634,-4358.0148 C 556.2534,-4361.8881 544.41092,-4364.0758 529.31993,-4364.0758"
           id="path5497" />
      </g>
      <text
         id="text6989"
         y="882.28345"
         x="240.94489"
         style="font-size:24px;font-style:normal;font-weight:bold;writing-mode:lr-tb;fill:#000000;fill-opacity:1;stroke:none;stroke-width:1px;stroke-linecap:butt;stroke-linejoin:miter;stroke-opacity:1;font-family:Sans;-inkscape-font-specification:Sans"
         xml:space="preserve"><tspan
           y="882.28345"
           x="240.94489"
           id="tspan6991"
           sodipodi:role="line">vs</tspan></text>
    </g>
    <g
       id="g7350"
       transform="matrix(0.6666666,0,0,0.6666666,113.25165,283.60413)">
      <path
         sodipodi:nodetypes="ccccccc"
         id="path24140"
         d="M 7.08661,792.20784 C 62.66994,793.43753 94.863,782.02175 176.85469,768.81757 L 368.50395,792.20784 L 368.50395,834.46117 L 178.1179,803.79998 L 7.08661,834.46117 L 7.08661,792.20784 z"
         style="fill:#d40055;fill-opacity:1;stroke:#f41e16;stroke-width:5.81158686;stroke-miterlimit:4;stroke-dasharray:5.81158688, 5.81158688;stroke-dashoffset:0;stroke-opacity:1" />
      <g
         transform="matrix(0.1244728,0,0,0.1244728,76.95953,705.27062)"
         id="g24142">
        <g
           id="g24144"
           transform="translate(-518.57143,65.714286)">
          <path
             transform="translate(58.389218,829.44544)"
             d="M 344.28572,56.647896 L 166.51272,55.437218 L -6.219758,53.29804 L 83.715219,-100.05255 L 171.93404,-248.57368 L 259.77206,-94.012408 L 344.28572,56.647896 z"
             inkscape:randomized="0"
             inkscape:rounded="0"
             inkscape:flatsided="false"
             sodipodi:arg2="1.6050908"
             sodipodi:arg1="0.5331557"
             sodipodi:r2="101.70627"
             sodipodi:r1="202.37367"
             sodipodi:cy="-46.209248"
             sodipodi:cx="170"
             sodipodi:sides="3"
             id="path24146"
             style="fill:#000000;stroke-width:5;stroke-miterlimit:4;stroke-dasharray:none"
             sodipodi:type="star" />
          <path
             transform="matrix(0.7800193,0,0,0.7800193,99.416579,818.80339)"
             d="M 344.28572,56.647896 L 166.51272,55.437218 L -6.219758,53.29804 L 83.715219,-100.05255 L 171.93404,-248.57368 L 259.77206,-94.012408 L 344.28572,56.647896 z"
             inkscape:randomized="0"
             inkscape:rounded="0"
             inkscape:flatsided="false"
             sodipodi:arg2="1.6050908"
             sodipodi:arg1="0.5331557"
             sodipodi:r2="101.70627"
             sodipodi:r1="202.37367"
             sodipodi:cy="-46.209248"
             sodipodi:cx="170"
             sodipodi:sides="3"
             id="path24148"
             style="fill:#ff0000;stroke-width:5;stroke-miterlimit:4;stroke-dasharray:none"
             sodipodi:type="star" />
          <path
             d="M 57.980037,905.58441 C 94.025089,907.33981 130.12003,907.78139 166.19739,908.4049 C 250.4897,911.65825 334.80227,914.04033 419.15102,915.04281 L 410.91813,920.99547 C 326.25121,918.07788 241.54946,915.74274 156.83048,915.21035 C 118.16504,915.84825 79.486769,916.3421 40.848979,918.03085 L 57.980037,905.58441 z"
             id="path24150"
             style="fill:#ff0000;stroke-width:5;stroke-miterlimit:4;stroke-dasharray:none" />
        </g>
      </g>
      <g
         transform="matrix(0.1304566,0,0,0.1304566,4.27418,701.17508)"
         id="g24152">
        <g
           id="g24154"
           transform="translate(2.8571414,-8.5714286)">
          <path
             transform="translate(478.38922,853.73116)"
             d="M 344.28572,56.647896 L 166.51272,55.437218 L -6.219758,53.29804 L 83.715219,-100.05255 L 171.93404,-248.57368 L 259.77206,-94.012408 L 344.28572,56.647896 z"
             inkscape:randomized="0"
             inkscape:rounded="0"
             inkscape:flatsided="false"
             sodipodi:arg2="1.6050908"
             sodipodi:arg1="0.5331557"
             sodipodi:r2="101.70627"
             sodipodi:r1="202.37367"
             sodipodi:cy="-46.209248"
             sodipodi:cx="170"
             sodipodi:sides="3"
             id="path24156"
             style="fill:#000000;stroke-width:5;stroke-miterlimit:4;stroke-dasharray:none"
             sodipodi:type="star" />
          <path
             transform="matrix(0.7800193,0,0,0.7800193,519.41658,843.08911)"
             d="M 344.28572,56.647896 L 166.51272,55.437218 L -6.219758,53.29804 L 83.715219,-100.05255 L 171.93404,-248.57368 L 259.77206,-94.012408 L 344.28572,56.647896 z"
             inkscape:randomized="0"
             inkscape:rounded="0"
             inkscape:flatsided="false"
             sodipodi:arg2="1.6050908"
             sodipodi:arg1="0.5331557"
             sodipodi:r2="101.70627"
             sodipodi:r1="202.37367"
             sodipodi:cy="-46.209248"
             sodipodi:cx="170"
             sodipodi:sides="3"
             id="path24158"
             style="fill:#00ff00;stroke-width:5;stroke-miterlimit:4;stroke-dasharray:none"
             sodipodi:type="star" />
          <path
             d="M 477.98004,929.87013 C 514.02509,931.62548 550.12003,932.06708 586.19739,932.69058 C 670.4897,935.94398 754.80227,938.32608 839.15102,939.32848 L 830.91813,945.28118 C 746.25121,942.36358 661.54946,940.02848 576.83048,939.49608 C 538.16504,940.13398 499.48677,940.62778 460.84898,942.31658 L 477.98004,929.87013 z"
             id="path24160"
             style="fill:#00ff00;stroke-width:5;stroke-miterlimit:4;stroke-dasharray:none" />
        </g>
      </g>
      <g
         transform="matrix(0.1171863,0,0,0.1171863,177.40921,698.07183)"
         id="g24162">
        <g
           id="g24164"
           transform="translate(-518.57143,65.714286)">
          <path
             transform="translate(58.389218,829.44544)"
             d="M 344.28572,56.647896 L 166.51272,55.437218 L -6.219758,53.29804 L 83.715219,-100.05255 L 171.93404,-248.57368 L 259.77206,-94.012408 L 344.28572,56.647896 z"
             inkscape:randomized="0"
             inkscape:rounded="0"
             inkscape:flatsided="false"
             sodipodi:arg2="1.6050908"
             sodipodi:arg1="0.5331557"
             sodipodi:r2="101.70627"
             sodipodi:r1="202.37367"
             sodipodi:cy="-46.209248"
             sodipodi:cx="170"
             sodipodi:sides="3"
             id="path24166"
             style="fill:#000000;stroke-width:5;stroke-miterlimit:4;stroke-dasharray:none"
             sodipodi:type="star" />
          <path
             transform="matrix(0.7800193,0,0,0.7800193,99.416579,818.80339)"
             d="M 344.28572,56.647896 L 166.51272,55.437218 L -6.219758,53.29804 L 83.715219,-100.05255 L 171.93404,-248.57368 L 259.77206,-94.012408 L 344.28572,56.647896 z"
             inkscape:randomized="0"
             inkscape:rounded="0"
             inkscape:flatsided="false"
             sodipodi:arg2="1.6050908"
             sodipodi:arg1="0.5331557"
             sodipodi:r2="101.70627"
             sodipodi:r1="202.37367"
             sodipodi:cy="-46.209248"
             sodipodi:cx="170"
             sodipodi:sides="3"
             id="path24168"
             style="fill:#ff0000;stroke-width:5;stroke-miterlimit:4;stroke-dasharray:none"
             sodipodi:type="star" />
          <path
             d="M 57.980037,905.58441 C 94.025089,907.33981 130.12003,907.78139 166.19739,908.4049 C 250.4897,911.65825 334.80227,914.04033 419.15102,915.04281 L 410.91813,920.99547 C 326.25121,918.07788 241.54946,915.74274 156.83048,915.21035 C 118.16504,915.84825 79.486769,916.3421 40.848979,918.03085 L 57.980037,905.58441 z"
             id="path24170"
             style="fill:#ff0000;stroke-width:5;stroke-miterlimit:4;stroke-dasharray:none" />
        </g>
      </g>
      <g
         transform="matrix(0.1171863,0,0,0.1171863,263.27893,705.91118)"
         id="g24172">
        <g
           id="g24174">
          <path
             transform="translate(28.389222,872.30258)"
             d="M 344.28572,56.647896 L 166.51272,55.437218 L -6.219758,53.29804 L 83.715219,-100.05255 L 171.93404,-248.57368 L 259.77206,-94.012408 L 344.28572,56.647896 z"
             inkscape:randomized="0"
             inkscape:rounded="0"
             inkscape:flatsided="false"
             sodipodi:arg2="1.6050908"
             sodipodi:arg1="0.5331557"
             sodipodi:r2="101.70627"
             sodipodi:r1="202.37367"
             sodipodi:cy="-46.209248"
             sodipodi:cx="170"
             sodipodi:sides="3"
             id="path24176"
             style="fill:#000000;stroke-width:5;stroke-miterlimit:4;stroke-dasharray:none"
             sodipodi:type="star" />
          <path
             transform="matrix(0.7800193,0,0,0.7800193,69.416582,861.66053)"
             d="M 344.28572,56.647896 L 166.51272,55.437218 L -6.219758,53.29804 L 83.715219,-100.05255 L 171.93404,-248.57368 L 259.77206,-94.012408 L 344.28572,56.647896 z"
             inkscape:randomized="0"
             inkscape:rounded="0"
             inkscape:flatsided="false"
             sodipodi:arg2="1.6050908"
             sodipodi:arg1="0.5331557"
             sodipodi:r2="101.70627"
             sodipodi:r1="202.37367"
             sodipodi:cy="-46.209248"
             sodipodi:cx="170"
             sodipodi:sides="3"
             id="path24178"
             style="fill:#0000ff;stroke-width:5;stroke-miterlimit:4;stroke-dasharray:none"
             sodipodi:type="star" />
          <path
             d="M 27.980042,948.44155 C 64.025092,950.1969 100.12003,950.6385 136.19739,951.262 C 220.4897,954.5154 304.80227,956.8975 389.15102,957.8999 L 380.91813,963.8526 C 296.25121,960.935 211.54946,958.5999 126.83048,958.0675 C 88.165042,958.7054 49.486772,959.1992 10.848982,960.888 L 27.980042,948.44155 z"
             id="path24180"
             style="fill:#0000ff;stroke-width:5;stroke-miterlimit:4;stroke-dasharray:none" />
        </g>
      </g>
      <g
         transform="matrix(0.1171863,0,0,0.1171863,112.81774,698.90587)"
         id="g24182">
        <g
           id="g24184"
           transform="translate(2.8571414,-8.5714286)">
          <path
             transform="translate(478.38922,853.73116)"
             d="M 344.28572,56.647896 L 166.51272,55.437218 L -6.219758,53.29804 L 83.715219,-100.05255 L 171.93404,-248.57368 L 259.77206,-94.012408 L 344.28572,56.647896 z"
             inkscape:randomized="0"
             inkscape:rounded="0"
             inkscape:flatsided="false"
             sodipodi:arg2="1.6050908"
             sodipodi:arg1="0.5331557"
             sodipodi:r2="101.70627"
             sodipodi:r1="202.37367"
             sodipodi:cy="-46.209248"
             sodipodi:cx="170"
             sodipodi:sides="3"
             id="path24186"
             style="fill:#000000;stroke-width:5;stroke-miterlimit:4;stroke-dasharray:none"
             sodipodi:type="star" />
          <path
             transform="matrix(0.7800193,0,0,0.7800193,519.41658,843.08911)"
             d="M 344.28572,56.647896 L 166.51272,55.437218 L -6.219758,53.29804 L 83.715219,-100.05255 L 171.93404,-248.57368 L 259.77206,-94.012408 L 344.28572,56.647896 z"
             inkscape:randomized="0"
             inkscape:rounded="0"
             inkscape:flatsided="false"
             sodipodi:arg2="1.6050908"
             sodipodi:arg1="0.5331557"
             sodipodi:r2="101.70627"
             sodipodi:r1="202.37367"
             sodipodi:cy="-46.209248"
             sodipodi:cx="170"
             sodipodi:sides="3"
             id="path24188"
             style="fill:#00ff00;stroke-width:5;stroke-miterlimit:4;stroke-dasharray:none"
             sodipodi:type="star" />
          <path
             d="M 477.98004,929.87013 C 514.02509,931.62548 550.12003,932.06708 586.19739,932.69058 C 670.4897,935.94398 754.80227,938.32608 839.15102,939.32848 L 830.91813,945.28118 C 746.25121,942.36358 661.54946,940.02848 576.83048,939.49608 C 538.16504,940.13398 499.48677,940.62778 460.84898,942.31658 L 477.98004,929.87013 z"
             id="path24190"
             style="fill:#00ff00;stroke-width:5;stroke-miterlimit:4;stroke-dasharray:none" />
        </g>
      </g>
      <g
         transform="matrix(0.1171863,0,0,0.1171863,149.7002,754.65607)"
         id="g24192">
        <path
           sodipodi:type="star"
           style="fill:#000000;stroke-width:5;stroke-miterlimit:4;stroke-dasharray:none"
           id="path24194"
           sodipodi:sides="3"
           sodipodi:cx="170"
           sodipodi:cy="-46.209248"
           sodipodi:r1="202.37367"
           sodipodi:r2="101.70627"
           sodipodi:arg1="0.5331557"
           sodipodi:arg2="1.6050908"
           inkscape:flatsided="false"
           inkscape:rounded="0"
           inkscape:randomized="0"
           d="M 344.28572,56.647896 L 166.51272,55.437218 L -6.219758,53.29804 L 83.715219,-100.05255 L 171.93404,-248.57368 L 259.77206,-94.012408 L 344.28572,56.647896 z"
           transform="translate(594.10351,412.30254)" />
        <path
           sodipodi:type="star"
           style="fill:#ff00ff;stroke-width:5;stroke-miterlimit:4;stroke-dasharray:none"
           id="path24196"
           sodipodi:sides="3"
           sodipodi:cx="170"
           sodipodi:cy="-46.209248"
           sodipodi:r1="202.37367"
           sodipodi:r2="101.70627"
           sodipodi:arg1="0.5331557"
           sodipodi:arg2="1.6050908"
           inkscape:flatsided="false"
           inkscape:rounded="0"
           inkscape:randomized="0"
           d="M 344.28572,56.647896 L 166.51272,55.437218 L -6.219758,53.29804 L 83.715219,-100.05255 L 171.93404,-248.57368 L 259.77206,-94.012408 L 344.28572,56.647896 z"
           transform="matrix(0.7800193,0,0,0.7800193,635.13087,401.66054)" />
        <path
           style="fill:#ff00ff;stroke-width:5;stroke-miterlimit:4;stroke-dasharray:none"
           id="path24198"
           d="M 593.69433,488.44154 C 629.73938,490.19694 665.83432,490.63854 701.91168,491.26204 C 786.20399,494.51544 870.5166,496.89754 954.8653,497.89994 L 946.6324,503.85264 C 861.9655,500.93504 777.26375,498.59994 692.54477,498.06754 C 653.87933,498.70544 615.20106,499.19924 576.56327,500.88804 L 593.69433,488.44154 z" />
      </g>
      <g
         transform="matrix(0.1171863,0,0,0.1171863,306.58595,713.89968)"
         id="g24200">
        <g
           id="g24202">
          <path
             transform="translate(28.389222,872.30258)"
             d="M 344.28572,56.647896 L 166.51272,55.437218 L -6.219758,53.29804 L 83.715219,-100.05255 L 171.93404,-248.57368 L 259.77206,-94.012408 L 344.28572,56.647896 z"
             inkscape:randomized="0"
             inkscape:rounded="0"
             inkscape:flatsided="false"
             sodipodi:arg2="1.6050908"
             sodipodi:arg1="0.5331557"
             sodipodi:r2="101.70627"
             sodipodi:r1="202.37367"
             sodipodi:cy="-46.209248"
             sodipodi:cx="170"
             sodipodi:sides="3"
             id="path24204"
             style="fill:#000000;stroke-width:5;stroke-miterlimit:4;stroke-dasharray:none"
             sodipodi:type="star" />
          <path
             transform="matrix(0.7800193,0,0,0.7800193,69.416582,861.66053)"
             d="M 344.28572,56.647896 L 166.51272,55.437218 L -6.219758,53.29804 L 83.715219,-100.05255 L 171.93404,-248.57368 L 259.77206,-94.012408 L 344.28572,56.647896 z"
             inkscape:randomized="0"
             inkscape:rounded="0"
             inkscape:flatsided="false"
             sodipodi:arg2="1.6050908"
             sodipodi:arg1="0.5331557"
             sodipodi:r2="101.70627"
             sodipodi:r1="202.37367"
             sodipodi:cy="-46.209248"
             sodipodi:cx="170"
             sodipodi:sides="3"
             id="path24206"
             style="fill:#0000ff;stroke-width:5;stroke-miterlimit:4;stroke-dasharray:none"
             sodipodi:type="star" />
          <path
             d="M 27.980042,948.44155 C 64.025092,950.1969 100.12003,950.6385 136.19739,951.262 C 220.4897,954.5154 304.80227,956.8975 389.15102,957.8999 L 380.91813,963.8526 C 296.25121,960.935 211.54946,958.5999 126.83048,958.0675 C 88.165042,958.7054 49.486772,959.1992 10.848982,960.888 L 27.980042,948.44155 z"
             id="path24208"
             style="fill:#0000ff;stroke-width:5;stroke-miterlimit:4;stroke-dasharray:none" />
        </g>
      </g>
      <text
         id="text24212"
         y="810.69366"
         x="74.993851"
         style="font-size:11.62317371px;font-style:normal;font-weight:normal;fill:#000000;fill-opacity:1;stroke:none;stroke-width:1px;stroke-linecap:butt;stroke-linejoin:miter;stroke-opacity:1;font-family:Bitstream Vera Sans"
         xml:space="preserve"><tspan
           y="810.69366"
           x="74.993851"
           id="tspan24214"
           sodipodi:role="line">delta</tspan></text>
      <text
         id="text24216"
         y="805.21802"
         x="129.14366"
         style="font-size:11.62317371px;font-style:normal;font-weight:normal;fill:#000000;fill-opacity:1;stroke:none;stroke-width:1px;stroke-linecap:butt;stroke-linejoin:miter;stroke-opacity:1;font-family:Bitstream Vera Sans"
         xml:space="preserve"><tspan
           y="805.21802"
           x="129.14366"
           id="tspan24218"
           sodipodi:role="line">delta</tspan></text>
      <text
         id="text24220"
         y="799.93628"
         x="175.92418"
         style="font-size:11.62317371px;font-style:normal;font-weight:normal;fill:#000000;fill-opacity:1;stroke:none;stroke-width:1px;stroke-linecap:butt;stroke-linejoin:miter;stroke-opacity:1;font-family:Bitstream Vera Sans"
         xml:space="preserve"><tspan
           y="799.93628"
           x="175.92418"
           id="tspan24222"
           sodipodi:role="line">delta</tspan></text>
      <text
         id="text24224"
         y="805.21802"
         x="225.72282"
         style="font-size:11.62317371px;font-style:normal;font-weight:normal;fill:#000000;fill-opacity:1;stroke:none;stroke-width:1px;stroke-linecap:butt;stroke-linejoin:miter;stroke-opacity:1;font-family:Bitstream Vera Sans"
         xml:space="preserve"><tspan
           y="805.21802"
           x="225.72282"
           id="tspan24226"
           sodipodi:role="line">delta</tspan></text>
      <text
         id="text24228"
         y="811.25421"
         x="273.25787"
         style="font-size:11.62317371px;font-style:normal;font-weight:normal;fill:#000000;fill-opacity:1;stroke:none;stroke-width:1px;stroke-linecap:butt;stroke-linejoin:miter;stroke-opacity:1;font-family:Bitstream Vera Sans"
         xml:space="preserve"><tspan
           y="811.25421"
           x="273.25787"
           id="tspan24230"
           sodipodi:role="line">delta</tspan></text>
      <text
         id="text24232"
         y="818.04492"
         x="317.77481"
         style="font-size:11.62317371px;font-style:normal;font-weight:normal;fill:#000000;fill-opacity:1;stroke:none;stroke-width:1px;stroke-linecap:butt;stroke-linejoin:miter;stroke-opacity:1;font-family:Bitstream Vera Sans"
         xml:space="preserve"><tspan
           y="818.04492"
           x="317.77481"
           id="tspan24234"
           sodipodi:role="line">delta</tspan></text>
      <text
         id="text24236"
         y="818.04492"
         x="27.28282"
         style="font-size:11.62317371px;font-style:normal;font-weight:normal;fill:#000000;fill-opacity:1;stroke:none;stroke-width:1px;stroke-linecap:butt;stroke-linejoin:miter;stroke-opacity:1;font-family:Bitstream Vera Sans"
         xml:space="preserve"><tspan
           y="818.04492"
           x="27.28282"
           id="tspan24238"
           sodipodi:role="line">delta</tspan></text>
      <g
         transform="translate(29.40135,-132.83247)"
         id="g24242">
        <path
           sodipodi:type="star"
           style="fill:#000000;fill-opacity:1;stroke:#001e16;stroke-width:17.71653557;stroke-miterlimit:4;stroke-dasharray:none;stroke-dashoffset:0;stroke-opacity:1"
           id="path24210"
           sodipodi:sides="3"
           sodipodi:cx="-111.65474"
           sodipodi:cy="170.07874"
           sodipodi:r1="8.2112398"
           sodipodi:r2="4.1266956"
           sodipodi:arg1="0.32175055"
           sodipodi:arg2="1.3689481"
           inkscape:flatsided="false"
           inkscape:rounded="0"
           inkscape:randomized="0"
           d="M -103.86487,172.67536 L -110.82742,174.12165 L -117.79841,175.52665 L -115.56967,168.77376 L -113.30093,162.0342 L -108.56713,167.3408 L -103.86487,172.67536 z"
           transform="matrix(0.5323697,-0.2330835,0.2330835,0.5323697,272.85581,858.78092)" />
        <g
           id="g24106"
           transform="matrix(0.1880831,0,0,0.1880831,171.20809,1018.2882)">
          <g
             transform="translate(242.43661,121.21829)"
             id="g5375">
            <g
               id="g5359">
              <path
                 id="path5357"
                 d="M -638.41641,-329.52649 C -661.22677,-326.59398 -679.82264,-322.4454 -694.98495,-337.60771 C -698.53719,-341.15996 -684.74091,-398.78695 -682.86312,-406.29809 C -677.59197,-427.38268 -682.86312,-457.05434 -682.86312,-479.02907 C -682.86312,-503.27273 -682.86312,-527.51639 -682.86312,-551.76005 C -682.86312,-583.21753 -683.68027,-615.5475 -678.82251,-644.69409 C -671.91047,-686.16635 -674.7819,-735.58098 -674.7819,-778.03422 C -674.7819,-803.89873 -678.82251,-831.65692 -678.82251,-858.84643 C -678.82251,-881.12686 -675.86729,-902.99217 -670.74129,-923.49619 C -662.37934,-956.94399 -664.89777,-959.86168 -626.29458,-959.86168 C -588.9833,-959.86168 -551.70866,-960.48616 -521.23871,-951.78046 C -495.7011,-944.484 -455.37642,-951.78046 -428.30468,-951.78046 C -397.62973,-951.78046 -369.85929,-955.82107 -339.41125,-955.82107 C -301.13093,-955.82107 -272.70729,-963.90229 -234.35539,-963.90229 C -200.8333,-963.90229 -174.12409,-971.98351 -141.42136,-971.98351 C -112.74085,-971.98351 -73.049722,-965.58228 -44.446712,-959.86168 C -11.816391,-953.33562 -4.0406102,-936.87344 -4.0406102,-903.29314 C -4.0406102,-883.10836 -0.72614988,-853.66981 4.0406102,-834.60277 C 9.7417708,-811.79812 7.6473898,-788.2846 12.121831,-765.91239 C 17.025686,-741.39312 16.162441,-715.52139 16.162441,-689.1408 C 16.162441,-662.68288 8.0812208,-636.74439 8.0812208,-608.3286 C 8.0812208,-576.00372 8.0812208,-543.67883 8.0812208,-511.35395 C 8.0812208,-479.02907 8.0812208,-446.70419 8.0812208,-414.37931 C 8.0812208,-389.39102 12.121831,-360.90894 12.121831,-333.5671 C 12.121831,-305.0696 -18.871403,-313.36405 -40.406102,-313.36405 C -49.368713,-313.36405 -56.568542,-387.87895 -56.568542,-398.21687 C -56.568542,-422.71053 -58.314202,-447.80277 -52.527932,-470.94785 C -47.240345,-492.0982 -48.487322,-517.62212 -48.487322,-539.63822 C -48.487322,-561.55812 -44.446712,-581.11082 -44.446712,-604.28799 C -44.446712,-626.95044 -40.406102,-652.15082 -40.406102,-677.01897 C -40.406102,-700.51543 -43.038275,-727.95377 -48.487322,-749.74995 C -55.140896,-776.36425 -56.568542,-800.97098 -56.568542,-830.56216 C -56.568542,-850.76521 -56.568542,-870.96826 -56.568542,-891.17131 C -56.568542,-913.67974 -95.243603,-903.29314 -121.21831,-903.29314 C -150.53218,-903.29314 -176.22071,-911.37436 -202.03051,-911.37436 C -235.0919,-911.37436 -263.5152,-915.41497 -294.96454,-915.41497 C -320.07196,-915.41497 -348.72686,-913.08607 -371.73614,-907.33375 C -394.47472,-901.6491 -420.32631,-903.29314 -444.46712,-903.29314 C -449.8546,-903.29314 -455.24208,-903.29314 -460.62956,-903.29314 C -481.78047,-903.29314 -506.60693,-907.33375 -529.31993,-907.33375 C -560.80021,-907.33375 -587.82821,-911.37436 -618.21336,-911.37436 C -636.78215,-911.37436 -642.45702,-857.64351 -642.45702,-842.68399 C -642.45702,-820.71886 -638.60218,-799.16613 -634.3758,-778.03422 C -630.40841,-758.19727 -634.3758,-733.72742 -634.3758,-713.38446 C -634.3758,-690.14869 -632.93134,-666.63437 -638.41641,-644.69409 C -644.20804,-621.52757 -646.49763,-597.29874 -646.49763,-571.96311 C -646.49763,-546.37257 -646.49763,-520.78204 -646.49763,-495.19151 C -646.49763,-469.54516 -652.8021,-447.6784 -646.49763,-422.46053 C -640.48185,-398.3974 -645.26139,-379.58196 -634.3758,-357.81077 C -631.5091,-352.07737 -637.79126,-332.0271 -638.41641,-329.52649 z"
                 style="fill:#ffb380;fill-rule:evenodd;stroke:#000000;stroke-width:1px;stroke-linecap:butt;stroke-linejoin:miter;stroke-opacity:1" />
              <path
                 id="path5341"
                 d="M -353.03766,-919.53056 C -353.20352,-898.27122 -347.51537,-860.65482 -347.51537,-826.54369 C -347.51537,-794.17723 -342.02076,-765.73798 -347.51537,-733.55684 C -352.25285,-705.81007 -352.15376,-679.38429 -355.7988,-652.69871 C -359.1403,-628.23539 -333.6019,-636.52708 -322.66507,-636.52708 C -300.89627,-636.52708 -295.04036,-632.56191 -289.53134,-664.82743 C -285.67882,-687.39109 -285.86912,-716.15062 -289.53134,-737.59975 C -293.63256,-761.61999 -295.05363,-786.04145 -295.05363,-810.37207 C -295.05363,-842.95681 -295.90341,-875.67886 -292.29248,-907.40184 C -288.10251,-944.21195 -296.8106,-939.74509 -319.90392,-939.74509 C -335.53671,-939.74509 -345.81651,-940.67717 -353.03766,-919.53056 z"
                 style="fill:#ffb380;fill-rule:evenodd;stroke:#000000;stroke-width:0.82688373px;stroke-linecap:butt;stroke-linejoin:miter;stroke-opacity:1" />
              <path
                 id="path5349"
                 d="M -345.93957,-620.50349 C -346.09267,-621.4996 -310.11319,-611.59558 -298.60889,-606.91735 C -296.93539,-606.23681 -298.60889,-541.13228 -298.60889,-534.45789 C -298.60889,-509.23573 -303.34823,-476.44953 -306.96136,-452.94101 C -309.99655,-433.19282 -306.96136,-405.48667 -306.96136,-385.01027 C -306.96136,-349.67748 -314.3776,-357.83797 -334.80294,-357.83797 C -352.24404,-357.83797 -364.46029,-365.12344 -368.21283,-389.53899 C -371.67739,-412.08085 -365.35222,-449.03404 -362.64452,-471.05587 C -359.26137,-498.57099 -361.40141,-528.95986 -357.0762,-557.10147 C -353.30696,-581.62566 -355.03142,-595.85545 -345.93957,-620.50349 z"
                 style="fill:#ff9955;fill-rule:evenodd;stroke:#000000;stroke-width:0.87879479px;stroke-linecap:butt;stroke-linejoin:miter;stroke-opacity:1" />
              <path
                 id="path5345"
                 d="M -606.16825,-658.21245 C -591.71652,-652.34958 -485.5481,-660.94527 -452.58087,-660.94527 C -389.00497,-660.94527 -324.83011,-658.21245 -262.61754,-658.21245 C -223.78512,-658.21245 -178.01105,-656.2086 -141.36435,-650.01399 C -112.81047,-645.18736 -77.817955,-652.74681 -48.403564,-652.74681 C -24.639142,-652.74681 -32.236473,-630.65368 -32.236473,-617.22015 C -32.236473,-595.05178 -49.44554,-594.12355 -80.737749,-589.89195 C -120.98304,-584.44963 -178.5015,-583.18857 -218.15803,-589.89195 C -257.937,-596.61602 -312.98418,-595.35759 -351.53654,-595.35759 C -391.72992,-595.35759 -431.69869,-598.09041 -472.78974,-598.09041 C -499.73489,-598.09041 -526.68004,-598.09041 -553.62519,-598.09041 C -580.00462,-598.09041 -603.68489,-595.35759 -630.41889,-595.35759 C -654.90579,-595.35759 -646.58598,-614.89464 -646.58598,-628.15143 C -646.58598,-655.16124 -641.74173,-648.59133 -606.16825,-658.21245 z"
                 style="fill:#ffccaa;fill-rule:evenodd;stroke:#000000;stroke-width:0.82251632px;stroke-linecap:butt;stroke-linejoin:miter;stroke-opacity:1" />
              <path
                 id="path5355"
                 d="M -646.49763,-341.64832 C -657.15879,-355.86321 -662.59872,-288.87498 -658.61946,-272.95795 C -655.02538,-258.58165 -600.46982,-264.87673 -589.92909,-264.87673 C -555.37408,-264.87673 -512.15772,-272.95795 -472.75139,-272.95795 C -425.06169,-272.95795 -378.72879,-268.91734 -331.33003,-268.91734 C -310.20531,-268.91734 -276.09034,-262.17849 -254.55844,-256.79551 C -232.54283,-251.29161 -200.26128,-256.79551 -177.78685,-256.79551 C -154.89006,-256.79551 -131.99327,-256.79551 -109.09647,-256.79551 C -86.179304,-256.79551 -63.030577,-267.70663 -44.446712,-276.99856 C -15.284397,-291.57972 -5.8877745,-304.93655 -20.203051,-333.5671 C -30.616898,-354.3948 -73.54545,-345.68893 -92.934034,-345.68893 C -167.34143,-345.68893 -237.90646,-333.5671 -311.12698,-333.5671 C -344.79873,-333.5671 -378.47049,-333.5671 -412.14224,-333.5671 C -447.16086,-333.5671 -482.17948,-333.5671 -517.1981,-333.5671 C -555.13866,-333.5671 -587.14633,-345.68893 -626.29458,-345.68893 C -633.16229,-345.68893 -639.76328,-342.99519 -646.49763,-341.64832 z"
                 style="fill:#803300;fill-rule:evenodd;stroke:#000000;stroke-width:1px;stroke-linecap:butt;stroke-linejoin:miter;stroke-opacity:1" />
              <path
                 id="path5351"
                 d="M -662.66007,-382.05443 C -615.45236,-373.65702 -528.61069,-390.13565 -468.71078,-390.13565 C -429.65155,-390.13565 -390.59232,-390.13565 -351.53309,-390.13565 C -300.7436,-390.13565 -246.28604,-386.09504 -193.94929,-386.09504 C -145.46197,-386.09504 -96.974644,-386.09504 -48.487322,-386.09504 C -26.536918,-386.09504 -24.243661,-343.72542 -24.243661,-329.52649 C -24.243661,-296.70139 -56.608118,-311.32396 -84.852814,-297.20161 C -106.53111,-286.36246 -172.04674,-293.161 -197.9899,-293.161 C -237.06761,-293.161 -281.76859,-285.07978 -323.24881,-285.07978 C -357.04294,-285.07978 -385.29175,-297.20161 -420.22346,-297.20161 C -454.87339,-297.20161 -487.46923,-297.20161 -521.23871,-297.20161 C -550.86985,-297.20161 -580.501,-297.20161 -610.13214,-297.20161 C -637.34978,-297.20161 -653.54301,-307.94232 -666.70068,-325.48588 C -677.87016,-340.37853 -668.22003,-368.15452 -662.66007,-382.05443 z"
                 style="fill:#ffb380;fill-rule:evenodd;stroke:#000000;stroke-width:1px;stroke-linecap:butt;stroke-linejoin:miter;stroke-opacity:1" />
            </g>
            <path
               style="fill:none;fill-rule:evenodd;stroke:#00e9bb;stroke-width:1px;stroke-linecap:butt;stroke-linejoin:miter;stroke-opacity:1"
               d="M -606.09153,-802.27789 C -570.90124,-821.27914 -492.35057,-866.92765 -436.3859,-866.92765 C -391.13026,-866.92765 -476.72023,-778.07011 -517.1981,-757.83118 C -596.7478,-718.05633 -513.99748,-721.46569 -472.75139,-721.46569 C -463.71631,-721.46569 -456.58895,-729.54691 -448.50773,-733.58752"
               id="path5367" />
            <path
               style="fill:none;fill-rule:evenodd;stroke:#00e8e4;stroke-width:1px;stroke-linecap:butt;stroke-linejoin:miter;stroke-opacity:1"
               d="M -254.55844,-818.44033 C -228.65906,-818.44033 -171.39447,-840.33222 -153.54319,-822.48094 C -143.07674,-812.01449 -196.85715,-747.48445 -189.90868,-733.58752 C -188.64785,-731.06586 -153.67305,-733.58752 -149.50258,-733.58752"
               id="path5369" />
            <path
               style="fill:none;fill-rule:evenodd;stroke:#00f6d1;stroke-width:1px;stroke-linecap:butt;stroke-linejoin:miter;stroke-opacity:1"
               d="M -238.396,-523.47579 C -227.19386,-501.0715 -54.948123,-625.30473 -161.62441,-483.06968 C -215.48558,-411.25478 -32.749379,-506.88885 -84.852814,-454.78541 C -119.36322,-420.27501 -93.229323,-426.50114 -76.771593,-426.50114"
               id="path5371" />
            <path
               style="fill:none;fill-rule:evenodd;stroke:#00b1a9;stroke-width:1px;stroke-linecap:butt;stroke-linejoin:miter;stroke-opacity:1"
               d="M -589.92909,-523.47579 C -595.12436,-518.28051 -529.84808,-555.80067 -452.54834,-555.80067 C -412.51765,-555.80067 -525.03665,-479.02907 -412.14224,-479.02907 C -318.9084,-479.02907 -431.51534,-422.46053 -375.77675,-422.46053"
               id="path5373" />
          </g>
        </g>
        <path
           style="fill:none;fill-rule:evenodd;stroke:#000000;stroke-width:10.29611874;stroke-linecap:butt;stroke-linejoin:miter;stroke-miterlimit:4;stroke-dasharray:none;stroke-opacity:1"
           d="M 71.912437,970.02763 C 138.83744,983.01073 247.71668,976.06383 247.71668,976.06383"
           id="path24240"
           sodipodi:nodetypes="cc" />
      </g>
    </g>
    <text
       xml:space="preserve"
       style="font-size:24px;font-style:normal;font-weight:bold;writing-mode:lr-tb;fill:#000000;fill-opacity:1;stroke:none;stroke-width:1px;stroke-linecap:butt;stroke-linejoin:miter;stroke-opacity:1;font-family:Sans;-inkscape-font-specification:Sans"
       x="464.79532"
       y="60.371456"
       id="text7449"
       transform="translate(-4.149475e-6,698.0315)"><tspan
         sodipodi:role="line"
         id="tspan7451"
         x="464.79532"
         y="60.371456">[X] trends</tspan><tspan
         sodipodi:role="line"
         x="464.79532"
         y="90.37146"
         id="tspan7453">[ ] visualize trends</tspan><tspan
         sodipodi:role="line"
         x="464.79532"
         y="120.37146"
         id="tspan7455">[X] windowing</tspan><tspan
         sodipodi:role="line"
         x="464.79532"
         y="150.37146"
         id="tspan7457">[X] local global</tspan><tspan
         sodipodi:role="line"
         x="464.79532"
         y="150.37146"
         id="tspan7459" /></text>
    <text
       id="text7533"
       y="974.40942"
       x="233.85826"
       style="font-size:24px;font-style:normal;font-weight:bold;writing-mode:lr-tb;fill:#000000;fill-opacity:1;stroke:none;stroke-width:1px;stroke-linecap:butt;stroke-linejoin:miter;stroke-opacity:1;font-family:Sans;-inkscape-font-specification:Sans"
       xml:space="preserve"><tspan
         y="974.40942"
         x="233.85826"
         id="tspan7535"
         sodipodi:role="line">vs</tspan></text>
  </g>
</svg>
