<?xml version="1.0" encoding="UTF-8" standalone="no"?>
<!-- Created with Inkscape (http://www.inkscape.org/) -->
<svg
   xmlns:dc="http://purl.org/dc/elements/1.1/"
   xmlns:cc="http://creativecommons.org/ns#"
   xmlns:rdf="http://www.w3.org/1999/02/22-rdf-syntax-ns#"
   xmlns:svg="http://www.w3.org/2000/svg"
   xmlns="http://www.w3.org/2000/svg"
   xmlns:sodipodi="http://sodipodi.sourceforge.net/DTD/sodipodi-0.dtd"
   xmlns:inkscape="http://www.inkscape.org/namespaces/inkscape"
   width="453.5433"
   height="340.15747"
   id="svg2"
   sodipodi:version="0.32"
   inkscape:version="0.46"
   sodipodi:docname="slide360-observation-power-law-implications.svg"
   version="1.0"
   inkscape:output_extension="org.inkscape.output.svg.inkscape">
  <defs
     id="defs4">
    <inkscape:perspective
       sodipodi:type="inkscape:persp3d"
       inkscape:vp_x="0 : 170.07874 : 1"
       inkscape:vp_y="0 : 1000 : 0"
       inkscape:vp_z="453.5433 : 170.07874 : 1"
       inkscape:persp3d-origin="226.77165 : 113.38582 : 1"
       id="perspective7767" />
  </defs>
  <sodipodi:namedview
     id="base"
     pagecolor="#ffffff"
     bordercolor="#666666"
     borderopacity="1.0"
     gridtolerance="10000"
     guidetolerance="8.8"
     objecttolerance="10"
     inkscape:pageopacity="0.0"
     inkscape:pageshadow="2"
     inkscape:zoom="1.0892718"
     inkscape:cx="206.25772"
     inkscape:cy="170.07874"
     inkscape:document-units="mm"
     inkscape:current-layer="layer1"
     inkscape:window-width="1024"
     inkscape:window-height="768"
     inkscape:window-x="0"
     inkscape:window-y="0"
     width="12.8cm"
     height="9.6cm"
     units="cm"
     showgrid="false"
     grid_units="mm"
     inkscape:object-paths="false"
     inkscape:grid-points="true"
     inkscape:grid-bbox="true"
     inkscape:guide-points="true"
     showguides="true"
     inkscape:guide-bbox="true">
    <sodipodi:guide
       orientation="vertical"
       position="56.476527"
       id="guide3573" />
    <sodipodi:guide
       orientation="horizontal"
       position="11.035643"
       id="guide3579" />
    <sodipodi:guide
       orientation="horizontal"
       position="24.018753"
       id="guide3886" />
    <sodipodi:guide
       orientation="horizontal"
       position="348.59649,29.211997"
       id="guide3988" />
    <sodipodi:guide
       orientation="horizontal"
       position="303.15561"
       id="guide4081" />
    <inkscape:grid
       id="GridFromPre046Settings"
       type="xygrid"
       originx="0px"
       originy="0px"
       spacingx="2mm"
       spacingy="2mm"
       color="#0000ff"
       empcolor="#0000ff"
       opacity="0.2"
       empopacity="0.4"
       empspacing="5" />
  </sodipodi:namedview>
  <metadata
     id="metadata7">
    <rdf:RDF>
      <cc:Work
         rdf:about="">
        <dc:format>image/svg+xml</dc:format>
        <dc:type
           rdf:resource="http://purl.org/dc/dcmitype/StillImage" />
      </cc:Work>
    </rdf:RDF>
  </metadata>
  <g
     inkscape:label="Layer 1"
     inkscape:groupmode="layer"
     id="layer1"
     transform="translate(4.149475e-6,-698.0315)">
    <g
       id="g7626"
       transform="matrix(0.4847924,0,0,0.4847924,-1.1563739,409.4374)">
      <path
         d="M 95.134832,752.2639 C 94.620252,753.38164 94.471965,754.60408 94.351907,755.81471 C 94.221804,757.39605 94.225675,758.98401 94.230446,760.56945 C 94.316717,762.03789 94.160601,763.49275 94.029969,764.95247 C 93.87792,766.61586 93.820835,768.28421 93.782035,769.95326 C 93.761274,771.69729 93.809119,773.43803 93.660664,775.17724 C 93.535995,776.43745 93.434603,777.6997 93.38538,778.96517 C 93.335435,780.42459 93.324999,781.88471 93.318461,783.34484 C 93.279141,785.36668 93.271574,787.38427 93.421566,789.40137 C 93.602962,791.43543 93.650533,793.47509 93.835905,795.50867 C 93.979475,797.44962 94.168243,799.38387 94.377825,801.31858 C 94.513291,803.13317 94.664331,804.94371 94.847226,806.7543 C 95.029722,808.54029 95.068823,810.33553 95.112547,812.12886 C 95.116808,813.70728 95.329708,815.275 95.455997,816.84671 C 95.493725,818.32922 95.612776,819.79978 95.777792,821.27261 C 95.92096,822.86912 96.224129,824.44929 96.559926,826.0153 C 96.900567,827.7362 97.346548,829.44119 98.045142,831.05284 C 98.756748,832.70147 99.86943,834.10373 101.05682,835.43154 C 102.49035,836.97884 104.04109,838.41155 105.66861,839.75139 C 107.63689,841.34821 109.73735,842.77238 111.87001,844.13864 C 114.26084,845.65242 116.77032,846.95409 119.29623,848.22265 C 122.17632,849.59814 125.2098,850.61681 128.23996,851.60363 C 131.70735,852.70979 135.24189,853.58499 138.79142,854.38103 C 142.86288,855.25848 146.97653,855.92697 151.08564,856.60084 C 155.04208,857.22445 158.97014,858.00249 162.91138,858.71416 C 167.39074,859.53275 171.91961,860.05942 176.44473,860.5528 C 180.48742,861.05653 184.52717,861.58727 188.56582,862.1235 C 192.96666,862.61132 197.3162,863.45075 201.707,864.01887 C 206.0021,864.54467 210.28019,865.18939 214.563,865.8028 C 218.58739,866.35354 222.57473,867.12009 226.57419,867.82017 C 230.41808,868.5844 234.28862,869.18401 238.1637,869.76248 C 241.977,870.18347 245.78183,870.69114 249.59982,871.07092 C 253.33099,871.46321 257.0573,871.89822 260.78652,872.308 C 264.83242,872.81377 268.89898,873.15426 272.96531,873.44943 C 276.95825,873.7088 280.96039,873.76029 284.96039,873.78543 C 288.9603,873.80003 292.96022,873.78883 296.96015,873.79204 C 300.996,873.79548 305.0318,873.78985 309.06763,873.77906 C 312.92071,873.76932 316.77379,873.78432 320.62687,873.78539 C 324.69255,873.78327 328.75822,873.78317 332.82389,873.79654 C 337.24258,873.83474 341.6613,873.79188 346.08,873.78554 C 351.05876,873.80069 356.03733,873.87655 361.01552,873.78289 C 366.65049,873.6245 372.28677,873.52058 377.92302,873.42137 C 381.66254,873.3695 385.4016,873.30535 389.14145,873.29667 C 391.5862,873.30668 394.04087,873.26022 396.47561,873.03113 C 396.67266,873.03175 396.86972,873.03237 397.06677,873.033 L 391.70371,876.92881 C 391.52833,876.92913 391.35294,876.92944 391.17755,876.92976 C 388.77514,876.99265 386.37415,877.1054 383.96988,877.05461 C 380.29942,877.05147 376.62921,877.00862 372.9587,877.0374 C 367.33778,877.07475 361.71866,877.19048 356.10036,877.36855 C 351.06887,877.46901 346.03581,877.42999 341.00354,877.47381 C 336.59493,877.46745 332.18632,877.42452 327.77771,877.4628 C 323.70186,877.47605 319.626,877.47605 315.55014,877.47385 C 311.69089,877.47491 307.83164,877.4898 303.97238,877.48111 C 299.94423,877.47168 295.91613,877.46837 291.88797,877.47771 C 287.88878,877.48622 283.88951,877.48864 279.89038,877.46307 C 275.87874,877.42674 271.86341,877.40317 267.8608,877.09995 C 263.78274,876.78362 259.70602,876.41547 255.64139,875.95961 C 251.91569,875.53868 248.18984,875.12056 244.46153,874.7236 C 240.64203,874.31146 236.82833,873.84191 233.01392,873.38799 C 229.14532,872.8037 225.284,872.17999 221.4476,871.40801 C 217.45251,870.67857 213.4483,870.00712 209.42972,869.41938 C 205.17769,868.78172 200.92869,868.12417 196.66222,867.58705 C 192.24484,867.02962 187.86821,866.20022 183.43815,865.7475 C 179.4141,865.22355 175.39483,864.66391 171.36913,864.15388 C 166.82751,863.62256 162.28341,863.0728 157.77472,862.30718 C 153.83248,861.58939 149.89762,860.83851 145.93957,860.21172 C 141.83483,859.52053 137.73257,858.80361 133.65933,857.94392 C 130.05777,857.1803 126.47721,856.30399 122.96763,855.18522 C 119.9109,854.18136 116.86314,853.11569 113.95024,851.74129 C 111.39139,850.47711 108.874,849.14167 106.45867,847.61621 C 104.30316,846.22598 102.16404,844.80427 100.16093,843.19865 C 98.511916,841.83029 96.934673,840.38599 95.491425,838.79879 C 94.259311,837.41608 93.04242,835.9945 92.309653,834.27201 C 91.617554,832.61539 91.166025,830.86695 90.797693,829.11218 C 90.433482,827.53482 90.085164,825.94382 89.941384,824.32909 C 89.774572,822.84696 89.633068,821.37027 89.613776,819.87719 C 89.50999,818.28895 89.279674,816.70797 89.274218,815.11549 C 89.260293,813.33613 89.212419,811.55555 89.046555,809.78298 C 88.867849,807.97212 88.690582,806.16474 88.584041,804.34785 C 88.384217,802.40489 88.182879,800.46538 88.065842,798.51503 C 87.880466,796.48017 87.785035,794.4418 87.635145,792.40415 C 87.483705,790.37798 87.479671,788.35283 87.476347,786.32138 C 87.470451,784.86445 87.446723,783.40692 87.473304,781.95029 C 87.517641,780.66392 87.61609,779.3825 87.779948,778.10524 C 87.954129,776.37729 87.957481,774.64967 87.950939,772.91308 C 87.963482,771.23276 87.98269,769.54982 88.162899,767.87739 C 88.287053,766.43848 88.400919,765.00268 88.362876,763.55689 C 88.377267,761.95622 88.385185,760.35454 88.456372,758.75525 C 88.547064,757.51316 88.664848,756.26308 89.058804,755.07397 L 95.134832,752.2639 z"
         id="path6844"
         style="opacity:1;fill:#ffff00;fill-opacity:1;fill-rule:nonzero;stroke:#4234bf;stroke-width:2.77921128;stroke-linecap:butt;stroke-linejoin:miter;stroke-miterlimit:4;stroke-dasharray:none;stroke-dashoffset:0;stroke-opacity:1" />
      <path
         id="path6846"
         d="M 70.866138,752.56056 L 71.082524,894.29285 L 404.15339,894.29285"
         style="fill:none;fill-rule:evenodd;stroke:#000000;stroke-width:3.54330707;stroke-linecap:butt;stroke-linejoin:miter;stroke-miterlimit:4;stroke-dasharray:none;stroke-opacity:1" />
      <text
         id="text7618"
         y="931.88977"
         x="106.29921"
         style="font-size:24px;font-style:normal;font-weight:bold;writing-mode:lr-tb;fill:#000000;fill-opacity:1;stroke:none;stroke-width:1px;stroke-linecap:butt;stroke-linejoin:miter;stroke-opacity:1;font-family:Sans;-inkscape-font-specification:Sans"
         xml:space="preserve"><tspan
           y="931.88977"
           x="106.29921"
           id="tspan7620"
           sodipodi:role="line">Topic Frequency -&gt;</tspan></text>
      <text
         transform="matrix(0,-1,1,0,0,0)"
         id="text7622"
         y="56.909294"
         x="-858.85974"
         style="font-size:24px;font-style:normal;font-weight:bold;writing-mode:lr-tb;fill:#000000;fill-opacity:1;stroke:none;stroke-width:1px;stroke-linecap:butt;stroke-linejoin:miter;stroke-opacity:1;font-family:Sans;-inkscape-font-specification:Sans"
         xml:space="preserve"><tspan
           y="56.909294"
           x="-858.85974"
           id="tspan7624"
           sodipodi:role="line">Count</tspan></text>
    </g>
    <text
       xml:space="preserve"
       style="font-size:24px;font-style:normal;font-weight:bold;writing-mode:lr-tb;fill:#000000;fill-opacity:1;stroke:none;stroke-width:1px;stroke-linecap:butt;stroke-linejoin:miter;stroke-opacity:1;font-family:Sans;-inkscape-font-specification:Sans"
       x="56.476524"
       y="735.03339"
       id="text7634"><tspan
         sodipodi:role="line"
         id="tspan7636"
         x="56.476524"
         y="735.03339">Observations:</tspan></text>
    <g
       id="g3789"
       transform="matrix(0.1173245,0,0,0.1173245,395.95395,1329.2229)">
      <path
         id="path3791"
         d="M -421.69808,-4417.6956 C -417.72211,-4417.6956 -416.11815,-4284.8268 -405.48552,-4231.828 C -397.17406,-4190.3989 -499.50875,-4194.335 -527.07928,-4183.3408 C -585.59667,-4160.0062 -682.6316,-4175.2597 -745.94809,-4175.2597 C -813.02995,-4175.2597 -818.90435,-4195.3824 -818.90435,-4256.0716 C -818.90435,-4302.9866 -821.39788,-4351.1839 -810.7981,-4393.452 C -794.70858,-4457.6112 -791.85376,-4470.6773 -721.62934,-4482.3452 C -676.39304,-4489.8612 -583.99312,-4466.2506 -543.29184,-4450.0204 C -504.8998,-4434.7111 -464.32591,-4434.6941 -421.69808,-4417.6956 z"
         style="fill:#ffd42a;fill-rule:evenodd;stroke:#000000;stroke-width:1.00154614px;stroke-linecap:butt;stroke-linejoin:miter;stroke-opacity:1" />
      <path
         id="path3793"
         d="M -518.97305,-4328.8024 C -491.79914,-4317.9665 -478.4418,-4226.7827 -478.4418,-4183.3408 C -478.4418,-4153.5858 -628.69305,-4189.5441 -632.46058,-4191.422 C -673.27692,-4211.7672 -624.65669,-4304.2574 -608.14179,-4320.7212 C -587.24617,-4341.5523 -542.20549,-4333.4345 -518.97305,-4328.8024 z"
         style="fill:#222b00;fill-rule:evenodd;stroke:#000000;stroke-width:1.00154614px;stroke-linecap:butt;stroke-linejoin:miter;stroke-opacity:1" />
      <path
         id="path3795"
         d="M -656.77938,-4353.046 C -625.67603,-4384.0532 -710.06761,-4264.1528 -754.05434,-4264.1528 C -814.7468,-4264.1528 -750.78555,-4372.4671 -737.84184,-4385.3708 C -711.09941,-4412.0306 -663.36952,-4366.1857 -656.77938,-4353.046 z"
         style="fill:#ddff55;fill-rule:evenodd;stroke:#000000;stroke-width:1.00154614px;stroke-linecap:butt;stroke-linejoin:miter;stroke-opacity:1" />
      <path
         id="path3797"
         d="M -364.95427,-4445.9797 C -325.57748,-4436.166 -456.44658,-4504.8645 -527.07928,-4575.279 C -577.69498,-4625.7382 -600.49859,-4682.1809 -616.24802,-4744.9841 C -622.21956,-4768.7964 -686.53997,-4629.0784 -705.41684,-4591.4413 C -734.27665,-4533.9001 -771.31058,-4516.6781 -827.0106,-4494.467 C -891.80321,-4468.63 -777.24785,-4421.1753 -729.73559,-4397.4926 C -687.22278,-4376.3019 -626.99862,-4381.3302 -575.71677,-4381.3302 C -507.88622,-4381.3302 -472.76537,-4405.5737 -405.48552,-4405.5737 C -373.51731,-4405.5737 -392.05344,-4400.9541 -364.95427,-4445.9797 z"
         style="fill:#6c6753;fill-rule:evenodd;stroke:#000000;stroke-width:1.00154614px;stroke-linecap:butt;stroke-linejoin:miter;stroke-opacity:1" />
    </g>
    <g
       id="g3799"
       transform="matrix(0.1173245,0,0,0.1173245,408.27955,1351.978)">
      <path
         id="path3801"
         d="M 101.89206,-4684.5406 C 112.42512,-4661.3086 107.07354,-4571.6853 107.07354,-4524.5406 C 107.07354,-4493.259 101.89206,-4469.3337 101.89206,-4438.8263 C 101.89206,-4378.3827 54.479276,-4386.1839 8.6241385,-4398.8263 C -36.767367,-4411.3409 -98.334035,-4398.8263 -146.82234,-4398.8263 C -180.4942,-4398.8263 -207.46855,-4404.5406 -240.09018,-4404.5406 C -254.66716,-4404.5406 -277.27242,-4499.9896 -281.54258,-4518.8263 C -291.47245,-4562.6296 -279.83568,-4583.4987 -271.17946,-4621.6835 C -264.21491,-4652.406 -258.26241,-4687.3571 -240.09018,-4707.3978 C -214.54009,-4735.5748 -212.76246,-4783.2494 -188.27466,-4810.2549 C -165.92873,-4834.8984 -158.63249,-4860.0876 -136.45922,-4884.5406 C -120.97139,-4901.6208 -104.11298,-4926.3889 -89.825258,-4947.3978 C -64.809169,-4984.182 -39.698323,-4955.5949 -22.46514,-4930.2549 C -3.2061401,-4901.9361 9.7692089,-4867.6188 29.350385,-4838.8263 C 47.045295,-4812.8073 53.151582,-4780.6154 65.621225,-4753.1121 C 77.932636,-4725.9576 82.62844,-4711.0959 101.89206,-4684.5406 z"
         style="fill:#6f918a;fill-rule:evenodd;stroke:#000000;stroke-width:0.95224524px;stroke-linecap:butt;stroke-linejoin:miter;stroke-opacity:1" />
      <path
         id="path3803"
         d="M 117.43666,-4633.1121 C 121.35028,-4650.3762 -12.013788,-4844.3459 -32.828263,-4890.2549 C -68.006172,-4967.8444 -53.554418,-4911.7979 -53.554418,-4850.2549 C -53.554418,-4825.825 -76.456008,-4771.1711 -84.643697,-4753.1121 C -102.18863,-4714.4145 -112.93078,-4673.423 -136.45922,-4638.8263 C -168.02519,-4592.4111 -208.94568,-4614.4949 -245.27174,-4644.5406 C -276.89103,-4670.6933 -331.50022,-4686.0772 -291.9057,-4718.8263 C -255.2435,-4749.15 -222.90823,-4783.4892 -188.27466,-4821.6835 C -158.20014,-4854.8501 -151.58244,-4909.2567 -141.64078,-4953.1121 C -132.46571,-4993.5856 -137.49666,-5009.6829 -105.36994,-5027.3978 C -83.84728,-5039.2655 -48.705279,-4985.9817 -38.009825,-4970.2549 C -18.693517,-4941.8519 -0.34346401,-4910.0342 13.8057,-4878.8263 C 27.323479,-4849.0111 37.092214,-4821.7506 50.07654,-4793.1121 C 63.778666,-4762.8903 78.497917,-4736.1393 91.528942,-4707.3978 C 107.82307,-4671.4589 126.75047,-4684.4691 117.43666,-4633.1121 z"
         style="fill:#ff5599;fill-rule:evenodd;stroke:#000000;stroke-width:0.95224524px;stroke-linecap:butt;stroke-linejoin:miter;stroke-opacity:1" />
      <path
         id="path3805"
         d="M 24.168823,-4695.9692 C 6.4453491,-4751.1985 -36.437302,-4750.3544 -48.372857,-4684.5406 C -55.17101,-4647.0552 -17.971636,-4661.6835 13.8057,-4661.6835 C 41.843785,-4661.6835 36.688792,-4661.4512 24.168823,-4695.9692 z"
         style="fill:#2b0000;fill-rule:evenodd;stroke:#000000;stroke-width:0.95224524px;stroke-linecap:butt;stroke-linejoin:miter;stroke-opacity:1" />
      <path
         id="path3807"
         d="M -6.9204554,-4404.5406 C 14.84894,-4404.5406 -27.321171,-4529.537 -38.009825,-4553.1121 C -68.798871,-4621.0213 -136.46004,-4495.9673 -146.82234,-4473.1121 C -150.27669,-4465.493 -153.73103,-4457.874 -157.18538,-4450.2549 C -186.33652,-4385.9583 -90.265133,-4398.8263 -63.917542,-4398.8263 C -33.082975,-4398.8263 -44.620367,-4390.682 -6.9204554,-4404.5406 z"
         style="fill:#2b0000;fill-rule:evenodd;stroke:#000000;stroke-width:0.95224524px;stroke-linecap:butt;stroke-linejoin:miter;stroke-opacity:1" />
    </g>
    <g
       id="g3809"
       transform="matrix(0.1173245,0,0,0.1173245,498.35145,1274.2317)">
      <path
         id="path3811"
         d="M -816.20326,-3820.6137 C -820.16694,-3820.6137 -821.76592,-3687.7445 -832.3657,-3634.7456 C -840.65154,-3593.3164 -738.6328,-3597.2525 -711.14739,-3586.2583 C -652.81072,-3562.9236 -556.07542,-3578.1771 -492.95444,-3578.1771 C -426.07972,-3578.1771 -420.22346,-3598.2999 -420.22346,-3658.9893 C -420.22346,-3705.9044 -417.73763,-3754.1018 -428.30468,-3796.37 C -444.34452,-3860.5294 -447.19052,-3873.5955 -517.1981,-3885.2635 C -562.29468,-3892.7795 -654.4093,-3869.1688 -694.98495,-3852.9386 C -733.25843,-3837.6292 -773.70702,-3837.6122 -816.20326,-3820.6137 z"
         style="fill:#e9afaf;fill-rule:evenodd;stroke:#000000;stroke-width:1px;stroke-linecap:butt;stroke-linejoin:miter;stroke-opacity:1" />
      <path
         id="path3813"
         d="M -719.22861,-3731.7203 C -746.31865,-3720.8843 -759.63471,-3629.7003 -759.63471,-3586.2583 C -759.63471,-3556.5032 -609.84737,-3592.4616 -606.09153,-3594.3395 C -565.40122,-3614.6847 -613.87135,-3707.1752 -630.33519,-3723.639 C -651.16633,-3744.4702 -696.06794,-3736.3524 -719.22861,-3731.7203 z"
         style="fill:#c87137;fill-rule:evenodd;stroke:#000000;stroke-width:1px;stroke-linecap:butt;stroke-linejoin:miter;stroke-opacity:1" />
      <path
         id="path3815"
         d="M -581.84786,-3755.9639 C -612.85514,-3786.9712 -528.72413,-3667.0705 -484.87322,-3667.0705 C -424.36817,-3667.0705 -488.13192,-3775.3851 -501.03566,-3788.2888 C -527.69552,-3814.9487 -575.27797,-3769.1037 -581.84786,-3755.9639 z"
         style="fill:#2b1100;fill-rule:evenodd;stroke:#000000;stroke-width:1px;stroke-linecap:butt;stroke-linejoin:miter;stroke-opacity:1" />
      <path
         id="path3817"
         d="M -872.7718,-3848.8979 C -912.02698,-3839.0841 -781.56206,-3907.7828 -711.14739,-3978.1975 C -660.68801,-4028.6568 -637.95482,-4085.0997 -622.25397,-4147.9031 C -616.30088,-4171.7154 -552.17915,-4031.9971 -533.36054,-3994.3599 C -504.58984,-3936.8185 -467.67027,-3919.5965 -412.14224,-3897.3853 C -347.5497,-3871.5482 -461.75133,-3824.0934 -509.11688,-3800.4106 C -551.4984,-3779.2199 -611.53666,-3784.2482 -662.66007,-3784.2482 C -730.28121,-3784.2482 -765.29366,-3808.4918 -832.3657,-3808.4918 C -864.23521,-3808.4918 -845.7563,-3803.8721 -872.7718,-3848.8979 z"
         style="fill:#ff0000;fill-rule:evenodd;stroke:#000000;stroke-width:1px;stroke-linecap:butt;stroke-linejoin:miter;stroke-opacity:1" />
    </g>
    <g
       id="g3819"
       transform="matrix(0.1173245,0,0,0.1173245,520.15825,1270.4392)">
      <path
         id="path3821"
         d="M -1527.3506,-3933.7508 C -1579.7839,-3973.0757 -1559.6755,-3805.343 -1559.6755,-3739.8015 C -1559.6755,-3668.0814 -1625.4762,-3578.7525 -1543.5131,-3537.771 C -1502.5011,-3517.265 -1413.9216,-3529.6898 -1365.7262,-3529.6898 C -1290.5579,-3529.6898 -1198.9123,-3534.4197 -1139.4521,-3570.0959 C -1098.4077,-3594.7225 -1114.482,-3736.896 -1123.2896,-3772.1264 C -1137.4791,-3828.8843 -1145.1519,-3888.5818 -1163.6957,-3925.6696 C -1183.0361,-3964.3504 -1242.044,-3974.1569 -1284.914,-3974.1569 C -1332.5408,-3974.1569 -1381.383,-3986.4051 -1430.376,-3974.1569 C -1465.1236,-3965.47 -1487.4424,-3941.7324 -1527.3506,-3933.7508 z"
         style="fill:#552200;fill-rule:evenodd;stroke:#000000;stroke-width:1px;stroke-linecap:butt;stroke-linejoin:miter;stroke-opacity:1" />
      <path
         id="path3823"
         d="M -1373.8075,-3521.6085 C -1393.7193,-3516.6306 -1389.9699,-3643.1737 -1389.9699,-3675.1517 C -1389.9699,-3737.5978 -1312.9222,-3750.8441 -1268.7516,-3739.8015 C -1221.8331,-3728.0719 -1212.1831,-3658.8607 -1212.1831,-3618.5832 C -1212.1831,-3561.7932 -1187.3646,-3545.9959 -1252.5892,-3529.6898 C -1290.1908,-3520.2893 -1334.3675,-3521.6085 -1373.8075,-3521.6085 z"
         style="fill:#ffcc00;fill-rule:evenodd;stroke:#000000;stroke-width:1px;stroke-linecap:butt;stroke-linejoin:miter;stroke-opacity:1" />
      <path
         id="path3825"
         d="M -1389.9699,-4143.8625 C -1443.1031,-4166.0321 -1491.7898,-4122.8548 -1543.5131,-4071.1315 C -1588.4842,-4026.1604 -1615.4828,-3983.7607 -1640.4877,-3933.7508 C -1663.2711,-3888.1841 -1668.1006,-3849.7403 -1616.2441,-3836.7761 C -1566.1547,-3824.2538 -1519.2017,-3820.6137 -1462.7009,-3820.6137 C -1413.4499,-3820.6137 -1361.6071,-3817.6029 -1317.2389,-3828.6949 C -1269.5888,-3840.6074 -1272.1568,-3918.859 -1260.6704,-3941.832 C -1257.8302,-3947.5124 -1294.2886,-3836.7761 -1204.1018,-3836.7761 C -1145.7186,-3836.7761 -1112.3761,-3837.8589 -1082.8835,-3877.1822 C -1063.4255,-3903.1263 -1104.7192,-4001.6657 -1115.2084,-4022.6442 C -1147.7402,-4087.7078 -1206.5274,-4087.0928 -1260.6704,-4127.7001 C -1287.6433,-4147.9297 -1357.2251,-4143.8625 -1389.9699,-4143.8625 z"
         style="fill:#ff6600;fill-rule:evenodd;stroke:#000000;stroke-width:1px;stroke-linecap:butt;stroke-linejoin:miter;stroke-opacity:1" />
    </g>
    <g
       id="g3827"
       transform="matrix(0.1173245,0,0,0.1173245,517.31395,1285.6092)">
      <path
         id="path3829"
         d="M -2097.1429,-3941.9235 C -2108.7589,-3918.6915 -2102.8571,-3829.0682 -2102.8571,-3781.9235 C -2102.8571,-3750.6419 -2097.1429,-3726.7166 -2097.1429,-3696.2092 C -2097.1429,-3635.7656 -2044.8554,-3643.5668 -1994.2857,-3656.2092 C -1944.2273,-3668.7238 -1876.3307,-3656.2092 -1822.8571,-3656.2092 C -1785.7233,-3656.2092 -1755.9756,-3661.9235 -1720,-3661.9235 C -1703.9243,-3661.9235 -1678.9949,-3757.3725 -1674.2857,-3776.2092 C -1663.3349,-3820.0125 -1676.1681,-3840.8816 -1685.7143,-3879.0664 C -1693.3949,-3909.7889 -1699.9594,-3944.74 -1720,-3964.7807 C -1748.177,-3992.9577 -1750.1374,-4040.6323 -1777.1429,-4067.6378 C -1801.7863,-4092.2813 -1809.8327,-4117.4705 -1834.2857,-4141.9235 C -1851.3659,-4159.0037 -1869.9576,-4183.7718 -1885.7143,-4204.7807 C -1913.3024,-4241.5649 -1940.995,-4212.9778 -1960,-4187.6378 C -1981.2391,-4159.319 -1995.5485,-4125.0017 -2017.1429,-4096.2092 C -2036.6571,-4070.1902 -2043.3912,-4037.9983 -2057.1429,-4010.495 C -2070.7201,-3983.3405 -2075.8987,-3968.4788 -2097.1429,-3941.9235 z"
         style="fill:#ffff00;fill-rule:evenodd;stroke:#000000;stroke-width:1px;stroke-linecap:butt;stroke-linejoin:miter;stroke-opacity:1" />
      <path
         id="path3831"
         d="M -2114.2857,-3890.495 C -2118.6017,-3907.7591 -1971.5259,-4101.7288 -1948.5714,-4147.6378 C -1909.7767,-4225.2273 -1925.7143,-4169.1808 -1925.7143,-4107.6378 C -1925.7143,-4083.2079 -1900.4581,-4028.554 -1891.4286,-4010.495 C -1872.0798,-3971.7974 -1860.2332,-3930.8059 -1834.2857,-3896.2092 C -1799.4743,-3849.794 -1754.3466,-3871.8778 -1714.2857,-3901.9235 C -1679.4155,-3928.0762 -1619.1917,-3943.4601 -1662.8571,-3976.2092 C -1703.2887,-4006.5329 -1738.9485,-4040.8721 -1777.1429,-4079.0664 C -1810.3095,-4112.233 -1817.6076,-4166.6396 -1828.5714,-4210.495 C -1838.6898,-4250.9685 -1833.1416,-4267.0658 -1868.5714,-4284.7807 C -1892.3069,-4296.6484 -1931.062,-4243.3646 -1942.8571,-4227.6378 C -1964.1594,-4199.2348 -1984.3961,-4167.4171 -2000,-4136.2092 C -2014.9076,-4106.394 -2025.6807,-4079.1335 -2040,-4050.495 C -2055.1109,-4020.2732 -2071.3435,-3993.5222 -2085.7143,-3964.7807 C -2103.6837,-3928.8418 -2124.5571,-3941.852 -2114.2857,-3890.495 z"
         style="fill:#808000;fill-rule:evenodd;stroke:#000000;stroke-width:1px;stroke-linecap:butt;stroke-linejoin:miter;stroke-opacity:1" />
      <path
         id="path3833"
         d="M -2011.4286,-3953.3521 C -1991.8829,-4008.5814 -1944.5913,-4007.7373 -1931.4286,-3941.9235 C -1923.9315,-3904.4381 -1964.9555,-3919.0664 -2000,-3919.0664 C -2030.9208,-3919.0664 -2025.2358,-3918.8341 -2011.4286,-3953.3521 z"
         style="fill:#2b0000;fill-rule:evenodd;stroke:#000000;stroke-width:1px;stroke-linecap:butt;stroke-linejoin:miter;stroke-opacity:1" />
      <path
         id="path3835"
         d="M -1977.1429,-3661.9235 C -2001.1505,-3661.9235 -1954.6447,-3786.9199 -1942.8571,-3810.495 C -1908.9025,-3878.4042 -1834.2848,-3753.3502 -1822.8571,-3730.495 C -1819.0476,-3722.8759 -1815.2381,-3715.2569 -1811.4286,-3707.6378 C -1779.2803,-3643.3412 -1885.2292,-3656.2092 -1914.2857,-3656.2092 C -1948.2905,-3656.2092 -1935.5669,-3648.0649 -1977.1429,-3661.9235 z"
         style="fill:#2b0000;fill-rule:evenodd;stroke:#000000;stroke-width:1px;stroke-linecap:butt;stroke-linejoin:miter;stroke-opacity:1" />
    </g>
    <g
       id="g3837"
       transform="matrix(8.2172049e-2,0,0,8.2172049e-2,288.28942,1304.3312)">
      <path
         d="M 1196.0206,-4192.3496 A 593.96967,598.01031 0 1 1 8.0812378,-4192.3496 A 593.96967,598.01031 0 1 1 1196.0206,-4192.3496 z"
         sodipodi:ry="598.01031"
         sodipodi:rx="593.96967"
         sodipodi:cy="-4192.3496"
         sodipodi:cx="602.0509"
         id="path3839"
         style="fill:#245599;fill-opacity:1;stroke:#000000;stroke-width:6.69999981;stroke-miterlimit:4;stroke-dasharray:none;stroke-opacity:1"
         sodipodi:type="arc" />
      <path
         id="path3841"
         d="M 395.9798,-4596.4108 C 373.1477,-4561.501 316.0451,-4532.1998 266.68027,-4507.5174 C 192.05582,-4470.2052 318.6328,-4491.355 371.73614,-4491.355 C 443.84377,-4491.355 425.68633,-4480.4292 460.62956,-4410.5428 C 487.29922,-4357.2035 498.97101,-4346.9253 549.52298,-4321.6494 C 591.26846,-4300.7766 625.03136,-4277.5401 646.49763,-4248.9184 C 672.93428,-4213.6695 750.26246,-4224.3519 783.87837,-4232.7559 C 830.57195,-4244.4293 873.54362,-4183.2395 897.01546,-4151.9437 C 925.04781,-4114.5673 914.77372,-4066.2419 897.01546,-4030.7254 C 873.71005,-3984.1146 851.8733,-3945.1772 816.20326,-3909.5071 C 794.02879,-3887.3326 870.4388,-3806.7842 880.85302,-3796.37 C 922.49873,-3754.7243 926.79091,-3721.0896 880.85302,-3675.1517 C 815.16248,-3609.4612 921.16243,-3699.3229 953.584,-3723.639 C 1000.6612,-3758.9469 1009.6847,-3812.0646 1050.5586,-3852.9386 C 1082.5536,-3884.9335 1093.8017,-3959.0833 1123.2896,-3998.4005 C 1142.7759,-4024.3823 1131.3708,-4092.9714 1131.3708,-4127.7001 C 1131.3708,-4171.7998 1097.0573,-4214.5542 1066.7211,-4232.7559 C 1017.4241,-4262.3341 970.51486,-4244.3014 921.25912,-4281.2432 C 885.85027,-4307.7999 898.34202,-4376.7695 905.09668,-4410.5428 C 909.90311,-4434.5749 1025.5357,-4374.5669 1034.3962,-4370.1367 C 1093.453,-4340.6083 1072.7467,-4426.8462 1066.7211,-4450.9489 C 1058.9653,-4481.9722 998.39498,-4497.9791 985.90888,-4547.9235 C 972.83102,-4600.235 954.97196,-4628.0417 905.09668,-4652.9794 C 865.5409,-4672.7573 824.88283,-4691.2156 783.87837,-4701.4667 C 723.821,-4716.4811 700.50087,-4729.0463 686.90373,-4661.0606 C 673.54028,-4594.2433 658.70236,-4611.5839 598.01031,-4596.4108 C 550.97792,-4584.6527 496.1669,-4588.3296 444.46712,-4588.3296 C 417.1981,-4588.3296 433.5313,-4587.023 395.9798,-4596.4108 z"
         style="fill:#4bf44e;fill-opacity:1;fill-rule:evenodd;stroke:#000000;stroke-width:1px;stroke-linecap:butt;stroke-linejoin:miter;stroke-opacity:1" />
      <path
         id="path3843"
         d="M 549.52298,-4406.5022 C 543.37825,-4421.1486 562.969,-4438.0969 569.72604,-4454.9895 C 576.71617,-4472.4648 600.85658,-4490.1606 614.17275,-4503.4768 C 621.85504,-4511.1591 646.60638,-4519.6393 656.59915,-4519.6393 C 673.71725,-4519.6393 693.04243,-4527.7205 711.14739,-4527.7205 C 730.94758,-4527.7205 753.79333,-4529.7408 775.79715,-4529.7408 C 790.92547,-4529.7408 813.73002,-4512.9079 826.30478,-4503.4768 C 836.54549,-4495.7963 843.96026,-4482.5716 848.52814,-4471.1519 C 854.04127,-4457.3691 855.57884,-4446.8268 854.58905,-4442.8677 C 851.76951,-4431.5895 831.86916,-4448.9286 820.24387,-4448.9286 C 793.35681,-4448.9286 758.73044,-4444.888 735.39105,-4444.888 C 710.92547,-4444.888 673.08087,-4422.9839 656.59915,-4406.5022 C 642.36965,-4392.2727 624.99407,-4384.9986 610.13214,-4370.1367 C 591.73354,-4351.7381 657.14327,-4362.0555 670.74129,-4362.0555 C 718.48044,-4362.0555 766.85093,-4360.0352 814.18295,-4360.0352 C 841.45273,-4360.0352 887.81027,-4310.6515 905.09668,-4293.3651 C 935.91051,-4262.5513 963.98402,-4234.4777 993.9901,-4204.4717 C 1020.6306,-4177.8312 1026.0009,-4135.5266 1048.5383,-4105.4767 C 1060.5831,-4089.417 1072.782,-4070.3203 1072.782,-4054.9691 C 1072.782,-4054.0841 1023.685,-4065.0706 989.94949,-4065.0706 C 937.30544,-4065.0706 923.51384,-4055.0863 878.83271,-4032.7457 C 858.08542,-4022.3721 848.69295,-3982.7325 842.46722,-3964.0554 C 836.3892,-3945.8213 846.8383,-3911.197 858.62966,-3899.4056 C 868.74835,-3889.2869 864.69058,-3914.7796 864.69058,-3939.8117 C 864.69058,-3962.9786 862.67027,-3986.4738 862.67027,-4008.5021 C 862.67027,-4024.309 846.33913,-4062.6018 838.42661,-4073.1518 C 817.68128,-4100.8123 805.51623,-4132.9776 783.87837,-4160.0249 C 762.26297,-4187.0442 744.37432,-4217.7117 721.24892,-4240.8372 C 718.55518,-4243.5309 715.86144,-4246.2246 713.1677,-4248.9184 C 695.75886,-4266.3272 687.83844,-4284.3492 670.74129,-4301.4463 C 655.71929,-4316.4683 633.39112,-4330.3005 614.17275,-4335.7915 C 598.50814,-4340.2671 587.94485,-4353.9652 571.74634,-4358.0148 C 556.2534,-4361.8881 544.41092,-4364.0758 529.31993,-4364.0758"
         style="fill:none;fill-rule:evenodd;stroke:#000000;stroke-width:10;stroke-linecap:butt;stroke-linejoin:miter;stroke-miterlimit:4;stroke-dasharray:10, 10;stroke-dashoffset:0;stroke-opacity:1" />
    </g>
    <path
       style="fill:#000000;fill-rule:evenodd;stroke:#000000;stroke-width:1px;stroke-linecap:butt;stroke-linejoin:miter;stroke-opacity:1"
       d="M 149.95492,78.547812 C 154.03284,78.22036 162.8546,78.660957 168.78043,79.846123 C 175.02289,81.094616 181.22956,81.793589 187.60593,81.793589 C 192.58157,81.793589 197.21057,80.495278 202.53651,80.495278 C 207.88296,80.495278 212.40595,81.111406 217.46709,79.846123 C 222.6269,78.55617 228.44984,77.911878 233.69597,76.600345 C 238.22925,75.467026 244.29748,75.085375 248.62655,75.95119 C 251.40812,76.507505 251.22317,67.009851 251.22317,63.617236 C 251.22317,59.257726 249.42149,54.674844 254.46895,59.722303 C 257.68993,62.943287 260.94014,67.478229 262.90797,70.757946 C 265.07931,74.376843 268.62232,76.993406 270.04868,79.846123 C 271.67323,83.095232 276.14916,87.244915 278.4877,89.583455 C 281.48802,92.583774 277.18614,96.078257 275.24192,98.022476 C 272.84898,100.41542 271.02616,103.4271 268.75037,106.4615 C 266.46034,109.51487 263.77357,112.08745 260.31135,115.54967 C 257.26476,118.59626 253.88039,121.33148 250.57402,124.63785 C 250.07286,125.13901 251.22317,116.96617 251.22317,114.25136 C 251.22317,109.45216 252.49464,106.46821 247.32824,107.75981 C 243.17673,108.79768 239.33626,108.62178 234.99428,109.70727 C 230.65807,110.79133 226.62832,111.65474 222.01117,111.65474 C 217.82144,111.65474 213.02707,113.60221 209.02806,113.60221 C 203.93494,113.60221 198.28376,114.16191 193.44833,112.95305 C 188.42647,111.69759 183.19537,111.68812 177.8686,110.35643 C 174.11046,109.41689 169.33957,109.05812 165.53465,109.05812 C 162.29269,109.05812 157.54801,108.52206 154.499,107.75981 C 149.85269,106.59823 148.73019,106.8163 149.95492,101.91741 C 150.97447,97.839197 149.30576,93.412688 149.30576,89.583455 C 149.30576,87.414863 149.30576,82.831788 149.30576,81.793589 C 149.30576,80.690237 149.73853,79.629738 149.95492,78.547812 z"
       id="path7871"
       transform="translate(-4.149475e-6,698.0315)" />
    <text
       xml:space="preserve"
       style="font-size:24px;font-style:normal;font-weight:bold;writing-mode:lr-tb;fill:#ffffff;fill-opacity:1;stroke:none;stroke-width:1px;stroke-linecap:butt;stroke-linejoin:miter;stroke-opacity:1;font-family:Sans;-inkscape-font-specification:Sans"
       x="161.74789"
       y="798.54242"
       id="text7867"><tspan
         sodipodi:role="line"
         id="tspan7869"
         x="161.74789"
         y="798.54242">implies</tspan></text>
    <g
       id="g7879"
       transform="matrix(0.9039202,0.427701,-0.427701,0.9039202,423.55618,12.473578)">
      <path
         id="path7873"
         d="M 105.9048,907.53284 C 111.29948,907.20611 122.96979,907.64573 130.80907,908.82827 C 139.06722,910.07399 147.27803,910.77141 155.71333,910.77141 C 162.2956,910.77141 168.41931,909.47598 175.46499,909.47598 C 182.53781,909.47598 188.52128,910.09075 195.21666,908.82827 C 202.04257,907.54117 209.74574,906.89831 216.68585,905.58969 C 222.68292,904.45888 230.71059,904.07808 236.43751,904.94197 C 240.11725,905.49706 239.87258,896.02046 239.87258,892.63537 C 239.87258,888.28553 237.48914,883.71281 244.16642,888.74908 C 248.42746,891.96291 252.72716,896.4878 255.3304,899.76024 C 258.20287,903.37112 262.88992,905.98188 264.77685,908.82827 C 266.92597,912.07018 272.84718,916.21066 275.94083,918.54401 C 279.90995,921.53768 274.219,925.02441 271.64699,926.96432 C 268.48137,929.35195 266.06996,932.35695 263.05932,935.38462 C 260.02984,938.43122 256.47551,940.9981 251.89534,944.45264 C 247.865,947.49248 243.38782,950.22163 239.01382,953.52067 C 238.35084,954.02072 239.87258,945.866 239.87258,943.15721 C 239.87258,938.36865 241.55461,935.39132 234.71998,936.68006 C 229.22795,937.71562 224.14739,937.54011 218.40338,938.6232 C 212.66701,939.70485 207.33605,940.56635 201.22802,940.56635 C 195.68543,940.56635 189.34296,942.5095 184.05267,942.5095 C 177.31498,942.5095 169.83903,943.06796 163.44224,941.86178 C 156.79882,940.6091 149.8786,940.59966 142.83181,939.27092 C 137.86017,938.33346 131.54876,937.97549 126.51523,937.97549 C 122.22644,937.97549 115.9497,937.44062 111.91617,936.68006 C 105.76956,935.52105 104.28461,935.73864 105.9048,930.85061 C 107.25357,926.78144 105.04603,922.36475 105.04603,918.54401 C 105.04603,916.38023 105.04603,911.80731 105.04603,910.77141 C 105.04603,909.67051 105.61854,908.61236 105.9048,907.53284 z"
         style="fill:#000000;fill-rule:evenodd;stroke:#000000;stroke-width:1.14889801px;stroke-linecap:butt;stroke-linejoin:miter;stroke-opacity:1" />
      <text
         id="text7875"
         y="929.46814"
         x="117.41373"
         style="font-size:24px;font-style:normal;font-weight:bold;writing-mode:lr-tb;fill:#ffffff;fill-opacity:1;stroke:none;stroke-width:1px;stroke-linecap:butt;stroke-linejoin:miter;stroke-opacity:1;font-family:Sans;-inkscape-font-specification:Sans"
         xml:space="preserve"><tspan
           y="929.46814"
           x="117.41373"
           id="tspan7877"
           sodipodi:role="line">with some</tspan></text>
    </g>
  </g>
</svg>
