<?xml version="1.0" encoding="UTF-8" standalone="no"?>
<!-- Created with Inkscape (http://www.inkscape.org/) -->
<svg
   xmlns:dc="http://purl.org/dc/elements/1.1/"
   xmlns:cc="http://creativecommons.org/ns#"
   xmlns:rdf="http://www.w3.org/1999/02/22-rdf-syntax-ns#"
   xmlns:svg="http://www.w3.org/2000/svg"
   xmlns="http://www.w3.org/2000/svg"
   xmlns:sodipodi="http://sodipodi.sourceforge.net/DTD/sodipodi-0.dtd"
   xmlns:inkscape="http://www.inkscape.org/namespaces/inkscape"
   width="453.5433"
   height="340.15747"
   id="svg2"
   sodipodi:version="0.32"
   inkscape:version="0.46"
   sodipodi:docname="slide210-again-back-to-software.svg"
   version="1.0"
   inkscape:output_extension="org.inkscape.output.svg.inkscape">
  <defs
     id="defs4">
    <inkscape:perspective
       sodipodi:type="inkscape:persp3d"
       inkscape:vp_x="0 : 170.07874 : 1"
       inkscape:vp_y="0 : 1000 : 0"
       inkscape:vp_z="453.5433 : 170.07874 : 1"
       inkscape:persp3d-origin="226.77165 : 113.38582 : 1"
       id="perspective23564" />
  </defs>
  <sodipodi:namedview
     id="base"
     pagecolor="#ffffff"
     bordercolor="#666666"
     borderopacity="1.0"
     gridtolerance="10000"
     guidetolerance="8.8"
     objecttolerance="10"
     inkscape:pageopacity="0.0"
     inkscape:pageshadow="2"
     inkscape:zoom="1.540463"
     inkscape:cx="226.77165"
     inkscape:cy="170.07874"
     inkscape:document-units="mm"
     inkscape:current-layer="layer1"
     inkscape:window-width="952"
     inkscape:window-height="1167"
     inkscape:window-x="0"
     inkscape:window-y="25"
     width="12.8cm"
     height="9.6cm"
     units="cm"
     showgrid="true"
     grid_units="mm"
     inkscape:object-paths="false"
     inkscape:grid-points="true"
     inkscape:grid-bbox="true"
     inkscape:guide-points="true"
     showguides="true"
     inkscape:guide-bbox="true">
    <sodipodi:guide
       orientation="vertical"
       position="56.476527"
       id="guide3573" />
    <sodipodi:guide
       orientation="horizontal"
       position="11.035643"
       id="guide3579" />
    <sodipodi:guide
       orientation="horizontal"
       position="24.018753"
       id="guide3886" />
    <sodipodi:guide
       orientation="horizontal"
       position="285.62841"
       id="guide3988" />
    <sodipodi:guide
       orientation="horizontal"
       position="303.15561"
       id="guide4081" />
    <inkscape:grid
       id="GridFromPre046Settings"
       type="xygrid"
       originx="0px"
       originy="0px"
       spacingx="2mm"
       spacingy="2mm"
       color="#0000ff"
       empcolor="#0000ff"
       opacity="0.2"
       empopacity="0.4"
       empspacing="5" />
  </sodipodi:namedview>
  <metadata
     id="metadata7">
    <rdf:RDF>
      <cc:Work
         rdf:about="">
        <dc:format>image/svg+xml</dc:format>
        <dc:type
           rdf:resource="http://purl.org/dc/dcmitype/StillImage" />
      </cc:Work>
    </rdf:RDF>
  </metadata>
  <g
     inkscape:label="Layer 1"
     inkscape:groupmode="layer"
     id="layer1"
     transform="translate(4.149475e-6,-698.0315)">
    <g
       id="g2626"
       transform="matrix(0.3655766,0,0,0.3655766,176.22287,819.83034)">
      <path
         id="path2429"
         d="M -315.16759,338.68941 C -315.28057,338.57643 -335.97342,362.00108 -338.4011,363.94322 C -355.37062,377.51884 -358.45748,395.42354 -371.73614,410.91532 C -384.01417,425.23969 -387.68177,444.62855 -396.98995,460.91787 C -401.25994,468.39035 -398.02188,479.48814 -401.53564,487.68691 C -404.84014,495.39741 -398.25352,506.8784 -394.46457,512.94072 C -393.82112,513.97024 -393.1177,514.96103 -392.44426,515.97118 C -388.02584,522.59882 -371.36589,523.5599 -364.66507,526.07271 C -359.38315,528.05343 -316.11116,532.13362 -308.6016,532.13362 C -285.13258,532.13362 -260.05771,538.69961 -235.87062,538.69961 C -211.36551,538.69961 -187.81752,533.64885 -163.64471,533.64885 C -152.24222,533.64885 -131.13846,531.28532 -121.72338,526.57778 C -113.9166,522.67439 -108.08632,507.91074 -108.08632,500.31382 C -108.08632,488.21611 -103.05944,476.96089 -105.56094,464.4534 C -108.10573,451.72945 -110.09715,438.03687 -116.67262,427.07776 C -121.82423,418.49173 -124.84143,408.77822 -130.81475,400.81379 C -134.64874,395.70181 -136.80999,389.26271 -141.92643,384.14627 C -146.65039,379.42231 -151.1344,373.21585 -155.05842,367.98383 C -155.92738,366.82521 -156.742,365.62681 -157.5838,364.4483 C -160.55493,360.28871 -167.87741,355.08659 -172.23101,351.82139 C -177.28474,348.03109 -180.72559,343.78603 -185.86807,341.21479 C -191.50754,338.39505 -197.24912,336.28188 -202.53559,333.63865 C -209.78429,330.0143 -220.14051,331.64259 -227.7894,329.09296 C -233.8404,327.07596 -244.29836,329.09296 -250.51783,329.09296 C -258.67194,329.09296 -266.09689,331.61834 -274.25642,331.61834 C -278.45534,331.61834 -282.56188,332.68455 -286.37825,333.63865 C -290.53865,334.67875 -295.65466,335.65895 -300.01531,335.65895 C -302.71875,335.65895 -305.99339,336.65254 -308.6016,337.17418 C -311.04171,337.6622 -312.47935,338.24137 -315.16759,338.68941 z"
         style="fill:#00ffff;fill-rule:evenodd;stroke:#000000;stroke-width:1px;stroke-linecap:butt;stroke-linejoin:miter;stroke-opacity:1" />
      <path
         id="path2454"
         d="M -126.26907,478.09046 C -126.53209,478.74802 -142.82924,474.04985 -145.46197,474.04985 C -150.24605,474.04985 -153.36964,471.66688 -154.55334,477.58538 C -155.29868,481.31209 -151.55036,484.95653 -149.50258,487.68691 C -147.75439,490.01783 -141.57584,489.70721 -138.89598,489.70721 C -137.41612,489.70721 -147.30374,500.31382 -155.56349,500.31382 C -159.50374,500.31382 -160.61425,505.62914 -160.61425,508.39504 C -160.61425,512.68491 -156.18535,514.17422 -153.03811,514.96103 C -148.51205,516.09254 -142.72332,512.07648 -139.40105,510.41534 C -135.79219,508.61091 -132.80075,506.34042 -136.87567,510.41534 C -138.37889,511.91856 -137.54295,517.95453 -137.88582,520.01179 C -138.43339,523.29723 -138.9023,526.56513 -137.38075,529.60824 C -135.5352,533.29933 -130.9432,531.2198 -128.79445,529.60824 C -124.47388,526.36781 -122.71746,524.47709 -121.72338,519.50671 C -120.97893,515.78445 -123.34206,514.15778 -121.72338,510.92042 C -119.245,505.96364 -117.35455,519.1275 -117.1777,520.01179 C -116.21136,524.84347 -106.7575,519.18804 -105.56094,517.99149 C -103.03935,515.46989 -102.30727,507.6081 -105.05586,504.8595 C -107.25669,502.65867 -104.1179,496.09279 -110.6117,491.22244 C -115.38972,487.63893 -119.4679,483.72915 -121.72338,478.09046 C -121.8632,477.74092 -122.39682,477.75374 -122.73353,477.58538"
         style="fill:#f4e3d7;fill-rule:evenodd;stroke:#000000;stroke-width:1px;stroke-linecap:butt;stroke-linejoin:miter;stroke-opacity:1" />
      <path
         id="path2431"
         d="M -283.34779,381.62089 C -287.93775,382.53888 -278.07136,389.4227 -274.76149,392.73257 C -270.68361,396.81045 -269.25614,401.68254 -264.65997,405.35948 C -261.76359,407.67658 -262.62454,411.92925 -258.59905,412.93562 C -254.84014,413.87535 -247.0757,406.46303 -244.45692,403.84425 C -239.92091,399.30824 -234.16538,394.33116 -230.31478,389.19704 C -227.29548,385.1713 -220.76627,381.52502 -223.24371,376.57013 C -225.47812,372.10132 -236.9074,367.98383 -241.93153,367.98383 C -247.80167,367.98383 -252.82051,364.4483 -258.59905,364.4483 C -261.92619,364.4483 -268.84002,368.09539 -271.22596,370.00414 C -271.88329,370.53 -272.57283,371.01429 -273.24626,371.51937 C -275.95865,373.55365 -278.86025,375.11304 -281.32748,377.58028 C -282.33619,378.58899 -282.86549,380.41513 -283.34779,381.62089 z"
         style="fill:#ffffff;fill-rule:evenodd;stroke:#000000;stroke-width:1px;stroke-linecap:butt;stroke-linejoin:miter;stroke-opacity:1" />
      <path
         id="path2383"
         d="M -322.85714,310.93361 C -331.16831,318.40421 -331.42857,335.36327 -331.42857,349.50504 C -331.42857,366.37929 -304.5709,373.9624 -294.28571,378.07647 C -275.15637,385.72821 -261.81078,389.50504 -238.57143,389.50504 C -210.13849,389.50504 -198.43802,381.53672 -177.14286,363.79075 C -165.15455,353.8005 -155.71429,324.3111 -155.71429,309.50504 C -155.71429,289.67396 -149.31382,272.30597 -158.57143,253.79075 C -159.9183,251.09701 -160.47619,248.07647 -161.42857,245.21933 C -166.6611,229.52174 -168.64093,220.79462 -175.71429,206.6479 C -181.22891,195.61864 -198.1914,188.51419 -210,183.79075 C -222.84559,178.65252 -246.16725,176.98762 -257.14286,185.21933 C -267.79135,193.2057 -276.71424,196.88591 -284.28571,209.50504 C -290.6269,220.07369 -295.14037,228.35721 -300,238.07647 C -303.55398,245.18443 -308.05633,254.58749 -310,262.36218 C -311.95609,270.18653 -315.15264,278.38174 -318.57143,285.21933 C -322.24245,292.56136 -322.85714,302.07322 -322.85714,310.93361 z"
         style="fill:#ffe6d5;fill-rule:evenodd;stroke:#000000;stroke-width:1px;stroke-linecap:butt;stroke-linejoin:miter;stroke-opacity:1" />
      <path
         sodipodi:nodetypes="cssc"
         id="path2385"
         d="M -257.82308,233.73717 C -262.04389,231.92226 -271.5009,234.9503 -269.17061,244.27147 C -267.56168,250.70719 -258.34554,245.77559 -256.11617,243.54623 C -252.77031,240.20036 -255.60008,236.51593 -257.82308,233.73717 z"
         style="fill:#000000;fill-rule:evenodd;stroke:#000000;stroke-width:0.50767261px;stroke-linecap:butt;stroke-linejoin:miter;stroke-opacity:1" />
      <path
         sodipodi:nodetypes="csssc"
         id="path2387"
         d="M -218.13885,234.37137 C -220.29523,235.74248 -223.43943,238.62726 -223.43943,242.51857 C -223.43943,246.86111 -215.94419,247.2302 -212.44562,247.2302 C -204.52929,247.2302 -206.70572,239.56417 -207.73398,235.45112 C -208.38141,232.86141 -214.78232,234.07689 -218.13885,234.37137 z"
         style="fill:#000000;fill-rule:evenodd;stroke:#000000;stroke-width:0.54969078px;stroke-linecap:butt;stroke-linejoin:miter;stroke-opacity:1" />
      <path
         id="path2389"
         d="M -260.35714,292.00504 C -258.943,288.40184 -254.88993,283.74246 -251.78571,279.86218 C -248.29443,275.49808 -245.19462,275.57647 -240,275.57647 C -229.6865,275.57647 -222.9131,275.36992 -214.64286,279.50504 C -211.27628,281.18833 -211.07143,286.63346 -211.07143,289.86218"
         style="fill:none;fill-rule:evenodd;stroke:#000000;stroke-width:1px;stroke-linecap:butt;stroke-linejoin:miter;stroke-opacity:1" />
      <path
         id="path2395"
         d="M -273.92857,312.00504 C -274.42268,312.20268 -267.72885,312.9135 -262.85714,314.86218 C -259.22324,316.31574 -251.50778,316.6479 -247.85714,316.6479 C -241.01373,316.6479 -234.51009,317.36218 -227.5,317.36218 C -222.29543,317.36218 -217.90533,315.93361 -212.85714,315.93361 C -210.34881,315.93361 -207.65546,315.32185 -205.35714,314.86218 C -200.36548,313.86385 -201.78864,317.7164 -198.92857,320.57647 C -196.53884,322.96619 -198.65041,329.49131 -200,331.29075 C -202.7401,334.94422 -206.39912,339.66889 -210.35714,341.6479 C -214.59543,343.76704 -217.30736,347.36218 -222.5,347.36218 C -228.94177,347.36218 -235.7087,348.79075 -242.5,348.79075 C -247.39927,348.79075 -252.73213,349.43718 -256.78571,347.00504 C -260.21956,344.94473 -263.14916,343.59641 -264.64285,339.86218 C -266.42231,335.41353 -268.98679,331.17432 -271.07143,327.00504 C -272.36441,324.41906 -272.19042,321.81477 -272.85714,319.1479 C -273.54111,316.41203 -274.49006,314.81251 -273.92857,312.00504 z"
         style="fill:#000000;fill-rule:evenodd;stroke:#000000;stroke-width:1px;stroke-linecap:butt;stroke-linejoin:miter;stroke-opacity:1" />
      <path
         id="path2397"
         d="M -267.14286,315.21933 C -267.145,315.21076 -268.92857,319.54326 -268.92857,323.43361 C -268.92857,325.93417 -267.18008,327.36218 -265,327.36218 C -262.07462,327.36218 -259.85201,328.49477 -258.21428,325.21933 C -257.29937,323.3895 -257.5,320.89402 -257.5,318.79075 C -257.5,316.90541 -258.8851,315.60907 -260.35714,314.50504 C -262.42258,312.95596 -265.33869,313.77599 -267.14286,315.21933 z"
         style="fill:#ffffff;fill-rule:evenodd;stroke:#000000;stroke-width:1px;stroke-linecap:butt;stroke-linejoin:miter;stroke-opacity:1" />
      <path
         id="path2399"
         d="M -256.4379,315.5424 C -256.44004,315.53383 -258.22361,319.86633 -258.22361,323.75668 C -258.22361,326.25724 -256.47512,327.68525 -254.29504,327.68525 C -251.36966,327.68525 -249.14705,328.81784 -247.50932,325.5424 C -246.59441,323.71257 -246.79504,321.21709 -246.79504,319.11382 C -246.79504,317.22848 -248.18014,315.93214 -249.65218,314.82811 C -251.71762,313.27903 -254.63373,314.09906 -256.4379,315.5424 z"
         style="fill:#ffffff;fill-rule:evenodd;stroke:#000000;stroke-width:1px;stroke-linecap:butt;stroke-linejoin:miter;stroke-opacity:1" />
      <path
         id="path2401"
         d="M -245.72361,315.89954 C -245.72575,315.89097 -247.50932,320.22347 -247.50932,324.11382 C -247.50932,326.61438 -245.76083,328.04239 -243.58075,328.04239 C -240.65537,328.04239 -238.43276,329.17498 -236.79503,325.89954 C -235.88012,324.06971 -236.08075,321.57423 -236.08075,319.47096 C -236.08075,317.58562 -237.46585,316.28928 -238.93789,315.18525 C -241.00333,313.63617 -243.91944,314.4562 -245.72361,315.89954 z"
         style="fill:#ffffff;fill-rule:evenodd;stroke:#000000;stroke-width:1px;stroke-linecap:butt;stroke-linejoin:miter;stroke-opacity:1" />
      <path
         id="path2403"
         d="M -234.29504,316.25669 C -234.29718,316.24812 -236.08075,320.58062 -236.08075,324.47097 C -236.08075,326.97153 -234.33226,328.39954 -232.15218,328.39954 C -229.2268,328.39954 -227.00419,329.53213 -225.36646,326.25669 C -224.45155,324.42686 -224.65218,321.93138 -224.65218,319.82811 C -224.65218,317.94277 -226.03728,316.64643 -227.50932,315.5424 C -229.57476,313.99332 -232.49087,314.81335 -234.29504,316.25669 z"
         style="fill:#ffffff;fill-rule:evenodd;stroke:#000000;stroke-width:1px;stroke-linecap:butt;stroke-linejoin:miter;stroke-opacity:1" />
      <path
         id="path2405"
         d="M -223.58076,315.5424 C -223.5829,315.53383 -225.36647,319.86633 -225.36647,323.75668 C -225.36647,326.25724 -223.61798,327.68525 -221.4379,327.68525 C -218.51252,327.68525 -216.28991,328.81784 -214.65218,325.5424 C -213.73727,323.71257 -213.9379,321.21709 -213.9379,319.11382 C -213.9379,317.22848 -215.323,315.93214 -216.79504,314.82811 C -218.86048,313.27903 -221.77659,314.09906 -223.58076,315.5424 z"
         style="fill:#ffffff;fill-rule:evenodd;stroke:#000000;stroke-width:1px;stroke-linecap:butt;stroke-linejoin:miter;stroke-opacity:1" />
      <path
         id="path2407"
         d="M -212.50933,315.18526 C -212.51147,315.17669 -214.29504,319.50919 -214.29504,323.39954 C -214.29504,325.9001 -212.54655,327.32811 -210.36647,327.32811 C -207.44109,327.32811 -205.21848,328.4607 -203.58075,325.18526 C -202.66584,323.35543 -202.86647,320.85995 -202.86647,318.75668 C -202.86647,316.87134 -204.25157,315.575 -205.72361,314.47097 C -207.78905,312.92189 -210.70516,313.74192 -212.50933,315.18526 z"
         style="fill:#ffffff;fill-rule:evenodd;stroke:#000000;stroke-width:1px;stroke-linecap:butt;stroke-linejoin:miter;stroke-opacity:1" />
      <path
         id="path2409"
         d="M -277.14286,307.00504 C -277.495,308.17049 -276.82914,311.47418 -276.42857,313.07647 C -275.80176,315.5837 -273.79373,316.78274 -272.14286,318.43361 C -270.0068,320.56967 -265.71041,320.64944 -263.21428,321.6479 C -260.40652,322.771 -256.80849,322.50048 -253.92857,323.07647 C -250.50008,323.76217 -244.94795,324.50504 -241.78571,324.50504 C -237.26658,324.50504 -233.12216,325.57647 -228.57143,325.57647 C -224.28571,325.57647 -220,325.57647 -215.71428,325.57647 C -212.2619,325.57647 -208.80952,325.57647 -205.35714,325.57647 C -202.0279,325.57647 -199.24005,323.34229 -197.85714,320.57647 C -196.17773,317.21764 -193.57143,315.18234 -193.57143,311.29075 C -193.57143,310.81456 -193.57143,310.33837 -193.57143,309.86218"
         style="fill:#ffe6d5;fill-rule:evenodd;stroke:#000000;stroke-width:1px;stroke-linecap:butt;stroke-linejoin:miter;stroke-opacity:1" />
      <path
         id="path2411"
         d="M -254.28572,345.21933 C -254.28572,344.74314 -254.28572,344.74314 -254.28572,345.21933 C -254.28572,347.73861 -252.41211,336.6479 -245.71429,336.6479 C -243.79349,336.6479 -241.76963,339.53721 -241.07143,340.93361 C -240.26476,342.54695 -234.14875,338.18656 -232.5,337.36218 C -228.22552,335.22494 -225.97149,341.39069 -223.92857,343.43361 C -223.39282,343.96937 -223.57143,345.99984 -223.57143,347.00504"
         style="fill:#ff0000;fill-rule:evenodd;stroke:#000000;stroke-width:1px;stroke-linecap:butt;stroke-linejoin:miter;stroke-opacity:1" />
      <path
         id="path2423"
         d="M -273.57143,204.50504 C -274.63329,205.92085 -274.10573,200.75645 -275.35714,199.50504 C -279.93179,194.93039 -281.4306,193.07647 -287.5,193.07647 C -297.33034,193.07647 -295.90813,204.84385 -305.71429,193.07647 C -310.8925,186.86261 -316.45668,194.11582 -319.28571,198.07647 C -320.81741,200.22084 -324.15048,195.57647 -326.78571,195.57647 C -330.48522,195.57647 -333.98594,207.32703 -335,209.86218 C -337.02528,214.92538 -329.69263,219.00665 -331.78571,220.57647 C -334.72837,222.78346 -334.28225,228.67748 -332.5,231.6479 C -330.41919,235.11591 -325.7275,233.12931 -326.78571,237.36218 C -327.87454,241.71747 -327.51902,247.71552 -322.14286,248.79075 C -316.85823,249.84768 -315.65006,252.00504 -309.28571,252.00504 C -302.28472,252.00504 -299.21032,248.75305 -293.57143,245.93361 C -288.5992,243.4475 -286.98437,239.34655 -283.21429,235.57647 C -279.51621,231.87839 -278.99382,225.77221 -277.5,221.29075 C -276.50402,218.30282 -276.85073,214.84616 -275.71429,212.00504 C -274.96055,210.12069 -274.8005,208.39175 -273.92857,206.6479 C -273.60473,206.00021 -273.69048,205.21932 -273.57143,204.50504 z"
         style="fill:#ffccaa;fill-rule:evenodd;stroke:#000000;stroke-width:1px;stroke-linecap:butt;stroke-linejoin:miter;stroke-opacity:1" />
      <path
         id="path2425"
         d="M -152.5,190.21932 C -150.79746,186.81425 -169.02585,187.74364 -171.78571,188.43361 C -176.57564,189.63109 -190,191.17518 -190,197.36218 C -190,201.07277 -190.90742,205.16107 -190,208.79075 C -188.52968,214.67205 -182.92755,215.07342 -185,221.29075 C -187.7622,229.57736 -187.86414,234.85519 -181.78571,240.93361 C -181.2467,241.47262 -180.83333,242.12409 -180.35714,242.71932 C -178.28163,245.31371 -171.55748,248.01201 -168.57143,249.50504 C -162.72296,252.42927 -156.05511,249.76066 -151.42857,246.29075 C -150.68474,245.73288 -150,245.10028 -149.28571,244.50504 C -147.07183,242.66013 -145.17572,248.79189 -142.5,249.86218 C -134.72152,252.97357 -130.1234,240.70639 -128.21429,235.93361 C -127.97619,235.33837 -127.7381,234.74313 -127.5,234.1479 C -125.21758,228.44184 -132.47236,224.52478 -135,222.71932 C -136.73292,221.48153 -130.98939,221.13993 -129.28571,219.86218 C -123.27828,215.35661 -129.82389,208.89642 -133.57143,206.6479 C -134.9896,205.79699 -136.42857,204.98123 -137.85714,204.1479 C -143.99756,200.56598 -144.34024,209.03378 -135,202.36218 C -129.18674,198.20985 -127.38378,195.09462 -130.35714,189.1479 C -131.83294,186.1963 -143.70076,184.86218 -146.78571,184.86218 C -148.06556,184.86218 -151.92705,189.26441 -152.5,190.21932 z"
         style="fill:#ffccaa;fill-rule:evenodd;stroke:#000000;stroke-width:1px;stroke-linecap:butt;stroke-linejoin:miter;stroke-opacity:1" />
      <path
         id="path2435"
         d="M -261.62951,410.41024 C -261.27723,409.00112 -264.95516,417.9979 -268.70058,424.55238 C -273.02739,432.1243 -276.67297,440.94783 -279.81226,448.79604 C -280.28845,449.98651 -280.82241,451.15306 -281.32748,452.33157 C -284.04196,458.66536 -285.87317,465.04478 -285.87317,472.02955 C -285.87317,477.06767 -285.58743,482.84543 -283.85287,487.18183 C -281.85732,492.17071 -280.70186,496.00923 -278.29703,500.81889 C -275.83491,505.74313 -270.85574,509.73046 -267.69042,513.95088 C -264.51215,518.18857 -260.70515,521.8439 -255.56859,517.99149 C -250.16455,513.93845 -245.80995,510.25315 -240.92138,505.36458 C -237.32019,501.76339 -236.47026,496.46234 -234.35539,492.2326 C -232.67939,488.88059 -233.34524,483.8527 -233.34524,480.11077 C -233.34524,474.18762 -233.26674,468.69026 -235.36554,463.44325 C -237.44154,458.25326 -235.46438,451.93623 -236.88077,446.27066 C -238.18148,441.06784 -239.91123,434.38741 -239.91123,429.09806 C -239.91123,422.89887 -247.24206,416.68757 -248.49753,410.41024"
         style="fill:#ff0000;fill-rule:evenodd;stroke:#000000;stroke-width:1px;stroke-linecap:butt;stroke-linejoin:miter;stroke-opacity:1" />
      <path
         id="path2433"
         d="M -248.49753,398.28841 C -250.72152,400.5124 -254.4437,395.76303 -257.5889,395.76303 C -262.56461,395.76303 -263.39643,400.05196 -264.15489,403.84425 C -264.75612,406.85038 -262.07979,409.45488 -260.11428,411.42039 C -258.78093,412.75374 -252.59349,411.92547 -250.51783,411.92547 C -247.7665,411.92547 -245.41939,405.67384 -244.96199,403.84425 C -244.15172,400.60318 -245.64579,399.4291 -248.49753,398.28841 z"
         style="fill:#ff0000;fill-rule:evenodd;stroke:#000000;stroke-width:1px;stroke-linecap:butt;stroke-linejoin:miter;stroke-opacity:1" />
      <g
         transform="matrix(0.7099249,0,0,0.9006873,50.309356,266.05002)"
         id="g2447">
        <path
           style="fill:#784421;fill-rule:evenodd;stroke:#000000;stroke-width:1px;stroke-linecap:butt;stroke-linejoin:miter;stroke-opacity:1"
           d="M -478.30723,174.53962 C -476.35416,173.56309 -471.91156,170.16425 -469.21586,167.46855 C -465.53542,163.78811 -461.13464,157.60923 -461.13464,166.96348 C -461.13464,172.45427 -461.13464,178.78676 -461.13464,184.64115 C -461.13464,192.20527 -464.67017,199.40413 -464.67017,207.36958 C -464.67017,212.61447 -467.38306,218.44494 -469.21586,223.02694 C -470.96684,227.40441 -471.74124,234.08955 -471.74124,239.18938 C -471.74124,240.53625 -471.74124,241.88312 -471.74124,243.22999 C -471.74124,246.05139 -473.24769,252.80889 -474.26662,254.84675 C -475.30639,256.92628 -474.7717,262.66284 -474.7717,264.94827 C -474.7717,267.58361 -476.16001,272.01677 -476.792,274.54472 C -477.59273,277.74762 -476.36509,281.53763 -479.31738,278.58533 C -480.60454,277.29817 -480.36378,272.37944 -480.83261,270.50411 C -481.56911,267.55812 -482.27989,265.28801 -482.85292,262.42289 C -483.28112,260.28188 -483.75898,256.8824 -484.36815,253.8366 C -484.98584,250.74815 -484.87322,247.40166 -484.87322,244.24015 C -484.87322,241.87804 -483.95387,238.54245 -483.35799,236.15893 C -482.65112,233.33142 -482.85292,230.14605 -482.85292,227.06755 C -482.85292,223.72152 -483.86307,220.52713 -483.86307,216.96603 C -483.86307,212.71987 -484.69072,208.47739 -483.86307,204.33912 C -483.02492,200.14837 -482.79854,193.62376 -480.83261,189.69191 C -479.89203,187.81074 -480.83261,182.76609 -480.83261,180.60054 C -480.83261,179.72688 -478.6122,175.30205 -478.30723,174.53962 z"
           id="path2443" />
        <path
           style="fill:#ff7f2a;fill-rule:evenodd;stroke:#000000;stroke-width:1px;stroke-linecap:butt;stroke-linejoin:miter;stroke-opacity:1"
           d="M -496.99505,163.93302 C -492.05806,163.55435 -485.25922,169.83954 -479.82246,172.01424 C -478.98067,172.35096 -478.13887,172.68767 -477.29708,173.02439 C -474.24281,174.2461 -475.78185,184.77315 -475.78185,187.16653 C -475.78185,194.40227 -476.792,200.40901 -476.792,207.36958 C -476.792,214.36533 -479.31738,220.95067 -479.31738,228.07771 C -479.31738,232.52871 -480.32754,237.70576 -480.32754,242.72492 C -480.32754,247.19497 -480.33634,251.78109 -479.31738,255.8569 C -478.59168,258.7597 -479.31738,262.91735 -479.31738,265.95843 C -479.31738,269.03148 -478.30723,271.74237 -478.30723,275.0498 C -478.30723,279.35496 -477.22441,280.96537 -477.80215,282.12087 C -479.424,285.36456 -480.69595,275.4598 -481.84276,272.01934 C -485.25405,261.7855 -483.89797,249.70874 -487.90368,239.69446 C -490.0129,234.4214 -489.67761,229.5806 -492.44937,224.03709 C -495.83949,217.25684 -496.27768,209.163 -499.01536,202.31882 C -500.70806,198.08706 -500.6045,193.07962 -502.55089,189.18683 C -503.91461,186.4594 -503.32255,182.56466 -504.06612,179.59038 C -504.7517,176.84807 -504.06612,172.88598 -504.06612,169.99393 C -504.06612,166.2625 -503.28284,164.55153 -500.02551,162.92287 C -499.07313,162.44668 -498.00521,163.5963 -496.99505,163.93302 z"
           id="path2441" />
        <path
           style="fill:#ffd42a;fill-rule:evenodd;stroke:#000000;stroke-width:1px;stroke-linecap:butt;stroke-linejoin:miter;stroke-opacity:1"
           d="M -488.91384,152.31626 C -488.91384,152.15607 -491.97359,156.54476 -498.51028,160.90256 C -501.36899,162.80836 -504.43063,164.24034 -505.07628,167.46855 C -506.01123,172.14334 -494.25604,173.37404 -491.94429,174.03454 C -488.05528,175.14569 -484.39194,176.05485 -480.32754,176.05485 C -476.57357,176.05485 -474.8639,173.07049 -471.74124,171.50916 C -468.67171,169.97439 -466.13235,167.44202 -463.15495,165.95332 C -461.6491,165.2004 -459.7375,165.54499 -458.10418,165.95332 C -455.10136,166.70403 -462.19398,161.24447 -464.67017,159.38733 C -467.70713,157.10961 -470.01187,155.63441 -473.25647,154.33657 C -475.81042,153.31499 -479.05032,153.51945 -481.84277,152.82134 C -484.76713,152.09025 -488.41841,152.41535 -491.43922,151.81119"
           id="path2445" />
      </g>
      <path
         id="path2437"
         d="M -344.21516,363.01975 C -350.22892,359.03375 -355.49817,361.95165 -362.56484,365.54986 C -371.17208,369.93249 -380.07476,377.52547 -386.70594,384.25441 C -393.65561,391.30652 -399.19061,399.59252 -406.51254,405.96199 C -412.91818,411.53435 -415.53815,422.28244 -418.15382,430.32512 C -420.30101,436.92733 -414.12184,440.6307 -410.69942,444.96513 C -405.1138,452.03924 -392.67943,452.21821 -386.63702,459.16419 C -382.72377,463.66261 -368.93321,465.98411 -362.93378,467.93527 C -356.60519,469.99347 -350.36586,471.49153 -344.04536,473.5471 C -338.18543,475.45289 -331.81421,475.4005 -325.64893,477.40559 C -319.86639,479.28621 -312.49299,478.03368 -307.77956,474.71927 C -302.51829,471.01961 -301.78148,466.07477 -299.899,460.2865 C -298.75678,456.77439 -298.53372,451.16133 -299.82459,448.62615 C -304.04624,440.33505 -320.77768,436.72373 -327.74118,431.58028 C -331.62224,428.71361 -336.584,428.25707 -339.92859,424.96106 C -343.65699,421.28684 -343.53581,413.12121 -344.20038,408.70053 C -345.15143,402.3741 -340.47702,395.61885 -338.43232,389.3318 C -336.8566,384.48676 -334.25565,378.71747 -333.91395,373.80557 C -333.66408,370.21387 -337.85029,367.3894 -339.72445,365.54246 C -341.48293,363.80953 -341.23223,363.98987 -344.21516,363.01975 z"
         style="fill:#ffffff;fill-rule:evenodd;stroke:#000000;stroke-width:1px;stroke-linecap:butt;stroke-linejoin:miter;stroke-opacity:1" />
      <path
         id="path2439"
         d="M -304.56099,446.77573 C -299.856,446.71679 -287.81643,440.10273 -279.30718,442.23004 C -273.89294,443.5836 -273.24626,449.60176 -273.24626,454.35188 C -273.24626,458.05757 -275.86119,460.9716 -278.29703,462.4331 C -281.97766,464.64148 -273.85206,471.22083 -275.77165,475.06 C -277.57058,478.65787 -281.83256,476.33615 -281.83256,481.62599 C -281.83256,485.88988 -282.59977,488.82813 -286.37825,490.71737 C -289.79046,492.42348 -295.21958,491.72752 -299.00515,491.72752 C -301.77437,491.72752 -307.47679,487.64663 -310.11683,485.6666 C -313.78239,482.91744 -313.96997,478.4836 -317.1879,476.07016 C -317.8527,475.57156 -317.1879,469.05578 -317.1879,467.98893 C -317.1879,465.27768 -315.20713,460.97058 -313.65237,458.89756 C -311.83435,456.47354 -311.00115,453.3423 -309.10668,450.81634 C -307.66065,448.8883 -306.80485,448.12205 -304.56099,446.77573 z"
         style="fill:#ffe6d5;fill-rule:evenodd;stroke:#000000;stroke-width:1px;stroke-linecap:butt;stroke-linejoin:miter;stroke-opacity:1" />
      <path
         id="path2452"
         d="M -163.64471,357.88231 C -164.39651,361.8983 -168.1904,367.17972 -168.1904,373.0346 C -168.1904,379.16503 -164.02983,383.37604 -161.62441,388.18688 C -161.28769,388.86032 -160.95097,389.53375 -160.61425,390.20719 C -157.5263,396.38309 -150.2413,400.92945 -146.9772,406.36963 C -142.18209,414.36148 -141.05154,422.30663 -136.37059,430.10821 C -132.88687,435.91441 -133.84521,445.97406 -133.84521,452.83665 C -133.84521,458.14567 -132.83506,464.3277 -132.83506,470.00924 C -132.83506,474.47237 -133.54038,479.44031 -131.31983,483.14122 C -128.90402,487.16757 -129.64351,493.74782 -123.74369,493.74782 C -117.00934,493.74782 -110.27499,493.74782 -103.54064,493.74782 C -97.653718,493.74782 -93.024268,489.3826 -90.408653,484.15138 C -86.464147,476.26236 -82.327432,467.87848 -82.327432,458.89756 C -82.327432,447.63898 -81.572878,439.69854 -86.368043,430.10821 C -87.041478,428.76134 -87.714913,427.41447 -88.388348,426.0676 C -92.96153,416.92124 -96.545364,408.74342 -101.01525,399.80364 C -105.00002,391.8341 -110.05625,383.1865 -116.67262,376.57013 C -117.34605,375.89669 -118.01949,375.22326 -118.69292,374.54982 C -122.87332,370.36943 -127.481,367.07488 -132.32998,363.43815 C -136.50076,360.31006 -140.38903,354.85628 -145.46197,353.8417 C -154.1687,352.10035 -161.42807,352.3407 -164.65486,360.40769 C -164.88031,360.9713 -165.3283,361.41784 -165.66502,361.92292"
         style="fill:#ffffff;fill-rule:evenodd;stroke:#000000;stroke-width:1px;stroke-linecap:butt;stroke-linejoin:miter;stroke-opacity:1" />
    </g>
    <text
       xml:space="preserve"
       style="font-size:20px;font-style:normal;font-weight:normal;fill:#000000;fill-opacity:1;stroke:none;stroke-width:1px;stroke-linecap:butt;stroke-linejoin:miter;stroke-opacity:1;font-family:Bitstream Vera Sans"
       x="56.692909"
       y="761.81104"
       id="text20449"><tspan
         sodipodi:role="line"
         x="56.692909"
         y="761.81104"
         id="tspan21439">Local topic analysis  is relevant to </tspan><tspan
         sodipodi:role="line"
         x="56.692909"
         y="786.81104"
         id="tspan23620">software because we care about</tspan><tspan
         sodipodi:role="line"
         x="56.692909"
         y="811.81104"
         id="tspan23622">what just occurred and often deal</tspan><tspan
         sodipodi:role="line"
         x="56.692909"
         y="836.81104"
         id="tspan23624">with iterations of development</tspan></text>
    <text
       xml:space="preserve"
       style="font-size:20px;font-style:normal;font-weight:normal;fill:#000000;fill-opacity:1;stroke:none;stroke-width:1px;stroke-linecap:butt;stroke-linejoin:miter;stroke-opacity:1;font-family:Bitstream Vera Sans"
       x="184.25197"
       y="903.54327"
       id="text21447"><tspan
         sodipodi:role="line"
         x="184.25197"
         y="903.54327"
         id="tspan21453">One iteration might have</tspan><tspan
         sodipodi:role="line"
         x="184.25197"
         y="928.54327"
         id="tspan23631">totally different develop-</tspan><tspan
         sodipodi:role="line"
         x="184.25197"
         y="953.54327"
         id="tspan23635">ment topics than another</tspan></text>
    <path
       style="fill:none;fill-rule:evenodd;stroke:#000000;stroke-width:1px;stroke-linecap:butt;stroke-linejoin:miter;stroke-opacity:1"
       d="M 145.82985,898.28224 C 150.96546,897.38511 154.52132,886.99414 158.81296,882.70251 C 161.86278,879.65269 162.05873,873.17763 162.05873,869.07024 C 162.05873,865.0042 163.636,861.37684 162.70789,856.73629 C 161.62772,851.33543 175.26687,851.45303 178.28762,850.24473 C 186.7853,846.84566 203.41215,849.59558 212.69286,849.59558 C 225.05987,849.59558 236.73304,847.64811 249.69472,847.64811 C 263.59185,847.64811 278.25656,846.3498 292.53899,846.3498 C 304.20564,846.3498 323.60953,845.98076 333.43578,850.89389 C 344.26463,856.30831 371.81033,850.89389 384.06991,850.89389 C 385.36822,850.89389 386.66653,850.89389 387.96484,850.89389 C 393.91452,850.89389 401.40317,849.15383 406.79035,846.99895 C 416.95495,842.93312 425.12587,840.4119 434.70404,834.665 C 441.61757,830.51688 441.40027,825.06513 443.79221,819.08527 C 445.9306,813.73929 445.09052,801.78428 445.09052,796.36482 C 445.09052,790.21956 445.2276,782.35755 442.4939,776.89016 C 437.9788,767.85996 436.56701,759.43853 431.45826,750.92394 C 427.46754,744.27274 424.39626,743.82259 417.82599,740.53745 C 410.69405,736.97148 384.64357,737.29167 375.63089,737.29167 C 363.10834,737.29167 350.75068,734.69505 337.97987,734.69505 C 325.97865,734.69505 314.70646,732.74759 302.27632,732.74759 C 289.75395,732.74759 277.8445,730.15096 265.27446,730.15096 C 246.6974,730.15096 228.23497,726.25603 209.44708,726.25603 C 193.82754,726.25603 172.19462,722.66102 157.51465,727.55434 C 150.56991,729.86926 137.67398,729.50181 130.25012,729.50181 C 118.09192,729.50181 106.25598,733.39674 93.897402,733.39674 C 81.793634,733.39674 70.619023,735.99336 58.193851,735.99336 C 53.167264,735.99336 39.902837,738.05549 36.122565,741.83576 C 32.500549,745.45778 29.831624,748.4926 27.034388,752.22225 C 23.613644,756.78324 20.030776,764.65697 18.595367,770.3986 C 16.959121,776.94359 16.6479,784.18629 16.6479,791.82074 C 16.6479,802.47002 14.700434,811.15949 14.700434,821.68189 C 14.700434,826.81261 16.165312,828.91444 17.946211,833.36669 C 19.424217,837.0617 22.28703,840.95329 25.086921,843.75318 C 28.789989,847.45625 31.661861,848.46045 36.122565,850.24473 C 40.825648,852.12597 45.717468,851.90405 50.403985,852.84135 C 57.875258,854.33561 65.631447,854.78882 73.773582,854.78882 C 84.59284,854.78882 95.412098,854.78882 106.23136,854.78882 C 113.88036,854.78882 121.8207,854.13967 129.60096,854.13967 C 136.75105,854.13967 144.51094,855.10825 151.02309,856.73629 C 151.85048,856.94313 151.67225,867.20124 151.67225,868.42109 C 151.67225,871.67559 151.03075,876.17266 150.37394,879.45673 C 149.62728,883.19 148.51841,886.13776 147.77731,889.84322 C 147.21775,892.64103 146.4174,895.34447 145.82985,898.28224 z"
       id="path21459" />
    <path
       style="fill:none;fill-rule:evenodd;stroke:#000000;stroke-width:1px;stroke-linecap:butt;stroke-linejoin:miter;stroke-opacity:1"
       d="M 154.26887,977.47921 C 153.96682,978.98943 167.06384,974.65208 169.19944,973.58427 C 170.06498,973.1515 170.93053,972.71873 171.79607,972.28596 C 175.66537,970.35131 179.38496,969.67778 182.83171,967.09272 C 189.06944,962.41442 191.70886,965.14525 199.70975,965.14525 C 209.12795,965.14525 223.17023,966.31536 232.16753,969.68934 C 242.55526,973.58474 261.37864,970.98765 272.41517,970.98765 C 274.14625,970.98765 275.87733,970.98765 277.60841,970.98765 C 290.23395,970.98765 303.64301,972.28596 316.55774,972.28596 C 332.5006,972.28596 346.67637,968.39103 362.64778,968.39103 C 369.43445,968.39103 377.00441,967.74187 384.06991,967.74187 C 391.92051,967.74187 399.78784,968.39103 407.43951,968.39103 C 415.61872,968.39103 422.58606,969.68934 430.15995,969.68934 C 437.87609,969.68934 440.45403,962.67184 444.44137,957.35539 C 447.77958,952.90443 445.73968,939.38886 445.73968,933.98579 C 445.73968,925.32262 446.35493,911.23145 440.54644,905.42295 C 438.78291,903.65943 437.67863,890.43479 437.30066,888.54491 C 435.82202,881.15172 402.9601,881.20937 397.70217,879.45673 C 388.63397,876.43399 373.48953,877.50926 363.94609,877.50926 C 348.73513,877.50926 334.18435,878.80757 319.15436,878.80757 C 307.25381,878.80757 277.91808,878.96241 268.52023,874.26349 C 259.83064,869.91869 241.11559,875.5618 232.16753,875.5618 C 213.92899,875.5618 195.49436,878.80757 177.63847,878.80757 C 172.22221,878.80757 172.44522,889.67416 172.44522,893.08899 C 172.44522,900.92296 171.79607,909.128 171.79607,917.10775 C 171.79607,923.17972 172.18584,928.53456 173.09438,933.98579 C 173.73942,937.85602 174.07202,941.76 173.09438,945.67059 C 172.12979,949.52895 170.97357,953.80714 169.19944,957.35539 C 166.99511,961.76406 159.88362,966.02206 156.21633,969.68934 C 153.42589,972.47978 143.91212,978.12836 150.37394,978.12836 C 151.69015,978.12836 152.97056,977.69559 154.26887,977.47921 z"
       id="path21461" />
  </g>
</svg>
