<?xml version="1.0" encoding="UTF-8" standalone="no"?>
<!-- Created with Inkscape (http://www.inkscape.org/) -->
<svg
   xmlns:dc="http://purl.org/dc/elements/1.1/"
   xmlns:cc="http://creativecommons.org/ns#"
   xmlns:rdf="http://www.w3.org/1999/02/22-rdf-syntax-ns#"
   xmlns:svg="http://www.w3.org/2000/svg"
   xmlns="http://www.w3.org/2000/svg"
   xmlns:sodipodi="http://sodipodi.sourceforge.net/DTD/sodipodi-0.dtd"
   xmlns:inkscape="http://www.inkscape.org/namespaces/inkscape"
   width="453.5433"
   height="340.15747"
   id="svg2"
   sodipodi:version="0.32"
   inkscape:version="0.46"
   sodipodi:docname="slide04-related-topic.svg"
   version="1.0"
   inkscape:output_extension="org.inkscape.output.svg.inkscape">
  <defs
     id="defs4">
    <inkscape:perspective
       sodipodi:type="inkscape:persp3d"
       inkscape:vp_x="0 : 170.07874 : 1"
       inkscape:vp_y="0 : 1000 : 0"
       inkscape:vp_z="453.5433 : 170.07874 : 1"
       inkscape:persp3d-origin="226.77165 : 113.38582 : 1"
       id="perspective8957" />
  </defs>
  <sodipodi:namedview
     id="base"
     pagecolor="#ffffff"
     bordercolor="#666666"
     borderopacity="1.0"
     gridtolerance="10000"
     guidetolerance="8.8"
     objecttolerance="10"
     inkscape:pageopacity="0.0"
     inkscape:pageshadow="2"
     inkscape:zoom="1.540463"
     inkscape:cx="226.77165"
     inkscape:cy="170.07874"
     inkscape:document-units="mm"
     inkscape:current-layer="layer1"
     inkscape:window-width="952"
     inkscape:window-height="1167"
     inkscape:window-x="0"
     inkscape:window-y="25"
     width="12.8cm"
     height="9.6cm"
     units="cm"
     showgrid="true"
     grid_units="mm"
     inkscape:object-paths="false"
     inkscape:grid-points="true"
     inkscape:grid-bbox="true"
     inkscape:guide-points="true"
     showguides="true"
     inkscape:guide-bbox="true">
    <sodipodi:guide
       orientation="vertical"
       position="56.476527"
       id="guide3573" />
    <sodipodi:guide
       orientation="horizontal"
       position="11.035643"
       id="guide3579" />
    <sodipodi:guide
       orientation="horizontal"
       position="24.018753"
       id="guide3886" />
    <sodipodi:guide
       orientation="horizontal"
       position="366.12369,285.62841"
       id="guide3988" />
    <sodipodi:guide
       orientation="horizontal"
       position="303.15561"
       id="guide4081" />
    <inkscape:grid
       id="GridFromPre046Settings"
       type="xygrid"
       originx="0px"
       originy="0px"
       spacingx="2mm"
       spacingy="2mm"
       color="#0000ff"
       empcolor="#0000ff"
       opacity="0.2"
       empopacity="0.4"
       empspacing="5" />
  </sodipodi:namedview>
  <metadata
     id="metadata7">
    <rdf:RDF>
      <cc:Work
         rdf:about="">
        <dc:format>image/svg+xml</dc:format>
        <dc:type
           rdf:resource="http://purl.org/dc/dcmitype/StillImage" />
      </cc:Work>
    </rdf:RDF>
  </metadata>
  <g
     inkscape:label="Layer 1"
     inkscape:groupmode="layer"
     id="layer1"
     transform="translate(4.149475e-6,-698.0315)">
    <g
       id="g8144"
       transform="translate(94.825826,18.575332)">
      <g
         transform="matrix(0.2244767,0,0,0.2244767,-35.823543,553.62022)"
         id="g3052">
        <g
           id="g3047"
           transform="translate(2.8571414,-8.5714286)">
          <path
             transform="translate(478.38922,853.73116)"
             d="M 344.28572,56.647896 L 166.51272,55.437218 L -6.219758,53.29804 L 83.715219,-100.05255 L 171.93404,-248.57368 L 259.77206,-94.012408 L 344.28572,56.647896 z"
             inkscape:randomized="0"
             inkscape:rounded="0"
             inkscape:flatsided="false"
             sodipodi:arg2="1.6050908"
             sodipodi:arg1="0.5331557"
             sodipodi:r2="101.70627"
             sodipodi:r1="202.37367"
             sodipodi:cy="-46.209248"
             sodipodi:cx="170"
             sodipodi:sides="3"
             id="path3027"
             style="fill:#000000;stroke-width:5;stroke-miterlimit:4;stroke-dasharray:none"
             sodipodi:type="star" />
          <path
             transform="matrix(0.7800193,0,0,0.7800193,519.41658,843.08911)"
             d="M 344.28572,56.647896 L 166.51272,55.437218 L -6.219758,53.29804 L 83.715219,-100.05255 L 171.93404,-248.57368 L 259.77206,-94.012408 L 344.28572,56.647896 z"
             inkscape:randomized="0"
             inkscape:rounded="0"
             inkscape:flatsided="false"
             sodipodi:arg2="1.6050908"
             sodipodi:arg1="0.5331557"
             sodipodi:r2="101.70627"
             sodipodi:r1="202.37367"
             sodipodi:cy="-46.209248"
             sodipodi:cx="170"
             sodipodi:sides="3"
             id="path3029"
             style="fill:#00ff00;stroke-width:5;stroke-miterlimit:4;stroke-dasharray:none"
             sodipodi:type="star" />
          <path
             d="M 477.98004,929.87013 C 514.02509,931.62548 550.12003,932.06708 586.19739,932.69058 C 670.4897,935.94398 754.80227,938.32608 839.15102,939.32848 L 830.91813,945.28118 C 746.25121,942.36358 661.54946,940.02848 576.83048,939.49608 C 538.16504,940.13398 499.48677,940.62778 460.84898,942.31658 L 477.98004,929.87013 z"
             id="path3031"
             style="fill:#00ff00;stroke-width:5;stroke-miterlimit:4;stroke-dasharray:none" />
        </g>
      </g>
      <text
         id="text7132"
         y="742.06891"
         x="85.863792"
         style="font-size:20px;font-style:normal;font-weight:normal;fill:#000000;fill-opacity:1;stroke:none;stroke-width:1px;stroke-linecap:butt;stroke-linejoin:miter;stroke-opacity:1;font-family:Bitstream Vera Sans"
         xml:space="preserve"><tspan
           y="742.06891"
           x="85.863792"
           id="tspan7134"
           sodipodi:role="line">delta</tspan></text>
    </g>
    <g
       id="g7857"
       transform="translate(40.479406,16.4734)">
      <g
         id="g7859"
         transform="matrix(0.2141804,0,0,0.2141804,102.8525,691.75309)">
        <g
           transform="translate(-518.57143,65.714286)"
           id="g7861">
          <path
             sodipodi:type="star"
             style="fill:#000000;stroke-width:5;stroke-miterlimit:4;stroke-dasharray:none"
             id="path7863"
             sodipodi:sides="3"
             sodipodi:cx="170"
             sodipodi:cy="-46.209248"
             sodipodi:r1="202.37367"
             sodipodi:r2="101.70627"
             sodipodi:arg1="0.5331557"
             sodipodi:arg2="1.6050908"
             inkscape:flatsided="false"
             inkscape:rounded="0"
             inkscape:randomized="0"
             d="M 344.28572,56.647896 L 166.51272,55.437218 L -6.219758,53.29804 L 83.715219,-100.05255 L 171.93404,-248.57368 L 259.77206,-94.012408 L 344.28572,56.647896 z"
             transform="translate(58.389218,829.44544)" />
          <path
             sodipodi:type="star"
             style="fill:#ff0000;stroke-width:5;stroke-miterlimit:4;stroke-dasharray:none"
             id="path7865"
             sodipodi:sides="3"
             sodipodi:cx="170"
             sodipodi:cy="-46.209248"
             sodipodi:r1="202.37367"
             sodipodi:r2="101.70627"
             sodipodi:arg1="0.5331557"
             sodipodi:arg2="1.6050908"
             inkscape:flatsided="false"
             inkscape:rounded="0"
             inkscape:randomized="0"
             d="M 344.28572,56.647896 L 166.51272,55.437218 L -6.219758,53.29804 L 83.715219,-100.05255 L 171.93404,-248.57368 L 259.77206,-94.012408 L 344.28572,56.647896 z"
             transform="matrix(0.7800193,0,0,0.7800193,99.416579,818.80339)" />
          <path
             style="fill:#ff0000;stroke-width:5;stroke-miterlimit:4;stroke-dasharray:none"
             id="path7867"
             d="M 57.980037,905.58441 C 94.025089,907.33981 130.12003,907.78139 166.19739,908.4049 C 250.4897,911.65825 334.80227,914.04033 419.15102,915.04281 L 410.91813,920.99547 C 326.25121,918.07788 241.54946,915.74274 156.83048,915.21035 C 118.16504,915.84825 79.486769,916.3421 40.848979,918.03085 L 57.980037,905.58441 z" />
        </g>
      </g>
      <text
         xml:space="preserve"
         style="font-size:20px;font-style:normal;font-weight:normal;fill:#000000;fill-opacity:1;stroke:none;stroke-width:1px;stroke-linecap:butt;stroke-linejoin:miter;stroke-opacity:1;font-family:Bitstream Vera Sans"
         x="15.156291"
         y="885.08398"
         id="text7869"><tspan
           sodipodi:role="line"
           id="tspan7871"
           x="15.156291"
           y="885.08398">delta</tspan></text>
    </g>
    <g
       id="g8207"
       transform="translate(16.654133,29.54226)">
      <g
         id="g7782"
         transform="matrix(0.2016425,0,0,0.2016425,29.14907,864.52892)">
        <path
           transform="translate(594.10351,412.30254)"
           d="M 344.28572,56.647896 L 166.51272,55.437218 L -6.219758,53.29804 L 83.715219,-100.05255 L 171.93404,-248.57368 L 259.77206,-94.012408 L 344.28572,56.647896 z"
           inkscape:randomized="0"
           inkscape:rounded="0"
           inkscape:flatsided="false"
           sodipodi:arg2="1.6050908"
           sodipodi:arg1="0.5331557"
           sodipodi:r2="101.70627"
           sodipodi:r1="202.37367"
           sodipodi:cy="-46.209248"
           sodipodi:cx="170"
           sodipodi:sides="3"
           id="path7784"
           style="fill:#000000;stroke-width:5;stroke-miterlimit:4;stroke-dasharray:none"
           sodipodi:type="star" />
        <path
           transform="matrix(0.7800193,0,0,0.7800193,635.13087,401.66054)"
           d="M 344.28572,56.647896 L 166.51272,55.437218 L -6.219758,53.29804 L 83.715219,-100.05255 L 171.93404,-248.57368 L 259.77206,-94.012408 L 344.28572,56.647896 z"
           inkscape:randomized="0"
           inkscape:rounded="0"
           inkscape:flatsided="false"
           sodipodi:arg2="1.6050908"
           sodipodi:arg1="0.5331557"
           sodipodi:r2="101.70627"
           sodipodi:r1="202.37367"
           sodipodi:cy="-46.209248"
           sodipodi:cx="170"
           sodipodi:sides="3"
           id="path7786"
           style="fill:#ff00ff;stroke-width:5;stroke-miterlimit:4;stroke-dasharray:none"
           sodipodi:type="star" />
        <path
           d="M 593.69433,488.44154 C 629.73938,490.19694 665.83432,490.63854 701.91168,491.26204 C 786.20399,494.51544 870.5166,496.89754 954.8653,497.89994 L 946.6324,503.85264 C 861.9655,500.93504 777.26375,498.59994 692.54477,498.06754 C 653.87933,498.70544 615.20106,499.19924 576.56327,500.88804 L 593.69433,488.44154 z"
           id="path7788"
           style="fill:#ff00ff;stroke-width:5;stroke-miterlimit:4;stroke-dasharray:none" />
      </g>
      <text
         xml:space="preserve"
         style="font-size:20px;font-style:normal;font-weight:normal;fill:#000000;fill-opacity:1;stroke:none;stroke-width:1px;stroke-linecap:butt;stroke-linejoin:miter;stroke-opacity:1;font-family:Bitstream Vera Sans"
         x="159.96118"
         y="951.53088"
         id="text7800"><tspan
           sodipodi:role="line"
           id="tspan7802"
           x="159.96118"
           y="951.53088">delta</tspan></text>
    </g>
    <g
       id="g8215"
       transform="translate(111.32116,-80.441621)">
      <g
         id="g7772"
         transform="matrix(0.2016425,0,0,0.2016425,224.58403,780.65358)">
        <g
           id="g7774">
          <path
             sodipodi:type="star"
             style="fill:#000000;stroke-width:5;stroke-miterlimit:4;stroke-dasharray:none"
             id="path7776"
             sodipodi:sides="3"
             sodipodi:cx="170"
             sodipodi:cy="-46.209248"
             sodipodi:r1="202.37367"
             sodipodi:r2="101.70627"
             sodipodi:arg1="0.5331557"
             sodipodi:arg2="1.6050908"
             inkscape:flatsided="false"
             inkscape:rounded="0"
             inkscape:randomized="0"
             d="M 344.28572,56.647896 L 166.51272,55.437218 L -6.219758,53.29804 L 83.715219,-100.05255 L 171.93404,-248.57368 L 259.77206,-94.012408 L 344.28572,56.647896 z"
             transform="translate(28.389222,872.30258)" />
          <path
             sodipodi:type="star"
             style="fill:#0000ff;stroke-width:5;stroke-miterlimit:4;stroke-dasharray:none"
             id="path7778"
             sodipodi:sides="3"
             sodipodi:cx="170"
             sodipodi:cy="-46.209248"
             sodipodi:r1="202.37367"
             sodipodi:r2="101.70627"
             sodipodi:arg1="0.5331557"
             sodipodi:arg2="1.6050908"
             inkscape:flatsided="false"
             inkscape:rounded="0"
             inkscape:randomized="0"
             d="M 344.28572,56.647896 L 166.51272,55.437218 L -6.219758,53.29804 L 83.715219,-100.05255 L 171.93404,-248.57368 L 259.77206,-94.012408 L 344.28572,56.647896 z"
             transform="matrix(0.7800193,0,0,0.7800193,69.416582,861.66053)" />
          <path
             style="fill:#0000ff;stroke-width:5;stroke-miterlimit:4;stroke-dasharray:none"
             id="path7780"
             d="M 27.980042,948.44155 C 64.025092,950.1969 100.12003,950.6385 136.19739,951.262 C 220.4897,954.5154 304.80227,956.8975 389.15102,957.8999 L 380.91813,963.8526 C 296.25121,960.935 211.54946,958.5999 126.83048,958.0675 C 88.165042,958.7054 49.486772,959.1992 10.848982,960.888 L 27.980042,948.44155 z" />
        </g>
      </g>
      <text
         xml:space="preserve"
         style="font-size:20px;font-style:normal;font-weight:normal;fill:#000000;fill-opacity:1;stroke:none;stroke-width:1px;stroke-linecap:butt;stroke-linejoin:miter;stroke-opacity:1;font-family:Bitstream Vera Sans"
         x="241.75479"
         y="961.91742"
         id="text7804"><tspan
           sodipodi:role="line"
           id="tspan7806"
           x="241.75479"
           y="961.91742">delta</tspan></text>
    </g>
    <g
       transform="translate(135.48811,-61.175161)"
       id="g8254">
      <g
         transform="matrix(0.2016425,0,0,0.2016425,224.58403,780.65358)"
         id="g8256">
        <g
           id="g8258">
          <path
             transform="translate(28.389222,872.30258)"
             d="M 344.28572,56.647896 L 166.51272,55.437218 L -6.219758,53.29804 L 83.715219,-100.05255 L 171.93404,-248.57368 L 259.77206,-94.012408 L 344.28572,56.647896 z"
             inkscape:randomized="0"
             inkscape:rounded="0"
             inkscape:flatsided="false"
             sodipodi:arg2="1.6050908"
             sodipodi:arg1="0.5331557"
             sodipodi:r2="101.70627"
             sodipodi:r1="202.37367"
             sodipodi:cy="-46.209248"
             sodipodi:cx="170"
             sodipodi:sides="3"
             id="path8260"
             style="fill:#000000;stroke-width:5;stroke-miterlimit:4;stroke-dasharray:none"
             sodipodi:type="star" />
          <path
             transform="matrix(0.7800193,0,0,0.7800193,69.416582,861.66053)"
             d="M 344.28572,56.647896 L 166.51272,55.437218 L -6.219758,53.29804 L 83.715219,-100.05255 L 171.93404,-248.57368 L 259.77206,-94.012408 L 344.28572,56.647896 z"
             inkscape:randomized="0"
             inkscape:rounded="0"
             inkscape:flatsided="false"
             sodipodi:arg2="1.6050908"
             sodipodi:arg1="0.5331557"
             sodipodi:r2="101.70627"
             sodipodi:r1="202.37367"
             sodipodi:cy="-46.209248"
             sodipodi:cx="170"
             sodipodi:sides="3"
             id="path8262"
             style="fill:#0000ff;stroke-width:5;stroke-miterlimit:4;stroke-dasharray:none"
             sodipodi:type="star" />
          <path
             d="M 27.980042,948.44155 C 64.025092,950.1969 100.12003,950.6385 136.19739,951.262 C 220.4897,954.5154 304.80227,956.8975 389.15102,957.8999 L 380.91813,963.8526 C 296.25121,960.935 211.54946,958.5999 126.83048,958.0675 C 88.165042,958.7054 49.486772,959.1992 10.848982,960.888 L 27.980042,948.44155 z"
             id="path8264"
             style="fill:#0000ff;stroke-width:5;stroke-miterlimit:4;stroke-dasharray:none" />
        </g>
      </g>
      <text
         id="text8266"
         y="961.91742"
         x="241.75479"
         style="font-size:20px;font-style:normal;font-weight:normal;fill:#000000;fill-opacity:1;stroke:none;stroke-width:1px;stroke-linecap:butt;stroke-linejoin:miter;stroke-opacity:1;font-family:Bitstream Vera Sans"
         xml:space="preserve"><tspan
           y="961.91742"
           x="241.75479"
           id="tspan8268"
           sodipodi:role="line">delta</tspan></text>
    </g>
    <g
       transform="translate(8.6067081,-6.9166603)"
       id="g8270">
      <g
         transform="matrix(0.2141804,0,0,0.2141804,102.8525,691.75309)"
         id="g8272">
        <g
           id="g8274"
           transform="translate(-518.57143,65.714286)">
          <path
             transform="translate(58.389218,829.44544)"
             d="M 344.28572,56.647896 L 166.51272,55.437218 L -6.219758,53.29804 L 83.715219,-100.05255 L 171.93404,-248.57368 L 259.77206,-94.012408 L 344.28572,56.647896 z"
             inkscape:randomized="0"
             inkscape:rounded="0"
             inkscape:flatsided="false"
             sodipodi:arg2="1.6050908"
             sodipodi:arg1="0.5331557"
             sodipodi:r2="101.70627"
             sodipodi:r1="202.37367"
             sodipodi:cy="-46.209248"
             sodipodi:cx="170"
             sodipodi:sides="3"
             id="path8276"
             style="fill:#000000;stroke-width:5;stroke-miterlimit:4;stroke-dasharray:none"
             sodipodi:type="star" />
          <path
             transform="matrix(0.7800193,0,0,0.7800193,99.416579,818.80339)"
             d="M 344.28572,56.647896 L 166.51272,55.437218 L -6.219758,53.29804 L 83.715219,-100.05255 L 171.93404,-248.57368 L 259.77206,-94.012408 L 344.28572,56.647896 z"
             inkscape:randomized="0"
             inkscape:rounded="0"
             inkscape:flatsided="false"
             sodipodi:arg2="1.6050908"
             sodipodi:arg1="0.5331557"
             sodipodi:r2="101.70627"
             sodipodi:r1="202.37367"
             sodipodi:cy="-46.209248"
             sodipodi:cx="170"
             sodipodi:sides="3"
             id="path8278"
             style="fill:#ff0000;stroke-width:5;stroke-miterlimit:4;stroke-dasharray:none"
             sodipodi:type="star" />
          <path
             d="M 57.980037,905.58441 C 94.025089,907.33981 130.12003,907.78139 166.19739,908.4049 C 250.4897,911.65825 334.80227,914.04033 419.15102,915.04281 L 410.91813,920.99547 C 326.25121,918.07788 241.54946,915.74274 156.83048,915.21035 C 118.16504,915.84825 79.486769,916.3421 40.848979,918.03085 L 57.980037,905.58441 z"
             id="path8280"
             style="fill:#ff0000;stroke-width:5;stroke-miterlimit:4;stroke-dasharray:none" />
        </g>
      </g>
      <text
         id="text8282"
         y="885.08398"
         x="15.156291"
         style="font-size:20px;font-style:normal;font-weight:normal;fill:#000000;fill-opacity:1;stroke:none;stroke-width:1px;stroke-linecap:butt;stroke-linejoin:miter;stroke-opacity:1;font-family:Bitstream Vera Sans"
         xml:space="preserve"><tspan
           y="885.08398"
           x="15.156291"
           id="tspan8284"
           sodipodi:role="line">delta</tspan></text>
    </g>
    <g
       id="g8286"
       transform="translate(76.827815,-11.24616)">
      <g
         id="g8288"
         transform="matrix(0.2141804,0,0,0.2141804,102.8525,691.75309)">
        <g
           transform="translate(-518.57143,65.714286)"
           id="g8290">
          <path
             sodipodi:type="star"
             style="fill:#000000;stroke-width:5;stroke-miterlimit:4;stroke-dasharray:none"
             id="path8292"
             sodipodi:sides="3"
             sodipodi:cx="170"
             sodipodi:cy="-46.209248"
             sodipodi:r1="202.37367"
             sodipodi:r2="101.70627"
             sodipodi:arg1="0.5331557"
             sodipodi:arg2="1.6050908"
             inkscape:flatsided="false"
             inkscape:rounded="0"
             inkscape:randomized="0"
             d="M 344.28572,56.647896 L 166.51272,55.437218 L -6.219758,53.29804 L 83.715219,-100.05255 L 171.93404,-248.57368 L 259.77206,-94.012408 L 344.28572,56.647896 z"
             transform="translate(58.389218,829.44544)" />
          <path
             sodipodi:type="star"
             style="fill:#ff0000;stroke-width:5;stroke-miterlimit:4;stroke-dasharray:none"
             id="path8294"
             sodipodi:sides="3"
             sodipodi:cx="170"
             sodipodi:cy="-46.209248"
             sodipodi:r1="202.37367"
             sodipodi:r2="101.70627"
             sodipodi:arg1="0.5331557"
             sodipodi:arg2="1.6050908"
             inkscape:flatsided="false"
             inkscape:rounded="0"
             inkscape:randomized="0"
             d="M 344.28572,56.647896 L 166.51272,55.437218 L -6.219758,53.29804 L 83.715219,-100.05255 L 171.93404,-248.57368 L 259.77206,-94.012408 L 344.28572,56.647896 z"
             transform="matrix(0.7800193,0,0,0.7800193,99.416579,818.80339)" />
          <path
             style="fill:#ff0000;stroke-width:5;stroke-miterlimit:4;stroke-dasharray:none"
             id="path8296"
             d="M 57.980037,905.58441 C 94.025089,907.33981 130.12003,907.78139 166.19739,908.4049 C 250.4897,911.65825 334.80227,914.04033 419.15102,915.04281 L 410.91813,920.99547 C 326.25121,918.07788 241.54946,915.74274 156.83048,915.21035 C 118.16504,915.84825 79.486769,916.3421 40.848979,918.03085 L 57.980037,905.58441 z" />
        </g>
      </g>
      <text
         xml:space="preserve"
         style="font-size:20px;font-style:normal;font-weight:normal;fill:#000000;fill-opacity:1;stroke:none;stroke-width:1px;stroke-linecap:butt;stroke-linejoin:miter;stroke-opacity:1;font-family:Bitstream Vera Sans"
         x="15.156291"
         y="885.08398"
         id="text8298"><tspan
           sodipodi:role="line"
           id="tspan8300"
           x="15.156291"
           y="885.08398">delta</tspan></text>
    </g>
    <g
       transform="translate(38.184326,-35.53051)"
       id="g8302">
      <g
         transform="matrix(0.2141804,0,0,0.2141804,102.8525,691.75309)"
         id="g8304">
        <g
           id="g8306"
           transform="translate(-518.57143,65.714286)">
          <path
             transform="translate(58.389218,829.44544)"
             d="M 344.28572,56.647896 L 166.51272,55.437218 L -6.219758,53.29804 L 83.715219,-100.05255 L 171.93404,-248.57368 L 259.77206,-94.012408 L 344.28572,56.647896 z"
             inkscape:randomized="0"
             inkscape:rounded="0"
             inkscape:flatsided="false"
             sodipodi:arg2="1.6050908"
             sodipodi:arg1="0.5331557"
             sodipodi:r2="101.70627"
             sodipodi:r1="202.37367"
             sodipodi:cy="-46.209248"
             sodipodi:cx="170"
             sodipodi:sides="3"
             id="path8308"
             style="fill:#000000;stroke-width:5;stroke-miterlimit:4;stroke-dasharray:none"
             sodipodi:type="star" />
          <path
             transform="matrix(0.7800193,0,0,0.7800193,99.416579,818.80339)"
             d="M 344.28572,56.647896 L 166.51272,55.437218 L -6.219758,53.29804 L 83.715219,-100.05255 L 171.93404,-248.57368 L 259.77206,-94.012408 L 344.28572,56.647896 z"
             inkscape:randomized="0"
             inkscape:rounded="0"
             inkscape:flatsided="false"
             sodipodi:arg2="1.6050908"
             sodipodi:arg1="0.5331557"
             sodipodi:r2="101.70627"
             sodipodi:r1="202.37367"
             sodipodi:cy="-46.209248"
             sodipodi:cx="170"
             sodipodi:sides="3"
             id="path8310"
             style="fill:#ff0000;stroke-width:5;stroke-miterlimit:4;stroke-dasharray:none"
             sodipodi:type="star" />
          <path
             d="M 57.980037,905.58441 C 94.025089,907.33981 130.12003,907.78139 166.19739,908.4049 C 250.4897,911.65825 334.80227,914.04033 419.15102,915.04281 L 410.91813,920.99547 C 326.25121,918.07788 241.54946,915.74274 156.83048,915.21035 C 118.16504,915.84825 79.486769,916.3421 40.848979,918.03085 L 57.980037,905.58441 z"
             id="path8312"
             style="fill:#ff0000;stroke-width:5;stroke-miterlimit:4;stroke-dasharray:none" />
        </g>
      </g>
      <text
         id="text8314"
         y="885.08398"
         x="15.156291"
         style="font-size:20px;font-style:normal;font-weight:normal;fill:#000000;fill-opacity:1;stroke:none;stroke-width:1px;stroke-linecap:butt;stroke-linejoin:miter;stroke-opacity:1;font-family:Bitstream Vera Sans"
         xml:space="preserve"><tspan
           y="885.08398"
           x="15.156291"
           id="tspan8316"
           sodipodi:role="line">delta</tspan></text>
    </g>
    <g
       transform="translate(146.29821,12.094512)"
       id="g8334">
      <g
         id="g8336"
         transform="matrix(0.2244767,0,0,0.2244767,-35.823543,553.62022)">
        <g
           transform="translate(2.8571414,-8.5714286)"
           id="g8338">
          <path
             sodipodi:type="star"
             style="fill:#000000;stroke-width:5;stroke-miterlimit:4;stroke-dasharray:none"
             id="path8340"
             sodipodi:sides="3"
             sodipodi:cx="170"
             sodipodi:cy="-46.209248"
             sodipodi:r1="202.37367"
             sodipodi:r2="101.70627"
             sodipodi:arg1="0.5331557"
             sodipodi:arg2="1.6050908"
             inkscape:flatsided="false"
             inkscape:rounded="0"
             inkscape:randomized="0"
             d="M 344.28572,56.647896 L 166.51272,55.437218 L -6.219758,53.29804 L 83.715219,-100.05255 L 171.93404,-248.57368 L 259.77206,-94.012408 L 344.28572,56.647896 z"
             transform="translate(478.38922,853.73116)" />
          <path
             sodipodi:type="star"
             style="fill:#00ff00;stroke-width:5;stroke-miterlimit:4;stroke-dasharray:none"
             id="path8342"
             sodipodi:sides="3"
             sodipodi:cx="170"
             sodipodi:cy="-46.209248"
             sodipodi:r1="202.37367"
             sodipodi:r2="101.70627"
             sodipodi:arg1="0.5331557"
             sodipodi:arg2="1.6050908"
             inkscape:flatsided="false"
             inkscape:rounded="0"
             inkscape:randomized="0"
             d="M 344.28572,56.647896 L 166.51272,55.437218 L -6.219758,53.29804 L 83.715219,-100.05255 L 171.93404,-248.57368 L 259.77206,-94.012408 L 344.28572,56.647896 z"
             transform="matrix(0.7800193,0,0,0.7800193,519.41658,843.08911)" />
          <path
             style="fill:#00ff00;stroke-width:5;stroke-miterlimit:4;stroke-dasharray:none"
             id="path8344"
             d="M 477.98004,929.87013 C 514.02509,931.62548 550.12003,932.06708 586.19739,932.69058 C 670.4897,935.94398 754.80227,938.32608 839.15102,939.32848 L 830.91813,945.28118 C 746.25121,942.36358 661.54946,940.02848 576.83048,939.49608 C 538.16504,940.13398 499.48677,940.62778 460.84898,942.31658 L 477.98004,929.87013 z" />
        </g>
      </g>
      <text
         xml:space="preserve"
         style="font-size:20px;font-style:normal;font-weight:normal;fill:#000000;fill-opacity:1;stroke:none;stroke-width:1px;stroke-linecap:butt;stroke-linejoin:miter;stroke-opacity:1;font-family:Bitstream Vera Sans"
         x="85.863792"
         y="742.06891"
         id="text8346"><tspan
           sodipodi:role="line"
           id="tspan8348"
           x="85.863792"
           y="742.06891">delta</tspan></text>
    </g>
    <g
       id="g8350"
       transform="translate(118.67125,36.153557)">
      <g
         transform="matrix(0.2244767,0,0,0.2244767,-35.823543,553.62022)"
         id="g8352">
        <g
           id="g8354"
           transform="translate(2.8571414,-8.5714286)">
          <path
             transform="translate(478.38922,853.73116)"
             d="M 344.28572,56.647896 L 166.51272,55.437218 L -6.219758,53.29804 L 83.715219,-100.05255 L 171.93404,-248.57368 L 259.77206,-94.012408 L 344.28572,56.647896 z"
             inkscape:randomized="0"
             inkscape:rounded="0"
             inkscape:flatsided="false"
             sodipodi:arg2="1.6050908"
             sodipodi:arg1="0.5331557"
             sodipodi:r2="101.70627"
             sodipodi:r1="202.37367"
             sodipodi:cy="-46.209248"
             sodipodi:cx="170"
             sodipodi:sides="3"
             id="path8356"
             style="fill:#000000;stroke-width:5;stroke-miterlimit:4;stroke-dasharray:none"
             sodipodi:type="star" />
          <path
             transform="matrix(0.7800193,0,0,0.7800193,519.41658,843.08911)"
             d="M 344.28572,56.647896 L 166.51272,55.437218 L -6.219758,53.29804 L 83.715219,-100.05255 L 171.93404,-248.57368 L 259.77206,-94.012408 L 344.28572,56.647896 z"
             inkscape:randomized="0"
             inkscape:rounded="0"
             inkscape:flatsided="false"
             sodipodi:arg2="1.6050908"
             sodipodi:arg1="0.5331557"
             sodipodi:r2="101.70627"
             sodipodi:r1="202.37367"
             sodipodi:cy="-46.209248"
             sodipodi:cx="170"
             sodipodi:sides="3"
             id="path8358"
             style="fill:#00ff00;stroke-width:5;stroke-miterlimit:4;stroke-dasharray:none"
             sodipodi:type="star" />
          <path
             d="M 477.98004,929.87013 C 514.02509,931.62548 550.12003,932.06708 586.19739,932.69058 C 670.4897,935.94398 754.80227,938.32608 839.15102,939.32848 L 830.91813,945.28118 C 746.25121,942.36358 661.54946,940.02848 576.83048,939.49608 C 538.16504,940.13398 499.48677,940.62778 460.84898,942.31658 L 477.98004,929.87013 z"
             id="path8360"
             style="fill:#00ff00;stroke-width:5;stroke-miterlimit:4;stroke-dasharray:none" />
        </g>
      </g>
      <text
         id="text8362"
         y="742.06891"
         x="85.863792"
         style="font-size:20px;font-style:normal;font-weight:normal;fill:#000000;fill-opacity:1;stroke:none;stroke-width:1px;stroke-linecap:butt;stroke-linejoin:miter;stroke-opacity:1;font-family:Bitstream Vera Sans"
         xml:space="preserve"><tspan
           y="742.06891"
           x="85.863792"
           id="tspan8364"
           sodipodi:role="line">delta</tspan></text>
    </g>
    <g
       id="g8366"
       transform="translate(49.185722,18.54905)">
      <g
         transform="matrix(0.2016425,0,0,0.2016425,29.14907,864.52892)"
         id="g8368">
        <path
           sodipodi:type="star"
           style="fill:#000000;stroke-width:5;stroke-miterlimit:4;stroke-dasharray:none"
           id="path8370"
           sodipodi:sides="3"
           sodipodi:cx="170"
           sodipodi:cy="-46.209248"
           sodipodi:r1="202.37367"
           sodipodi:r2="101.70627"
           sodipodi:arg1="0.5331557"
           sodipodi:arg2="1.6050908"
           inkscape:flatsided="false"
           inkscape:rounded="0"
           inkscape:randomized="0"
           d="M 344.28572,56.647896 L 166.51272,55.437218 L -6.219758,53.29804 L 83.715219,-100.05255 L 171.93404,-248.57368 L 259.77206,-94.012408 L 344.28572,56.647896 z"
           transform="translate(594.10351,412.30254)" />
        <path
           sodipodi:type="star"
           style="fill:#ff00ff;stroke-width:5;stroke-miterlimit:4;stroke-dasharray:none"
           id="path8372"
           sodipodi:sides="3"
           sodipodi:cx="170"
           sodipodi:cy="-46.209248"
           sodipodi:r1="202.37367"
           sodipodi:r2="101.70627"
           sodipodi:arg1="0.5331557"
           sodipodi:arg2="1.6050908"
           inkscape:flatsided="false"
           inkscape:rounded="0"
           inkscape:randomized="0"
           d="M 344.28572,56.647896 L 166.51272,55.437218 L -6.219758,53.29804 L 83.715219,-100.05255 L 171.93404,-248.57368 L 259.77206,-94.012408 L 344.28572,56.647896 z"
           transform="matrix(0.7800193,0,0,0.7800193,635.13087,401.66054)" />
        <path
           style="fill:#ff00ff;stroke-width:5;stroke-miterlimit:4;stroke-dasharray:none"
           id="path8374"
           d="M 593.69433,488.44154 C 629.73938,490.19694 665.83432,490.63854 701.91168,491.26204 C 786.20399,494.51544 870.5166,496.89754 954.8653,497.89994 L 946.6324,503.85264 C 861.9655,500.93504 777.26375,498.59994 692.54477,498.06754 C 653.87933,498.70544 615.20106,499.19924 576.56327,500.88804 L 593.69433,488.44154 z" />
      </g>
      <text
         id="text8376"
         y="951.53088"
         x="159.96118"
         style="font-size:20px;font-style:normal;font-weight:normal;fill:#000000;fill-opacity:1;stroke:none;stroke-width:1px;stroke-linecap:butt;stroke-linejoin:miter;stroke-opacity:1;font-family:Bitstream Vera Sans"
         xml:space="preserve"><tspan
           y="951.53088"
           x="159.96118"
           id="tspan8378"
           sodipodi:role="line">delta</tspan></text>
    </g>
    <text
       xml:space="preserve"
       style="font-size:20px;font-style:normal;font-weight:normal;fill:#000000;fill-opacity:1;stroke:none;stroke-width:1px;stroke-linecap:butt;stroke-linejoin:miter;stroke-opacity:1;font-family:Bitstream Vera Sans"
       x="14.173224"
       y="938.97638"
       id="text9107"><tspan
         sodipodi:role="line"
         id="tspan9109"
         x="14.173224"
         y="938.97638">Database</tspan><tspan
         sodipodi:role="line"
         x="14.173224"
         y="963.97638"
         id="tspan9111">Support</tspan></text>
    <text
       xml:space="preserve"
       style="font-size:20px;font-style:normal;font-weight:normal;fill:#000000;fill-opacity:1;stroke:none;stroke-width:1px;stroke-linecap:butt;stroke-linejoin:miter;stroke-opacity:1;font-family:Bitstream Vera Sans"
       x="325.98425"
       y="931.88977"
       id="text9113"><tspan
         sodipodi:role="line"
         x="325.98425"
         y="931.88977"
         id="tspan9121">Performance</tspan><tspan
         sodipodi:role="line"
         x="325.98425"
         y="956.88977"
         id="tspan9129">Regression</tspan></text>
    <text
       xml:space="preserve"
       style="font-size:20px;font-style:normal;font-weight:normal;fill:#000000;fill-opacity:1;stroke:none;stroke-width:1px;stroke-linecap:butt;stroke-linejoin:miter;stroke-opacity:1;font-family:Bitstream Vera Sans"
       x="217.49678"
       y="815.85297"
       id="text9117"><tspan
         sodipodi:role="line"
         id="tspan9119"
         x="217.49678"
         y="815.85297">Bug Fixes</tspan></text>
    <text
       xml:space="preserve"
       style="font-size:20px;font-style:normal;font-weight:normal;fill:#000000;fill-opacity:1;stroke:none;stroke-width:1px;stroke-linecap:butt;stroke-linejoin:miter;stroke-opacity:1;font-family:Bitstream Vera Sans"
       x="172.78676"
       y="1015.1437"
       id="text9125"
       inkscape:transform-center-x="87.852386"
       inkscape:transform-center-y="49.389884"><tspan
         sodipodi:role="line"
         x="172.78676"
         y="1015.1437"
         id="tspan9127">Portability</tspan></text>
  </g>
</svg>
