<?xml version="1.0" encoding="UTF-8" standalone="no"?>
<!-- Created with Inkscape (http://www.inkscape.org/) -->
<svg
   xmlns:dc="http://purl.org/dc/elements/1.1/"
   xmlns:cc="http://creativecommons.org/ns#"
   xmlns:rdf="http://www.w3.org/1999/02/22-rdf-syntax-ns#"
   xmlns:svg="http://www.w3.org/2000/svg"
   xmlns="http://www.w3.org/2000/svg"
   xmlns:xlink="http://www.w3.org/1999/xlink"
   xmlns:sodipodi="http://sodipodi.sourceforge.net/DTD/sodipodi-0.dtd"
   xmlns:inkscape="http://www.inkscape.org/namespaces/inkscape"
   width="453.5433"
   height="340.15747"
   id="svg2"
   sodipodi:version="0.32"
   inkscape:version="0.46"
   sodipodi:docname="slide313-condensed-plot-local-trends.svg"
   version="1.0"
   inkscape:output_extension="org.inkscape.output.svg.inkscape">
  <defs
     id="defs4">
    <inkscape:perspective
       sodipodi:type="inkscape:persp3d"
       inkscape:vp_x="0 : 170.07874 : 1"
       inkscape:vp_y="0 : 1000 : 0"
       inkscape:vp_z="453.5433 : 170.07874 : 1"
       inkscape:persp3d-origin="226.77165 : 113.38582 : 1"
       id="perspective9052" />
    <inkscape:perspective
       id="perspective9098"
       inkscape:persp3d-origin="372.04724 : 350.78739 : 1"
       inkscape:vp_z="744.09448 : 526.18109 : 1"
       inkscape:vp_y="0 : 1000 : 0"
       inkscape:vp_x="0 : 526.18109 : 1"
       sodipodi:type="inkscape:persp3d" />
  </defs>
  <sodipodi:namedview
     id="base"
     pagecolor="#ffffff"
     bordercolor="#666666"
     borderopacity="1.0"
     gridtolerance="10000"
     guidetolerance="8.8"
     objecttolerance="10"
     inkscape:pageopacity="0.0"
     inkscape:pageshadow="2"
     inkscape:zoom="1.0892718"
     inkscape:cx="226.77165"
     inkscape:cy="224.44791"
     inkscape:document-units="mm"
     inkscape:current-layer="layer1"
     inkscape:window-width="1024"
     inkscape:window-height="768"
     inkscape:window-x="0"
     inkscape:window-y="0"
     width="12.8cm"
     height="9.6cm"
     units="cm"
     showgrid="false"
     grid_units="mm"
     inkscape:object-paths="false"
     inkscape:grid-points="true"
     inkscape:grid-bbox="true"
     inkscape:guide-points="true"
     showguides="true"
     inkscape:guide-bbox="true">
    <sodipodi:guide
       orientation="vertical"
       position="56.476527"
       id="guide3573" />
    <sodipodi:guide
       orientation="horizontal"
       position="11.035643"
       id="guide3579" />
    <sodipodi:guide
       orientation="horizontal"
       position="24.018753"
       id="guide3886" />
    <sodipodi:guide
       orientation="horizontal"
       position="285.62841"
       id="guide3988" />
    <sodipodi:guide
       orientation="horizontal"
       position="303.15561"
       id="guide4081" />
    <inkscape:grid
       id="GridFromPre046Settings"
       type="xygrid"
       originx="0px"
       originy="0px"
       spacingx="2mm"
       spacingy="2mm"
       color="#0000ff"
       empcolor="#0000ff"
       opacity="0.2"
       empopacity="0.4"
       empspacing="5" />
  </sodipodi:namedview>
  <metadata
     id="metadata7">
    <rdf:RDF>
      <cc:Work
         rdf:about="">
        <dc:format>image/svg+xml</dc:format>
        <dc:type
           rdf:resource="http://purl.org/dc/dcmitype/StillImage" />
      </cc:Work>
    </rdf:RDF>
  </metadata>
  <g
     inkscape:label="Layer 1"
     inkscape:groupmode="layer"
     id="layer1"
     transform="translate(4.149475e-6,-698.0315)">
    <image
       y="698.94952"
       x="14.511412"
       id="image9100"
       height="340.15747"
       width="430.51175"
       sodipodi:absref="/home/abez/projects/lda-paper/presentation-icsm/time-smear-plot.1024768.png"
       xlink:href="time-smear-plot.1024768.png" />
    <g
       id="g9878"
       transform="matrix(-1,0,0,1,297.36365,203.70425)">
      <path
         id="path3078"
         d="M 255.25047,766.18311 C 255.20389,766.13653 246.67235,775.79437 245.67144,776.5951 C 238.67501,782.19225 237.40231,789.57425 231.9276,795.96142 C 226.86544,801.86727 225.35331,809.86118 221.51561,816.57717 C 219.75511,819.65803 221.09015,824.23358 219.64144,827.61389 C 218.27902,830.79288 220.99464,835.52642 222.5568,838.02588 C 222.8221,838.45034 223.11211,838.85884 223.38977,839.27532 C 225.21145,842.00786 232.08025,842.4041 234.84296,843.44012 C 237.02066,844.25676 254.86145,845.939 257.95759,845.939 C 267.63373,845.939 277.97195,848.64612 287.94414,848.64612 C 298.04745,848.64612 307.75614,846.56372 317.72245,846.56372 C 322.42363,846.56372 331.12458,845.58925 335.00636,843.64836 C 338.22505,842.03901 340.62884,835.95205 340.62884,832.81988 C 340.62884,827.83207 342.70139,823.19161 341.67004,818.03485 C 340.62084,812.78884 339.79979,807.14347 337.08876,802.6251 C 334.96478,799.08513 333.72081,795.08031 331.25804,791.79662 C 329.67731,789.68898 328.78624,787.03418 326.67676,784.9247 C 324.7291,782.97704 322.88037,780.41815 321.26252,778.26102 C 320.90426,777.78333 320.56839,777.28924 320.22132,776.80335 C 318.99635,775.08837 315.97733,772.94357 314.18237,771.59735 C 312.09875,770.03463 310.6801,768.28442 308.55989,767.22431 C 306.23477,766.06175 303.86755,765.1905 301.68797,764.10071 C 298.69938,762.60641 294.42957,763.27775 291.27598,762.22655 C 288.78119,761.39495 284.46943,762.22655 281.90518,762.22655 C 278.54329,762.22655 275.48203,763.26775 272.1179,763.26775 C 270.38671,763.26775 268.69361,763.70734 267.12015,764.10071 C 265.40484,764.52954 263.29554,764.93367 261.49767,764.93367 C 260.38306,764.93367 259.03294,765.34332 257.95759,765.55839 C 256.95155,765.7596 256.35882,765.99839 255.25047,766.18311 z"
         style="fill:#00ffff;fill-rule:evenodd;stroke:#000000;stroke-width:0.412294px;stroke-linecap:butt;stroke-linejoin:miter;stroke-opacity:1" />
      <path
         id="path3080"
         d="M 333.1322,823.65733 C 333.02376,823.92843 326.30454,821.99141 325.21908,821.99141 C 323.24664,821.99141 321.9588,821.00892 321.47077,823.44908 C 321.16347,824.98559 322.70888,826.48817 323.55316,827.61389 C 324.27393,828.57491 326.82131,828.44684 327.9262,828.44684 C 328.53634,828.44684 324.45973,832.81988 321.05429,832.81988 C 319.42975,832.81988 318.97189,835.01136 318.97189,836.15172 C 318.97189,837.92041 320.7979,838.53444 322.09549,838.85884 C 323.96155,839.32536 326.34821,837.66956 327.71796,836.98468 C 329.20587,836.24072 330.43923,835.30462 328.75916,836.98468 C 328.13939,837.60445 328.48405,840.09304 328.34268,840.94124 C 328.11692,842.29581 327.9236,843.64314 328.55092,844.8978 C 329.31183,846.41961 331.20508,845.56223 332.091,844.8978 C 333.87235,843.56179 334.59651,842.78226 335.00636,840.733 C 335.31329,839.19833 334.33899,838.52767 335.00636,837.19292 C 336.02818,835.14927 336.8076,840.57665 336.88052,840.94124 C 337.27893,842.93331 341.1767,840.60161 341.67004,840.10828 C 342.70967,839.06864 343.01151,835.82727 341.87828,834.69404 C 340.97089,833.78665 342.26499,831.07958 339.58764,829.07156 C 337.61769,827.5941 335.93628,825.98212 335.00636,823.65733 C 334.94871,823.51321 334.72871,823.5185 334.58988,823.44908"
         style="fill:#f4e3d7;fill-rule:evenodd;stroke:#000000;stroke-width:0.412294px;stroke-linecap:butt;stroke-linejoin:miter;stroke-opacity:1" />
      <path
         id="path3082"
         d="M 254.20927,777.6363 C 252.31686,778.01478 256.38471,780.85294 257.74935,782.21758 C 259.43064,783.89887 260.01917,785.9076 261.91415,787.42358 C 263.10831,788.37891 262.75334,790.13226 264.41303,790.54718 C 265.9628,790.93462 269.16404,787.87857 270.24374,786.79886 C 272.11391,784.92869 274.48688,782.87667 276.07446,780.7599 C 277.3193,779.10012 280.01126,777.59678 278.98982,775.55391 C 278.06859,773.71144 273.35637,772.01383 271.28495,772.01383 C 268.86472,772.01383 266.79549,770.55615 264.41303,770.55615 C 263.04127,770.55615 260.19074,772.05982 259.20703,772.84679 C 258.93602,773.0636 258.65172,773.26327 258.37407,773.47151 C 257.25577,774.31023 256.05946,774.95316 255.04223,775.97038 C 254.62635,776.38627 254.40812,777.13918 254.20927,777.6363 z"
         style="fill:#ffffff;fill-rule:evenodd;stroke:#000000;stroke-width:0.412294px;stroke-linecap:butt;stroke-linejoin:miter;stroke-opacity:1" />
      <path
         id="path3110"
         d="M 294.89023,705.02898 C 294.45243,705.61271 294.66994,703.48346 294.15399,702.96751 C 292.26789,701.08141 291.64994,700.31705 289.14757,700.31705 C 285.09458,700.31705 285.68094,705.16867 281.63792,700.31705 C 279.50298,697.75511 277.2089,700.74557 276.04251,702.37852 C 275.411,703.26263 274.03679,701.34778 272.9503,701.34778 C 271.42502,701.34778 269.98169,706.19247 269.5636,707.2377 C 268.72859,709.32522 271.7518,711.00791 270.88883,711.65513 C 269.67559,712.56506 269.85952,714.99513 270.59434,716.21982 C 271.45224,717.64966 273.3866,716.83059 272.9503,718.57578 C 272.50139,720.37144 272.64796,722.8444 274.86452,723.28771 C 277.04334,723.72348 277.54147,724.61294 280.16545,724.61294 C 283.05191,724.61294 284.31947,723.27217 286.64435,722.10973 C 288.69437,721.08472 289.36016,719.39393 290.91454,717.83954 C 292.43923,716.31485 292.65461,713.79731 293.27051,711.94963 C 293.68114,710.71772 293.5382,709.29256 294.00674,708.12118 C 294.31751,707.34428 294.38349,706.63145 294.74299,705.91247 C 294.8765,705.64543 294.84115,705.32347 294.89023,705.02898 z"
         style="fill:#ffccaa;fill-rule:evenodd;stroke:#000000;stroke-width:0.412294px;stroke-linecap:butt;stroke-linejoin:miter;stroke-opacity:1" />
      <path
         id="path3084"
         d="M 252.08012,754.73956 C 248.65347,757.81964 248.54617,764.81176 248.54617,770.64233 C 248.54617,777.59948 259.61943,780.72595 263.85995,782.42216 C 271.74686,785.57692 277.24917,787.13409 286.83061,787.13409 C 298.55334,787.13409 303.37738,783.8488 312.15724,776.53224 C 317.09995,772.41332 320.99211,760.25502 320.99211,754.15057 C 320.99211,745.97433 323.63099,738.81362 319.81413,731.1799 C 319.25882,730.06929 319.02881,728.82394 318.63615,727.64596 C 316.47881,721.17393 315.66254,717.5758 312.74623,711.74319 C 310.47259,707.19589 303.47906,704.26677 298.61044,702.31932 C 293.31428,700.20086 283.6989,699.51443 279.17372,702.90832 C 274.78341,706.20105 271.10456,707.71838 267.98289,712.92117 C 265.36845,717.27856 263.50758,720.69381 261.50398,724.701 C 260.0387,727.63157 258.1824,731.50839 257.38104,734.71385 C 256.57456,737.93978 255.25664,741.31862 253.84709,744.13772 C 252.33355,747.16479 252.08012,751.08647 252.08012,754.73956 z"
         style="fill:#ffe6d5;fill-rule:evenodd;stroke:#000000;stroke-width:0.412294px;stroke-linecap:butt;stroke-linejoin:miter;stroke-opacity:1" />
      <path
         sodipodi:nodetypes="cssc"
         id="path3086"
         d="M 269.73071,721.66249 C 267.9905,720.91421 264.09143,722.16266 265.0522,726.00572 C 265.71555,728.65913 269.51531,726.62586 270.43446,725.70671 C 271.81394,724.32722 270.64724,722.80816 269.73071,721.66249 z"
         style="fill:#000000;fill-rule:evenodd;stroke:#000000;stroke-width:0.20931037px;stroke-linecap:butt;stroke-linejoin:miter;stroke-opacity:1" />
      <path
         sodipodi:nodetypes="csssc"
         id="path3088"
         d="M 282.34397,722.75693 C 281.4549,723.32223 280.15857,724.51161 280.15857,726.11597 C 280.15857,727.90637 283.24881,728.05855 284.69125,728.05855 C 287.95511,728.05855 287.05778,724.89789 286.63383,723.2021 C 286.3669,722.13438 283.72784,722.63552 282.34397,722.75693 z"
         style="fill:#000000;fill-rule:evenodd;stroke:#000000;stroke-width:0.2266342px;stroke-linecap:butt;stroke-linejoin:miter;stroke-opacity:1" />
      <path
         sodipodi:nodetypes="csssc"
         id="path3090"
         d="M 257.0245,737.35639 C 257.60754,735.87081 254.28084,732.70033 255.56069,731.10052 C 257.00013,729.30123 258.27816,729.33355 260.41987,729.33355 C 264.67206,729.33355 267.4647,729.24839 270.87447,730.95327 C 272.26249,731.64728 272.34695,733.89228 272.34695,735.22346"
         style="fill:#ffe6d5;fill-rule:evenodd;stroke:#000000;stroke-width:0.412294px;stroke-linecap:butt;stroke-linejoin:miter;stroke-opacity:1" />
      <g
         transform="matrix(0.412294,0,0,0.412294,274.85695,442.36526)"
         id="g3217">
        <path
           style="fill:#000000;fill-rule:evenodd;stroke:#000000;stroke-width:1px;stroke-linecap:butt;stroke-linejoin:miter;stroke-opacity:1"
           d="M -51.772451,754.68021 C -52.266561,754.87785 -45.572731,755.58867 -40.701021,757.53735 C -37.067121,758.99091 -29.351661,759.32307 -25.701021,759.32307 C -18.857611,759.32307 -12.353971,760.03735 -5.3438813,760.03735 C -0.13931127,760.03735 4.2507887,758.60878 9.2989787,758.60878 C 11.807309,758.60878 14.500659,757.99702 16.798979,757.53735 C 21.790639,756.53902 20.367479,760.39157 23.227549,763.25164 C 25.617279,765.64136 23.505709,772.16648 22.156119,773.96592 C 19.416019,777.61939 15.756999,782.34406 11.798979,784.32307 C 7.5606887,786.44221 4.8487587,790.03735 -0.34388127,790.03735 C -6.7856513,790.03735 -13.552581,791.46592 -20.343881,791.46592 C -25.243151,791.46592 -30.576011,792.11235 -34.629591,789.68021 C -38.063441,787.6199 -40.993041,786.27158 -42.486731,782.53735 C -44.266191,778.0887 -46.830671,773.84949 -48.915311,769.68021 C -50.208291,767.09423 -50.034301,764.48994 -50.701021,761.82307 C -51.384991,759.0872 -52.333941,757.48768 -51.772451,754.68021 z"
           id="path3092" />
        <path
           style="fill:#ffffff;fill-rule:evenodd;stroke:#000000;stroke-width:1px;stroke-linecap:butt;stroke-linejoin:miter;stroke-opacity:1"
           d="M -44.986741,757.8945 C -44.988881,757.88593 -46.772451,762.21843 -46.772451,766.10878 C -46.772451,768.60934 -45.023961,770.03735 -42.843881,770.03735 C -39.918501,770.03735 -37.695891,771.16994 -36.058161,767.8945 C -35.143251,766.06467 -35.343881,763.56919 -35.343881,761.46592 C -35.343881,759.58058 -36.728981,758.28424 -38.201021,757.18021 C -40.266461,755.63113 -43.182571,756.45116 -44.986741,757.8945 z"
           id="path3094" />
        <path
           style="fill:#ffffff;fill-rule:evenodd;stroke:#000000;stroke-width:1px;stroke-linecap:butt;stroke-linejoin:miter;stroke-opacity:1"
           d="M -34.281781,758.21757 C -34.283921,758.209 -36.067491,762.5415 -36.067491,766.43185 C -36.067491,768.93241 -34.319001,770.36042 -32.138921,770.36042 C -29.213541,770.36042 -26.990931,771.49301 -25.353201,768.21757 C -24.438291,766.38774 -24.638921,763.89226 -24.638921,761.78899 C -24.638921,759.90365 -26.024021,758.60731 -27.496061,757.50328 C -29.561501,755.9542 -32.477611,756.77423 -34.281781,758.21757 z"
           id="path3096" />
        <path
           style="fill:#ffffff;fill-rule:evenodd;stroke:#000000;stroke-width:1px;stroke-linecap:butt;stroke-linejoin:miter;stroke-opacity:1"
           d="M -23.567491,758.57471 C -23.569631,758.56614 -25.353201,762.89864 -25.353201,766.78899 C -25.353201,769.28955 -23.604711,770.71756 -21.424631,770.71756 C -18.499251,770.71756 -16.276641,771.85015 -14.638911,768.57471 C -13.724001,766.74488 -13.924631,764.2494 -13.924631,762.14613 C -13.924631,760.26079 -15.309731,758.96445 -16.781771,757.86042 C -18.847211,756.31134 -21.763321,757.13137 -23.567491,758.57471 z"
           id="path3098" />
        <path
           style="fill:#ffffff;fill-rule:evenodd;stroke:#000000;stroke-width:1px;stroke-linecap:butt;stroke-linejoin:miter;stroke-opacity:1"
           d="M -12.138921,758.93186 C -12.141061,758.92329 -13.924631,763.25579 -13.924631,767.14614 C -13.924631,769.6467 -12.176141,771.07471 -9.9960613,771.07471 C -7.0706813,771.07471 -4.8480713,772.2073 -3.2103413,768.93186 C -2.2954313,767.10203 -2.4960613,764.60655 -2.4960613,762.50328 C -2.4960613,760.61794 -3.8811613,759.3216 -5.3532013,758.21757 C -7.4186413,756.66849 -10.334751,757.48852 -12.138921,758.93186 z"
           id="path3100" />
        <path
           style="fill:#ffffff;fill-rule:evenodd;stroke:#000000;stroke-width:1px;stroke-linecap:butt;stroke-linejoin:miter;stroke-opacity:1"
           d="M -1.4246413,758.21757 C -1.4267813,758.209 -3.2103513,762.5415 -3.2103513,766.43185 C -3.2103513,768.93241 -1.4618613,770.36042 0.71821873,770.36042 C 3.6435987,770.36042 5.8662087,771.49301 7.5039387,768.21757 C 8.4188487,766.38774 8.2182187,763.89226 8.2182187,761.78899 C 8.2182187,759.90365 6.8331187,758.60731 5.3610787,757.50328 C 3.2956387,755.9542 0.37952873,756.77423 -1.4246413,758.21757 z"
           id="path3102" />
        <path
           style="fill:#ffffff;fill-rule:evenodd;stroke:#000000;stroke-width:1px;stroke-linecap:butt;stroke-linejoin:miter;stroke-opacity:1"
           d="M 9.6467887,757.86043 C 9.6446487,757.85186 7.8610787,762.18436 7.8610787,766.07471 C 7.8610787,768.57527 9.6095687,770.00328 11.789649,770.00328 C 14.715029,770.00328 16.937639,771.13587 18.575369,767.86043 C 19.490279,766.0306 19.289649,763.53512 19.289649,761.43185 C 19.289649,759.54651 17.904549,758.25017 16.432509,757.14614 C 14.367069,755.59706 11.450959,756.41709 9.6467887,757.86043 z"
           id="path3104" />
        <path
           style="fill:#ffe6d5;fill-rule:evenodd;stroke:#000000;stroke-width:1px;stroke-linecap:butt;stroke-linejoin:miter;stroke-opacity:1"
           d="M -54.986741,749.68021 C -55.338881,750.84566 -54.673021,754.14935 -54.272451,755.75164 C -53.645641,758.25887 -51.637611,759.45791 -49.986741,761.10878 C -47.850681,763.24484 -43.554291,763.32461 -41.058161,764.32307 C -38.250401,765.44617 -34.652371,765.17565 -31.772451,765.75164 C -28.343961,766.43734 -22.791831,767.18021 -19.629591,767.18021 C -15.110461,767.18021 -10.966041,768.25164 -6.4153113,768.25164 C -2.1295913,768.25164 2.1561187,768.25164 6.4418387,768.25164 C 9.8942187,768.25164 13.346599,768.25164 16.798979,768.25164 C 20.128219,768.25164 22.916069,766.01746 24.298979,763.25164 C 25.978389,759.89281 28.584689,757.85751 28.584689,753.96592 C 28.584689,753.48973 28.584689,753.01354 28.584689,752.53735"
           id="path3106" />
        <path
           style="fill:#ff0000;fill-rule:evenodd;stroke:#000000;stroke-width:1px;stroke-linecap:butt;stroke-linejoin:miter;stroke-opacity:1"
           d="M -32.129601,787.8945 C -32.129601,787.41831 -32.129601,787.41831 -32.129601,787.8945 C -32.129601,790.41378 -30.255991,779.32307 -23.558171,779.32307 C -21.637371,779.32307 -19.613511,782.21238 -18.915311,783.60878 C -18.108641,785.22212 -11.992631,780.86173 -10.343881,780.03735 C -6.0694013,777.90011 -3.8153713,784.06586 -1.7724513,786.10878 C -1.2367013,786.64454 -1.4153113,788.67501 -1.4153113,789.68021"
           id="path3108" />
      </g>
      <path
         id="path3112"
         d="M 322.31735,704.96978 C 323.01929,703.56589 315.50384,703.94907 314.36596,704.23355 C 312.3911,704.72726 306.85632,705.36388 306.85632,707.91474 C 306.85632,709.44459 306.4822,711.13018 306.85632,712.62667 C 307.46252,715.0515 309.77225,715.21698 308.91779,717.78035 C 307.77895,721.19687 307.73692,723.37288 310.24302,725.87898 C 310.46525,726.10121 310.63568,726.36981 310.83201,726.61522 C 311.68773,727.68487 314.46006,728.79736 315.69119,729.41293 C 318.10248,730.61857 320.85159,729.51832 322.75909,728.0877 C 323.06577,727.85769 323.34808,727.59687 323.64258,727.35146 C 324.55535,726.59081 325.3371,729.1189 326.44029,729.56018 C 329.64731,730.84298 331.54308,725.7853 332.3302,723.81751 C 332.42836,723.5721 332.52653,723.32668 332.6247,723.08127 C 333.56572,720.7287 330.57462,719.11372 329.53249,718.36934 C 328.81802,717.859 331.18604,717.71816 331.88846,717.19136 C 334.36528,715.33374 331.66657,712.67024 330.12148,711.74319 C 329.53678,711.39236 328.9435,711.05603 328.35451,710.71245 C 325.82285,709.23565 325.68157,712.72687 329.53249,709.97621 C 331.92926,708.26423 332.67261,706.97984 331.44671,704.52804 C 330.83825,703.31112 325.94522,702.76107 324.67331,702.76107 C 324.14564,702.76107 322.55357,704.57608 322.31735,704.96978 z"
         style="fill:#ffccaa;fill-rule:evenodd;stroke:#000000;stroke-width:0.412294px;stroke-linecap:butt;stroke-linejoin:miter;stroke-opacity:1" />
      <path
         id="path3114"
         d="M 262.74711,791.1719 C 262.89235,790.59093 261.37596,794.30025 259.83175,797.00262 C 258.04783,800.12448 256.54478,803.76236 255.25047,806.99813 C 255.05414,807.48896 254.83399,807.96992 254.62575,808.45581 C 253.50659,811.0672 252.75159,813.69739 252.75159,816.57717 C 252.75159,818.65436 252.8694,821.03649 253.58455,822.82436 C 254.4073,824.88125 254.88369,826.46385 255.87519,828.44684 C 256.89031,830.47708 258.94319,832.12103 260.24823,833.86108 C 261.55861,835.60826 263.12822,837.11533 265.24599,835.527 C 267.47404,833.85596 269.26942,832.33653 271.28495,830.321 C 272.7697,828.83625 273.12012,826.65066 273.99206,824.90677 C 274.68307,823.52475 274.40854,821.45178 274.40854,819.90901 C 274.40854,817.46693 274.44091,815.2004 273.57559,813.03709 C 272.71966,810.89729 273.53483,808.29282 272.95087,805.95693 C 272.41459,803.81184 271.70143,801.05754 271.70143,798.87677 C 271.70143,796.32089 268.67897,793.76 268.16135,791.1719"
         style="fill:#ff0000;fill-rule:evenodd;stroke:#000000;stroke-width:0.412294px;stroke-linecap:butt;stroke-linejoin:miter;stroke-opacity:1" />
      <path
         id="path3116"
         d="M 268.16135,788.25654 C 267.24441,789.17348 265.70978,787.21534 264.41303,787.21534 C 262.36157,787.21534 262.01862,788.98364 261.70591,790.54718 C 261.45803,791.78659 262.56146,792.86041 263.37183,793.67078 C 263.92156,794.22051 266.47261,793.87902 267.32839,793.87902 C 268.46274,793.87902 269.43044,791.30151 269.61903,790.54718 C 269.9531,789.21091 269.3371,788.72684 268.16135,788.25654 z"
         style="fill:#ff0000;fill-rule:evenodd;stroke:#000000;stroke-width:0.412294px;stroke-linecap:butt;stroke-linejoin:miter;stroke-opacity:1" />
      <path
         id="path3248"
         d="M 191.77796,750.00895 C 189.27925,751.35125 185.505,754.09569 183.74685,753.49731 C 183.34209,753.35954 186.86402,750.9344 188.99592,748.12885 C 189.73308,747.15875 177.98047,748.90827 187.15686,744.39208 C 192.26317,741.879 188.10519,740.65994 185.90471,736.18879 C 184.51313,733.36126 189.07724,736.72813 190.36537,737.70696 C 192.34267,739.20949 192.97726,733.37932 194.87295,731.77505 C 196.24297,730.61563 193.18024,739.57092 196.88417,737.74802 C 202.30917,735.07809 202.01042,736.98265 197.79785,740.54765 C 194.62877,743.22956 199.87728,744.05515 202.2409,744.85959 C 202.58022,744.97508 196.63839,747.15271 196.45186,747.24451 C 194.60015,748.15583 197.17115,751.33174 197.15815,753.3955 C 197.15804,753.41317 191.97908,750.11111 191.77796,750.00895 z"
         style="fill:#ffff00;fill-rule:evenodd;stroke:#000000;stroke-width:0.412294px;stroke-linecap:butt;stroke-linejoin:miter;stroke-opacity:1" />
      <g
         transform="matrix(0.3368978,-0.2376683,0.2376683,0.3368978,71.252962,441.37854)"
         id="g3242">
        <g
           id="g3118"
           transform="matrix(0.7507784,0.2742733,0.3090603,-0.846002,91.502194,1133.0513)">
          <path
             id="path3120"
             d="M -478.30723,174.53962 C -476.35416,173.56309 -471.91156,170.16425 -469.21586,167.46855 C -465.53542,163.78811 -461.13464,157.60923 -461.13464,166.96348 C -461.13464,172.45427 -461.13464,178.78676 -461.13464,184.64115 C -461.13464,192.20527 -464.67017,199.40413 -464.67017,207.36958 C -464.67017,212.61447 -467.38306,218.44494 -469.21586,223.02694 C -470.96684,227.40441 -471.74124,234.08955 -471.74124,239.18938 C -471.74124,240.53625 -471.74124,241.88312 -471.74124,243.22999 C -471.74124,246.05139 -473.24769,252.80889 -474.26662,254.84675 C -475.30639,256.92628 -474.7717,262.66284 -474.7717,264.94827 C -474.7717,267.58361 -476.16001,272.01677 -476.792,274.54472 C -477.59273,277.74762 -476.36509,281.53763 -479.31738,278.58533 C -480.60454,277.29817 -480.36378,272.37944 -480.83261,270.50411 C -481.56911,267.55812 -482.27989,265.28801 -482.85292,262.42289 C -483.28112,260.28188 -483.75898,256.8824 -484.36815,253.8366 C -484.98584,250.74815 -484.87322,247.40166 -484.87322,244.24015 C -484.87322,241.87804 -483.95387,238.54245 -483.35799,236.15893 C -482.65112,233.33142 -482.85292,230.14605 -482.85292,227.06755 C -482.85292,223.72152 -483.86307,220.52713 -483.86307,216.96603 C -483.86307,212.71987 -484.69072,208.47739 -483.86307,204.33912 C -483.02492,200.14837 -482.79854,193.62376 -480.83261,189.69191 C -479.89203,187.81074 -480.83261,182.76609 -480.83261,180.60054 C -480.83261,179.72688 -478.6122,175.30205 -478.30723,174.53962 z"
             style="fill:#784421;fill-rule:evenodd;stroke:#000000;stroke-width:1px;stroke-linecap:butt;stroke-linejoin:miter;stroke-opacity:1" />
          <path
             id="path3122"
             d="M -496.99505,163.93302 C -492.05806,163.55435 -485.25922,169.83954 -479.82246,172.01424 C -478.98067,172.35096 -478.13887,172.68767 -477.29708,173.02439 C -474.24281,174.2461 -475.78185,184.77315 -475.78185,187.16653 C -475.78185,194.40227 -476.792,200.40901 -476.792,207.36958 C -476.792,214.36533 -479.31738,220.95067 -479.31738,228.07771 C -479.31738,232.52871 -480.32754,237.70576 -480.32754,242.72492 C -480.32754,247.19497 -480.33634,251.78109 -479.31738,255.8569 C -478.59168,258.7597 -479.31738,262.91735 -479.31738,265.95843 C -479.31738,269.03148 -478.30723,271.74237 -478.30723,275.0498 C -478.30723,279.35496 -477.22441,280.96537 -477.80215,282.12087 C -479.424,285.36456 -480.69595,275.4598 -481.84276,272.01934 C -485.25405,261.7855 -483.89797,249.70874 -487.90368,239.69446 C -490.0129,234.4214 -489.67761,229.5806 -492.44937,224.03709 C -495.83949,217.25684 -496.27768,209.163 -499.01536,202.31882 C -500.70806,198.08706 -500.6045,193.07962 -502.55089,189.18683 C -503.91461,186.4594 -503.32255,182.56466 -504.06612,179.59038 C -504.7517,176.84807 -504.06612,172.88598 -504.06612,169.99393 C -504.06612,166.2625 -503.28284,164.55153 -500.02551,162.92287 C -499.07313,162.44668 -498.00521,163.5963 -496.99505,163.93302 z"
             style="fill:#ff7f2a;fill-rule:evenodd;stroke:#000000;stroke-width:1px;stroke-linecap:butt;stroke-linejoin:miter;stroke-opacity:1" />
          <path
             id="path3124"
             d="M -488.91384,152.31626 C -488.91384,152.15607 -491.97359,156.54476 -498.51028,160.90256 C -501.36899,162.80836 -504.43063,164.24034 -505.07628,167.46855 C -506.01123,172.14334 -494.25604,173.37404 -491.94429,174.03454 C -488.05528,175.14569 -484.39194,176.05485 -480.32754,176.05485 C -476.57357,176.05485 -474.8639,173.07049 -471.74124,171.50916 C -468.67171,169.97439 -466.13235,167.44202 -463.15495,165.95332 C -461.6491,165.2004 -459.7375,165.54499 -458.10418,165.95332 C -455.10136,166.70403 -462.19398,161.24447 -464.67017,159.38733 C -467.70713,157.10961 -470.01187,155.63441 -473.25647,154.33657 C -475.81042,153.31499 -479.05032,153.51945 -481.84277,152.82134 C -484.76713,152.09025 -488.41841,152.41535 -491.43922,151.81119"
             style="fill:#ffd42a;fill-rule:evenodd;stroke:#000000;stroke-width:1px;stroke-linecap:butt;stroke-linejoin:miter;stroke-opacity:1" />
        </g>
      </g>
      <path
         sodipodi:nodetypes="cssssssssssssssssssc"
         id="path3126"
         d="M 244.35064,774.70625 C 247.43472,775.69737 245.66474,777.90747 246.73925,781.34363 C 248.04802,785.52887 246.79383,785.28277 246.7701,789.42663 C 246.74525,793.76952 246.32018,792.96275 246.62042,797.24744 C 246.88309,800.99592 243.96699,801.10352 242.29887,804.21594 C 240.92951,806.77092 239.96375,810.22623 237.57261,810.22882 C 233.6701,810.23306 231.85769,815.96796 227.85357,815.77873 C 225.26038,815.65618 220.28723,811.51314 217.83397,809.9689 C 215.24612,808.33993 212.85826,806.58827 210.27372,804.96138 C 207.87751,803.45305 205.92621,801.23044 203.40514,799.64351 C 201.04057,798.15509 199.14926,795.25597 198.71406,792.71328 C 198.22828,789.87505 199.52296,788.26347 200.7235,786.02348 C 201.45194,784.66434 203.11097,783.04755 204.29002,782.79964 C 208.14597,781.98888 214.42431,786.79746 218.15798,787.80031 C 220.23892,788.35924 221.91164,789.95375 223.95908,790.20899 C 226.24147,790.49352 228.71774,788.21196 230.28381,787.22985 C 232.52501,785.82435 233.16107,782.35147 234.46506,779.91846 C 235.46997,778.04349 236.4428,775.55969 237.84936,774.09408 C 238.87786,773.02239 241.04003,773.69866 242.18733,773.84168 C 243.2638,773.97588 243.13087,773.93845 244.35064,774.70625 z"
         style="fill:#ffffff;fill-rule:evenodd;stroke:#000000;stroke-width:0.43747979px;stroke-linecap:butt;stroke-linejoin:miter;stroke-opacity:1" />
      <path
         id="path3128"
         d="M 210.07056,783.51727 C 208.63581,781.87038 206.95406,775.88349 203.67155,773.51767 C 201.58296,772.01235 199.53065,773.43879 198.06839,774.7416 C 196.92764,775.75794 196.83807,777.46349 197.14036,778.70858 C 197.59711,780.58996 193.06256,779.57815 192.47348,781.29643 C 191.92143,782.90672 193.95224,783.74713 192.32383,785.19796 C 191.01124,786.3674 190.34365,787.43918 190.92886,789.26694 C 191.45734,790.91753 193.34809,792.60836 194.51707,793.92042 C 195.3722,794.88023 198.38935,795.73741 199.81412,796.10938 C 201.79233,796.62585 203.21516,795.47481 204.9518,795.9282 C 205.31058,796.02187 207.11109,794.00439 207.43951,793.71179 C 208.27413,792.96818 208.98836,791.10036 209.14641,789.99293 C 209.33121,788.69798 210.03783,787.5504 210.23041,786.201 C 210.3774,785.17101 210.34901,784.66424 210.07056,783.51727 z"
         style="fill:#ffe6d5;fill-rule:evenodd;stroke:#000000;stroke-width:0.43747979px;stroke-linecap:butt;stroke-linejoin:miter;stroke-opacity:1" />
      <path
         id="path3130"
         d="M 317.72245,774.09623 C 317.41249,775.752 315.84829,777.92949 315.84829,780.34343 C 315.84829,782.87097 317.56367,784.60714 318.55541,786.59062 C 318.69423,786.86828 318.83306,787.14593 318.97189,787.42358 C 320.24503,789.96987 323.24859,791.8443 324.59436,794.08726 C 326.57136,797.38225 327.03748,800.65799 328.9674,803.87453 C 330.40372,806.26839 330.0086,810.41593 330.0086,813.24533 C 330.0086,815.43421 330.42508,817.98302 330.42508,820.32549 C 330.42508,822.16561 330.13428,824.21386 331.0498,825.73972 C 332.04583,827.39976 331.74094,830.11276 334.1734,830.11276 C 336.94993,830.11276 339.72646,830.11276 342.503,830.11276 C 344.93014,830.11276 346.83883,828.31301 347.91724,826.15621 C 349.54353,822.90361 351.24907,819.44699 351.24907,815.74421 C 351.24907,811.10236 351.56017,807.82857 349.58316,803.87453 C 349.3055,803.31923 349.02785,802.76392 348.75019,802.20861 C 346.8647,798.43762 345.38711,795.06596 343.5442,791.38014 C 341.9013,788.09435 339.81665,784.52899 337.08876,781.8011 C 336.81111,781.52345 336.53345,781.2458 336.2558,780.96814 C 334.53225,779.24459 332.63253,777.88627 330.63332,776.38687 C 328.91374,775.09717 327.31063,772.84861 325.21908,772.43031 C 321.62935,771.71236 318.63636,771.81145 317.30597,775.13743 C 317.21302,775.3698 317.02831,775.55391 316.88949,775.76215"
         style="fill:#ffffff;fill-rule:evenodd;stroke:#000000;stroke-width:0.412294px;stroke-linecap:butt;stroke-linejoin:miter;stroke-opacity:1" />
    </g>
    <path
       sodipodi:type="arc"
       style="opacity:1;fill:none;fill-opacity:1;fill-rule:nonzero;stroke:#fffe00;stroke-width:7.08661413;stroke-linecap:butt;stroke-linejoin:miter;stroke-miterlimit:4;stroke-dasharray:7.08661417, 7.08661417;stroke-dashoffset:0;stroke-opacity:1"
       id="path15765"
       sodipodi:cx="230.31496"
       sodipodi:cy="102.7559"
       sodipodi:rx="187.79527"
       sodipodi:ry="24.80315"
       d="M 418.11023,102.7559 A 187.79527,24.80315 0 1 1 42.519684,102.7559 A 187.79527,24.80315 0 1 1 418.11023,102.7559 z"
       transform="matrix(0.6181047,0,0,4.4069133,184.00604,409.02956)" />
    <path
       style="fill:#ffffff;fill-opacity:1;fill-rule:nonzero;stroke:#000000;stroke-width:3.54330707;stroke-linecap:butt;stroke-linejoin:miter;stroke-miterlimit:4;stroke-dashoffset:0;stroke-opacity:1"
       d="M 143.1907,816.95129 C 200.9614,816.95129 247.84696,845.29823 247.84695,880.23254 C 247.84695,915.16684 200.9614,943.51379 143.1907,943.51379 C 128.94862,943.51379 115.3516,941.79015 102.97195,938.67004 C 98.88703,942.05434 91.47832,946.90997 86.2532,950.04504 C 78.87907,954.46952 70.48995,955.36086 62.3782,957.38879 C 54.82379,959.2774 63.3337,955.52704 66.97195,951.88879 C 69.86888,948.99185 71.3338,944.62888 72.5032,939.95129 C 73.61205,935.51584 73.44711,931.96241 74.1907,927.79504 C 52.33745,916.19319 38.53445,899.18613 38.53445,880.23254 C 38.53445,845.29823 85.42,816.9513 143.1907,816.95129 z"
       id="path16759" />
    <text
       xml:space="preserve"
       style="font-size:24px;font-style:normal;font-weight:bold;text-align:center;writing-mode:lr-tb;text-anchor:middle;fill:#000000;fill-opacity:1;stroke:none;stroke-width:1px;stroke-linecap:butt;stroke-linejoin:miter;stroke-opacity:1;font-family:Sans;-inkscape-font-specification:Sans"
       x="138.62471"
       y="857.33423"
       id="text16815"><tspan
         sodipodi:role="line"
         id="tspan16817"
         x="142.79659"
         y="857.33423">Local </tspan><tspan
         sodipodi:role="line"
         x="138.62471"
         y="887.33423"
         id="tspan16819">unique trends</tspan><tspan
         sodipodi:role="line"
         x="138.62471"
         y="917.33423"
         id="tspan16821">are grey</tspan></text>
  </g>
</svg>
