<?xml version="1.0" encoding="UTF-8" standalone="no"?>
<!-- Created with Inkscape (http://www.inkscape.org/) -->
<svg
   xmlns:dc="http://purl.org/dc/elements/1.1/"
   xmlns:cc="http://creativecommons.org/ns#"
   xmlns:rdf="http://www.w3.org/1999/02/22-rdf-syntax-ns#"
   xmlns:svg="http://www.w3.org/2000/svg"
   xmlns="http://www.w3.org/2000/svg"
   xmlns:sodipodi="http://sodipodi.sourceforge.net/DTD/sodipodi-0.dtd"
   xmlns:inkscape="http://www.inkscape.org/namespaces/inkscape"
   width="453.5433"
   height="340.15747"
   id="svg2"
   sodipodi:version="0.32"
   inkscape:version="0.46"
   sodipodi:docname="slide120-document-word-distribution.svg"
   version="1.0"
   inkscape:output_extension="org.inkscape.output.svg.inkscape">
  <defs
     id="defs4">
    <marker
       inkscape:stockid="Arrow1Lend"
       orient="auto"
       refY="0"
       refX="0"
       id="Arrow1Lend"
       style="overflow:visible">
      <path
         id="path3511"
         d="M 0,0 L 5,-5 L -12.5,0 L 5,5 L 0,0 z"
         style="fill-rule:evenodd;stroke:#000000;stroke-width:1pt;marker-start:none"
         transform="matrix(-0.8,0,0,-0.8,-10,0)" />
    </marker>
    <inkscape:perspective
       sodipodi:type="inkscape:persp3d"
       inkscape:vp_x="0 : 170.07874 : 1"
       inkscape:vp_y="0 : 1000 : 0"
       inkscape:vp_z="453.5433 : 170.07874 : 1"
       inkscape:persp3d-origin="226.77165 : 113.38582 : 1"
       id="perspective15389" />
  </defs>
  <sodipodi:namedview
     id="base"
     pagecolor="#ffffff"
     bordercolor="#666666"
     borderopacity="1.0"
     gridtolerance="10000"
     guidetolerance="8.8"
     objecttolerance="10"
     inkscape:pageopacity="0.0"
     inkscape:pageshadow="2"
     inkscape:zoom="1.540463"
     inkscape:cx="195.4769"
     inkscape:cy="182.10943"
     inkscape:document-units="mm"
     inkscape:current-layer="layer1"
     inkscape:window-width="952"
     inkscape:window-height="1167"
     inkscape:window-x="0"
     inkscape:window-y="25"
     width="12.8cm"
     height="9.6cm"
     units="cm"
     showgrid="true"
     grid_units="mm"
     inkscape:object-paths="false"
     inkscape:grid-points="true"
     inkscape:grid-bbox="true"
     inkscape:guide-points="true"
     showguides="true"
     inkscape:guide-bbox="true">
    <sodipodi:guide
       orientation="vertical"
       position="56.476527"
       id="guide3573" />
    <sodipodi:guide
       orientation="horizontal"
       position="11.035643"
       id="guide3579" />
    <sodipodi:guide
       orientation="horizontal"
       position="24.018753"
       id="guide3886" />
    <sodipodi:guide
       orientation="horizontal"
       position="285.62841"
       id="guide3988" />
    <sodipodi:guide
       orientation="horizontal"
       position="303.15561"
       id="guide4081" />
    <inkscape:grid
       id="GridFromPre046Settings"
       type="xygrid"
       originx="0px"
       originy="0px"
       spacingx="2mm"
       spacingy="2mm"
       color="#0000ff"
       empcolor="#0000ff"
       opacity="0.2"
       empopacity="0.4"
       empspacing="5" />
  </sodipodi:namedview>
  <metadata
     id="metadata7">
    <rdf:RDF>
      <cc:Work
         rdf:about="">
        <dc:format>image/svg+xml</dc:format>
        <dc:type
           rdf:resource="http://purl.org/dc/dcmitype/StillImage" />
      </cc:Work>
    </rdf:RDF>
  </metadata>
  <g
     inkscape:label="Layer 1"
     inkscape:groupmode="layer"
     id="layer1"
     transform="translate(4.149475e-6,-698.0315)">
    <path
       style="fill:#000000;fill-opacity:1;stroke:#000000;stroke-width:2.5;stroke-miterlimit:4;stroke-dasharray:none;stroke-dashoffset:0;stroke-opacity:1"
       id="path18081"
       d="M -15.132008,67.430988 C -14.891055,67.587418 -14.661935,67.763795 -14.409148,67.900276 C -14.103398,68.065351 -13.77008,68.174643 -13.46091,68.33322 C -11.769818,69.200604 -10.202026,70.252387 -8.6701118,71.37042 C -5.2930393,74.115428 -2.1783235,77.168949 1.003392,80.136744 C 4.3520022,83.074807 7.5599977,86.177451 11.074832,88.91892 C 14.414492,91.480614 17.330685,94.52428 20.443753,97.340553 C 24.224508,100.42767 28.247596,103.20724 32.239265,106.01249 C 34.134711,107.18483 35.714835,108.81988 37.547951,110.07086 C 39.527794,111.42197 41.786861,112.48308 43.883909,113.63702 C 44.604188,114.08219 45.337463,114.50698 46.044746,114.97252 C 49.166986,117.02758 47.072248,115.87153 50.239026,117.74873 C 52.368859,119.01125 54.482829,120.19689 56.536838,121.58493 C 59.781747,123.98951 63.156396,126.21058 66.605439,128.30838 C 69.493421,129.90625 72.531957,131.17155 75.638211,132.27228 C 79.289292,133.90786 83.075381,135.10407 86.943714,136.11126 C 89.909218,136.70726 92.845871,137.42485 95.82253,137.96663 C 96.745666,138.13465 97.678973,138.24623 98.5987,138.432 C 99.273481,138.5683 102.87845,139.46622 103.63227,139.6525 C 107.65865,140.50214 111.63478,141.55243 115.71198,142.13514 C 119.56921,142.3493 123.3669,143.03602 127.19549,143.50793 C 130.35783,143.9289 133.55811,143.76025 136.71735,144.15723 C 140.29302,144.76817 143.90777,145.01377 147.52712,145.16511 C 152.4881,144.8236 157.44513,144.47019 162.41504,144.28042 C 167.846,143.73285 173.27633,143.24108 178.72698,142.94536 C 183.03002,142.73427 187.33917,142.72509 191.64606,142.66219 C 193.61368,142.70017 195.63477,142.48118 197.57158,142.95405 C 198.65684,143.21902 199.16181,143.53184 200.17056,144.01958 C 201.65321,144.76323 202.87116,145.88903 204.18604,146.87154 C 205.67317,147.98275 207.2528,148.98954 208.77261,150.05593 C 211.3399,151.96178 213.9225,153.84927 216.55643,155.66217 C 218.05114,156.66337 219.59091,157.54053 220.87177,158.81733 C 223.18895,160.71062 225.53874,162.56278 227.84493,164.47023 C 232.28403,167.80517 236.59201,171.30247 240.85273,174.86121 C 245.11327,178.76545 249.89227,182.00244 254.46856,185.50823 C 260.00222,189.42914 266.02332,192.64867 272.15246,195.53374 C 275.45149,196.99899 278.75982,198.523 282.21759,199.58605 C 284.38898,200.25362 285.03387,200.34542 287.22263,200.8184 C 291.92777,201.70333 296.73274,201.84207 301.50677,201.74685 C 306.65281,201.24945 311.42917,199.49834 316.07129,197.32225 C 322.36394,193.83361 313.8024,198.71423 312.61907,199.32054 C 311.94906,199.66385 313.89166,198.5128 314.49318,198.06008 C 315.99691,196.92833 317.33253,195.55391 318.6589,194.22643 C 321.53981,191.18578 323.19384,187.25168 324.95497,183.50929 C 326.92351,179.95246 328.5388,176.20982 329.3278,172.21212 C 329.5063,168.9453 329.12476,171.8941 337.91601,167.78085 L 328.95698,171.44681 C 332.59927,169.67983 338.55456,163.72161 337.85226,168.11602 C 336.74935,172.13718 335.3792,176.09864 333.27543,179.72008 C 331.51555,183.47694 329.99746,187.50818 327.23957,190.6618 C 325.91041,192.04553 324.52966,193.50374 323.03137,194.70625 C 322.43196,195.18733 321.80055,195.63171 321.14182,196.02772 C 312.84071,201.01798 314.12328,200.30732 308.96972,202.96329 C 304.24019,205.08035 299.36334,206.8054 294.14016,207.11833 C 289.32277,207.18772 284.45303,207.03057 279.72891,206.00978 C 274.50024,204.75 269.44244,202.95407 264.65562,200.47904 C 258.54232,197.42128 252.53304,194.08063 246.80946,190.34477 C 242.21502,186.86797 237.52903,183.51386 233.28763,179.59588 C 228.96614,176.05672 224.53893,172.65544 220.0177,169.37705 C 217.64336,167.47222 215.13423,165.75286 212.79433,163.80643 C 211.47036,162.66103 209.96315,161.78662 208.56763,160.73404 C 206.04783,158.8182 203.54226,156.88426 200.97893,155.0266 C 199.42117,153.96144 197.81904,152.95409 196.29917,151.8347 C 194.99967,150.87761 195.01378,150.76042 193.65488,149.93041 C 193.23164,149.6719 192.78572,149.4525 192.35114,149.21355 C 191.29502,148.78228 190.98169,148.59062 189.88027,148.37708 C 187.98184,148.009 186.02885,148.2032 184.11154,148.14068 C 179.86687,148.1091 175.62176,148.15309 171.38054,148.34157 C 165.94788,148.61336 160.53932,149.15383 155.12171,149.62687 C 150.07885,149.86339 145.05375,150.32629 140.01342,150.5727 C 136.36633,150.39721 132.72484,150.13381 129.11583,149.55722 C 125.94347,149.2785 122.74203,149.37219 119.58412,148.88895 C 115.78129,148.36881 112.0025,147.69279 108.16556,147.451 C 104.09578,146.83354 100.11508,145.78666 96.113325,144.83461 C 90.629692,143.40326 85.041877,142.47472 79.513738,141.2323 C 75.543239,140.25032 71.617024,139.21037 67.886614,137.50207 C 64.757991,136.34172 61.698584,135.01868 58.804934,133.34487 C 55.374439,131.2249 52.057625,128.92805 48.824089,126.51774 C 46.779095,125.14267 44.680974,123.95099 42.569985,122.68607 C 39.816993,121.03646 41.07695,121.65898 38.386897,119.91601 C 37.688495,119.4635 36.966222,119.04894 36.255884,118.6154 C 34.09497,117.43849 31.786736,116.36031 29.750837,114.97076 C 27.937206,113.73291 26.409355,112.0898 24.55133,110.90737 C 20.52633,108.06739 16.444319,105.28452 12.618942,102.18011 C 9.5602487,99.314292 6.5515633,96.389464 3.1946103,93.863778 C -0.22503427,91.007614 -3.3789664,87.848782 -6.7323798,84.915794 C -9.9130758,81.965435 -13.131394,79.047758 -16.561521,76.390443 C -18.575569,75.00005 -20.684178,73.669144 -23.040819,72.941893 L -15.132008,67.430988 z"
       transform="translate(-4.149475e-6,698.0315)" />
    <g
       id="g13662"
       transform="matrix(1.4834919,-0.2340851,0.2340851,1.4834919,-1028.0153,-228.96812)">
      <g
         id="g10952"
         transform="matrix(0.3354176,0,0,0.3354176,203.2575,513.91213)">
        <path
           sodipodi:nodetypes="csssccssssssc"
           id="path10954"
           d="M 670.65834,943.08711 C 675.05734,957.7633 676.30258,983.33719 676.30258,1005.787 C 676.30258,1021.8283 674.89152,1036.4244 674.89152,1052.3062 C 674.89152,1070.861 671.20725,1074.5546 687.59106,1074.5546 C 697.47514,1074.5546 708.16988,1075.7763 717.22334,1072.5319 C 762.96823,1072.7983 733.91888,1074.0885 775.07683,1070.5094 C 768.62425,1047.387 777.89895,1041.1601 777.89895,1017.9224 C 777.89895,996.3483 777.89895,974.77415 777.89895,953.19999 C 777.89895,936.0455 778.31427,930.95165 765.1994,930.95165 C 756.25638,930.95165 748.98499,928.92907 739.80031,928.92907 C 729.17756,928.92907 717.14793,930.95165 705.93486,930.95165 C 695.8665,930.95165 687.49594,932.97422 677.71364,932.97422 C 674.38774,932.97422 673.01011,939.71615 670.65834,943.08711 z"
           style="fill:#e6e6e6;fill-rule:evenodd;stroke:#000000;stroke-width:0.8361966px;stroke-linecap:butt;stroke-linejoin:miter;stroke-opacity:1" />
        <path
           id="path10956"
           d="M 697.00421,967.39677 C 680.82775,967.39677 729.79806,973.34044 745.49153,969.41707 C 747.45152,968.92708 749.53214,969.41707 751.55245,969.41707"
           style="fill:none;fill-rule:evenodd;stroke:#000000;stroke-width:1px;stroke-linecap:butt;stroke-linejoin:miter;stroke-opacity:1" />
        <path
           id="path10958"
           d="M 699.02452,985.57952 C 699.8471,985.37387 720.88838,985.57952 733.3697,985.57952"
           style="fill:none;fill-rule:evenodd;stroke:#000000;stroke-width:1px;stroke-linecap:butt;stroke-linejoin:miter;stroke-opacity:1" />
        <path
           id="path10960"
           d="M 697.00421,1007.8029 C 698.21735,1007.4996 720.50337,1007.8029 733.3697,1007.8029"
           style="fill:none;fill-rule:evenodd;stroke:#000000;stroke-width:1px;stroke-linecap:butt;stroke-linejoin:miter;stroke-opacity:1" />
        <path
           id="path10962"
           d="M 701.04482,1030.0262 C 702.78361,1029.5915 729.53336,1028.0059 743.47123,1028.0059"
           style="fill:none;fill-rule:evenodd;stroke:#000000;stroke-width:1px;stroke-linecap:butt;stroke-linejoin:miter;stroke-opacity:1" />
        <path
           id="path10964"
           d="M 703.06513,1054.2698 C 708.43086,1052.9284 735.05407,1055.364 747.51184,1052.2495"
           style="fill:none;fill-rule:evenodd;stroke:#000000;stroke-width:1px;stroke-linecap:butt;stroke-linejoin:miter;stroke-opacity:1" />
        <text
           id="text10966"
           y="957.29529"
           x="678.82147"
           style="font-size:30px;font-style:normal;font-weight:normal;fill:#000000;fill-opacity:1;stroke:none;stroke-width:1px;stroke-linecap:butt;stroke-linejoin:miter;stroke-opacity:1;font-family:Bitstream Vera Sans"
           xml:space="preserve"><tspan
             y="957.29529"
             x="678.82147"
             id="tspan10968"
             sodipodi:role="line">Article</tspan></text>
      </g>
      <path
         sodipodi:nodetypes="cssssssssssccssssssc"
         id="path4607"
         d="M 590.12951,840.99394 C 593.0242,846.78333 577.19641,840.30087 570.72368,840.30087 C 562.92156,840.30087 555.01744,840.99394 547.15947,840.99394 C 541.62027,840.99394 540.92187,844.5784 540.92187,850.00379 C 540.92187,857.6999 533.26424,866.46286 529.83284,872.18186 C 529.07176,873.45033 528.2297,883.06833 527.30561,884.22344 C 522.73458,889.93724 523.15443,901.68649 523.15443,909.17379 C 523.15443,917.58333 518.79305,924.24448 518.79305,932.65392 C 518.79305,938.37088 518.45813,941.74344 517.04297,947.40407 C 515.9917,951.6092 536.54626,949.80518 539.53575,949.80518 C 556.00511,949.80518 572.79865,951.88437 588.74337,951.88437 C 602.34743,951.88437 619.38015,951.00756 632.40648,955.34968 C 647.71991,953.74441 641.74348,962.89901 643.58559,927.02531 C 640.80765,918.6915 644.57561,914.55549 643.19402,905.17634 C 641.82806,895.90337 644.91647,884.0333 644.91647,874.67426 C 644.91647,868.64619 646.26779,857.60506 646.26779,850.69685 C 646.26779,846.05867 641.79633,842.64833 637.951,841.68701 C 630.04529,839.71057 620.58091,840.30087 612.30759,840.30087 C 606.38574,840.30087 601.52487,840.39756 596.36709,841.68701 C 594.69099,842.10603 591.49292,841.26663 590.12951,840.99394 z"
         style="fill:#b3b3b3;fill-rule:evenodd;stroke:#000000;stroke-width:0.34304973px;stroke-linecap:butt;stroke-linejoin:miter;stroke-opacity:1" />
      <path
         id="path4609"
         d="M 555.47625,846.53845 C 557.43782,839.60239 561.02076,827.93592 561.02076,818.12279 C 561.02076,813.3325 558.79152,801.35347 563.79302,800.10309 C 573.95441,797.56275 584.80575,798.0239 595.67403,798.0239 C 603.80518,798.0239 613.73643,799.22609 621.31744,797.33083 C 632.31159,794.58229 628.94255,802.87885 631.71341,809.80601 C 635.22076,818.57438 633.79261,831.97732 633.79261,841.68701 C 633.79261,850.97005 634.13883,850.69685 622.0105,850.69685 C 613.55563,850.69685 605.59347,850.00379 597.06015,850.00379 C 589.43644,850.00379 581.81272,850.00379 574.189,850.00379 C 568.63917,850.00379 561.2637,847.69595 555.47625,846.53845 z"
         style="fill:#e6e6e6;fill-rule:evenodd;stroke:#000000;stroke-width:0.34304973px;stroke-linecap:butt;stroke-linejoin:miter;stroke-opacity:1" />
      <path
         sodipodi:nodetypes="cssssssscc"
         id="path4611"
         d="M 567.50991,854.93662 C 568.29524,860.51853 569.79806,869.92357 575.49569,866.55151 C 583.14004,862.0273 592.95212,859.71393 601.49588,857.55934 C 606.4995,856.29752 613.89366,850.18233 618.58173,847.81783 C 623.87388,845.14866 626.20312,844.84885 624.52463,838.0763 C 623.6072,834.37457 623.78177,829.05192 623.78177,825.3374 C 623.78177,819.57124 610.45537,822.62153 607.43879,823.8387 C 602.31171,825.90744 596.60413,826.94569 591.09581,828.33479 C 583.88484,830.15327 579.98353,832.08153 572.33852,832.08153 C 565.35727,832.43663 566.9888,846.77594 567.50991,854.93662 z"
         style="fill:#000000;fill-rule:evenodd;stroke:#000000;stroke-width:0.36929968px;stroke-linecap:butt;stroke-linejoin:miter;stroke-opacity:1" />
      <path
         sodipodi:nodetypes="cssssssscc"
         id="path4613"
         d="M 569.51082,853.81565 C 570.24351,858.9783 571.64559,867.67695 576.96126,864.55815 C 584.09318,860.37375 593.24752,858.23413 601.21855,856.24137 C 605.88674,855.07432 612.78524,849.41843 617.15904,847.23153 C 622.09643,844.76283 624.26953,844.48554 622.70356,838.22168 C 621.84765,834.79797 622.0105,829.8751 622.0105,826.43958 C 622.0105,821.1065 609.57744,823.92769 606.76307,825.05344 C 601.97968,826.9668 596.65471,827.92707 591.51563,829.21184 C 584.78806,830.89373 581.14827,832.67716 574.01574,832.67716 C 567.50248,833.00559 569.02464,846.2679 569.51082,853.81565 z"
         style="fill:#ffff00;fill-rule:evenodd;stroke:#000000;stroke-width:0.34304973px;stroke-linecap:butt;stroke-linejoin:miter;stroke-opacity:1" />
      <path
         id="path4615"
         d="M 569.51082,850.87011 C 574.40178,849.63131 580.20962,848.81278 584.41172,846.71173 C 587.13979,845.34769 590.68979,845.80491 592.90177,843.59293 C 594.79897,841.69573 600.0665,840.56938 602.43141,839.78107 C 604.83991,838.97824 607.05276,838.58446 609.53533,837.87515 C 611.23137,837.39056 612.81632,836.75445 614.38678,835.96922 C 616.04625,835.13948 617.84992,835.38099 619.4115,834.75636 C 620.18565,834.44669 621.36118,834.40982 622.18376,834.40982"
         style="fill:none;fill-rule:evenodd;stroke:#000000;stroke-width:0.34304973px;stroke-linecap:butt;stroke-linejoin:miter;stroke-opacity:1" />
      <path
         id="path4617"
         d="M 611.44126,824.01384 C 611.96019,823.80627 611.33933,827.13772 612.30759,829.55836 C 613.37099,832.21688 613.00066,836.14036 613.00066,839.08801 C 613.00066,840.29483 613.10046,841.63433 612.82739,842.7266 C 612.58702,843.68806 612.83804,844.92578 612.65412,845.84539 C 612.47661,846.73294 612.65412,847.87761 612.65412,848.79093 C 612.65412,848.98155 612.78628,849.58385 612.82739,849.83051"
         style="fill:none;fill-rule:evenodd;stroke:#000000;stroke-width:0.34304973px;stroke-linecap:butt;stroke-linejoin:miter;stroke-opacity:1" />
      <path
         id="path4619"
         d="M 599.48588,827.3059 C 599.48588,829.30974 598.96609,832.4397 598.96609,835.10288 C 598.96609,837.2057 599.13935,839.26926 599.13935,841.34047 C 599.13935,843.62227 598.96609,845.85863 598.96609,848.09785 C 598.96609,849.81623 598.79281,851.52983 598.79281,853.29585 C 598.79281,854.39319 598.79281,855.49055 598.79281,856.58791"
         style="fill:none;fill-rule:evenodd;stroke:#000000;stroke-width:0.34304973px;stroke-linecap:butt;stroke-linejoin:miter;stroke-opacity:1" />
      <path
         id="path4621"
         d="M 587.87704,830.25143 C 587.87704,832.48637 587.35725,836.14565 587.35725,839.08801 C 587.35725,841.71839 588.05031,844.32714 588.05031,846.88499 C 588.05031,848.59691 588.22357,850.34974 588.22357,852.08298 C 588.22357,853.10691 588.12268,854.19071 587.70378,855.02851 C 587.31773,855.80059 587.35725,856.86335 587.35725,857.80077 C 587.35725,858.49383 587.35725,859.1869 587.35725,859.87997"
         style="fill:none;fill-rule:evenodd;stroke:#000000;stroke-width:0.34304973px;stroke-linecap:butt;stroke-linejoin:miter;stroke-opacity:1" />
      <path
         id="path4623"
         d="M 577.3078,832.85042 C 577.3078,835.95786 577.70854,839.39095 576.96126,842.38007 C 576.25522,845.20424 576.96126,847.54804 576.96126,850.35031 C 576.96126,852.20172 577.54778,854.64213 578.3474,856.24137 C 578.92519,857.39696 579.04046,858.38431 579.04046,859.7067 C 579.04046,860.66068 578.99946,861.62188 579.21373,862.47896 C 579.26979,862.70322 579.34028,862.98518 579.387,863.17203"
         style="fill:none;fill-rule:evenodd;stroke:#000000;stroke-width:0.34304973px;stroke-linecap:butt;stroke-linejoin:miter;stroke-opacity:1" />
      <path
         transform="matrix(0.3430497,0,0,0.3430497,775.87096,590.17872)"
         d="M -539.92654,655.11969 A 28.284271,27.02158 0 1 1 -596.49509,655.11969 A 28.284271,27.02158 0 1 1 -539.92654,655.11969 z"
         sodipodi:ry="27.02158"
         sodipodi:rx="28.284271"
         sodipodi:cy="655.11969"
         sodipodi:cx="-568.21082"
         id="path4625"
         style="fill:#ff0000;stroke:#000000;stroke-width:5;stroke-miterlimit:4;stroke-dasharray:none;stroke-opacity:1"
         sodipodi:type="arc" />
      <path
         transform="matrix(0.3430497,0,0,0.3430497,775.87096,590.17872)"
         d="M -450.02295,649.31134 A 25.253813,24.748737 0 1 1 -500.53058,649.31134 A 25.253813,24.748737 0 1 1 -450.02295,649.31134 z"
         sodipodi:ry="24.748737"
         sodipodi:rx="25.253813"
         sodipodi:cy="649.31134"
         sodipodi:cx="-475.27676"
         id="path4627"
         style="fill:#ff0000;stroke:#000000;stroke-width:5;stroke-miterlimit:4;stroke-dasharray:none;stroke-opacity:1"
         sodipodi:type="arc" />
      <path
         id="path4629"
         d="M 582.37702,821.32188 C 583.51648,821.98242 584.53243,821.7928 585.6061,820.49671 C 586.13169,819.86223 586.78301,818.07642 586.8834,817.41834 C 587.05363,816.30247 587.98159,815.51412 588.16071,814.33998 C 588.40442,812.74246 587.31047,811.59117 586.42442,810.67433 C 585.49209,809.70963 584.13404,809.43222 582.98484,809.2569 C 581.68579,809.05873 580.32587,809.55522 579.14108,809.09561 C 578.09797,808.69095 576.766,810.0348 576.14929,810.59463 C 575.32382,811.34397 575.05776,812.73393 574.88818,813.8455 C 574.70037,815.0765 574.28586,816.18378 574.69449,817.34424 C 575.04371,818.33597 575.44323,819.51326 576.36041,818.40606 C 577.18092,817.41557 576.9899,815.84217 576.86673,814.52992 C 576.78122,813.61906 579.24429,813.08857 580.03104,813.01472 C 581.25689,812.89966 582.03676,812.98418 583.04463,813.602 C 583.7696,814.04639 583.73208,815.36374 583.80504,816.14104 C 583.91598,817.3231 582.28768,817.32763 581.48707,817.40277 C 580.51285,817.49422 580.9495,815.1463 580.09082,817.3598 C 579.65332,818.48758 580.49742,819.23594 581.47648,819.14405 C 582.33335,819.06362 582.75613,821.33355 580.98077,821.27892 C 579.61092,821.23676 578.19624,821.29597 580.16679,821.8774 C 580.79032,822.06137 581.9353,821.54854 582.37702,821.32188 z"
         style="fill:#ffffff;fill-rule:evenodd;stroke:#000000;stroke-width:0.34304973px;stroke-linecap:butt;stroke-linejoin:miter;stroke-opacity:1" />
      <path
         id="path4631"
         d="M 612.31658,807.94097 C 611.47915,807.34446 610.67569,807.41771 609.74666,808.34675 C 609.29187,808.80154 608.65536,810.142 608.52933,810.64616 C 608.31561,811.50101 607.53688,812.04605 607.312,812.94555 C 607.00603,814.16941 607.77229,815.14403 608.39406,815.92125 C 609.04832,816.73906 610.08359,817.05375 610.96399,817.27383 C 611.95919,817.52263 613.05237,817.23595 613.93969,817.67961 C 614.7209,818.07023 615.85418,817.12292 616.37435,816.7328 C 617.07059,816.21062 617.37878,815.14972 617.59168,814.29814 C 617.82745,813.35508 618.23039,812.52471 617.99745,811.59296 C 617.79838,810.79669 617.57375,809.85251 616.78012,810.64616 C 616.07015,811.35613 616.10382,812.59295 616.10382,813.62184 C 616.10382,814.33602 614.15077,814.56866 613.53391,814.56866 C 612.57274,814.56866 611.97278,814.44607 611.2345,813.89237 C 610.70346,813.49408 610.82872,812.47293 610.82872,811.86349 C 610.82872,810.93666 612.09461,811.05193 612.72236,811.05193 C 613.48622,811.05193 612.97554,812.84494 613.80442,811.18719 C 614.22674,810.34256 613.62528,809.69934 612.85761,809.69934 C 612.18576,809.69934 612.02277,807.90425 613.39865,808.07623 C 614.46025,808.20893 615.56409,808.26612 614.07494,807.67046 C 613.60375,807.48197 612.67643,807.79704 612.31658,807.94097 z"
         style="fill:#ffffff;fill-rule:evenodd;stroke:#000000;stroke-width:0.26779905px;stroke-linecap:butt;stroke-linejoin:miter;stroke-opacity:1" />
      <path
         sodipodi:nodetypes="cssssssssssssssssssssssssssssc"
         id="path4633"
         d="M 555.36907,866.64479 C 555.01936,868.9524 557.44723,872.27173 561.05457,873.92038 C 564.11861,875.32073 569.24235,874.95975 572.80461,874.95975 C 576.46355,874.95975 582.88736,871.7443 586.07078,869.41644 C 588.72557,867.47514 589.54029,863.73945 590.61919,867.68415 C 591.21591,869.86589 592.36293,871.47798 594.40952,872.88101 C 595.97386,873.95341 600.17326,874.95975 601.9902,874.95975 C 605.23843,874.95975 607.10008,874.91806 609.9499,874.26684 C 612.92393,873.58723 616.37108,872.0251 619.04671,870.80226 C 619.80477,870.45581 620.56285,870.10935 621.32091,869.7629 C 623.56031,868.73943 624.73221,867.54579 624.73221,865.25895 C 624.73221,862.83375 624.73221,870.10935 624.73221,872.53455 C 624.73221,876.12186 625.11126,879.94699 625.11126,883.62118 C 625.11126,888.09041 624.73221,892.63068 624.73221,897.133 C 624.73221,900.39712 624.73728,903.01353 623.21608,905.79442 C 621.41733,909.08272 620.17353,912.73296 617.15155,915.49521 C 613.85468,918.50873 612.72872,922.51148 608.8128,925.196 C 604.26112,928.31637 600.73812,930.47168 596.30469,933.51097 C 593.75312,935.26017 591.48666,936.62908 588.34499,936.62908 C 585.73655,936.62908 581.98012,932.54354 580.38528,931.08577 C 577.19902,928.17336 570.77093,926.62846 567.87717,923.9834 C 566.57875,922.79658 563.0043,918.0451 562.38119,916.6212 C 561.38226,914.33853 559.40319,912.74879 558.78036,910.47159 C 558.20277,908.35981 557.90358,905.57739 556.88519,903.71568 C 555.78458,901.70364 556.23767,898.37445 555.17954,896.44008 C 553.86373,894.03464 554.87706,891.52315 554.23195,889.16449 C 553.61318,886.90209 554.61099,885.36803 554.61099,882.92826 C 554.61099,880.80331 553.85292,878.6968 553.85292,876.34558 C 553.85292,874.38233 553.85292,872.41907 553.85292,870.45581 C 553.85292,869.15207 554.75221,867.77246 555.36907,866.64479 z"
         style="fill:#ffff00;fill-rule:evenodd;stroke:#000000;stroke-width:0.35873735px;stroke-linecap:butt;stroke-linejoin:miter;stroke-opacity:1" />
      <text
         sodipodi:linespacing="125%"
         id="text4635"
         y="893.85297"
         x="591.60425"
         style="font-size:24.01348114px;font-style:normal;font-variant:normal;font-weight:normal;font-stretch:normal;text-align:center;line-height:125%;writing-mode:lr-tb;text-anchor:middle;fill:#000000;fill-opacity:1;stroke:none;stroke-width:1px;stroke-linecap:butt;stroke-linejoin:miter;stroke-opacity:1;font-family:Bitstream Vera Serif;-inkscape-font-specification:Bitstream Vera Serif"
         xml:space="preserve"><tspan
           y="893.85297"
           x="591.60425"
           id="tspan4637"
           sodipodi:role="line">LDA</tspan><tspan
           id="tspan4639"
           y="923.86981"
           x="591.60425"
           sodipodi:role="line">LSI</tspan></text>
      <path
         transform="matrix(0.3430497,0,0,0.3430497,775.52668,590.43744)"
         d="M -543.57144,658.07648 A 9.6428576,10 0 1 1 -562.85715,658.07648 A 9.6428576,10 0 1 1 -543.57144,658.07648 z"
         sodipodi:ry="10"
         sodipodi:rx="9.6428576"
         sodipodi:cy="658.07648"
         sodipodi:cx="-553.21429"
         id="path4641"
         style="fill:#000000;stroke:#000000;stroke-width:5;stroke-miterlimit:4;stroke-dasharray:none;stroke-opacity:1"
         sodipodi:type="arc" />
      <path
         transform="matrix(0.3430497,0,0,0.3430497,806.8023,588.7703)"
         d="M -543.57144,658.07648 A 9.6428576,10 0 1 1 -562.85715,658.07648 A 9.6428576,10 0 1 1 -543.57144,658.07648 z"
         sodipodi:ry="10"
         sodipodi:rx="9.6428576"
         sodipodi:cy="658.07648"
         sodipodi:cx="-553.21429"
         id="path4643"
         style="fill:#000000;stroke:#000000;stroke-width:5;stroke-miterlimit:4;stroke-dasharray:none;stroke-opacity:1"
         sodipodi:type="arc" />
      <g
         style="fill:#cccccc"
         id="g4702"
         transform="matrix(-7.5288809e-3,-0.3429671,0.3429671,-7.5288809e-3,163.94372,720.92809)">
        <path
           id="path4704"
           d="M -648.57143,1378.0765 C -650.23107,1369.3353 -645.24862,1365.1262 -631.42857,1362.3622 C -620.08558,1360.0936 -616.09256,1364.7565 -614.28571,1373.7908 C -612.81569,1381.1409 -614.28571,1390.5472 -614.28571,1398.0765 C -614.28571,1409.8041 -613.0619,1420.217 -610,1430.9336 C -609.46062,1432.8215 -609.04762,1434.7431 -608.57143,1436.6479 C -605.61695,1448.4658 -596.34398,1461.7325 -587.14286,1470.9336 C -576.10886,1481.9676 -573.63554,1491.0962 -557.14286,1495.2193 C -536.1424,1500.4694 -517.31783,1505.2193 -494.28571,1505.2193 C -480.86826,1505.2193 -467.78491,1506.6479 -454.28571,1506.6479 C -445.89785,1506.6479 -447.14286,1519.5119 -447.14286,1526.6479 C -447.14286,1537.7001 -451.95656,1541.8964 -461.42857,1543.7908 C -472.28301,1545.9616 -485.95429,1543.7908 -497.14286,1543.7908 C -508.24644,1543.7908 -521.3641,1539.2451 -531.42857,1535.2193 C -540.43204,1531.6179 -549.43767,1528.4746 -558.57143,1526.6479 C -568.57852,1524.6465 -578.73436,1519.0257 -585.71429,1513.7908 C -593.35322,1508.0616 -599.98038,1502.3818 -607.14286,1495.2193 C -614.65281,1487.7094 -621.01266,1481.3495 -628.57143,1473.7908 C -634.23893,1468.1232 -638.25466,1457.915 -640,1450.9336 C -640.25825,1449.9006 -640.95238,1449.0288 -641.42857,1448.0765 C -645.18368,1440.5662 -645.71429,1430.7476 -645.71429,1422.3622 C -645.71429,1413.7908 -645.71429,1405.2193 -645.71429,1396.6479 C -645.71429,1390.3215 -648.57143,1384.9358 -648.57143,1378.0765 z"
           style="fill:#cccccc;fill-rule:evenodd;stroke:#000000;stroke-width:1px;stroke-linecap:butt;stroke-linejoin:miter;stroke-opacity:1" />
        <path
           id="path4706"
           d="M -637.14286,1413.7908 C -635.34256,1415.141 -618.74123,1413.8332 -612.85714,1412.3622"
           style="fill:#cccccc;fill-rule:evenodd;stroke:#000000;stroke-width:1px;stroke-linecap:butt;stroke-linejoin:miter;stroke-opacity:1" />
        <path
           id="path4708"
           d="M -632.85714,1445.2193 C -628.57994,1448.4272 -616.62657,1448.6617 -608.57143,1446.6479"
           style="fill:#cccccc;fill-rule:evenodd;stroke:#000000;stroke-width:1px;stroke-linecap:butt;stroke-linejoin:miter;stroke-opacity:1" />
        <path
           id="path4710"
           d="M -611.42857,1480.9336 C -605.753,1485.1903 -594.19303,1476.5552 -588.57143,1470.9336"
           style="fill:#cccccc;fill-rule:evenodd;stroke:#000000;stroke-width:1px;stroke-linecap:butt;stroke-linejoin:miter;stroke-opacity:1" />
        <path
           id="path4712"
           d="M -578.57143,1508.0765 C -572.38095,1501.886 -561.28944,1503.3293 -554.28571,1498.0765"
           style="fill:#cccccc;fill-rule:evenodd;stroke:#000000;stroke-width:1px;stroke-linecap:butt;stroke-linejoin:miter;stroke-opacity:1" />
        <path
           id="path4714"
           d="M -530,1522.3622 C -523.90581,1517.7915 -510.41549,1518.3099 -507.14286,1505.2193"
           style="fill:#cccccc;fill-rule:evenodd;stroke:#000000;stroke-width:1px;stroke-linecap:butt;stroke-linejoin:miter;stroke-opacity:1" />
        <path
           id="path4716"
           d="M -491.42857,1533.7908 C -481.54705,1526.3796 -476.3746,1519.013 -471.42857,1506.6479 C -471.07487,1505.7636 -471.42857,1504.7431 -471.42857,1503.7908"
           style="fill:#cccccc;fill-rule:evenodd;stroke:#000000;stroke-width:1px;stroke-linecap:butt;stroke-linejoin:miter;stroke-opacity:1" />
      </g>
      <g
         transform="matrix(0.3354176,0,0,0.3354176,387.45713,488.35136)"
         id="g10970">
        <g
           id="g10972"
           transform="translate(0,32.324881)">
          <path
             id="path10974"
             d="M 254.55844,737.19459 C 260.85677,751.8543 262.63966,777.39947 262.63966,799.82405 C 262.63966,815.84736 260.61936,830.42718 260.61936,846.29106 C 260.61936,864.82502 255.34434,868.51442 278.8021,868.51442 C 292.95376,868.51442 308.26609,869.73472 321.22851,866.49411 C 332.16963,863.75883 326.63955,897.3779 325.26912,902.85961 C 321.25916,918.89944 325.2433,937.29517 321.22851,951.34693 C 317.61718,963.98659 334.15986,971.54998 343.45187,971.54998 C 365.08645,971.54998 385.33626,974.85144 404.06102,965.48906 C 412.95664,961.04125 405.07041,904.37295 402.04071,896.79869 C 392.80214,873.70225 408.10163,835.15756 408.10163,811.94588 C 408.10163,790.39596 408.10163,768.84604 408.10163,747.29611 C 408.10163,730.16089 408.69627,725.07276 389.91888,725.07276 C 377.11459,725.07276 366.70367,723.05245 353.55339,723.05245 C 338.34412,723.05245 321.12054,725.07276 305.06607,725.07276 C 290.65056,725.07276 278.6659,727.09306 264.65997,727.09306 C 259.89806,727.09306 257.92562,733.82741 254.55844,737.19459 z"
             style="fill:#e6e6e6;fill-rule:evenodd;stroke:#000000;stroke-width:1px;stroke-linecap:butt;stroke-linejoin:miter;stroke-opacity:1" />
          <path
             id="path10976"
             d="M 278.8021,765.47886 C 268.61118,765.47886 299.99164,765.99577 309.10668,761.43825"
             style="fill:none;fill-rule:evenodd;stroke:#000000;stroke-width:1px;stroke-linecap:butt;stroke-linejoin:miter;stroke-opacity:1" />
          <path
             id="path10978"
             d="M 274.76149,783.66161 C 260.60333,783.66161 303.45247,785.07516 317.1879,781.6413"
             style="fill:none;fill-rule:evenodd;stroke:#000000;stroke-width:1px;stroke-linecap:butt;stroke-linejoin:miter;stroke-opacity:1" />
          <path
             id="path10980"
             d="M 272.74119,811.94588 C 257.7885,811.94588 302.52559,808.81742 317.1879,805.88496"
             style="fill:none;fill-rule:evenodd;stroke:#000000;stroke-width:1px;stroke-linecap:butt;stroke-linejoin:miter;stroke-opacity:1" />
          <path
             id="path10982"
             d="M 276.7818,832.14893 C 263.24592,832.14893 303.65202,836.18954 317.1879,836.18954"
             style="fill:none;fill-rule:evenodd;stroke:#000000;stroke-width:1px;stroke-linecap:butt;stroke-linejoin:miter;stroke-opacity:1" />
          <path
             id="path10984"
             d="M 276.7818,852.35198 C 261.23434,852.35198 308.00328,851.36048 323.24881,848.31137"
             style="fill:none;fill-rule:evenodd;stroke:#000000;stroke-width:1px;stroke-linecap:butt;stroke-linejoin:miter;stroke-opacity:1" />
          <path
             id="path10986"
             d="M 341.43156,765.47886 C 325.2551,765.47886 374.22541,771.42253 389.91888,767.49916 C 391.87887,767.00917 393.95949,767.49916 395.9798,767.49916"
             style="fill:none;fill-rule:evenodd;stroke:#000000;stroke-width:1px;stroke-linecap:butt;stroke-linejoin:miter;stroke-opacity:1" />
          <path
             id="path10988"
             d="M 343.45187,783.66161 C 344.27445,783.45596 365.31573,783.66161 377.79705,783.66161"
             style="fill:none;fill-rule:evenodd;stroke:#000000;stroke-width:1px;stroke-linecap:butt;stroke-linejoin:miter;stroke-opacity:1" />
          <path
             id="path10990"
             d="M 341.43156,805.88496 C 342.6447,805.58168 364.93072,805.88496 377.79705,805.88496"
             style="fill:none;fill-rule:evenodd;stroke:#000000;stroke-width:1px;stroke-linecap:butt;stroke-linejoin:miter;stroke-opacity:1" />
          <path
             id="path10992"
             d="M 345.47217,828.10832 C 347.21096,827.67362 373.96071,826.08801 387.89858,826.08801"
             style="fill:none;fill-rule:evenodd;stroke:#000000;stroke-width:1px;stroke-linecap:butt;stroke-linejoin:miter;stroke-opacity:1" />
          <path
             id="path10994"
             d="M 347.49248,852.35198 C 352.85821,851.01054 379.48142,853.44612 391.93919,850.33167"
             style="fill:none;fill-rule:evenodd;stroke:#000000;stroke-width:1px;stroke-linecap:butt;stroke-linejoin:miter;stroke-opacity:1" />
          <path
             id="path10996"
             d="M 341.43156,880.63625 C 346.32452,879.41301 370.13653,878.61594 381.83766,878.61594"
             style="fill:none;fill-rule:evenodd;stroke:#000000;stroke-width:1px;stroke-linecap:butt;stroke-linejoin:miter;stroke-opacity:1" />
          <path
             id="path10998"
             d="M 349.51278,902.85961 C 359.3127,900.40963 369.85327,904.52029 379.81736,902.85961"
             style="fill:none;fill-rule:evenodd;stroke:#000000;stroke-width:1px;stroke-linecap:butt;stroke-linejoin:miter;stroke-opacity:1" />
          <path
             id="path11000"
             d="M 337.39095,929.12357 C 344.33774,927.38687 366.82931,930.35028 379.81736,927.10327"
             style="fill:none;fill-rule:evenodd;stroke:#000000;stroke-width:1px;stroke-linecap:butt;stroke-linejoin:miter;stroke-opacity:1" />
          <path
             id="path11002"
             d="M 345.47217,951.34693 C 357.15739,948.42562 387.27147,949.32662 406.08132,949.32662"
             style="fill:none;fill-rule:evenodd;stroke:#000000;stroke-width:1px;stroke-linecap:butt;stroke-linejoin:miter;stroke-opacity:1" />
          <text
             id="text11004"
             y="755.37738"
             x="288.90363"
             style="font-size:30px;font-style:normal;font-weight:normal;fill:#000000;fill-opacity:1;stroke:none;stroke-width:1px;stroke-linecap:butt;stroke-linejoin:miter;stroke-opacity:1;font-family:Bitstream Vera Sans"
             xml:space="preserve"><tspan
               y="755.37738"
               x="288.90363"
               id="tspan11006"
               sodipodi:role="line">Article</tspan></text>
        </g>
      </g>
      <g
         id="g13619">
        <path
           style="fill:none;fill-rule:evenodd;stroke:#000000;stroke-width:0.34304973px;stroke-linecap:butt;stroke-linejoin:miter;stroke-opacity:1"
           d="M 469.40962,853.03702 C 469.49542,852.82251 469.73634,852.7103 469.40962,853.03702 z"
           id="path4574" />
        <g
           style="fill:#cccccc"
           id="g4686"
           transform="matrix(0.3430497,0,0,0.3430497,700.2331,347.45347)">
          <path
             id="path4688"
             d="M -648.57143,1378.0765 C -650.23107,1369.3353 -645.24862,1365.1262 -631.42857,1362.3622 C -620.08558,1360.0936 -616.09256,1364.7565 -614.28571,1373.7908 C -612.81569,1381.1409 -614.28571,1390.5472 -614.28571,1398.0765 C -614.28571,1409.8041 -613.0619,1420.217 -610,1430.9336 C -609.46062,1432.8215 -609.04762,1434.7431 -608.57143,1436.6479 C -605.61695,1448.4658 -596.34398,1461.7325 -587.14286,1470.9336 C -576.10886,1481.9676 -573.63554,1491.0962 -557.14286,1495.2193 C -536.1424,1500.4694 -517.31783,1505.2193 -494.28571,1505.2193 C -480.86826,1505.2193 -467.78491,1506.6479 -454.28571,1506.6479 C -445.89785,1506.6479 -447.14286,1519.5119 -447.14286,1526.6479 C -447.14286,1537.7001 -451.95656,1541.8964 -461.42857,1543.7908 C -472.28301,1545.9616 -485.95429,1543.7908 -497.14286,1543.7908 C -508.24644,1543.7908 -521.3641,1539.2451 -531.42857,1535.2193 C -540.43204,1531.6179 -549.43767,1528.4746 -558.57143,1526.6479 C -568.57852,1524.6465 -578.73436,1519.0257 -585.71429,1513.7908 C -593.35322,1508.0616 -599.98038,1502.3818 -607.14286,1495.2193 C -614.65281,1487.7094 -621.01266,1481.3495 -628.57143,1473.7908 C -634.23893,1468.1232 -638.25466,1457.915 -640,1450.9336 C -640.25825,1449.9006 -640.95238,1449.0288 -641.42857,1448.0765 C -645.18368,1440.5662 -645.71429,1430.7476 -645.71429,1422.3622 C -645.71429,1413.7908 -645.71429,1405.2193 -645.71429,1396.6479 C -645.71429,1390.3215 -648.57143,1384.9358 -648.57143,1378.0765 z"
             style="fill:#cccccc;fill-rule:evenodd;stroke:#000000;stroke-width:1px;stroke-linecap:butt;stroke-linejoin:miter;stroke-opacity:1" />
          <path
             id="path4690"
             d="M -637.14286,1413.7908 C -635.34256,1415.141 -618.74123,1413.8332 -612.85714,1412.3622"
             style="fill:#cccccc;fill-rule:evenodd;stroke:#000000;stroke-width:1px;stroke-linecap:butt;stroke-linejoin:miter;stroke-opacity:1" />
          <path
             id="path4692"
             d="M -632.85714,1445.2193 C -628.57994,1448.4272 -616.62657,1448.6617 -608.57143,1446.6479"
             style="fill:#cccccc;fill-rule:evenodd;stroke:#000000;stroke-width:1px;stroke-linecap:butt;stroke-linejoin:miter;stroke-opacity:1" />
          <path
             id="path4694"
             d="M -611.42857,1480.9336 C -605.753,1485.1903 -594.19303,1476.5552 -588.57143,1470.9336"
             style="fill:#cccccc;fill-rule:evenodd;stroke:#000000;stroke-width:1px;stroke-linecap:butt;stroke-linejoin:miter;stroke-opacity:1" />
          <path
             id="path4696"
             d="M -578.57143,1508.0765 C -572.38095,1501.886 -561.28944,1503.3293 -554.28571,1498.0765"
             style="fill:#cccccc;fill-rule:evenodd;stroke:#000000;stroke-width:1px;stroke-linecap:butt;stroke-linejoin:miter;stroke-opacity:1" />
          <path
             id="path4698"
             d="M -530,1522.3622 C -523.90581,1517.7915 -510.41549,1518.3099 -507.14286,1505.2193"
             style="fill:#cccccc;fill-rule:evenodd;stroke:#000000;stroke-width:1px;stroke-linecap:butt;stroke-linejoin:miter;stroke-opacity:1" />
          <path
             id="path4700"
             d="M -491.42857,1533.7908 C -481.54705,1526.3796 -476.3746,1519.013 -471.42857,1506.6479 C -471.07487,1505.7636 -471.42857,1504.7431 -471.42857,1503.7908"
             style="fill:#cccccc;fill-rule:evenodd;stroke:#000000;stroke-width:1px;stroke-linecap:butt;stroke-linejoin:miter;stroke-opacity:1" />
        </g>
        <g
           id="g4734"
           transform="matrix(4.2578957e-2,0.340397,-0.340397,4.2578957e-2,890.55031,798.22244)"
           inkscape:transform-center-x="-3.5566632"
           inkscape:transform-center-y="-50.508659">
          <path
             style="fill:#b3b3b3;fill-rule:evenodd;stroke:#000000;stroke-width:1px;stroke-linecap:butt;stroke-linejoin:miter;stroke-opacity:1"
             d="M -162.64901,1168.1827 C -156.91972,1162.8749 -148.06398,1174.1242 -140.35963,1175.4052 C -128.88937,1177.3123 -131.80619,1178.1835 -125.12418,1169.2174 C -120.76317,1163.3657 -121.37447,1156.4172 -125.49616,1151.151 C -132.35205,1142.3915 -138.8953,1135.4234 -148.54409,1129.0332 C -158.97897,1122.1224 -166.98549,1114.6917 -179.233,1108.88 C -189.50015,1104.008 -196.98871,1105.1789 -207.77117,1105.401 C -209.27668,1105.432 -210.78224,1105.463 -212.28775,1105.494 C -218.8687,1105.6295 -226.01339,1110.9819 -229.25548,1115.3323 C -232.99735,1120.3532 -237.82546,1121.6077 -232.19386,1126.2371 C -226.33256,1131.0554 -215.64117,1135.2099 -208.8989,1138.4093 C -205.43042,1140.0551 -209.31108,1130.0371 -206.8731,1127.0713 C -203.34663,1122.7814 -199.02055,1135.2699 -194.00346,1137.6507 C -191.23637,1138.9637 -189.78127,1128.7526 -184.15069,1133.3811 C -180.02382,1136.7736 -191.51361,1142.1486 -179.4016,1144.5796 C -172.78779,1145.907 -165.9245,1139.7411 -170.27543,1148.9102 C -173.75467,1156.2422 -163.50446,1154.6448 -158.41141,1154.5399 C -150.56966,1154.3784 -160.45467,1166.4652 -162.64901,1168.1827 z"
             id="path4736"
             inkscape:transform-center-x="42.525082"
             inkscape:transform-center-y="-20.59074" />
          <path
             style="fill:#b3b3b3;fill-rule:evenodd;stroke:#000000;stroke-width:0.97856432px;stroke-linecap:butt;stroke-linejoin:miter;stroke-opacity:1"
             d="M -157.28837,1184.8617 C -154.38725,1191.8044 -141.56166,1185.7089 -134.0507,1187.7631 C -122.86837,1190.8215 -125.13044,1188.8707 -122.93704,1199.3687 C -121.50552,1206.2203 -125.03729,1211.9796 -131.01971,1214.843 C -140.97066,1219.6058 -149.87099,1222.9473 -161.32971,1224.5143 C -173.72194,1226.209 -184.14283,1229.3501 -197.70172,1229.3501 C -209.06822,1229.3501 -215.33283,1225.2635 -224.98072,1220.6458 C -226.32783,1220.0011 -227.67494,1219.3563 -229.02205,1218.7115 C -234.91054,1215.8932 -239.0715,1208.3309 -240.13572,1203.2373 C -241.364,1197.3585 -245.18882,1194.2917 -238.11506,1192.5989 C -230.75275,1190.8369 -219.31057,1191.6317 -211.84639,1191.6317 C -208.00653,1191.6317 -215.80869,1198.7042 -214.87739,1202.2702 C -213.53028,1207.4283 -204.26634,1198.4017 -198.71205,1198.4017 C -195.64868,1198.4017 -198.71219,1207.8313 -191.63972,1206.1387 C -186.45602,1204.8982 -194.53359,1195.533 -182.54672,1198.4017 C -176.00126,1199.9681 -172.44338,1208.1185 -172.44338,1198.4017 C -172.44338,1190.6316 -163.86617,1196.2205 -159.30904,1198.4017 C -152.29244,1201.76 -156.04199,1187.2479 -157.28837,1184.8617 z"
             id="path4738" />
          <path
             style="fill:#cccccc;fill-rule:evenodd;stroke:#000000;stroke-width:1px;stroke-linecap:butt;stroke-linejoin:miter;stroke-opacity:1"
             d="M -104.6647,1151.5475 C -108.59358,1152.9612 -120.69445,1152.5576 -127.89821,1152.5576 C -133.76196,1152.5576 -142.55017,1162.1588 -146.08096,1165.6896 C -149.80349,1169.4121 -148.10126,1179.8656 -148.10126,1184.8825 C -148.10126,1191.848 -144.96665,1197.1085 -140.02004,1202.0551 C -134.42797,1207.6472 -124.37801,1208.116 -116.78653,1208.116 C -106.1134,1208.116 -99.622284,1210.9002 -90.522574,1204.0754 C -84.972724,1199.913 -83.451504,1193.3057 -83.451504,1186.9028 C -83.451504,1180.2834 -83.978204,1174.6945 -85.471804,1168.7201 C -87.164994,1161.9473 -89.126034,1158.3067 -94.563184,1155.5881 C -98.871804,1153.4338 -98.112844,1152.8579 -104.6647,1151.5475 z"
             id="path4740" />
        </g>
      </g>
      <g
         inkscape:transform-center-y="-50.08127"
         inkscape:transform-center-x="7.9887418"
         id="g4742"
         transform="matrix(7.8032016e-2,0.3340571,-0.3340571,7.8032016e-2,1092.5254,808.71192)">
        <path
           inkscape:transform-center-y="-20.59074"
           inkscape:transform-center-x="42.525082"
           id="path4744"
           d="M -162.64901,1168.1827 C -156.91972,1162.8749 -148.06398,1174.1242 -140.35963,1175.4052 C -128.88937,1177.3123 -131.80619,1178.1835 -125.12418,1169.2174 C -120.76317,1163.3657 -121.37447,1156.4172 -125.49616,1151.151 C -132.35205,1142.3915 -138.8953,1135.4234 -148.54409,1129.0332 C -158.97897,1122.1224 -166.98549,1114.6917 -179.233,1108.88 C -189.50015,1104.008 -196.98871,1105.1789 -207.77117,1105.401 C -209.27668,1105.432 -210.78224,1105.463 -212.28775,1105.494 C -218.8687,1105.6295 -226.01339,1110.9819 -229.25548,1115.3323 C -232.99735,1120.3532 -237.82546,1121.6077 -232.19386,1126.2371 C -226.33256,1131.0554 -215.64117,1135.2099 -208.8989,1138.4093 C -205.43042,1140.0551 -209.31108,1130.0371 -206.8731,1127.0713 C -203.34663,1122.7814 -199.02055,1135.2699 -194.00346,1137.6507 C -191.23637,1138.9637 -189.78127,1128.7526 -184.15069,1133.3811 C -180.02382,1136.7736 -191.51361,1142.1486 -179.4016,1144.5796 C -172.78779,1145.907 -165.9245,1139.7411 -170.27543,1148.9102 C -173.75467,1156.2422 -163.50446,1154.6448 -158.41141,1154.5399 C -150.56966,1154.3784 -160.45467,1166.4652 -162.64901,1168.1827 z"
           style="fill:#b3b3b3;fill-rule:evenodd;stroke:#000000;stroke-width:1px;stroke-linecap:butt;stroke-linejoin:miter;stroke-opacity:1" />
        <path
           id="path4746"
           d="M -157.28837,1184.8617 C -154.38725,1191.8044 -141.56166,1185.7089 -134.0507,1187.7631 C -122.86837,1190.8215 -125.13044,1188.8707 -122.93704,1199.3687 C -121.50552,1206.2203 -125.03729,1211.9796 -131.01971,1214.843 C -140.97066,1219.6058 -149.87099,1222.9473 -161.32971,1224.5143 C -173.72194,1226.209 -184.14283,1229.3501 -197.70172,1229.3501 C -209.06822,1229.3501 -215.33283,1225.2635 -224.98072,1220.6458 C -226.32783,1220.0011 -227.67494,1219.3563 -229.02205,1218.7115 C -234.91054,1215.8932 -239.0715,1208.3309 -240.13572,1203.2373 C -241.364,1197.3585 -245.18882,1194.2917 -238.11506,1192.5989 C -230.75275,1190.8369 -219.31057,1191.6317 -211.84639,1191.6317 C -208.00653,1191.6317 -215.80869,1198.7042 -214.87739,1202.2702 C -213.53028,1207.4283 -204.26634,1198.4017 -198.71205,1198.4017 C -195.64868,1198.4017 -198.71219,1207.8313 -191.63972,1206.1387 C -186.45602,1204.8982 -194.53359,1195.533 -182.54672,1198.4017 C -176.00126,1199.9681 -172.44338,1208.1185 -172.44338,1198.4017 C -172.44338,1190.6316 -163.86617,1196.2205 -159.30904,1198.4017 C -152.29244,1201.76 -156.04199,1187.2479 -157.28837,1184.8617 z"
           style="fill:#b3b3b3;fill-rule:evenodd;stroke:#000000;stroke-width:0.97856432px;stroke-linecap:butt;stroke-linejoin:miter;stroke-opacity:1" />
        <path
           id="path4748"
           d="M -104.6647,1151.5475 C -108.59358,1152.9612 -120.69445,1152.5576 -127.89821,1152.5576 C -133.76196,1152.5576 -142.55017,1162.1588 -146.08096,1165.6896 C -149.80349,1169.4121 -148.10126,1179.8656 -148.10126,1184.8825 C -148.10126,1191.848 -144.96665,1197.1085 -140.02004,1202.0551 C -134.42797,1207.6472 -124.37801,1208.116 -116.78653,1208.116 C -106.1134,1208.116 -99.622284,1210.9002 -90.522574,1204.0754 C -84.972724,1199.913 -83.451504,1193.3057 -83.451504,1186.9028 C -83.451504,1180.2834 -83.978204,1174.6945 -85.471804,1168.7201 C -87.164994,1161.9473 -89.126034,1158.3067 -94.563184,1155.5881 C -98.871804,1153.4338 -98.112844,1152.8579 -104.6647,1151.5475 z"
           style="fill:#cccccc;fill-rule:evenodd;stroke:#000000;stroke-width:1px;stroke-linecap:butt;stroke-linejoin:miter;stroke-opacity:1" />
      </g>
      <g
         transform="matrix(0.3354176,0,0,0.3354176,431.43566,487.29676)"
         id="g13601">
        <path
           style="fill:#e6e6e6;fill-rule:evenodd;stroke:#000000;stroke-width:0.8361966px;stroke-linecap:butt;stroke-linejoin:miter;stroke-opacity:1"
           d="M 670.65834,943.08711 C 675.05734,957.7633 676.30258,983.33719 676.30258,1005.787 C 676.30258,1021.8283 674.89152,1036.4244 674.89152,1052.3062 C 674.89152,1070.861 671.20725,1074.5546 687.59106,1074.5546 C 697.47514,1074.5546 708.16988,1075.7763 717.22334,1072.5319 C 762.96823,1072.7983 733.91888,1074.0885 775.07683,1070.5094 C 768.62425,1047.387 777.89895,1041.1601 777.89895,1017.9224 C 777.89895,996.3483 777.89895,974.77415 777.89895,953.19999 C 777.89895,936.0455 778.31427,930.95165 765.1994,930.95165 C 756.25638,930.95165 748.98499,928.92907 739.80031,928.92907 C 729.17756,928.92907 717.14793,930.95165 705.93486,930.95165 C 695.8665,930.95165 687.49594,932.97422 677.71364,932.97422 C 674.38774,932.97422 673.01011,939.71615 670.65834,943.08711 z"
           id="path13603"
           sodipodi:nodetypes="csssccssssssc" />
        <path
           style="fill:none;fill-rule:evenodd;stroke:#000000;stroke-width:1px;stroke-linecap:butt;stroke-linejoin:miter;stroke-opacity:1"
           d="M 697.00421,967.39677 C 680.82775,967.39677 729.79806,973.34044 745.49153,969.41707 C 747.45152,968.92708 749.53214,969.41707 751.55245,969.41707"
           id="path13605" />
        <path
           style="fill:none;fill-rule:evenodd;stroke:#000000;stroke-width:1px;stroke-linecap:butt;stroke-linejoin:miter;stroke-opacity:1"
           d="M 699.02452,985.57952 C 699.8471,985.37387 720.88838,985.57952 733.3697,985.57952"
           id="path13607" />
        <path
           style="fill:none;fill-rule:evenodd;stroke:#000000;stroke-width:1px;stroke-linecap:butt;stroke-linejoin:miter;stroke-opacity:1"
           d="M 697.00421,1007.8029 C 698.21735,1007.4996 720.50337,1007.8029 733.3697,1007.8029"
           id="path13609" />
        <path
           style="fill:none;fill-rule:evenodd;stroke:#000000;stroke-width:1px;stroke-linecap:butt;stroke-linejoin:miter;stroke-opacity:1"
           d="M 701.04482,1030.0262 C 702.78361,1029.5915 729.53336,1028.0059 743.47123,1028.0059"
           id="path13611" />
        <path
           style="fill:none;fill-rule:evenodd;stroke:#000000;stroke-width:1px;stroke-linecap:butt;stroke-linejoin:miter;stroke-opacity:1"
           d="M 703.06513,1054.2698 C 708.43086,1052.9284 735.05407,1055.364 747.51184,1052.2495"
           id="path13613" />
        <text
           xml:space="preserve"
           style="font-size:30px;font-style:normal;font-weight:normal;fill:#000000;fill-opacity:1;stroke:none;stroke-width:1px;stroke-linecap:butt;stroke-linejoin:miter;stroke-opacity:1;font-family:Bitstream Vera Sans"
           x="678.82147"
           y="957.29529"
           id="text13615"><tspan
             sodipodi:role="line"
             id="tspan13617"
             x="678.82147"
             y="957.29529">Article</tspan></text>
      </g>
      <g
         transform="matrix(0.8822604,-0.4707618,0.4707618,0.8822604,-358.03635,404.32442)"
         id="g13634">
        <path
           style="fill:none;fill-rule:evenodd;stroke:#000000;stroke-width:0.34304973px;stroke-linecap:butt;stroke-linejoin:miter;stroke-opacity:1"
           d="M 469.40962,853.03702 C 469.49542,852.82251 469.73634,852.7103 469.40962,853.03702 z"
           id="path13636" />
        <g
           style="fill:#cccccc"
           id="g13638"
           transform="matrix(0.3430497,0,0,0.3430497,700.2331,347.45347)">
          <path
             id="path13640"
             d="M -648.57143,1378.0765 C -650.23107,1369.3353 -645.24862,1365.1262 -631.42857,1362.3622 C -620.08558,1360.0936 -616.09256,1364.7565 -614.28571,1373.7908 C -612.81569,1381.1409 -614.28571,1390.5472 -614.28571,1398.0765 C -614.28571,1409.8041 -613.0619,1420.217 -610,1430.9336 C -609.46062,1432.8215 -609.04762,1434.7431 -608.57143,1436.6479 C -605.61695,1448.4658 -596.34398,1461.7325 -587.14286,1470.9336 C -576.10886,1481.9676 -573.63554,1491.0962 -557.14286,1495.2193 C -536.1424,1500.4694 -517.31783,1505.2193 -494.28571,1505.2193 C -480.86826,1505.2193 -467.78491,1506.6479 -454.28571,1506.6479 C -445.89785,1506.6479 -447.14286,1519.5119 -447.14286,1526.6479 C -447.14286,1537.7001 -451.95656,1541.8964 -461.42857,1543.7908 C -472.28301,1545.9616 -485.95429,1543.7908 -497.14286,1543.7908 C -508.24644,1543.7908 -521.3641,1539.2451 -531.42857,1535.2193 C -540.43204,1531.6179 -549.43767,1528.4746 -558.57143,1526.6479 C -568.57852,1524.6465 -578.73436,1519.0257 -585.71429,1513.7908 C -593.35322,1508.0616 -599.98038,1502.3818 -607.14286,1495.2193 C -614.65281,1487.7094 -621.01266,1481.3495 -628.57143,1473.7908 C -634.23893,1468.1232 -638.25466,1457.915 -640,1450.9336 C -640.25825,1449.9006 -640.95238,1449.0288 -641.42857,1448.0765 C -645.18368,1440.5662 -645.71429,1430.7476 -645.71429,1422.3622 C -645.71429,1413.7908 -645.71429,1405.2193 -645.71429,1396.6479 C -645.71429,1390.3215 -648.57143,1384.9358 -648.57143,1378.0765 z"
             style="fill:#cccccc;fill-rule:evenodd;stroke:#000000;stroke-width:1px;stroke-linecap:butt;stroke-linejoin:miter;stroke-opacity:1" />
          <path
             id="path13642"
             d="M -637.14286,1413.7908 C -635.34256,1415.141 -618.74123,1413.8332 -612.85714,1412.3622"
             style="fill:#cccccc;fill-rule:evenodd;stroke:#000000;stroke-width:1px;stroke-linecap:butt;stroke-linejoin:miter;stroke-opacity:1" />
          <path
             id="path13644"
             d="M -632.85714,1445.2193 C -628.57994,1448.4272 -616.62657,1448.6617 -608.57143,1446.6479"
             style="fill:#cccccc;fill-rule:evenodd;stroke:#000000;stroke-width:1px;stroke-linecap:butt;stroke-linejoin:miter;stroke-opacity:1" />
          <path
             id="path13646"
             d="M -611.42857,1480.9336 C -605.753,1485.1903 -594.19303,1476.5552 -588.57143,1470.9336"
             style="fill:#cccccc;fill-rule:evenodd;stroke:#000000;stroke-width:1px;stroke-linecap:butt;stroke-linejoin:miter;stroke-opacity:1" />
          <path
             id="path13648"
             d="M -578.57143,1508.0765 C -572.38095,1501.886 -561.28944,1503.3293 -554.28571,1498.0765"
             style="fill:#cccccc;fill-rule:evenodd;stroke:#000000;stroke-width:1px;stroke-linecap:butt;stroke-linejoin:miter;stroke-opacity:1" />
          <path
             id="path13650"
             d="M -530,1522.3622 C -523.90581,1517.7915 -510.41549,1518.3099 -507.14286,1505.2193"
             style="fill:#cccccc;fill-rule:evenodd;stroke:#000000;stroke-width:1px;stroke-linecap:butt;stroke-linejoin:miter;stroke-opacity:1" />
          <path
             id="path13652"
             d="M -491.42857,1533.7908 C -481.54705,1526.3796 -476.3746,1519.013 -471.42857,1506.6479 C -471.07487,1505.7636 -471.42857,1504.7431 -471.42857,1503.7908"
             style="fill:#cccccc;fill-rule:evenodd;stroke:#000000;stroke-width:1px;stroke-linecap:butt;stroke-linejoin:miter;stroke-opacity:1" />
        </g>
        <g
           id="g13654"
           transform="matrix(4.2578957e-2,0.340397,-0.340397,4.2578957e-2,890.55031,798.22244)"
           inkscape:transform-center-x="-3.5566632"
           inkscape:transform-center-y="-50.508659">
          <path
             style="fill:#b3b3b3;fill-rule:evenodd;stroke:#000000;stroke-width:1px;stroke-linecap:butt;stroke-linejoin:miter;stroke-opacity:1"
             d="M -162.64901,1168.1827 C -156.91972,1162.8749 -148.06398,1174.1242 -140.35963,1175.4052 C -128.88937,1177.3123 -131.80619,1178.1835 -125.12418,1169.2174 C -120.76317,1163.3657 -121.37447,1156.4172 -125.49616,1151.151 C -132.35205,1142.3915 -138.8953,1135.4234 -148.54409,1129.0332 C -158.97897,1122.1224 -166.98549,1114.6917 -179.233,1108.88 C -189.50015,1104.008 -196.98871,1105.1789 -207.77117,1105.401 C -209.27668,1105.432 -210.78224,1105.463 -212.28775,1105.494 C -218.8687,1105.6295 -226.01339,1110.9819 -229.25548,1115.3323 C -232.99735,1120.3532 -237.82546,1121.6077 -232.19386,1126.2371 C -226.33256,1131.0554 -215.64117,1135.2099 -208.8989,1138.4093 C -205.43042,1140.0551 -209.31108,1130.0371 -206.8731,1127.0713 C -203.34663,1122.7814 -199.02055,1135.2699 -194.00346,1137.6507 C -191.23637,1138.9637 -189.78127,1128.7526 -184.15069,1133.3811 C -180.02382,1136.7736 -191.51361,1142.1486 -179.4016,1144.5796 C -172.78779,1145.907 -165.9245,1139.7411 -170.27543,1148.9102 C -173.75467,1156.2422 -163.50446,1154.6448 -158.41141,1154.5399 C -150.56966,1154.3784 -160.45467,1166.4652 -162.64901,1168.1827 z"
             id="path13656"
             inkscape:transform-center-x="42.525082"
             inkscape:transform-center-y="-20.59074" />
          <path
             style="fill:#b3b3b3;fill-rule:evenodd;stroke:#000000;stroke-width:0.97856432px;stroke-linecap:butt;stroke-linejoin:miter;stroke-opacity:1"
             d="M -157.28837,1184.8617 C -154.38725,1191.8044 -141.56166,1185.7089 -134.0507,1187.7631 C -122.86837,1190.8215 -125.13044,1188.8707 -122.93704,1199.3687 C -121.50552,1206.2203 -125.03729,1211.9796 -131.01971,1214.843 C -140.97066,1219.6058 -149.87099,1222.9473 -161.32971,1224.5143 C -173.72194,1226.209 -184.14283,1229.3501 -197.70172,1229.3501 C -209.06822,1229.3501 -215.33283,1225.2635 -224.98072,1220.6458 C -226.32783,1220.0011 -227.67494,1219.3563 -229.02205,1218.7115 C -234.91054,1215.8932 -239.0715,1208.3309 -240.13572,1203.2373 C -241.364,1197.3585 -245.18882,1194.2917 -238.11506,1192.5989 C -230.75275,1190.8369 -219.31057,1191.6317 -211.84639,1191.6317 C -208.00653,1191.6317 -215.80869,1198.7042 -214.87739,1202.2702 C -213.53028,1207.4283 -204.26634,1198.4017 -198.71205,1198.4017 C -195.64868,1198.4017 -198.71219,1207.8313 -191.63972,1206.1387 C -186.45602,1204.8982 -194.53359,1195.533 -182.54672,1198.4017 C -176.00126,1199.9681 -172.44338,1208.1185 -172.44338,1198.4017 C -172.44338,1190.6316 -163.86617,1196.2205 -159.30904,1198.4017 C -152.29244,1201.76 -156.04199,1187.2479 -157.28837,1184.8617 z"
             id="path13658" />
          <path
             style="fill:#cccccc;fill-rule:evenodd;stroke:#000000;stroke-width:1px;stroke-linecap:butt;stroke-linejoin:miter;stroke-opacity:1"
             d="M -104.6647,1151.5475 C -108.59358,1152.9612 -120.69445,1152.5576 -127.89821,1152.5576 C -133.76196,1152.5576 -142.55017,1162.1588 -146.08096,1165.6896 C -149.80349,1169.4121 -148.10126,1179.8656 -148.10126,1184.8825 C -148.10126,1191.848 -144.96665,1197.1085 -140.02004,1202.0551 C -134.42797,1207.6472 -124.37801,1208.116 -116.78653,1208.116 C -106.1134,1208.116 -99.622284,1210.9002 -90.522574,1204.0754 C -84.972724,1199.913 -83.451504,1193.3057 -83.451504,1186.9028 C -83.451504,1180.2834 -83.978204,1174.6945 -85.471804,1168.7201 C -87.164994,1161.9473 -89.126034,1158.3067 -94.563184,1155.5881 C -98.871804,1153.4338 -98.112844,1152.8579 -104.6647,1151.5475 z"
             id="path13660" />
        </g>
      </g>
    </g>
    <g
       transform="matrix(0.4906429,0,0,0.4906429,353.63649,25.630587)"
       id="g2559">
      <rect
         y="201.45331"
         x="-382.96997"
         height="200.1317"
         width="599.88171"
         id="rect2566"
         style="fill:#ffffff;fill-rule:evenodd;stroke:#000000;stroke-width:1.11829174px;stroke-linecap:butt;stroke-linejoin:miter;stroke-opacity:1" />
      <rect
         y="281.64417"
         x="-383.02911"
         height="120"
         width="40"
         id="rect2568"
         style="fill:#0000ff;fill-rule:evenodd;stroke:#000000;stroke-width:1px;stroke-linecap:butt;stroke-linejoin:miter;stroke-opacity:1" />
      <rect
         y="321.64417"
         x="-303.02911"
         height="80"
         width="40"
         id="rect2570"
         style="fill:#0000ff;fill-rule:evenodd;stroke:#000000;stroke-width:1px;stroke-linecap:butt;stroke-linejoin:miter;stroke-opacity:1" />
      <rect
         y="241.64415"
         x="-223.0291"
         height="160"
         width="40"
         id="rect2572"
         style="fill:#0000ff;fill-rule:evenodd;stroke:#000000;stroke-width:1px;stroke-linecap:butt;stroke-linejoin:miter;stroke-opacity:1" />
      <rect
         y="281.64417"
         x="-143.0291"
         height="120"
         width="40"
         id="rect2574"
         style="fill:#0000ff;fill-rule:evenodd;stroke:#000000;stroke-width:1px;stroke-linecap:butt;stroke-linejoin:miter;stroke-opacity:1" />
      <rect
         y="281.64417"
         x="96.970901"
         height="120"
         width="40"
         id="rect2576"
         style="fill:#0000ff;fill-rule:evenodd;stroke:#000000;stroke-width:1px;stroke-linecap:butt;stroke-linejoin:miter;stroke-opacity:1" />
      <rect
         y="321.64417"
         x="176.9709"
         height="80"
         width="40"
         id="rect2578"
         style="fill:#0000ff;fill-rule:evenodd;stroke:#000000;stroke-width:1px;stroke-linecap:butt;stroke-linejoin:miter;stroke-opacity:1" />
      <rect
         y="321.64417"
         x="-63.029099"
         height="80"
         width="40"
         id="rect2580"
         style="fill:#0000ff;fill-rule:evenodd;stroke:#000000;stroke-width:1px;stroke-linecap:butt;stroke-linejoin:miter;stroke-opacity:1" />
      <rect
         y="321.64417"
         x="16.9709"
         height="80"
         width="40"
         id="rect2582"
         style="fill:#0000ff;fill-rule:evenodd;stroke:#000000;stroke-width:1px;stroke-linecap:butt;stroke-linejoin:miter;stroke-opacity:1" />
    </g>
    <g
       transform="matrix(0.4906429,0,0,0.4906429,353.63649,25.630587)"
       id="g2579">
      <rect
         transform="scale(-1,1)"
         y="441.45331"
         x="-216.91176"
         height="200.13171"
         width="599.88171"
         id="rect2584"
         style="fill:#ffffff;fill-rule:evenodd;stroke:#000000;stroke-width:1.11829185px;stroke-linecap:butt;stroke-linejoin:miter;stroke-opacity:1" />
      <rect
         transform="scale(-1,1)"
         y="521.64417"
         x="-216.9709"
         height="120"
         width="40"
         id="rect2586"
         style="fill:#0000ff;fill-rule:evenodd;stroke:#000000;stroke-width:1px;stroke-linecap:butt;stroke-linejoin:miter;stroke-opacity:1" />
      <rect
         transform="scale(-1,1)"
         y="561.64417"
         x="-136.9709"
         height="80"
         width="40"
         id="rect2588"
         style="fill:#0000ff;fill-rule:evenodd;stroke:#000000;stroke-width:1px;stroke-linecap:butt;stroke-linejoin:miter;stroke-opacity:1" />
      <rect
         transform="scale(-1,1)"
         y="481.64417"
         x="-56.970901"
         height="160"
         width="40"
         id="rect2590"
         style="fill:#0000ff;fill-rule:evenodd;stroke:#000000;stroke-width:1px;stroke-linecap:butt;stroke-linejoin:miter;stroke-opacity:1" />
      <rect
         transform="scale(-1,1)"
         y="521.64417"
         x="23.0291"
         height="120"
         width="40"
         id="rect2592"
         style="fill:#0000ff;fill-rule:evenodd;stroke:#000000;stroke-width:1px;stroke-linecap:butt;stroke-linejoin:miter;stroke-opacity:1" />
      <rect
         transform="scale(-1,1)"
         y="521.64417"
         x="263.02911"
         height="120"
         width="40"
         id="rect2594"
         style="fill:#0000ff;fill-rule:evenodd;stroke:#000000;stroke-width:1px;stroke-linecap:butt;stroke-linejoin:miter;stroke-opacity:1" />
      <rect
         transform="scale(-1,1)"
         y="561.64417"
         x="343.02911"
         height="80"
         width="40"
         id="rect2596"
         style="fill:#0000ff;fill-rule:evenodd;stroke:#000000;stroke-width:1px;stroke-linecap:butt;stroke-linejoin:miter;stroke-opacity:1" />
      <rect
         transform="scale(-1,1)"
         y="561.64417"
         x="103.0291"
         height="80"
         width="40"
         id="rect2598"
         style="fill:#0000ff;fill-rule:evenodd;stroke:#000000;stroke-width:1px;stroke-linecap:butt;stroke-linejoin:miter;stroke-opacity:1" />
      <rect
         transform="scale(-1,1)"
         y="561.64417"
         x="183.0291"
         height="80"
         width="40"
         id="rect2600"
         style="fill:#0000ff;fill-rule:evenodd;stroke:#000000;stroke-width:1px;stroke-linecap:butt;stroke-linejoin:miter;stroke-opacity:1" />
    </g>
    <g
       transform="matrix(0.4906429,0,0,0.4906429,353.63649,25.630587)"
       id="g2594">
      <rect
         y="681.45331"
         x="-382.97"
         height="200.13171"
         width="599.88171"
         id="rect2602"
         style="fill:#ffffff;fill-rule:evenodd;stroke:#000000;stroke-width:1.11829185px;stroke-linecap:butt;stroke-linejoin:miter;stroke-opacity:1" />
      <rect
         y="761.64417"
         x="-383.02914"
         height="120"
         width="40"
         id="rect2604"
         style="fill:#0000ff;fill-rule:evenodd;stroke:#000000;stroke-width:1px;stroke-linecap:butt;stroke-linejoin:miter;stroke-opacity:1" />
      <rect
         y="721.64417"
         x="-223.02913"
         height="160"
         width="40"
         id="rect2608"
         style="fill:#0000ff;fill-rule:evenodd;stroke:#000000;stroke-width:1px;stroke-linecap:butt;stroke-linejoin:miter;stroke-opacity:1" />
      <rect
         y="801.64417"
         x="176.9709"
         height="80"
         width="40"
         id="rect2614"
         style="fill:#0000ff;fill-rule:evenodd;stroke:#000000;stroke-width:1px;stroke-linecap:butt;stroke-linejoin:miter;stroke-opacity:1" />
    </g>
    <path
       style="fill:#f2f2f2;fill-opacity:1;fill-rule:evenodd;stroke:#000000;stroke-width:0.39251432px;stroke-linecap:butt;stroke-linejoin:miter;stroke-opacity:1"
       d="M -147.55362,266.1021 C -117.82622,338.75871 -132.35752,344.70417 -132.35752,344.70417 L -74.23222,320.92227 C -74.23222,320.92227 -65.64642,300.44544 -77.53732,271.38279 C -101.31932,213.25755 -89.42832,242.32015 -89.42832,242.32015 L -147.55362,266.1021 z"
       id="path3422"
       sodipodi:nodetypes="cccscc" />
    <path
       style="fill:#f2f2f2;fill-opacity:1;fill-rule:evenodd;stroke:#000000;stroke-width:0.38966915px;stroke-linecap:butt;stroke-linejoin:miter;stroke-opacity:1"
       d="M -95.81912,132.45759 C -66.09092,205.11612 -51.76992,199.25667 -51.76992,199.25667 L -109.05402,222.69443 C -109.05402,222.69443 -129.32072,214.02222 -141.21202,184.95879 C -164.99452,126.83198 -153.10322,155.89539 -153.10322,155.89539 L -95.81912,132.45759 z"
       id="path3426"
       sodipodi:nodetypes="cccscc" />
    <path
       style="fill:#f2f2f2;fill-opacity:1;fill-rule:evenodd;stroke:#000000;stroke-width:0.38966915px;stroke-linecap:butt;stroke-linejoin:miter;stroke-opacity:1"
       d="M -84.28172,373.62494 C -103.26262,449.80074 -88.24832,453.54194 -88.24832,453.54194 L -148.30542,438.57734 C -148.30542,438.57734 -159.52362,419.60104 -151.93122,389.13074 C -136.74652,328.19007 -144.33892,358.66034 -144.33892,358.66034 L -84.28172,373.62494 z"
       id="path3432"
       sodipodi:nodetypes="cccscc" />
    <rect
       style="fill:#f2f2f2;fill-rule:evenodd;stroke:#000000;stroke-width:0.49064296px;stroke-linecap:butt;stroke-linejoin:miter;stroke-opacity:1"
       id="rect3436"
       width="71.493683"
       height="96.726753"
       x="-499.65378"
       y="-296.71808"
       transform="matrix(-0.2923609,-0.9563081,0.9563081,-0.2923609,0,0)" />
    <path
       style="fill:#ff0000;fill-rule:evenodd;stroke:#000000;stroke-width:0.49064291px;stroke-linecap:butt;stroke-linejoin:miter;stroke-opacity:1"
       d="M -19.25212,286.83034 C 78.87646,286.83034 78.87646,286.83034 78.87646,286.83034 L 78.87646,247.57891 L 137.75361,306.45606 L 78.87646,365.33324 L 78.87646,326.08177 L -19.25212,326.08177 L -19.25212,286.83034 z"
       id="path3454" />
    <path
       style="fill:none;fill-rule:evenodd;stroke:#000000;stroke-width:1.96257162;stroke-linecap:butt;stroke-linejoin:miter;marker-end:url(#Arrow1Lend);stroke-miterlimit:4;stroke-dasharray:none;stroke-opacity:1"
       d="M 499.34316,183.443 L 675.97461,458.20304"
       id="path5313"
       sodipodi:nodetypes="cc" />
    <path
       style="fill:#ff0000;fill-rule:evenodd;stroke:#000000;stroke-width:0.49064291px;stroke-linecap:butt;stroke-linejoin:miter;stroke-opacity:1"
       d="M 491.01651,286.83034 C 589.14509,286.83034 589.14509,286.83034 589.14509,286.83034 L 589.14509,247.57891 L 648.02224,306.45606 L 589.14509,365.33324 L 589.14509,326.08177 L 491.01651,326.08177 L 491.01651,286.83034 z"
       id="path3456" />
    <g
       id="g3658"
       transform="matrix(0.4942095,0,0,0.6128626,379.3062,112.17132)">
      <rect
         y="52.362183"
         x="640"
         height="160"
         width="600"
         id="rect3582"
         style="fill:#ffffff;fill-rule:evenodd;stroke:#000000;stroke-width:1px;stroke-linecap:butt;stroke-linejoin:miter;stroke-opacity:1" />
      <rect
         y="132.60431"
         x="639.90881"
         height="79.849083"
         width="40.182415"
         id="rect3584"
         style="fill:#0000ff;fill-rule:evenodd;stroke:#000000;stroke-width:0.81758398px;stroke-linecap:butt;stroke-linejoin:miter;stroke-opacity:1" />
      <rect
         y="132.36218"
         x="720"
         height="80"
         width="40"
         id="rect3586"
         style="fill:#0000ff;fill-rule:evenodd;stroke:#000000;stroke-width:1px;stroke-linecap:butt;stroke-linejoin:miter;stroke-opacity:1" />
      <rect
         y="132.71655"
         x="799.85437"
         height="79.791252"
         width="40.291248"
         id="rect3588"
         style="fill:#0000ff;fill-rule:evenodd;stroke:#000000;stroke-width:0.70874989px;stroke-linecap:butt;stroke-linejoin:miter;stroke-opacity:1" />
      <rect
         y="132.60431"
         x="879.90881"
         height="79.849083"
         width="40.182415"
         id="rect3590"
         style="fill:#0000ff;fill-rule:evenodd;stroke:#000000;stroke-width:0.81758398px;stroke-linecap:butt;stroke-linejoin:miter;stroke-opacity:1" />
      <rect
         y="132.60431"
         x="1119.9088"
         height="79.849083"
         width="40.182415"
         id="rect3592"
         style="fill:#0000ff;fill-rule:evenodd;stroke:#000000;stroke-width:0.81758398px;stroke-linecap:butt;stroke-linejoin:miter;stroke-opacity:1" />
      <rect
         y="132.36218"
         x="1200"
         height="80"
         width="40"
         id="rect3594"
         style="fill:#0000ff;fill-rule:evenodd;stroke:#000000;stroke-width:1px;stroke-linecap:butt;stroke-linejoin:miter;stroke-opacity:1" />
      <rect
         y="132.36218"
         x="960"
         height="80"
         width="40"
         id="rect3596"
         style="fill:#0000ff;fill-rule:evenodd;stroke:#000000;stroke-width:1px;stroke-linecap:butt;stroke-linejoin:miter;stroke-opacity:1" />
      <rect
         y="132.36218"
         x="1040"
         height="80"
         width="40"
         id="rect3598"
         style="fill:#0000ff;fill-rule:evenodd;stroke:#000000;stroke-width:1px;stroke-linecap:butt;stroke-linejoin:miter;stroke-opacity:1" />
    </g>
    <g
       id="g3669"
       transform="matrix(0.4910899,0,0,0.6130799,361.65919,33.765547)">
      <rect
         y="692.36218"
         x="680"
         height="160"
         width="600"
         id="rect3618"
         style="fill:#ffffff;fill-rule:evenodd;stroke:#000000;stroke-width:1px;stroke-linecap:butt;stroke-linejoin:miter;stroke-opacity:1" />
      <rect
         y="732.36218"
         x="680"
         height="120"
         width="40"
         id="rect3620"
         style="fill:#0000ff;fill-rule:evenodd;stroke:#000000;stroke-width:1px;stroke-linecap:butt;stroke-linejoin:miter;stroke-opacity:1" />
      <rect
         y="772.71655"
         x="839.85437"
         height="79.791252"
         width="40.291248"
         id="rect3622"
         style="fill:#0000ff;fill-rule:evenodd;stroke:#000000;stroke-width:0.70874989px;stroke-linecap:butt;stroke-linejoin:miter;stroke-opacity:1" />
      <rect
         y="812.71613"
         x="1239.8539"
         height="39.79216"
         width="40.29216"
         id="rect3624"
         style="fill:#0000ff;fill-rule:evenodd;stroke:#000000;stroke-width:0.7078383px;stroke-linecap:butt;stroke-linejoin:miter;stroke-opacity:1" />
    </g>
    <text
       xml:space="preserve"
       style="font-size:31.40114594px;font-style:normal;font-weight:bold;fill:#000000;fill-opacity:1;stroke:none;stroke-width:1px;stroke-linecap:butt;stroke-linejoin:miter;stroke-opacity:1;font-family:Sans"
       x="-207.1826"
       y="65.688721"
       id="text3854"><tspan
         sodipodi:role="line"
         id="tspan3856"
         x="-207.1826"
         y="65.688721"> Commit</tspan><tspan
         sodipodi:role="line"
         x="-207.1826"
         y="104.94012"
         id="tspan3858">Messages</tspan></text>
    <text
       xml:space="preserve"
       style="font-size:31.40114594px;font-style:normal;font-weight:bold;text-align:center;text-anchor:middle;fill:#000000;fill-opacity:1;stroke:none;stroke-width:1px;stroke-linecap:butt;stroke-linejoin:miter;stroke-opacity:1;font-family:Sans"
       x="310.41498"
       y="65.688721"
       id="text3860"><tspan
         sodipodi:role="line"
         id="tspan3862"
         x="310.41498"
         y="65.688721">Word</tspan><tspan
         sodipodi:role="line"
         x="310.41498"
         y="104.94012"
         id="tspan2648">Distributions</tspan></text>
    <text
       xml:space="preserve"
       style="font-size:31.40114594px;font-style:normal;font-weight:bold;text-align:center;text-anchor:middle;fill:#000000;fill-opacity:1;stroke:none;stroke-width:1px;stroke-linecap:butt;stroke-linejoin:miter;stroke-opacity:1;font-family:Sans"
       x="854.75262"
       y="46.062988"
       id="text3864"><tspan
         sodipodi:role="line"
         id="tspan3866"
         x="854.75262"
         y="46.062988">Topics:</tspan><tspan
         sodipodi:role="line"
         x="860.21106"
         y="85.314392"
         id="tspan5345">Independent </tspan><tspan
         sodipodi:role="line"
         x="854.75262"
         y="124.56586"
         id="tspan3868">Word Distributions</tspan></text>
    <text
       xml:space="preserve"
       style="font-size:15.70057297px;font-style:normal;font-weight:bold;fill:#000000;fill-opacity:1;stroke:none;stroke-width:1px;stroke-linecap:butt;stroke-linejoin:miter;stroke-opacity:1;font-family:Sans"
       x="-10.925466"
       y="379.70013"
       id="text2634"><tspan
         sodipodi:role="line"
         x="-10.925466"
         y="379.70013"
         id="tspan2640">Remove stop words.</tspan><tspan
         sodipodi:role="line"
         x="-10.925466"
         y="399.32587"
         id="tspan2644">Count words and</tspan><tspan
         sodipodi:role="line"
         x="-10.925466"
         y="418.9516"
         id="tspan5375">produce word</tspan><tspan
         sodipodi:role="line"
         x="-10.925466"
         y="438.57733"
         id="tspan5377">distributions</tspan><tspan
         sodipodi:role="line"
         x="-10.925466"
         y="458.20294"
         id="tspan2646" /></text>
    <text
       xml:space="preserve"
       style="font-size:15.70057297px;font-style:normal;font-weight:bold;fill:#000000;fill-opacity:1;stroke:none;stroke-width:1px;stroke-linecap:butt;stroke-linejoin:miter;stroke-opacity:1;font-family:Sans"
       x="499.34314"
       y="399.32587"
       id="text2650"><tspan
         sodipodi:role="line"
         x="499.34314"
         y="399.32587"
         id="tspan2656"
         style="font-size:23.55085945px">apply LDA</tspan></text>
    <path
       style="fill:none;fill-rule:evenodd;stroke:#000000;stroke-width:1.96257162;stroke-linecap:butt;stroke-linejoin:miter;marker-end:url(#Arrow1Lend);stroke-miterlimit:4;stroke-dasharray:none;stroke-opacity:1"
       d="M 499.34316,163.8173 L 675.97461,163.8173"
       id="path2721"
       sodipodi:nodetypes="cc" />
    <path
       style="opacity:0.98999999;fill:none;fill-rule:evenodd;stroke:#000000;stroke-width:1.96257162;stroke-linecap:butt;stroke-linejoin:miter;marker-end:url(#Arrow1Lend);stroke-miterlimit:4;stroke-dasharray:none;stroke-opacity:1"
       d="M 499.34316,261.94586 L 675.97461,183.443 L 675.97461,183.443"
       id="path2729"
       sodipodi:nodetypes="ccc" />
    <path
       style="fill:none;fill-rule:evenodd;stroke:#000000;stroke-width:1.96257162;stroke-linecap:butt;stroke-linejoin:miter;marker-end:url(#Arrow1Lend);stroke-miterlimit:4;stroke-dasharray:none;stroke-opacity:1"
       d="M 499.34316,418.95164 L 675.97461,497.45444"
       id="path2731"
       sodipodi:nodetypes="cc" />
    <path
       style="fill:none;fill-rule:evenodd;stroke:#000000;stroke-width:1.96257162;stroke-linecap:butt;stroke-linejoin:miter;marker-end:url(#Arrow1Lend);stroke-miterlimit:4;stroke-dasharray:none;stroke-opacity:1"
       d="M 499.34316,517.08014 L 675.97461,517.08014"
       id="path2733"
       sodipodi:nodetypes="cc" />
    <text
       xml:space="preserve"
       style="font-size:15.70057297px;font-style:normal;font-weight:bold;fill:#000000;fill-opacity:1;stroke:none;stroke-width:1px;stroke-linecap:butt;stroke-linejoin:miter;stroke-opacity:1;font-family:Sans"
       x="656.34888"
       y="418.9516"
       id="text5315"><tspan
         sodipodi:role="line"
         id="tspan5317"
         x="656.34888"
         y="418.9516">0.3</tspan><tspan
         sodipodi:role="line"
         x="656.34888"
         y="438.57733"
         id="tspan5319" /></text>
    <text
       xml:space="preserve"
       style="font-size:15.70057297px;font-style:normal;font-weight:bold;fill:#000000;fill-opacity:1;stroke:none;stroke-width:1px;stroke-linecap:butt;stroke-linejoin:miter;stroke-opacity:1;font-family:Sans"
       x="656.34888"
       y="477.8288"
       id="text5321"><tspan
         sodipodi:role="line"
         id="tspan5323"
         x="656.34888"
         y="477.8288">0.9</tspan><tspan
         sodipodi:role="line"
         x="656.34888"
         y="497.45453"
         id="tspan5325" /></text>
    <text
       xml:space="preserve"
       style="font-size:15.70057297px;font-style:normal;font-weight:bold;fill:#000000;fill-opacity:1;stroke:none;stroke-width:1px;stroke-linecap:butt;stroke-linejoin:miter;stroke-opacity:1;font-family:Sans"
       x="617.09747"
       y="517.08026"
       id="text5327"><tspan
         sodipodi:role="line"
         id="tspan5329"
         x="617.09747"
         y="517.08026">0.9</tspan><tspan
         sodipodi:role="line"
         x="617.09747"
         y="536.70599"
         id="tspan5331" /></text>
    <text
       xml:space="preserve"
       style="font-size:15.70057297px;font-style:normal;font-weight:bold;fill:#000000;fill-opacity:1;stroke:none;stroke-width:1px;stroke-linecap:butt;stroke-linejoin:miter;stroke-opacity:1;font-family:Sans"
       x="617.09747"
       y="163.81732"
       id="text5333"><tspan
         sodipodi:role="line"
         id="tspan5335"
         x="617.09747"
         y="163.81732">0.9</tspan><tspan
         sodipodi:role="line"
         x="617.09747"
         y="183.44305"
         id="tspan5337" /></text>
    <text
       xml:space="preserve"
       style="font-size:15.70057297px;font-style:normal;font-weight:bold;fill:#000000;fill-opacity:1;stroke:none;stroke-width:1px;stroke-linecap:butt;stroke-linejoin:miter;stroke-opacity:1;font-family:Sans"
       x="597.47174"
       y="203.06873"
       id="text5339"><tspan
         sodipodi:role="line"
         id="tspan5341"
         x="597.47174"
         y="203.06873">0.9</tspan><tspan
         sodipodi:role="line"
         x="597.47174"
         y="222.69446"
         id="tspan5343" /></text>
    <text
       xml:space="preserve"
       style="font-size:15.70057297px;font-style:normal;font-weight:bold;fill:#000000;fill-opacity:1;stroke:none;stroke-width:1px;stroke-linecap:butt;stroke-linejoin:miter;stroke-opacity:1;font-family:Sans"
       x="706.81494"
       y="299.79547"
       id="text5351"><tspan
         sodipodi:role="line"
         id="tspan5353"
         x="706.81494"
         y="299.79547">LDA finds independent </tspan><tspan
         sodipodi:role="line"
         x="706.81494"
         y="319.4212"
         id="tspan5355">word distributions that the </tspan><tspan
         sodipodi:role="line"
         x="706.81494"
         y="339.04688"
         id="tspan5357">documents are related to.</tspan><tspan
         sodipodi:role="line"
         x="706.81494"
         y="358.67261"
         id="tspan5367" /><tspan
         sodipodi:role="line"
         x="706.81494"
         y="378.29828"
         id="tspan5369">Documents can be associated</tspan><tspan
         sodipodi:role="line"
         x="706.81494"
         y="397.92401"
         id="tspan5373">with more than one topic.</tspan></text>
    <g
       id="g18042"
       transform="translate(5.0857396,14.840184)">
      <g
         id="g2609"
         transform="matrix(0.3710046,0,0,0.3710046,364.20852,374.02233)">
        <rect
           style="fill:#ffffff;fill-rule:evenodd;stroke:#000000;stroke-width:1.11829185px;stroke-linecap:butt;stroke-linejoin:miter;stroke-opacity:1"
           id="rect2620"
           width="599.88171"
           height="200.13171"
           x="-382.96994"
           y="921.45331" />
        <rect
           style="fill:#0000ff;fill-rule:evenodd;stroke:#000000;stroke-width:1px;stroke-linecap:butt;stroke-linejoin:miter;stroke-opacity:1"
           id="rect2622"
           width="40"
           height="160"
           x="-383.02908"
           y="961.64417" />
        <rect
           style="fill:#0000ff;fill-rule:evenodd;stroke:#000000;stroke-width:1px;stroke-linecap:butt;stroke-linejoin:miter;stroke-opacity:1"
           id="rect2624"
           width="40"
           height="80"
           x="-303.02908"
           y="1041.6442" />
        <rect
           style="fill:#0000ff;fill-rule:evenodd;stroke:#000000;stroke-width:1px;stroke-linecap:butt;stroke-linejoin:miter;stroke-opacity:1"
           id="rect2626"
           width="39.999985"
           height="40"
           x="-223.02908"
           y="1081.6442" />
        <rect
           style="fill:#0000ff;fill-rule:evenodd;stroke:#000000;stroke-width:1px;stroke-linecap:butt;stroke-linejoin:miter;stroke-opacity:1"
           id="rect2628"
           width="39.999985"
           height="40"
           x="-143.02908"
           y="1081.6442" />
        <rect
           style="fill:#0000ff;fill-rule:evenodd;stroke:#000000;stroke-width:1px;stroke-linecap:butt;stroke-linejoin:miter;stroke-opacity:1"
           id="rect2630"
           width="40"
           height="40"
           x="96.970917"
           y="1081.6442" />
        <rect
           style="fill:#0000ff;fill-rule:evenodd;stroke:#000000;stroke-width:1px;stroke-linecap:butt;stroke-linejoin:miter;stroke-opacity:1"
           id="rect2632"
           width="40"
           height="40"
           x="176.97092"
           y="1081.6442" />
        <rect
           style="fill:#0000ff;fill-rule:evenodd;stroke:#000000;stroke-width:1px;stroke-linecap:butt;stroke-linejoin:miter;stroke-opacity:1"
           id="rect2634"
           width="40"
           height="40"
           x="-63.029083"
           y="1081.6442" />
        <rect
           style="fill:#0000ff;fill-rule:evenodd;stroke:#000000;stroke-width:1px;stroke-linecap:butt;stroke-linejoin:miter;stroke-opacity:1"
           id="rect2636"
           width="40"
           height="40"
           x="16.970915"
           y="1081.6442" />
      </g>
      <text
         transform="matrix(-9.1341941e-3,-0.9999583,0.9999583,-9.1341941e-3,0,0)"
         id="text17948"
         y="226.3074"
         x="-796.55939"
         style="font-size:20px;font-style:normal;font-weight:normal;text-align:end;text-anchor:end;fill:#000000;fill-opacity:1;stroke:none;stroke-width:1px;stroke-linecap:butt;stroke-linejoin:miter;stroke-opacity:1;font-family:Bitstream Vera Sans"
         xml:space="preserve"><tspan
           id="tspan17958"
           y="226.3074"
           x="-796.55939"
           sodipodi:role="line">cat</tspan><tspan
           id="tspan17960"
           y="251.3074"
           x="-796.55939"
           sodipodi:role="line" /></text>
      <text
         inkscape:transform-center-x="21.476224"
         transform="matrix(-9.1341937e-3,-0.9999583,0.9999583,-9.1341937e-3,0,0)"
         id="text17990"
         y="254.65268"
         x="-796.8183"
         style="font-size:20px;font-style:normal;font-weight:normal;text-align:end;text-anchor:end;fill:#000000;fill-opacity:1;stroke:none;stroke-width:1px;stroke-linecap:butt;stroke-linejoin:miter;stroke-opacity:1;font-family:Bitstream Vera Sans"
         xml:space="preserve"><tspan
           id="tspan17992"
           y="254.65268"
           x="-796.8183"
           sodipodi:role="line">dog</tspan><tspan
           id="tspan17994"
           y="279.65268"
           x="-796.8183"
           sodipodi:role="line" /></text>
      <text
         inkscape:transform-center-x="21.476224"
         transform="matrix(-9.1341931e-3,-0.9999583,0.9999583,-9.1341931e-3,0,0)"
         id="text17996"
         y="290.08426"
         x="-797.14197"
         style="font-size:20px;font-style:normal;font-weight:normal;text-align:end;text-anchor:end;fill:#000000;fill-opacity:1;stroke:none;stroke-width:1px;stroke-linecap:butt;stroke-linejoin:miter;stroke-opacity:1;font-family:Bitstream Vera Sans"
         xml:space="preserve"><tspan
           id="tspan17998"
           y="290.08426"
           x="-797.14197"
           sodipodi:role="line">car</tspan><tspan
           id="tspan18000"
           y="315.08426"
           x="-797.14197"
           sodipodi:role="line" /></text>
      <text
         inkscape:transform-center-x="21.476224"
         transform="matrix(-9.1341933e-3,-0.9999583,0.9999583,-9.1341933e-3,0,0)"
         id="text18002"
         y="318.42953"
         x="-797.40088"
         style="font-size:20px;font-style:normal;font-weight:normal;text-align:end;text-anchor:end;fill:#000000;fill-opacity:1;stroke:none;stroke-width:1px;stroke-linecap:butt;stroke-linejoin:miter;stroke-opacity:1;font-family:Bitstream Vera Sans"
         xml:space="preserve"><tspan
           id="tspan18004"
           y="318.42953"
           x="-797.40088"
           sodipodi:role="line">city</tspan><tspan
           id="tspan18006"
           y="343.42953"
           x="-797.40088"
           sodipodi:role="line" /></text>
      <text
         inkscape:transform-center-x="21.476224"
         transform="matrix(-9.1341933e-3,-0.9999583,0.9999583,-9.1341933e-3,0,0)"
         id="text18008"
         y="346.77481"
         x="-797.65979"
         style="font-size:20px;font-style:normal;font-weight:normal;text-align:end;text-anchor:end;fill:#000000;fill-opacity:1;stroke:none;stroke-width:1px;stroke-linecap:butt;stroke-linejoin:miter;stroke-opacity:1;font-family:Bitstream Vera Sans"
         xml:space="preserve"><tspan
           id="tspan18010"
           y="346.77481"
           x="-797.65979"
           sodipodi:role="line">pound</tspan><tspan
           id="tspan18012"
           y="371.77481"
           x="-797.65979"
           sodipodi:role="line" /></text>
      <text
         inkscape:transform-center-x="21.476224"
         transform="matrix(-9.1341933e-3,-0.9999583,0.9999583,-9.1341933e-3,0,0)"
         id="text18014"
         y="375.12009"
         x="-797.91876"
         style="font-size:20px;font-style:normal;font-weight:normal;text-align:end;text-anchor:end;fill:#000000;fill-opacity:1;stroke:none;stroke-width:1px;stroke-linecap:butt;stroke-linejoin:miter;stroke-opacity:1;font-family:Bitstream Vera Sans"
         xml:space="preserve"><tspan
           id="tspan18016"
           y="375.12009"
           x="-797.91876"
           sodipodi:role="line">festival</tspan><tspan
           id="tspan18018"
           y="400.12009"
           x="-797.91876"
           sodipodi:role="line" /></text>
      <text
         inkscape:transform-center-x="21.476224"
         transform="matrix(-9.1341933e-3,-0.9999583,0.9999583,-9.1341933e-3,0,0)"
         id="text18020"
         y="403.46536"
         x="-798.17767"
         style="font-size:20px;font-style:normal;font-weight:normal;text-align:end;text-anchor:end;fill:#000000;fill-opacity:1;stroke:none;stroke-width:1px;stroke-linecap:butt;stroke-linejoin:miter;stroke-opacity:1;font-family:Bitstream Vera Sans"
         xml:space="preserve"><tspan
           id="tspan18022"
           y="403.46536"
           x="-798.17767"
           sodipodi:role="line">street</tspan><tspan
           id="tspan18036"
           y="428.46536"
           x="-798.17767"
           sodipodi:role="line" /><tspan
           id="tspan18024"
           y="453.46536"
           x="-798.17767"
           sodipodi:role="line" /></text>
      <text
         inkscape:transform-center-x="21.476224"
         transform="matrix(-9.1341933e-3,-0.9999583,0.9999583,-9.1341933e-3,0,0)"
         id="text18026"
         y="431.81064"
         x="-798.43658"
         style="font-size:20px;font-style:normal;font-weight:normal;text-align:end;text-anchor:end;fill:#000000;fill-opacity:1;stroke:none;stroke-width:1px;stroke-linecap:butt;stroke-linejoin:miter;stroke-opacity:1;font-family:Bitstream Vera Sans"
         xml:space="preserve"><tspan
           id="tspan18028"
           y="431.81064"
           x="-798.43658"
           sodipodi:role="line">mischief</tspan><tspan
           id="tspan18030"
           y="456.81064"
           x="-798.43658"
           sodipodi:role="line" /></text>
      <text
         id="text18038"
         y="712.20471"
         x="255.1181"
         style="font-size:20px;font-style:normal;font-weight:normal;fill:#000000;fill-opacity:1;stroke:none;stroke-width:1px;stroke-linecap:butt;stroke-linejoin:miter;stroke-opacity:1;font-family:Bitstream Vera Sans"
         xml:space="preserve"><tspan
           y="712.20471"
           x="255.1181"
           id="tspan18040"
           sodipodi:role="line">Word Distribution</tspan></text>
    </g>
    <path
       sodipodi:type="star"
       style="fill:#000000;fill-opacity:1;stroke:#000000;stroke-width:2.5;stroke-miterlimit:4;stroke-dasharray:none;stroke-dashoffset:0;stroke-opacity:1"
       id="path18083"
       sodipodi:sides="3"
       sodipodi:cx="333.07086"
       sodipodi:cy="162.99213"
       sodipodi:r1="15.846155"
       sodipodi:r2="7.9637504"
       sodipodi:arg1="0.46364815"
       sodipodi:arg2="1.5108457"
       inkscape:flatsided="false"
       inkscape:rounded="0"
       inkscape:randomized="0"
       d="M 347.24409,170.07875 L 333.54801,170.94157 L 319.84705,171.72319 L 325.94787,159.43063 L 332.12144,147.17444 L 339.71671,158.60418 L 347.24409,170.07875 z"
       transform="translate(-0.6669546,698.03148)" />
    <text
       xml:space="preserve"
       style="font-size:20px;font-style:normal;font-weight:normal;fill:#000000;fill-opacity:1;stroke:none;stroke-width:1px;stroke-linecap:butt;stroke-linejoin:miter;stroke-opacity:1;font-family:Bitstream Vera Sans"
       x="230.4502"
       y="227.20442"
       id="text18085"
       transform="translate(-4.149475e-6,698.0315)"><tspan
         sodipodi:role="line"
         id="tspan18087"
         x="230.4502"
         y="227.20442">Documents are</tspan><tspan
         sodipodi:role="line"
         x="230.4502"
         y="252.20442"
         id="tspan18089">represented as word</tspan><tspan
         sodipodi:role="line"
         x="230.4502"
         y="277.20441"
         id="tspan18091">distributions</tspan><tspan
         sodipodi:role="line"
         x="230.4502"
         y="302.20441"
         id="tspan18093">(word counts)</tspan></text>
  </g>
</svg>
