<?xml version="1.0" encoding="UTF-8" standalone="no"?>
<!-- Created with Inkscape (http://www.inkscape.org/) -->
<svg
   xmlns:dc="http://purl.org/dc/elements/1.1/"
   xmlns:cc="http://creativecommons.org/ns#"
   xmlns:rdf="http://www.w3.org/1999/02/22-rdf-syntax-ns#"
   xmlns:svg="http://www.w3.org/2000/svg"
   xmlns="http://www.w3.org/2000/svg"
   xmlns:sodipodi="http://sodipodi.sourceforge.net/DTD/sodipodi-0.dtd"
   xmlns:inkscape="http://www.inkscape.org/namespaces/inkscape"
   width="453.5433"
   height="340.15747"
   id="svg2"
   sodipodi:version="0.32"
   inkscape:version="0.46"
   sodipodi:docname="slide050-automateit.svg"
   version="1.0"
   inkscape:output_extension="org.inkscape.output.svg.inkscape">
  <defs
     id="defs4">
    <inkscape:perspective
       sodipodi:type="inkscape:persp3d"
       inkscape:vp_x="0 : 170.07874 : 1"
       inkscape:vp_y="0 : 1000 : 0"
       inkscape:vp_z="453.5433 : 170.07874 : 1"
       inkscape:persp3d-origin="226.77165 : 113.38582 : 1"
       id="perspective9654" />
  </defs>
  <sodipodi:namedview
     id="base"
     pagecolor="#ffffff"
     bordercolor="#666666"
     borderopacity="1.0"
     gridtolerance="10000"
     guidetolerance="8.8"
     objecttolerance="10"
     inkscape:pageopacity="0.0"
     inkscape:pageshadow="2"
     inkscape:zoom="1.540463"
     inkscape:cx="344.55398"
     inkscape:cy="123.55015"
     inkscape:document-units="mm"
     inkscape:current-layer="layer1"
     inkscape:window-width="952"
     inkscape:window-height="285"
     inkscape:window-x="960"
     inkscape:window-y="25"
     width="12.8cm"
     height="9.6cm"
     units="cm"
     showgrid="true"
     grid_units="mm"
     inkscape:object-paths="false"
     inkscape:grid-points="true"
     inkscape:grid-bbox="true"
     inkscape:guide-points="true"
     showguides="true"
     inkscape:guide-bbox="true">
    <sodipodi:guide
       orientation="horizontal"
       position="11.035643"
       id="guide3579" />
    <sodipodi:guide
       orientation="horizontal"
       position="24.018753"
       id="guide3886" />
    <sodipodi:guide
       orientation="horizontal"
       position="285.62841"
       id="guide3988" />
    <sodipodi:guide
       orientation="horizontal"
       position="303.15561"
       id="guide4081" />
    <inkscape:grid
       id="GridFromPre046Settings"
       type="xygrid"
       originx="0px"
       originy="0px"
       spacingx="2mm"
       spacingy="2mm"
       color="#0000ff"
       empcolor="#0000ff"
       opacity="0.2"
       empopacity="0.4"
       empspacing="5" />
  </sodipodi:namedview>
  <metadata
     id="metadata7">
    <rdf:RDF>
      <cc:Work
         rdf:about="">
        <dc:format>image/svg+xml</dc:format>
        <dc:type
           rdf:resource="http://purl.org/dc/dcmitype/StillImage" />
      </cc:Work>
    </rdf:RDF>
  </metadata>
  <g
     inkscape:label="Layer 1"
     inkscape:groupmode="layer"
     id="layer1"
     transform="translate(4.149475e-6,-698.0315)">
    <g
       id="g4750"
       transform="matrix(0.4496515,0,0,0.4496515,795.10548,526.01415)">
      <path
         id="path4560"
         d="M -1655.7143,539.50507 C -1653.9054,546.74077 -1656.316,556.19667 -1644.2857,565.21937 C -1643.4339,565.85817 -1642.381,566.17167 -1641.4286,566.64787"
         style="fill:none;fill-rule:evenodd;stroke:#000000;stroke-width:1px;stroke-linecap:butt;stroke-linejoin:miter;stroke-opacity:1" />
      <path
         id="path4574"
         d="M -1581.4286,739.50507 C -1581.1785,738.87977 -1580.4762,738.55267 -1581.4286,739.50507 z"
         style="fill:none;fill-rule:evenodd;stroke:#000000;stroke-width:1px;stroke-linecap:butt;stroke-linejoin:miter;stroke-opacity:1" />
      <g
         transform="translate(-688.08485,-26.734539)"
         id="g4605">
        <path
           style="fill:#b3b3b3;fill-rule:evenodd;stroke:#000000;stroke-width:1px;stroke-linecap:butt;stroke-linejoin:miter;stroke-opacity:1"
           d="M -541.44176,731.13367 C -533.00365,748.00991 -579.1421,729.11337 -598.01031,729.11337 C -620.7537,729.11337 -643.79447,731.13367 -666.70068,731.13367 C -682.8476,731.13367 -684.88343,741.5825 -684.88343,757.39764 C -684.88343,779.83203 -707.20567,805.37633 -717.20831,822.0474 C -719.42686,825.74499 -721.8815,853.78175 -724.57524,857.14893 C -737.89995,873.80482 -736.67605,908.05422 -736.67605,929.87991 C -736.67605,954.39397 -749.38961,973.81141 -749.38961,998.32518 C -749.38961,1014.9903 -750.3659,1024.8214 -754.49114,1041.3223 C -757.55564,1053.5804 -697.63847,1048.3216 -688.92404,1048.3216 C -640.91539,1048.3216 -591.96171,1054.3825 -545.48237,1054.3825 C -505.82616,1054.3825 -456.17528,1051.8266 -418.20315,1064.484 C -373.56405,1059.8046 -390.98553,1086.4905 -385.61574,981.91763 C -393.71351,957.62433 -382.72978,945.56774 -386.75717,918.22726 C -390.73896,891.19628 -381.73614,856.59464 -381.73614,829.31281 C -381.73614,811.74078 -377.79705,779.55558 -377.79705,759.41794 C -377.79705,745.89751 -390.83148,735.95629 -402.04071,733.15398 C -425.08609,727.39263 -452.67502,729.11337 -476.792,729.11337 C -494.05434,729.11337 -508.22396,729.39521 -523.25902,733.15398 C -528.14492,734.37545 -537.46738,731.92855 -541.44176,731.13367 z"
           id="path4607"
           sodipodi:nodetypes="cssssssssssccssssssc" />
        <path
           style="fill:#e6e6e6;fill-rule:evenodd;stroke:#000000;stroke-width:1px;stroke-linecap:butt;stroke-linejoin:miter;stroke-opacity:1"
           d="M -642.45702,747.29611 C -636.73899,727.07728 -626.29458,693.06918 -626.29458,664.46361 C -626.29458,650.49978 -632.79292,615.58056 -618.21336,611.93567 C -588.59264,604.53049 -556.96067,605.87476 -525.27932,605.87476 C -501.57676,605.87476 -472.62689,609.37917 -450.52803,603.85445 C -418.47974,595.84238 -428.30061,620.02708 -420.22346,640.21994 C -409.99944,665.77999 -414.16254,704.84996 -414.16254,733.15398 C -414.16254,760.21433 -413.1533,759.41794 -448.50773,759.41794 C -473.15391,759.41794 -496.36384,757.39764 -521.23871,757.39764 C -543.46207,757.39764 -565.68543,757.39764 -587.90878,757.39764 C -604.08672,757.39764 -625.5864,750.67024 -642.45702,747.29611 z"
           id="path4609" />
        <path
           style="fill:#000000;fill-rule:evenodd;stroke:#000000;stroke-width:1.07651937px;stroke-linecap:butt;stroke-linejoin:miter;stroke-opacity:1"
           d="M -607.37854,771.77701 C -605.08928,788.04844 -600.7085,815.4644 -584.09977,805.63474 C -561.81626,792.44653 -533.21375,785.70298 -508.30843,779.42231 C -493.72275,775.74405 -472.16856,757.91808 -458.5027,751.0255 C -443.07594,743.24479 -436.28614,742.37083 -441.17896,722.62869 C -443.85328,711.83802 -443.34443,696.32233 -443.34443,685.49441 C -443.34443,668.68589 -482.19127,677.57759 -490.9847,681.12567 C -505.93029,687.15609 -522.56804,690.18261 -538.62496,694.23189 C -559.64513,699.5328 -571.01758,705.15373 -593.30301,705.15373 C -613.65353,706.18888 -608.89758,747.98838 -607.37854,771.77701 z"
           id="path4611"
           sodipodi:nodetypes="cssssssscc" />
        <path
           style="fill:#ffff00;fill-rule:evenodd;stroke:#000000;stroke-width:1px;stroke-linecap:butt;stroke-linejoin:miter;stroke-opacity:1"
           d="M -601.54584,768.50932 C -599.41004,783.55863 -595.32293,808.91542 -579.82756,799.82405 C -559.03782,787.62639 -532.35268,781.38933 -509.11688,775.58039 C -495.50895,772.1784 -475.39964,755.69131 -462.64987,749.31642 C -448.25724,742.12011 -441.92259,741.31179 -446.48742,723.05245 C -448.98247,713.07225 -448.50773,698.72192 -448.50773,688.70727 C -448.50773,673.16121 -484.75048,681.38507 -492.95444,684.66666 C -506.89816,690.24414 -522.4206,693.04335 -537.40115,696.78849 C -557.01223,701.69126 -567.62233,706.89001 -588.41386,706.89001 C -607.40019,707.84741 -602.96305,746.50742 -601.54584,768.50932 z"
           id="path4613"
           sodipodi:nodetypes="cssssssscc" />
        <path
           style="fill:none;fill-rule:evenodd;stroke:#000000;stroke-width:1px;stroke-linecap:butt;stroke-linejoin:miter;stroke-opacity:1"
           d="M -601.54584,759.92302 C -587.28855,756.31187 -570.35852,753.92581 -558.10928,747.80119 C -550.15688,743.82499 -539.80853,745.1578 -533.36054,738.70982 C -527.83015,733.17942 -512.47513,729.89607 -505.58135,727.59814 C -498.5605,725.25786 -492.10999,724.10995 -484.87322,722.0423 C -479.92921,720.62972 -475.30903,718.77543 -470.73109,716.48646 C -465.89368,714.06776 -460.63597,714.77177 -456.08387,712.95093 C -453.82722,712.04826 -450.40052,711.94077 -448.00265,711.94077"
           id="path4615" />
        <path
           style="fill:none;fill-rule:evenodd;stroke:#000000;stroke-width:1px;stroke-linecap:butt;stroke-linejoin:miter;stroke-opacity:1"
           d="M -479.31738,681.6362 C -477.80467,681.03111 -479.6145,690.7424 -476.792,697.79864 C -473.69214,705.54829 -474.7717,716.98535 -474.7717,725.57783 C -474.7717,729.09576 -474.48077,733.00044 -475.27677,736.18444 C -475.97745,738.98713 -475.2457,742.59509 -475.78185,745.27581 C -476.29929,747.86303 -475.78185,751.19979 -475.78185,753.86211 C -475.78185,754.41777 -475.39661,756.17353 -475.27677,756.89256"
           id="path4617" />
        <path
           style="fill:none;fill-rule:evenodd;stroke:#000000;stroke-width:1px;stroke-linecap:butt;stroke-linejoin:miter;stroke-opacity:1"
           d="M -514.16765,691.23265 C -514.16765,697.0739 -515.68287,706.19782 -515.68287,713.96108 C -515.68287,720.09084 -515.1778,726.10617 -515.1778,732.14383 C -515.1778,738.79534 -515.68287,745.31439 -515.68287,751.8418 C -515.68287,756.85092 -516.18795,761.84611 -516.18795,766.99409 C -516.18795,770.1929 -516.18795,773.39172 -516.18795,776.59054"
           id="path4619" />
        <path
           style="fill:none;fill-rule:evenodd;stroke:#000000;stroke-width:1px;stroke-linecap:butt;stroke-linejoin:miter;stroke-opacity:1"
           d="M -548.00776,699.81894 C -548.00776,706.33386 -549.52298,717.00077 -549.52298,725.57783 C -549.52298,733.24546 -547.50268,740.85006 -547.50268,748.30627 C -547.50268,753.29654 -546.9976,758.40611 -546.9976,763.45855 C -546.9976,766.44334 -547.29173,769.60265 -548.51283,772.04485 C -549.63815,774.29549 -549.52298,777.39348 -549.52298,780.12607 C -549.52298,782.14638 -549.52298,784.16668 -549.52298,786.18699"
           id="path4621" />
        <path
           style="fill:none;fill-rule:evenodd;stroke:#000000;stroke-width:1px;stroke-linecap:butt;stroke-linejoin:miter;stroke-opacity:1"
           d="M -578.81741,707.39509 C -578.81741,716.45338 -577.64922,726.46091 -579.82756,735.17428 C -581.8857,743.40682 -579.82756,750.23908 -579.82756,758.40779 C -579.82756,763.80469 -578.11787,770.91855 -575.78695,775.58039 C -574.10267,778.94895 -573.76665,781.8271 -573.76665,785.68191 C -573.76665,788.46279 -573.88617,791.26471 -573.26157,793.76313 C -573.09814,794.41686 -572.89265,795.2388 -572.75649,795.78344"
           id="path4623" />
        <path
           sodipodi:type="arc"
           style="fill:#ff0000;stroke:#000000;stroke-width:5;stroke-miterlimit:4;stroke-dasharray:none;stroke-opacity:1"
           id="path4625"
           sodipodi:cx="-568.21082"
           sodipodi:cy="655.11969"
           sodipodi:rx="28.284271"
           sodipodi:ry="27.02158"
           d="M -539.92654,655.11969 A 28.284271,27.02158 0 1 1 -596.49509,655.11969 A 28.284271,27.02158 0 1 1 -539.92654,655.11969 z" />
        <path
           sodipodi:type="arc"
           style="fill:#ff0000;stroke:#000000;stroke-width:5;stroke-miterlimit:4;stroke-dasharray:none;stroke-opacity:1"
           id="path4627"
           sodipodi:cx="-475.27676"
           sodipodi:cy="649.31134"
           sodipodi:rx="25.253813"
           sodipodi:ry="24.748737"
           d="M -450.02295,649.31134 A 25.253813,24.748737 0 1 1 -500.53058,649.31134 A 25.253813,24.748737 0 1 1 -450.02295,649.31134 z" />
        <path
           style="fill:#ffffff;fill-rule:evenodd;stroke:#000000;stroke-width:1px;stroke-linecap:butt;stroke-linejoin:miter;stroke-opacity:1"
           d="M -564.04048,673.78905 C -560.71892,675.71452 -557.75741,675.16182 -554.62763,671.38366 C -553.09553,669.53414 -551.1969,664.32843 -550.90425,662.41013 C -550.40801,659.15732 -547.70301,656.85926 -547.18086,653.4366 C -546.47044,648.77978 -549.65933,645.42373 -552.2422,642.75115 C -554.95996,639.939 -558.91873,639.13036 -562.26866,638.6193 C -566.05544,638.04161 -570.01964,639.4889 -573.47332,638.14912 C -576.51404,636.96953 -580.39677,640.88688 -582.1945,642.51879 C -584.60078,644.70315 -585.37635,648.75491 -585.87068,651.99518 C -586.41812,655.58357 -587.62643,658.81134 -586.43527,662.19411 C -585.41729,665.08505 -584.25269,668.51688 -581.57907,665.28936 C -579.18727,662.40204 -579.7441,657.81556 -580.10315,653.9903 C -580.35238,651.33512 -573.17246,649.7887 -570.8791,649.57344 C -567.30568,649.23802 -565.03237,649.48442 -562.09438,651.28536 C -559.98107,652.58078 -560.09045,656.42091 -559.87777,658.68674 C -559.55434,662.13249 -564.30089,662.14569 -566.63469,662.36474 C -569.4746,662.63131 -568.20172,655.78704 -570.70482,662.23948 C -571.98015,665.52699 -569.51958,667.70849 -566.66556,667.4406 C -564.16777,667.20615 -562.93536,673.82307 -568.11061,673.6638 C -572.10375,673.54091 -576.22757,673.71352 -570.48334,675.4084 C -568.66577,675.94469 -565.32812,674.44978 -564.04048,673.78905 z"
           id="path4629" />
        <path
           style="fill:#ffffff;fill-rule:evenodd;stroke:#000000;stroke-width:0.78064203px;stroke-linecap:butt;stroke-linejoin:miter;stroke-opacity:1"
           d="M -476.7658,634.78332 C -479.20694,633.04447 -481.54902,633.258 -484.2572,635.96616 C -485.58291,637.29188 -487.43834,641.19938 -487.80575,642.66899 C -488.42874,645.16095 -490.69878,646.74972 -491.3543,649.37181 C -492.24619,652.93939 -490.01253,655.78043 -488.20003,658.04606 C -486.29288,660.43 -483.27501,661.3473 -480.70864,661.98889 C -477.8076,662.71415 -474.62094,661.87847 -472.0344,663.17174 C -469.75712,664.31038 -466.45358,661.54897 -464.93729,660.41175 C -462.90771,658.88956 -462.00933,655.79701 -461.38873,653.31465 C -460.70147,650.56559 -459.52686,648.14504 -460.20588,645.42897 C -460.78618,643.10779 -461.44097,640.35552 -463.75444,642.66899 C -465.82405,644.73859 -465.72586,648.34395 -465.72586,651.34323 C -465.72586,653.42509 -471.41909,654.10321 -473.21725,654.10321 C -476.01907,654.10321 -477.76798,653.74587 -479.92007,652.1318 C -481.46809,650.97079 -481.10293,647.99412 -481.10293,646.21754 C -481.10293,643.51582 -477.41282,643.85184 -475.58295,643.85184 C -473.35626,643.85184 -474.84488,649.07852 -472.42868,644.24613 C -471.19763,641.78403 -472.9509,639.909 -475.18867,639.909 C -477.14712,639.909 -477.62225,634.67626 -473.61153,635.17759 C -470.51693,635.56442 -467.2992,635.73111 -471.64012,633.99474 C -473.01365,633.44533 -475.71682,634.36372 -476.7658,634.78332 z"
           id="path4631" />
        <path
           style="fill:#ffff00;fill-rule:evenodd;stroke:#000000;stroke-width:1.04572976px;stroke-linecap:butt;stroke-linejoin:miter;stroke-opacity:1"
           d="M -642.76947,805.90663 C -643.78885,812.63341 -636.71154,822.30935 -626.19606,827.11521 C -617.26426,831.19728 -602.32843,830.145 -591.94434,830.145 C -581.2784,830.145 -562.55283,820.77186 -553.27305,813.98609 C -545.53426,808.32715 -543.15935,797.4375 -540.01432,808.93643 C -538.27486,815.29625 -534.93127,819.99555 -528.96538,824.08541 C -524.40531,827.21152 -512.16393,830.145 -506.8675,830.145 C -497.39881,830.145 -491.97205,830.02348 -483.66472,828.12514 C -474.99536,826.14407 -464.9468,821.59042 -457.14726,818.02582 C -454.93748,817.01589 -452.72768,816.00596 -450.5179,814.99602 C -443.99,812.0126 -440.57385,808.53311 -440.57385,801.8669 C -440.57385,794.79738 -440.57385,816.00596 -440.57385,823.07547 C -440.57385,833.53259 -439.46895,844.68295 -439.46895,855.39331 C -439.46895,868.42125 -440.57385,881.65627 -440.57385,894.78066 C -440.57385,904.29569 -440.55911,911.92257 -444.99342,920.02896 C -450.23683,929.61446 -453.86256,940.255 -462.67173,948.30705 C -472.2822,957.09154 -475.56438,968.7597 -486.9794,976.58515 C -500.24769,985.6811 -510.51734,991.9639 -523.4409,1000.8235 C -530.87882,1005.9225 -537.48562,1009.9129 -546.64369,1009.9129 C -554.24736,1009.9129 -565.19746,998.00343 -569.84646,993.75399 C -579.1345,985.26424 -597.87257,980.7608 -606.30797,973.05039 C -610.09292,969.59075 -620.51252,955.74006 -622.32892,951.58933 C -625.2408,944.93531 -631.00985,940.30116 -632.82543,933.66304 C -634.5091,927.50715 -635.38127,919.39632 -638.3499,913.96936 C -641.55821,908.10421 -640.23745,898.39953 -643.32191,892.76079 C -647.15754,885.74888 -644.20365,878.42777 -646.08416,871.55222 C -647.88791,864.95728 -644.97925,860.48544 -644.97925,853.37344 C -644.97925,847.17915 -647.18905,841.03862 -647.18905,834.18473 C -647.18905,828.46179 -647.18905,822.73884 -647.18905,817.01589 C -647.18905,813.21543 -644.56763,809.19385 -642.76947,805.90663 z"
           id="path4633"
           sodipodi:nodetypes="cssssssssssssssssssssssssssssc" />
        <text
           xml:space="preserve"
           style="font-size:70px;font-style:normal;font-variant:normal;font-weight:normal;font-stretch:normal;text-align:center;line-height:125%;writing-mode:lr-tb;text-anchor:middle;fill:#000000;fill-opacity:1;stroke:none;stroke-width:1px;stroke-linecap:butt;stroke-linejoin:miter;stroke-opacity:1;font-family:Bitstream Vera Serif;-inkscape-font-specification:Bitstream Vera Serif"
           x="-537.14288"
           y="885.21936"
           id="text4635"
           sodipodi:linespacing="125%"><tspan
             sodipodi:role="line"
             id="tspan4637"
             x="-537.14288"
             y="885.21936">LDA</tspan><tspan
             sodipodi:role="line"
             x="-537.14288"
             y="972.71936"
             id="tspan4639">LSI</tspan></text>
        <path
           sodipodi:type="arc"
           style="fill:#000000;stroke:#000000;stroke-width:5;stroke-miterlimit:4;stroke-dasharray:none;stroke-opacity:1"
           id="path4641"
           sodipodi:cx="-553.21429"
           sodipodi:cy="658.07648"
           sodipodi:rx="9.6428576"
           sodipodi:ry="10"
           d="M -543.57144,658.07648 A 9.6428576,10 0 1 1 -562.85715,658.07648 A 9.6428576,10 0 1 1 -543.57144,658.07648 z" />
        <path
           sodipodi:type="arc"
           style="fill:#000000;stroke:#000000;stroke-width:5;stroke-miterlimit:4;stroke-dasharray:none;stroke-opacity:1"
           id="path4643"
           sodipodi:cx="-553.21429"
           sodipodi:cy="658.07648"
           sodipodi:rx="9.6428576"
           sodipodi:ry="10"
           d="M -543.57144,658.07648 A 9.6428576,10 0 1 1 -562.85715,658.07648 A 9.6428576,10 0 1 1 -543.57144,658.07648 z"
           transform="translate(89.642865,-3.5714377)" />
      </g>
      <g
         transform="translate(-908.57143,-734.28571)"
         id="g4686"
         style="fill:#cccccc">
        <path
           style="fill:#cccccc;fill-rule:evenodd;stroke:#000000;stroke-width:1px;stroke-linecap:butt;stroke-linejoin:miter;stroke-opacity:1"
           d="M -648.57143,1378.0765 C -650.23107,1369.3353 -645.24862,1365.1262 -631.42857,1362.3622 C -620.08558,1360.0936 -616.09256,1364.7565 -614.28571,1373.7908 C -612.81569,1381.1409 -614.28571,1390.5472 -614.28571,1398.0765 C -614.28571,1409.8041 -613.0619,1420.217 -610,1430.9336 C -609.46062,1432.8215 -609.04762,1434.7431 -608.57143,1436.6479 C -605.61695,1448.4658 -596.34398,1461.7325 -587.14286,1470.9336 C -576.10886,1481.9676 -573.63554,1491.0962 -557.14286,1495.2193 C -536.1424,1500.4694 -517.31783,1505.2193 -494.28571,1505.2193 C -480.86826,1505.2193 -467.78491,1506.6479 -454.28571,1506.6479 C -445.89785,1506.6479 -447.14286,1519.5119 -447.14286,1526.6479 C -447.14286,1537.7001 -451.95656,1541.8964 -461.42857,1543.7908 C -472.28301,1545.9616 -485.95429,1543.7908 -497.14286,1543.7908 C -508.24644,1543.7908 -521.3641,1539.2451 -531.42857,1535.2193 C -540.43204,1531.6179 -549.43767,1528.4746 -558.57143,1526.6479 C -568.57852,1524.6465 -578.73436,1519.0257 -585.71429,1513.7908 C -593.35322,1508.0616 -599.98038,1502.3818 -607.14286,1495.2193 C -614.65281,1487.7094 -621.01266,1481.3495 -628.57143,1473.7908 C -634.23893,1468.1232 -638.25466,1457.915 -640,1450.9336 C -640.25825,1449.9006 -640.95238,1449.0288 -641.42857,1448.0765 C -645.18368,1440.5662 -645.71429,1430.7476 -645.71429,1422.3622 C -645.71429,1413.7908 -645.71429,1405.2193 -645.71429,1396.6479 C -645.71429,1390.3215 -648.57143,1384.9358 -648.57143,1378.0765 z"
           id="path4688" />
        <path
           style="fill:#cccccc;fill-rule:evenodd;stroke:#000000;stroke-width:1px;stroke-linecap:butt;stroke-linejoin:miter;stroke-opacity:1"
           d="M -637.14286,1413.7908 C -635.34256,1415.141 -618.74123,1413.8332 -612.85714,1412.3622"
           id="path4690" />
        <path
           style="fill:#cccccc;fill-rule:evenodd;stroke:#000000;stroke-width:1px;stroke-linecap:butt;stroke-linejoin:miter;stroke-opacity:1"
           d="M -632.85714,1445.2193 C -628.57994,1448.4272 -616.62657,1448.6617 -608.57143,1446.6479"
           id="path4692" />
        <path
           style="fill:#cccccc;fill-rule:evenodd;stroke:#000000;stroke-width:1px;stroke-linecap:butt;stroke-linejoin:miter;stroke-opacity:1"
           d="M -611.42857,1480.9336 C -605.753,1485.1903 -594.19303,1476.5552 -588.57143,1470.9336"
           id="path4694" />
        <path
           style="fill:#cccccc;fill-rule:evenodd;stroke:#000000;stroke-width:1px;stroke-linecap:butt;stroke-linejoin:miter;stroke-opacity:1"
           d="M -578.57143,1508.0765 C -572.38095,1501.886 -561.28944,1503.3293 -554.28571,1498.0765"
           id="path4696" />
        <path
           style="fill:#cccccc;fill-rule:evenodd;stroke:#000000;stroke-width:1px;stroke-linecap:butt;stroke-linejoin:miter;stroke-opacity:1"
           d="M -530,1522.3622 C -523.90581,1517.7915 -510.41549,1518.3099 -507.14286,1505.2193"
           id="path4698" />
        <path
           style="fill:#cccccc;fill-rule:evenodd;stroke:#000000;stroke-width:1px;stroke-linecap:butt;stroke-linejoin:miter;stroke-opacity:1"
           d="M -491.42857,1533.7908 C -481.54705,1526.3796 -476.3746,1519.013 -471.42857,1506.6479 C -471.07487,1505.7636 -471.42857,1504.7431 -471.42857,1503.7908"
           id="path4700" />
      </g>
      <g
         style="fill:#cccccc"
         id="g4702"
         transform="matrix(-2.1946907e-2,-0.9997591,0.9997591,-2.1946907e-2,-2455.786,200.18064)">
        <path
           id="path4704"
           d="M -648.57143,1378.0765 C -650.23107,1369.3353 -645.24862,1365.1262 -631.42857,1362.3622 C -620.08558,1360.0936 -616.09256,1364.7565 -614.28571,1373.7908 C -612.81569,1381.1409 -614.28571,1390.5472 -614.28571,1398.0765 C -614.28571,1409.8041 -613.0619,1420.217 -610,1430.9336 C -609.46062,1432.8215 -609.04762,1434.7431 -608.57143,1436.6479 C -605.61695,1448.4658 -596.34398,1461.7325 -587.14286,1470.9336 C -576.10886,1481.9676 -573.63554,1491.0962 -557.14286,1495.2193 C -536.1424,1500.4694 -517.31783,1505.2193 -494.28571,1505.2193 C -480.86826,1505.2193 -467.78491,1506.6479 -454.28571,1506.6479 C -445.89785,1506.6479 -447.14286,1519.5119 -447.14286,1526.6479 C -447.14286,1537.7001 -451.95656,1541.8964 -461.42857,1543.7908 C -472.28301,1545.9616 -485.95429,1543.7908 -497.14286,1543.7908 C -508.24644,1543.7908 -521.3641,1539.2451 -531.42857,1535.2193 C -540.43204,1531.6179 -549.43767,1528.4746 -558.57143,1526.6479 C -568.57852,1524.6465 -578.73436,1519.0257 -585.71429,1513.7908 C -593.35322,1508.0616 -599.98038,1502.3818 -607.14286,1495.2193 C -614.65281,1487.7094 -621.01266,1481.3495 -628.57143,1473.7908 C -634.23893,1468.1232 -638.25466,1457.915 -640,1450.9336 C -640.25825,1449.9006 -640.95238,1449.0288 -641.42857,1448.0765 C -645.18368,1440.5662 -645.71429,1430.7476 -645.71429,1422.3622 C -645.71429,1413.7908 -645.71429,1405.2193 -645.71429,1396.6479 C -645.71429,1390.3215 -648.57143,1384.9358 -648.57143,1378.0765 z"
           style="fill:#cccccc;fill-rule:evenodd;stroke:#000000;stroke-width:1px;stroke-linecap:butt;stroke-linejoin:miter;stroke-opacity:1" />
        <path
           id="path4706"
           d="M -637.14286,1413.7908 C -635.34256,1415.141 -618.74123,1413.8332 -612.85714,1412.3622"
           style="fill:#cccccc;fill-rule:evenodd;stroke:#000000;stroke-width:1px;stroke-linecap:butt;stroke-linejoin:miter;stroke-opacity:1" />
        <path
           id="path4708"
           d="M -632.85714,1445.2193 C -628.57994,1448.4272 -616.62657,1448.6617 -608.57143,1446.6479"
           style="fill:#cccccc;fill-rule:evenodd;stroke:#000000;stroke-width:1px;stroke-linecap:butt;stroke-linejoin:miter;stroke-opacity:1" />
        <path
           id="path4710"
           d="M -611.42857,1480.9336 C -605.753,1485.1903 -594.19303,1476.5552 -588.57143,1470.9336"
           style="fill:#cccccc;fill-rule:evenodd;stroke:#000000;stroke-width:1px;stroke-linecap:butt;stroke-linejoin:miter;stroke-opacity:1" />
        <path
           id="path4712"
           d="M -578.57143,1508.0765 C -572.38095,1501.886 -561.28944,1503.3293 -554.28571,1498.0765"
           style="fill:#cccccc;fill-rule:evenodd;stroke:#000000;stroke-width:1px;stroke-linecap:butt;stroke-linejoin:miter;stroke-opacity:1" />
        <path
           id="path4714"
           d="M -530,1522.3622 C -523.90581,1517.7915 -510.41549,1518.3099 -507.14286,1505.2193"
           style="fill:#cccccc;fill-rule:evenodd;stroke:#000000;stroke-width:1px;stroke-linecap:butt;stroke-linejoin:miter;stroke-opacity:1" />
        <path
           id="path4716"
           d="M -491.42857,1533.7908 C -481.54705,1526.3796 -476.3746,1519.013 -471.42857,1506.6479 C -471.07487,1505.7636 -471.42857,1504.7431 -471.42857,1503.7908"
           style="fill:#cccccc;fill-rule:evenodd;stroke:#000000;stroke-width:1px;stroke-linecap:butt;stroke-linejoin:miter;stroke-opacity:1" />
      </g>
      <g
         inkscape:transform-center-y="-50.508659"
         inkscape:transform-center-x="-3.5566632"
         transform="matrix(0.1241189,0.9922674,-0.9922674,0.1241189,-353.79122,579.71897)"
         id="g4734">
        <path
           inkscape:transform-center-y="-20.59074"
           inkscape:transform-center-x="42.525082"
           id="path4736"
           d="M -162.64901,1168.1827 C -156.91972,1162.8749 -148.06398,1174.1242 -140.35963,1175.4052 C -128.88937,1177.3123 -131.80619,1178.1835 -125.12418,1169.2174 C -120.76317,1163.3657 -121.37447,1156.4172 -125.49616,1151.151 C -132.35205,1142.3915 -138.8953,1135.4234 -148.54409,1129.0332 C -158.97897,1122.1224 -166.98549,1114.6917 -179.233,1108.88 C -189.50015,1104.008 -196.98871,1105.1789 -207.77117,1105.401 C -209.27668,1105.432 -210.78224,1105.463 -212.28775,1105.494 C -218.8687,1105.6295 -226.01339,1110.9819 -229.25548,1115.3323 C -232.99735,1120.3532 -237.82546,1121.6077 -232.19386,1126.2371 C -226.33256,1131.0554 -215.64117,1135.2099 -208.8989,1138.4093 C -205.43042,1140.0551 -209.31108,1130.0371 -206.8731,1127.0713 C -203.34663,1122.7814 -199.02055,1135.2699 -194.00346,1137.6507 C -191.23637,1138.9637 -189.78127,1128.7526 -184.15069,1133.3811 C -180.02382,1136.7736 -191.51361,1142.1486 -179.4016,1144.5796 C -172.78779,1145.907 -165.9245,1139.7411 -170.27543,1148.9102 C -173.75467,1156.2422 -163.50446,1154.6448 -158.41141,1154.5399 C -150.56966,1154.3784 -160.45467,1166.4652 -162.64901,1168.1827 z"
           style="fill:#b3b3b3;fill-rule:evenodd;stroke:#000000;stroke-width:1px;stroke-linecap:butt;stroke-linejoin:miter;stroke-opacity:1" />
        <path
           id="path4738"
           d="M -157.28837,1184.8617 C -154.38725,1191.8044 -141.56166,1185.7089 -134.0507,1187.7631 C -122.86837,1190.8215 -125.13044,1188.8707 -122.93704,1199.3687 C -121.50552,1206.2203 -125.03729,1211.9796 -131.01971,1214.843 C -140.97066,1219.6058 -149.87099,1222.9473 -161.32971,1224.5143 C -173.72194,1226.209 -184.14283,1229.3501 -197.70172,1229.3501 C -209.06822,1229.3501 -215.33283,1225.2635 -224.98072,1220.6458 C -226.32783,1220.0011 -227.67494,1219.3563 -229.02205,1218.7115 C -234.91054,1215.8932 -239.0715,1208.3309 -240.13572,1203.2373 C -241.364,1197.3585 -245.18882,1194.2917 -238.11506,1192.5989 C -230.75275,1190.8369 -219.31057,1191.6317 -211.84639,1191.6317 C -208.00653,1191.6317 -215.80869,1198.7042 -214.87739,1202.2702 C -213.53028,1207.4283 -204.26634,1198.4017 -198.71205,1198.4017 C -195.64868,1198.4017 -198.71219,1207.8313 -191.63972,1206.1387 C -186.45602,1204.8982 -194.53359,1195.533 -182.54672,1198.4017 C -176.00126,1199.9681 -172.44338,1208.1185 -172.44338,1198.4017 C -172.44338,1190.6316 -163.86617,1196.2205 -159.30904,1198.4017 C -152.29244,1201.76 -156.04199,1187.2479 -157.28837,1184.8617 z"
           style="fill:#b3b3b3;fill-rule:evenodd;stroke:#000000;stroke-width:0.97856432px;stroke-linecap:butt;stroke-linejoin:miter;stroke-opacity:1" />
        <path
           id="path4740"
           d="M -104.6647,1151.5475 C -108.59358,1152.9612 -120.69445,1152.5576 -127.89821,1152.5576 C -133.76196,1152.5576 -142.55017,1162.1588 -146.08096,1165.6896 C -149.80349,1169.4121 -148.10126,1179.8656 -148.10126,1184.8825 C -148.10126,1191.848 -144.96665,1197.1085 -140.02004,1202.0551 C -134.42797,1207.6472 -124.37801,1208.116 -116.78653,1208.116 C -106.1134,1208.116 -99.622284,1210.9002 -90.522574,1204.0754 C -84.972724,1199.913 -83.451504,1193.3057 -83.451504,1186.9028 C -83.451504,1180.2834 -83.978204,1174.6945 -85.471804,1168.7201 C -87.164994,1161.9473 -89.126034,1158.3067 -94.563184,1155.5881 C -98.871804,1153.4338 -98.112844,1152.8579 -104.6647,1151.5475 z"
           style="fill:#cccccc;fill-rule:evenodd;stroke:#000000;stroke-width:1px;stroke-linecap:butt;stroke-linejoin:miter;stroke-opacity:1" />
      </g>
      <g
         inkscape:transform-center-y="-50.08127"
         inkscape:transform-center-x="7.9887418"
         id="g4742"
         transform="matrix(0.2274656,0.9737861,-0.9737861,0.2274656,252.0028,441.88077)">
        <path
           inkscape:transform-center-y="-20.59074"
           inkscape:transform-center-x="42.525082"
           id="path4744"
           d="M -162.64901,1168.1827 C -156.91972,1162.8749 -148.06398,1174.1242 -140.35963,1175.4052 C -128.88937,1177.3123 -131.80619,1178.1835 -125.12418,1169.2174 C -120.76317,1163.3657 -121.37447,1156.4172 -125.49616,1151.151 C -132.35205,1142.3915 -138.8953,1135.4234 -148.54409,1129.0332 C -158.97897,1122.1224 -166.98549,1114.6917 -179.233,1108.88 C -189.50015,1104.008 -196.98871,1105.1789 -207.77117,1105.401 C -209.27668,1105.432 -210.78224,1105.463 -212.28775,1105.494 C -218.8687,1105.6295 -226.01339,1110.9819 -229.25548,1115.3323 C -232.99735,1120.3532 -237.82546,1121.6077 -232.19386,1126.2371 C -226.33256,1131.0554 -215.64117,1135.2099 -208.8989,1138.4093 C -205.43042,1140.0551 -209.31108,1130.0371 -206.8731,1127.0713 C -203.34663,1122.7814 -199.02055,1135.2699 -194.00346,1137.6507 C -191.23637,1138.9637 -189.78127,1128.7526 -184.15069,1133.3811 C -180.02382,1136.7736 -191.51361,1142.1486 -179.4016,1144.5796 C -172.78779,1145.907 -165.9245,1139.7411 -170.27543,1148.9102 C -173.75467,1156.2422 -163.50446,1154.6448 -158.41141,1154.5399 C -150.56966,1154.3784 -160.45467,1166.4652 -162.64901,1168.1827 z"
           style="fill:#b3b3b3;fill-rule:evenodd;stroke:#000000;stroke-width:1px;stroke-linecap:butt;stroke-linejoin:miter;stroke-opacity:1" />
        <path
           id="path4746"
           d="M -157.28837,1184.8617 C -154.38725,1191.8044 -141.56166,1185.7089 -134.0507,1187.7631 C -122.86837,1190.8215 -125.13044,1188.8707 -122.93704,1199.3687 C -121.50552,1206.2203 -125.03729,1211.9796 -131.01971,1214.843 C -140.97066,1219.6058 -149.87099,1222.9473 -161.32971,1224.5143 C -173.72194,1226.209 -184.14283,1229.3501 -197.70172,1229.3501 C -209.06822,1229.3501 -215.33283,1225.2635 -224.98072,1220.6458 C -226.32783,1220.0011 -227.67494,1219.3563 -229.02205,1218.7115 C -234.91054,1215.8932 -239.0715,1208.3309 -240.13572,1203.2373 C -241.364,1197.3585 -245.18882,1194.2917 -238.11506,1192.5989 C -230.75275,1190.8369 -219.31057,1191.6317 -211.84639,1191.6317 C -208.00653,1191.6317 -215.80869,1198.7042 -214.87739,1202.2702 C -213.53028,1207.4283 -204.26634,1198.4017 -198.71205,1198.4017 C -195.64868,1198.4017 -198.71219,1207.8313 -191.63972,1206.1387 C -186.45602,1204.8982 -194.53359,1195.533 -182.54672,1198.4017 C -176.00126,1199.9681 -172.44338,1208.1185 -172.44338,1198.4017 C -172.44338,1190.6316 -163.86617,1196.2205 -159.30904,1198.4017 C -152.29244,1201.76 -156.04199,1187.2479 -157.28837,1184.8617 z"
           style="fill:#b3b3b3;fill-rule:evenodd;stroke:#000000;stroke-width:0.97856432px;stroke-linecap:butt;stroke-linejoin:miter;stroke-opacity:1" />
        <path
           id="path4748"
           d="M -104.6647,1151.5475 C -108.59358,1152.9612 -120.69445,1152.5576 -127.89821,1152.5576 C -133.76196,1152.5576 -142.55017,1162.1588 -146.08096,1165.6896 C -149.80349,1169.4121 -148.10126,1179.8656 -148.10126,1184.8825 C -148.10126,1191.848 -144.96665,1197.1085 -140.02004,1202.0551 C -134.42797,1207.6472 -124.37801,1208.116 -116.78653,1208.116 C -106.1134,1208.116 -99.622284,1210.9002 -90.522574,1204.0754 C -84.972724,1199.913 -83.451504,1193.3057 -83.451504,1186.9028 C -83.451504,1180.2834 -83.978204,1174.6945 -85.471804,1168.7201 C -87.164994,1161.9473 -89.126034,1158.3067 -94.563184,1155.5881 C -98.871804,1153.4338 -98.112844,1152.8579 -104.6647,1151.5475 z"
           style="fill:#cccccc;fill-rule:evenodd;stroke:#000000;stroke-width:1px;stroke-linecap:butt;stroke-linejoin:miter;stroke-opacity:1" />
      </g>
    </g>
  </g>
</svg>
