<?xml version="1.0" encoding="UTF-8" standalone="no"?>
<!-- Created with Inkscape (http://www.inkscape.org/) -->
<svg
   xmlns:dc="http://purl.org/dc/elements/1.1/"
   xmlns:cc="http://creativecommons.org/ns#"
   xmlns:rdf="http://www.w3.org/1999/02/22-rdf-syntax-ns#"
   xmlns:svg="http://www.w3.org/2000/svg"
   xmlns="http://www.w3.org/2000/svg"
   xmlns:sodipodi="http://sodipodi.sourceforge.net/DTD/sodipodi-0.dtd"
   xmlns:inkscape="http://www.inkscape.org/namespaces/inkscape"
   width="453.5433"
   height="340.15747"
   id="svg2"
   sodipodi:version="0.32"
   inkscape:version="0.46"
   sodipodi:docname="slide370-future-work-naming.svg"
   version="1.0"
   inkscape:output_extension="org.inkscape.output.svg.inkscape">
  <defs
     id="defs4">
    <inkscape:perspective
       sodipodi:type="inkscape:persp3d"
       inkscape:vp_x="0 : 170.07874 : 1"
       inkscape:vp_y="0 : 1000 : 0"
       inkscape:vp_z="453.5433 : 170.07874 : 1"
       inkscape:persp3d-origin="226.77165 : 113.38582 : 1"
       id="perspective3789" />
  </defs>
  <sodipodi:namedview
     id="base"
     pagecolor="#ffffff"
     bordercolor="#666666"
     borderopacity="1.0"
     gridtolerance="10000"
     guidetolerance="8.8"
     objecttolerance="10"
     inkscape:pageopacity="0.0"
     inkscape:pageshadow="2"
     inkscape:zoom="1.540463"
     inkscape:cx="329.52427"
     inkscape:cy="160.28292"
     inkscape:document-units="mm"
     inkscape:current-layer="layer1"
     inkscape:window-width="1024"
     inkscape:window-height="768"
     inkscape:window-x="0"
     inkscape:window-y="0"
     width="12.8cm"
     height="9.6cm"
     units="cm"
     showgrid="false"
     grid_units="mm"
     inkscape:object-paths="false"
     inkscape:grid-points="true"
     inkscape:grid-bbox="true"
     inkscape:guide-points="true"
     showguides="true"
     inkscape:guide-bbox="true">
    <sodipodi:guide
       orientation="vertical"
       position="56.476527"
       id="guide3573" />
    <sodipodi:guide
       orientation="horizontal"
       position="11.035643"
       id="guide3579" />
    <sodipodi:guide
       orientation="horizontal"
       position="24.018753"
       id="guide3886" />
    <sodipodi:guide
       orientation="horizontal"
       position="285.62841"
       id="guide3988" />
    <sodipodi:guide
       orientation="horizontal"
       position="303.15561"
       id="guide4081" />
    <inkscape:grid
       id="GridFromPre046Settings"
       type="xygrid"
       originx="0px"
       originy="0px"
       spacingx="2mm"
       spacingy="2mm"
       color="#0000ff"
       empcolor="#0000ff"
       opacity="0.2"
       empopacity="0.4"
       empspacing="5" />
  </sodipodi:namedview>
  <metadata
     id="metadata7">
    <rdf:RDF>
      <cc:Work
         rdf:about="">
        <dc:format>image/svg+xml</dc:format>
        <dc:type
           rdf:resource="http://purl.org/dc/dcmitype/StillImage" />
      </cc:Work>
    </rdf:RDF>
  </metadata>
  <g
     inkscape:label="Layer 1"
     inkscape:groupmode="layer"
     id="layer1"
     transform="translate(4.149475e-6,-698.0315)">
    <text
       xml:space="preserve"
       style="font-size:24px;font-style:normal;font-weight:bold;writing-mode:lr-tb;fill:#000000;fill-opacity:1;stroke:none;stroke-width:1px;stroke-linecap:butt;stroke-linejoin:miter;stroke-opacity:1;font-family:Sans;-inkscape-font-specification:Sans"
       x="56.692909"
       y="752.56055"
       id="text3791"><tspan
         sodipodi:role="line"
         id="tspan3793"
         x="56.692909"
         y="752.56055">Future Work</tspan></text>
    <rect
       style="fill:#ff0000;fill-rule:evenodd;stroke:#000000;stroke-width:1.05411363px;stroke-linecap:butt;stroke-linejoin:miter;stroke-opacity:1"
       id="rect3839"
       width="70.812027"
       height="70.923134"
       x="31.142067"
       y="766.84772" />
    <rect
       style="fill:#ffff00;fill-rule:evenodd;stroke:#000000;stroke-width:1.05411363px;stroke-linecap:butt;stroke-linejoin:miter;stroke-opacity:1"
       id="rect3841"
       width="70.812027"
       height="70.923134"
       x="116.2085"
       y="766.76367" />
    <text
       xml:space="preserve"
       style="font-size:12px;font-style:normal;font-weight:bold;writing-mode:lr-tb;fill:#000000;fill-opacity:1;stroke:none;stroke-width:1px;stroke-linecap:butt;stroke-linejoin:miter;stroke-opacity:1;font-family:Sans;-inkscape-font-specification:Sans"
       x="123.241"
       y="780.9939"
       id="text3795"><tspan
         sodipodi:role="line"
         id="tspan3797"
         x="123.241"
         y="780.9939">* Bug</tspan><tspan
         sodipodi:role="line"
         x="123.241"
         y="795.9939"
         id="tspan3799">* fix</tspan><tspan
         sodipodi:role="line"
         x="123.241"
         y="810.9939"
         id="tspan3801">* correct</tspan><tspan
         sodipodi:role="line"
         x="123.241"
         y="825.9939"
         id="tspan3803">*...</tspan></text>
    <text
       xml:space="preserve"
       style="font-size:12px;font-style:normal;font-weight:bold;writing-mode:lr-tb;fill:#000000;fill-opacity:1;stroke:none;stroke-width:1px;stroke-linecap:butt;stroke-linejoin:miter;stroke-opacity:1;font-family:Sans;-inkscape-font-specification:Sans"
       x="42.51968"
       y="783.07086"
       id="text3805"><tspan
         sodipodi:role="line"
         id="tspan3807"
         x="42.51968"
         y="783.07086">* OS/2</tspan><tspan
         sodipodi:role="line"
         x="42.51968"
         y="798.07086"
         id="tspan3809">* CMS</tspan><tspan
         sodipodi:role="line"
         x="42.51968"
         y="813.07086"
         id="tspan3811">* 32bit</tspan><tspan
         sodipodi:role="line"
         x="42.51968"
         y="828.07086"
         id="tspan3813">*...</tspan></text>
    <rect
       style="fill:#00ffff;fill-rule:evenodd;stroke:#000000;stroke-width:1.05411363px;stroke-linecap:butt;stroke-linejoin:miter;stroke-opacity:1"
       id="rect3843"
       width="70.812027"
       height="70.923134"
       x="30.898624"
       y="844.77344" />
    <text
       xml:space="preserve"
       style="font-size:12px;font-style:normal;font-weight:bold;writing-mode:lr-tb;fill:#000000;fill-opacity:1;stroke:none;stroke-width:1px;stroke-linecap:butt;stroke-linejoin:miter;stroke-opacity:1;font-family:Sans;-inkscape-font-specification:Sans"
       x="31.115009"
       y="858.94666"
       id="text3815"><tspan
         sodipodi:role="line"
         id="tspan3817"
         x="31.115009"
         y="858.94666">* Clean</tspan><tspan
         sodipodi:role="line"
         x="31.115009"
         y="873.94666"
         id="tspan3819">* refactor</tspan><tspan
         sodipodi:role="line"
         x="31.115009"
         y="888.94666"
         id="tspan3821">* improve</tspan><tspan
         sodipodi:role="line"
         x="31.115009"
         y="903.94666"
         id="tspan3823">* ...</tspan></text>
    <rect
       style="fill:#00ff00;fill-rule:evenodd;stroke:#000000;stroke-width:1.05411363px;stroke-linecap:butt;stroke-linejoin:miter;stroke-opacity:1"
       id="rect3845"
       width="70.812027"
       height="70.923134"
       x="116.2085"
       y="844.71643" />
    <text
       xml:space="preserve"
       style="font-size:12px;font-style:normal;font-weight:bold;writing-mode:lr-tb;fill:#000000;fill-opacity:1;stroke:none;stroke-width:1px;stroke-linecap:butt;stroke-linejoin:miter;stroke-opacity:1;font-family:Sans;-inkscape-font-specification:Sans"
       x="116.15439"
       y="858.94666"
       id="text3825"><tspan
         sodipodi:role="line"
         x="116.15439"
         y="858.94666"
         id="tspan3829">* optimize</tspan><tspan
         sodipodi:role="line"
         x="116.15439"
         y="873.94666"
         id="tspan3831">* hashes</tspan><tspan
         sodipodi:role="line"
         x="116.15439"
         y="888.94666"
         id="tspan3833">* inline</tspan><tspan
         sodipodi:role="line"
         x="116.15439"
         y="903.94666"
         id="tspan3837">* ...</tspan></text>
    <rect
       style="fill:#ff0000;fill-rule:evenodd;stroke:#000000;stroke-width:1.05411363px;stroke-linecap:butt;stroke-linejoin:miter;stroke-opacity:1"
       id="rect3847"
       width="70.812027"
       height="70.923134"
       x="265.27081"
       y="766.84772" />
    <rect
       style="fill:#ffff00;fill-rule:evenodd;stroke:#000000;stroke-width:1.05411363px;stroke-linecap:butt;stroke-linejoin:miter;stroke-opacity:1"
       id="rect3849"
       width="70.812027"
       height="70.923134"
       x="350.33725"
       y="766.76367" />
    <text
       xml:space="preserve"
       style="font-size:12px;font-style:normal;font-weight:bold;text-align:center;writing-mode:lr-tb;text-anchor:middle;fill:#000000;fill-opacity:1;stroke:none;stroke-width:1px;stroke-linecap:butt;stroke-linejoin:miter;stroke-opacity:1;font-family:Sans;-inkscape-font-specification:Sans"
       x="384.55627"
       y="802.25372"
       id="text3851"><tspan
         sodipodi:role="line"
         x="384.55627"
         y="802.25372"
         id="tspan3859">Correct-</tspan><tspan
         sodipodi:role="line"
         x="384.55627"
         y="817.25372"
         id="tspan3913">ness</tspan></text>
    <text
       xml:space="preserve"
       style="font-size:12px;font-style:normal;font-weight:bold;text-align:center;writing-mode:lr-tb;text-anchor:middle;fill:#000000;fill-opacity:1;stroke:none;stroke-width:1px;stroke-linecap:butt;stroke-linejoin:miter;stroke-opacity:1;font-family:Sans;-inkscape-font-specification:Sans"
       x="300.05273"
       y="802.25372"
       id="text3861"><tspan
         sodipodi:role="line"
         x="300.05273"
         y="802.25372"
         id="tspan3869">Porta-</tspan><tspan
         sodipodi:role="line"
         x="300.05273"
         y="817.25372"
         id="tspan3937">bility</tspan></text>
    <rect
       style="fill:#00ffff;fill-rule:evenodd;stroke:#000000;stroke-width:1.05411363px;stroke-linecap:butt;stroke-linejoin:miter;stroke-opacity:1"
       id="rect3871"
       width="70.812027"
       height="70.923134"
       x="265.02737"
       y="844.77344" />
    <text
       xml:space="preserve"
       style="font-size:12px;font-style:normal;font-weight:bold;text-align:center;writing-mode:lr-tb;text-anchor:middle;fill:#000000;fill-opacity:1;stroke:none;stroke-width:1px;stroke-linecap:butt;stroke-linejoin:miter;stroke-opacity:1;font-family:Sans;-inkscape-font-specification:Sans"
       x="301.69659"
       y="873.11987"
       id="text3873"><tspan
         sodipodi:role="line"
         x="301.69659"
         y="873.11987"
         id="tspan3881">Maintain</tspan><tspan
         sodipodi:role="line"
         x="301.69659"
         y="888.11987"
         id="tspan3924">-ability</tspan></text>
    <rect
       style="fill:#00ff00;fill-rule:evenodd;stroke:#000000;stroke-width:1.05411363px;stroke-linecap:butt;stroke-linejoin:miter;stroke-opacity:1"
       id="rect3883"
       width="70.812027"
       height="70.923134"
       x="350.33725"
       y="844.71643" />
    <text
       xml:space="preserve"
       style="font-size:12px;font-style:normal;font-weight:bold;text-align:center;writing-mode:lr-tb;text-anchor:middle;fill:#000000;fill-opacity:1;stroke:none;stroke-width:1px;stroke-linecap:butt;stroke-linejoin:miter;stroke-opacity:1;font-family:Sans;-inkscape-font-specification:Sans"
       x="387.81085"
       y="873.11987"
       id="text3885"><tspan
         sodipodi:role="line"
         x="387.81085"
         y="873.11987"
         id="tspan3893">Perfor-</tspan><tspan
         sodipodi:role="line"
         x="387.81085"
         y="888.11987"
         id="tspan3935">mance</tspan></text>
    <path
       style="fill:#b3b3b3;fill-rule:evenodd;stroke:#000000;stroke-width:1px;stroke-linecap:butt;stroke-linejoin:miter;stroke-opacity:1"
       d="M 191.33858,804.33069 L 191.33858,875.19684 L 233.85827,875.19684 L 233.85827,910.62991 L 262.20472,839.76377 L 233.85827,768.89762 L 233.85827,804.33069 L 191.33858,804.33069 z"
       id="path3939" />
    <path
       style="fill:#cccccc;fill-rule:evenodd;stroke:#000000;stroke-width:1px;stroke-linecap:butt;stroke-linejoin:miter;stroke-opacity:1"
       d="M 219.41455,267.45206 C 216.21651,266.76594 208.89854,265.50459 203.83482,265.50459 C 199.01426,265.50459 193.54822,264.06896 188.90425,262.90797 C 188.0387,262.69158 187.17316,262.4752 186.30762,262.25881 C 181.12704,260.96367 175.76687,260.23421 170.72789,257.71472 C 166.37317,255.53736 158.02992,254.78564 153.20069,253.81979 C 147.44326,252.66831 143.38,250.85691 138.91927,248.62655 C 133.62686,245.98034 129.06928,243.37697 123.9887,240.83668 C 120.10776,238.89621 117.70295,237.14756 114.90052,234.34513 C 111.3272,230.77181 108.66838,228.76214 104.51403,224.6078 C 101.99095,222.08471 101.56035,221.00496 99.320789,218.7654 C 96.872034,216.31664 93.951738,214.22131 90.232612,214.22131 C 87.606228,214.22131 91.930311,222.80995 92.180078,223.30948 C 93.922809,226.79495 95.763192,228.08697 98.022478,231.09935 C 100.31743,234.15929 103.0131,236.78979 105.81234,238.88922 C 108.97652,241.26235 111.01818,244.09505 114.25136,247.32824 C 117.33208,250.40895 120.84105,252.19086 124.63785,254.46895 C 128.55307,256.81808 133.70717,259.52104 138.27012,262.25881 C 142.7569,264.95088 147.03306,267.28944 151.25323,269.39952 C 155.10834,271.32708 157.83594,272.46022 162.28887,271.34699 C 165.83675,270.46002 169.23876,271.43866 172.0262,271.99615 C 175.36012,272.66293 178.86728,273.8687 181.76353,274.59277 C 186.93126,275.8847 191.95243,276.65312 196.69411,277.83854 C 201.87717,279.13431 206.96478,279.67673 212.27384,280.43517 C 215.62731,280.91423 220.45828,282.9045 220.71286,283.03179"
       id="path4758"
       transform="translate(-4.149475e-6,698.0315)" />
    <path
       style="fill:#cccccc;fill-rule:evenodd;stroke:#000000;stroke-width:1px;stroke-linecap:butt;stroke-linejoin:miter;stroke-opacity:1"
       d="M 319.3845,273.94361 C 322.3133,274.36201 327.50359,265.282 329.77098,262.25881 C 332.80109,258.21868 331.38092,250.83383 330.42014,246.02993 C 330.16201,244.73927 329.98737,243.4333 329.77098,242.13499 C 328.8003,236.31092 327.91562,231.46777 326.52521,225.90611 C 325.51137,221.85075 324.57774,220.37431 324.57774,216.16877 C 324.57774,212.64852 323.27943,210.59863 323.27943,207.0806 C 323.27943,204.40044 321.98112,201.83132 321.98112,198.64158 C 321.98112,195.74651 322.61311,192.86785 323.27943,190.20255 C 323.94772,187.52939 326.33081,186.08024 328.47267,185.00931 C 331.17214,183.65958 334.69785,184.87612 337.56085,186.30762 C 339.46461,187.2595 339.59645,192.50255 340.15747,194.74664 C 341.10391,198.53239 340.50936,202.64575 341.45578,206.43144 C 342.20868,209.44301 342.75409,211.84682 342.75409,216.16877 C 342.75409,220.75201 341.67454,224.83367 342.75409,229.15188 C 343.7381,233.08792 343.40325,238.77972 343.40325,242.78415 C 343.40325,246.17899 344.05241,250.17552 344.05241,253.81979 C 344.05241,258.70901 345.04167,261.85659 344.05241,266.8029 C 343.29276,270.60114 342.88554,274.97904 341.45578,277.83854 C 339.63178,281.48654 339.20129,281.39135 336.26254,284.3301 C 333.37458,287.21806 330.30308,289.12427 327.17436,291.47081 C 325.13817,292.99795 319.76738,293.48484 317.43703,294.06743 C 315.56284,294.53598 315.05661,294.33796 313.5421,294.71659"
       id="path4760"
       transform="translate(-4.149475e-6,698.0315)" />
    <g
       id="g4743"
       transform="matrix(0.9835315,0.1807369,-0.1807369,0.9835315,246.61675,-49.995749)">
      <rect
         transform="translate(-4.149475e-6,698.0315)"
         y="283.46457"
         x="155.90552"
         height="85.039368"
         width="106.29921"
         id="rect3941"
         style="fill:#4d4d4d;fill-rule:evenodd;stroke:#000000;stroke-width:1px;stroke-linecap:butt;stroke-linejoin:miter;stroke-opacity:1" />
      <rect
         transform="translate(-4.149475e-6,698.0315)"
         y="240.94487"
         x="177.16536"
         height="49.6063"
         width="63.779526"
         id="rect3943"
         style="fill:#4d4d4d;fill-rule:evenodd;stroke:#000000;stroke-width:1px;stroke-linecap:butt;stroke-linejoin:miter;stroke-opacity:1" />
      <g
         transform="translate(-9.7373322,-7.7898658)"
         id="g3955">
        <path
           style="fill:#ffff00;fill-rule:evenodd;stroke:#000000;stroke-width:1px;stroke-linecap:butt;stroke-linejoin:miter;stroke-opacity:1"
           d="M 187.60593,269.39952 C 183.56353,269.39952 195.36902,271.66487 199.29073,272.6453 C 204.03704,273.83188 209.69467,272.10143 214.22131,271.34699 C 219.15685,270.5244 223.64269,269.31622 228.50273,268.10121 C 229.79688,267.77767 229.15188,277.19094 229.15188,280.43517 C 229.15188,287.39475 230.10537,288.47353 223.30949,290.1725 C 217.47329,291.63155 212.60796,292.11997 206.43144,292.11997 C 201.64989,292.11997 196.02991,288.21601 192.79918,286.27757 C 191.96938,285.77969 191.0681,285.41203 190.20256,284.97925 C 187.15147,283.45371 187.60593,281.16509 187.60593,277.18939 C 187.60593,273.78512 186.0313,272.54879 187.60593,269.39952 z"
           id="path3947"
           transform="translate(-4.149475e-6,698.0315)" />
        <path
           style="fill:none;fill-rule:evenodd;stroke:#000000;stroke-width:1px;stroke-linecap:butt;stroke-linejoin:miter;stroke-opacity:1"
           d="M 188.90425,276.54023 C 188.90425,275.80569 197.65356,279.292 198.64158,279.78601 C 201.17972,281.05508 205.18991,280.93623 208.37891,281.73348 C 211.82506,282.59501 217.55454,281.8739 220.71286,281.08432 C 222.27972,280.69261 224.43722,280.1139 225.25695,279.78601"
           id="path3949"
           transform="translate(-4.149475e-6,698.0315)" />
        <path
           style="fill:none;fill-rule:evenodd;stroke:#000000;stroke-width:1px;stroke-linecap:butt;stroke-linejoin:miter;stroke-opacity:1"
           d="M 197.34327,271.34699 C 197.67709,271.26353 197.99242,278.23279 197.99242,281.08432 C 197.99242,281.7985 198.48755,284.05511 198.64158,284.97925"
           id="path3951"
           transform="translate(-4.149475e-6,698.0315)" />
        <path
           style="fill:none;fill-rule:evenodd;stroke:#000000;stroke-width:1px;stroke-linecap:butt;stroke-linejoin:miter;stroke-opacity:1"
           d="M 213.57215,273.94361 C 213.57215,276.55596 215.51962,281.65463 215.51962,285.62841 C 215.51962,286.27757 215.51962,286.92672 215.51962,287.57588"
           id="path3953"
           transform="translate(-4.149475e-6,698.0315)" />
      </g>
      <path
         transform="translate(-14.281425,684.39924)"
         d="M 206.43145,261.93423 A 9.4127541,10.06191 0 1 1 187.60594,261.93423 A 9.4127541,10.06191 0 1 1 206.43145,261.93423 z"
         sodipodi:ry="10.06191"
         sodipodi:rx="9.4127541"
         sodipodi:cy="261.93423"
         sodipodi:cx="197.01869"
         id="path3961"
         style="opacity:1;fill:#ffff00;fill-opacity:1;fill-rule:nonzero;stroke:#000000;stroke-width:4;stroke-linecap:butt;stroke-linejoin:miter;stroke-miterlimit:4;stroke-dasharray:none;stroke-dashoffset:0;stroke-opacity:1"
         sodipodi:type="arc" />
      <path
         transform="translate(13.30768,684.72382)"
         d="M 206.43145,261.93423 A 9.4127541,10.06191 0 1 1 187.60594,261.93423 A 9.4127541,10.06191 0 1 1 206.43145,261.93423 z"
         sodipodi:ry="10.06191"
         sodipodi:rx="9.4127541"
         sodipodi:cy="261.93423"
         sodipodi:cx="197.01869"
         id="path4733"
         style="opacity:1;fill:#ffff00;fill-opacity:1;fill-rule:nonzero;stroke:#000000;stroke-width:4;stroke-linecap:butt;stroke-linejoin:miter;stroke-miterlimit:4;stroke-dasharray:none;stroke-dashoffset:0;stroke-opacity:1"
         sodipodi:type="arc" />
      <text
         id="text4735"
         y="1014.1702"
         x="209.02805"
         style="font-size:12px;font-style:normal;font-weight:bold;text-align:center;writing-mode:lr-tb;text-anchor:middle;fill:#ffffff;fill-opacity:1;stroke:none;stroke-width:1px;stroke-linecap:butt;stroke-linejoin:miter;stroke-opacity:1;font-family:Sans;-inkscape-font-specification:Sans"
         xml:space="preserve"><tspan
           y="1014.1702"
           x="209.02805"
           id="tspan4737"
           sodipodi:role="line">Ontological</tspan><tspan
           id="tspan4739"
           y="1029.1702"
           x="209.02805"
           sodipodi:role="line">Naming</tspan><tspan
           id="tspan4741"
           y="1044.1702"
           x="209.02805"
           sodipodi:role="line">Algorithm</tspan></text>
    </g>
    <path
       style="fill:#b3b3b3;fill-rule:evenodd;stroke:#000000;stroke-width:1px;stroke-linecap:butt;stroke-linejoin:miter;stroke-opacity:1"
       d="M 92.722493,207.04102 C 92.811602,206.68458 90.567898,204.4274 89.96836,203.82786 C 89.200792,203.0603 88.600704,202.67796 87.673248,202.90982 C 86.69905,203.15337 87.961598,206.01114 88.132271,206.35249 C 88.800262,207.68847 89.073916,208.05347 89.279826,208.87711 C 89.376797,209.26499 87.765507,210.62094 87.443737,210.94271 C 86.348267,212.03818 86.219189,213.16376 86.066671,213.92635 C 85.890239,214.80851 87.209473,215.9872 87.673248,216.45098 C 88.788917,217.56664 90.219525,218.05755 91.804449,218.05755 C 93.244947,218.05755 95.022743,217.5975 96.16516,217.36902 C 97.25377,217.1513 98.151637,215.35879 98.460271,214.8444 C 98.943904,214.03834 99.169707,212.21526 99.378316,211.17222 C 99.627084,209.92838 99.378316,208.83804 99.378316,207.50004 C 99.378316,205.4976 98.322071,206.94971 97.771738,207.50004 C 97.080625,208.19116 96.730312,209.45951 96.16516,210.02466 C 95.490062,210.69976 93.898156,208.90522 93.411026,208.41809 C 93.048138,208.0552 92.952004,207.50004 92.722493,207.04102 z"
       id="path4764"
       transform="translate(-4.149475e-6,698.0315)" />
    <path
       style="fill:#cccccc;fill-rule:evenodd;stroke:#000000;stroke-width:1px;stroke-linecap:butt;stroke-linejoin:miter;stroke-opacity:1"
       d="M 320.03365,180.30293 C 320.19803,179.6939 321.18867,178.817 321.65654,178.19318 C 322.28192,177.35934 322.89902,176.9693 323.44172,176.24571 C 323.57943,176.0621 323.7663,175.92113 323.92859,175.75884 C 324.56183,175.1256 325.36873,174.5519 326.20063,174.13596 C 327.34421,173.56416 327.91901,172.97606 329.12183,172.67536 C 330.33173,172.37288 331.16661,173.27578 331.88074,173.81138 C 332.54634,174.31058 332.96279,176.02981 333.17905,176.89487 C 333.50991,178.21831 334.19497,179.90043 334.80194,181.11438 C 335.25168,182.01386 335.21727,183.26258 335.4511,184.19787 C 335.72017,185.27416 335.35601,186.52567 335.12652,187.44364 C 334.75366,188.93506 334.00285,189.34127 332.85447,190.20255 C 332.04243,190.81159 330.7811,191.014 329.77098,191.014 C 328.72194,191.014 327.68726,191.05166 326.6875,190.85171 C 325.83707,190.68162 324.84384,190.41675 324.09087,190.04027 C 323.21761,189.60363 322.06369,189.26185 321.16967,188.90424 C 320.5153,188.64249 321.53578,187.88898 321.81883,187.60593 C 322.41273,187.01203 322.95117,186.79633 323.60401,186.46991 C 324.48513,186.02935 325.29993,186.65046 325.87605,186.79449 C 326.94028,187.06055 328.16154,186.95678 329.28412,186.95678 C 330.28345,186.95678 329.84489,184.4935 329.77098,184.19787 C 329.56514,183.37447 328.35345,183.07181 328.1481,182.2504 C 327.83719,181.00679 327.98581,180.08403 327.98581,178.84233 C 327.98581,178.19093 328.1481,177.54627 328.1481,176.89487 C 328.1481,176.15908 327.04608,177.91991 326.36292,178.19318 C 325.88039,178.38619 324.9978,179.3626 324.41545,179.65378 C 323.55561,180.0837 322.94589,180.63289 322.14341,181.11438 C 321.28086,181.63191 321.04275,181.76353 320.19594,181.76353 C 319.35304,181.76353 319.71697,180.72518 320.03365,180.30293 z"
       id="path4766"
       transform="translate(-4.149475e-6,698.0315)" />
    <g
       id="g4778"
       transform="matrix(0.7116274,-0.7025571,0.7025571,0.7116274,-495.15416,478.82758)">
      <rect
         transform="translate(-4.149475e-6,698.0315)"
         y="160.01683"
         x="290.49707"
         height="5.5178218"
         width="51.932438"
         id="rect4768"
         style="fill:#ffff00;fill-rule:evenodd;stroke:#000000;stroke-width:1px;stroke-linecap:butt;stroke-linejoin:miter;stroke-opacity:1" />
      <rect
         transform="translate(-4.149475e-6,698.0315)"
         y="160.01683"
         x="342.5918"
         height="5.3555326"
         width="4.706377"
         id="rect4770"
         style="fill:#ff00ff;fill-rule:evenodd;stroke:#000000;stroke-width:1px;stroke-linecap:butt;stroke-linejoin:miter;stroke-opacity:1" />
      <rect
         transform="translate(-4.149475e-6,698.0315)"
         y="159.52995"
         x="336.42484"
         height="6.1669769"
         width="7.9521546"
         id="rect4772"
         style="fill:#00ff00;fill-rule:evenodd;stroke:#000000;stroke-width:1px;stroke-linecap:butt;stroke-linejoin:miter;stroke-opacity:1" />
      <path
         transform="translate(-4.149475e-6,698.0315)"
         id="path4774"
         d="M 290.49708,159.69225 C 289.92715,160.17317 288.32546,160.94035 287.2513,161.47742 C 286.27281,161.96667 285.40961,162.4413 284.16781,162.93802 C 283.22081,163.31683 282.40451,163.70343 281.57119,163.91176 C 281.39305,163.95629 283.13744,164.14103 283.51866,164.23634 C 284.55863,164.49633 285.69082,164.4548 286.76443,164.7232 C 287.75634,164.97118 288.99884,164.87608 289.68563,165.04778 C 290.43219,165.23442 291.32452,165.37236 292.28226,165.37236"
         style="fill:#c87137;fill-rule:evenodd;stroke:#000000;stroke-width:1px;stroke-linecap:butt;stroke-linejoin:miter;stroke-opacity:1" />
      <path
         id="path4776"
         d="M 282.05806,861.61868 C 282.35199,861.61868 284.45541,860.66344 285.14154,860.32037 C 286.31901,859.73164 286.43986,860.05727 286.43986,861.2941 C 286.43986,862.66619 286.05355,862.53641 284.97926,862.26784 C 283.90214,861.99856 283.21365,861.81128 282.05806,861.61868 z"
         style="fill:#483737;fill-rule:evenodd;stroke:#000000;stroke-width:1px;stroke-linecap:butt;stroke-linejoin:miter;stroke-opacity:1" />
    </g>
    <path
       sodipodi:type="arc"
       style="opacity:1;fill:#000000;fill-opacity:1;fill-rule:nonzero;stroke:#000000;stroke-width:4;stroke-linecap:butt;stroke-linejoin:miter;stroke-miterlimit:4;stroke-dasharray:none;stroke-dashoffset:0;stroke-opacity:1"
       id="path4785"
       sodipodi:cx="220.71286"
       sodipodi:cy="208.05434"
       sodipodi:rx="5.193244"
       sodipodi:ry="4.8686662"
       d="M 225.9061,208.05434 A 5.193244,4.8686662 0 1 1 215.51962,208.05434 A 5.193244,4.8686662 0 1 1 225.9061,208.05434 z"
       transform="translate(33.106925,704.52305)" />
    <path
       sodipodi:type="arc"
       style="opacity:1;fill:#000000;fill-opacity:1;fill-rule:nonzero;stroke:#000000;stroke-width:4;stroke-linecap:butt;stroke-linejoin:miter;stroke-miterlimit:4;stroke-dasharray:none;stroke-dashoffset:0;stroke-opacity:1"
       id="path4787"
       sodipodi:cx="220.71286"
       sodipodi:cy="208.05434"
       sodipodi:rx="5.193244"
       sodipodi:ry="4.8686662"
       d="M 225.9061,208.05434 A 5.193244,4.8686662 0 1 1 215.51962,208.05434 A 5.193244,4.8686662 0 1 1 225.9061,208.05434 z"
       transform="translate(63.617237,708.74256)" />
    <text
       xml:space="preserve"
       style="font-size:12px;font-style:normal;font-weight:bold;writing-mode:lr-tb;fill:#000000;fill-opacity:1;stroke:none;stroke-width:1px;stroke-linecap:butt;stroke-linejoin:miter;stroke-opacity:1;font-family:Sans;-inkscape-font-specification:Sans"
       x="349.89481"
       y="301.8573"
       id="text4815"
       transform="translate(-4.149475e-6,698.0315)"><tspan
         sodipodi:role="line"
         id="tspan4817"
         x="349.89481"
         y="301.8573">[Ernst et al.]</tspan></text>
  </g>
</svg>
