<?xml version="1.0" encoding="UTF-8" standalone="no"?>
<!-- Created with Inkscape (http://www.inkscape.org/) -->
<svg
   xmlns:dc="http://purl.org/dc/elements/1.1/"
   xmlns:cc="http://creativecommons.org/ns#"
   xmlns:rdf="http://www.w3.org/1999/02/22-rdf-syntax-ns#"
   xmlns:svg="http://www.w3.org/2000/svg"
   xmlns="http://www.w3.org/2000/svg"
   xmlns:sodipodi="http://sodipodi.sourceforge.net/DTD/sodipodi-0.dtd"
   xmlns:inkscape="http://www.inkscape.org/namespaces/inkscape"
   width="453.5433"
   height="340.15747"
   id="svg2"
   sodipodi:version="0.32"
   inkscape:version="0.46"
   sodipodi:docname="slide330-observation-topic-naming.svg"
   version="1.0"
   inkscape:output_extension="org.inkscape.output.svg.inkscape">
  <defs
     id="defs4">
    <inkscape:perspective
       sodipodi:type="inkscape:persp3d"
       inkscape:vp_x="0 : 170.07874 : 1"
       inkscape:vp_y="0 : 1000 : 0"
       inkscape:vp_z="453.5433 : 170.07874 : 1"
       inkscape:persp3d-origin="226.77165 : 113.38582 : 1"
       id="perspective7940" />
  </defs>
  <sodipodi:namedview
     id="base"
     pagecolor="#ffffff"
     bordercolor="#666666"
     borderopacity="1.0"
     gridtolerance="10000"
     guidetolerance="8.8"
     objecttolerance="10"
     inkscape:pageopacity="0.0"
     inkscape:pageshadow="2"
     inkscape:zoom="1.0892718"
     inkscape:cx="231.04058"
     inkscape:cy="196.2892"
     inkscape:document-units="mm"
     inkscape:current-layer="layer1"
     inkscape:window-width="1024"
     inkscape:window-height="768"
     inkscape:window-x="0"
     inkscape:window-y="0"
     width="12.8cm"
     height="9.6cm"
     units="cm"
     showgrid="false"
     grid_units="mm"
     inkscape:object-paths="false"
     inkscape:grid-points="true"
     inkscape:grid-bbox="true"
     inkscape:guide-points="true"
     showguides="true"
     inkscape:guide-bbox="true">
    <sodipodi:guide
       orientation="vertical"
       position="56.476527"
       id="guide3573" />
    <sodipodi:guide
       orientation="horizontal"
       position="11.035643"
       id="guide3579" />
    <sodipodi:guide
       orientation="horizontal"
       position="24.018753"
       id="guide3886" />
    <sodipodi:guide
       orientation="horizontal"
       position="285.62841"
       id="guide3988" />
    <sodipodi:guide
       orientation="horizontal"
       position="303.15561"
       id="guide4081" />
    <inkscape:grid
       id="GridFromPre046Settings"
       type="xygrid"
       originx="0px"
       originy="0px"
       spacingx="2mm"
       spacingy="2mm"
       color="#0000ff"
       empcolor="#0000ff"
       opacity="0.2"
       empopacity="0.4"
       empspacing="5" />
  </sodipodi:namedview>
  <metadata
     id="metadata7">
    <rdf:RDF>
      <cc:Work
         rdf:about="">
        <dc:format>image/svg+xml</dc:format>
        <dc:type
           rdf:resource="http://purl.org/dc/dcmitype/StillImage" />
      </cc:Work>
    </rdf:RDF>
  </metadata>
  <g
     inkscape:label="Layer 1"
     inkscape:groupmode="layer"
     id="layer1"
     transform="translate(4.149475e-6,-698.0315)">
    <path
       style="fill:none;fill-rule:evenodd;stroke:#000000;stroke-width:1px;stroke-linecap:butt;stroke-linejoin:miter;stroke-opacity:1"
       d="M 78.033782,147.36813 C 79.976331,137.65538 79.869871,127.16712 79.869871,117.07266 C 79.869871,109.03457 79.869871,105.49728 79.869871,98.711769 C 79.869871,90.890007 64.159676,98.341691 56.476527,96.87568 C 41.567527,96.627539 47.442089,41.221757 44.066136,28.022344 C 132.97943,15.002435 304.35214,3.2789387 410.36589,22.514077 C 423.93172,33.750956 430.29181,55.204492 424.13656,72.088479 C 421.73723,76.887136 416.84708,79.377954 413.12002,83.105013 C 408.18111,88.04392 402.2969,88.057553 395.67718,91.367413 C 391.3944,93.508802 383.96705,93.835923 379.15238,95.039591 C 372.92344,96.596825 366.32478,96.87568 359.87344,96.87568 C 353.77517,96.87568 346.38656,97.793725 339.67646,97.793725 C 330.49602,97.793725 321.31557,97.793725 312.13513,97.793725 C 302.18569,97.793725 289.47727,97.261389 280.00357,99.629814 C 270.13232,102.09763 257.28488,100.54786 246.95397,100.54786 C 238.46664,100.54786 229.9689,99.629814 221.24872,99.629814 C 213.49978,99.629814 205.56359,98.711769 197.37957,98.711769 C 190.03521,98.711769 182.69085,98.711769 175.3465,98.711769 C 169.2262,98.711769 163.1059,98.711769 156.98561,98.711769 C 147.67813,98.711769 138.78627,99.629814 129.44427,99.629814 C 121.73507,99.629814 113.52052,100.54786 105.57512,100.54786 C 97.959694,100.54786 94.665144,97.367481 92.722494,105.13808 C 91.396886,110.44051 87.593653,116.12409 85.378138,121.66288 C 83.313814,126.82369 82.112883,132.88781 80.787915,138.18768 C 76.812271,152.61336 72.303033,166.08429 78.033782,180.41773"
       id="path5643"
       transform="translate(-4.149475e-6,698.0315)"
       sodipodi:nodetypes="cssccccsssssssssssssssscc" />
    <g
       id="g2626"
       transform="matrix(0.4262158,0,0,0.4262158,182.68404,804.335)">
      <path
         id="path2429"
         d="M -315.16759,338.68941 C -315.28057,338.57643 -335.97342,362.00108 -338.4011,363.94322 C -355.37062,377.51884 -358.45748,395.42354 -371.73614,410.91532 C -384.01417,425.23969 -387.68177,444.62855 -396.98995,460.91787 C -401.25994,468.39035 -398.02188,479.48814 -401.53564,487.68691 C -404.84014,495.39741 -398.25352,506.8784 -394.46457,512.94072 C -393.82112,513.97024 -393.1177,514.96103 -392.44426,515.97118 C -388.02584,522.59882 -371.36589,523.5599 -364.66507,526.07271 C -359.38315,528.05343 -316.11116,532.13362 -308.6016,532.13362 C -285.13258,532.13362 -260.05771,538.69961 -235.87062,538.69961 C -211.36551,538.69961 -187.81752,533.64885 -163.64471,533.64885 C -152.24222,533.64885 -131.13846,531.28532 -121.72338,526.57778 C -113.9166,522.67439 -108.08632,507.91074 -108.08632,500.31382 C -108.08632,488.21611 -103.05944,476.96089 -105.56094,464.4534 C -108.10573,451.72945 -110.09715,438.03687 -116.67262,427.07776 C -121.82423,418.49173 -124.84143,408.77822 -130.81475,400.81379 C -134.64874,395.70181 -136.80999,389.26271 -141.92643,384.14627 C -146.65039,379.42231 -151.1344,373.21585 -155.05842,367.98383 C -155.92738,366.82521 -156.742,365.62681 -157.5838,364.4483 C -160.55493,360.28871 -167.87741,355.08659 -172.23101,351.82139 C -177.28474,348.03109 -180.72559,343.78603 -185.86807,341.21479 C -191.50754,338.39505 -197.24912,336.28188 -202.53559,333.63865 C -209.78429,330.0143 -220.14051,331.64259 -227.7894,329.09296 C -233.8404,327.07596 -244.29836,329.09296 -250.51783,329.09296 C -258.67194,329.09296 -266.09689,331.61834 -274.25642,331.61834 C -278.45534,331.61834 -282.56188,332.68455 -286.37825,333.63865 C -290.53865,334.67875 -295.65466,335.65895 -300.01531,335.65895 C -302.71875,335.65895 -305.99339,336.65254 -308.6016,337.17418 C -311.04171,337.6622 -312.47935,338.24137 -315.16759,338.68941 z"
         style="fill:#00ffff;fill-rule:evenodd;stroke:#000000;stroke-width:1px;stroke-linecap:butt;stroke-linejoin:miter;stroke-opacity:1" />
      <path
         id="path2454"
         d="M -126.26907,478.09046 C -126.53209,478.74802 -142.82924,474.04985 -145.46197,474.04985 C -150.24605,474.04985 -153.36964,471.66688 -154.55334,477.58538 C -155.29868,481.31209 -151.55036,484.95653 -149.50258,487.68691 C -147.75439,490.01783 -141.57584,489.70721 -138.89598,489.70721 C -137.41612,489.70721 -147.30374,500.31382 -155.56349,500.31382 C -159.50374,500.31382 -160.61425,505.62914 -160.61425,508.39504 C -160.61425,512.68491 -156.18535,514.17422 -153.03811,514.96103 C -148.51205,516.09254 -142.72332,512.07648 -139.40105,510.41534 C -135.79219,508.61091 -132.80075,506.34042 -136.87567,510.41534 C -138.37889,511.91856 -137.54295,517.95453 -137.88582,520.01179 C -138.43339,523.29723 -138.9023,526.56513 -137.38075,529.60824 C -135.5352,533.29933 -130.9432,531.2198 -128.79445,529.60824 C -124.47388,526.36781 -122.71746,524.47709 -121.72338,519.50671 C -120.97893,515.78445 -123.34206,514.15778 -121.72338,510.92042 C -119.245,505.96364 -117.35455,519.1275 -117.1777,520.01179 C -116.21136,524.84347 -106.7575,519.18804 -105.56094,517.99149 C -103.03935,515.46989 -102.30727,507.6081 -105.05586,504.8595 C -107.25669,502.65867 -104.1179,496.09279 -110.6117,491.22244 C -115.38972,487.63893 -119.4679,483.72915 -121.72338,478.09046 C -121.8632,477.74092 -122.39682,477.75374 -122.73353,477.58538"
         style="fill:#f4e3d7;fill-rule:evenodd;stroke:#000000;stroke-width:1px;stroke-linecap:butt;stroke-linejoin:miter;stroke-opacity:1" />
      <path
         id="path2431"
         d="M -283.34779,381.62089 C -287.93775,382.53888 -278.07136,389.4227 -274.76149,392.73257 C -270.68361,396.81045 -269.25614,401.68254 -264.65997,405.35948 C -261.76359,407.67658 -262.62454,411.92925 -258.59905,412.93562 C -254.84014,413.87535 -247.0757,406.46303 -244.45692,403.84425 C -239.92091,399.30824 -234.16538,394.33116 -230.31478,389.19704 C -227.29548,385.1713 -220.76627,381.52502 -223.24371,376.57013 C -225.47812,372.10132 -236.9074,367.98383 -241.93153,367.98383 C -247.80167,367.98383 -252.82051,364.4483 -258.59905,364.4483 C -261.92619,364.4483 -268.84002,368.09539 -271.22596,370.00414 C -271.88329,370.53 -272.57283,371.01429 -273.24626,371.51937 C -275.95865,373.55365 -278.86025,375.11304 -281.32748,377.58028 C -282.33619,378.58899 -282.86549,380.41513 -283.34779,381.62089 z"
         style="fill:#ffffff;fill-rule:evenodd;stroke:#000000;stroke-width:1px;stroke-linecap:butt;stroke-linejoin:miter;stroke-opacity:1" />
      <path
         id="path2383"
         d="M -322.85714,310.93361 C -331.16831,318.40421 -331.42857,335.36327 -331.42857,349.50504 C -331.42857,366.37929 -304.5709,373.9624 -294.28571,378.07647 C -275.15637,385.72821 -261.81078,389.50504 -238.57143,389.50504 C -210.13849,389.50504 -198.43802,381.53672 -177.14286,363.79075 C -165.15455,353.8005 -155.71429,324.3111 -155.71429,309.50504 C -155.71429,289.67396 -149.31382,272.30597 -158.57143,253.79075 C -159.9183,251.09701 -160.47619,248.07647 -161.42857,245.21933 C -166.6611,229.52174 -168.64093,220.79462 -175.71429,206.6479 C -181.22891,195.61864 -198.1914,188.51419 -210,183.79075 C -222.84559,178.65252 -246.16725,176.98762 -257.14286,185.21933 C -267.79135,193.2057 -276.71424,196.88591 -284.28571,209.50504 C -290.6269,220.07369 -295.14037,228.35721 -300,238.07647 C -303.55398,245.18443 -308.05633,254.58749 -310,262.36218 C -311.95609,270.18653 -315.15264,278.38174 -318.57143,285.21933 C -322.24245,292.56136 -322.85714,302.07322 -322.85714,310.93361 z"
         style="fill:#ffe6d5;fill-rule:evenodd;stroke:#000000;stroke-width:1px;stroke-linecap:butt;stroke-linejoin:miter;stroke-opacity:1" />
      <path
         sodipodi:nodetypes="cssc"
         id="path2385"
         d="M -257.82308,233.73717 C -262.04389,231.92226 -271.5009,234.9503 -269.17061,244.27147 C -267.56168,250.70719 -258.34554,245.77559 -256.11617,243.54623 C -252.77031,240.20036 -255.60008,236.51593 -257.82308,233.73717 z"
         style="fill:#000000;fill-rule:evenodd;stroke:#000000;stroke-width:0.50767261px;stroke-linecap:butt;stroke-linejoin:miter;stroke-opacity:1" />
      <path
         sodipodi:nodetypes="csssc"
         id="path2387"
         d="M -218.13885,234.37137 C -220.29523,235.74248 -223.43943,238.62726 -223.43943,242.51857 C -223.43943,246.86111 -215.94419,247.2302 -212.44562,247.2302 C -204.52929,247.2302 -206.70572,239.56417 -207.73398,235.45112 C -208.38141,232.86141 -214.78232,234.07689 -218.13885,234.37137 z"
         style="fill:#000000;fill-rule:evenodd;stroke:#000000;stroke-width:0.54969078px;stroke-linecap:butt;stroke-linejoin:miter;stroke-opacity:1" />
      <path
         id="path2389"
         d="M -260.35714,292.00504 C -258.943,288.40184 -254.88993,283.74246 -251.78571,279.86218 C -248.29443,275.49808 -245.19462,275.57647 -240,275.57647 C -229.6865,275.57647 -222.9131,275.36992 -214.64286,279.50504 C -211.27628,281.18833 -211.07143,286.63346 -211.07143,289.86218"
         style="fill:none;fill-rule:evenodd;stroke:#000000;stroke-width:1px;stroke-linecap:butt;stroke-linejoin:miter;stroke-opacity:1" />
      <path
         id="path2395"
         d="M -273.92857,312.00504 C -274.42268,312.20268 -267.72885,312.9135 -262.85714,314.86218 C -259.22324,316.31574 -251.50778,316.6479 -247.85714,316.6479 C -241.01373,316.6479 -234.51009,317.36218 -227.5,317.36218 C -222.29543,317.36218 -217.90533,315.93361 -212.85714,315.93361 C -210.34881,315.93361 -207.65546,315.32185 -205.35714,314.86218 C -200.36548,313.86385 -201.78864,317.7164 -198.92857,320.57647 C -196.53884,322.96619 -198.65041,329.49131 -200,331.29075 C -202.7401,334.94422 -206.39912,339.66889 -210.35714,341.6479 C -214.59543,343.76704 -217.30736,347.36218 -222.5,347.36218 C -228.94177,347.36218 -235.7087,348.79075 -242.5,348.79075 C -247.39927,348.79075 -252.73213,349.43718 -256.78571,347.00504 C -260.21956,344.94473 -263.14916,343.59641 -264.64285,339.86218 C -266.42231,335.41353 -268.98679,331.17432 -271.07143,327.00504 C -272.36441,324.41906 -272.19042,321.81477 -272.85714,319.1479 C -273.54111,316.41203 -274.49006,314.81251 -273.92857,312.00504 z"
         style="fill:#000000;fill-rule:evenodd;stroke:#000000;stroke-width:1px;stroke-linecap:butt;stroke-linejoin:miter;stroke-opacity:1" />
      <path
         id="path2397"
         d="M -267.14286,315.21933 C -267.145,315.21076 -268.92857,319.54326 -268.92857,323.43361 C -268.92857,325.93417 -267.18008,327.36218 -265,327.36218 C -262.07462,327.36218 -259.85201,328.49477 -258.21428,325.21933 C -257.29937,323.3895 -257.5,320.89402 -257.5,318.79075 C -257.5,316.90541 -258.8851,315.60907 -260.35714,314.50504 C -262.42258,312.95596 -265.33869,313.77599 -267.14286,315.21933 z"
         style="fill:#ffffff;fill-rule:evenodd;stroke:#000000;stroke-width:1px;stroke-linecap:butt;stroke-linejoin:miter;stroke-opacity:1" />
      <path
         id="path2399"
         d="M -256.4379,315.5424 C -256.44004,315.53383 -258.22361,319.86633 -258.22361,323.75668 C -258.22361,326.25724 -256.47512,327.68525 -254.29504,327.68525 C -251.36966,327.68525 -249.14705,328.81784 -247.50932,325.5424 C -246.59441,323.71257 -246.79504,321.21709 -246.79504,319.11382 C -246.79504,317.22848 -248.18014,315.93214 -249.65218,314.82811 C -251.71762,313.27903 -254.63373,314.09906 -256.4379,315.5424 z"
         style="fill:#ffffff;fill-rule:evenodd;stroke:#000000;stroke-width:1px;stroke-linecap:butt;stroke-linejoin:miter;stroke-opacity:1" />
      <path
         id="path2401"
         d="M -245.72361,315.89954 C -245.72575,315.89097 -247.50932,320.22347 -247.50932,324.11382 C -247.50932,326.61438 -245.76083,328.04239 -243.58075,328.04239 C -240.65537,328.04239 -238.43276,329.17498 -236.79503,325.89954 C -235.88012,324.06971 -236.08075,321.57423 -236.08075,319.47096 C -236.08075,317.58562 -237.46585,316.28928 -238.93789,315.18525 C -241.00333,313.63617 -243.91944,314.4562 -245.72361,315.89954 z"
         style="fill:#ffffff;fill-rule:evenodd;stroke:#000000;stroke-width:1px;stroke-linecap:butt;stroke-linejoin:miter;stroke-opacity:1" />
      <path
         id="path2403"
         d="M -234.29504,316.25669 C -234.29718,316.24812 -236.08075,320.58062 -236.08075,324.47097 C -236.08075,326.97153 -234.33226,328.39954 -232.15218,328.39954 C -229.2268,328.39954 -227.00419,329.53213 -225.36646,326.25669 C -224.45155,324.42686 -224.65218,321.93138 -224.65218,319.82811 C -224.65218,317.94277 -226.03728,316.64643 -227.50932,315.5424 C -229.57476,313.99332 -232.49087,314.81335 -234.29504,316.25669 z"
         style="fill:#ffffff;fill-rule:evenodd;stroke:#000000;stroke-width:1px;stroke-linecap:butt;stroke-linejoin:miter;stroke-opacity:1" />
      <path
         id="path2405"
         d="M -223.58076,315.5424 C -223.5829,315.53383 -225.36647,319.86633 -225.36647,323.75668 C -225.36647,326.25724 -223.61798,327.68525 -221.4379,327.68525 C -218.51252,327.68525 -216.28991,328.81784 -214.65218,325.5424 C -213.73727,323.71257 -213.9379,321.21709 -213.9379,319.11382 C -213.9379,317.22848 -215.323,315.93214 -216.79504,314.82811 C -218.86048,313.27903 -221.77659,314.09906 -223.58076,315.5424 z"
         style="fill:#ffffff;fill-rule:evenodd;stroke:#000000;stroke-width:1px;stroke-linecap:butt;stroke-linejoin:miter;stroke-opacity:1" />
      <path
         id="path2407"
         d="M -212.50933,315.18526 C -212.51147,315.17669 -214.29504,319.50919 -214.29504,323.39954 C -214.29504,325.9001 -212.54655,327.32811 -210.36647,327.32811 C -207.44109,327.32811 -205.21848,328.4607 -203.58075,325.18526 C -202.66584,323.35543 -202.86647,320.85995 -202.86647,318.75668 C -202.86647,316.87134 -204.25157,315.575 -205.72361,314.47097 C -207.78905,312.92189 -210.70516,313.74192 -212.50933,315.18526 z"
         style="fill:#ffffff;fill-rule:evenodd;stroke:#000000;stroke-width:1px;stroke-linecap:butt;stroke-linejoin:miter;stroke-opacity:1" />
      <path
         id="path2409"
         d="M -277.14286,307.00504 C -277.495,308.17049 -276.82914,311.47418 -276.42857,313.07647 C -275.80176,315.5837 -273.79373,316.78274 -272.14286,318.43361 C -270.0068,320.56967 -265.71041,320.64944 -263.21428,321.6479 C -260.40652,322.771 -256.80849,322.50048 -253.92857,323.07647 C -250.50008,323.76217 -244.94795,324.50504 -241.78571,324.50504 C -237.26658,324.50504 -233.12216,325.57647 -228.57143,325.57647 C -224.28571,325.57647 -220,325.57647 -215.71428,325.57647 C -212.2619,325.57647 -208.80952,325.57647 -205.35714,325.57647 C -202.0279,325.57647 -199.24005,323.34229 -197.85714,320.57647 C -196.17773,317.21764 -193.57143,315.18234 -193.57143,311.29075 C -193.57143,310.81456 -193.57143,310.33837 -193.57143,309.86218"
         style="fill:#ffe6d5;fill-rule:evenodd;stroke:#000000;stroke-width:1px;stroke-linecap:butt;stroke-linejoin:miter;stroke-opacity:1" />
      <path
         id="path2411"
         d="M -254.28572,345.21933 C -254.28572,344.74314 -254.28572,344.74314 -254.28572,345.21933 C -254.28572,347.73861 -252.41211,336.6479 -245.71429,336.6479 C -243.79349,336.6479 -241.76963,339.53721 -241.07143,340.93361 C -240.26476,342.54695 -234.14875,338.18656 -232.5,337.36218 C -228.22552,335.22494 -225.97149,341.39069 -223.92857,343.43361 C -223.39282,343.96937 -223.57143,345.99984 -223.57143,347.00504"
         style="fill:#ff0000;fill-rule:evenodd;stroke:#000000;stroke-width:1px;stroke-linecap:butt;stroke-linejoin:miter;stroke-opacity:1" />
      <path
         id="path2423"
         d="M -273.57143,204.50504 C -274.63329,205.92085 -274.10573,200.75645 -275.35714,199.50504 C -279.93179,194.93039 -281.4306,193.07647 -287.5,193.07647 C -297.33034,193.07647 -295.90813,204.84385 -305.71429,193.07647 C -310.8925,186.86261 -316.45668,194.11582 -319.28571,198.07647 C -320.81741,200.22084 -324.15048,195.57647 -326.78571,195.57647 C -330.48522,195.57647 -333.98594,207.32703 -335,209.86218 C -337.02528,214.92538 -329.69263,219.00665 -331.78571,220.57647 C -334.72837,222.78346 -334.28225,228.67748 -332.5,231.6479 C -330.41919,235.11591 -325.7275,233.12931 -326.78571,237.36218 C -327.87454,241.71747 -327.51902,247.71552 -322.14286,248.79075 C -316.85823,249.84768 -315.65006,252.00504 -309.28571,252.00504 C -302.28472,252.00504 -299.21032,248.75305 -293.57143,245.93361 C -288.5992,243.4475 -286.98437,239.34655 -283.21429,235.57647 C -279.51621,231.87839 -278.99382,225.77221 -277.5,221.29075 C -276.50402,218.30282 -276.85073,214.84616 -275.71429,212.00504 C -274.96055,210.12069 -274.8005,208.39175 -273.92857,206.6479 C -273.60473,206.00021 -273.69048,205.21932 -273.57143,204.50504 z"
         style="fill:#ffccaa;fill-rule:evenodd;stroke:#000000;stroke-width:1px;stroke-linecap:butt;stroke-linejoin:miter;stroke-opacity:1" />
      <path
         id="path2425"
         d="M -152.5,190.21932 C -150.79746,186.81425 -169.02585,187.74364 -171.78571,188.43361 C -176.57564,189.63109 -190,191.17518 -190,197.36218 C -190,201.07277 -190.90742,205.16107 -190,208.79075 C -188.52968,214.67205 -182.92755,215.07342 -185,221.29075 C -187.7622,229.57736 -187.86414,234.85519 -181.78571,240.93361 C -181.2467,241.47262 -180.83333,242.12409 -180.35714,242.71932 C -178.28163,245.31371 -171.55748,248.01201 -168.57143,249.50504 C -162.72296,252.42927 -156.05511,249.76066 -151.42857,246.29075 C -150.68474,245.73288 -150,245.10028 -149.28571,244.50504 C -147.07183,242.66013 -145.17572,248.79189 -142.5,249.86218 C -134.72152,252.97357 -130.1234,240.70639 -128.21429,235.93361 C -127.97619,235.33837 -127.7381,234.74313 -127.5,234.1479 C -125.21758,228.44184 -132.47236,224.52478 -135,222.71932 C -136.73292,221.48153 -130.98939,221.13993 -129.28571,219.86218 C -123.27828,215.35661 -129.82389,208.89642 -133.57143,206.6479 C -134.9896,205.79699 -136.42857,204.98123 -137.85714,204.1479 C -143.99756,200.56598 -144.34024,209.03378 -135,202.36218 C -129.18674,198.20985 -127.38378,195.09462 -130.35714,189.1479 C -131.83294,186.1963 -143.70076,184.86218 -146.78571,184.86218 C -148.06556,184.86218 -151.92705,189.26441 -152.5,190.21932 z"
         style="fill:#ffccaa;fill-rule:evenodd;stroke:#000000;stroke-width:1px;stroke-linecap:butt;stroke-linejoin:miter;stroke-opacity:1" />
      <path
         id="path2435"
         d="M -261.62951,410.41024 C -261.27723,409.00112 -264.95516,417.9979 -268.70058,424.55238 C -273.02739,432.1243 -276.67297,440.94783 -279.81226,448.79604 C -280.28845,449.98651 -280.82241,451.15306 -281.32748,452.33157 C -284.04196,458.66536 -285.87317,465.04478 -285.87317,472.02955 C -285.87317,477.06767 -285.58743,482.84543 -283.85287,487.18183 C -281.85732,492.17071 -280.70186,496.00923 -278.29703,500.81889 C -275.83491,505.74313 -270.85574,509.73046 -267.69042,513.95088 C -264.51215,518.18857 -260.70515,521.8439 -255.56859,517.99149 C -250.16455,513.93845 -245.80995,510.25315 -240.92138,505.36458 C -237.32019,501.76339 -236.47026,496.46234 -234.35539,492.2326 C -232.67939,488.88059 -233.34524,483.8527 -233.34524,480.11077 C -233.34524,474.18762 -233.26674,468.69026 -235.36554,463.44325 C -237.44154,458.25326 -235.46438,451.93623 -236.88077,446.27066 C -238.18148,441.06784 -239.91123,434.38741 -239.91123,429.09806 C -239.91123,422.89887 -247.24206,416.68757 -248.49753,410.41024"
         style="fill:#ff0000;fill-rule:evenodd;stroke:#000000;stroke-width:1px;stroke-linecap:butt;stroke-linejoin:miter;stroke-opacity:1" />
      <path
         id="path2433"
         d="M -248.49753,398.28841 C -250.72152,400.5124 -254.4437,395.76303 -257.5889,395.76303 C -262.56461,395.76303 -263.39643,400.05196 -264.15489,403.84425 C -264.75612,406.85038 -262.07979,409.45488 -260.11428,411.42039 C -258.78093,412.75374 -252.59349,411.92547 -250.51783,411.92547 C -247.7665,411.92547 -245.41939,405.67384 -244.96199,403.84425 C -244.15172,400.60318 -245.64579,399.4291 -248.49753,398.28841 z"
         style="fill:#ff0000;fill-rule:evenodd;stroke:#000000;stroke-width:1px;stroke-linecap:butt;stroke-linejoin:miter;stroke-opacity:1" />
      <g
         transform="matrix(0.7099249,0,0,0.9006873,50.309356,266.05002)"
         id="g2447">
        <path
           style="fill:#784421;fill-rule:evenodd;stroke:#000000;stroke-width:1px;stroke-linecap:butt;stroke-linejoin:miter;stroke-opacity:1"
           d="M -478.30723,174.53962 C -476.35416,173.56309 -471.91156,170.16425 -469.21586,167.46855 C -465.53542,163.78811 -461.13464,157.60923 -461.13464,166.96348 C -461.13464,172.45427 -461.13464,178.78676 -461.13464,184.64115 C -461.13464,192.20527 -464.67017,199.40413 -464.67017,207.36958 C -464.67017,212.61447 -467.38306,218.44494 -469.21586,223.02694 C -470.96684,227.40441 -471.74124,234.08955 -471.74124,239.18938 C -471.74124,240.53625 -471.74124,241.88312 -471.74124,243.22999 C -471.74124,246.05139 -473.24769,252.80889 -474.26662,254.84675 C -475.30639,256.92628 -474.7717,262.66284 -474.7717,264.94827 C -474.7717,267.58361 -476.16001,272.01677 -476.792,274.54472 C -477.59273,277.74762 -476.36509,281.53763 -479.31738,278.58533 C -480.60454,277.29817 -480.36378,272.37944 -480.83261,270.50411 C -481.56911,267.55812 -482.27989,265.28801 -482.85292,262.42289 C -483.28112,260.28188 -483.75898,256.8824 -484.36815,253.8366 C -484.98584,250.74815 -484.87322,247.40166 -484.87322,244.24015 C -484.87322,241.87804 -483.95387,238.54245 -483.35799,236.15893 C -482.65112,233.33142 -482.85292,230.14605 -482.85292,227.06755 C -482.85292,223.72152 -483.86307,220.52713 -483.86307,216.96603 C -483.86307,212.71987 -484.69072,208.47739 -483.86307,204.33912 C -483.02492,200.14837 -482.79854,193.62376 -480.83261,189.69191 C -479.89203,187.81074 -480.83261,182.76609 -480.83261,180.60054 C -480.83261,179.72688 -478.6122,175.30205 -478.30723,174.53962 z"
           id="path2443" />
        <path
           style="fill:#ff7f2a;fill-rule:evenodd;stroke:#000000;stroke-width:1px;stroke-linecap:butt;stroke-linejoin:miter;stroke-opacity:1"
           d="M -496.99505,163.93302 C -492.05806,163.55435 -485.25922,169.83954 -479.82246,172.01424 C -478.98067,172.35096 -478.13887,172.68767 -477.29708,173.02439 C -474.24281,174.2461 -475.78185,184.77315 -475.78185,187.16653 C -475.78185,194.40227 -476.792,200.40901 -476.792,207.36958 C -476.792,214.36533 -479.31738,220.95067 -479.31738,228.07771 C -479.31738,232.52871 -480.32754,237.70576 -480.32754,242.72492 C -480.32754,247.19497 -480.33634,251.78109 -479.31738,255.8569 C -478.59168,258.7597 -479.31738,262.91735 -479.31738,265.95843 C -479.31738,269.03148 -478.30723,271.74237 -478.30723,275.0498 C -478.30723,279.35496 -477.22441,280.96537 -477.80215,282.12087 C -479.424,285.36456 -480.69595,275.4598 -481.84276,272.01934 C -485.25405,261.7855 -483.89797,249.70874 -487.90368,239.69446 C -490.0129,234.4214 -489.67761,229.5806 -492.44937,224.03709 C -495.83949,217.25684 -496.27768,209.163 -499.01536,202.31882 C -500.70806,198.08706 -500.6045,193.07962 -502.55089,189.18683 C -503.91461,186.4594 -503.32255,182.56466 -504.06612,179.59038 C -504.7517,176.84807 -504.06612,172.88598 -504.06612,169.99393 C -504.06612,166.2625 -503.28284,164.55153 -500.02551,162.92287 C -499.07313,162.44668 -498.00521,163.5963 -496.99505,163.93302 z"
           id="path2441" />
        <path
           style="fill:#ffd42a;fill-rule:evenodd;stroke:#000000;stroke-width:1px;stroke-linecap:butt;stroke-linejoin:miter;stroke-opacity:1"
           d="M -488.91384,152.31626 C -488.91384,152.15607 -491.97359,156.54476 -498.51028,160.90256 C -501.36899,162.80836 -504.43063,164.24034 -505.07628,167.46855 C -506.01123,172.14334 -494.25604,173.37404 -491.94429,174.03454 C -488.05528,175.14569 -484.39194,176.05485 -480.32754,176.05485 C -476.57357,176.05485 -474.8639,173.07049 -471.74124,171.50916 C -468.67171,169.97439 -466.13235,167.44202 -463.15495,165.95332 C -461.6491,165.2004 -459.7375,165.54499 -458.10418,165.95332 C -455.10136,166.70403 -462.19398,161.24447 -464.67017,159.38733 C -467.70713,157.10961 -470.01187,155.63441 -473.25647,154.33657 C -475.81042,153.31499 -479.05032,153.51945 -481.84277,152.82134 C -484.76713,152.09025 -488.41841,152.41535 -491.43922,151.81119"
           id="path2445" />
      </g>
      <path
         id="path2437"
         d="M -344.21516,363.01975 C -350.22892,359.03375 -355.49817,361.95165 -362.56484,365.54986 C -371.17208,369.93249 -380.07476,377.52547 -386.70594,384.25441 C -393.65561,391.30652 -399.19061,399.59252 -406.51254,405.96199 C -412.91818,411.53435 -415.53815,422.28244 -418.15382,430.32512 C -420.30101,436.92733 -414.12184,440.6307 -410.69942,444.96513 C -405.1138,452.03924 -392.67943,452.21821 -386.63702,459.16419 C -382.72377,463.66261 -368.93321,465.98411 -362.93378,467.93527 C -356.60519,469.99347 -350.36586,471.49153 -344.04536,473.5471 C -338.18543,475.45289 -331.81421,475.4005 -325.64893,477.40559 C -319.86639,479.28621 -312.49299,478.03368 -307.77956,474.71927 C -302.51829,471.01961 -301.78148,466.07477 -299.899,460.2865 C -298.75678,456.77439 -298.53372,451.16133 -299.82459,448.62615 C -304.04624,440.33505 -320.77768,436.72373 -327.74118,431.58028 C -331.62224,428.71361 -336.584,428.25707 -339.92859,424.96106 C -343.65699,421.28684 -343.53581,413.12121 -344.20038,408.70053 C -345.15143,402.3741 -340.47702,395.61885 -338.43232,389.3318 C -336.8566,384.48676 -334.25565,378.71747 -333.91395,373.80557 C -333.66408,370.21387 -337.85029,367.3894 -339.72445,365.54246 C -341.48293,363.80953 -341.23223,363.98987 -344.21516,363.01975 z"
         style="fill:#ffffff;fill-rule:evenodd;stroke:#000000;stroke-width:1px;stroke-linecap:butt;stroke-linejoin:miter;stroke-opacity:1" />
      <path
         id="path2439"
         d="M -304.56099,446.77573 C -299.856,446.71679 -287.81643,440.10273 -279.30718,442.23004 C -273.89294,443.5836 -273.24626,449.60176 -273.24626,454.35188 C -273.24626,458.05757 -275.86119,460.9716 -278.29703,462.4331 C -281.97766,464.64148 -273.85206,471.22083 -275.77165,475.06 C -277.57058,478.65787 -281.83256,476.33615 -281.83256,481.62599 C -281.83256,485.88988 -282.59977,488.82813 -286.37825,490.71737 C -289.79046,492.42348 -295.21958,491.72752 -299.00515,491.72752 C -301.77437,491.72752 -307.47679,487.64663 -310.11683,485.6666 C -313.78239,482.91744 -313.96997,478.4836 -317.1879,476.07016 C -317.8527,475.57156 -317.1879,469.05578 -317.1879,467.98893 C -317.1879,465.27768 -315.20713,460.97058 -313.65237,458.89756 C -311.83435,456.47354 -311.00115,453.3423 -309.10668,450.81634 C -307.66065,448.8883 -306.80485,448.12205 -304.56099,446.77573 z"
         style="fill:#ffe6d5;fill-rule:evenodd;stroke:#000000;stroke-width:1px;stroke-linecap:butt;stroke-linejoin:miter;stroke-opacity:1" />
      <path
         id="path2452"
         d="M -163.64471,357.88231 C -164.39651,361.8983 -168.1904,367.17972 -168.1904,373.0346 C -168.1904,379.16503 -164.02983,383.37604 -161.62441,388.18688 C -161.28769,388.86032 -160.95097,389.53375 -160.61425,390.20719 C -157.5263,396.38309 -150.2413,400.92945 -146.9772,406.36963 C -142.18209,414.36148 -141.05154,422.30663 -136.37059,430.10821 C -132.88687,435.91441 -133.84521,445.97406 -133.84521,452.83665 C -133.84521,458.14567 -132.83506,464.3277 -132.83506,470.00924 C -132.83506,474.47237 -133.54038,479.44031 -131.31983,483.14122 C -128.90402,487.16757 -129.64351,493.74782 -123.74369,493.74782 C -117.00934,493.74782 -110.27499,493.74782 -103.54064,493.74782 C -97.653718,493.74782 -93.024268,489.3826 -90.408653,484.15138 C -86.464147,476.26236 -82.327432,467.87848 -82.327432,458.89756 C -82.327432,447.63898 -81.572878,439.69854 -86.368043,430.10821 C -87.041478,428.76134 -87.714913,427.41447 -88.388348,426.0676 C -92.96153,416.92124 -96.545364,408.74342 -101.01525,399.80364 C -105.00002,391.8341 -110.05625,383.1865 -116.67262,376.57013 C -117.34605,375.89669 -118.01949,375.22326 -118.69292,374.54982 C -122.87332,370.36943 -127.481,367.07488 -132.32998,363.43815 C -136.50076,360.31006 -140.38903,354.85628 -145.46197,353.8417 C -154.1687,352.10035 -161.42807,352.3407 -164.65486,360.40769 C -164.88031,360.9713 -165.3283,361.41784 -165.66502,361.92292"
         style="fill:#ffffff;fill-rule:evenodd;stroke:#000000;stroke-width:1px;stroke-linecap:butt;stroke-linejoin:miter;stroke-opacity:1" />
    </g>
    <text
       xml:space="preserve"
       style="font-size:24px;font-style:normal;font-weight:bold;writing-mode:lr-tb;fill:#000000;fill-opacity:1;stroke:none;stroke-width:1px;stroke-linecap:butt;stroke-linejoin:miter;stroke-opacity:1;font-family:Sans;-inkscape-font-specification:Sans"
       x="57.774837"
       y="54.52906"
       id="text7970"
       transform="translate(-4.149475e-6,698.0315)"><tspan
         sodipodi:role="line"
         x="57.774837"
         y="54.52906"
         id="tspan7974">We can name topics based</tspan><tspan
         sodipodi:role="line"
         x="57.774837"
         y="84.52906"
         id="tspan7978">on certain kinds of words</tspan></text>
    <g
       id="g8578"
       transform="translate(197.34327,-2.5966225)">
      <g
         inkscape:transform-center-y="-9.4055005"
         inkscape:transform-center-x="-17.230859"
         transform="matrix(0.6869423,-0.726712,0.726712,0.6869423,-606.64287,330.73117)"
         id="g8554">
        <path
           style="fill:#999999;fill-rule:evenodd;stroke:#000000;stroke-width:1px;stroke-linecap:butt;stroke-linejoin:miter;stroke-opacity:1"
           d="M 173.97367,202.53651 C 177.0869,202.75366 184.66943,201.96467 189.5534,203.18566 C 193.49762,204.17172 196.62765,202.15319 195.3958,207.0806 C 194.64024,210.10285 191.50745,209.67722 188.25509,209.67722 C 185.03913,209.67722 181.81734,209.02806 177.8686,209.02806 C 172.35413,209.02806 175.01509,207.74359 173.97367,202.53651 z"
           id="path8556"
           transform="translate(-4.149475e-6,698.0315)" />
        <path
           style="fill:#999999;fill-rule:evenodd;stroke:#000000;stroke-width:1px;stroke-linecap:butt;stroke-linejoin:miter;stroke-opacity:1"
           d="M 194.74664,203.18566 C 188.10353,203.18566 204.52384,206.69908 209.67722,207.72975 C 214.75966,208.74624 217.1526,210.3062 215.51962,213.57215 C 213.43903,217.73333 210.8422,215.77753 207.72975,214.22131 C 204.30762,212.51024 201.65915,211.89221 197.99242,210.97553 C 194.55945,210.11729 192.58383,210.53862 193.44833,207.0806 C 193.52255,206.78372 193.8811,206.64783 194.09749,206.43144 C 194.87768,205.65125 194.53026,204.26759 194.74664,203.18566 z"
           id="path8558"
           transform="translate(-4.149475e-6,698.0315)" />
        <path
           style="fill:#999999;fill-rule:evenodd;stroke:#000000;stroke-width:1px;stroke-linecap:butt;stroke-linejoin:miter;stroke-opacity:1"
           d="M 216.16878,212.27384 C 218.28717,210.15545 219.05894,220.837 218.7654,222.01117 C 217.64553,226.49064 216.16878,225.41881 216.16878,221.36202 C 216.16878,216.67139 214.47406,217.358 216.16878,212.27384 z"
           id="path8560"
           transform="translate(-4.149475e-6,698.0315)" />
      </g>
      <g
         inkscape:transform-center-y="-2.5626269"
         inkscape:transform-center-x="-18.664832"
         transform="matrix(0.9361058,-0.3517186,0.3517186,0.9361058,-277.10532,65.337672)"
         id="g8562">
        <path
           style="fill:#999999;fill-rule:evenodd;stroke:#000000;stroke-width:1px;stroke-linecap:butt;stroke-linejoin:miter;stroke-opacity:1"
           d="M 173.97367,202.53651 C 177.0869,202.75366 184.66943,201.96467 189.5534,203.18566 C 193.49762,204.17172 196.62765,202.15319 195.3958,207.0806 C 194.64024,210.10285 191.50745,209.67722 188.25509,209.67722 C 185.03913,209.67722 181.81734,209.02806 177.8686,209.02806 C 172.35413,209.02806 175.01509,207.74359 173.97367,202.53651 z"
           id="path8564"
           transform="translate(-4.149475e-6,698.0315)" />
        <path
           style="fill:#999999;fill-rule:evenodd;stroke:#000000;stroke-width:1px;stroke-linecap:butt;stroke-linejoin:miter;stroke-opacity:1"
           d="M 194.74664,203.18566 C 188.10353,203.18566 204.52384,206.69908 209.67722,207.72975 C 214.75966,208.74624 217.1526,210.3062 215.51962,213.57215 C 213.43903,217.73333 210.8422,215.77753 207.72975,214.22131 C 204.30762,212.51024 201.65915,211.89221 197.99242,210.97553 C 194.55945,210.11729 192.58383,210.53862 193.44833,207.0806 C 193.52255,206.78372 193.8811,206.64783 194.09749,206.43144 C 194.87768,205.65125 194.53026,204.26759 194.74664,203.18566 z"
           id="path8566"
           transform="translate(-4.149475e-6,698.0315)" />
        <path
           style="fill:#999999;fill-rule:evenodd;stroke:#000000;stroke-width:1px;stroke-linecap:butt;stroke-linejoin:miter;stroke-opacity:1"
           d="M 216.16878,212.27384 C 218.28717,210.15545 219.05894,220.837 218.7654,222.01117 C 217.64553,226.49064 216.16878,225.41881 216.16878,221.36202 C 216.16878,216.67139 214.47406,217.358 216.16878,212.27384 z"
           id="path8568"
           transform="translate(-4.149475e-6,698.0315)" />
      </g>
      <path
         id="path8517"
         d="M 168.43702,816.64349 C 166.88119,817.44619 159.57768,816.79692 156.54624,817.66505 C 152.78577,818.74198 148.27559,818.35046 145.23236,818.38898 C 142.16877,818.42778 137.90055,819.35282 134.79303,819.39216 C 130.19104,819.45044 123.70639,821.19482 119.44085,822.19957 C 115.42387,823.14575 111.44109,824.13549 107.58684,826.12401 C 101.53481,829.24642 102.07269,830.18243 103.65879,836.91612 C 104.43193,840.19839 109.6593,841.72336 111.5664,842.33234 C 115.40798,843.55905 119.59079,845.85844 122.65616,846.83728 C 126.56397,848.08514 128.31443,849.24056 132.27608,849.90915 C 135.89236,850.51947 141.12862,853.13695 144.51964,853.81881 C 148.67766,854.6549 152.69795,856.51571 156.46554,857.15157 C 161.05451,857.92603 165.26411,860.08481 169.28599,860.76359 C 173.90771,861.54357 178.7842,862.83286 182.68335,864.07795 C 186.62815,865.33762 192.10214,862.17519 195.13265,861.3073 C 198.46377,860.35335 200.77861,857.81014 203.19087,855.68893 C 205.70607,853.47718 207.15025,852.23691 208.92312,849.80966 C 210.13391,848.15194 212.0115,847.05791 213.2223,845.4002"
         style="fill:#ffff00;fill-rule:evenodd;stroke:#000000;stroke-width:1px;stroke-linecap:butt;stroke-linejoin:miter;stroke-opacity:1" />
      <g
         inkscape:transform-center-y="-5.3357144"
         inkscape:transform-center-x="-18.530437"
         transform="matrix(0.8626047,-0.5058784,0.5058784,0.8626047,-418.58914,137.91099)"
         id="g8570">
        <path
           style="fill:#999999;fill-rule:evenodd;stroke:#000000;stroke-width:1px;stroke-linecap:butt;stroke-linejoin:miter;stroke-opacity:1"
           d="M 173.97367,202.53651 C 177.0869,202.75366 184.66943,201.96467 189.5534,203.18566 C 193.49762,204.17172 196.62765,202.15319 195.3958,207.0806 C 194.64024,210.10285 191.50745,209.67722 188.25509,209.67722 C 185.03913,209.67722 181.81734,209.02806 177.8686,209.02806 C 172.35413,209.02806 175.01509,207.74359 173.97367,202.53651 z"
           id="path8572"
           transform="translate(-4.149475e-6,698.0315)" />
        <path
           style="fill:#999999;fill-rule:evenodd;stroke:#000000;stroke-width:1px;stroke-linecap:butt;stroke-linejoin:miter;stroke-opacity:1"
           d="M 194.74664,203.18566 C 188.10353,203.18566 204.52384,206.69908 209.67722,207.72975 C 214.75966,208.74624 217.1526,210.3062 215.51962,213.57215 C 213.43903,217.73333 210.8422,215.77753 207.72975,214.22131 C 204.30762,212.51024 201.65915,211.89221 197.99242,210.97553 C 194.55945,210.11729 192.58383,210.53862 193.44833,207.0806 C 193.52255,206.78372 193.8811,206.64783 194.09749,206.43144 C 194.87768,205.65125 194.53026,204.26759 194.74664,203.18566 z"
           id="path8574"
           transform="translate(-4.149475e-6,698.0315)" />
        <path
           style="fill:#999999;fill-rule:evenodd;stroke:#000000;stroke-width:1px;stroke-linecap:butt;stroke-linejoin:miter;stroke-opacity:1"
           d="M 216.16878,212.27384 C 218.28717,210.15545 219.05894,220.837 218.7654,222.01117 C 217.64553,226.49064 216.16878,225.41881 216.16878,221.36202 C 216.16878,216.67139 214.47406,217.358 216.16878,212.27384 z"
           id="path8576"
           transform="translate(-4.149475e-6,698.0315)" />
      </g>
      <path
         transform="translate(-4.149475e-6,698.0315)"
         id="path7986"
         d="M 141.51589,123.9887 C 140.65074,123.9887 145.53905,129.95932 150.60407,135.02434 C 153.90536,138.32563 157.85424,141.27341 161.63971,144.11252 C 165.56522,147.05664 171.28276,150.3067 175.27198,151.90238 C 179.7293,153.68531 182.9919,156.4115 186.95678,158.39394 C 191.13652,160.4838 196.21582,162.49387 200.58904,163.58718 C 205.60334,164.84075 209.43866,165.53465 214.87046,165.53465 C 218.65441,165.53465 222.698,163.54951 224.6078,161.63971 C 227.88179,158.36572 227.11532,154.60083 225.25695,149.95491 C 223.89685,146.55466 221.69866,143.15084 219.41455,140.86674 C 216.18901,137.6412 211.72742,135.12707 209.02806,132.42772 C 205.54514,128.94479 202.64977,127.2911 198.64158,125.28701 C 194.55908,123.24576 191.66376,121.0136 186.95678,119.44461 C 182.67806,118.01837 178.25868,117.91924 173.97367,116.84799 C 169.39215,115.70261 163.6226,115.70311 159.04309,116.84799 C 154.79476,117.91007 150.59307,117.66218 146.05998,118.79545 C 142.27789,119.74097 141.51589,120.23587 141.51589,123.9887 z"
         style="fill:#800080;fill-rule:evenodd;stroke:#000000;stroke-width:1px;stroke-linecap:butt;stroke-linejoin:miter;stroke-opacity:1" />
      <g
         inkscape:transform-center-y="7.7898658"
         inkscape:transform-center-x="17.527198"
         transform="matrix(-1,0,0,1,318.44073,-53.360012)"
         id="g8530">
        <path
           style="fill:#999999;fill-rule:evenodd;stroke:#000000;stroke-width:1px;stroke-linecap:butt;stroke-linejoin:miter;stroke-opacity:1"
           d="M 173.97367,202.53651 C 177.0869,202.75366 184.66943,201.96467 189.5534,203.18566 C 193.49762,204.17172 196.62765,202.15319 195.3958,207.0806 C 194.64024,210.10285 191.50745,209.67722 188.25509,209.67722 C 185.03913,209.67722 181.81734,209.02806 177.8686,209.02806 C 172.35413,209.02806 175.01509,207.74359 173.97367,202.53651 z"
           id="path8532"
           transform="translate(-4.149475e-6,698.0315)" />
        <path
           style="fill:#999999;fill-rule:evenodd;stroke:#000000;stroke-width:1px;stroke-linecap:butt;stroke-linejoin:miter;stroke-opacity:1"
           d="M 194.74664,203.18566 C 188.10353,203.18566 204.52384,206.69908 209.67722,207.72975 C 214.75966,208.74624 217.1526,210.3062 215.51962,213.57215 C 213.43903,217.73333 210.8422,215.77753 207.72975,214.22131 C 204.30762,212.51024 201.65915,211.89221 197.99242,210.97553 C 194.55945,210.11729 192.58383,210.53862 193.44833,207.0806 C 193.52255,206.78372 193.8811,206.64783 194.09749,206.43144 C 194.87768,205.65125 194.53026,204.26759 194.74664,203.18566 z"
           id="path8534"
           transform="translate(-4.149475e-6,698.0315)" />
        <path
           style="fill:#999999;fill-rule:evenodd;stroke:#000000;stroke-width:1px;stroke-linecap:butt;stroke-linejoin:miter;stroke-opacity:1"
           d="M 216.16878,212.27384 C 218.28717,210.15545 219.05894,220.837 218.7654,222.01117 C 217.64553,226.49064 216.16878,225.41881 216.16878,221.36202 C 216.16878,216.67139 214.47406,217.358 216.16878,212.27384 z"
           id="path8536"
           transform="translate(-4.149475e-6,698.0315)" />
      </g>
      <g
         inkscape:transform-center-y="14.378831"
         inkscape:transform-center-x="13.34779"
         transform="matrix(-0.8986487,0.438669,0.438669,0.8986487,-50.129921,-23.331923)"
         id="g8546">
        <path
           style="fill:#999999;fill-rule:evenodd;stroke:#000000;stroke-width:1px;stroke-linecap:butt;stroke-linejoin:miter;stroke-opacity:1"
           d="M 173.97367,202.53651 C 177.0869,202.75366 184.66943,201.96467 189.5534,203.18566 C 193.49762,204.17172 196.62765,202.15319 195.3958,207.0806 C 194.64024,210.10285 191.50745,209.67722 188.25509,209.67722 C 185.03913,209.67722 181.81734,209.02806 177.8686,209.02806 C 172.35413,209.02806 175.01509,207.74359 173.97367,202.53651 z"
           id="path8548"
           transform="translate(-4.149475e-6,698.0315)" />
        <path
           style="fill:#999999;fill-rule:evenodd;stroke:#000000;stroke-width:1px;stroke-linecap:butt;stroke-linejoin:miter;stroke-opacity:1"
           d="M 194.74664,203.18566 C 188.10353,203.18566 204.52384,206.69908 209.67722,207.72975 C 214.75966,208.74624 217.1526,210.3062 215.51962,213.57215 C 213.43903,217.73333 210.8422,215.77753 207.72975,214.22131 C 204.30762,212.51024 201.65915,211.89221 197.99242,210.97553 C 194.55945,210.11729 192.58383,210.53862 193.44833,207.0806 C 193.52255,206.78372 193.8811,206.64783 194.09749,206.43144 C 194.87768,205.65125 194.53026,204.26759 194.74664,203.18566 z"
           id="path8550"
           transform="translate(-4.149475e-6,698.0315)" />
        <path
           style="fill:#999999;fill-rule:evenodd;stroke:#000000;stroke-width:1px;stroke-linecap:butt;stroke-linejoin:miter;stroke-opacity:1"
           d="M 216.16878,212.27384 C 218.28717,210.15545 219.05894,220.837 218.7654,222.01117 C 217.64553,226.49064 216.16878,225.41881 216.16878,221.36202 C 216.16878,216.67139 214.47406,217.358 216.16878,212.27384 z"
           id="path8552"
           transform="translate(-4.149475e-6,698.0315)" />
      </g>
      <g
         inkscape:transform-center-y="12.183259"
         inkscape:transform-center-x="15.156059"
         transform="matrix(-0.9601876,0.279356,0.279356,0.9601876,81.517931,-56.954435)"
         id="g8538">
        <path
           style="fill:#999999;fill-rule:evenodd;stroke:#000000;stroke-width:1px;stroke-linecap:butt;stroke-linejoin:miter;stroke-opacity:1"
           d="M 173.97367,202.53651 C 177.0869,202.75366 184.66943,201.96467 189.5534,203.18566 C 193.49762,204.17172 196.62765,202.15319 195.3958,207.0806 C 194.64024,210.10285 191.50745,209.67722 188.25509,209.67722 C 185.03913,209.67722 181.81734,209.02806 177.8686,209.02806 C 172.35413,209.02806 175.01509,207.74359 173.97367,202.53651 z"
           id="path8540"
           transform="translate(-4.149475e-6,698.0315)" />
        <path
           style="fill:#999999;fill-rule:evenodd;stroke:#000000;stroke-width:1px;stroke-linecap:butt;stroke-linejoin:miter;stroke-opacity:1"
           d="M 194.74664,203.18566 C 188.10353,203.18566 204.52384,206.69908 209.67722,207.72975 C 214.75966,208.74624 217.1526,210.3062 215.51962,213.57215 C 213.43903,217.73333 210.8422,215.77753 207.72975,214.22131 C 204.30762,212.51024 201.65915,211.89221 197.99242,210.97553 C 194.55945,210.11729 192.58383,210.53862 193.44833,207.0806 C 193.52255,206.78372 193.8811,206.64783 194.09749,206.43144 C 194.87768,205.65125 194.53026,204.26759 194.74664,203.18566 z"
           id="path8542"
           transform="translate(-4.149475e-6,698.0315)" />
        <path
           style="fill:#999999;fill-rule:evenodd;stroke:#000000;stroke-width:1px;stroke-linecap:butt;stroke-linejoin:miter;stroke-opacity:1"
           d="M 216.16878,212.27384 C 218.28717,210.15545 219.05894,220.837 218.7654,222.01117 C 217.64553,226.49064 216.16878,225.41881 216.16878,221.36202 C 216.16878,216.67139 214.47406,217.358 216.16878,212.27384 z"
           id="path8544"
           transform="translate(-4.149475e-6,698.0315)" />
      </g>
      <path
         transform="translate(-4.149475e-6,698.0315)"
         id="path7984"
         d="M 151.25323,125.93616 C 151.25323,124.28671 140.62528,126.48339 137.62096,127.23447 C 131.99515,128.64093 134.00377,136.13529 135.02434,140.21758 C 136.48485,146.05962 142.5139,152.90038 146.70914,157.09563 C 153.10713,163.49361 164.58081,167.38055 172.67536,170.07873 C 180.9402,172.83368 189.99551,173.97367 198.64158,173.97367 C 205.53046,173.97367 209.76485,171.00865 215.51962,168.13127 C 220.92573,165.42821 219.31452,162.36336 217.46709,157.74478 C 216.2886,154.79858 212.52599,151.60462 210.32638,149.95491 C 206.77134,147.28863 204.43937,144.21558 199.93989,141.51589 C 195.24086,138.69648 192.95207,136.80638 187.60593,135.02434 C 182.23896,133.23535 177.12462,130.43284 172.0262,127.88363 C 167.62811,125.68458 163.2884,125.28701 158.39394,125.28701 C 154.90178,125.28701 154.69669,125.24747 151.25323,125.93616 z"
         style="fill:#ff00ff;fill-rule:evenodd;stroke:#000000;stroke-width:1px;stroke-linecap:butt;stroke-linejoin:miter;stroke-opacity:1" />
      <path
         transform="translate(-4.149475e-6,698.0315)"
         id="path7988"
         d="M 227.85357,156.44647 C 225.65087,156.99715 219.80051,158.85011 216.81793,160.3414 C 213.82303,161.83885 211.44294,162.82117 208.37891,163.58718 C 205.79238,164.23381 202.46443,168.44376 201.2382,170.07873 C 198.24876,174.06466 198.70478,176.60189 202.53651,178.51776 C 205.7601,180.12955 208.89996,182.02406 212.27384,183.711 C 215.56463,185.35639 224.23619,181.62476 226.55526,180.46522 C 230.27924,178.60323 231.37316,176.29648 234.34513,173.32451 C 237.27337,170.39627 235.76576,167.32223 234.99428,164.23634 C 234.1595,160.89719 233.0696,160.36418 231.09935,158.39394 C 230.20717,157.50176 228.9355,157.09563 227.85357,156.44647 z"
         style="fill:#483737;fill-rule:evenodd;stroke:#000000;stroke-width:1px;stroke-linecap:butt;stroke-linejoin:miter;stroke-opacity:1" />
      <path
         transform="translate(-4.149475e-6,698.0315)"
         id="path7990"
         d="M 218.7654,176.57029 C 218.4011,176.20599 222.51185,186.65982 223.30949,188.25509 C 224.63737,190.91085 234.38024,189.54462 236.94175,188.90424 C 240.76633,187.9481 241.63364,185.62152 236.2926,186.95678 C 232.63029,187.87235 226.52007,187.94811 231.09935,185.65847 C 233.90739,184.25444 238.69644,183.711 232.39766,183.711 C 227.66401,183.711 227.48552,184.72821 230.4502,181.76353 C 233.10554,179.10819 233.21232,178.435 227.85357,181.11438 C 222.61423,183.73405 226.41668,177.77377 226.55526,177.21944 C 227.18722,174.69162 221.37102,176.57029 218.7654,176.57029 z"
         style="fill:#00ff00;fill-rule:evenodd;stroke:#000000;stroke-width:1px;stroke-linecap:butt;stroke-linejoin:miter;stroke-opacity:1" />
      <path
         inkscape:transform-center-y="4.6489759"
         inkscape:transform-center-x="-9.2079921"
         id="path7992"
         d="M 231.75124,864.06116 C 231.27581,863.86266 242.50754,863.69155 244.28626,863.82299 C 247.24741,864.0418 249.68684,873.57276 250.06812,876.18543 C 250.6374,880.08639 248.81509,881.77291 248.02008,876.32521 C 247.47495,872.58975 245.22261,866.9093 244.84532,872.01516 C 244.61396,875.14612 245.93156,879.78231 243.53748,873.95625 C 241.73828,869.57785 242.61131,869.02613 240.99596,872.89515 C 239.54916,876.36047 238.96708,876.7151 239.40859,870.74013 C 239.84025,864.8983 235.77254,870.68079 235.31249,871.01966 C 233.21458,872.56499 232.7416,866.47123 231.75124,864.06116 z"
         style="fill:#00ff00;fill-rule:evenodd;stroke:#000000;stroke-width:1px;stroke-linecap:butt;stroke-linejoin:miter;stroke-opacity:1" />
    </g>
    <g
       id="g8708"
       transform="matrix(0.8402762,0.5421587,-0.5421587,0.8402762,520.57708,7.2499245)">
      <path
         id="path8690"
         d="M 261.69168,857.3488 C 262.29449,859.36475 261.69168,865.85137 261.69168,869.47411 C 261.69168,876.45169 260.93631,883.56507 260.93631,890.69341 C 260.93631,898.50543 261.69168,906.16986 261.69168,913.93359 C 261.69168,920.13244 263.20239,926.34607 263.20239,932.62678 C 263.20239,937.8168 263.28041,942.99212 264.71311,947.78342 C 266.34287,953.23376 266.48876,959.10188 268.4899,964.45573 C 269.63832,967.52822 266.22036,973.04507 272.26669,972.03404 C 276.88437,971.26191 274.53277,967.73387 274.53277,965.46617 C 274.53277,962.31665 272.67904,958.48582 271.51133,955.36175 C 270.40649,952.40584 271.51133,948.32288 271.51133,945.25731 C 271.51133,941.21554 271.51133,937.17377 271.51133,933.132 C 271.51133,928.87196 272.296,924.11642 270.75597,919.99625 C 269.61336,916.93928 271.09845,913.3342 270.00062,910.39704 C 268.86836,907.36779 269.24525,903.46853 269.24525,900.29261 C 269.24525,896.02681 268.53812,891.06961 270.00062,887.15686 C 271.31609,883.63745 270.00062,877.91289 270.00062,874.0211 C 270.00062,870.5019 270.00062,867.46614 270.00062,863.91668 C 270.00062,860.42441 267.93902,856.51697 266.97918,853.30703 C 266.13322,850.47795 264.79966,847.01279 263.20239,851.28614 C 262.32439,853.63518 262.47755,854.72064 261.69168,857.3488 z"
         style="fill:#ac9393;fill-rule:evenodd;stroke:#000000;stroke-width:0.95163113px;stroke-linecap:butt;stroke-linejoin:miter;stroke-opacity:1" />
      <path
         transform="translate(-4.149475e-6,698.0315)"
         id="path8692"
         d="M 273.94361,270.69783 C 272.94096,274.70844 265.62026,270.99349 261.60966,271.99615 C 257.18038,273.10346 258.03761,273.95037 257.06557,277.83854 C 256.23408,281.16451 256.43245,285.04338 257.06557,287.57588 C 257.22301,288.20565 257.06557,288.87419 257.06557,289.52334 C 257.06557,292.97188 260.23701,293.71561 259.01304,298.61152 C 258.18227,301.9346 257.06557,304.20996 257.06557,307.6997 C 257.06557,317.32443 255.1181,325.72254 255.1181,335.61338 C 255.1181,337.41364 265.30939,339.13494 266.8029,339.50832 C 270.45353,340.42097 274.14641,339.88359 277.83855,340.80663 C 281.97516,341.84078 286.63976,340.15747 290.82166,340.15747 C 295.33566,340.15747 297.31321,339.3838 297.31321,334.96423 C 297.31321,333.01676 297.31321,331.06929 297.31321,329.12183 C 297.31321,322.00063 294.06743,314.74651 294.06743,306.40139 C 294.06743,302.11788 292.39045,300.34261 291.47081,296.66405 C 290.39938,292.37832 291.98075,290.72937 292.76912,287.57588 C 293.45825,284.81938 290.83973,282.45493 290.1725,279.78601 C 289.46063,276.93853 285.05423,274.66774 283.68095,273.29446 C 281.97197,271.58548 279.15594,270.69783 276.54023,270.69783 C 275.67469,270.69783 274.80915,270.69783 273.94361,270.69783 z"
         style="fill:#ffff00;fill-rule:evenodd;stroke:#000000;stroke-width:1px;stroke-linecap:butt;stroke-linejoin:miter;stroke-opacity:1" />
      <path
         transform="translate(-4.149475e-6,698.0315)"
         id="path8694"
         d="M 256.41642,292.11997 C 252.52148,292.11997 264.20628,292.11997 268.10121,292.11997 C 271.91072,292.11997 274.14577,290.82165 277.83855,290.82165 C 281.72863,290.82165 284.19104,290.1725 287.57588,290.1725 C 291.57625,290.1725 292.35629,288.52116 293.41828,292.76912 C 294.47167,296.98271 290.17722,296.01372 287.57588,296.66405 C 284.56363,297.41712 280.30845,296.66405 277.18939,296.66405 C 273.29446,296.66405 269.39952,296.66405 265.50459,296.66405 C 261.85761,296.66405 258.49601,296.66405 256.41642,296.66405 C 253.52843,296.66405 256.18863,292.68943 256.41642,292.11997 z"
         style="fill:#800000;fill-rule:evenodd;stroke:#000000;stroke-width:1px;stroke-linecap:butt;stroke-linejoin:miter;stroke-opacity:1" />
      <path
         transform="translate(-4.149475e-6,698.0315)"
         d="M 265.35608,301.96513 C 264.98458,304.1092 264.91352,306.29061 264.83953,308.46087 C 264.77442,310.66162 264.76979,312.86344 264.76383,315.06493 C 264.80125,317.47707 265.30379,319.83787 265.68652,322.20934 C 265.96616,323.99033 266.32826,325.75135 266.53167,327.54452 C 266.7105,329.26162 266.71257,330.98984 266.7224,332.71418 C 266.7864,334.01782 266.68221,335.30794 266.54141,336.60201 L 265.40741,337.16434 C 265.54906,335.87455 265.66098,334.5899 265.5938,333.29012 C 265.58194,331.57025 265.5774,329.84694 265.40651,328.13372 C 265.2083,326.34094 264.84347,324.58198 264.56828,322.80156 C 264.19363,320.42192 263.69303,318.05501 263.64012,315.63729 C 263.64036,313.43364 263.64787,311.22973 263.7191,309.02698 C 263.79234,306.85555 263.85965,304.67574 264.1995,302.52596 L 265.35608,301.96513 z"
         id="path8698"
         style="opacity:1;fill:#800000;fill-opacity:1;fill-rule:nonzero;stroke:#000000;stroke-width:3.54330707;stroke-linecap:butt;stroke-linejoin:miter;stroke-miterlimit:4;stroke-dasharray:none;stroke-dashoffset:0;stroke-opacity:1" />
      <path
         transform="translate(-4.149475e-6,698.0315)"
         d="M 278.98834,304.56175 C 278.44896,306.12887 278.15432,307.75379 277.94951,309.39363 C 277.74318,311.20769 278.05984,313.03166 278.39641,314.81089 C 278.7063,316.61917 279.02327,318.42746 279.29454,320.24217 C 279.68981,321.99788 280.04191,323.7538 280.21744,325.54565 C 280.34426,326.91201 280.13691,328.30585 279.82177,329.63601 C 279.41172,330.82788 279.31118,332.08478 279.06174,333.3102 C 278.73482,334.57144 278.56863,335.85973 278.47556,337.15656 C 278.43628,337.96806 278.45191,337.5881 278.42669,338.29637 L 277.28197,338.87393 C 277.31304,338.16173 277.29596,338.54359 277.33361,337.72835 C 277.42325,336.42675 277.5815,335.13198 277.91189,333.8666 C 278.17341,332.64285 278.24944,331.37906 278.67026,330.18834 C 279.00169,328.87671 279.19741,327.48441 279.09082,326.13345 C 278.91974,324.34289 278.57373,322.58683 278.17566,320.83337 C 277.90377,319.02028 277.57938,317.21523 277.27888,315.4069 C 276.93956,313.61719 276.61038,311.78178 276.81064,309.95631 C 277.01269,308.31789 277.29265,306.6885 277.83176,305.12259 L 278.98834,304.56175 z"
         id="path8700"
         style="opacity:1;fill:#800000;fill-opacity:1;fill-rule:nonzero;stroke:#000000;stroke-width:3.54330707;stroke-linecap:butt;stroke-linejoin:miter;stroke-miterlimit:4;stroke-dasharray:none;stroke-dashoffset:0;stroke-opacity:1" />
      <path
         transform="translate(-4.149475e-6,698.0315)"
         d="M 286.34452,299.98491 C 286.9349,301.63092 287.0823,303.37731 287.41845,305.07925 C 287.79403,306.45099 288.00263,307.77414 287.71459,309.17401 C 287.50278,310.52465 286.64932,311.63824 286.26912,312.92012 C 286.04491,314.28954 286.37792,315.70607 286.67957,317.04488 C 287.09296,318.70356 287.49265,320.37227 287.95481,322.01879 C 288.34457,323.56676 288.81932,325.09423 289.11053,326.66538 C 289.45959,327.94502 289.86737,329.19027 289.79345,330.52734 C 289.64986,331.66715 289.54974,332.80979 289.49476,333.95715 L 288.35317,334.53213 C 288.40533,333.38462 288.49746,332.24083 288.64854,331.10172 C 288.74157,329.77187 288.33763,328.5362 287.98847,327.26317 C 287.69955,325.69523 287.22579,324.17192 286.83713,322.62742 C 286.37297,320.97948 285.9841,319.30596 285.55847,317.64822 C 285.24433,316.29319 284.91684,314.85773 285.11576,313.46854 C 285.45948,312.17564 286.35087,311.08044 286.56509,309.72946 C 286.87385,308.34609 286.66811,307.03767 286.29816,305.67785 C 285.96398,303.9847 285.82703,302.24394 285.2229,300.61125 L 286.34452,299.98491 z"
         id="path8702"
         style="opacity:1;fill:#800000;fill-opacity:1;fill-rule:nonzero;stroke:#000000;stroke-width:3.54330707;stroke-linecap:butt;stroke-linejoin:miter;stroke-miterlimit:4;stroke-dasharray:none;stroke-dashoffset:0;stroke-opacity:1" />
      <path
         transform="translate(-4.149475e-6,698.0315)"
         d="M 264.56367,280.49137 C 263.72155,281.68826 263.24335,283.06022 263.12536,284.51136 C 263.12764,285.62503 263.26348,286.73269 263.34895,287.84193 L 262.21548,288.4304 C 262.13076,287.31468 261.99597,286.201 261.98578,285.08116 C 262.08968,283.61326 262.556,282.226 263.383,281.00016 L 264.56367,280.49137 z"
         id="path8704"
         style="opacity:1;fill:#800000;fill-opacity:1;fill-rule:nonzero;stroke:#000000;stroke-width:3.54330707;stroke-linecap:butt;stroke-linejoin:miter;stroke-miterlimit:4;stroke-dasharray:none;stroke-dashoffset:0;stroke-opacity:1" />
      <path
         transform="translate(-4.149475e-6,698.0315)"
         d="M 281.15128,278.56278 C 281.81546,280.17559 282.64803,281.71955 283.25347,283.35556 C 283.51213,284.17801 283.6186,285.01807 283.55567,285.87434 L 282.41001,286.44569 C 282.49379,285.60627 282.38417,284.78303 282.1396,283.97324 C 281.54673,282.33422 280.71701,280.78981 280.02966,279.18912 L 281.15128,278.56278 z"
         id="path8706"
         style="opacity:1;fill:#800000;fill-opacity:1;fill-rule:nonzero;stroke:#000000;stroke-width:3.54330707;stroke-linecap:butt;stroke-linejoin:miter;stroke-miterlimit:4;stroke-dasharray:none;stroke-dashoffset:0;stroke-opacity:1" />
    </g>
    <g
       id="g5638"
       transform="translate(5.1932439,-14.281421)">
      <rect
         y="952.50043"
         x="330.42014"
         height="34.405239"
         width="98.022476"
         id="rect5091"
         style="fill:#00ffff;fill-rule:evenodd;stroke:#000000;stroke-width:1px;stroke-linecap:butt;stroke-linejoin:miter;stroke-opacity:1" />
      <text
         id="text5087"
         y="977.8175"
         x="336.26254"
         style="font-size:24px;font-style:normal;font-weight:bold;writing-mode:lr-tb;fill:#000000;fill-opacity:1;stroke:none;stroke-width:1px;stroke-linecap:butt;stroke-linejoin:miter;stroke-opacity:1;font-family:Sans;-inkscape-font-specification:Sans"
         xml:space="preserve"><tspan
           y="977.8175"
           x="336.26254"
           id="tspan5089"
           sodipodi:role="line">'ilities</tspan></text>
    </g>
    <g
       id="g5645"
       transform="translate(-386.49673,73.443559)">
      <path
         sodipodi:nodetypes="csccssccccc"
         id="path8726"
         d="M 564.23006,741.9494 C 556.83748,755.86494 568.43121,773.70362 566.38595,777.79414 C 562.7486,785.06884 558.52003,787.39092 555.87655,795.32134 C 553.44555,805.71541 558.66461,816.10854 561.79573,816.60228 C 566.85534,819.13208 573.84198,818.75187 579.32293,819.84806 C 583.65854,820.71518 588.29674,820.49721 592.95519,820.49721 C 597.46339,820.49721 600.72953,817.91611 603.34168,815.30397 C 605.54459,808.59231 604.29946,802.28467 599.60904,792.74582 C 598.81358,789.70624 593.38344,778.1576 589.06026,776.19235 C 586.4987,772.77694 595.97958,759.5282 591.17002,745.68204 C 577.93162,732.83722 574.65876,732.8248 564.23006,741.9494 z"
         style="fill:#000000;fill-rule:evenodd;stroke:#000000;stroke-width:1px;stroke-linecap:butt;stroke-linejoin:miter;stroke-opacity:1" />
      <path
         id="path8728"
         d="M 572.01993,758.66516 C 569.37188,756.67912 578.51148,759.96347 581.75726,760.61262 C 587.75156,761.81148 588.81368,763.29353 585.00304,767.10418 C 582.3434,769.76382 579.11166,772.33415 576.56402,774.24489 C 573.24251,776.73602 571.80252,771.21345 570.72162,769.05164 C 569.54113,766.69067 566.90163,764.5825 565.52838,763.20924 C 563.28837,760.96924 569.58275,760.6149 572.01993,758.66516 z"
         style="fill:#ffff00;fill-rule:evenodd;stroke:#000000;stroke-width:1px;stroke-linecap:butt;stroke-linejoin:miter;stroke-opacity:1" />
      <path
         sodipodi:nodetypes="csssccscc"
         id="path8730"
         d="M 566.33982,801.6717 C 567.91178,798.52777 569.59359,795.81332 570.88391,793.23268 C 572.77382,789.45285 574.45282,788.28323 578.02462,787.39028 C 581.91657,786.41729 584.79564,788.17917 587.11279,789.33775 C 588.85889,790.2108 590.61265,800.09139 591.00773,801.6717 C 591.33195,804.93683 593.35526,817.34835 589.21777,818.28086 C 585.89531,819.11147 581.40436,819.73243 577.87386,818.32023 C 574.90558,817.13292 570.9105,817.42037 567.63813,816.60228 C 559.99407,816.1245 564.32632,807.66737 566.33982,801.6717 z"
         style="fill:#f9f9f9;fill-rule:evenodd;stroke:#000000;stroke-width:1px;stroke-linecap:butt;stroke-linejoin:miter;stroke-opacity:1" />
      <path
         transform="translate(487.30514,634.67645)"
         d="M 88.934298,117.49714 A 7.4652882,7.789866 0 1 1 74.003721,117.49714 A 7.4652882,7.789866 0 1 1 88.934298,117.49714 z"
         sodipodi:ry="7.789866"
         sodipodi:rx="7.4652882"
         sodipodi:cy="117.49714"
         sodipodi:cx="81.469009"
         id="path8732"
         style="opacity:1;fill:#f9f9f9;fill-opacity:1;fill-rule:nonzero;stroke:#000000;stroke-width:3.54330707;stroke-linecap:butt;stroke-linejoin:miter;stroke-miterlimit:4;stroke-dasharray:none;stroke-dashoffset:0;stroke-opacity:1"
         sodipodi:type="arc" />
      <path
         transform="translate(502.72259,634.67646)"
         d="M 88.934298,117.49714 A 7.4652882,7.789866 0 1 1 74.003721,117.49714 A 7.4652882,7.789866 0 1 1 88.934298,117.49714 z"
         sodipodi:ry="7.789866"
         sodipodi:rx="7.4652882"
         sodipodi:cy="117.49714"
         sodipodi:cx="81.469009"
         id="path8734"
         style="opacity:1;fill:#f9f9f9;fill-opacity:1;fill-rule:nonzero;stroke:#000000;stroke-width:3.54330707;stroke-linecap:butt;stroke-linejoin:miter;stroke-miterlimit:4;stroke-dasharray:none;stroke-dashoffset:0;stroke-opacity:1"
         sodipodi:type="arc" />
      <g
         transform="translate(402.10349,-62.5436)"
         id="g8812">
        <path
           style="fill:#ff0000;fill-rule:evenodd;stroke:#000000;stroke-width:1px;stroke-linecap:butt;stroke-linejoin:miter;stroke-opacity:1"
           d="M 120.49334,101.4659 C 121.22549,102.68616 118.31386,99.4038 117.96872,98.023237 C 117.69275,96.919385 117.50969,95.590463 117.50969,94.580571 C 117.50969,94.191289 115.39222,96.520414 115.21458,96.875682 C 114.54251,98.219838 114.75556,99.969367 114.75556,101.4659 C 114.75556,102.9935 115.8529,103.95286 116.82116,104.67906 C 117.0022,104.81484 117.14623,105.16667 117.28018,105.36759"
           id="path8760"
           transform="translate(-4.149475e-6,698.0315)" />
        <path
           style="fill:#ff0000;fill-rule:evenodd;stroke:#000000;stroke-width:1px;stroke-linecap:butt;stroke-linejoin:miter;stroke-opacity:1"
           d="M 141.14933,800.18594 C 141.91642,800.76125 143.56555,798.10764 143.90347,797.4318 C 144.69016,795.85841 142.40208,793.95806 144.36249,794.44816 C 145.01636,794.61163 145.75933,797.01233 145.96907,797.4318 C 146.36133,798.21632 145.96907,800.18751 145.96907,801.10398 C 145.96907,801.97059 144.83715,802.41194 144.13298,802.94007"
           id="path8762" />
        <path
           style="fill:#000000;fill-rule:evenodd;stroke:#000000;stroke-width:1px;stroke-linecap:butt;stroke-linejoin:miter;stroke-opacity:1"
           d="M 138.24789,857.33407 C 138.24789,858.06039 138.24789,860.28266 138.24789,861.69478 C 138.24789,862.95398 138.02068,865.12824 137.78887,866.05549 C 137.28048,868.08905 139.64519,867.38261 140.543,867.20305 C 142.34201,866.84324 143.43549,866.90436 144.6742,866.285 C 145.80516,865.71952 147.54863,867.67315 147.88735,868.3506 C 148.7119,869.99969 146.376,871.40139 145.59224,871.79327 C 144.14365,872.51757 142.40066,872.4818 140.77251,872.4818 C 139.0139,872.4818 137.05896,872.18457 135.49375,871.79327 C 134.10157,871.44522 133.51739,871.66585 133.88718,870.18669 C 134.63628,867.19027 135.44581,864.04804 135.95278,861.00625 C 136.23606,859.30653 136.02927,858.78766 136.64131,857.56358"
           id="path8784" />
        <path
           style="fill:#ff0000;fill-rule:evenodd;stroke:#000000;stroke-width:1px;stroke-linecap:butt;stroke-linejoin:miter;stroke-opacity:1"
           d="M 124.39503,129.92528 C 124.25016,130.64963 123.62977,132.98633 123.24747,134.51551 C 122.90921,135.86856 123.01796,137.39911 123.01796,138.87622 C 123.01796,140.94415 122.29795,141.46379 121.41138,143.23693 C 120.56295,144.93379 119.36541,146.51578 118.65725,148.28617 C 118.05493,149.79197 118.05305,151.83666 118.42774,153.33542 C 118.93658,155.37079 119.38096,156.36597 120.72285,158.15515 C 121.98335,159.83581 124.96598,160.05953 126.91965,160.45026 C 129.55227,160.97679 132.46181,161.1388 135.18205,161.1388 C 137.44912,161.1388 137.32762,161.21356 139.31325,160.22075 C 141.22845,159.73964 140.89425,159.19874 142.06738,157.69613 C 143.70424,154.47811 143.37803,153.80609 142.52641,150.35178 C 141.90847,148.11296 142.37425,145.66096 140.4608,144.84351 C 138.71994,143.97308 138.1657,142.89504 138.1657,140.94182 C 138.1657,139.90529 138.39521,138.46652 138.39521,137.26964 C 138.39521,135.56684 138.06352,134.3363 137.70667,132.90893 C 137.63017,132.60291 137.55367,132.2969 137.47716,131.99088 C 137.11228,130.53137 136.60102,129.09105 135.87058,127.63017 C 135.42888,126.74677 135.52945,126.83001 134.95254,126.25311"
           id="path8768"
           transform="translate(-4.149475e-6,698.0315)"
           sodipodi:nodetypes="cssssssssccccsssssc" />
        <path
           style="fill:#ff0000;fill-rule:evenodd;stroke:#000000;stroke-width:1px;stroke-linecap:butt;stroke-linejoin:miter;stroke-opacity:1"
           d="M 133.80498,97.334704 C 132.39424,96.276653 126.58628,98.967246 124.85405,99.400304 C 123.12182,99.833362 122.17583,100.2728 120.95236,101.00688 C 119.48108,101.88965 118.89135,103.29741 117.73921,104.44955 C 116.67517,105.51359 116.06489,107.33915 115.44409,108.58075 C 114.87189,109.72516 114.68529,111.51057 114.29654,112.48244 C 113.91473,113.43695 113.84852,114.50402 113.60801,115.46608 C 113.43449,116.16013 112.25213,117.28098 111.77192,117.76119 C 110.71044,118.82267 110.85387,120.66475 110.85387,122.12191 C 110.85387,123.82998 111.77692,124.88004 112.91947,125.79408 C 114.46831,127.03316 117.28687,127.58695 119.11627,128.31871 C 121.85407,129.41383 124.96713,130.0397 127.83769,130.61382 C 130.56481,131.15924 133.06942,131.30235 135.87058,131.30235 C 137.97943,131.30235 139.82174,130.65883 141.83787,130.15479 C 143.35864,129.7746 144.67523,129.38808 146.19858,129.00724 C 147.76825,128.61482 149.28731,127.49399 150.32978,126.71213 C 151.23607,126.03241 151.64561,125.64623 152.39538,124.64653 C 153.15981,123.62729 153.6147,122.63845 153.31343,121.43337 C 152.83813,119.53217 152.57775,118.00434 151.70685,116.84315 C 150.96233,115.85045 150.81527,115.57193 150.32978,113.62999 C 149.9645,112.16885 148.28737,110.52426 147.34614,109.26928 C 146.27127,107.83612 145.57908,106.81369 144.59201,105.82662 C 143.3902,104.6248 142.74249,103.28856 141.60836,102.15444 C 140.70227,101.24834 139.68507,100.61901 138.62472,100.08884 C 137.0364,99.294679 135.21572,98.392755 133.80498,97.334704 z"
           id="path8752"
           transform="translate(-4.149475e-6,698.0315)"
           sodipodi:nodetypes="czsssssssssssssssssssssss" />
        <path
           style="fill:#ffffff;fill-rule:evenodd;stroke:#000000;stroke-width:1px;stroke-linecap:butt;stroke-linejoin:miter;stroke-opacity:1"
           d="M 115.67361,114.54804 C 116.24242,113.41169 117.79253,110.99872 118.65725,109.26928 C 119.89595,106.79189 120.79005,105.40006 123.24747,104.90857 C 124.97804,104.56246 127.59497,106.12382 128.52623,106.74466 C 129.1456,107.15758 128.98525,109.87672 128.98525,110.87586 C 128.98525,112.73412 128.63559,114.32931 127.83769,115.9251 C 127.02426,117.55197 125.8989,117.32785 124.16552,117.76119 C 122.63791,118.1431 120.29338,117.42432 118.88676,117.07266 C 117.43803,116.71048 115.92611,116.63664 114.98507,115.69559 C 114.66964,115.38016 115.44409,114.93056 115.67361,114.54804 z"
           id="path8744"
           transform="translate(-4.149475e-6,698.0315)" />
        <path
           style="fill:#000000;fill-rule:evenodd;stroke:#000000;stroke-width:1px;stroke-linecap:butt;stroke-linejoin:miter;stroke-opacity:1"
           d="M 123.24747,110.64635 C 122.38421,109.78309 121.18187,112.58998 121.18187,113.62999 C 121.18187,115.07593 122.63701,115.37084 123.93601,115.69559 C 125.82109,116.16687 126.42831,114.4801 126.69014,113.17097 C 126.89366,112.15335 125.54,110.87069 125.08356,109.95782 C 124.65625,109.1032 123.31461,110.59264 123.24747,110.64635 z"
           id="path8746"
           transform="translate(-4.149475e-6,698.0315)" />
        <path
           style="fill:#ffffff;fill-rule:evenodd;stroke:#000000;stroke-width:1px;stroke-linecap:butt;stroke-linejoin:miter;stroke-opacity:1"
           d="M 148.12152,812.7794 C 147.55271,811.64305 146.0026,809.23008 145.13788,807.50064 C 143.89918,805.02325 143.00508,803.63142 140.54766,803.13993 C 138.81709,802.79382 136.20016,804.35518 135.2689,804.97602 C 134.64953,805.38894 134.80988,808.10808 134.80988,809.10722 C 134.80988,810.96548 135.15954,812.56067 135.95744,814.15646 C 136.77087,815.78333 137.89623,815.55921 139.62961,815.99255 C 141.15722,816.37446 143.50175,815.65568 144.90837,815.30402 C 146.3571,814.94184 147.86902,814.868 148.81006,813.92695 C 149.12549,813.61152 148.35104,813.16192 148.12152,812.7794 z"
           id="path8748" />
        <path
           style="fill:#000000;fill-rule:evenodd;stroke:#000000;stroke-width:1px;stroke-linecap:butt;stroke-linejoin:miter;stroke-opacity:1"
           d="M 140.54766,808.87771 C 141.41092,808.01445 142.61326,810.82134 142.61326,811.86135 C 142.61326,813.30729 141.15812,813.6022 139.85912,813.92695 C 137.97404,814.39823 137.36682,812.71146 137.10499,811.40233 C 136.90147,810.38471 138.25513,809.10205 138.71157,808.18918 C 139.13888,807.33456 140.48052,808.824 140.54766,808.87771 z"
           id="path8750" />
        <path
           style="fill:none;fill-rule:evenodd;stroke:#000000;stroke-width:1px;stroke-linecap:butt;stroke-linejoin:miter;stroke-opacity:1"
           d="M 116.59165,119.36777 C 117.49533,120.26127 118.64727,122.16183 118.19823,123.95799 C 118.05461,124.53247 117.73929,124.41693 117.50969,124.64653"
           id="path8754"
           transform="translate(-4.149475e-6,698.0315)" />
        <path
           style="fill:none;fill-rule:evenodd;stroke:#000000;stroke-width:1px;stroke-linecap:butt;stroke-linejoin:miter;stroke-opacity:1"
           d="M 118.42774,122.35142 C 118.00462,124.04388 121.85721,123.08057 123.47698,123.72848 C 124.85084,124.27803 127.17878,124.18751 128.75574,124.18751 C 130.42793,124.18751 131.47917,124.64653 133.11645,124.64653 C 134.47015,124.64653 136.03523,124.87604 137.47716,124.87604 C 139.16024,124.87604 140.84332,124.87604 142.52641,124.87604 C 144.44067,124.87604 144.88768,124.03967 146.4281,123.26946 C 146.67036,123.14833 147.24298,122.86202 147.34614,122.81044"
           id="path8756"
           transform="translate(-4.149475e-6,698.0315)" />
        <path
           style="fill:none;fill-rule:evenodd;stroke:#000000;stroke-width:1px;stroke-linecap:butt;stroke-linejoin:miter;stroke-opacity:1"
           d="M 148.4937,118.90875 C 148.60328,118.85396 146.12755,120.93247 147.80516,123.72848 C 148.3237,124.59272 148.59553,125.43689 149.18223,126.02359"
           id="path8758"
           transform="translate(-4.149475e-6,698.0315)" />
        <path
           style="fill:none;fill-rule:evenodd;stroke:#000000;stroke-width:1px;stroke-linecap:butt;stroke-linejoin:miter;stroke-opacity:1"
           d="M 129.90329,115.9251 C 128.83457,116.26479 128.13196,117.73168 127.83769,118.90875 C 127.46875,120.38453 128.68164,120.89845 129.90329,121.20386 C 130.20931,121.28036 130.51532,121.35687 130.82134,121.43337 C 132.5611,121.86831 133.83977,121.16907 134.72303,120.28582 C 134.83122,120.17762 134.72303,119.9798 134.72303,119.82679"
           id="path8764"
           transform="translate(-4.149475e-6,698.0315)" />
        <path
           style="fill:none;fill-rule:evenodd;stroke:#000000;stroke-width:1px;stroke-linecap:butt;stroke-linejoin:miter;stroke-opacity:1"
           d="M 124.62454,145.99106 C 124.05431,144.85061 128.21917,142.26823 129.44427,141.85986 C 131.44061,141.19442 132.05578,141.02871 133.11645,142.08937 C 134.00356,142.97648 134.97117,143.25556 135.87058,144.15497 C 136.12548,144.40987 136.60078,144.52007 136.78863,144.614"
           id="path8770"
           transform="translate(-4.149475e-6,698.0315)" />
        <path
           style="fill:#ff0000;fill-rule:evenodd;stroke:#000000;stroke-width:1px;stroke-linecap:butt;stroke-linejoin:miter;stroke-opacity:1"
           d="M 123.01796,134.97453 C 123.16198,135.11855 119.65981,135.66306 118.65725,135.66306 C 117.20404,135.66306 116.21069,135.66306 114.75556,135.66306 C 113.28742,135.66306 111.83661,135.20404 110.39485,135.20404 C 108.7745,135.20404 107.14581,135.09826 105.80463,135.43355 C 104.01249,135.88158 103.41745,137.22426 102.59147,138.87622 C 101.77882,140.50151 102.96759,143.71079 103.50952,144.614 C 103.67935,144.89705 108.35638,142.88588 108.78827,142.77791 C 110.08115,142.45469 110.53396,141.88246 111.54241,141.63035 C 112.76485,141.32474 114.33915,140.70378 115.44409,140.48279 C 117.11512,140.14859 118.83024,139.75101 120.49334,139.33524 C 122.00522,138.95727 124.76835,138.15173 125.54258,137.95817"
           id="path8772"
           transform="translate(-4.149475e-6,698.0315)" />
        <path
           style="fill:none;fill-rule:evenodd;stroke:#000000;stroke-width:1px;stroke-linecap:butt;stroke-linejoin:miter;stroke-opacity:1"
           d="M 106.03414,140.02377 C 106.70315,139.85652 106.72267,136.65665 106.72267,135.43355 C 106.72267,133.39075 106.26365,131.52014 106.26365,129.46626 C 106.26365,127.66628 105.11609,126.29063 105.11609,124.41702 C 105.11609,122.58093 105.11609,120.74484 105.11609,118.90875 C 105.11609,117.54292 104.88658,116.03654 104.88658,114.31853 C 104.88658,111.24197 104.49143,112.04897 102.13245,111.10537 C 100.24362,110.34984 99.002527,109.20624 98.23076,107.6627 C 97.447601,106.09639 98.519187,103.885 98.23076,102.15444 C 98.05074,101.07432 98.14896,99.925238 97.771738,99.170793"
           id="path8774"
           transform="translate(-4.149475e-6,698.0315)" />
        <path
           style="fill:none;fill-rule:evenodd;stroke:#000000;stroke-width:1px;stroke-linecap:butt;stroke-linejoin:miter;stroke-opacity:1"
           d="M 104.88658,111.7939 C 104.64368,110.33648 107.83576,111.07385 109.01778,110.18733 C 110.66162,108.95445 110.72188,106.71608 111.08338,104.90857 C 111.40949,103.27803 110.62436,102.14924 110.62436,100.54786 C 110.62436,100.37679 110.47135,100.24184 110.39485,100.08884"
           id="path8776"
           transform="translate(-4.149475e-6,698.0315)" />
        <path
           style="fill:none;fill-rule:evenodd;stroke:#000000;stroke-width:1px;stroke-linecap:butt;stroke-linejoin:miter;stroke-opacity:1"
           d="M 103.96854,99.629815 C 103.96854,98.39623 104.42756,102.06841 104.42756,103.30199 C 104.42756,105.27069 104.65707,107.11306 104.65707,109.03977 C 104.65707,110.21452 104.47315,111.15253 104.19805,112.25293"
           id="path8778"
           transform="translate(-4.149475e-6,698.0315)" />
        <path
           style="fill:none;fill-rule:evenodd;stroke:#000000;stroke-width:1px;stroke-linecap:butt;stroke-linejoin:miter;stroke-opacity:1"
           d="M 106.26365,143.69595 C 106.26365,144.82374 106.03414,147.6996 106.03414,149.66324 C 106.03414,151.70252 106.72267,153.58244 106.72267,155.63053 C 106.72267,157.23547 106.49316,158.03674 106.49316,159.53222 C 106.49316,160.27283 106.33332,160.49123 106.26365,160.90928"
           id="path8780"
           transform="translate(-4.149475e-6,698.0315)" />
        <path
           style="fill:#000000;fill-rule:evenodd;stroke:#000000;stroke-width:1px;stroke-linecap:butt;stroke-linejoin:miter;stroke-opacity:1"
           d="M 123.24747,159.53222 C 123.24747,160.25854 123.24747,162.48081 123.24747,163.89293 C 123.24747,165.15213 123.47468,167.32639 123.70649,168.25364 C 124.21488,170.2872 121.85017,169.58076 120.95236,169.4012 C 119.15335,169.04139 118.05987,169.10251 116.82116,168.48315 C 115.6902,167.91767 113.94673,169.8713 113.60801,170.54875 C 112.78346,172.19784 115.11936,173.59954 115.90312,173.99142 C 117.35171,174.71572 119.0947,174.67995 120.72285,174.67995 C 122.48146,174.67995 124.4364,174.38272 126.00161,173.99142 C 127.39379,173.64337 127.97797,173.864 127.60818,172.38484 C 126.85908,169.38842 126.04955,166.24619 125.54258,163.2044 C 125.2593,161.50468 125.46609,160.98581 124.85405,159.76173"
           id="path8782"
           transform="translate(-4.149475e-6,698.0315)" />
        <path
           style="fill:#ff0000;fill-rule:evenodd;stroke:#000000;stroke-width:1px;stroke-linecap:butt;stroke-linejoin:miter;stroke-opacity:1"
           d="M 137.94941,831.79592 C 137.75328,831.85084 140.53874,834.04239 141.41255,834.53391 C 142.67913,835.24635 143.54491,835.73335 144.81317,836.44674 C 146.09277,837.16651 147.5823,837.47771 148.8389,838.18454 C 150.25116,838.97893 151.72255,839.68522 152.72712,840.63497 C 154.06945,841.90408 153.92982,843.36605 153.83983,845.21081 C 153.75131,847.02578 151.14183,849.24011 150.22669,849.76164 C 149.9399,849.92508 146.8495,845.87924 146.52601,845.5734 C 145.55763,844.65784 145.44351,843.9371 144.68816,843.22297 C 143.77254,842.35729 142.70485,841.04427 141.85015,840.30995 C 140.55756,839.19943 139.25762,838.01206 138.01193,836.83434 C 136.87952,835.76369 134.86616,833.70696 134.28625,833.15868"
           id="path8786"
           inkscape:transform-center-x="-7.9897732"
           inkscape:transform-center-y="8.6932073" />
      </g>
      <path
         transform="translate(402.33299,632.04523)"
         d="M 167.77263,120.63008 A 1.2623112,1.4918222 0 1 1 165.248,120.63008 A 1.2623112,1.4918222 0 1 1 167.77263,120.63008 z"
         sodipodi:ry="1.4918222"
         sodipodi:rx="1.2623112"
         sodipodi:cy="120.63008"
         sodipodi:cx="166.51031"
         id="path8788"
         style="opacity:1;fill:#000000;fill-opacity:1;fill-rule:nonzero;stroke:#000000;stroke-width:3.54330707;stroke-linecap:butt;stroke-linejoin:miter;stroke-miterlimit:4;stroke-dasharray:none;stroke-dashoffset:0;stroke-opacity:1"
         sodipodi:type="arc" />
      <path
         transform="translate(417.825,631.93048)"
         d="M 167.77263,120.63008 A 1.2623112,1.4918222 0 1 1 165.248,120.63008 A 1.2623112,1.4918222 0 1 1 167.77263,120.63008 z"
         sodipodi:ry="1.4918222"
         sodipodi:rx="1.2623112"
         sodipodi:cy="120.63008"
         sodipodi:cx="166.51031"
         id="path8790"
         style="opacity:1;fill:#000000;fill-opacity:1;fill-rule:nonzero;stroke:#000000;stroke-width:3.54330707;stroke-linecap:butt;stroke-linejoin:miter;stroke-miterlimit:4;stroke-dasharray:none;stroke-dashoffset:0;stroke-opacity:1"
         sodipodi:type="arc" />
      <path
         id="path8841"
         d="M 623.12269,732.36358 C 622.14581,732.41298 619.98271,731.44554 618.07345,731.44554 C 616.52645,731.44554 615.10537,730.98651 613.48322,730.98651 C 611.62664,730.98651 610.35065,731.16434 608.66349,731.44554 C 607.19784,731.68981 606.14583,732.64525 604.99131,733.51114 C 603.82035,734.38936 602.24716,734.88072 601.31913,735.57674 C 600.08213,736.50449 599.29485,738.01873 598.565,739.47843 C 597.78241,741.04361 597.40246,742.2925 596.95842,744.06865 C 596.43321,746.16951 596.72891,749.23791 596.72891,751.413 C 596.72891,753.28732 596.65463,752.9453 597.64696,753.93763 C 598.4025,754.69317 598.7885,755.97919 599.02402,756.92127 C 599.36514,758.28576 602.42081,757.26094 602.6962,757.15078 C 604.38477,756.47535 606.03377,755.08132 607.74544,754.39665 C 608.97247,753.90584 610.67406,754.26814 612.10616,754.62616 C 613.3178,754.92907 614.99413,755.08518 616.46687,755.08518 C 617.78632,755.08518 618.82925,755.55542 620.13905,755.77372 C 621.73718,756.04007 622.39911,756.87266 624.04073,756.46225 C 624.60379,756.32149 626.29802,754.01329 626.56536,753.47861 C 627.50816,751.59299 627.82832,750.03201 628.17193,747.97034 C 628.41221,746.52868 628.17193,744.85235 628.17193,743.38012 C 628.17193,741.90868 626.95822,740.03464 626.33585,738.78989 C 625.55398,737.22617 624.83203,735.78225 624.04073,734.19967 C 622.55843,731.23505 625.98562,737.13514 623.12269,732.36358 z"
         style="fill:#ff0000;fill-rule:evenodd;stroke:#000000;stroke-width:1px;stroke-linecap:butt;stroke-linejoin:miter;stroke-opacity:1" />
      <path
         id="path8843"
         d="M 628.63096,760.13443 C 628.08835,759.04921 628.59032,751.57553 629.08998,749.57692 C 629.62573,747.43391 629.31949,744.70942 629.31949,742.46207 C 629.31949,740.57681 627.99451,737.85883 629.77851,737.41283 C 631.20786,737.05549 634.24254,739.22788 635.7458,739.47843 C 637.39354,739.75305 638.37562,739.65534 639.64749,739.0194 C 641.12392,738.28119 641.99756,737.57122 643.54918,737.18332 C 643.85519,737.10681 644.16121,737.03031 644.46722,736.9538 C 646.02063,736.56545 647.37144,736.09755 648.82794,735.80625 C 650.0814,735.55556 651.67741,735.80625 652.95914,735.80625 C 654.61511,735.80625 655.10745,735.84003 655.94278,736.9538 C 656.96897,738.32206 657.18697,740.83133 656.86082,742.46207 C 656.79896,742.77138 656.70782,743.0741 656.63131,743.38012 C 656.22845,744.99158 656.17229,746.66392 656.17229,748.42936 C 656.17229,750.41494 656.3372,752.65407 655.94278,754.62616 C 655.64515,756.11431 655.19097,756.37913 653.64767,757.15078 C 651.88345,758.03289 650.10801,758.26521 648.1394,758.75736 C 646.34098,759.20697 644.56465,759.47892 642.86065,759.90492 C 641.46167,760.25466 639.93352,760.58403 638.49994,760.82296 C 636.6832,761.12575 635.02641,761.74101 632.99167,761.74101 C 632.07362,761.74101 631.15558,761.74101 630.23753,761.74101"
         style="fill:#0000ff;fill-rule:evenodd;stroke:#000000;stroke-width:1px;stroke-linecap:butt;stroke-linejoin:miter;stroke-opacity:1" />
      <path
         id="path8792"
         d="M 596.2699,738.56038 C 596.85017,737.33783 598.05936,736.18548 599.48305,735.11772 C 601.69368,733.45975 604.72587,732.46976 607.28643,731.44554 C 609.61274,730.51502 611.67354,729.83896 614.17177,729.83896 C 616.0811,729.83896 617.84985,730.87471 619.45052,731.67505 C 621.45465,732.67711 623.63321,733.91954 625.41781,735.34723 C 627.65705,737.13862 631.09386,738.55009 633.90972,739.0194 C 637.6743,739.64683 640.61282,739.30966 644.23772,738.10136 C 647.25761,737.09473 650.27493,736.28321 653.18866,735.11772 C 654.4012,734.6327 656.00591,733.79458 656.86083,733.28163"
         style="fill:none;fill-rule:evenodd;stroke:#000000;stroke-width:7.08661413;stroke-linecap:butt;stroke-linejoin:miter;stroke-miterlimit:4;stroke-dasharray:none;stroke-opacity:1" />
      <path
         id="path8847"
         d="M 656.63132,759.21638 C 656.32011,757.97156 655.6327,757.34306 653.64767,757.83931 C 651.74421,758.31518 650.04104,758.74097 648.13941,759.21638 C 646.71844,759.57162 645.16286,759.55887 643.77869,759.90491 C 642.20426,760.29852 639.88271,759.79159 638.49994,759.44589 C 637.04167,759.08132 635.37273,759.58213 633.90972,759.21638 C 632.64903,758.90121 631.15581,759.38846 630.00803,759.6754 C 629.85959,759.71251 629.70201,759.6754 629.549,759.6754 C 628.26851,759.6754 627.83879,762.45912 627.4834,763.34758 C 626.78852,765.08479 626.81271,767.40742 626.33585,769.31487 C 625.89109,771.09391 626.10634,773.19255 626.10634,775.05265 C 626.10634,776.81782 626.60748,777.18844 627.25389,778.2658 C 627.89368,779.33211 628.74639,779.98781 629.549,780.79043 C 631.13219,782.37362 633.26949,783.22445 635.28678,784.23309 C 637.53223,785.35582 641.12473,785.75725 643.54918,785.15114 C 645.92949,784.55606 647.99469,784.96255 649.97549,783.77407 C 651.15769,783.06475 652.01943,780.61507 652.50012,779.41336 C 653.20551,777.64987 654.83618,776.26591 655.25425,774.59363 C 655.75054,772.60845 654.94733,769.85401 655.48376,767.70829 C 656.01845,765.56955 656.18962,764.00147 657.09034,762.20003 C 657.46084,761.45902 656.85637,759.77901 656.63132,759.21638 z"
         style="fill:#00ff00;fill-rule:evenodd;stroke:#000000;stroke-width:1px;stroke-linecap:butt;stroke-linejoin:miter;stroke-opacity:1" />
      <path
         id="path8845"
         d="M 626.79487,768.62634 C 625.40933,768.62634 627.25389,765.88068 627.25389,764.49514 C 627.25389,762.59423 626.50028,761.13014 625.87682,759.67541 C 625.24342,758.19747 624.07727,757.94573 622.66367,757.38029 C 621.60638,756.95738 620.12141,755.85494 619.221,755.31469 C 617.97114,754.56478 616.3558,754.07681 614.86029,753.47861 C 613.27798,752.84568 611.82426,752.45828 610.04056,752.10154 C 608.56651,751.80673 607.62366,752.87594 606.8274,753.93763 C 606.18835,754.78969 604.50152,755.55959 603.61424,756.00323 C 602.06075,756.77997 600.62104,757.84887 599.71256,758.75736 C 598.48386,759.98606 597.71818,761.59857 596.95842,763.11807 C 596.03928,764.95636 595.53301,766.34345 595.12233,768.39683 C 594.84021,769.80743 595.00165,771.58625 595.35184,772.98705 C 595.73125,774.50466 595.90116,775.92178 596.4994,777.11825 C 596.93594,777.99133 598.69948,778.24205 599.71256,778.49532 C 601.27943,778.88704 602.59139,779.41336 603.61424,779.41336 C 604.43892,779.41336 605.69623,778.25761 606.59789,777.80678 C 608.33168,776.93989 609.59963,776.10478 611.41762,775.74118 C 612.46097,775.53251 614.79634,776.72545 615.77833,777.11825 C 617.0331,777.62016 618.80238,777.30994 620.13905,777.57727 C 621.68033,777.88553 622.64562,778.94351 623.81122,779.64287 C 625.68965,780.76993 627.7321,779.93918 628.40145,778.26581 C 629.24646,776.15328 628.23985,772.79969 627.71291,770.69194 C 627.37521,769.34112 627.64569,770.04438 626.79487,768.62634 z"
         style="fill:#ffff00;fill-rule:evenodd;stroke:#000000;stroke-width:1px;stroke-linecap:butt;stroke-linejoin:miter;stroke-opacity:1" />
      <path
         id="path8794"
         d="M 596.72892,784.07841 C 597.30919,782.85586 598.51838,781.70351 599.94207,780.63574 C 602.1527,778.97778 605.18489,777.98779 607.74545,776.96356 C 610.07176,776.03304 612.13256,775.35699 614.63079,775.35699 C 616.54012,775.35699 618.30887,776.39274 619.90954,777.19308 C 621.91367,778.19514 624.09223,779.43757 625.87683,780.86525 C 628.11607,782.65665 631.55288,784.06812 634.36874,784.53743 C 638.13332,785.16486 641.07184,784.82769 644.69674,783.61939 C 647.71663,782.61276 650.73395,781.80124 653.64768,780.63574 C 654.86022,780.15072 656.46493,779.31261 657.31985,778.79965"
         style="fill:none;fill-rule:evenodd;stroke:#000000;stroke-width:7.08661413;stroke-linecap:butt;stroke-linejoin:miter;stroke-miterlimit:4;stroke-dasharray:none;stroke-opacity:1" />
      <path
         id="path8796"
         d="M 596.95843,761.3568 C 597.5387,760.13425 598.74789,758.9819 600.17158,757.91413 C 602.38221,756.25617 605.4144,755.26618 607.97496,754.24195 C 610.30127,753.31143 612.36207,752.63538 614.8603,752.63538 C 616.76963,752.63538 618.53838,753.67113 620.13905,754.47147 C 622.14318,755.47353 624.32174,756.71596 626.10634,758.14364 C 628.34558,759.93504 631.78239,761.34651 634.59825,761.81582 C 638.36283,762.44325 641.30135,762.10608 644.92625,760.89778 C 647.94614,759.89115 650.96346,759.07963 653.87719,757.91413 C 655.08973,757.42911 656.69444,756.591 657.54936,756.07804"
         style="fill:none;fill-rule:evenodd;stroke:#000000;stroke-width:7.08661413;stroke-linecap:butt;stroke-linejoin:miter;stroke-miterlimit:4;stroke-dasharray:none;stroke-opacity:1" />
      <path
         id="path8798"
         d="M 596.28364,735.59048 L 596.94469,783.53082"
         style="fill:none;fill-rule:evenodd;stroke:#000000;stroke-width:7.11408663;stroke-linecap:butt;stroke-linejoin:miter;stroke-miterlimit:4;stroke-dasharray:none;stroke-opacity:1" />
      <path
         id="path8800"
         d="M 656.64569,730.31236 L 656.84646,782.15313"
         style="fill:none;fill-rule:evenodd;stroke:#000000;stroke-width:7.11535168;stroke-linecap:butt;stroke-linejoin:miter;stroke-miterlimit:4;stroke-dasharray:none;stroke-opacity:1" />
      <path
         id="path8802"
         d="M 627.02439,736.9538 L 626.79488,781.70847"
         style="fill:none;fill-rule:evenodd;stroke:#000000;stroke-width:7.08661413;stroke-linecap:butt;stroke-linejoin:miter;stroke-miterlimit:4;stroke-dasharray:none;stroke-opacity:1" />
      <text
         id="text5093"
         y="832.83118"
         x="546.86517"
         style="font-size:12px;font-style:normal;font-weight:bold;writing-mode:lr-tb;fill:#000000;fill-opacity:1;stroke:none;stroke-width:1px;stroke-linecap:butt;stroke-linejoin:miter;stroke-opacity:1;font-family:Sans;-inkscape-font-specification:Sans"
         xml:space="preserve"><tspan
           y="832.83118"
           x="546.86517"
           id="tspan5095"
           sodipodi:role="line">portability</tspan></text>
    </g>
    <text
       xml:space="preserve"
       style="font-size:12px;font-style:normal;font-weight:bold;writing-mode:lr-tb;fill:#000000;fill-opacity:1;stroke:none;stroke-width:1px;stroke-linecap:butt;stroke-linejoin:miter;stroke-opacity:1;font-family:Sans;-inkscape-font-specification:Sans"
       x="239.30078"
       y="996.14386"
       id="text5097"
       transform="matrix(0.9999692,7.8505287e-3,-7.8505287e-3,0.9999692,0,0)"><tspan
         sodipodi:role="line"
         id="tspan5099"
         x="239.30078"
         y="996.14386">maintenance</tspan></text>
    <path
       style="fill:none;fill-rule:evenodd;stroke:#ffffff;stroke-width:3.54330707;stroke-linecap:butt;stroke-linejoin:miter;stroke-miterlimit:4;stroke-dasharray:none;stroke-opacity:1"
       d="M 411.24,863.24157 C 412.93789,865.49773 417.71957,868.10305 420.97733,870.0577 C 421.36186,870.28842 421.6197,870.27182 421.95106,870.38228"
       id="path5107" />
    <path
       style="fill:none;fill-rule:evenodd;stroke:#ffffff;stroke-width:3.54330707;stroke-linecap:butt;stroke-linejoin:miter;stroke-miterlimit:4;stroke-dasharray:none;stroke-opacity:1"
       d="M 420.97733,861.94326 C 423.08067,863.20526 417.5804,865.49876 416.10867,867.46108 C 415.23082,868.63154 414.82935,870.03237 413.83662,871.35601"
       id="path5109" />
    <path
       style="fill:none;fill-rule:evenodd;stroke:#ffffff;stroke-width:3.54330707;stroke-linecap:butt;stroke-linejoin:miter;stroke-miterlimit:4;stroke-dasharray:none;stroke-opacity:1"
       d="M 422.9248,854.80255 C 422.92407,854.80351 426.77075,857.33386 428.7672,859.99579 C 429.66903,861.19824 431.31775,861.59565 432.66213,862.26783"
       id="path5111" />
    <path
       style="fill:none;fill-rule:evenodd;stroke:#ffffff;stroke-width:3.54330707;stroke-linecap:butt;stroke-linejoin:miter;stroke-miterlimit:4;stroke-dasharray:none;stroke-opacity:1"
       d="M 424.22311,861.94326 C 425.78378,864.02416 427.41441,857.58869 429.74093,856.42544 C 430.94907,855.82136 431.96403,855.17607 432.66213,854.47797"
       id="path5113" />
    <text
       xml:space="preserve"
       style="font-size:12px;font-style:normal;font-weight:bold;writing-mode:lr-tb;fill:#000000;fill-opacity:1;stroke:none;stroke-width:1px;stroke-linecap:butt;stroke-linejoin:miter;stroke-opacity:1;font-family:Sans;-inkscape-font-specification:Sans"
       x="361.30072"
       y="899.93671"
       id="text5634"><tspan
         sodipodi:role="line"
         id="tspan5636"
         x="361.30072"
         y="899.93671">bugfixing</tspan></text>
  </g>
</svg>
