<?xml version="1.0" encoding="UTF-8" standalone="no"?>
<!-- Created with Inkscape (http://www.inkscape.org/) -->
<svg
   xmlns:dc="http://purl.org/dc/elements/1.1/"
   xmlns:cc="http://creativecommons.org/ns#"
   xmlns:rdf="http://www.w3.org/1999/02/22-rdf-syntax-ns#"
   xmlns:svg="http://www.w3.org/2000/svg"
   xmlns="http://www.w3.org/2000/svg"
   xmlns:sodipodi="http://sodipodi.sourceforge.net/DTD/sodipodi-0.dtd"
   xmlns:inkscape="http://www.inkscape.org/namespaces/inkscape"
   width="2551.7791"
   height="917.90698"
   id="svg2554"
   sodipodi:version="0.32"
   inkscape:version="0.46"
   sodipodi:docname="commit-to-topics.svg"
   inkscape:output_extension="org.inkscape.output.svg.inkscape"
   version="1.0">
  <defs
     id="defs2556">
    <inkscape:perspective
       sodipodi:type="inkscape:persp3d"
       inkscape:vp_x="0 : 526.18109 : 1"
       inkscape:vp_y="0 : 1000 : 0"
       inkscape:vp_z="744.09448 : 526.18109 : 1"
       inkscape:persp3d-origin="372.04724 : 350.78739 : 1"
       id="perspective2562" />
  </defs>
  <sodipodi:namedview
     id="base"
     pagecolor="#ffffff"
     bordercolor="#666666"
     borderopacity="1.0"
     gridtolerance="10000"
     guidetolerance="10"
     objecttolerance="10"
     inkscape:pageopacity="0.0"
     inkscape:pageshadow="2"
     inkscape:zoom="0.35"
     inkscape:cx="-55.886213"
     inkscape:cy="520"
     inkscape:document-units="px"
     inkscape:current-layer="layer1"
     showgrid="true"
     inkscape:snap-global="true"
     inkscape:window-width="1024"
     inkscape:window-height="768"
     inkscape:window-x="0"
     inkscape:window-y="0">
    <inkscape:grid
       type="xygrid"
       id="grid2564"
       visible="true"
       enabled="true" />
  </sodipodi:namedview>
  <metadata
     id="metadata2559">
    <rdf:RDF>
      <cc:Work
         rdf:about="">
        <dc:format>image/svg+xml</dc:format>
        <dc:type
           rdf:resource="http://purl.org/dc/dcmitype/StillImage" />
      </cc:Work>
    </rdf:RDF>
  </metadata>
  <g
     inkscape:label="Layer 1"
     inkscape:groupmode="layer"
     id="layer1"
     transform="translate(1183.0291,-123.73718)">
    <g
       id="g3675"
       transform="translate(0,40)">
      <rect
         y="212.36218"
         x="-400"
         height="160"
         width="600"
         id="rect2566"
         style="fill:#ffffff;fill-rule:evenodd;stroke:#000000;stroke-width:1px;stroke-linecap:butt;stroke-linejoin:miter;stroke-opacity:1" />
      <rect
         y="252.36218"
         x="-400"
         height="120"
         width="40"
         id="rect2568"
         style="fill:#0000ff;fill-rule:evenodd;stroke:#000000;stroke-width:1px;stroke-linecap:butt;stroke-linejoin:miter;stroke-opacity:1" />
      <rect
         y="292.36218"
         x="-320"
         height="80"
         width="40"
         id="rect2570"
         style="fill:#0000ff;fill-rule:evenodd;stroke:#000000;stroke-width:1px;stroke-linecap:butt;stroke-linejoin:miter;stroke-opacity:1" />
      <rect
         y="212.36218"
         x="-240"
         height="160"
         width="40"
         id="rect2572"
         style="fill:#0000ff;fill-rule:evenodd;stroke:#000000;stroke-width:1px;stroke-linecap:butt;stroke-linejoin:miter;stroke-opacity:1" />
      <rect
         y="252.36218"
         x="-160"
         height="120"
         width="40"
         id="rect2574"
         style="fill:#0000ff;fill-rule:evenodd;stroke:#000000;stroke-width:1px;stroke-linecap:butt;stroke-linejoin:miter;stroke-opacity:1" />
      <rect
         y="252.36218"
         x="80"
         height="120"
         width="40"
         id="rect2576"
         style="fill:#0000ff;fill-rule:evenodd;stroke:#000000;stroke-width:1px;stroke-linecap:butt;stroke-linejoin:miter;stroke-opacity:1" />
      <rect
         y="292.36218"
         x="160"
         height="80"
         width="40"
         id="rect2578"
         style="fill:#0000ff;fill-rule:evenodd;stroke:#000000;stroke-width:1px;stroke-linecap:butt;stroke-linejoin:miter;stroke-opacity:1" />
      <rect
         y="292.36218"
         x="-80"
         height="80"
         width="40"
         id="rect2580"
         style="fill:#0000ff;fill-rule:evenodd;stroke:#000000;stroke-width:1px;stroke-linecap:butt;stroke-linejoin:miter;stroke-opacity:1" />
      <rect
         y="292.36218"
         x="0"
         height="80"
         width="40"
         id="rect2582"
         style="fill:#0000ff;fill-rule:evenodd;stroke:#000000;stroke-width:1px;stroke-linecap:butt;stroke-linejoin:miter;stroke-opacity:1" />
    </g>
    <g
       id="g3686"
       transform="translate(0,40)">
      <rect
         transform="scale(-1,1)"
         y="412.36218"
         x="-201"
         height="160"
         width="600"
         id="rect2584"
         style="fill:#ffffff;fill-rule:evenodd;stroke:#000000;stroke-width:1px;stroke-linecap:butt;stroke-linejoin:miter;stroke-opacity:1" />
      <rect
         transform="scale(-1,1)"
         y="452.36218"
         x="-201"
         height="120"
         width="40"
         id="rect2586"
         style="fill:#0000ff;fill-rule:evenodd;stroke:#000000;stroke-width:1px;stroke-linecap:butt;stroke-linejoin:miter;stroke-opacity:1" />
      <rect
         transform="scale(-1,1)"
         y="492.36218"
         x="-121"
         height="80"
         width="40"
         id="rect2588"
         style="fill:#0000ff;fill-rule:evenodd;stroke:#000000;stroke-width:1px;stroke-linecap:butt;stroke-linejoin:miter;stroke-opacity:1" />
      <rect
         transform="scale(-1,1)"
         y="412.36218"
         x="-41"
         height="160"
         width="40"
         id="rect2590"
         style="fill:#0000ff;fill-rule:evenodd;stroke:#000000;stroke-width:1px;stroke-linecap:butt;stroke-linejoin:miter;stroke-opacity:1" />
      <rect
         transform="scale(-1,1)"
         y="452.36218"
         x="39"
         height="120"
         width="40"
         id="rect2592"
         style="fill:#0000ff;fill-rule:evenodd;stroke:#000000;stroke-width:1px;stroke-linecap:butt;stroke-linejoin:miter;stroke-opacity:1" />
      <rect
         transform="scale(-1,1)"
         y="452.36218"
         x="279"
         height="120"
         width="40"
         id="rect2594"
         style="fill:#0000ff;fill-rule:evenodd;stroke:#000000;stroke-width:1px;stroke-linecap:butt;stroke-linejoin:miter;stroke-opacity:1" />
      <rect
         transform="scale(-1,1)"
         y="492.36218"
         x="359"
         height="80"
         width="40"
         id="rect2596"
         style="fill:#0000ff;fill-rule:evenodd;stroke:#000000;stroke-width:1px;stroke-linecap:butt;stroke-linejoin:miter;stroke-opacity:1" />
      <rect
         transform="scale(-1,1)"
         y="492.36218"
         x="119"
         height="80"
         width="40"
         id="rect2598"
         style="fill:#0000ff;fill-rule:evenodd;stroke:#000000;stroke-width:1px;stroke-linecap:butt;stroke-linejoin:miter;stroke-opacity:1" />
      <rect
         transform="scale(-1,1)"
         y="492.36218"
         x="199"
         height="80"
         width="40"
         id="rect2600"
         style="fill:#0000ff;fill-rule:evenodd;stroke:#000000;stroke-width:1px;stroke-linecap:butt;stroke-linejoin:miter;stroke-opacity:1" />
    </g>
    <g
       id="g3697"
       transform="translate(0,40)">
      <rect
         y="612.36218"
         x="-400"
         height="160"
         width="600"
         id="rect2602"
         style="fill:#ffffff;fill-rule:evenodd;stroke:#000000;stroke-width:1px;stroke-linecap:butt;stroke-linejoin:miter;stroke-opacity:1" />
      <rect
         y="652.36218"
         x="-400"
         height="120"
         width="40"
         id="rect2604"
         style="fill:#0000ff;fill-rule:evenodd;stroke:#000000;stroke-width:1px;stroke-linecap:butt;stroke-linejoin:miter;stroke-opacity:1" />
      <rect
         y="612.36218"
         x="-240"
         height="160"
         width="40"
         id="rect2608"
         style="fill:#0000ff;fill-rule:evenodd;stroke:#000000;stroke-width:1px;stroke-linecap:butt;stroke-linejoin:miter;stroke-opacity:1" />
      <rect
         y="692.36218"
         x="160.00003"
         height="80"
         width="40"
         id="rect2614"
         style="fill:#0000ff;fill-rule:evenodd;stroke:#000000;stroke-width:1px;stroke-linecap:butt;stroke-linejoin:miter;stroke-opacity:1" />
    </g>
    <g
       id="g3703"
       transform="translate(0,40)">
      <rect
         y="812.36218"
         x="-400"
         height="160"
         width="600"
         id="rect2620"
         style="fill:#ffffff;fill-rule:evenodd;stroke:#000000;stroke-width:1px;stroke-linecap:butt;stroke-linejoin:miter;stroke-opacity:1" />
      <rect
         y="812.36218"
         x="-400"
         height="160"
         width="40"
         id="rect2622"
         style="fill:#0000ff;fill-rule:evenodd;stroke:#000000;stroke-width:1px;stroke-linecap:butt;stroke-linejoin:miter;stroke-opacity:1" />
      <rect
         y="892.36218"
         x="-320"
         height="80"
         width="40"
         id="rect2624"
         style="fill:#0000ff;fill-rule:evenodd;stroke:#000000;stroke-width:1px;stroke-linecap:butt;stroke-linejoin:miter;stroke-opacity:1" />
      <rect
         y="932.36218"
         x="-240"
         height="40"
         width="39.999985"
         id="rect2626"
         style="fill:#0000ff;fill-rule:evenodd;stroke:#000000;stroke-width:1px;stroke-linecap:butt;stroke-linejoin:miter;stroke-opacity:1" />
      <rect
         y="932.36218"
         x="-160"
         height="40"
         width="39.999985"
         id="rect2628"
         style="fill:#0000ff;fill-rule:evenodd;stroke:#000000;stroke-width:1px;stroke-linecap:butt;stroke-linejoin:miter;stroke-opacity:1" />
      <rect
         y="932.36218"
         x="80"
         height="40"
         width="40"
         id="rect2630"
         style="fill:#0000ff;fill-rule:evenodd;stroke:#000000;stroke-width:1px;stroke-linecap:butt;stroke-linejoin:miter;stroke-opacity:1" />
      <rect
         y="932.36218"
         x="160"
         height="40"
         width="40"
         id="rect2632"
         style="fill:#0000ff;fill-rule:evenodd;stroke:#000000;stroke-width:1px;stroke-linecap:butt;stroke-linejoin:miter;stroke-opacity:1" />
      <rect
         y="932.36218"
         x="-80"
         height="40"
         width="40"
         id="rect2634"
         style="fill:#0000ff;fill-rule:evenodd;stroke:#000000;stroke-width:1px;stroke-linecap:butt;stroke-linejoin:miter;stroke-opacity:1" />
      <rect
         y="932.36218"
         x="0"
         height="40"
         width="40"
         id="rect2636"
         style="fill:#0000ff;fill-rule:evenodd;stroke:#000000;stroke-width:1px;stroke-linecap:butt;stroke-linejoin:miter;stroke-opacity:1" />
    </g>
    <rect
       style="fill:#0000ff;fill-rule:evenodd;stroke:#000000;stroke-width:1px;stroke-linecap:butt;stroke-linejoin:miter;stroke-opacity:1"
       id="rect2638"
       width="0"
       height="0"
       x="-320"
       y="932.36218" />
    <g
       id="g3438"
       transform="translate(-172.86767,0.5027826)">
      <path
         sodipodi:nodetypes="cccscc"
         id="path2640"
         d="M -828.32809,362.4113 C -867.01278,517.6643 -898.06338,509.92736 -898.06338,509.92736 L -773.86098,540.87512 C -773.86098,540.87512 -735.07344,517.56145 -719.59957,455.46025 C -688.65182,331.25785 -704.12569,393.35905 -704.12569,393.35905 L -828.32809,362.4113 z"
         style="fill:#f2f2f2;fill-opacity:1;fill-rule:evenodd;stroke:#000000;stroke-width:0.80000001px;stroke-linecap:butt;stroke-linejoin:miter;stroke-opacity:1" />
      <path
         sodipodi:nodetypes="cccscc"
         id="path3412"
         d="M -823.46313,380.70163 C -862.14782,535.95463 -893.19842,528.21769 -893.19842,528.21769 L -768.99602,559.16544 C -768.99602,559.16544 -730.20848,535.85178 -714.7346,473.75058 C -683.78685,349.54818 -699.26073,411.64938 -699.26073,411.64938 L -823.46313,380.70163 z"
         style="fill:#f2f2f2;fill-opacity:1;fill-rule:evenodd;stroke:#000000;stroke-width:0.80000001px;stroke-linecap:butt;stroke-linejoin:miter;stroke-opacity:1" />
      <path
         sodipodi:nodetypes="cccscc"
         id="path3414"
         d="M -815.13681,394.55432 C -853.8215,549.80732 -884.8721,542.07039 -884.8721,542.07039 L -760.6697,573.01814 C -760.6697,573.01814 -721.88216,549.70448 -706.40829,487.60327 C -675.46053,363.40087 -690.93441,425.50207 -690.93441,425.50207 L -815.13681,394.55432 z"
         style="fill:#f2f2f2;fill-opacity:1;fill-rule:evenodd;stroke:#000000;stroke-width:0.80000001px;stroke-linecap:butt;stroke-linejoin:miter;stroke-opacity:1" />
      <path
         sodipodi:nodetypes="cccscc"
         id="path3416"
         d="M -894.94649,413.60148 C -834.35776,561.68593 -863.97466,573.80367 -863.97466,573.80367 L -745.50709,525.33269 C -745.50709,525.33269 -728.00795,483.59806 -752.24343,424.36427 C -800.71442,305.89671 -776.47893,365.13049 -776.47893,365.13049 L -894.94649,413.60148 z"
         style="fill:#f2f2f2;fill-opacity:1;fill-rule:evenodd;stroke:#000000;stroke-width:0.80000001px;stroke-linecap:butt;stroke-linejoin:miter;stroke-opacity:1" />
      <path
         sodipodi:nodetypes="cccscc"
         id="path3418"
         d="M -956.57481,625.89139 C -895.98608,773.97585 -925.60297,786.0936 -925.60297,786.0936 L -807.1354,737.62261 C -807.1354,737.62261 -789.63626,695.88798 -813.87175,636.65419 C -862.34273,518.18663 -838.10724,577.4204 -838.10724,577.4204 L -956.57481,625.89139 z"
         style="fill:#f2f2f2;fill-opacity:1;fill-rule:evenodd;stroke:#000000;stroke-width:0.80000001px;stroke-linecap:butt;stroke-linejoin:miter;stroke-opacity:1" />
      <path
         sodipodi:nodetypes="cccscc"
         id="path3420"
         d="M -881.59944,473.39558 C -920.28413,628.64858 -951.33473,620.91165 -951.33473,620.91165 L -827.13233,651.8594 C -827.13233,651.8594 -788.34479,628.54574 -772.87092,566.44454 C -741.92316,442.24213 -757.39704,504.34334 -757.39704,504.34334 L -881.59944,473.39558 z"
         style="fill:#f2f2f2;fill-opacity:1;fill-rule:evenodd;stroke:#000000;stroke-width:0.80000001px;stroke-linecap:butt;stroke-linejoin:miter;stroke-opacity:1" />
      <path
         sodipodi:nodetypes="cccscc"
         id="path3422"
         d="M -1009.7614,434.02939 C -949.17264,582.11385 -978.78953,594.23159 -978.78953,594.23159 L -860.32197,545.76061 C -860.32197,545.76061 -842.82282,504.02597 -867.05831,444.79219 C -915.5293,326.32463 -891.2938,385.5584 -891.2938,385.5584 L -1009.7614,434.02939 z"
         style="fill:#f2f2f2;fill-opacity:1;fill-rule:evenodd;stroke:#000000;stroke-width:0.80000001px;stroke-linecap:butt;stroke-linejoin:miter;stroke-opacity:1" />
      <path
         sodipodi:nodetypes="cccscc"
         id="path3424"
         d="M -900.23261,571.81031 C -938.9173,727.06331 -969.9679,719.32637 -969.9679,719.32637 L -845.7655,750.27413 C -845.7655,750.27413 -806.97796,726.96046 -791.50408,664.85926 C -760.55633,540.65686 -776.03021,602.75806 -776.03021,602.75806 L -900.23261,571.81031 z"
         style="fill:#f2f2f2;fill-opacity:1;fill-rule:evenodd;stroke:#000000;stroke-width:0.80000001px;stroke-linecap:butt;stroke-linejoin:miter;stroke-opacity:1" />
      <path
         sodipodi:nodetypes="cccscc"
         id="path3426"
         d="M -711.06256,377.25945 C -650.47223,525.34784 -621.28391,513.40544 -621.28391,513.40544 L -738.03715,561.17501 C -738.03715,561.17501 -779.34352,543.49972 -803.57965,484.26437 C -852.05192,365.79366 -827.81579,425.02902 -827.81579,425.02902 L -711.06256,377.25945 z"
         style="fill:#f2f2f2;fill-opacity:1;fill-rule:evenodd;stroke:#000000;stroke-width:0.79420114px;stroke-linecap:butt;stroke-linejoin:miter;stroke-opacity:1" />
      <path
         sodipodi:nodetypes="cccscc"
         id="path3428"
         d="M -653.23301,503.79548 C -691.91873,659.0526 -661.31746,666.67758 -661.31746,666.67758 L -783.72255,636.17767 C -783.72255,636.17767 -806.58667,597.50127 -791.11239,535.39842 C -760.16381,411.19272 -775.6381,473.29557 -775.6381,473.29557 L -653.23301,503.79548 z"
         style="fill:#f2f2f2;fill-opacity:1;fill-rule:evenodd;stroke:#000000;stroke-width:0.79420114px;stroke-linecap:butt;stroke-linejoin:miter;stroke-opacity:1" />
      <path
         sodipodi:nodetypes="cccscc"
         id="path3430"
         d="M -666.92531,512.16206 C -705.61103,667.41919 -675.00976,675.04416 -675.00976,675.04416 L -797.41484,644.54425 C -797.41484,644.54425 -820.27897,605.86785 -804.80469,543.765 C -773.85611,419.5593 -789.3304,481.66215 -789.3304,481.66215 L -666.92531,512.16206 z"
         style="fill:#f2f2f2;fill-opacity:1;fill-rule:evenodd;stroke:#000000;stroke-width:0.79420114px;stroke-linecap:butt;stroke-linejoin:miter;stroke-opacity:1" />
      <path
         sodipodi:nodetypes="cccscc"
         id="path3432"
         d="M -650.08815,622.3599 C -688.77387,777.61702 -658.1726,785.242 -658.1726,785.242 L -780.57769,754.74209 C -780.57769,754.74209 -803.44181,716.06569 -787.96753,653.96283 C -757.01895,529.75713 -772.49324,591.85998 -772.49324,591.85998 L -650.08815,622.3599 z"
         style="fill:#f2f2f2;fill-opacity:1;fill-rule:evenodd;stroke:#000000;stroke-width:0.79420114px;stroke-linecap:butt;stroke-linejoin:miter;stroke-opacity:1" />
      <rect
         transform="matrix(0.9703313,0.2417793,-0.2417793,0.9703313,0,0)"
         y="669.07452"
         x="-716.12903"
         height="197.14285"
         width="145.71428"
         id="rect3434"
         style="fill:#f2f2f2;fill-rule:evenodd;stroke:#000000;stroke-width:1px;stroke-linecap:butt;stroke-linejoin:miter;stroke-opacity:1" />
      <rect
         transform="matrix(0.8693772,-0.4941491,0.4941491,0.8693772,0,0)"
         y="11.8603"
         x="-1005.6647"
         height="197.14285"
         width="145.71428"
         id="rect3436"
         style="fill:#f2f2f2;fill-rule:evenodd;stroke:#000000;stroke-width:1px;stroke-linecap:butt;stroke-linejoin:miter;stroke-opacity:1" />
    </g>
    <path
       style="fill:#ff0000;fill-rule:evenodd;stroke:#000000;stroke-width:1px;stroke-linecap:butt;stroke-linejoin:miter;stroke-opacity:1"
       d="M -760,532.36218 C -560,532.36218 -560,532.36218 -560,532.36218 L -560,452.36218 L -440,572.36218 L -560,692.36218 L -560,612.36218 L -760,612.36218 L -760,532.36218 z"
       id="path3454" />
    <path
       style="fill:#ff0000;fill-rule:evenodd;stroke:#000000;stroke-width:1px;stroke-linecap:butt;stroke-linejoin:miter;stroke-opacity:1"
       d="M 280,532.36218 C 480,532.36218 480,532.36218 480,532.36218 L 480,452.36218 L 600,572.36218 L 480,692.36218 L 480,612.36218 L 280,612.36218 L 280,532.36218 z"
       id="path3456" />
    <g
       id="g3813"
       transform="matrix(0.866535,0,0,0.7,96.094783,227.70866)">
      <path
         id="path3788"
         d="M 759.94556,492.36218 C 673.27889,492.36218 766.61223,532.36218 679.94556,532.36218 C 653.27889,532.36218 679.94556,479.02885 679.94556,452.36218 C 679.94556,291.40779 639.94556,437.74433 639.94556,332.36218 C 639.94556,327.59097 679.94556,356.27992 679.94556,292.36218 C 679.94556,212.36219 679.94556,132.36219 679.94556,52.362186 C 602.91979,45.269691 672.22,52.362186 719.94556,52.362186 C 741.02376,52.362186 685.58309,92.362186 759.94556,92.362186 C 813.27889,92.362186 866.61223,92.362186 919.94556,92.362186 C 919.94556,39.028852 906.61223,52.362186 959.94556,52.362186 C 1046.6123,52.362186 953.27889,92.362186 1039.9456,92.362186 C 1099.3242,92.362186 981.07466,132.36219 1079.9456,132.36219 C 1240.9,132.36219 1094.5634,92.362186 1199.9456,92.362186 C 1208.9308,92.362186 1241.4037,52.362186 1279.9456,52.362186 C 1440.9,52.362186 1294.5634,92.362186 1399.9456,92.362186 C 1430.5404,92.362186 1359.9456,171.18935 1359.9456,212.36219 C 1359.9456,305.69552 1359.9456,399.02885 1359.9456,492.36218 C 1359.9456,595.96973 1319.9456,405.32822 1319.9456,532.36218 C 1319.9456,608.64585 1279.9456,588.24247 1279.9456,532.36218 C 1279.9456,505.69552 1226.6123,532.36218 1199.9456,532.36218 C 1133.2789,532.36218 1066.6123,532.36218 999.94556,532.36218 C 986.61223,532.36218 999.94556,505.69552 999.94556,492.36218 C 999.94556,465.69552 946.61223,492.36218 919.94556,492.36218 C 866.61223,492.36218 813.27889,492.36218 759.94556,492.36218"
         style="fill:#ff7f2a;fill-rule:evenodd;stroke:#000000;stroke-width:1px;stroke-linecap:butt;stroke-linejoin:miter;stroke-opacity:1"
         sodipodi:nodetypes="cssssccscssssssssssssssc" />
      <g
         transform="translate(80.091187,79.645633)"
         id="g3658">
        <rect
           style="fill:#ffffff;fill-rule:evenodd;stroke:#000000;stroke-width:1px;stroke-linecap:butt;stroke-linejoin:miter;stroke-opacity:1"
           id="rect3582"
           width="600"
           height="160"
           x="640"
           y="52.362183" />
        <rect
           style="fill:#0000ff;fill-rule:evenodd;stroke:#000000;stroke-width:0.81758398px;stroke-linecap:butt;stroke-linejoin:miter;stroke-opacity:1"
           id="rect3584"
           width="40.182415"
           height="79.849083"
           x="639.90881"
           y="132.60431" />
        <rect
           style="fill:#0000ff;fill-rule:evenodd;stroke:#000000;stroke-width:1px;stroke-linecap:butt;stroke-linejoin:miter;stroke-opacity:1"
           id="rect3586"
           width="40"
           height="80"
           x="720"
           y="132.36218" />
        <rect
           style="fill:#0000ff;fill-rule:evenodd;stroke:#000000;stroke-width:0.70874989px;stroke-linecap:butt;stroke-linejoin:miter;stroke-opacity:1"
           id="rect3588"
           width="40.291248"
           height="79.791252"
           x="799.85437"
           y="132.71655" />
        <rect
           style="fill:#0000ff;fill-rule:evenodd;stroke:#000000;stroke-width:0.81758398px;stroke-linecap:butt;stroke-linejoin:miter;stroke-opacity:1"
           id="rect3590"
           width="40.182415"
           height="79.849083"
           x="879.90881"
           y="132.60431" />
        <rect
           style="fill:#0000ff;fill-rule:evenodd;stroke:#000000;stroke-width:0.81758398px;stroke-linecap:butt;stroke-linejoin:miter;stroke-opacity:1"
           id="rect3592"
           width="40.182415"
           height="79.849083"
           x="1119.9088"
           y="132.60431" />
        <rect
           style="fill:#0000ff;fill-rule:evenodd;stroke:#000000;stroke-width:1px;stroke-linecap:butt;stroke-linejoin:miter;stroke-opacity:1"
           id="rect3594"
           width="40"
           height="80"
           x="1200"
           y="132.36218" />
        <rect
           style="fill:#0000ff;fill-rule:evenodd;stroke:#000000;stroke-width:1px;stroke-linecap:butt;stroke-linejoin:miter;stroke-opacity:1"
           id="rect3596"
           width="40"
           height="80"
           x="960"
           y="132.36218" />
        <rect
           style="fill:#0000ff;fill-rule:evenodd;stroke:#000000;stroke-width:1px;stroke-linecap:butt;stroke-linejoin:miter;stroke-opacity:1"
           id="rect3598"
           width="40"
           height="80"
           x="1040"
           y="132.36218" />
      </g>
      <g
         transform="matrix(0.4533768,0,0,0.5,905.54034,266.18109)"
         id="g3714">
        <rect
           style="fill:#ffffff;fill-rule:evenodd;stroke:#000000;stroke-width:1px;stroke-linecap:butt;stroke-linejoin:miter;stroke-opacity:1"
           id="rect3716"
           width="600"
           height="160"
           x="-400"
           y="212.36218" />
        <rect
           style="fill:#0000ff;fill-rule:evenodd;stroke:#000000;stroke-width:1px;stroke-linecap:butt;stroke-linejoin:miter;stroke-opacity:1"
           id="rect3718"
           width="40"
           height="120"
           x="-400"
           y="252.36218" />
        <rect
           style="fill:#0000ff;fill-rule:evenodd;stroke:#000000;stroke-width:1px;stroke-linecap:butt;stroke-linejoin:miter;stroke-opacity:1"
           id="rect3720"
           width="40"
           height="80"
           x="-320"
           y="292.36218" />
        <rect
           style="fill:#0000ff;fill-rule:evenodd;stroke:#000000;stroke-width:1px;stroke-linecap:butt;stroke-linejoin:miter;stroke-opacity:1"
           id="rect3722"
           width="40"
           height="160"
           x="-240"
           y="212.36218" />
        <rect
           style="fill:#0000ff;fill-rule:evenodd;stroke:#000000;stroke-width:1px;stroke-linecap:butt;stroke-linejoin:miter;stroke-opacity:1"
           id="rect3724"
           width="40"
           height="120"
           x="-160"
           y="252.36218" />
        <rect
           style="fill:#0000ff;fill-rule:evenodd;stroke:#000000;stroke-width:1px;stroke-linecap:butt;stroke-linejoin:miter;stroke-opacity:1"
           id="rect3726"
           width="40"
           height="120"
           x="80"
           y="252.36218" />
        <rect
           style="fill:#0000ff;fill-rule:evenodd;stroke:#000000;stroke-width:1px;stroke-linecap:butt;stroke-linejoin:miter;stroke-opacity:1"
           id="rect3728"
           width="40"
           height="80"
           x="160"
           y="292.36218" />
        <rect
           style="fill:#0000ff;fill-rule:evenodd;stroke:#000000;stroke-width:1px;stroke-linecap:butt;stroke-linejoin:miter;stroke-opacity:1"
           id="rect3730"
           width="40"
           height="80"
           x="-80"
           y="292.36218" />
        <rect
           style="fill:#0000ff;fill-rule:evenodd;stroke:#000000;stroke-width:1px;stroke-linecap:butt;stroke-linejoin:miter;stroke-opacity:1"
           id="rect3732"
           width="40"
           height="80"
           x="0"
           y="292.36218" />
      </g>
      <g
         transform="matrix(0.4592593,0,0,0.5,1227.5888,166.18109)"
         id="g3734">
        <rect
           style="fill:#ffffff;fill-rule:evenodd;stroke:#000000;stroke-width:1px;stroke-linecap:butt;stroke-linejoin:miter;stroke-opacity:1"
           id="rect3736"
           width="600"
           height="160"
           x="-201"
           y="412.36218"
           transform="scale(-1,1)" />
        <rect
           style="fill:#0000ff;fill-rule:evenodd;stroke:#000000;stroke-width:1px;stroke-linecap:butt;stroke-linejoin:miter;stroke-opacity:1"
           id="rect3738"
           width="40"
           height="120"
           x="-201"
           y="452.36218"
           transform="scale(-1,1)" />
        <rect
           style="fill:#0000ff;fill-rule:evenodd;stroke:#000000;stroke-width:1px;stroke-linecap:butt;stroke-linejoin:miter;stroke-opacity:1"
           id="rect3740"
           width="40"
           height="80"
           x="-121"
           y="492.36218"
           transform="scale(-1,1)" />
        <rect
           style="fill:#0000ff;fill-rule:evenodd;stroke:#000000;stroke-width:1px;stroke-linecap:butt;stroke-linejoin:miter;stroke-opacity:1"
           id="rect3742"
           width="40"
           height="160"
           x="-41"
           y="412.36218"
           transform="scale(-1,1)" />
        <rect
           style="fill:#0000ff;fill-rule:evenodd;stroke:#000000;stroke-width:1px;stroke-linecap:butt;stroke-linejoin:miter;stroke-opacity:1"
           id="rect3744"
           width="40"
           height="120"
           x="39"
           y="452.36218"
           transform="scale(-1,1)" />
        <rect
           style="fill:#0000ff;fill-rule:evenodd;stroke:#000000;stroke-width:1px;stroke-linecap:butt;stroke-linejoin:miter;stroke-opacity:1"
           id="rect3746"
           width="40"
           height="120"
           x="279"
           y="452.36218"
           transform="scale(-1,1)" />
        <rect
           style="fill:#0000ff;fill-rule:evenodd;stroke:#000000;stroke-width:1px;stroke-linecap:butt;stroke-linejoin:miter;stroke-opacity:1"
           id="rect3748"
           width="40"
           height="80"
           x="359"
           y="492.36218"
           transform="scale(-1,1)" />
        <rect
           style="fill:#0000ff;fill-rule:evenodd;stroke:#000000;stroke-width:1px;stroke-linecap:butt;stroke-linejoin:miter;stroke-opacity:1"
           id="rect3750"
           width="40"
           height="80"
           x="119"
           y="492.36218"
           transform="scale(-1,1)" />
        <rect
           style="fill:#0000ff;fill-rule:evenodd;stroke:#000000;stroke-width:1px;stroke-linecap:butt;stroke-linejoin:miter;stroke-opacity:1"
           id="rect3752"
           width="40"
           height="80"
           x="199"
           y="492.36218"
           transform="scale(-1,1)" />
      </g>
    </g>
    <g
       id="g3790"
       transform="matrix(0.8241765,0,0,0.75,130.41338,243.09055)">
      <path
         id="path3786"
         d="M 880,572.36218 C 838.63523,613.72695 720,507.78322 720,612.36218 C 720,625.69552 693.33333,612.36218 680,612.36218 C 653.33333,612.36218 680,665.69552 680,692.36218 C 680,799.02885 680,905.69552 680,1012.3622 C 680,1029.3488 720,980.6839 720,1052.3622 C 720,1079.0288 773.33333,1052.3622 800,1052.3622 C 986.66667,1052.3622 1173.3333,1052.3622 1360,1052.3622 C 1373.3333,1052.3622 1360,1025.6955 1360,1012.3622 C 1360,999.02885 1386.6667,1012.3622 1400,1012.3622 C 1413.3333,1012.3622 1373.3333,1012.3622 1360,1012.3622 C 1333.3333,1012.3622 1360,959.02885 1360,932.36218 C 1360,879.02885 1360,825.69552 1360,772.36218 C 1360,667.88355 1400,860.03398 1400,732.36218 C 1400,609.07855 1396.7217,689.08392 1320,612.36218 C 1277.3201,569.68226 1120,676.82576 1120,572.36218 C 1120,500.70812 1040,644.15643 1040,532.36218 C 1040,501.76735 961.17283,572.36218 920,572.36218 C 906.66667,572.36218 893.33333,572.36218 880,572.36218 z"
         style="fill:#ff8080;fill-rule:evenodd;stroke:#000000;stroke-width:1px;stroke-linecap:butt;stroke-linejoin:miter;stroke-opacity:1" />
      <g
         transform="translate(49.37637,-40.354369)"
         id="g3669">
        <rect
           style="fill:#ffffff;fill-rule:evenodd;stroke:#000000;stroke-width:1px;stroke-linecap:butt;stroke-linejoin:miter;stroke-opacity:1"
           id="rect3618"
           width="600"
           height="160"
           x="680"
           y="692.36218" />
        <rect
           style="fill:#0000ff;fill-rule:evenodd;stroke:#000000;stroke-width:1px;stroke-linecap:butt;stroke-linejoin:miter;stroke-opacity:1"
           id="rect3620"
           width="40"
           height="120"
           x="680"
           y="732.36218" />
        <rect
           style="fill:#0000ff;fill-rule:evenodd;stroke:#000000;stroke-width:0.70874989px;stroke-linecap:butt;stroke-linejoin:miter;stroke-opacity:1"
           id="rect3622"
           width="40.291248"
           height="79.791252"
           x="839.85437"
           y="772.71655" />
        <rect
           style="fill:#0000ff;fill-rule:evenodd;stroke:#000000;stroke-width:0.7078383px;stroke-linecap:butt;stroke-linejoin:miter;stroke-opacity:1"
           id="rect3624"
           width="40.29216"
           height="39.79216"
           x="1239.8539"
           y="812.71613" />
      </g>
      <g
         transform="matrix(0.4666667,0,0,0.5,915.89739,586.18109)"
         id="g3754">
        <rect
           style="fill:#ffffff;fill-rule:evenodd;stroke:#000000;stroke-width:1px;stroke-linecap:butt;stroke-linejoin:miter;stroke-opacity:1"
           id="rect3756"
           width="600"
           height="160"
           x="-400"
           y="612.36218" />
        <rect
           style="fill:#0000ff;fill-rule:evenodd;stroke:#000000;stroke-width:1px;stroke-linecap:butt;stroke-linejoin:miter;stroke-opacity:1"
           id="rect3758"
           width="40"
           height="120"
           x="-400"
           y="652.36218" />
        <rect
           style="fill:#0000ff;fill-rule:evenodd;stroke:#000000;stroke-width:1px;stroke-linecap:butt;stroke-linejoin:miter;stroke-opacity:1"
           id="rect3760"
           width="40"
           height="160"
           x="-240"
           y="612.36218" />
        <rect
           style="fill:#0000ff;fill-rule:evenodd;stroke:#000000;stroke-width:1px;stroke-linecap:butt;stroke-linejoin:miter;stroke-opacity:1"
           id="rect3762"
           width="40"
           height="80"
           x="160.00003"
           y="692.36218" />
      </g>
      <g
         transform="matrix(0.4615385,0,0,0.5,1230.7692,486.18109)"
         id="g3764">
        <rect
           style="fill:#ffffff;fill-rule:evenodd;stroke:#000000;stroke-width:1px;stroke-linecap:butt;stroke-linejoin:miter;stroke-opacity:1"
           id="rect3766"
           width="600"
           height="160"
           x="-400"
           y="812.36218" />
        <rect
           style="fill:#0000ff;fill-rule:evenodd;stroke:#000000;stroke-width:1px;stroke-linecap:butt;stroke-linejoin:miter;stroke-opacity:1"
           id="rect3768"
           width="40"
           height="160"
           x="-400"
           y="812.36218" />
        <rect
           style="fill:#0000ff;fill-rule:evenodd;stroke:#000000;stroke-width:1px;stroke-linecap:butt;stroke-linejoin:miter;stroke-opacity:1"
           id="rect3770"
           width="40"
           height="80"
           x="-320"
           y="892.36218" />
        <rect
           style="fill:#0000ff;fill-rule:evenodd;stroke:#000000;stroke-width:1px;stroke-linecap:butt;stroke-linejoin:miter;stroke-opacity:1"
           id="rect3772"
           width="39.999985"
           height="40"
           x="-240"
           y="932.36218" />
        <rect
           style="fill:#0000ff;fill-rule:evenodd;stroke:#000000;stroke-width:1px;stroke-linecap:butt;stroke-linejoin:miter;stroke-opacity:1"
           id="rect3774"
           width="39.999985"
           height="40"
           x="-160"
           y="932.36218" />
        <rect
           style="fill:#0000ff;fill-rule:evenodd;stroke:#000000;stroke-width:1px;stroke-linecap:butt;stroke-linejoin:miter;stroke-opacity:1"
           id="rect3776"
           width="40"
           height="40"
           x="80"
           y="932.36218" />
        <rect
           style="fill:#0000ff;fill-rule:evenodd;stroke:#000000;stroke-width:1px;stroke-linecap:butt;stroke-linejoin:miter;stroke-opacity:1"
           id="rect3778"
           width="40"
           height="40"
           x="160"
           y="932.36218" />
        <rect
           style="fill:#0000ff;fill-rule:evenodd;stroke:#000000;stroke-width:1px;stroke-linecap:butt;stroke-linejoin:miter;stroke-opacity:1"
           id="rect3780"
           width="40"
           height="40"
           x="-80"
           y="932.36218" />
        <rect
           style="fill:#0000ff;fill-rule:evenodd;stroke:#000000;stroke-width:1px;stroke-linecap:butt;stroke-linejoin:miter;stroke-opacity:1"
           id="rect3782"
           width="40"
           height="40"
           x="0"
           y="932.36218" />
      </g>
    </g>
    <text
       xml:space="preserve"
       style="font-size:64px;font-style:normal;font-weight:bold;fill:#000000;fill-opacity:1;stroke:none;stroke-width:1px;stroke-linecap:butt;stroke-linejoin:miter;stroke-opacity:1;font-family:Sans"
       x="-1120"
       y="172.36218"
       id="text3854"><tspan
         sodipodi:role="line"
         id="tspan3856"
         x="-1120"
         y="172.36218"> Commit</tspan><tspan
         sodipodi:role="line"
         x="-1120"
         y="252.36218"
         id="tspan3858">Messages</tspan></text>
    <text
       xml:space="preserve"
       style="font-size:64px;font-style:normal;font-weight:bold;fill:#000000;fill-opacity:1;stroke:none;stroke-width:1px;stroke-linecap:butt;stroke-linejoin:miter;stroke-opacity:1;font-family:Sans"
       x="-400"
       y="172.36218"
       id="text3860"><tspan
         sodipodi:role="line"
         id="tspan3862"
         x="-400"
         y="172.36218">Word Distribution</tspan></text>
    <text
       xml:space="preserve"
       style="font-size:64px;font-style:normal;font-weight:bold;fill:#000000;fill-opacity:1;stroke:none;stroke-width:1px;stroke-linecap:butt;stroke-linejoin:miter;stroke-opacity:1;font-family:Sans"
       x="680"
       y="172.36218"
       id="text3864"><tspan
         sodipodi:role="line"
         id="tspan3866"
         x="680"
         y="172.36218">Topics (Clusters of</tspan><tspan
         sodipodi:role="line"
         x="680"
         y="252.36218"
         id="tspan3868">word distributions)</tspan></text>
  </g>
</svg>
