<?xml version="1.0" encoding="UTF-8" standalone="no"?>
<!-- Created with Inkscape (http://www.inkscape.org/) -->
<svg
   xmlns:dc="http://purl.org/dc/elements/1.1/"
   xmlns:cc="http://creativecommons.org/ns#"
   xmlns:rdf="http://www.w3.org/1999/02/22-rdf-syntax-ns#"
   xmlns:svg="http://www.w3.org/2000/svg"
   xmlns="http://www.w3.org/2000/svg"
   xmlns:sodipodi="http://sodipodi.sourceforge.net/DTD/sodipodi-0.dtd"
   xmlns:inkscape="http://www.inkscape.org/namespaces/inkscape"
   width="920.48999"
   height="553.83868"
   id="svg2"
   sodipodi:version="0.32"
   inkscape:version="0.46"
   version="1.0"
   sodipodi:docname="transitiveclosure.svg"
   inkscape:output_extension="org.inkscape.output.svg.inkscape">
  <defs
     id="defs4" />
  <sodipodi:namedview
     id="base"
     pagecolor="#ffffff"
     bordercolor="#666666"
     borderopacity="1.0"
     gridtolerance="10000"
     guidetolerance="10"
     objecttolerance="10"
     inkscape:pageopacity="0.0"
     inkscape:pageshadow="2"
     inkscape:zoom="0.49497475"
     inkscape:cx="375"
     inkscape:cy="414.16469"
     inkscape:document-units="px"
     inkscape:current-layer="layer1"
     showgrid="true"
     inkscape:snap-global="true"
     inkscape:window-width="1016"
     inkscape:window-height="760"
     inkscape:window-x="0"
     inkscape:window-y="0">
    <inkscape:grid
       type="xygrid"
       id="grid2453"
       visible="true"
       enabled="true" />
  </sodipodi:namedview>
  <metadata
     id="metadata7">
    <rdf:RDF>
      <cc:Work
         rdf:about="">
        <dc:format>image/svg+xml</dc:format>
        <dc:type
           rdf:resource="http://purl.org/dc/dcmitype/StillImage" />
      </cc:Work>
    </rdf:RDF>
  </metadata>
  <g
     inkscape:label="Layer 1"
     inkscape:groupmode="layer"
     id="layer1"
     transform="translate(189.60476,-207.22985)">
    <g
       id="g2483"
       transform="translate(-102.85714,8.5714293)">
      <path
         id="path2441"
         d="M 34.285714,269.50504 C 137.14286,206.6479 152.85714,273.79075 202.85714,236.6479 C 252.85714,199.50504 225.71429,200.93361 252.85714,199.50504 C 280,198.07647 372.85714,198.07647 391.42857,262.36218 C 410,326.6479 442.85714,408.07647 381.42857,425.21933 C 320,442.36218 320,355.21933 262.85714,386.6479 C 205.71429,418.07647 180,445.21933 115.71429,413.79075 C 51.428571,382.36218 14.285714,333.79075 34.285714,269.50504 z"
         style="fill:#ffb380;fill-rule:evenodd;stroke:#000000;stroke-width:1px;stroke-linecap:butt;stroke-linejoin:miter;stroke-opacity:1" />
      <path
         d="M 217.14286,360.93362 A 22.857143,22.857143 0 1 1 171.42858,360.93362 A 22.857143,22.857143 0 1 1 217.14286,360.93362 z"
         sodipodi:ry="22.857143"
         sodipodi:rx="22.857143"
         sodipodi:cy="360.93362"
         sodipodi:cx="194.28572"
         id="path2389"
         style="fill:#000000;fill-opacity:1;stroke:none;stroke-opacity:1"
         sodipodi:type="arc" />
      <path
         transform="translate(-91.428576,-80.00001)"
         d="M 217.14286,360.93362 A 22.857143,22.857143 0 1 1 171.42858,360.93362 A 22.857143,22.857143 0 1 1 217.14286,360.93362 z"
         sodipodi:ry="22.857143"
         sodipodi:rx="22.857143"
         sodipodi:cy="360.93362"
         sodipodi:cx="194.28572"
         id="path2391"
         style="fill:#000000;fill-opacity:1;stroke:none;stroke-opacity:1"
         sodipodi:type="arc" />
      <path
         id="path2397"
         d="M 102.85714,286.6479 L 194.28571,360.93361 L 280,269.50504 L 360,343.79075"
         style="fill:none;fill-rule:evenodd;stroke:#000000;stroke-width:1px;stroke-linecap:butt;stroke-linejoin:miter;stroke-opacity:1" />
      <path
         transform="translate(87.142851,-91.428585)"
         d="M 217.14286,360.93362 A 22.857143,22.857143 0 1 1 171.42858,360.93362 A 22.857143,22.857143 0 1 1 217.14286,360.93362 z"
         sodipodi:ry="22.857143"
         sodipodi:rx="22.857143"
         sodipodi:cy="360.93362"
         sodipodi:cx="194.28572"
         id="path2409"
         style="fill:#000000;fill-opacity:1;stroke:none;stroke-opacity:1"
         sodipodi:type="arc" />
      <path
         transform="translate(171.42856,-17.142871)"
         d="M 217.14286,360.93362 A 22.857143,22.857143 0 1 1 171.42858,360.93362 A 22.857143,22.857143 0 1 1 217.14286,360.93362 z"
         sodipodi:ry="22.857143"
         sodipodi:rx="22.857143"
         sodipodi:cy="360.93362"
         sodipodi:cx="194.28572"
         id="path2411"
         style="fill:#000000;fill-opacity:1;stroke:none;stroke-opacity:1"
         sodipodi:type="arc" />
    </g>
    <g
       id="g2491"
       transform="translate(-200,29.999998)">
      <path
         id="path2439"
         d="M 261.42857,458.07647 C 35.714286,442.36218 30,493.79075 30,493.79075 C 30,493.79075 -15.714286,580.93361 34.285714,620.93361 C 84.285714,660.93361 134.28571,748.07647 222.85714,700.93361 C 311.42857,653.79075 347.14286,693.79075 338.57143,609.50504 C 330,525.21933 394.28571,538.07647 327.14286,498.07647 C 260,458.07647 261.42857,459.50504 261.42857,458.07647 z"
         style="fill:#ffd5d5;fill-rule:evenodd;stroke:#000000;stroke-width:1px;stroke-linecap:butt;stroke-linejoin:miter;stroke-opacity:1" />
      <path
         id="path2401"
         d="M 120,629.50504 L 117.14286,515.21933 L 234.28571,515.21933 L 234.28571,635.21933"
         style="fill:none;fill-rule:evenodd;stroke:#000000;stroke-width:1px;stroke-linecap:butt;stroke-linejoin:miter;stroke-opacity:1" />
      <path
         transform="translate(38.571423,154.2857)"
         d="M 217.14286,360.93362 A 22.857143,22.857143 0 1 1 171.42858,360.93362 A 22.857143,22.857143 0 1 1 217.14286,360.93362 z"
         sodipodi:ry="22.857143"
         sodipodi:rx="22.857143"
         sodipodi:cy="360.93362"
         sodipodi:cx="194.28572"
         id="path2419"
         style="fill:#000000;fill-opacity:1;stroke:none;stroke-opacity:1"
         sodipodi:type="arc" />
      <path
         transform="translate(38.571422,261.42856)"
         d="M 217.14286,360.93362 A 22.857143,22.857143 0 1 1 171.42858,360.93362 A 22.857143,22.857143 0 1 1 217.14286,360.93362 z"
         sodipodi:ry="22.857143"
         sodipodi:rx="22.857143"
         sodipodi:cy="360.93362"
         sodipodi:cx="194.28572"
         id="path2421"
         style="fill:#000000;fill-opacity:1;stroke:none;stroke-opacity:1"
         sodipodi:type="arc" />
      <path
         transform="translate(-77.142863,261.42856)"
         d="M 217.14286,360.93362 A 22.857143,22.857143 0 1 1 171.42858,360.93362 A 22.857143,22.857143 0 1 1 217.14286,360.93362 z"
         sodipodi:ry="22.857143"
         sodipodi:rx="22.857143"
         sodipodi:cy="360.93362"
         sodipodi:cx="194.28572"
         id="path2423"
         style="fill:#000000;fill-opacity:1;stroke:none;stroke-opacity:1"
         sodipodi:type="arc" />
      <path
         transform="translate(-77.142864,157.14284)"
         d="M 217.14286,360.93362 A 22.857143,22.857143 0 1 1 171.42858,360.93362 A 22.857143,22.857143 0 1 1 217.14286,360.93362 z"
         sodipodi:ry="22.857143"
         sodipodi:rx="22.857143"
         sodipodi:cy="360.93362"
         sodipodi:cx="194.28572"
         id="path2425"
         style="fill:#000000;fill-opacity:1;stroke:none;stroke-opacity:1"
         sodipodi:type="arc" />
    </g>
    <g
       id="g2499"
       transform="matrix(0.9465153,-0.322659,0.322659,0.9465153,-123.30886,264.88228)">
      <path
         sodipodi:nodetypes="cssssssssssc"
         id="path2443"
         d="M 465.71429,142.36218 C 420,223.79076 421.42857,215.21933 441.42857,283.79075 C 461.42857,352.36218 472.85714,365.21933 418.57143,418.07647 C 364.28571,470.93361 378.57143,493.79075 377.14286,535.21933 C 375.71429,576.6479 344.28571,639.50504 394.28571,658.07647 C 444.28571,676.6479 455.71429,619.50504 531.42857,638.07647 C 607.14286,656.6479 652.85714,709.50504 675.71429,662.36218 C 698.57143,615.21933 642.85714,553.79075 655.71429,530.93361 C 668.57143,508.07647 771.42857,455.21933 734.28571,412.36218 C 697.14286,369.50504 578.57143,408.07647 590,365.21933 C 601.42857,322.36218 631.42857,229.50504 587.14286,193.79075 C 542.85714,158.07647 467.14286,139.50504 465.71429,142.36218 z"
         style="fill:#afe9dd;fill-rule:evenodd;stroke:#000000;stroke-width:1px;stroke-linecap:butt;stroke-linejoin:miter;stroke-opacity:1" />
      <path
         id="path2403"
         d="M 505.71429,392.36218 L 517.14286,532.36218 L 637.14286,423.79075"
         style="fill:none;fill-rule:evenodd;stroke:#000000;stroke-width:1px;stroke-linecap:butt;stroke-linejoin:miter;stroke-opacity:1" />
      <path
         id="path2405"
         d="M 628.57143,600.93361 L 514.28571,526.6479 L 414.28571,609.50504"
         style="fill:none;fill-rule:evenodd;stroke:#000000;stroke-width:1px;stroke-linecap:butt;stroke-linejoin:miter;stroke-opacity:1" />
      <path
         id="path2407"
         d="M 517.14286,526.6479 L 420,466.6479"
         style="fill:none;fill-rule:evenodd;stroke:#000000;stroke-width:1px;stroke-linecap:butt;stroke-linejoin:miter;stroke-opacity:1" />
      <path
         transform="translate(325.71428,161.42856)"
         d="M 217.14286,360.93362 A 22.857143,22.857143 0 1 1 171.42858,360.93362 A 22.857143,22.857143 0 1 1 217.14286,360.93362 z"
         sodipodi:ry="22.857143"
         sodipodi:rx="22.857143"
         sodipodi:cy="360.93362"
         sodipodi:cx="194.28572"
         id="path2413"
         style="fill:#000000;fill-opacity:1;stroke:none;stroke-opacity:1"
         sodipodi:type="arc" />
      <path
         transform="translate(310,31.428557)"
         d="M 217.14286,360.93362 A 22.857143,22.857143 0 1 1 171.42858,360.93362 A 22.857143,22.857143 0 1 1 217.14286,360.93362 z"
         sodipodi:ry="22.857143"
         sodipodi:rx="22.857143"
         sodipodi:cy="360.93362"
         sodipodi:cx="194.28572"
         id="path2415"
         style="fill:#000000;fill-opacity:1;stroke:none;stroke-opacity:1"
         sodipodi:type="arc" />
      <path
         transform="translate(450,57.142843)"
         d="M 217.14286,360.93362 A 22.857143,22.857143 0 1 1 171.42858,360.93362 A 22.857143,22.857143 0 1 1 217.14286,360.93362 z"
         sodipodi:ry="22.857143"
         sodipodi:rx="22.857143"
         sodipodi:cy="360.93362"
         sodipodi:cx="194.28572"
         id="path2417"
         style="fill:#000000;fill-opacity:1;stroke:none;stroke-opacity:1"
         sodipodi:type="arc" />
      <path
         transform="translate(228.57142,109.99999)"
         d="M 217.14286,360.93362 A 22.857143,22.857143 0 1 1 171.42858,360.93362 A 22.857143,22.857143 0 1 1 217.14286,360.93362 z"
         sodipodi:ry="22.857143"
         sodipodi:rx="22.857143"
         sodipodi:cy="360.93362"
         sodipodi:cx="194.28572"
         id="path2427"
         style="fill:#000000;fill-opacity:1;stroke:none;stroke-opacity:1"
         sodipodi:type="arc" />
      <path
         transform="translate(224.28571,249.99999)"
         d="M 217.14286,360.93362 A 22.857143,22.857143 0 1 1 171.42858,360.93362 A 22.857143,22.857143 0 1 1 217.14286,360.93362 z"
         sodipodi:ry="22.857143"
         sodipodi:rx="22.857143"
         sodipodi:cy="360.93362"
         sodipodi:cx="194.28572"
         id="path2429"
         style="fill:#000000;fill-opacity:1;stroke:none;stroke-opacity:1"
         sodipodi:type="arc" />
      <path
         transform="translate(428.57142,244.2857)"
         d="M 217.14286,360.93362 A 22.857143,22.857143 0 1 1 171.42858,360.93362 A 22.857143,22.857143 0 1 1 217.14286,360.93362 z"
         sodipodi:ry="22.857143"
         sodipodi:rx="22.857143"
         sodipodi:cy="360.93362"
         sodipodi:cx="194.28572"
         id="path2431"
         style="fill:#000000;fill-opacity:1;stroke:none;stroke-opacity:1"
         sodipodi:type="arc" />
      <path
         transform="translate(344.2857,-82.857153)"
         d="M 217.14286,360.93362 A 22.857143,22.857143 0 1 1 171.42858,360.93362 A 22.857143,22.857143 0 1 1 217.14286,360.93362 z"
         sodipodi:ry="22.857143"
         sodipodi:rx="22.857143"
         sodipodi:cy="360.93362"
         sodipodi:cx="194.28572"
         id="path2433"
         style="fill:#000000;fill-opacity:1;stroke:none;stroke-opacity:1"
         sodipodi:type="arc" />
      <path
         transform="translate(285.71428,-170.00001)"
         d="M 217.14286,360.93362 A 22.857143,22.857143 0 1 1 171.42858,360.93362 A 22.857143,22.857143 0 1 1 217.14286,360.93362 z"
         sodipodi:ry="22.857143"
         sodipodi:rx="22.857143"
         sodipodi:cy="360.93362"
         sodipodi:cx="194.28572"
         id="path2435"
         style="fill:#000000;fill-opacity:1;stroke:none;stroke-opacity:1"
         sodipodi:type="arc" />
      <path
         id="path2437"
         d="M 512.85714,395.21933 L 538.57143,280.93361 L 482.85714,190.93361"
         style="fill:none;fill-rule:evenodd;stroke:#000000;stroke-width:1px;stroke-linecap:butt;stroke-linejoin:miter;stroke-opacity:1" />
    </g>
    <path
       sodipodi:type="arc"
       style="fill:#000000;fill-opacity:1;stroke:none;stroke-opacity:1"
       id="path2445"
       sodipodi:cx="194.28572"
       sodipodi:cy="360.93362"
       sodipodi:rx="22.857143"
       sodipodi:ry="22.857143"
       d="M 217.14286,360.93362 A 22.857143,22.857143 0 1 1 171.42858,360.93362 A 22.857143,22.857143 0 1 1 217.14286,360.93362 z"
       transform="matrix(-6.8770739e-3,0.9999764,-0.9999764,-6.8770739e-3,690.02238,310.752)" />
    <path
       sodipodi:type="arc"
       style="fill:#000000;fill-opacity:1;stroke:none;stroke-opacity:1"
       id="path2447"
       sodipodi:cx="194.28572"
       sodipodi:cy="360.93362"
       sodipodi:rx="22.857143"
       sodipodi:ry="22.857143"
       d="M 217.14286,360.93362 A 22.857143,22.857143 0 1 1 171.42858,360.93362 A 22.857143,22.857143 0 1 1 217.14286,360.93362 z"
       transform="matrix(-6.8770739e-3,0.9999764,-0.9999764,-6.8770739e-3,689.60975,370.75058)" />
    <path
       sodipodi:type="arc"
       style="fill:#000000;fill-opacity:1;stroke:none;stroke-opacity:1"
       id="path2449"
       sodipodi:cx="194.28572"
       sodipodi:cy="360.93362"
       sodipodi:rx="22.857143"
       sodipodi:ry="22.857143"
       d="M 217.14286,360.93362 A 22.857143,22.857143 0 1 1 171.42858,360.93362 A 22.857143,22.857143 0 1 1 217.14286,360.93362 z"
       transform="matrix(-6.8770739e-3,0.9999764,-0.9999764,-6.8770739e-3,688.75503,495.03336)" />
    <path
       sodipodi:type="arc"
       style="fill:#000000;fill-opacity:1;stroke:none;stroke-opacity:1"
       id="path2451"
       sodipodi:cx="194.28572"
       sodipodi:cy="360.93362"
       sodipodi:rx="22.857143"
       sodipodi:ry="22.857143"
       d="M 217.14286,360.93362 A 22.857143,22.857143 0 1 1 171.42858,360.93362 A 22.857143,22.857143 0 1 1 217.14286,360.93362 z"
       transform="matrix(-6.8770739e-3,0.9999764,-0.9999764,-6.8770739e-3,689.16766,435.03478)" />
    <path
       sodipodi:type="arc"
       style="fill:#000000;fill-opacity:1;stroke:none;stroke-opacity:1"
       id="path2455"
       sodipodi:cx="194.28572"
       sodipodi:cy="360.93362"
       sodipodi:rx="22.857143"
       sodipodi:ry="22.857143"
       d="M 217.14286,360.93362 A 22.857143,22.857143 0 1 1 171.42858,360.93362 A 22.857143,22.857143 0 1 1 217.14286,360.93362 z"
       transform="matrix(-6.8770739e-3,0.9999764,-0.9999764,-6.8770739e-3,639.81725,340.40744)" />
    <path
       sodipodi:type="arc"
       style="fill:#000000;fill-opacity:1;stroke:none;stroke-opacity:1"
       id="path2457"
       sodipodi:cx="194.28572"
       sodipodi:cy="360.93362"
       sodipodi:rx="22.857143"
       sodipodi:ry="22.857143"
       d="M 217.14286,360.93362 A 22.857143,22.857143 0 1 1 171.42858,360.93362 A 22.857143,22.857143 0 1 1 217.14286,360.93362 z"
       transform="matrix(-6.8770739e-3,0.9999764,-0.9999764,-6.8770739e-3,639.40462,400.40602)" />
    <path
       sodipodi:type="arc"
       style="fill:#000000;fill-opacity:1;stroke:none;stroke-opacity:1"
       id="path2459"
       sodipodi:cx="194.28572"
       sodipodi:cy="360.93362"
       sodipodi:rx="22.857143"
       sodipodi:ry="22.857143"
       d="M 217.14286,360.93362 A 22.857143,22.857143 0 1 1 171.42858,360.93362 A 22.857143,22.857143 0 1 1 217.14286,360.93362 z"
       transform="matrix(-6.8770739e-3,0.9999764,-0.9999764,-6.8770739e-3,638.5499,524.6888)" />
    <path
       sodipodi:type="arc"
       style="fill:#000000;fill-opacity:1;stroke:none;stroke-opacity:1"
       id="path2461"
       sodipodi:cx="194.28572"
       sodipodi:cy="360.93362"
       sodipodi:rx="22.857143"
       sodipodi:ry="22.857143"
       d="M 217.14286,360.93362 A 22.857143,22.857143 0 1 1 171.42858,360.93362 A 22.857143,22.857143 0 1 1 217.14286,360.93362 z"
       transform="matrix(-6.8770739e-3,0.9999764,-0.9999764,-6.8770739e-3,638.96253,464.69022)" />
    <path
       sodipodi:type="arc"
       style="fill:#000000;fill-opacity:1;stroke:none;stroke-opacity:1"
       id="path2463"
       sodipodi:cx="194.28572"
       sodipodi:cy="360.93362"
       sodipodi:rx="22.857143"
       sodipodi:ry="22.857143"
       d="M 217.14286,360.93362 A 22.857143,22.857143 0 1 1 171.42858,360.93362 A 22.857143,22.857143 0 1 1 217.14286,360.93362 z"
       transform="matrix(-6.8770739e-3,0.9999764,-0.9999764,-6.8770739e-3,640.2004,284.69448)" />
    <path
       sodipodi:type="arc"
       style="fill:#000000;fill-opacity:1;stroke:none;stroke-opacity:1"
       id="path2465"
       sodipodi:cx="194.28572"
       sodipodi:cy="360.93362"
       sodipodi:rx="22.857143"
       sodipodi:ry="22.857143"
       d="M 217.14286,360.93362 A 22.857143,22.857143 0 1 1 171.42858,360.93362 A 22.857143,22.857143 0 1 1 217.14286,360.93362 z"
       transform="matrix(-6.8770739e-3,0.9999764,-0.9999764,-6.8770739e-3,587.18732,307.18757)" />
    <path
       sodipodi:type="arc"
       style="fill:#000000;fill-opacity:1;stroke:none;stroke-opacity:1"
       id="path2467"
       sodipodi:cx="194.28572"
       sodipodi:cy="360.93362"
       sodipodi:rx="22.857143"
       sodipodi:ry="22.857143"
       d="M 217.14286,360.93362 A 22.857143,22.857143 0 1 1 171.42858,360.93362 A 22.857143,22.857143 0 1 1 217.14286,360.93362 z"
       transform="matrix(-6.8770739e-3,0.9999764,-0.9999764,-6.8770739e-3,586.77469,367.18615)" />
    <path
       sodipodi:type="arc"
       style="fill:#000000;fill-opacity:1;stroke:none;stroke-opacity:1"
       id="path2469"
       sodipodi:cx="194.28572"
       sodipodi:cy="360.93362"
       sodipodi:rx="22.857143"
       sodipodi:ry="22.857143"
       d="M 217.14286,360.93362 A 22.857143,22.857143 0 1 1 171.42858,360.93362 A 22.857143,22.857143 0 1 1 217.14286,360.93362 z"
       transform="matrix(-6.8770739e-3,0.9999764,-0.9999764,-6.8770739e-3,585.91997,491.46894)" />
    <path
       sodipodi:type="arc"
       style="fill:#000000;fill-opacity:1;stroke:none;stroke-opacity:1"
       id="path2471"
       sodipodi:cx="194.28572"
       sodipodi:cy="360.93362"
       sodipodi:rx="22.857143"
       sodipodi:ry="22.857143"
       d="M 217.14286,360.93362 A 22.857143,22.857143 0 1 1 171.42858,360.93362 A 22.857143,22.857143 0 1 1 217.14286,360.93362 z"
       transform="matrix(-6.8770739e-3,0.9999764,-0.9999764,-6.8770739e-3,586.3326,431.47035)" />
  </g>
</svg>
