<?xml version="1.0" encoding="UTF-8" standalone="no"?>
<!-- Created with Inkscape (http://www.inkscape.org/) -->

<svg
   xmlns:dc="http://purl.org/dc/elements/1.1/"
   xmlns:cc="http://creativecommons.org/ns#"
   xmlns:rdf="http://www.w3.org/1999/02/22-rdf-syntax-ns#"
   xmlns:svg="http://www.w3.org/2000/svg"
   xmlns="http://www.w3.org/2000/svg"
   xmlns:sodipodi="http://sodipodi.sourceforge.net/DTD/sodipodi-0.dtd"
   xmlns:inkscape="http://www.inkscape.org/namespaces/inkscape"
   width="453.5433"
   height="340.15747"
   id="svg2"
   sodipodi:version="0.32"
   inkscape:version="0.48.0 r9654"
   sodipodi:docname="New document 4"
   version="1.0">
  <defs
     id="defs4" />
  <sodipodi:namedview
     id="base"
     pagecolor="#ffffff"
     bordercolor="#666666"
     borderopacity="1.0"
     inkscape:pageopacity="0.0"
     inkscape:pageshadow="2"
     inkscape:zoom="0.7702315"
     inkscape:cx="330.19387"
     inkscape:cy="241.75587"
     inkscape:document-units="mm"
     inkscape:current-layer="layer1"
     inkscape:window-width="959"
     inkscape:window-height="755"
     inkscape:window-x="960"
     inkscape:window-y="24"
     width="12.8cm"
     height="9.6cm"
     units="cm"
     showgrid="false"
     grid_units="mm"
     inkscape:object-paths="false"
     inkscape:grid-points="true"
     inkscape:grid-bbox="true"
     inkscape:guide-points="true"
     showguides="true"
     inkscape:guide-bbox="true"
     inkscape:window-maximized="0">
    <sodipodi:guide
       orientation="vertical"
       position="56.476527"
       id="guide3573" />
    <sodipodi:guide
       orientation="horizontal"
       position="11.035643"
       id="guide3579" />
    <sodipodi:guide
       orientation="horizontal"
       position="24.018753"
       id="guide3886" />
    <sodipodi:guide
       orientation="horizontal"
       position="285.62841"
       id="guide3988" />
    <sodipodi:guide
       orientation="horizontal"
       position="303.15561"
       id="guide4081" />
    <inkscape:grid
       id="GridFromPre046Settings"
       type="xygrid"
       originx="0px"
       originy="0px"
       spacingx="2mm"
       spacingy="2mm"
       color="#0000ff"
       empcolor="#0000ff"
       opacity="0.2"
       empopacity="0.4"
       empspacing="5" />
  </sodipodi:namedview>
  <metadata
     id="metadata7">
    <rdf:RDF>
      <cc:Work
         rdf:about="">
        <dc:format>image/svg+xml</dc:format>
        <dc:type
           rdf:resource="http://purl.org/dc/dcmitype/StillImage" />
        <dc:title></dc:title>
      </cc:Work>
    </rdf:RDF>
  </metadata>
  <g
     inkscape:label="Layer 1"
     inkscape:groupmode="layer"
     id="layer1"
     transform="translate(4.149475e-6,-698.0315)">
    <g
       id="g5181"
       transform="translate(-17.569869,1.2187959e-6)">
      <text
         style="font-size:12.93994808px"
         y="878.5921"
         x="130.56886"
         id="text3204">
        <tspan
           id="tspan3206"
           sodipodi:role="line"
           y="878.5921"
           x="130.56886 139.16745 146.33508 150.51207 157.67969 171.98935 181.29695 184.15886 191.32648 198.49413 201.356"
           style="font-size:12.89142323px;font-variant:normal;writing-mode:lr-tb;fill:#000000;fill-opacity:1;fill-rule:nonzero;stroke:none;font-family:Nimbus Sans L;-inkscape-font-specification:NimbusSanL-Regu">AbramHindle</tspan>
      </text>
      <text
         style="font-size:12.93994808px"
         y="889.87152"
         x="104.71043"
         id="text3208">
        <tspan
           id="tspan3210"
           sodipodi:role="line"
           y="889.87152"
           x="104.71043 112.46717 118.44049 124.41381 127.40047 134.08269 140.05602 146.0294 153.78615 159.75945 168.70869 174.68202 180.65533 183.64201 189.61536 196.1797 203.34554 208.71724 211.10228 217.07561 223.04895 228.42065"
           style="font-size:10.74339199px;font-variant:normal;writing-mode:lr-tb;fill:#000000;fill-opacity:1;fill-rule:nonzero;stroke:none;font-family:Nimbus Sans L;-inkscape-font-specification:NimbusSanL-Regu">Dept.ofComputerScience</tspan>
        <tspan
           id="tspan3212"
           sodipodi:role="line"
           y="901.15112"
           x="99.674698 107.43143 113.40478 115.78981 120.90348 126.87681 130.45435 135.82605 138.21109 141.19775 149.54535 155.51866 161.49205 169.24879 175.22212 177.60713 179.99217 182.66733 188.64066 192.47591 198.44922 200.83426 206.80759 212.78093 220.53764 226.30678 231.6785 234.06351"
           style="font-size:10.74339199px;font-variant:normal;writing-mode:lr-tb;fill:#000000;fill-opacity:1;fill-rule:nonzero;stroke:none;font-family:Nimbus Sans L;-inkscape-font-specification:NimbusSanL-Regu">UniversityofCalifornia,Davis</tspan>
        <tspan
           id="tspan3214"
           sodipodi:role="line"
           y="912.43024"
           x="131.83037 139.58711 145.35626 150.72797 153.11299 158.32361 164.286 172.04272 179.20857 185.18199 192.93872 200.10455"
           style="font-size:10.74339199px;font-variant:normal;writing-mode:lr-tb;fill:#000000;fill-opacity:1;fill-rule:nonzero;stroke:none;font-family:Nimbus Sans L;-inkscape-font-specification:NimbusSanL-Regu">Davis,CA,USA</tspan>
      </text>
      <text
         style="font-size:12.93994808px"
         y="923.70984"
         x="96.504105"
         id="text3216">
        <tspan
           id="tspan3218"
           sodipodi:role="line"
           y="923.70984"
           x="96.504105 103.67175 110.83939 115.00334 122.17098 132.90955 145.99434 152.44003 159.60768 163.19148 166.77531 175.88933 183.05698 187.34982 194.51746 201.68506 205.97792 213.14557 219.59126 226.75888 233.20462 239.45685 243.04066 250.20828"
           style="font-size:12.89142323px;font-variant:normal;writing-mode:lr-tb;fill:#000000;fill-opacity:1;fill-rule:nonzero;stroke:none;font-family:Nimbus Sans L;-inkscape-font-specification:NimbusSanL-Regu">abram@softwareprocess.es</tspan>
        <tspan
           id="tspan3220"
           sodipodi:role="line"
           y="878.59229"
           x="291.28268 300.59027 307.7579 310.61981 317.05264 325.65121 332.819 341.41757 346.03275 353.20035 359.64606"
           style="font-size:12.89142323px;font-variant:normal;writing-mode:lr-tb;fill:#000000;fill-opacity:1;fill-rule:nonzero;stroke:none;font-family:Nimbus Sans L;-inkscape-font-specification:NimbusSanL-Regu">NeilA.Ernst</tspan>
      </text>
      <text
         style="font-size:12.93994808px"
         y="889.87177"
         x="262.41592"
         id="text3222">
        <tspan
           id="tspan3224"
           sodipodi:role="line"
           y="889.87177"
           x="262.41592 270.17267 276.14597 282.11929 285.10596 291.78815 297.76151 303.73489 311.49161 317.46497 326.41418 332.38751 338.36084 341.34753 347.32083 353.88516 361.05103 366.42273 368.80777 374.7811 380.75443 386.12613"
           style="font-size:10.74339199px;font-variant:normal;writing-mode:lr-tb;fill:#000000;fill-opacity:1;fill-rule:nonzero;stroke:none;font-family:Nimbus Sans L;-inkscape-font-specification:NimbusSanL-Regu">Dept.ofComputerScience</tspan>
        <tspan
           id="tspan3226"
           sodipodi:role="line"
           y="901.15137"
           x="278.48306 286.23975 292.21307 294.59811 299.71179 305.68512 309.26263 314.63434 317.01938 320.00601 328.35364 334.32697 340.30032 345.58627 351.5596 355.13715 361.11047 367.0838 370.07043"
           style="font-size:10.74339199px;font-variant:normal;writing-mode:lr-tb;fill:#000000;fill-opacity:1;fill-rule:nonzero;stroke:none;font-family:Nimbus Sans L;-inkscape-font-specification:NimbusSanL-Regu">UniversityofToronto</tspan>
        <tspan
           id="tspan3228"
           sodipodi:role="line"
           y="912.43048"
           x="263.99051 269.26544 275.23877 278.81631 284.78964 290.76297 293.74963 299.29312 305.25549 313.61389 319.58719 322.57385 328.54721 332.2858 334.67084 340.22501 346.18738 353.94412 361.10992 368.86667 376.03253 383.37036"
           style="font-size:10.74339199px;font-variant:normal;writing-mode:lr-tb;fill:#000000;fill-opacity:1;fill-rule:nonzero;stroke:none;font-family:Nimbus Sans L;-inkscape-font-specification:NimbusSanL-Regu">Toronto,Ontario,CANADA</tspan>
      </text>
      <text
         style="font-size:12.93994808px"
         y="923.70996"
         x="262.14639"
         id="text3230">
        <tspan
           id="tspan3232"
           sodipodi:role="line"
           y="923.70996"
           x="262.14639 269.31403 276.48163 281.09674 288.26437 294.71008 298.29391 311.37869 317.8244 324.08963 327.67346 331.25723 338.4249 342.71774 349.88538 357.05301 360.63684 367.28891 370.87274 378.04037 385.20801"
           style="font-size:12.89142323px;font-variant:normal;writing-mode:lr-tb;fill:#000000;fill-opacity:1;fill-rule:nonzero;stroke:none;font-family:Nimbus Sans L;-inkscape-font-specification:NimbusSanL-Regu">nernst@cs.toronto.edu</tspan>
        <tspan
           id="tspan3234"
           sodipodi:role="line"
           y="943.02271"
           x="113.60656 124.34512 127.20703 133.65273 140.82037 147.98799 155.15562 161.58841 172.73941 179.89429 189.92383 197.09146 204.25909 207.84291 212.13574 219.05829"
           style="font-size:12.89142323px;font-variant:normal;writing-mode:lr-tb;fill:#000000;fill-opacity:1;fill-rule:nonzero;stroke:none;font-family:Nimbus Sans L;-inkscape-font-specification:NimbusSanL-Regu">MichaelW.Godfrey</tspan>
      </text>
      <text
         style="font-size:12.93994808px"
         y="954.30225"
         x="110.16685"
         id="text3236">
        <tspan
           id="tspan3238"
           sodipodi:role="line"
           y="954.30225"
           x="110.16685 117.92358 123.69275 129.06442 131.44946 140.39882 148.15553 154.12888 160.10222 163.84111 166.22614 169.2128 175.18613 184.14615 191.31198 196.68367 202.657 208.63031 214.60364 219.97531 225.94864"
           style="font-size:10.74339199px;font-variant:normal;writing-mode:lr-tb;fill:#000000;fill-opacity:1;fill-rule:nonzero;stroke:none;font-family:Nimbus Sans L;-inkscape-font-specification:NimbusSanL-Regu">DavidCheritonSchoolof</tspan>
        <tspan
           id="tspan3240"
           sodipodi:role="line"
           y="965.58173"
           x="125.3713 133.12804 139.10135 148.0506 154.02393 159.99727 162.9839 168.95724 175.52162 182.68747 188.05916 190.44417 196.4175 202.39084 207.76254"
           style="font-size:10.74339199px;font-variant:normal;writing-mode:lr-tb;fill:#000000;fill-opacity:1;fill-rule:nonzero;stroke:none;font-family:Nimbus Sans L;-inkscape-font-specification:NimbusSanL-Regu">ComputerScience</tspan>
        <tspan
           id="tspan3242"
           sodipodi:role="line"
           y="976.86084"
           x="117.28384 125.04057 131.01389 133.39893 138.51259 144.4859 148.06349 153.43517 155.82022 158.80687 167.15443 173.12776 179.10114 188.82382 194.79713 197.7838 203.75713 207.4852 209.87025 215.84357"
           style="font-size:10.74339199px;font-variant:normal;writing-mode:lr-tb;fill:#000000;fill-opacity:1;fill-rule:nonzero;stroke:none;font-family:Nimbus Sans L;-inkscape-font-specification:NimbusSanL-Regu">UniversityofWaterloo</tspan>
        <tspan
           id="tspan3244"
           sodipodi:role="line"
           y="988.14032"
           x="102.79088 112.503 118.47631 121.46298 127.4363 131.1644 133.54945 139.52278 145.07693 151.03935 159.39771 165.37105 168.35771 174.33104 178.06963 180.45465 186.00882 191.97124 199.72795 206.89378 214.65053 221.81635 229.15419"
           style="font-size:10.74339199px;font-variant:normal;writing-mode:lr-tb;fill:#000000;fill-opacity:1;fill-rule:nonzero;stroke:none;font-family:Nimbus Sans L;-inkscape-font-specification:NimbusSanL-Regu">Waterloo,Ontario,CANADA</tspan>
      </text>
      <text
         style="font-size:12.93994808px"
         y="999.41949"
         x="109.1745"
         id="text3246">
        <tspan
           id="tspan3248"
           sodipodi:role="line"
           y="999.41949"
           x="109.1745 119.91306 122.77496 129.94258 137.11021 144.27785 157.36263 164.53029 173.64467 180.81229 184.39612 191.56375 196.03728 198.89919 206.0668 212.73158 216.3154 222.76111"
           style="font-size:12.89142323px;font-variant:normal;writing-mode:lr-tb;fill:#000000;fill-opacity:1;fill-rule:nonzero;stroke:none;font-family:Nimbus Sans L;-inkscape-font-specification:NimbusSanL-Regu">migod@uwaterloo.ca</tspan>
        <tspan
           id="tspan3250"
           sodipodi:role="line"
           y="943.02289"
           x="278.8927 285.33841 292.50604 299.67368 310.42496 321.16354 327.60922 330.47113 337.63876 344.8064 351.97403 359.14163 362.00357 369.17117"
           style="font-size:12.89142323px;font-variant:normal;writing-mode:lr-tb;fill:#000000;fill-opacity:1;fill-rule:nonzero;stroke:none;font-family:Nimbus Sans L;-inkscape-font-specification:NimbusSanL-Regu">JohnMylopoulos</tspan>
      </text>
      <text
         style="font-size:12.93994808px"
         y="954.30243"
         x="262.38327"
         id="text3252">
        <tspan
           id="tspan3254"
           sodipodi:role="line"
           y="954.30243"
           x="262.38327 270.13998 276.11331 282.08664 285.07333 291.745 294.73163 300.70499 303.37994 309.3533 313.18854 322.13779 328.11111 331.09781 333.48285 339.45618 348.41623 355.58203 361.55536 367.52869 374.211 380.18433 386.15768"
           style="font-size:10.74339199px;font-variant:normal;writing-mode:lr-tb;fill:#000000;fill-opacity:1;fill-rule:nonzero;stroke:none;font-family:Nimbus Sans L;-inkscape-font-specification:NimbusSanL-Regu">Dept.InformationEng.and</tspan>
        <tspan
           id="tspan3256"
           sodipodi:role="line"
           y="965.58197"
           x="283.0766 290.83334 296.80667 305.75589 311.72922 317.70258 320.68921 326.66254 333.2269 340.39276 345.76443 348.14951 354.12283 360.09616 365.46783"
           style="font-size:10.74339199px;font-variant:normal;writing-mode:lr-tb;fill:#000000;fill-opacity:1;fill-rule:nonzero;stroke:none;font-family:Nimbus Sans L;-inkscape-font-specification:NimbusSanL-Regu">ComputerScience</tspan>
        <tspan
           id="tspan3258"
           sodipodi:role="line"
           y="976.86108"
           x="281.46967 289.22638 295.19974 297.58475 302.69843 308.67175 312.24927 317.621 320.00601 322.99268 331.34024 337.31357 343.28699 348.57288 352.15045 358.12375 364.09708 367.08374"
           style="font-size:10.74339199px;font-variant:normal;writing-mode:lr-tb;fill:#000000;fill-opacity:1;fill-rule:nonzero;stroke:none;font-family:Nimbus Sans L;-inkscape-font-specification:NimbusSanL-Regu">UniversityofTrento</tspan>
        <tspan
           id="tspan3260"
           sodipodi:role="line"
           y="988.1405"
           x="296.08102 301.35596 304.9335 310.90683 316.88016 319.86685 325.41025 331.37268 334.35934 339.64505 346.81091 351.28006"
           style="font-size:10.74339199px;font-variant:normal;writing-mode:lr-tb;fill:#000000;fill-opacity:1;fill-rule:nonzero;stroke:none;font-family:Nimbus Sans L;-inkscape-font-specification:NimbusSanL-Regu">Trento,ITALY</tspan>
      </text>
      <text
         style="font-size:12.93994808px"
         y="999.42017"
         x="283.46457"
         id="text3262">
        <tspan
           id="tspan3264"
           sodipodi:role="line"
           y="999.42017"
           x="283.46457 286.32642 297.065 310.14981 317.31744 320.17935 326.62506 329.48691 333.07077 340.2384 347.40601 350.26791 353.85175 361.01935 364.60321 367.46506"
           style="font-size:12.89142323px;font-variant:normal;writing-mode:lr-tb;fill:#000000;fill-opacity:1;fill-rule:nonzero;stroke:none;font-family:Nimbus Sans L;-inkscape-font-specification:NimbusSanL-Regu">jm@disi.unitn.it</tspan>
      </text>
    </g>
    <text
       xml:space="preserve"
       style="font-size:24px;font-style:normal;font-variant:normal;font-weight:bold;font-stretch:normal;text-align:center;line-height:125%;letter-spacing:0px;word-spacing:0px;text-anchor:middle;fill:#000000;fill-opacity:1;stroke:none;font-family:Nimbus Sans L;-inkscape-font-specification:Nimbus Sans L Bold"
       x="227.30359"
       y="752.56055"
       id="text5171"
       sodipodi:linespacing="125%"><tspan
         sodipodi:role="line"
         id="tspan5173"
         x="227.30359"
         y="752.56055">Automated Topic Naming</tspan><tspan
         sodipodi:role="line"
         x="227.30359"
         y="782.56055"
         id="tspan5175">to Support Cross-project</tspan><tspan
         sodipodi:role="line"
         x="227.30359"
         y="812.56055"
         id="tspan5177">Analysis of Software</tspan><tspan
         sodipodi:role="line"
         x="227.30359"
         y="842.56055"
         id="tspan5179">Maintenance Activities</tspan></text>
    <rect
       style="fill:#000000;fill-opacity:1;stroke:#522f00;stroke-width:0.39709792;stroke-miterlimit:4;stroke-opacity:1;stroke-dasharray:none;stroke-dashoffset:0"
       id="rect5216"
       width="12.983103"
       height="460.62991"
       x="-1027.1533"
       y="-4.149475e-06"
       transform="matrix(0,-1,1,0,0,0)" />
    <rect
       style="fill:#000000;fill-opacity:1;stroke:#522f00;stroke-width:0.39709792;stroke-miterlimit:4;stroke-opacity:1;stroke-dasharray:none;stroke-dashoffset:0"
       id="rect5216-3"
       width="12.983103"
       height="460.62991"
       x="-722.86163"
       y="-4.149475e-06"
       transform="matrix(0,-1,1,0,0,0)" />
  </g>
</svg>
