<?xml version="1.0" encoding="UTF-8" standalone="no"?>
<!-- Created with Inkscape (http://www.inkscape.org/) -->

<svg
   xmlns:dc="http://purl.org/dc/elements/1.1/"
   xmlns:cc="http://creativecommons.org/ns#"
   xmlns:rdf="http://www.w3.org/1999/02/22-rdf-syntax-ns#"
   xmlns:svg="http://www.w3.org/2000/svg"
   xmlns="http://www.w3.org/2000/svg"
   xmlns:sodipodi="http://sodipodi.sourceforge.net/DTD/sodipodi-0.dtd"
   xmlns:inkscape="http://www.inkscape.org/namespaces/inkscape"
   width="453.5433"
   height="340.15747"
   id="svg2"
   sodipodi:version="0.32"
   inkscape:version="0.48.0 r9654"
   sodipodi:docname="00400-msa005-many-commit.svg"
   version="1.0"
   inkscape:output_extension="org.inkscape.output.svg.inkscape">
  <defs
     id="defs4">
    <inkscape:perspective
       sodipodi:type="inkscape:persp3d"
       inkscape:vp_x="0 : 170.07874 : 1"
       inkscape:vp_y="0 : 1000 : 0"
       inkscape:vp_z="453.5433 : 170.07874 : 1"
       inkscape:persp3d-origin="226.77165 : 113.38582 : 1"
       id="perspective2393" />
  </defs>
  <sodipodi:namedview
     id="base"
     pagecolor="#ffffff"
     bordercolor="#666666"
     borderopacity="1.0"
     gridtolerance="10000"
     guidetolerance="8.8"
     objecttolerance="10"
     inkscape:pageopacity="0.0"
     inkscape:pageshadow="2"
     inkscape:zoom="0.82314817"
     inkscape:cx="388.31708"
     inkscape:cy="11.926801"
     inkscape:document-units="mm"
     inkscape:current-layer="layer1"
     inkscape:window-width="1182"
     inkscape:window-height="724"
     inkscape:window-x="729"
     inkscape:window-y="416"
     width="12.8cm"
     height="9.6cm"
     units="cm"
     showgrid="false"
     grid_units="mm"
     inkscape:object-paths="false"
     inkscape:grid-points="true"
     inkscape:grid-bbox="true"
     inkscape:guide-points="true"
     showguides="true"
     inkscape:guide-bbox="true"
     inkscape:window-maximized="0">
    <sodipodi:guide
       orientation="vertical"
       position="56.476527"
       id="guide3573" />
    <sodipodi:guide
       orientation="horizontal"
       position="11.035643"
       id="guide3579" />
    <sodipodi:guide
       orientation="horizontal"
       position="24.018753"
       id="guide3886" />
    <sodipodi:guide
       orientation="horizontal"
       position="285.62841"
       id="guide3988" />
    <sodipodi:guide
       orientation="horizontal"
       position="303.15561"
       id="guide4081" />
    <inkscape:grid
       id="GridFromPre046Settings"
       type="xygrid"
       originx="0px"
       originy="0px"
       spacingx="2mm"
       spacingy="2mm"
       color="#0000ff"
       empcolor="#0000ff"
       opacity="0.2"
       empopacity="0.4"
       empspacing="5" />
  </sodipodi:namedview>
  <metadata
     id="metadata7">
    <rdf:RDF>
      <cc:Work
         rdf:about="">
        <dc:format>image/svg+xml</dc:format>
        <dc:type
           rdf:resource="http://purl.org/dc/dcmitype/StillImage" />
      </cc:Work>
    </rdf:RDF>
  </metadata>
  <g
     inkscape:label="Layer 1"
     inkscape:groupmode="layer"
     id="layer1"
     transform="translate(4.149475e-6,-698.0315)">
    <g
       id="g3190"
       transform="matrix(0.3111111,0,0,0.3111111,5.9547693,508.55319)">
      <g
         id="g3178">
        <g
           id="g2402">
          <path
             transform="translate(-4.149475e-6,698.0315)"
             id="path2398"
             d="M 106.29921,92.125975 L 70.866142,127.55905 L 70.866142,233.85826 L 389.76378,233.85826 L 389.76378,92.125975 L 106.29921,92.125975 L 106.29921,92.125975 z"
             style="fill:#ffff00;fill-rule:evenodd;stroke:#000000;stroke-width:1px;stroke-linecap:butt;stroke-linejoin:miter;stroke-opacity:1" />
          <path
             transform="translate(-4.149475e-6,698.0315)"
             id="path2400"
             d="M 70.866142,127.55905 L 106.29921,92.125975 L 106.29921,127.55905 L 70.866142,127.55905 z"
             style="fill:#ffff00;fill-rule:evenodd;stroke:#000000;stroke-width:1px;stroke-linecap:butt;stroke-linejoin:miter;stroke-opacity:1" />
        </g>
        <path
           style="fill:none;fill-rule:evenodd;stroke:#ffbf00;stroke-width:10.62992096;stroke-linecap:butt;stroke-linejoin:miter;stroke-miterlimit:4;stroke-dasharray:none;stroke-opacity:1"
           d="M 198.42519,896.45669 L 233.85827,825.59055 L 269.29134,896.45669 L 198.42519,896.45669 z"
           id="path2406" />
      </g>
    </g>
    <text
       xml:space="preserve"
       style="font-size:24px;font-style:normal;font-weight:bold;writing-mode:lr-tb;fill:#000000;fill-opacity:1;stroke:none;stroke-width:1px;stroke-linecap:butt;stroke-linejoin:miter;stroke-opacity:1;font-family:Sans;-inkscape-font-specification:Sans"
       x="56.692909"
       y="733.46454"
       id="text3200"><tspan
         sodipodi:role="line"
         id="tspan3202"
         x="56.692909"
         y="733.46454">But we have many commits..</tspan></text>
    <g
       id="g3266"
       transform="matrix(0.3925926,0,0,0.3333333,72.470573,651.96853)">
      <path
         style="fill:#ffff00;fill-rule:evenodd;stroke:#000000;stroke-width:1px;stroke-linecap:butt;stroke-linejoin:miter;stroke-opacity:1"
         d="M -70.866146,910.62992 L -106.29922,946.06299 L -106.29922,1052.3622 L 212.59842,1052.3622 L 212.59842,910.62992 L -70.866146,910.62992 L -70.866146,910.62992 z"
         id="path3262" />
      <path
         style="fill:#ffff00;fill-rule:evenodd;stroke:#000000;stroke-width:1px;stroke-linecap:butt;stroke-linejoin:miter;stroke-opacity:1"
         d="M -106.29922,946.06299 L -70.866146,910.62992 L -70.866146,946.06299 L -106.29922,946.06299 z"
         id="path3264" />
    </g>
    <text
       xml:space="preserve"
       style="font-size:18px;font-style:normal;font-weight:bold;writing-mode:lr-tb;fill:#000000;fill-opacity:1;stroke:none;font-family:Sans;-inkscape-font-specification:Sans"
       x="42.51968"
       y="988.58264"
       id="text3270"><tspan
         sodipodi:role="line"
         id="tspan3272"
         x="42.51968"
         y="988.58264">Reliability</tspan></text>
    <g
       id="g3305"
       transform="translate(0,2.9888964e-5)">
      <g
         transform="matrix(0.3036108,0,0,0.3333333,204.70316,651.9685)"
         id="g3274">
        <path
           id="path3276"
           d="m -70.866146,910.62992 -35.433074,35.43307 0,106.29921 318.89764,0 0,-141.73228 -283.464566,0 0,0 z"
           style="fill:#ffff00;fill-rule:evenodd;stroke:#000000;stroke-width:1px;stroke-linecap:butt;stroke-linejoin:miter;stroke-opacity:1"
           inkscape:connector-curvature="0" />
        <path
           id="path3278"
           d="m -106.29922,946.06299 35.433074,-35.43307 0,35.43307 -35.433074,0 z"
           style="fill:#ffff00;fill-rule:evenodd;stroke:#000000;stroke-width:1px;stroke-linecap:butt;stroke-linejoin:miter;stroke-opacity:1"
           inkscape:connector-curvature="0" />
      </g>
      <text
         id="text3280"
         y="976.5354"
         x="173.41957"
         style="font-size:18px;font-style:normal;font-weight:bold;writing-mode:lr-tb;fill:#000000;fill-opacity:1;stroke:none;font-family:Sans;-inkscape-font-specification:Sans"
         xml:space="preserve"><tspan
           y="976.5354"
           x="173.41957"
           id="tspan3282"
           sodipodi:role="line">Maintain-</tspan><tspan
           y="999.0354"
           x="173.41957"
           sodipodi:role="line"
           id="tspan3090">ability</tspan></text>
    </g>
    <g
       id="g3312">
      <g
         transform="matrix(0.3926282,0,0,0.3333333,327.59811,651.96853)"
         id="g3284">
        <path
           id="path3286"
           d="M -70.866146,910.62992 L -106.29922,946.06299 L -106.29922,1052.3622 L 212.59842,1052.3622 L 212.59842,910.62992 L -70.866146,910.62992 L -70.866146,910.62992 z"
           style="fill:#ffff00;fill-rule:evenodd;stroke:#000000;stroke-width:1px;stroke-linecap:butt;stroke-linejoin:miter;stroke-opacity:1" />
        <path
           id="path3288"
           d="M -106.29922,946.06299 L -70.866146,910.62992 L -70.866146,946.06299 L -106.29922,946.06299 z"
           style="fill:#ffff00;fill-rule:evenodd;stroke:#000000;stroke-width:1px;stroke-linecap:butt;stroke-linejoin:miter;stroke-opacity:1" />
      </g>
      <text
         id="text3290"
         y="988.58264"
         x="297.63779"
         style="font-size:18px;font-style:normal;font-weight:bold;writing-mode:lr-tb;fill:#000000;fill-opacity:1;stroke:none;stroke-width:1px;stroke-linecap:butt;stroke-linejoin:miter;stroke-opacity:1;font-family:Sans;-inkscape-font-specification:Sans"
         xml:space="preserve"><tspan
           y="988.58264"
           x="297.63779"
           id="tspan3292"
           sodipodi:role="line">Portability</tspan></text>
    </g>
    <g
       transform="matrix(0.3111111,0,0,0.3111111,43.779526,525.43308)"
       id="g3379">
      <g
         id="g3381">
        <g
           id="g3383">
          <path
             style="fill:#ffff00;fill-rule:evenodd;stroke:#000000;stroke-width:1px;stroke-linecap:butt;stroke-linejoin:miter;stroke-opacity:1"
             d="M 106.29921,92.125975 L 70.866142,127.55905 L 70.866142,233.85826 L 389.76378,233.85826 L 389.76378,92.125975 L 106.29921,92.125975 L 106.29921,92.125975 z"
             id="path3385"
             transform="translate(-4.149475e-6,698.0315)" />
          <path
             style="fill:#ffff00;fill-rule:evenodd;stroke:#000000;stroke-width:1px;stroke-linecap:butt;stroke-linejoin:miter;stroke-opacity:1"
             d="M 70.866142,127.55905 L 106.29921,92.125975 L 106.29921,127.55905 L 70.866142,127.55905 z"
             id="path3387"
             transform="translate(-4.149475e-6,698.0315)" />
        </g>
        <path
           id="path3389"
           d="M 198.42519,896.45669 L 233.85827,825.59055 L 269.29134,896.45669 L 198.42519,896.45669 z"
           style="fill:none;fill-rule:evenodd;stroke:#ffbf00;stroke-width:10.62992096;stroke-linecap:butt;stroke-linejoin:miter;stroke-miterlimit:4;stroke-dasharray:none;stroke-opacity:1" />
      </g>
    </g>
    <g
       id="g3391"
       transform="matrix(0.3111111,0,0,0.3111111,126.77165,507.32284)">
      <g
         id="g3393">
        <g
           id="g3395">
          <path
             transform="translate(-4.149475e-6,698.0315)"
             id="path3397"
             d="M 106.29921,92.125975 L 70.866142,127.55905 L 70.866142,233.85826 L 389.76378,233.85826 L 389.76378,92.125975 L 106.29921,92.125975 L 106.29921,92.125975 z"
             style="fill:#ffff00;fill-rule:evenodd;stroke:#000000;stroke-width:1px;stroke-linecap:butt;stroke-linejoin:miter;stroke-opacity:1" />
          <path
             transform="translate(-4.149475e-6,698.0315)"
             id="path3399"
             d="M 70.866142,127.55905 L 106.29921,92.125975 L 106.29921,127.55905 L 70.866142,127.55905 z"
             style="fill:#ffff00;fill-rule:evenodd;stroke:#000000;stroke-width:1px;stroke-linecap:butt;stroke-linejoin:miter;stroke-opacity:1" />
        </g>
        <path
           style="fill:none;fill-rule:evenodd;stroke:#ffbf00;stroke-width:10.62992096;stroke-linecap:butt;stroke-linejoin:miter;stroke-miterlimit:4;stroke-dasharray:none;stroke-opacity:1"
           d="M 198.42519,896.45669 L 233.85827,825.59055 L 269.29134,896.45669 L 198.42519,896.45669 z"
           id="path3401" />
      </g>
    </g>
    <g
       transform="matrix(0.3111111,0,0,0.3111111,172.44094,537.2441)"
       id="g3403">
      <g
         id="g3405">
        <g
           id="g3407">
          <path
             style="fill:#ffff00;fill-rule:evenodd;stroke:#000000;stroke-width:1px;stroke-linecap:butt;stroke-linejoin:miter;stroke-opacity:1"
             d="M 106.29921,92.125975 L 70.866142,127.55905 L 70.866142,233.85826 L 389.76378,233.85826 L 389.76378,92.125975 L 106.29921,92.125975 L 106.29921,92.125975 z"
             id="path3409"
             transform="translate(-4.149475e-6,698.0315)" />
          <path
             style="fill:#ffff00;fill-rule:evenodd;stroke:#000000;stroke-width:1px;stroke-linecap:butt;stroke-linejoin:miter;stroke-opacity:1"
             d="M 70.866142,127.55905 L 106.29921,92.125975 L 106.29921,127.55905 L 70.866142,127.55905 z"
             id="path3411"
             transform="translate(-4.149475e-6,698.0315)" />
        </g>
        <path
           id="path3413"
           d="M 198.42519,896.45669 L 233.85827,825.59055 L 269.29134,896.45669 L 198.42519,896.45669 z"
           style="fill:none;fill-rule:evenodd;stroke:#ffbf00;stroke-width:10.62992096;stroke-linecap:butt;stroke-linejoin:miter;stroke-miterlimit:4;stroke-dasharray:none;stroke-opacity:1" />
      </g>
    </g>
    <g
       id="g3415"
       transform="matrix(0.3111111,0,0,0.3111111,240.15748,508.89764)">
      <g
         id="g3417">
        <g
           id="g3419">
          <path
             transform="translate(-4.149475e-6,698.0315)"
             id="path3421"
             d="M 106.29921,92.125975 L 70.866142,127.55905 L 70.866142,233.85826 L 389.76378,233.85826 L 389.76378,92.125975 L 106.29921,92.125975 L 106.29921,92.125975 z"
             style="fill:#ffff00;fill-rule:evenodd;stroke:#000000;stroke-width:1px;stroke-linecap:butt;stroke-linejoin:miter;stroke-opacity:1" />
          <path
             transform="translate(-4.149475e-6,698.0315)"
             id="path3423"
             d="M 70.866142,127.55905 L 106.29921,92.125975 L 106.29921,127.55905 L 70.866142,127.55905 z"
             style="fill:#ffff00;fill-rule:evenodd;stroke:#000000;stroke-width:1px;stroke-linecap:butt;stroke-linejoin:miter;stroke-opacity:1" />
        </g>
        <path
           style="fill:none;fill-rule:evenodd;stroke:#ffbf00;stroke-width:10.62992096;stroke-linecap:butt;stroke-linejoin:miter;stroke-miterlimit:4;stroke-dasharray:none;stroke-opacity:1"
           d="M 198.42519,896.45669 L 233.85827,825.59055 L 269.29134,896.45669 L 198.42519,896.45669 z"
           id="path3425" />
      </g>
    </g>
    <g
       transform="matrix(0.3111111,0,0,0.3111111,303.93701,547.48032)"
       id="g3427">
      <g
         id="g3429">
        <g
           id="g3431">
          <path
             style="fill:#ffff00;fill-rule:evenodd;stroke:#000000;stroke-width:1px;stroke-linecap:butt;stroke-linejoin:miter;stroke-opacity:1"
             d="M 106.29921,92.125975 L 70.866142,127.55905 L 70.866142,233.85826 L 389.76378,233.85826 L 389.76378,92.125975 L 106.29921,92.125975 L 106.29921,92.125975 z"
             id="path3433"
             transform="translate(-4.149475e-6,698.0315)" />
          <path
             style="fill:#ffff00;fill-rule:evenodd;stroke:#000000;stroke-width:1px;stroke-linecap:butt;stroke-linejoin:miter;stroke-opacity:1"
             d="M 70.866142,127.55905 L 106.29921,92.125975 L 106.29921,127.55905 L 70.866142,127.55905 z"
             id="path3435"
             transform="translate(-4.149475e-6,698.0315)" />
        </g>
        <path
           id="path3437"
           d="M 198.42519,896.45669 L 233.85827,825.59055 L 269.29134,896.45669 L 198.42519,896.45669 z"
           style="fill:none;fill-rule:evenodd;stroke:#ffbf00;stroke-width:10.62992096;stroke-linecap:butt;stroke-linejoin:miter;stroke-miterlimit:4;stroke-dasharray:none;stroke-opacity:1" />
      </g>
    </g>
    <g
       id="g3439"
       transform="matrix(0.3111111,0,0,0.3111111,2.3622039,565.59056)">
      <g
         id="g3441">
        <g
           id="g3443">
          <path
             transform="translate(-4.149475e-6,698.0315)"
             id="path3445"
             d="M 106.29921,92.125975 L 70.866142,127.55905 L 70.866142,233.85826 L 389.76378,233.85826 L 389.76378,92.125975 L 106.29921,92.125975 L 106.29921,92.125975 z"
             style="fill:#ffff00;fill-rule:evenodd;stroke:#000000;stroke-width:1px;stroke-linecap:butt;stroke-linejoin:miter;stroke-opacity:1" />
          <path
             transform="translate(-4.149475e-6,698.0315)"
             id="path3447"
             d="M 70.866142,127.55905 L 106.29921,92.125975 L 106.29921,127.55905 L 70.866142,127.55905 z"
             style="fill:#ffff00;fill-rule:evenodd;stroke:#000000;stroke-width:1px;stroke-linecap:butt;stroke-linejoin:miter;stroke-opacity:1" />
        </g>
        <path
           style="fill:none;fill-rule:evenodd;stroke:#ffbf00;stroke-width:10.62992096;stroke-linecap:butt;stroke-linejoin:miter;stroke-miterlimit:4;stroke-dasharray:none;stroke-opacity:1"
           d="M 198.42519,896.45669 L 233.85827,825.59055 L 269.29134,896.45669 L 198.42519,896.45669 z"
           id="path3449" />
      </g>
    </g>
    <g
       transform="matrix(0.3111111,0,0,0.3111111,41.732285,592.36221)"
       id="g3451">
      <g
         id="g3453">
        <g
           id="g3455">
          <path
             style="fill:#ffff00;fill-rule:evenodd;stroke:#000000;stroke-width:1px;stroke-linecap:butt;stroke-linejoin:miter;stroke-opacity:1"
             d="M 106.29921,92.125975 L 70.866142,127.55905 L 70.866142,233.85826 L 389.76378,233.85826 L 389.76378,92.125975 L 106.29921,92.125975 L 106.29921,92.125975 z"
             id="path3457"
             transform="translate(-4.149475e-6,698.0315)" />
          <path
             style="fill:#ffff00;fill-rule:evenodd;stroke:#000000;stroke-width:1px;stroke-linecap:butt;stroke-linejoin:miter;stroke-opacity:1"
             d="M 70.866142,127.55905 L 106.29921,92.125975 L 106.29921,127.55905 L 70.866142,127.55905 z"
             id="path3459"
             transform="translate(-4.149475e-6,698.0315)" />
        </g>
        <path
           id="path3461"
           d="M 198.42519,896.45669 L 233.85827,825.59055 L 269.29134,896.45669 L 198.42519,896.45669 z"
           style="fill:none;fill-rule:evenodd;stroke:#ffbf00;stroke-width:10.62992096;stroke-linecap:butt;stroke-linejoin:miter;stroke-miterlimit:4;stroke-dasharray:none;stroke-opacity:1" />
      </g>
    </g>
    <g
       id="g3463"
       transform="matrix(0.3111111,0,0,0.3111111,112.59842,582.91339)">
      <g
         id="g3465">
        <g
           id="g3467">
          <path
             transform="translate(-4.149475e-6,698.0315)"
             id="path3469"
             d="M 106.29921,92.125975 L 70.866142,127.55905 L 70.866142,233.85826 L 389.76378,233.85826 L 389.76378,92.125975 L 106.29921,92.125975 L 106.29921,92.125975 z"
             style="fill:#ffff00;fill-rule:evenodd;stroke:#000000;stroke-width:1px;stroke-linecap:butt;stroke-linejoin:miter;stroke-opacity:1" />
          <path
             transform="translate(-4.149475e-6,698.0315)"
             id="path3471"
             d="M 70.866142,127.55905 L 106.29921,92.125975 L 106.29921,127.55905 L 70.866142,127.55905 z"
             style="fill:#ffff00;fill-rule:evenodd;stroke:#000000;stroke-width:1px;stroke-linecap:butt;stroke-linejoin:miter;stroke-opacity:1" />
        </g>
        <path
           style="fill:none;fill-rule:evenodd;stroke:#ffbf00;stroke-width:10.62992096;stroke-linecap:butt;stroke-linejoin:miter;stroke-miterlimit:4;stroke-dasharray:none;stroke-opacity:1"
           d="M 198.42519,896.45669 L 233.85827,825.59055 L 269.29134,896.45669 L 198.42519,896.45669 z"
           id="path3473" />
      </g>
    </g>
    <g
       transform="matrix(0.3111111,0,0,0.3111111,185.51181,603.38583)"
       id="g3475">
      <g
         id="g3477">
        <g
           id="g3479">
          <path
             style="fill:#ffff00;fill-rule:evenodd;stroke:#000000;stroke-width:1px;stroke-linecap:butt;stroke-linejoin:miter;stroke-opacity:1"
             d="M 106.29921,92.125975 L 70.866142,127.55905 L 70.866142,233.85826 L 389.76378,233.85826 L 389.76378,92.125975 L 106.29921,92.125975 L 106.29921,92.125975 z"
             id="path3481"
             transform="translate(-4.149475e-6,698.0315)" />
          <path
             style="fill:#ffff00;fill-rule:evenodd;stroke:#000000;stroke-width:1px;stroke-linecap:butt;stroke-linejoin:miter;stroke-opacity:1"
             d="M 70.866142,127.55905 L 106.29921,92.125975 L 106.29921,127.55905 L 70.866142,127.55905 z"
             id="path3483"
             transform="translate(-4.149475e-6,698.0315)" />
        </g>
        <path
           id="path3485"
           d="M 198.42519,896.45669 L 233.85827,825.59055 L 269.29134,896.45669 L 198.42519,896.45669 z"
           style="fill:none;fill-rule:evenodd;stroke:#ffbf00;stroke-width:10.62992096;stroke-linecap:butt;stroke-linejoin:miter;stroke-miterlimit:4;stroke-dasharray:none;stroke-opacity:1" />
      </g>
    </g>
    <g
       id="g3487"
       transform="matrix(0.3111111,0,0,0.3111111,271.33858,589.2126)">
      <g
         id="g3489">
        <g
           id="g3491">
          <path
             transform="translate(-4.149475e-6,698.0315)"
             id="path3493"
             d="M 106.29921,92.125975 L 70.866142,127.55905 L 70.866142,233.85826 L 389.76378,233.85826 L 389.76378,92.125975 L 106.29921,92.125975 L 106.29921,92.125975 z"
             style="fill:#ffff00;fill-rule:evenodd;stroke:#000000;stroke-width:1px;stroke-linecap:butt;stroke-linejoin:miter;stroke-opacity:1" />
          <path
             transform="translate(-4.149475e-6,698.0315)"
             id="path3495"
             d="M 70.866142,127.55905 L 106.29921,92.125975 L 106.29921,127.55905 L 70.866142,127.55905 z"
             style="fill:#ffff00;fill-rule:evenodd;stroke:#000000;stroke-width:1px;stroke-linecap:butt;stroke-linejoin:miter;stroke-opacity:1" />
        </g>
        <path
           style="fill:none;fill-rule:evenodd;stroke:#ffbf00;stroke-width:10.62992096;stroke-linecap:butt;stroke-linejoin:miter;stroke-miterlimit:4;stroke-dasharray:none;stroke-opacity:1"
           d="M 198.42519,896.45669 L 233.85827,825.59055 L 269.29134,896.45669 L 198.42519,896.45669 z"
           id="path3497" />
      </g>
    </g>
    <g
       id="g3524"
       transform="translate(16.847058,-5.3237019)">
      <path
         id="path3296"
         d="M 57.017364,935.62109 L 53.66209,942.38325 C 53.66209,942.38325 56.697312,941.36118 56.697312,941.36118 L 60.104191,951.47862 L 64.151163,950.11587 L 60.744292,939.99844 L 63.779523,938.97637 L 57.017364,935.62109 z"
         style="fill:#ff00ff;fill-rule:evenodd;stroke:#000000;stroke-width:0.15064512px;stroke-linecap:butt;stroke-linejoin:miter;stroke-opacity:1" />
      <path
         style="fill:#ff00ff;fill-rule:evenodd;stroke:#000000;stroke-width:0.15064512px;stroke-linecap:butt;stroke-linejoin:miter;stroke-opacity:1"
         d="M 89.760112,935.69527 L 82.365536,937.21346 C 82.365536,937.21346 85.039366,938.97637 85.039366,938.97637 L 79.162976,947.88914 L 82.72808,950.23969 L 88.604467,941.32693 L 91.278302,943.08985 L 89.760112,935.69527 z"
         id="path3501" />
      <path
         style="fill:#ff00ff;fill-rule:evenodd;stroke:#000000;stroke-width:0.15064512px;stroke-linecap:butt;stroke-linejoin:miter;stroke-opacity:1"
         d="M 73.503771,931.38515 L 68.129404,936.68617 C 68.129404,936.68617 71.332014,936.70817 71.332014,936.70817 L 71.258661,947.38356 L 75.528815,947.4129 L 75.602172,936.73752 L 78.804791,936.75952 L 73.503771,931.38515 z"
         id="path3503" />
    </g>
    <g
       id="g3511"
       transform="translate(144.7631,-3.4068777)">
      <path
         style="fill:#ff00ff;fill-rule:evenodd;stroke:#000000;stroke-width:0.15064512px;stroke-linecap:butt;stroke-linejoin:miter;stroke-opacity:1"
         d="M 57.017364,935.62109 L 53.66209,942.38325 C 53.66209,942.38325 56.697312,941.36118 56.697312,941.36118 L 60.104191,951.47862 L 64.151163,950.11587 L 60.744292,939.99844 L 63.779523,938.97637 L 57.017364,935.62109 z"
         id="path3505" />
      <path
         id="path3507"
         d="M 89.760112,935.69527 L 82.365536,937.21346 C 82.365536,937.21346 85.039366,938.97637 85.039366,938.97637 L 79.162976,947.88914 L 82.72808,950.23969 L 88.604467,941.32693 L 91.278302,943.08985 L 89.760112,935.69527 z"
         style="fill:#ff00ff;fill-rule:evenodd;stroke:#000000;stroke-width:0.15064512px;stroke-linecap:butt;stroke-linejoin:miter;stroke-opacity:1" />
      <path
         id="path3509"
         d="M 73.503771,931.38515 L 68.129404,936.68617 C 68.129404,936.68617 71.332014,936.70817 71.332014,936.70817 L 71.258661,947.38356 L 75.528815,947.4129 L 75.602172,936.73752 L 78.804791,936.75952 L 73.503771,931.38515 z"
         style="fill:#ff00ff;fill-rule:evenodd;stroke:#000000;stroke-width:0.15064512px;stroke-linecap:butt;stroke-linejoin:miter;stroke-opacity:1" />
    </g>
    <g
       transform="translate(278.68924,-4.1767035)"
       id="g3516">
      <path
         id="path3518"
         d="M 57.017364,935.62109 L 53.66209,942.38325 C 53.66209,942.38325 56.697312,941.36118 56.697312,941.36118 L 60.104191,951.47862 L 64.151163,950.11587 L 60.744292,939.99844 L 63.779523,938.97637 L 57.017364,935.62109 z"
         style="fill:#ff00ff;fill-rule:evenodd;stroke:#000000;stroke-width:0.15064512px;stroke-linecap:butt;stroke-linejoin:miter;stroke-opacity:1" />
      <path
         style="fill:#ff00ff;fill-rule:evenodd;stroke:#000000;stroke-width:0.15064512px;stroke-linecap:butt;stroke-linejoin:miter;stroke-opacity:1"
         d="M 89.760112,935.69527 L 82.365536,937.21346 C 82.365536,937.21346 85.039366,938.97637 85.039366,938.97637 L 79.162976,947.88914 L 82.72808,950.23969 L 88.604467,941.32693 L 91.278302,943.08985 L 89.760112,935.69527 z"
         id="path3520" />
      <path
         style="fill:#ff00ff;fill-rule:evenodd;stroke:#000000;stroke-width:0.15064512px;stroke-linecap:butt;stroke-linejoin:miter;stroke-opacity:1"
         d="M 73.503771,931.38515 L 68.129404,936.68617 C 68.129404,936.68617 71.332014,936.70817 71.332014,936.70817 L 71.258661,947.38356 L 75.528815,947.4129 L 75.602172,936.73752 L 78.804791,936.75952 L 73.503771,931.38515 z"
         id="path3522" />
    </g>
    <g
       id="g3555"
       transform="matrix(0.5,0,0,0.5,472.23927,575.1821)">
      <path
         transform="translate(-4.149475e-6,698.0315)"
         d="m -42.519691,166.53543 c 0,29.35372 -26.968675,53.14961 -60.236219,53.14961 -33.26755,0 -60.23622,-23.79589 -60.23622,-53.14961 0,-29.35372 26.96867,-53.1496 60.23622,-53.1496 33.267544,0 60.236219,23.79588 60.236219,53.1496 z"
         sodipodi:ry="53.149605"
         sodipodi:rx="60.236221"
         sodipodi:cy="166.53543"
         sodipodi:cx="-102.75591"
         id="path3549"
         style="opacity:1;fill:#b3b3b3;fill-opacity:1;fill-rule:nonzero;stroke:#fd5f66;stroke-width:10.62992096;stroke-linecap:butt;stroke-linejoin:miter;stroke-miterlimit:4;stroke-dasharray:none;stroke-dashoffset:0;stroke-opacity:0.68859648"
         sodipodi:type="arc" />
      <path
         id="path3551"
         d="M -99.212603,861.02362 C -77.952763,825.59055 -77.952763,825.59055 -77.952763,825.59055"
         style="fill:none;fill-rule:evenodd;stroke:#000000;stroke-width:14.17322826;stroke-linecap:butt;stroke-linejoin:miter;stroke-miterlimit:4;stroke-dasharray:none;stroke-opacity:1" />
      <path
         inkscape:transform-center-y="22.185058"
         inkscape:transform-center-x="-12.676132"
         id="path3553"
         d="M -108.25807,869.32083 C -86.074699,904.18314 -86.074699,904.18314 -86.074699,904.18314"
         style="fill:none;fill-rule:evenodd;stroke:#000000;stroke-width:7.08661413;stroke-linecap:butt;stroke-linejoin:miter;stroke-miterlimit:4;stroke-dasharray:none;stroke-opacity:1" />
    </g>
  </g>
</svg>
