<?xml version="1.0" encoding="UTF-8" standalone="no"?>
<!-- Created with Inkscape (http://www.inkscape.org/) -->

<svg
   xmlns:dc="http://purl.org/dc/elements/1.1/"
   xmlns:cc="http://creativecommons.org/ns#"
   xmlns:rdf="http://www.w3.org/1999/02/22-rdf-syntax-ns#"
   xmlns:svg="http://www.w3.org/2000/svg"
   xmlns="http://www.w3.org/2000/svg"
   xmlns:sodipodi="http://sodipodi.sourceforge.net/DTD/sodipodi-0.dtd"
   xmlns:inkscape="http://www.inkscape.org/namespaces/inkscape"
   width="453.5433"
   height="340.15747"
   id="svg2"
   sodipodi:version="0.32"
   inkscape:version="0.48.0 r9654"
   sodipodi:docname="04700-unsupervised-bar.svg"
   version="1.0">
  <defs
     id="defs4" />
  <sodipodi:namedview
     id="base"
     pagecolor="#ffffff"
     bordercolor="#666666"
     borderopacity="1.0"
     inkscape:pageopacity="0.0"
     inkscape:pageshadow="2"
     inkscape:zoom="1.540463"
     inkscape:cx="242.792"
     inkscape:cy="77.855639"
     inkscape:document-units="mm"
     inkscape:current-layer="layer1"
     inkscape:window-width="1297"
     inkscape:window-height="1048"
     inkscape:window-x="0"
     inkscape:window-y="24"
     width="12.8cm"
     height="9.6cm"
     units="cm"
     showgrid="true"
     grid_units="mm"
     inkscape:object-paths="false"
     inkscape:grid-points="true"
     inkscape:grid-bbox="true"
     inkscape:guide-points="true"
     showguides="true"
     inkscape:guide-bbox="true"
     inkscape:window-maximized="0">
    <sodipodi:guide
       orientation="vertical"
       position="56.476527"
       id="guide3573" />
    <sodipodi:guide
       orientation="horizontal"
       position="11.035643"
       id="guide3579" />
    <sodipodi:guide
       orientation="horizontal"
       position="24.018753"
       id="guide3886" />
    <sodipodi:guide
       orientation="horizontal"
       position="285.62841"
       id="guide3988" />
    <sodipodi:guide
       orientation="horizontal"
       position="303.15561"
       id="guide4081" />
    <inkscape:grid
       id="GridFromPre046Settings"
       type="xygrid"
       originx="0px"
       originy="0px"
       spacingx="2mm"
       spacingy="2mm"
       color="#0000ff"
       empcolor="#0000ff"
       opacity="0.2"
       empopacity="0.4"
       empspacing="5" />
  </sodipodi:namedview>
  <metadata
     id="metadata7">
    <rdf:RDF>
      <cc:Work
         rdf:about="">
        <dc:format>image/svg+xml</dc:format>
        <dc:type
           rdf:resource="http://purl.org/dc/dcmitype/StillImage" />
        <dc:title />
      </cc:Work>
    </rdf:RDF>
  </metadata>
  <g
     inkscape:label="Layer 1"
     inkscape:groupmode="layer"
     id="layer1"
     transform="translate(4.149475e-6,-698.0315)">
    <g
       transform="matrix(0.57906185,0,0,-0.57906185,7.08661,1024.0157)"
       id="g14">
      <path
         inkscape:connector-curvature="0"
         d="M 0,0 771,0 771,438 0,438 0,0 z"
         style="fill:#ffffff;fill-opacity:1;fill-rule:nonzero;stroke:none"
         id="path16" />
      <path
         inkscape:connector-curvature="0"
         d="m 734.875,38 -697.25,0 m 697.25,45.25002 -697.25,0 m 697.25,45.24998 -697.25,0 m 697.25,45.25 -697.25,0 m 697.25,45.2501 -697.25,0 m 697.25,45.25 -697.25,0 m 697.25,45.25 -697.25,0 m 697.25,45.25 -697.25,0 m 697.25,45.25 -697.25,0"
         style="fill:none;stroke:#c5c5c5;stroke-width:0.75;stroke-linecap:butt;stroke-linejoin:miter;stroke-miterlimit:10;stroke-opacity:1;stroke-dasharray:none"
         id="path18" />
      <path
         inkscape:connector-curvature="0"
         d="m 70.7712,38 12,0 0,138.465 -12,0 0,-138.465 z"
         style="fill:#000000;fill-opacity:1;fill-rule:nonzero;stroke:none"
         id="path20" />
      <path
         inkscape:connector-curvature="0"
         d="m 167.819,38 12,0 0,142.99 -12,0 0,-142.99 z"
         style="fill:#000000;fill-opacity:1;fill-rule:nonzero;stroke:none"
         id="path22" />
      <path
         inkscape:connector-curvature="0"
         d="m 264.8666,38 12,0 0,330.325 -12,0 0,-330.325 z"
         style="fill:#000000;fill-opacity:1;fill-rule:nonzero;stroke:none"
         id="path24" />
      <path
         inkscape:connector-curvature="0"
         d="m 361.9143,38 12,0 0,109.505 -12,0 0,-109.505 z"
         style="fill:#000000;fill-opacity:1;fill-rule:nonzero;stroke:none"
         id="path26" />
      <path
         inkscape:connector-curvature="0"
         d="m 458.9619,38 12,0 0,108.6 -12,0 0,-108.6 z"
         style="fill:#000000;fill-opacity:1;fill-rule:nonzero;stroke:none"
         id="path28" />
      <path
         inkscape:connector-curvature="0"
         d="m 556.0095,38 12,0 0,199.1 -12,0 0,-199.1 z"
         style="fill:#000000;fill-opacity:1;fill-rule:nonzero;stroke:none"
         id="path30" />
      <path
         inkscape:connector-curvature="0"
         d="m 653.0571,38 12,0 0,145.705 -12,0 0,-145.705 z"
         style="fill:#000000;fill-opacity:1;fill-rule:nonzero;stroke:none"
         id="path32" />
      <path
         inkscape:connector-curvature="0"
         d="m 89.12524,38 12,0 0,123.985 -12,0 0,-123.985 z"
         style="fill:#d6d6d6;fill-opacity:1;fill-rule:nonzero;stroke:#000000"
         id="path34" />
      <path
         inkscape:connector-curvature="0"
         d="m 186.1727,38 12,0 0,203.625 -12,0 0,-203.625 z"
         style="fill:#d6d6d6;fill-opacity:1;fill-rule:nonzero;stroke:#000000"
         id="path36" />
      <path
         inkscape:connector-curvature="0"
         d="m 283.2203,38 12,0 0,243.445 -12,0 0,-243.445 z"
         style="fill:#d6d6d6;fill-opacity:1;fill-rule:nonzero;stroke:#000000"
         id="path38" />
      <path
         inkscape:connector-curvature="0"
         d="m 380.2679,38 12,0 0,91.40497 -12,0 0,-91.40497 z"
         style="fill:#d6d6d6;fill-opacity:1;fill-rule:nonzero;stroke:#000000"
         id="path40" />
      <path
         inkscape:connector-curvature="0"
         d="m 477.3155,38 12,0 0,90.49998 -12,0 0,-90.49998 z"
         style="fill:#d6d6d6;fill-opacity:1;fill-rule:nonzero;stroke:#000000"
         id="path42" />
      <path
         inkscape:connector-curvature="0"
         d="m 574.3632,38 12,0 0,144.8 -12,0 0,-144.8 z"
         style="fill:#d6d6d6;fill-opacity:1;fill-rule:nonzero;stroke:#000000"
         id="path44" />
      <path
         inkscape:connector-curvature="0"
         d="m 671.4108,38 12,0 0,114.935 -12,0 0,-114.935 z"
         style="fill:#d6d6d6;fill-opacity:1;fill-rule:nonzero;stroke:#000000"
         id="path46" />
      <path
         inkscape:connector-curvature="0"
         d="m 107.4797,38 12,0 0,235.3 -12,0 0,-235.3 z"
         style="fill:#808000;fill-opacity:1;fill-rule:nonzero;stroke:#808000"
         id="path48" />
      <path
         inkscape:connector-curvature="0"
         d="m 204.5273,38 12,0 0,134.845 -12,0 0,-134.845 z"
         style="fill:#808000;fill-opacity:1;fill-rule:nonzero;stroke:#808000"
         id="path50" />
      <path
         inkscape:connector-curvature="0"
         d="m 301.5749,38 12,0 0,228.06 -12,0 0,-228.06 z"
         style="fill:#808000;fill-opacity:1;fill-rule:nonzero;stroke:#808000"
         id="path52" />
      <path
         inkscape:connector-curvature="0"
         d="m 398.6226,38 12,0 0,239.825 -12,0 0,-239.825 z"
         style="fill:#808000;fill-opacity:1;fill-rule:nonzero;stroke:#808000"
         id="path54" />
      <path
         inkscape:connector-curvature="0"
         d="m 495.6701,38 12,0 0,150.23 -12,0 0,-150.23 z"
         style="fill:#808000;fill-opacity:1;fill-rule:nonzero;stroke:#808000"
         id="path56" />
      <path
         inkscape:connector-curvature="0"
         d="m 592.7178,38 12,0 0,176.475 -12,0 0,-176.475 z"
         style="fill:#808000;fill-opacity:1;fill-rule:nonzero;stroke:#808000"
         id="path58" />
      <path
         inkscape:connector-curvature="0"
         d="m 689.7654,38 12,0 0,152.04 -12,0 0,-152.04 z"
         style="fill:#808000;fill-opacity:1;fill-rule:nonzero;stroke:#808000"
         id="path60" />
      <path
         inkscape:connector-curvature="0"
         d="m 125.8333,38 12,0 0,157.47 -12,0 0,-157.47 z"
         style="fill:#0000ff;fill-opacity:1;fill-rule:nonzero;stroke:none"
         id="path62" />
      <path
         inkscape:connector-curvature="0"
         d="m 222.8809,38 12,0 0,188.24 -12,0 0,-188.24 z"
         style="fill:#0000ff;fill-opacity:1;fill-rule:nonzero;stroke:none"
         id="path64" />
      <path
         inkscape:connector-curvature="0"
         d="m 319.9285,38 12,0 0,235.3 -12,0 0,-235.3 z"
         style="fill:#0000ff;fill-opacity:1;fill-rule:nonzero;stroke:none"
         id="path66" />
      <path
         inkscape:connector-curvature="0"
         d="m 416.9762,38 12,0 0,199.1 -12,0 0,-199.1 z"
         style="fill:#0000ff;fill-opacity:1;fill-rule:nonzero;stroke:none"
         id="path68" />
      <path
         inkscape:connector-curvature="0"
         d="m 514.0238,38 12,0 0,93.215 -12,0 0,-93.215 z"
         style="fill:#0000ff;fill-opacity:1;fill-rule:nonzero;stroke:none"
         id="path70" />
      <path
         inkscape:connector-curvature="0"
         d="m 611.0714,38 12,0 0,102.265 -12,0 0,-102.265 z"
         style="fill:#0000ff;fill-opacity:1;fill-rule:nonzero;stroke:none"
         id="path72" />
      <path
         inkscape:connector-curvature="0"
         d="m 708.119,38 12,0 0,130.32 -12,0 0,-130.32 z"
         style="fill:#0000ff;fill-opacity:1;fill-rule:nonzero;stroke:none"
         id="path74" />
      <path
         inkscape:connector-curvature="0"
         d="m 500.7055,392.1826 45.1718,0 0,-19.2431 -45.1718,0 0,19.2431 z"
         style="fill:#000000;fill-opacity:1;fill-rule:nonzero;stroke:none"
         id="path76" />
      <path
         inkscape:connector-curvature="0"
         d="m 501.9264,316.4151 45.1718,0 0,-19.2421 -45.1718,0 0,19.2421 z"
         style="fill:#0000ff;fill-opacity:1;fill-rule:nonzero;stroke:none"
         id="path78" />
      <path
         inkscape:connector-curvature="0"
         d="m 500.7055,365.7249 45.1718,0 0,-19.243 -45.1718,0 0,19.243 z"
         style="fill:#d6d6d6;fill-opacity:1;fill-rule:nonzero;stroke:#000000"
         id="path80" />
      <path
         inkscape:connector-curvature="0"
         d="m 501.9264,341.67 45.1718,0 0,-19.2421 -45.1718,0 0,19.2421 z"
         style="fill:#cbcbcb;fill-opacity:1;fill-rule:nonzero;stroke:none"
         id="path82" />
      <path
         inkscape:connector-curvature="0"
         d="m 501.9264,341.67 45.1718,0 0,-19.2421 -45.1718,0 0,19.2421 z"
         style="fill:#808000;fill-opacity:1;fill-rule:nonzero;stroke:#808000"
         id="path84" />
      <path
         inkscape:connector-curvature="0"
         d="m 37.55,38.5 697.4,0 m -631.45,4 0,-6 m 97,6 0,-6 m 97,6 0,-6 m 97,6 0,-6 m 97,6 0,-6 m 97,6 0,-6 m 97,6 0,-6"
         style="fill:none;stroke:#000000;stroke-width:1;stroke-linecap:butt;stroke-linejoin:miter;stroke-miterlimit:10;stroke-opacity:1;stroke-dasharray:none"
         id="path86" />
      <path
         inkscape:connector-curvature="0"
         d="m 38.5,37.55 0,362.9 m 4,-361.95 -6,0 m 6,45 -6,0 m 6,45 -6,0 m 6,45 -6,0 m 6,46 -6,0 m 6,45 -6,0 m 6,45 -6,0 m 6,45 -6,0 m 6,46 -6,0"
         style="fill:none;stroke:#000000;stroke-width:1;stroke-linecap:butt;stroke-linejoin:miter;stroke-miterlimit:10;stroke-opacity:1;stroke-dasharray:none"
         id="path88" />
      <text
         transform="matrix(1,0,0,-1,74,18)"
         id="text90">
        <tspan
           style="font-size:14px;font-variant:normal;font-weight:normal;writing-mode:lr-tb;fill:#000000;fill-opacity:1;fill-rule:nonzero;stroke:none;font-family:GillSans;-inkscape-font-specification:GillSans"
           x="0 7.0994 14.9268 20.5702 25.3316 31.409 38.5084 41.673801 44.839199 48.004601 52.765999"
           y="0"
           sodipodi:role="line"
           id="tspan92">portability</tspan>
      </text>
      <text
         transform="matrix(1,0,0,-1,174,18)"
         id="text94">
        <tspan
           style="font-size:14px;font-variant:normal;font-weight:normal;writing-mode:lr-tb;fill:#000000;fill-opacity:1;fill-rule:nonzero;stroke:none;font-family:GillSans;-inkscape-font-specification:GillSans"
           x="0 6.9706001 10.7352"
           y="0"
           sodipodi:role="line"
           id="tspan96">efﬁ</tspan>
      </text>
      <text
         transform="matrix(1,0,0,-1,192,18)"
         id="text98">
        <tspan
           style="font-size:14px;font-variant:normal;font-weight:normal;writing-mode:lr-tb;fill:#000000;fill-opacity:1;fill-rule:nonzero;stroke:none;font-family:GillSans;-inkscape-font-specification:GillSans"
           x="0 6.1040001 9.1420002 15.82 22.792 28.896"
           y="0"
           sodipodi:role="line"
           id="tspan100">ciency</tspan>
      </text>
      <text
         transform="matrix(1,0,0,-1,271,18)"
         id="text102">
        <tspan
           style="font-size:14px;font-variant:normal;font-weight:normal;writing-mode:lr-tb;fill:#000000;fill-opacity:1;fill-rule:nonzero;stroke:none;font-family:GillSans;-inkscape-font-specification:GillSans"
           x="0 5.6013999 12.3648 15.4882 18.611601 24.646999 31.704399 34.827801 37.951199 41.0746 45.793999"
           y="0"
           sodipodi:role="line"
           id="tspan104">reliability</tspan>
      </text>
      <text
         transform="matrix(1,0,0,-1,359,18)"
         id="text106">
        <tspan
           style="font-size:14px;font-variant:normal;font-weight:normal;writing-mode:lr-tb;fill:#000000;fill-opacity:1;fill-rule:nonzero;stroke:none;font-family:GillSans;-inkscape-font-specification:GillSans"
           x="0 3.5769999 10.654 17.731001 23.940001 28.679001 31.822001 39.626999 46.703999 52.758999 55.902 59.044998 63.784"
           y="0"
           sodipodi:role="line"
           id="tspan108">functionality</tspan>
      </text>
      <text
         transform="matrix(1,0,0,-1,451,18)"
         id="text110">
        <tspan
           style="font-size:14px;font-variant:normal;font-weight:normal;writing-mode:lr-tb;fill:#000000;fill-opacity:1;fill-rule:nonzero;stroke:none;font-family:GillSans;-inkscape-font-specification:GillSans"
           x="0 10.8262 16.836399 19.934601 26.966801 31.660999 37.6712 40.769402 47.801601 53.811798 60.844002 63.9422 67.040398 70.138603 74.832802"
           y="0"
           sodipodi:role="line"
           id="tspan112">maintainability</tspan>
      </text>
      <text
         transform="matrix(1,0,0,-1,566,18)"
         id="text114">
        <tspan
           style="font-size:14px;font-variant:normal;font-weight:normal;writing-mode:lr-tb;fill:#000000;fill-opacity:1;fill-rule:nonzero;stroke:none;font-family:GillSans;-inkscape-font-specification:GillSans"
           x="0 6.9594002 12.3088 18.246201 25.205601 28.231001 31.256399 34.281799 38.903198"
           y="0"
           sodipodi:role="line"
           id="tspan116">usability</tspan>
      </text>
      <text
         transform="matrix(1,0,0,-1,672,18)"
         id="text118">
        <tspan
           style="font-size:14px;font-variant:normal;font-weight:normal;writing-mode:lr-tb;fill:#000000;fill-opacity:1;fill-rule:nonzero;stroke:none;font-family:GillSans;-inkscape-font-specification:GillSans"
           x="0 4.8439999 12.754 17.598 23.757999"
           y="0"
           sodipodi:role="line"
           id="tspan120">total</tspan>
      </text>
      <text
         transform="matrix(1,0,0,-1,15,394)"
         id="text122">
        <tspan
           style="font-size:12px;font-variant:normal;font-weight:normal;writing-mode:lr-tb;fill:#000000;fill-opacity:1;fill-rule:nonzero;stroke:none;font-family:GillSans;-inkscape-font-specification:GillSans"
           x="0 6.1236 8.8752003"
           y="0"
           sodipodi:role="line"
           id="tspan124">0.8</tspan>
      </text>
      <text
         transform="matrix(1,0,0,-1,15,32)"
         id="text126">
        <tspan
           style="font-size:12px;font-variant:normal;font-weight:normal;writing-mode:lr-tb;fill:#000000;fill-opacity:1;fill-rule:nonzero;stroke:none;font-family:GillSans;-inkscape-font-specification:GillSans"
           x="0 6.1236 8.8752003"
           y="0"
           sodipodi:role="line"
           id="tspan128">0.4</tspan>
      </text>
      <text
         transform="matrix(1,0,0,-1,9,77)"
         id="text130">
        <tspan
           style="font-size:12px;font-variant:normal;font-weight:normal;writing-mode:lr-tb;fill:#000000;fill-opacity:1;fill-rule:nonzero;stroke:none;font-family:GillSans;-inkscape-font-specification:GillSans"
           x="0 6.0924001 8.8128004 14.9052"
           y="0"
           sodipodi:role="line"
           id="tspan132">0.45</tspan>
      </text>
      <text
         transform="matrix(1,0,0,-1,15,122)"
         id="text134">
        <tspan
           style="font-size:12px;font-variant:normal;font-weight:normal;writing-mode:lr-tb;fill:#000000;fill-opacity:1;fill-rule:nonzero;stroke:none;font-family:GillSans;-inkscape-font-specification:GillSans"
           x="0 6.1236 8.8752003"
           y="0"
           sodipodi:role="line"
           id="tspan136">0.5</tspan>
      </text>
      <text
         transform="matrix(1,0,0,-1,9,167)"
         id="text138">
        <tspan
           style="font-size:12px;font-variant:normal;font-weight:normal;writing-mode:lr-tb;fill:#000000;fill-opacity:1;fill-rule:nonzero;stroke:none;font-family:GillSans;-inkscape-font-specification:GillSans"
           x="0 6.0924001 8.8128004 14.9052"
           y="0"
           sodipodi:role="line"
           id="tspan140">0.55</tspan>
      </text>
      <text
         transform="matrix(1,0,0,-1,15,213)"
         id="text142">
        <tspan
           style="font-size:12px;font-variant:normal;font-weight:normal;writing-mode:lr-tb;fill:#000000;fill-opacity:1;fill-rule:nonzero;stroke:none;font-family:GillSans;-inkscape-font-specification:GillSans"
           x="0 6.1236 8.8752003"
           y="0"
           sodipodi:role="line"
           id="tspan144">0.6</tspan>
      </text>
      <text
         transform="matrix(1,0,0,-1,9,258)"
         id="text146">
        <tspan
           style="font-size:12px;font-variant:normal;font-weight:normal;writing-mode:lr-tb;fill:#000000;fill-opacity:1;fill-rule:nonzero;stroke:none;font-family:GillSans;-inkscape-font-specification:GillSans"
           x="0 6.0924001 8.8128004 14.9052"
           y="0"
           sodipodi:role="line"
           id="tspan148">0.65</tspan>
      </text>
      <text
         transform="matrix(1,0,0,-1,15,303)"
         id="text150">
        <tspan
           style="font-size:12px;font-variant:normal;font-weight:normal;writing-mode:lr-tb;fill:#000000;fill-opacity:1;fill-rule:nonzero;stroke:none;font-family:GillSans;-inkscape-font-specification:GillSans"
           x="0 6.1236 8.8752003"
           y="0"
           sodipodi:role="line"
           id="tspan152">0.7</tspan>
      </text>
      <text
         transform="matrix(1,0,0,-1,9,348)"
         id="text154">
        <tspan
           style="font-size:12px;font-variant:normal;font-weight:normal;writing-mode:lr-tb;fill:#000000;fill-opacity:1;fill-rule:nonzero;stroke:none;font-family:GillSans;-inkscape-font-specification:GillSans"
           x="0 6.0924001 8.8128004 14.9052"
           y="0"
           sodipodi:role="line"
           id="tspan156">0.75</tspan>
      </text>
      <path
         inkscape:connector-curvature="0"
         d="m 38,128.5 696.0002,-1.4996"
         style="fill:none;stroke:#cc1c00;stroke-width:1.60000002;stroke-linecap:butt;stroke-linejoin:miter;stroke-miterlimit:10;stroke-opacity:1;stroke-dasharray:2, 2, 2, 2;stroke-dashoffset:0"
         id="path158" />
      <path
         inkscape:connector-curvature="0"
         d="m 38.56569,127.9343 c 0.31242,0.3124 0.31242,0.819 0,1.1314 -0.31242,0.3124 -0.81896,0.3124 -1.13138,0 -0.31242,-0.3124 -0.31242,-0.819 0,-1.1314 0.31242,-0.3124 0.81896,-0.3124 1.13138,0"
         style="fill:#cc1c00;fill-opacity:1;fill-rule:nonzero;stroke:none"
         id="path160" />
      <path
         inkscape:connector-curvature="0"
         d="m 734.5659,126.4347 c 0.3125,0.3124 0.3125,0.819 0,1.1314 -0.3124,0.3124 -0.819,0.3124 -1.1313,0 -0.3125,-0.3124 -0.3125,-0.819 0,-1.1314 0.3123,-0.3124 0.8189,-0.3124 1.1313,0"
         style="fill:#cc1c00;fill-opacity:1;fill-rule:nonzero;stroke:none"
         id="path162" />
      <text
         transform="matrix(1,0,0,-1,553.2734,323)"
         id="text164">
        <tspan
           style="font-size:14px;font-variant:normal;font-weight:bold;writing-mode:lr-tb;fill:#000000;fill-opacity:1;fill-rule:nonzero;stroke:none;font-family:Candara;-inkscape-font-specification:Candara-Bold"
           x="0"
           y="0"
           id="tspan166">M</tspan>
      </text>
      <text
         transform="matrix(1,0,0,-1,565.5469,323)"
         id="text168">
        <tspan
           style="font-size:14px;font-variant:normal;font-weight:bold;writing-mode:lr-tb;fill:#000000;fill-opacity:1;fill-rule:nonzero;stroke:none;font-family:Candara;-inkscape-font-specification:Candara-Bold"
           x="0 6.8319998"
           y="0"
           sodipodi:role="line"
           id="tspan170">ax</tspan>
      </text>
      <text
         transform="matrix(1,0,0,-1,579.8203,323)"
         id="text172">
        <tspan
           style="font-size:14px;font-variant:normal;font-weight:bold;writing-mode:lr-tb;fill:#000000;fill-opacity:1;fill-rule:nonzero;stroke:none;font-family:Candara;-inkscape-font-specification:Candara-Bold"
           x="0"
           y="0"
           id="tspan174">D</tspan>
      </text>
      <text
         transform="matrix(1,0,0,-1,589.3672,323)"
         id="text176">
        <tspan
           style="font-size:14px;font-variant:normal;font-weight:bold;writing-mode:lr-tb;fill:#000000;fill-opacity:1;fill-rule:nonzero;stroke:none;font-family:Candara;-inkscape-font-specification:Candara-Bold"
           x="0"
           y="0"
           id="tspan178">B</tspan>
      </text>
      <text
         transform="matrix(1,0,0,-1,597.6406,323)"
         id="text180">
        <tspan
           style="font-size:14px;font-variant:normal;font-weight:bold;writing-mode:lr-tb;fill:#000000;fill-opacity:1;fill-rule:nonzero;stroke:none;font-family:Candara;-inkscape-font-specification:Candara-Bold"
           x="0 3.0674 10.2648 17.5042 25.3736"
           y="0"
           sodipodi:role="line"
           id="tspan182">exp3</tspan>
      </text>
      <text
         transform="matrix(1,0,0,-1,553.2734,300)"
         id="text184">
        <tspan
           style="font-size:14px;font-variant:normal;font-weight:bold;writing-mode:lr-tb;fill:#000000;fill-opacity:1;fill-rule:nonzero;stroke:none;font-family:Candara;-inkscape-font-specification:Candara-Bold"
           x="0"
           y="0"
           id="tspan186">M</tspan>
      </text>
      <text
         transform="matrix(1,0,0,-1,565.5469,300)"
         id="text188">
        <tspan
           style="font-size:14px;font-variant:normal;font-weight:bold;writing-mode:lr-tb;fill:#000000;fill-opacity:1;fill-rule:nonzero;stroke:none;font-family:Candara;-inkscape-font-specification:Candara-Bold"
           x="0"
           y="0"
           id="tspan190">y</tspan>
      </text>
      <text
         transform="matrix(1,0,0,-1,572.8203,300)"
         id="text192">
        <tspan
           style="font-size:14px;font-variant:normal;font-weight:bold;writing-mode:lr-tb;fill:#000000;fill-opacity:1;fill-rule:nonzero;stroke:none;font-family:Candara;-inkscape-font-specification:Candara-Bold"
           x="0"
           y="0"
           id="tspan194">S</tspan>
      </text>
      <text
         transform="matrix(1,0,0,-1,580.3672,300)"
         id="text196">
        <tspan
           style="font-size:14px;font-variant:normal;font-weight:bold;writing-mode:lr-tb;fill:#000000;fill-opacity:1;fill-rule:nonzero;stroke:none;font-family:Candara;-inkscape-font-specification:Candara-Bold"
           x="0"
           y="0"
           id="tspan198">Q</tspan>
      </text>
      <text
         transform="matrix(1,0,0,-1,590.9141,300)"
         id="text200">
        <tspan
           style="font-size:14px;font-variant:normal;font-weight:bold;writing-mode:lr-tb;fill:#000000;fill-opacity:1;fill-rule:nonzero;stroke:none;font-family:Candara;-inkscape-font-specification:Candara-Bold"
           x="0"
           y="0"
           id="tspan202">L</tspan>
      </text>
      <text
         transform="matrix(1,0,0,-1,598.1875,300)"
         id="text204">
        <tspan
           style="font-size:14px;font-variant:normal;font-weight:bold;writing-mode:lr-tb;fill:#000000;fill-opacity:1;fill-rule:nonzero;stroke:none;font-family:Candara;-inkscape-font-specification:Candara-Bold"
           x="0 3.0674 10.2648 17.5042 25.3736"
           y="0"
           sodipodi:role="line"
           id="tspan206">exp3</tspan>
      </text>
      <text
         transform="matrix(1,0,0,-1,552.2734,376)"
         id="text208">
        <tspan
           style="font-size:14px;font-variant:normal;font-weight:bold;writing-mode:lr-tb;fill:#000000;fill-opacity:1;fill-rule:nonzero;stroke:none;font-family:Candara;-inkscape-font-specification:Candara-Bold"
           x="0"
           y="0"
           id="tspan210">M</tspan>
      </text>
      <text
         transform="matrix(1,0,0,-1,564.5469,376)"
         id="text212">
        <tspan
           style="font-size:14px;font-variant:normal;font-weight:bold;writing-mode:lr-tb;fill:#000000;fill-opacity:1;fill-rule:nonzero;stroke:none;font-family:Candara;-inkscape-font-specification:Candara-Bold"
           x="0 6.8319998"
           y="0"
           sodipodi:role="line"
           id="tspan214">ax</tspan>
      </text>
      <text
         transform="matrix(1,0,0,-1,578.8203,376)"
         id="text216">
        <tspan
           style="font-size:14px;font-variant:normal;font-weight:bold;writing-mode:lr-tb;fill:#000000;fill-opacity:1;fill-rule:nonzero;stroke:none;font-family:Candara;-inkscape-font-specification:Candara-Bold"
           x="0"
           y="0"
           id="tspan218">D</tspan>
      </text>
      <text
         transform="matrix(1,0,0,-1,588.3672,376)"
         id="text220">
        <tspan
           style="font-size:14px;font-variant:normal;font-weight:bold;writing-mode:lr-tb;fill:#000000;fill-opacity:1;fill-rule:nonzero;stroke:none;font-family:Candara;-inkscape-font-specification:Candara-Bold"
           x="0"
           y="0"
           id="tspan222">B</tspan>
      </text>
      <text
         transform="matrix(1,0,0,-1,596.6406,376)"
         id="text224">
        <tspan
           style="font-size:14px;font-variant:normal;font-weight:bold;writing-mode:lr-tb;fill:#000000;fill-opacity:1;fill-rule:nonzero;stroke:none;font-family:Candara;-inkscape-font-specification:Candara-Bold"
           x="0 3.0422001 10.2144 17.4286 25.2728"
           y="0"
           sodipodi:role="line"
           id="tspan226">exp2</tspan>
      </text>
      <text
         transform="matrix(1,0,0,-1,552.2734,352)"
         id="text228">
        <tspan
           style="font-size:14px;font-variant:normal;font-weight:bold;writing-mode:lr-tb;fill:#000000;fill-opacity:1;fill-rule:nonzero;stroke:none;font-family:Candara;-inkscape-font-specification:Candara-Bold"
           x="0"
           y="0"
           id="tspan230">M</tspan>
      </text>
      <text
         transform="matrix(1,0,0,-1,564.5469,352)"
         id="text232">
        <tspan
           style="font-size:14px;font-variant:normal;font-weight:bold;writing-mode:lr-tb;fill:#000000;fill-opacity:1;fill-rule:nonzero;stroke:none;font-family:Candara;-inkscape-font-specification:Candara-Bold"
           x="0"
           y="0"
           id="tspan234">y</tspan>
      </text>
      <text
         transform="matrix(1,0,0,-1,571.8203,352)"
         id="text236">
        <tspan
           style="font-size:14px;font-variant:normal;font-weight:bold;writing-mode:lr-tb;fill:#000000;fill-opacity:1;fill-rule:nonzero;stroke:none;font-family:Candara;-inkscape-font-specification:Candara-Bold"
           x="0"
           y="0"
           id="tspan238">S</tspan>
      </text>
      <text
         transform="matrix(1,0,0,-1,579.3672,352)"
         id="text240">
        <tspan
           style="font-size:14px;font-variant:normal;font-weight:bold;writing-mode:lr-tb;fill:#000000;fill-opacity:1;fill-rule:nonzero;stroke:none;font-family:Candara;-inkscape-font-specification:Candara-Bold"
           x="0"
           y="0"
           id="tspan242">Q</tspan>
      </text>
      <text
         transform="matrix(1,0,0,-1,589.9141,352)"
         id="text244">
        <tspan
           style="font-size:14px;font-variant:normal;font-weight:bold;writing-mode:lr-tb;fill:#000000;fill-opacity:1;fill-rule:nonzero;stroke:none;font-family:Candara;-inkscape-font-specification:Candara-Bold"
           x="0"
           y="0"
           id="tspan246">L</tspan>
      </text>
      <text
         transform="matrix(1,0,0,-1,597.1875,352)"
         id="text248">
        <tspan
           style="font-size:14px;font-variant:normal;font-weight:bold;writing-mode:lr-tb;fill:#000000;fill-opacity:1;fill-rule:nonzero;stroke:none;font-family:Candara;-inkscape-font-specification:Candara-Bold"
           x="0 3.0422001 10.2144 17.4286 25.2728"
           y="0"
           sodipodi:role="line"
           id="tspan250">exp2</tspan>
      </text>
    </g>
    <text
       xml:space="preserve"
       style="font-size:24px;font-style:normal;font-weight:bold;line-height:125%;letter-spacing:0px;word-spacing:0px;fill:#000000;fill-opacity:1;stroke:none;font-family:Sans;-inkscape-font-specification:Sans Bold"
       x="56.476524"
       y="733.46454"
       id="text3107"
       sodipodi:linespacing="125%"><tspan
         sodipodi:role="line"
         id="tspan3109"
         x="56.476524"
         y="733.46454">ROC Values of </tspan><tspan
         sodipodi:role="line"
         x="56.476524"
         y="763.46454"
         id="tspan3111">Semi-Supervised Word Bags</tspan></text>
    <text
       xml:space="preserve"
       style="font-size:24px;font-style:normal;font-weight:bold;line-height:125%;letter-spacing:0px;word-spacing:0px;fill:#000000;fill-opacity:1;stroke:none;font-family:Sans;-inkscape-font-specification:Sans Bold"
       x="-995.66931"
       y="21.259838"
       id="text3113"
       sodipodi:linespacing="125%"
       transform="matrix(0,-1,1,0,0,0)"
       inkscape:transform-center-x="-28.570314"
       inkscape:transform-center-y="-100.86234"><tspan
         sodipodi:role="line"
         id="tspan3115"
         x="-995.66931"
         y="21.259838">ROC</tspan></text>
    <text
       xml:space="preserve"
       style="font-size:24px;font-style:normal;font-weight:bold;line-height:125%;letter-spacing:0px;word-spacing:0px;fill:#000000;fill-opacity:1;stroke:none;font-family:Sans;-inkscape-font-specification:Sans Bold"
       x="198.42519"
       y="1031.1024"
       id="text3113-8"
       sodipodi:linespacing="125%"
       inkscape:transform-center-x="-100.86234"
       inkscape:transform-center-y="28.570277"><tspan
         sodipodi:role="line"
         id="tspan3115-3"
         x="198.42519"
         y="1031.1024">NFR</tspan></text>
  </g>
</svg>
