<?xml version="1.0" encoding="UTF-8" standalone="no"?>
<!-- Created with Inkscape (http://www.inkscape.org/) -->

<svg
   xmlns:dc="http://purl.org/dc/elements/1.1/"
   xmlns:cc="http://creativecommons.org/ns#"
   xmlns:rdf="http://www.w3.org/1999/02/22-rdf-syntax-ns#"
   xmlns:svg="http://www.w3.org/2000/svg"
   xmlns="http://www.w3.org/2000/svg"
   xmlns:sodipodi="http://sodipodi.sourceforge.net/DTD/sodipodi-0.dtd"
   xmlns:inkscape="http://www.inkscape.org/namespaces/inkscape"
   width="453.5433"
   height="340.15747"
   id="svg2"
   sodipodi:version="0.32"
   inkscape:version="0.48.0 r9654"
   sodipodi:docname="04799-unsupervised-bar-f1.svg"
   version="1.0">
  <defs
     id="defs4" />
  <sodipodi:namedview
     id="base"
     pagecolor="#ffffff"
     bordercolor="#666666"
     borderopacity="1.0"
     inkscape:pageopacity="0.0"
     inkscape:pageshadow="2"
     inkscape:zoom="2.1785437"
     inkscape:cx="209.11512"
     inkscape:cy="209.82731"
     inkscape:document-units="mm"
     inkscape:current-layer="layer1"
     inkscape:window-width="1297"
     inkscape:window-height="1048"
     inkscape:window-x="0"
     inkscape:window-y="24"
     width="12.8cm"
     height="9.6cm"
     units="cm"
     showgrid="true"
     grid_units="mm"
     inkscape:object-paths="false"
     inkscape:grid-points="true"
     inkscape:grid-bbox="true"
     inkscape:guide-points="true"
     showguides="true"
     inkscape:guide-bbox="true"
     inkscape:window-maximized="0">
    <sodipodi:guide
       orientation="vertical"
       position="56.476527"
       id="guide3573" />
    <sodipodi:guide
       orientation="horizontal"
       position="11.035643"
       id="guide3579" />
    <sodipodi:guide
       orientation="horizontal"
       position="24.018753"
       id="guide3886" />
    <sodipodi:guide
       orientation="horizontal"
       position="285.62841"
       id="guide3988" />
    <sodipodi:guide
       orientation="horizontal"
       position="303.15561"
       id="guide4081" />
    <inkscape:grid
       id="GridFromPre046Settings"
       type="xygrid"
       originx="0px"
       originy="0px"
       spacingx="2mm"
       spacingy="2mm"
       color="#0000ff"
       empcolor="#0000ff"
       opacity="0.2"
       empopacity="0.4"
       empspacing="5" />
  </sodipodi:namedview>
  <metadata
     id="metadata7">
    <rdf:RDF>
      <cc:Work
         rdf:about="">
        <dc:format>image/svg+xml</dc:format>
        <dc:type
           rdf:resource="http://purl.org/dc/dcmitype/StillImage" />
        <dc:title />
      </cc:Work>
    </rdf:RDF>
  </metadata>
  <g
     inkscape:label="Layer 1"
     inkscape:groupmode="layer"
     id="layer1"
     transform="translate(4.149475e-6,-698.0315)">
    <g
       transform="matrix(0.57122225,0,0,-0.57122225,6.044334,1009.8425)"
       inkscape:label="04799-unsupervised-bar-f1"
       id="g3646">
      <g
         id="g3648" />
      <g
         id="g3650">
        <path
           id="path3652"
           style="fill:#ffffff;fill-opacity:1;fill-rule:nonzero;stroke:none"
           d="M 0,0 771,0 771,438 0,438 0,0 z"
           inkscape:connector-curvature="0" />
        <path
           id="path3654"
           style="fill:none;stroke:#c5c5c5;stroke-width:0.75;stroke-linecap:butt;stroke-linejoin:miter;stroke-miterlimit:10;stroke-opacity:1;stroke-dasharray:none"
           d="m 734.875,38 -697.25,0 m 697.25,45.25 -697.25,0 m 697.25,45.25 -697.25,0 m 697.25,45.25 -697.25,0 m 697.25,45.25 -697.25,0 m 697.25,45.25 -697.25,0 m 697.25,45.25 -697.25,0 m 697.25,45.25 -697.25,0 m 697.25,45.25 -697.25,0"
           inkscape:connector-curvature="0" />
        <path
           id="path3656"
           style="fill:#000000;fill-opacity:1;fill-rule:nonzero;stroke:none"
           d="m 70.7712,38 12,0 0,103.17 -12,0 0,-103.17 z"
           inkscape:connector-curvature="0" />
        <path
           id="path3658"
           style="fill:#000000;fill-opacity:1;fill-rule:nonzero;stroke:none"
           d="m 167.819,38 12,0 0,98.1925 -12,0 0,-98.1925 z"
           inkscape:connector-curvature="0" />
        <path
           id="path3660"
           style="fill:#000000;fill-opacity:1;fill-rule:nonzero;stroke:none"
           d="m 264.8666,38 12,0 0,171.95 -12,0 0,-171.95 z"
           inkscape:connector-curvature="0" />
        <path
           id="path3662"
           style="fill:#000000;fill-opacity:1;fill-rule:nonzero;stroke:none"
           d="m 361.9143,38 12,0 0,42.9875 -12,0 0,-42.9875 z"
           inkscape:connector-curvature="0" />
        <path
           id="path3664"
           style="fill:#000000;fill-opacity:1;fill-rule:nonzero;stroke:none"
           d="m 458.9619,38 12,0 0,41.63 -12,0 0,-41.63 z"
           inkscape:connector-curvature="0" />
        <path
           id="path3666"
           style="fill:#000000;fill-opacity:1;fill-rule:nonzero;stroke:none"
           d="m 556.0095,38 12,0 0,79.1875 -12,0 0,-79.1875 z"
           inkscape:connector-curvature="0" />
        <path
           id="path3668"
           style="fill:#000000;fill-opacity:1;fill-rule:nonzero;stroke:none"
           d="m 653.0571,38 12,0 0,106.79 -12,0 0,-106.79 z"
           inkscape:connector-curvature="0" />
        <path
           id="path3670"
           style="fill:#d6d6d6;fill-opacity:1;fill-rule:nonzero;stroke:#000000"
           d="m 89.12524,38 12,0 0,62.445 -12,0 0,-62.445 z"
           inkscape:connector-curvature="0" />
        <path
           id="path3672"
           style="fill:#d6d6d6;fill-opacity:1;fill-rule:nonzero;stroke:#000000"
           d="m 186.1727,38 12,0 0,141.6325 -12,0 0,-141.6325 z"
           inkscape:connector-curvature="0" />
        <path
           id="path3674"
           style="fill:#d6d6d6;fill-opacity:1;fill-rule:nonzero;stroke:#000000"
           d="m 283.2203,38 12,0 0,186.43 -12,0 0,-186.43 z"
           inkscape:connector-curvature="0" />
        <path
           id="path3676"
           style="fill:#d6d6d6;fill-opacity:1;fill-rule:nonzero;stroke:#000000"
           d="m 380.2679,38 12,0 0,11.3125 -12,0 0,-11.3125 z"
           inkscape:connector-curvature="0" />
        <path
           id="path3678"
           style="fill:#d6d6d6;fill-opacity:1;fill-rule:nonzero;stroke:none"
           d="m 477.3155,38 12,0 0,0 -12,0 z"
           inkscape:connector-curvature="0" />
        <path
           id="path3680"
           style="fill:#d6d6d6;fill-opacity:1;fill-rule:nonzero;stroke:#000000"
           d="m 574.3632,38 12,0 0,79.1875 -12,0 0,-79.1875 z"
           inkscape:connector-curvature="0" />
        <path
           id="path3682"
           style="fill:#d6d6d6;fill-opacity:1;fill-rule:nonzero;stroke:#000000"
           d="m 671.4108,38 12,0 0,72.40001 -12,0 0,-72.40001 z"
           inkscape:connector-curvature="0" />
        <path
           id="path3684"
           style="fill:#808000;fill-opacity:1;fill-rule:nonzero;stroke:none"
           d="m 107.4797,38 12,0 0,213.58 -12,0 0,-213.58 z"
           inkscape:connector-curvature="0" />
        <path
           id="path3686"
           style="fill:#808000;fill-opacity:1;fill-rule:nonzero;stroke:none"
           d="m 204.5273,38 12,0 0,100.9075 -12,0 0,-100.9075 z"
           inkscape:connector-curvature="0" />
        <path
           id="path3688"
           style="fill:#808000;fill-opacity:1;fill-rule:nonzero;stroke:none"
           d="m 301.5749,38 12,0 0,116.2925 -12,0 0,-116.2925 z"
           inkscape:connector-curvature="0" />
        <path
           id="path3690"
           style="fill:#808000;fill-opacity:1;fill-rule:nonzero;stroke:none"
           d="m 398.6226,38 12,0 0,106.79 -12,0 0,-106.79 z"
           inkscape:connector-curvature="0" />
        <path
           id="path3692"
           style="fill:#808000;fill-opacity:1;fill-rule:nonzero;stroke:none"
           d="m 495.6701,38 12,0 0,152.945 -12,0 0,-152.945 z"
           inkscape:connector-curvature="0" />
        <path
           id="path3694"
           style="fill:#808000;fill-opacity:1;fill-rule:nonzero;stroke:none"
           d="m 592.7178,38 12,0 0,49.775 -12,0 0,-49.775 z"
           inkscape:connector-curvature="0" />
        <path
           id="path3696"
           style="fill:#808000;fill-opacity:1;fill-rule:nonzero;stroke:none"
           d="m 689.7654,38 12,0 0,116.745 -12,0 0,-116.745 z"
           inkscape:connector-curvature="0" />
        <path
           id="path3698"
           style="fill:#0000ff;fill-opacity:1;fill-rule:nonzero;stroke:none"
           d="m 125.8333,38 12,0 0,186.8825 -12,0 0,-186.8825 z"
           inkscape:connector-curvature="0" />
        <path
           id="path3700"
           style="fill:#0000ff;fill-opacity:1;fill-rule:nonzero;stroke:none"
           d="m 222.8809,38 12,0 0,83.7125 -12,0 0,-83.7125 z"
           inkscape:connector-curvature="0" />
        <path
           id="path3702"
           style="fill:#0000ff;fill-opacity:1;fill-rule:nonzero;stroke:none"
           d="m 319.9285,38 12,0 0,183.2625 -12,0 0,-183.2625 z"
           inkscape:connector-curvature="0" />
        <path
           id="path3704"
           style="fill:#0000ff;fill-opacity:1;fill-rule:nonzero;stroke:none"
           d="m 416.9762,38 12,0 0,295.03 -12,0 0,-295.03 z"
           inkscape:connector-curvature="0" />
        <path
           id="path3706"
           style="fill:#0000ff;fill-opacity:1;fill-rule:nonzero;stroke:none"
           d="m 514.0238,38 12,0 0,98.645 -12,0 0,-98.645 z"
           inkscape:connector-curvature="0" />
        <path
           id="path3708"
           style="fill:#0000ff;fill-opacity:1;fill-rule:nonzero;stroke:none"
           d="m 611.0714,38 12,0 0,47.5125 -12,0 0,-47.5125 z"
           inkscape:connector-curvature="0" />
        <path
           id="path3710"
           style="fill:#0000ff;fill-opacity:1;fill-rule:nonzero;stroke:none"
           d="m 708.119,38 12,0 0,166.0675 -12,0 0,-166.0675 z"
           inkscape:connector-curvature="0" />
        <path
           id="path3712"
           style="fill:#000000;fill-opacity:1;fill-rule:nonzero;stroke:none"
           d="m 500.7055,396.0913 45.1718,0 0,-9.6215 -45.1718,0 0,9.6215 z"
           inkscape:connector-curvature="0" />
        <path
           id="path3714"
           style="fill:#0000ff;fill-opacity:1;fill-rule:nonzero;stroke:none"
           d="m 501.9264,358.2076 45.1718,0 0,-9.6211 -45.1718,0 0,9.6211 z"
           inkscape:connector-curvature="0" />
        <path
           id="path3716"
           style="fill:#d6d6d6;fill-opacity:1;fill-rule:nonzero;stroke:#000000"
           d="m 500.7055,382.8625 45.1718,0 0,-9.6215 -45.1718,0 0,9.6215 z"
           inkscape:connector-curvature="0" />
        <path
           id="path3718"
           style="fill:#cbcbcb;fill-opacity:1;fill-rule:nonzero;stroke:none"
           d="m 501.9264,370.835 45.1718,0 0,-9.621 -45.1718,0 0,9.621 z"
           inkscape:connector-curvature="0" />
        <path
           id="path3720"
           style="fill:#808000;fill-opacity:1;fill-rule:nonzero;stroke:none"
           d="m 501.9264,370.835 45.1718,0 0,-9.621 -45.1718,0 0,9.621 z"
           inkscape:connector-curvature="0" />
        <path
           id="path3722"
           style="fill:none;stroke:#000000;stroke-width:1;stroke-linecap:butt;stroke-linejoin:miter;stroke-miterlimit:10;stroke-opacity:1;stroke-dasharray:none"
           d="m 37.55,38.5 697.4,0 m -631.45,4 0,-6 m 97,6 0,-6 m 97,6 0,-6 m 97,6 0,-6 m 97,6 0,-6 m 97,6 0,-6 m 97,6 0,-6"
           inkscape:connector-curvature="0" />
        <path
           id="path3724"
           style="fill:none;stroke:#000000;stroke-width:1;stroke-linecap:butt;stroke-linejoin:miter;stroke-miterlimit:10;stroke-opacity:1;stroke-dasharray:none"
           d="m 38.5,37.55 0,362.9 m 4,-361.95 -6,0 m 6,45 -6,0 m 6,45 -6,0 m 6,45 -6,0 m 6,46 -6,0 m 6,45 -6,0 m 6,45 -6,0 m 6,45 -6,0 m 6,46 -6,0"
           inkscape:connector-curvature="0" />
        <text
           id="text3726"
           transform="matrix(1,0,0,-1,74,18)">
          <tspan
             id="tspan3728"
             sodipodi:role="line"
             y="0"
             x="0 7.0994 14.9268 20.5702 25.3316 31.409 38.5084 41.673801 44.839199 48.004601 52.765999"
             style="font-size:14px;font-variant:normal;font-weight:normal;writing-mode:lr-tb;fill:#000000;fill-opacity:1;fill-rule:nonzero;stroke:none;font-family:GillSans;-inkscape-font-specification:GillSans">portability</tspan>
        </text>
        <text
           id="text3730"
           transform="matrix(1,0,0,-1,174,18)">
          <tspan
             id="tspan3732"
             sodipodi:role="line"
             y="0"
             x="0 6.9706001 10.7352"
             style="font-size:14px;font-variant:normal;font-weight:normal;writing-mode:lr-tb;fill:#000000;fill-opacity:1;fill-rule:nonzero;stroke:none;font-family:GillSans;-inkscape-font-specification:GillSans">efﬁ</tspan>
        </text>
        <text
           id="text3734"
           transform="matrix(1,0,0,-1,192,18)">
          <tspan
             id="tspan3736"
             sodipodi:role="line"
             y="0"
             x="0 6.1040001 9.1420002 15.82 22.792 28.896"
             style="font-size:14px;font-variant:normal;font-weight:normal;writing-mode:lr-tb;fill:#000000;fill-opacity:1;fill-rule:nonzero;stroke:none;font-family:GillSans;-inkscape-font-specification:GillSans">ciency</tspan>
        </text>
        <text
           id="text3738"
           transform="matrix(1,0,0,-1,271,18)">
          <tspan
             id="tspan3740"
             sodipodi:role="line"
             y="0"
             x="0 5.6013999 12.3648 15.4882 18.611601 24.646999 31.704399 34.827801 37.951199 41.0746 45.793999"
             style="font-size:14px;font-variant:normal;font-weight:normal;writing-mode:lr-tb;fill:#000000;fill-opacity:1;fill-rule:nonzero;stroke:none;font-family:GillSans;-inkscape-font-specification:GillSans">reliability</tspan>
        </text>
        <text
           id="text3742"
           transform="matrix(1,0,0,-1,359,18)">
          <tspan
             id="tspan3744"
             sodipodi:role="line"
             y="0"
             x="0 3.5769999 10.654 17.731001 23.940001 28.679001 31.822001 39.626999 46.703999 52.758999 55.902 59.044998 63.784"
             style="font-size:14px;font-variant:normal;font-weight:normal;writing-mode:lr-tb;fill:#000000;fill-opacity:1;fill-rule:nonzero;stroke:none;font-family:GillSans;-inkscape-font-specification:GillSans">functionality</tspan>
        </text>
        <text
           id="text3746"
           transform="matrix(1,0,0,-1,451,18)">
          <tspan
             id="tspan3748"
             sodipodi:role="line"
             y="0"
             x="0 10.8262 16.836399 19.934601 26.966801 31.660999 37.6712 40.769402 47.801601 53.811798 60.844002 63.9422 67.040398 70.138603 74.832802"
             style="font-size:14px;font-variant:normal;font-weight:normal;writing-mode:lr-tb;fill:#000000;fill-opacity:1;fill-rule:nonzero;stroke:none;font-family:GillSans;-inkscape-font-specification:GillSans">maintainability</tspan>
        </text>
        <text
           id="text3750"
           transform="matrix(1,0,0,-1,566,18)">
          <tspan
             id="tspan3752"
             sodipodi:role="line"
             y="0"
             x="0 6.9594002 12.3088 18.246201 25.205601 28.231001 31.256399 34.281799 38.903198"
             style="font-size:14px;font-variant:normal;font-weight:normal;writing-mode:lr-tb;fill:#000000;fill-opacity:1;fill-rule:nonzero;stroke:none;font-family:GillSans;-inkscape-font-specification:GillSans">usability</tspan>
        </text>
        <text
           id="text3754"
           transform="matrix(1,0,0,-1,672,18)">
          <tspan
             id="tspan3756"
             sodipodi:role="line"
             y="0"
             x="0 4.8439999 12.754 17.598 23.757999"
             style="font-size:14px;font-variant:normal;font-weight:normal;writing-mode:lr-tb;fill:#000000;fill-opacity:1;fill-rule:nonzero;stroke:none;font-family:GillSans;-inkscape-font-specification:GillSans">total</tspan>
        </text>
        <text
           id="text3758"
           transform="matrix(1,0,0,-1,15,394)">
          <tspan
             id="tspan3760"
             sodipodi:role="line"
             y="0"
             x="0 6.1236 8.8752003"
             style="font-size:12px;font-variant:normal;font-weight:normal;writing-mode:lr-tb;fill:#000000;fill-opacity:1;fill-rule:nonzero;stroke:none;font-family:GillSans;-inkscape-font-specification:GillSans">0.8</tspan>
        </text>
        <text
           id="text3762"
           transform="matrix(1,0,0,-1,24,32)">
          <tspan
             id="tspan3764"
             y="0"
             x="0"
             style="font-size:12px;font-variant:normal;font-weight:normal;writing-mode:lr-tb;fill:#000000;fill-opacity:1;fill-rule:nonzero;stroke:none;font-family:GillSans;-inkscape-font-specification:GillSans">0</tspan>
        </text>
        <text
           id="text3766"
           transform="matrix(1,0,0,-1,15,77)">
          <tspan
             id="tspan3768"
             sodipodi:role="line"
             y="0"
             x="0 6.1236 8.8752003"
             style="font-size:12px;font-variant:normal;font-weight:normal;writing-mode:lr-tb;fill:#000000;fill-opacity:1;fill-rule:nonzero;stroke:none;font-family:GillSans;-inkscape-font-specification:GillSans">0.1</tspan>
        </text>
        <text
           id="text3770"
           transform="matrix(1,0,0,-1,15,122)">
          <tspan
             id="tspan3772"
             sodipodi:role="line"
             y="0"
             x="0 6.1236 8.8752003"
             style="font-size:12px;font-variant:normal;font-weight:normal;writing-mode:lr-tb;fill:#000000;fill-opacity:1;fill-rule:nonzero;stroke:none;font-family:GillSans;-inkscape-font-specification:GillSans">0.2</tspan>
        </text>
        <text
           id="text3774"
           transform="matrix(1,0,0,-1,15,167)">
          <tspan
             id="tspan3776"
             sodipodi:role="line"
             y="0"
             x="0 6.1236 8.8752003"
             style="font-size:12px;font-variant:normal;font-weight:normal;writing-mode:lr-tb;fill:#000000;fill-opacity:1;fill-rule:nonzero;stroke:none;font-family:GillSans;-inkscape-font-specification:GillSans">0.3</tspan>
        </text>
        <text
           id="text3778"
           transform="matrix(1,0,0,-1,15,213)">
          <tspan
             id="tspan3780"
             sodipodi:role="line"
             y="0"
             x="0 6.1236 8.8752003"
             style="font-size:12px;font-variant:normal;font-weight:normal;writing-mode:lr-tb;fill:#000000;fill-opacity:1;fill-rule:nonzero;stroke:none;font-family:GillSans;-inkscape-font-specification:GillSans">0.4</tspan>
        </text>
        <text
           id="text3782"
           transform="matrix(1,0,0,-1,15,258)">
          <tspan
             id="tspan3784"
             sodipodi:role="line"
             y="0"
             x="0 6.1236 8.8752003"
             style="font-size:12px;font-variant:normal;font-weight:normal;writing-mode:lr-tb;fill:#000000;fill-opacity:1;fill-rule:nonzero;stroke:none;font-family:GillSans;-inkscape-font-specification:GillSans">0.5</tspan>
        </text>
        <text
           id="text3786"
           transform="matrix(1,0,0,-1,15,303)">
          <tspan
             id="tspan3788"
             sodipodi:role="line"
             y="0"
             x="0 6.1236 8.8752003"
             style="font-size:12px;font-variant:normal;font-weight:normal;writing-mode:lr-tb;fill:#000000;fill-opacity:1;fill-rule:nonzero;stroke:none;font-family:GillSans;-inkscape-font-specification:GillSans">0.6</tspan>
        </text>
        <text
           id="text3790"
           transform="matrix(1,0,0,-1,15,348)">
          <tspan
             id="tspan3792"
             sodipodi:role="line"
             y="0"
             x="0 6.1236 8.8752003"
             style="font-size:12px;font-variant:normal;font-weight:normal;writing-mode:lr-tb;fill:#000000;fill-opacity:1;fill-rule:nonzero;stroke:none;font-family:GillSans;-inkscape-font-specification:GillSans">0.7</tspan>
        </text>
        <text
           id="text3794"
           transform="matrix(1,0,0,-1,553.2734,363)">
          <tspan
             id="tspan3796"
             y="0"
             x="0"
             style="font-size:14px;font-variant:normal;font-weight:bold;writing-mode:lr-tb;fill:#000000;fill-opacity:1;fill-rule:nonzero;stroke:none;font-family:Candara;-inkscape-font-specification:Candara-Bold">M</tspan>
        </text>
        <text
           id="text3798"
           transform="matrix(1,0,0,-1,565.5469,363)">
          <tspan
             id="tspan3800"
             sodipodi:role="line"
             y="0"
             x="0 6.8319998"
             style="font-size:14px;font-variant:normal;font-weight:bold;writing-mode:lr-tb;fill:#000000;fill-opacity:1;fill-rule:nonzero;stroke:none;font-family:Candara;-inkscape-font-specification:Candara-Bold">ax</tspan>
        </text>
        <text
           id="text3802"
           transform="matrix(1,0,0,-1,579.8203,363)">
          <tspan
             id="tspan3804"
             y="0"
             x="0"
             style="font-size:14px;font-variant:normal;font-weight:bold;writing-mode:lr-tb;fill:#000000;fill-opacity:1;fill-rule:nonzero;stroke:none;font-family:Candara;-inkscape-font-specification:Candara-Bold">D</tspan>
        </text>
        <text
           id="text3806"
           transform="matrix(1,0,0,-1,589.3672,363)">
          <tspan
             id="tspan3808"
             y="0"
             x="0"
             style="font-size:14px;font-variant:normal;font-weight:bold;writing-mode:lr-tb;fill:#000000;fill-opacity:1;fill-rule:nonzero;stroke:none;font-family:Candara;-inkscape-font-specification:Candara-Bold">B</tspan>
        </text>
        <text
           id="text3810"
           transform="matrix(1,0,0,-1,597.6406,363)">
          <tspan
             id="tspan3812"
             sodipodi:role="line"
             y="0"
             x="0 3.0674 10.2648 17.5042 25.3736"
             style="font-size:14px;font-variant:normal;font-weight:bold;writing-mode:lr-tb;fill:#000000;fill-opacity:1;fill-rule:nonzero;stroke:none;font-family:Candara;-inkscape-font-specification:Candara-Bold">exp3</tspan>
        </text>
        <text
           id="text3814"
           transform="matrix(1,0,0,-1,553.2734,352)">
          <tspan
             id="tspan3816"
             y="0"
             x="0"
             style="font-size:14px;font-variant:normal;font-weight:bold;writing-mode:lr-tb;fill:#000000;fill-opacity:1;fill-rule:nonzero;stroke:none;font-family:Candara;-inkscape-font-specification:Candara-Bold">M</tspan>
        </text>
        <text
           id="text3818"
           transform="matrix(1,0,0,-1,565.5469,352)">
          <tspan
             id="tspan3820"
             y="0"
             x="0"
             style="font-size:14px;font-variant:normal;font-weight:bold;writing-mode:lr-tb;fill:#000000;fill-opacity:1;fill-rule:nonzero;stroke:none;font-family:Candara;-inkscape-font-specification:Candara-Bold">y</tspan>
        </text>
        <text
           id="text3822"
           transform="matrix(1,0,0,-1,572.8203,352)">
          <tspan
             id="tspan3824"
             y="0"
             x="0"
             style="font-size:14px;font-variant:normal;font-weight:bold;writing-mode:lr-tb;fill:#000000;fill-opacity:1;fill-rule:nonzero;stroke:none;font-family:Candara;-inkscape-font-specification:Candara-Bold">S</tspan>
        </text>
        <text
           id="text3826"
           transform="matrix(1,0,0,-1,580.3672,352)">
          <tspan
             id="tspan3828"
             y="0"
             x="0"
             style="font-size:14px;font-variant:normal;font-weight:bold;writing-mode:lr-tb;fill:#000000;fill-opacity:1;fill-rule:nonzero;stroke:none;font-family:Candara;-inkscape-font-specification:Candara-Bold">Q</tspan>
        </text>
        <text
           id="text3830"
           transform="matrix(1,0,0,-1,590.9141,352)">
          <tspan
             id="tspan3832"
             y="0"
             x="0"
             style="font-size:14px;font-variant:normal;font-weight:bold;writing-mode:lr-tb;fill:#000000;fill-opacity:1;fill-rule:nonzero;stroke:none;font-family:Candara;-inkscape-font-specification:Candara-Bold">L</tspan>
        </text>
        <text
           id="text3834"
           transform="matrix(1,0,0,-1,598.1875,352)">
          <tspan
             id="tspan3836"
             sodipodi:role="line"
             y="0"
             x="0 3.0674 10.2648 17.5042 25.3736"
             style="font-size:14px;font-variant:normal;font-weight:bold;writing-mode:lr-tb;fill:#000000;fill-opacity:1;fill-rule:nonzero;stroke:none;font-family:Candara;-inkscape-font-specification:Candara-Bold">exp3</tspan>
        </text>
        <text
           id="text3838"
           transform="matrix(1,0,0,-1,552.2734,390)">
          <tspan
             id="tspan3840"
             y="0"
             x="0"
             style="font-size:14px;font-variant:normal;font-weight:bold;writing-mode:lr-tb;fill:#000000;fill-opacity:1;fill-rule:nonzero;stroke:none;font-family:Candara;-inkscape-font-specification:Candara-Bold">M</tspan>
        </text>
        <text
           id="text3842"
           transform="matrix(1,0,0,-1,564.5469,390)">
          <tspan
             id="tspan3844"
             sodipodi:role="line"
             y="0"
             x="0 6.8319998"
             style="font-size:14px;font-variant:normal;font-weight:bold;writing-mode:lr-tb;fill:#000000;fill-opacity:1;fill-rule:nonzero;stroke:none;font-family:Candara;-inkscape-font-specification:Candara-Bold">ax</tspan>
        </text>
        <text
           id="text3846"
           transform="matrix(1,0,0,-1,578.8203,390)">
          <tspan
             id="tspan3848"
             y="0"
             x="0"
             style="font-size:14px;font-variant:normal;font-weight:bold;writing-mode:lr-tb;fill:#000000;fill-opacity:1;fill-rule:nonzero;stroke:none;font-family:Candara;-inkscape-font-specification:Candara-Bold">D</tspan>
        </text>
        <text
           id="text3850"
           transform="matrix(1,0,0,-1,588.3672,390)">
          <tspan
             id="tspan3852"
             y="0"
             x="0"
             style="font-size:14px;font-variant:normal;font-weight:bold;writing-mode:lr-tb;fill:#000000;fill-opacity:1;fill-rule:nonzero;stroke:none;font-family:Candara;-inkscape-font-specification:Candara-Bold">B</tspan>
        </text>
        <text
           id="text3854"
           transform="matrix(1,0,0,-1,596.6406,390)">
          <tspan
             id="tspan3856"
             sodipodi:role="line"
             y="0"
             x="0 3.0422001 10.2144 17.4286 25.2728"
             style="font-size:14px;font-variant:normal;font-weight:bold;writing-mode:lr-tb;fill:#000000;fill-opacity:1;fill-rule:nonzero;stroke:none;font-family:Candara;-inkscape-font-specification:Candara-Bold">exp2</tspan>
        </text>
        <text
           id="text3858"
           transform="matrix(1,0,0,-1,552.2734,378)">
          <tspan
             id="tspan3860"
             y="0"
             x="0"
             style="font-size:14px;font-variant:normal;font-weight:bold;writing-mode:lr-tb;fill:#000000;fill-opacity:1;fill-rule:nonzero;stroke:none;font-family:Candara;-inkscape-font-specification:Candara-Bold">M</tspan>
        </text>
        <text
           id="text3862"
           transform="matrix(1,0,0,-1,564.5469,378)">
          <tspan
             id="tspan3864"
             y="0"
             x="0"
             style="font-size:14px;font-variant:normal;font-weight:bold;writing-mode:lr-tb;fill:#000000;fill-opacity:1;fill-rule:nonzero;stroke:none;font-family:Candara;-inkscape-font-specification:Candara-Bold">y</tspan>
        </text>
        <text
           id="text3866"
           transform="matrix(1,0,0,-1,571.8203,378)">
          <tspan
             id="tspan3868"
             y="0"
             x="0"
             style="font-size:14px;font-variant:normal;font-weight:bold;writing-mode:lr-tb;fill:#000000;fill-opacity:1;fill-rule:nonzero;stroke:none;font-family:Candara;-inkscape-font-specification:Candara-Bold">S</tspan>
        </text>
        <text
           id="text3870"
           transform="matrix(1,0,0,-1,579.3672,378)">
          <tspan
             id="tspan3872"
             y="0"
             x="0"
             style="font-size:14px;font-variant:normal;font-weight:bold;writing-mode:lr-tb;fill:#000000;fill-opacity:1;fill-rule:nonzero;stroke:none;font-family:Candara;-inkscape-font-specification:Candara-Bold">Q</tspan>
        </text>
        <text
           id="text3874"
           transform="matrix(1,0,0,-1,589.9141,378)">
          <tspan
             id="tspan3876"
             y="0"
             x="0"
             style="font-size:14px;font-variant:normal;font-weight:bold;writing-mode:lr-tb;fill:#000000;fill-opacity:1;fill-rule:nonzero;stroke:none;font-family:Candara;-inkscape-font-specification:Candara-Bold">L</tspan>
        </text>
        <text
           id="text3878"
           transform="matrix(1,0,0,-1,597.1875,378)">
          <tspan
             id="tspan3880"
             sodipodi:role="line"
             y="0"
             x="0 3.0422001 10.2144 17.4286 25.2728"
             style="font-size:14px;font-variant:normal;font-weight:bold;writing-mode:lr-tb;fill:#000000;fill-opacity:1;fill-rule:nonzero;stroke:none;font-family:Candara;-inkscape-font-specification:Candara-Bold">exp2</tspan>
        </text>
      </g>
    </g>
    <text
       xml:space="preserve"
       style="font-size:24px;font-style:normal;font-weight:bold;line-height:125%;letter-spacing:0px;word-spacing:0px;fill:#000000;fill-opacity:1;stroke:none;font-family:Sans;-inkscape-font-specification:Sans Bold"
       x="56.692909"
       y="735.03339"
       id="text3106"
       sodipodi:linespacing="125%"><tspan
         sodipodi:role="line"
         id="tspan3108"
         x="56.692909"
         y="735.03339">F-1 Measure of </tspan><tspan
         sodipodi:role="line"
         x="56.692909"
         y="765.03339"
         id="tspan3110">Semi-Supervised Word Bags</tspan></text>
    <text
       xml:space="preserve"
       style="font-size:24px;font-style:normal;font-weight:bold;line-height:125%;letter-spacing:0px;word-spacing:0px;fill:#000000;fill-opacity:1;stroke:none;font-family:Sans;-inkscape-font-specification:Sans Bold"
       x="-974.40942"
       y="21.259838"
       id="text3112"
       sodipodi:linespacing="125%"
       transform="matrix(0,-1,1,0,0,0)"><tspan
         sodipodi:role="line"
         id="tspan3114"
         x="-974.40942"
         y="21.259838">F-1</tspan></text>
    <text
       xml:space="preserve"
       style="font-size:24px;font-style:normal;font-weight:bold;line-height:125%;letter-spacing:0px;word-spacing:0px;fill:#000000;fill-opacity:1;stroke:none;font-family:Sans;-inkscape-font-specification:Sans Bold"
       x="184.25197"
       y="1027.1533"
       id="text3112-6"
       sodipodi:linespacing="125%"><tspan
         sodipodi:role="line"
         id="tspan3114-4"
         x="184.25197"
         y="1027.1533">NFR</tspan></text>
  </g>
</svg>
