<?xml version="1.0" encoding="UTF-8" standalone="no"?>
<!-- Created with Inkscape (http://www.inkscape.org/) -->

<svg
   xmlns:dc="http://purl.org/dc/elements/1.1/"
   xmlns:cc="http://creativecommons.org/ns#"
   xmlns:rdf="http://www.w3.org/1999/02/22-rdf-syntax-ns#"
   xmlns:svg="http://www.w3.org/2000/svg"
   xmlns="http://www.w3.org/2000/svg"
   xmlns:sodipodi="http://sodipodi.sourceforge.net/DTD/sodipodi-0.dtd"
   xmlns:inkscape="http://www.inkscape.org/namespaces/inkscape"
   width="453.5433"
   height="340.15747"
   id="svg2"
   sodipodi:version="0.32"
   inkscape:version="0.48.0 r9654"
   sodipodi:docname="04900-mysql-supervised.svg"
   version="1.0">
  <defs
     id="defs4" />
  <sodipodi:namedview
     id="base"
     pagecolor="#ffffff"
     bordercolor="#666666"
     borderopacity="1.0"
     inkscape:pageopacity="0.0"
     inkscape:pageshadow="2"
     inkscape:zoom="2.1785436"
     inkscape:cx="247.8978"
     inkscape:cy="162.20585"
     inkscape:document-units="mm"
     inkscape:current-layer="layer1"
     inkscape:window-width="1297"
     inkscape:window-height="1048"
     inkscape:window-x="0"
     inkscape:window-y="24"
     width="12.8cm"
     height="9.6cm"
     units="cm"
     showgrid="true"
     grid_units="mm"
     inkscape:object-paths="false"
     inkscape:grid-points="true"
     inkscape:grid-bbox="true"
     inkscape:guide-points="true"
     showguides="true"
     inkscape:guide-bbox="true"
     inkscape:window-maximized="0">
    <sodipodi:guide
       orientation="vertical"
       position="56.476527"
       id="guide3573" />
    <sodipodi:guide
       orientation="horizontal"
       position="11.035643"
       id="guide3579" />
    <sodipodi:guide
       orientation="horizontal"
       position="24.018753"
       id="guide3886" />
    <sodipodi:guide
       orientation="horizontal"
       position="285.62841"
       id="guide3988" />
    <sodipodi:guide
       orientation="horizontal"
       position="303.15561"
       id="guide4081" />
    <inkscape:grid
       id="GridFromPre046Settings"
       type="xygrid"
       originx="0px"
       originy="0px"
       spacingx="2mm"
       spacingy="2mm"
       color="#0000ff"
       empcolor="#0000ff"
       opacity="0.2"
       empopacity="0.4"
       empspacing="5" />
  </sodipodi:namedview>
  <metadata
     id="metadata7">
    <rdf:RDF>
      <cc:Work
         rdf:about="">
        <dc:format>image/svg+xml</dc:format>
        <dc:type
           rdf:resource="http://purl.org/dc/dcmitype/StillImage" />
        <dc:title />
      </cc:Work>
    </rdf:RDF>
  </metadata>
  <g
     inkscape:label="Layer 1"
     inkscape:groupmode="layer"
     id="layer1"
     transform="translate(4.149475e-6,-698.0315)">
    <text
       style="font-size:8.83803082px"
       y="740.24463"
       x="326.56815"
       id="text136-1">
      <tspan
         style="font-size:10.31103611px;font-variant:normal;font-weight:bold;writing-mode:lr-tb;fill:#000000;fill-opacity:1;fill-rule:nonzero;stroke:none;font-family:Candara;-inkscape-font-specification:Candara-Bold"
         x="326.56815"
         y="740.24463"
         id="tspan138-8" />
    </text>
    <g
       id="g3248"
       transform="translate(-14.043235,17.923412)">
      <g
         id="g3189">
        <g
           transform="matrix(0.73650258,0,0,-0.73650258,30.502065,1016.4331)"
           id="g14">
          <path
             inkscape:connector-curvature="0"
             d="M 0,0 565,0 565,416 0,416 0,0 z"
             style="fill:#ffffff;fill-opacity:1;fill-rule:nonzero;stroke:none"
             id="path16" />
          <path
             inkscape:connector-curvature="0"
             d="M 559,26 38.06055,26 M 559,63.59998 l -520.93945,0 M 559,101.2 38.06055,101.2 M 559,138.8 38.06055,138.8 M 559,176.3999 l -520.93945,0 m 520.93945,37.6 -520.93945,0 m 520.93945,37.6 -520.93945,0 m 520.93945,37.6 -520.93945,0 M 559,326.7998 l -520.93945,0 m 520.93945,37.6 -520.93945,0 m 520.93945,37.6 -520.93945,0"
             style="fill:none;stroke:#c2c2c2;stroke-width:1;stroke-linecap:butt;stroke-linejoin:miter;stroke-miterlimit:10;stroke-opacity:1;stroke-dasharray:none"
             id="path18" />
          <path
             inkscape:connector-curvature="0"
             d="m 64.29451,26 19.2,0 0,180.48 -19.2,0 0,-180.48 z"
             style="fill:#000000;fill-opacity:1;fill-rule:nonzero;stroke:none"
             id="path20" />
          <path
             inkscape:connector-curvature="0"
             d="m 150.9513,26 19.2,0 0,127.84 -19.2,0 0,-127.84 z"
             style="fill:#000000;fill-opacity:1;fill-rule:nonzero;stroke:none"
             id="path22" />
          <path
             inkscape:connector-curvature="0"
             d="m 237.6079,26 19.2,0 0,172.96 -19.2,0 0,-172.96 z"
             style="fill:#000000;fill-opacity:1;fill-rule:nonzero;stroke:none"
             id="path24" />
          <path
             inkscape:connector-curvature="0"
             d="m 324.2645,26 19.20001,0 0,233.12 -19.20001,0 0,-233.12 z"
             style="fill:#000000;fill-opacity:1;fill-rule:nonzero;stroke:none"
             id="path26" />
          <path
             inkscape:connector-curvature="0"
             d="m 410.9211,26 19.20001,0 0,210.56 -19.20001,0 0,-210.56 z"
             style="fill:#000000;fill-opacity:1;fill-rule:nonzero;stroke:none"
             id="path28" />
          <path
             inkscape:connector-curvature="0"
             d="m 497.5776,26 19.20001,0 0,188 -19.20001,0 0,-188 z"
             style="fill:#000000;fill-opacity:1;fill-rule:nonzero;stroke:none"
             id="path30" />
          <path
             inkscape:connector-curvature="0"
             d="m 89.51703,26 19.2,0 0,64.14562 -19.2,0 0,-64.14562 z"
             style="fill:#bcbcbc;fill-opacity:1;fill-rule:nonzero;stroke:none"
             id="path32" />
          <path
             inkscape:connector-curvature="0"
             d="m 176.1736,26 19.2,0 0,328.5488 -19.2,0 0,-328.5488 z"
             style="fill:#bcbcbc;fill-opacity:1;fill-rule:nonzero;stroke:none"
             id="path34" />
          <path
             inkscape:connector-curvature="0"
             d="m 262.8302,26 19.20001,0 0,248.9872 -19.20001,0 0,-248.9872 z"
             style="fill:#bcbcbc;fill-opacity:1;fill-rule:nonzero;stroke:none"
             id="path36" />
          <path
             inkscape:connector-curvature="0"
             d="m 349.4867,26 19.20001,0 0,33.38878 -19.20001,0 0,-33.38878 z"
             style="fill:#bcbcbc;fill-opacity:1;fill-rule:nonzero;stroke:none"
             id="path38" />
          <path
             inkscape:connector-curvature="0"
             d="m 436.1433,26 19.20001,0 0,200.1824 -19.20001,0 0,-200.1824 z"
             style="fill:#bcbcbc;fill-opacity:1;fill-rule:nonzero;stroke:none"
             id="path40" />
          <path
             inkscape:connector-curvature="0"
             d="m 522.7999,26 19.20001,0 0,334.9408 -19.20001,0 0,-334.9408 z"
             style="fill:#bcbcbc;fill-opacity:1;fill-rule:nonzero;stroke:none"
             id="path42" />
          <path
             inkscape:connector-curvature="0"
             d="m 340.8049,359.5446 0,-30.7446 27.4805,0 0,30.7446 -6.0478,0 -21.4327,0 z"
             style="fill:#bcbcbc;fill-opacity:1;fill-rule:nonzero;stroke:none"
             id="path44" />
          <path
             inkscape:connector-curvature="0"
             d="m 340.8049,397.4035 0,-31.6782 27.4805,0 0,31.6782 0,0 -27.4805,0 z"
             style="fill:#000000;fill-opacity:1;fill-rule:nonzero;stroke:none"
             id="path46" />
          <path
             inkscape:connector-curvature="0"
             d="m 38.11055,26.5 520.83945,0 m -472.45,4 0,-6 m 86,6 0,-6 m 87,6 0,-6 m 87,6 0,-6 m 86,6 0,-6 m 87,6 0,-6"
             style="fill:none;stroke:#000000;stroke-width:1;stroke-linecap:butt;stroke-linejoin:miter;stroke-miterlimit:10;stroke-opacity:1;stroke-dasharray:none"
             id="path48" />
          <path
             inkscape:connector-curvature="0"
             d="m 38.5,25.55 0,376.9 m 4,-375.95 -6,0 m 6,37 -6,0 m 6,38 -6,0 m 6,37 -6,0 m 6,38 -6,0 m 6,37 -6,0 m 6,38 -6,0 m 6,38 -6,0 m 6,37 -6,0 m 6,38 -6,0 m 6,38 -6,0"
             style="fill:none;stroke:#000000;stroke-width:1;stroke-linecap:butt;stroke-linejoin:miter;stroke-miterlimit:10;stroke-opacity:1;stroke-dasharray:none"
             id="path50" />
          <text
             transform="matrix(1,0,0,-1,56,9)"
             id="text52"
             style="font-family:Bitstream Vera Sans;-inkscape-font-specification:Bitstream Vera Sans">
            <tspan
               style="font-size:12px;font-variant:normal;font-weight:normal;writing-mode:lr-tb;fill:#000000;fill-opacity:1;fill-rule:nonzero;stroke:none;font-family:Bitstream Vera Sans;-inkscape-font-specification:Bitstream Vera Sans"
               x="0 6.6324 14.004 18.9144 23.402399 30.028799 37.5816 41.0508 44.52 47.989201 52.4772"
               y="0"
               sodipodi:role="line"
               id="tspan54">Portability</tspan>
          </text>
          <text
             transform="matrix(1,0,0,-1,231,9)"
             id="text68"
             style="font-family:Bitstream Vera Sans;-inkscape-font-specification:Bitstream Vera Sans">
            <tspan
               style="font-size:12px;font-variant:normal;font-weight:normal;writing-mode:lr-tb;fill:#000000;fill-opacity:1;fill-rule:nonzero;stroke:none;font-family:Bitstream Vera Sans;-inkscape-font-specification:Bitstream Vera Sans"
               x="0 7.5876002 14.2728 17.742001 21.211201 27.837601 35.3904 38.8596 42.3288 45.798 50.285999"
               y="0"
               sodipodi:role="line"
               id="tspan70">Reliability</tspan>
          </text>
          <text
             transform="matrix(1,0,0,-1,308,9)"
             id="text72"
             style="font-family:Bitstream Vera Sans;-inkscape-font-specification:Bitstream Vera Sans">
            <tspan
               style="font-size:12px;font-variant:normal;font-weight:normal;writing-mode:lr-tb;fill:#000000;fill-opacity:1;fill-rule:nonzero;stroke:none;font-family:Bitstream Vera Sans;-inkscape-font-specification:Bitstream Vera Sans"
               x="0 6.4331999 13.8804 21.3276 27.474001 31.962 35.431198 42.802799 50.25 56.8764 60.3456 63.8148 68.302803"
               y="0"
               sodipodi:role="line"
               id="tspan74">Functionality</tspan>
          </text>
          <text
             transform="matrix(1,0,0,-1,405,9)"
             id="text76"
             style="font-family:Bitstream Vera Sans;-inkscape-font-specification:Bitstream Vera Sans">
            <tspan
               style="font-size:12px;font-variant:normal;font-weight:normal;writing-mode:lr-tb;fill:#000000;fill-opacity:1;fill-rule:nonzero;stroke:none;font-family:Bitstream Vera Sans;-inkscape-font-specification:Bitstream Vera Sans"
               x="0 10.3356 16.962 20.4312 27.878401 32.366402 38.992802 42.462002 49.909199"
               y="0"
               sodipodi:role="line"
               id="tspan78">Maintain.</tspan>
          </text>
          <text
             transform="matrix(1,0,0,-1,494,9)"
             id="text80"
             style="font-family:Bitstream Vera Sans;-inkscape-font-specification:Bitstream Vera Sans">
            <tspan
               style="font-size:12px;font-variant:normal;font-weight:normal;writing-mode:lr-tb;fill:#000000;fill-opacity:1;fill-rule:nonzero;stroke:none;font-family:Bitstream Vera Sans;-inkscape-font-specification:Bitstream Vera Sans"
               x="0 8.3148003 14.4324 21.0588 28.611601 32.080799 35.549999 39.019199 43.507198"
               y="0"
               sodipodi:role="line"
               id="tspan82">Usability</tspan>
          </text>
          <text
             transform="matrix(1,0,0,-1,24,397)"
             id="text84">
            <tspan
               style="font-size:12px;font-variant:normal;font-weight:normal;writing-mode:lr-tb;fill:#000000;fill-opacity:1;fill-rule:nonzero;stroke:none;font-family:LucidaGrande;-inkscape-font-specification:LucidaGrande"
               x="0"
               y="0"
               id="tspan86">1</tspan>
          </text>
          <text
             transform="matrix(1,0,0,-1,13,21)"
             id="text88">
            <tspan
               style="font-size:12px;font-variant:normal;font-weight:normal;writing-mode:lr-tb;fill:#000000;fill-opacity:1;fill-rule:nonzero;stroke:none;font-family:LucidaGrande;-inkscape-font-specification:LucidaGrande"
               x="0 7.5876002 11.3832"
               y="0"
               sodipodi:role="line"
               id="tspan90">0.5</tspan>
          </text>
          <text
             transform="matrix(1,0,0,-1,6,58)"
             id="text92">
            <tspan
               style="font-size:12px;font-variant:normal;font-weight:normal;writing-mode:lr-tb;fill:#000000;fill-opacity:1;fill-rule:nonzero;stroke:none;font-family:LucidaGrande;-inkscape-font-specification:LucidaGrande"
               x="0 7.5876002 11.3832 18.9708"
               y="0"
               sodipodi:role="line"
               id="tspan94">0.55</tspan>
          </text>
          <text
             transform="matrix(1,0,0,-1,13,96)"
             id="text96">
            <tspan
               style="font-size:12px;font-variant:normal;font-weight:normal;writing-mode:lr-tb;fill:#000000;fill-opacity:1;fill-rule:nonzero;stroke:none;font-family:LucidaGrande;-inkscape-font-specification:LucidaGrande"
               x="0 7.5876002 11.3832"
               y="0"
               sodipodi:role="line"
               id="tspan98">0.6</tspan>
          </text>
          <text
             transform="matrix(1,0,0,-1,6,133)"
             id="text100">
            <tspan
               style="font-size:12px;font-variant:normal;font-weight:normal;writing-mode:lr-tb;fill:#000000;fill-opacity:1;fill-rule:nonzero;stroke:none;font-family:LucidaGrande;-inkscape-font-specification:LucidaGrande"
               x="0 7.5876002 11.3832 18.9708"
               y="0"
               sodipodi:role="line"
               id="tspan102">0.65</tspan>
          </text>
          <text
             transform="matrix(1,0,0,-1,13,171)"
             id="text104">
            <tspan
               style="font-size:12px;font-variant:normal;font-weight:normal;writing-mode:lr-tb;fill:#000000;fill-opacity:1;fill-rule:nonzero;stroke:none;font-family:LucidaGrande;-inkscape-font-specification:LucidaGrande"
               x="0 7.5876002 11.3832"
               y="0"
               sodipodi:role="line"
               id="tspan106">0.7</tspan>
          </text>
          <text
             transform="matrix(1,0,0,-1,6,209)"
             id="text108">
            <tspan
               style="font-size:12px;font-variant:normal;font-weight:normal;writing-mode:lr-tb;fill:#000000;fill-opacity:1;fill-rule:nonzero;stroke:none;font-family:LucidaGrande;-inkscape-font-specification:LucidaGrande"
               x="0 7.5876002 11.3832 18.9708"
               y="0"
               sodipodi:role="line"
               id="tspan110">0.75</tspan>
          </text>
          <text
             transform="matrix(1,0,0,-1,13,246)"
             id="text112">
            <tspan
               style="font-size:12px;font-variant:normal;font-weight:normal;writing-mode:lr-tb;fill:#000000;fill-opacity:1;fill-rule:nonzero;stroke:none;font-family:LucidaGrande;-inkscape-font-specification:LucidaGrande"
               x="0 7.5876002 11.3832"
               y="0"
               sodipodi:role="line"
               id="tspan114">0.8</tspan>
          </text>
          <text
             transform="matrix(1,0,0,-1,6,284)"
             id="text116">
            <tspan
               style="font-size:12px;font-variant:normal;font-weight:normal;writing-mode:lr-tb;fill:#000000;fill-opacity:1;fill-rule:nonzero;stroke:none;font-family:LucidaGrande;-inkscape-font-specification:LucidaGrande"
               x="0 7.5876002 11.3832 18.9708"
               y="0"
               sodipodi:role="line"
               id="tspan118">0.85</tspan>
          </text>
          <text
             transform="matrix(1,0,0,-1,13,321)"
             id="text120">
            <tspan
               style="font-size:12px;font-variant:normal;font-weight:normal;writing-mode:lr-tb;fill:#000000;fill-opacity:1;fill-rule:nonzero;stroke:none;font-family:LucidaGrande;-inkscape-font-specification:LucidaGrande"
               x="0 7.5876002 11.3832"
               y="0"
               sodipodi:role="line"
               id="tspan122">0.9</tspan>
          </text>
          <text
             transform="matrix(1,0,0,-1,6,359)"
             id="text124">
            <tspan
               style="font-size:12px;font-variant:normal;font-weight:normal;writing-mode:lr-tb;fill:#000000;fill-opacity:1;fill-rule:nonzero;stroke:none;font-family:LucidaGrande;-inkscape-font-specification:LucidaGrande"
               x="0 7.5876002 11.3832 18.9708"
               y="0"
               sodipodi:role="line"
               id="tspan126">0.95</tspan>
          </text>
          <text
             transform="scale(1,-1)"
             id="text156"
             x="391.57443"
             y="-528.53546">
            <tspan
               style="font-size:14px;font-variant:normal;font-weight:bold;writing-mode:lr-tb;fill:#000000;fill-opacity:1;fill-rule:nonzero;stroke:none;font-family:Candara;-inkscape-font-specification:Candara-Bold"
               x="401.4136 401.4136 401.4136 401.4136 401.4136 401.4136 401.4136 401.4136 401.4136 439.77921"
               sodipodi:role="line"
               id="tspan158">aaccuracy</tspan>
          </text>
        </g>
        <text
           xml:space="preserve"
           style="font-size:10.30000019px;font-style:normal;font-weight:bold;line-height:125%;letter-spacing:0px;word-spacing:0px;fill:#000000;fill-opacity:1;stroke:none;font-family:Sans;-inkscape-font-specification:Sans Bold"
           x="304.7244"
           y="768.89764"
           id="text3107"
           sodipodi:linespacing="125%"><tspan
             sodipodi:role="line"
             id="tspan3109"
             x="304.7244"
             y="768.89764">Zero R Accuracy</tspan></text>
        <text
           xml:space="preserve"
           style="font-size:10.30000019px;font-style:normal;font-weight:bold;line-height:125%;letter-spacing:0px;word-spacing:0px;fill:#000000;fill-opacity:1;stroke:none;font-family:Sans;-inkscape-font-specification:Sans Bold"
           x="304.7244"
           y="740.55115"
           id="text3107-9"
           sodipodi:linespacing="125%"><tspan
             sodipodi:role="line"
             id="tspan3109-9"
             x="304.7244"
             y="740.55115">ROC Value</tspan></text>
      </g>
      <text
         style="font-size:8.83803082px;font-family:Bitstream Vera Sans;-inkscape-font-specification:Bitstream Vera Sans"
         id="text52-4"
         x="134.64566"
         y="1009.8425">
        <tspan
           y="1009.8425"
           x="134.64566"
           id="tspan54-3"
           sodipodi:role="line"
           style="font-size:8.83803082px;font-variant:normal;font-weight:normal;writing-mode:lr-tb;fill:#000000;fill-opacity:1;fill-rule:nonzero;stroke:none;font-family:Bitstream Vera Sans;-inkscape-font-specification:Bitstream Vera Sans">Efficiency</tspan>
      </text>
    </g>
    <text
       xml:space="preserve"
       style="font-size:24px;font-style:normal;font-weight:bold;line-height:125%;letter-spacing:0px;word-spacing:0px;fill:#000000;fill-opacity:1;stroke:none;font-family:Sans;-inkscape-font-specification:Sans Bold"
       x="56.476524"
       y="733.46454"
       id="text3061"
       sodipodi:linespacing="125%"><tspan
         sodipodi:role="line"
         id="tspan3063"
         x="56.476524"
         y="733.46454">Supervised Tags: MySQL</tspan></text>
  </g>
</svg>
