<?xml version="1.0" encoding="UTF-8" standalone="no"?>
<!-- Created with Inkscape (http://www.inkscape.org/) -->

<svg
   xmlns:dc="http://purl.org/dc/elements/1.1/"
   xmlns:cc="http://creativecommons.org/ns#"
   xmlns:rdf="http://www.w3.org/1999/02/22-rdf-syntax-ns#"
   xmlns:svg="http://www.w3.org/2000/svg"
   xmlns="http://www.w3.org/2000/svg"
   xmlns:sodipodi="http://sodipodi.sourceforge.net/DTD/sodipodi-0.dtd"
   xmlns:inkscape="http://www.inkscape.org/namespaces/inkscape"
   width="453.5433"
   height="340.15747"
   id="svg2"
   sodipodi:version="0.32"
   inkscape:version="0.48.0 r9654"
   sodipodi:docname="05000-multi-label-results-maxdb-and-mysql.svg"
   version="1.0">
  <defs
     id="defs4" />
  <sodipodi:namedview
     id="base"
     pagecolor="#ffffff"
     bordercolor="#666666"
     borderopacity="1.0"
     inkscape:pageopacity="0.0"
     inkscape:pageshadow="2"
     inkscape:zoom="1.540463"
     inkscape:cx="209.05104"
     inkscape:cy="96.075014"
     inkscape:document-units="mm"
     inkscape:current-layer="layer1"
     inkscape:window-width="1297"
     inkscape:window-height="1048"
     inkscape:window-x="0"
     inkscape:window-y="24"
     width="12.8cm"
     height="9.6cm"
     units="cm"
     showgrid="true"
     grid_units="mm"
     inkscape:object-paths="false"
     inkscape:grid-points="true"
     inkscape:grid-bbox="true"
     inkscape:guide-points="true"
     showguides="true"
     inkscape:guide-bbox="true"
     inkscape:window-maximized="0">
    <sodipodi:guide
       orientation="vertical"
       position="56.476527"
       id="guide3573" />
    <sodipodi:guide
       orientation="horizontal"
       position="11.035643"
       id="guide3579" />
    <sodipodi:guide
       orientation="horizontal"
       position="24.018753"
       id="guide3886" />
    <sodipodi:guide
       orientation="horizontal"
       position="285.62841"
       id="guide3988" />
    <sodipodi:guide
       orientation="horizontal"
       position="303.15561"
       id="guide4081" />
    <inkscape:grid
       id="GridFromPre046Settings"
       type="xygrid"
       originx="0px"
       originy="0px"
       spacingx="2mm"
       spacingy="2mm"
       color="#0000ff"
       empcolor="#0000ff"
       opacity="0.2"
       empopacity="0.4"
       empspacing="5" />
  </sodipodi:namedview>
  <metadata
     id="metadata7">
    <rdf:RDF>
      <cc:Work
         rdf:about="">
        <dc:format>image/svg+xml</dc:format>
        <dc:type
           rdf:resource="http://purl.org/dc/dcmitype/StillImage" />
        <dc:title />
      </cc:Work>
    </rdf:RDF>
  </metadata>
  <g
     inkscape:label="Layer 1"
     inkscape:groupmode="layer"
     id="layer1"
     transform="translate(4.149475e-6,-698.0315)">
    <g
       transform="matrix(0.65244705,0,0,-0.65244705,15.07176,995.97665)"
       inkscape:label="05000-multi-label-results-maxdb"
       id="g3416">
      <g
         id="g3418" />
      <g
         id="g3420">
        <path
           id="path3422"
           style="fill:#ffffff;fill-opacity:1;fill-rule:nonzero;stroke:none"
           d="M 0,0 308,0 308,332 0,332 0,0 z"
           inkscape:connector-curvature="0" />
        <path
           id="path3424"
           style="fill:none;stroke:#eaeaea;stroke-width:1;stroke-linecap:butt;stroke-linejoin:miter;stroke-miterlimit:10;stroke-opacity:1;stroke-dasharray:none"
           d="M 302,26 30.47265,26 M 302,74.66667 l -271.52735,0 M 302,123.3333 l -271.52735,0 M 302,172 30.47265,172 M 302,220.6667 l -271.52735,0 M 302,269.3333 l -271.52735,0 M 302,318 30.47265,318"
           inkscape:connector-curvature="0" />
        <path
           id="path3426"
           style="fill:#3c3c3c;fill-opacity:1;fill-rule:nonzero;stroke:none"
           d="m 65.73904,26 19.2,0 0,175.2 -19.2,0 0,-175.2 z"
           inkscape:connector-curvature="0" />
        <path
           id="path3428"
           style="fill:#3c3c3c;fill-opacity:1;fill-rule:nonzero;stroke:none"
           d="m 164.0699,26 19.2,0 0,126.5334 -19.2,0 0,-126.5334 z"
           inkscape:connector-curvature="0" />
        <path
           id="path3430"
           style="fill:#3c3c3c;fill-opacity:1;fill-rule:nonzero;stroke:none"
           d="m 262.4007,26 19.20001,0 0,107.0667 -19.20001,0 0,-107.0667 z"
           inkscape:connector-curvature="0" />
        <path
           id="path3432"
           style="fill:#3c3c3c;fill-opacity:1;fill-rule:nonzero;stroke:none"
           d="m 173.6699,261.0001 0,-25 31.1837,0 0,25 -6.8626,0 -24.3211,0 z"
           inkscape:connector-curvature="0" />
        <path
           id="path3434"
           style="fill:none;stroke:#000000;stroke-width:1;stroke-linecap:butt;stroke-linejoin:miter;stroke-miterlimit:10;stroke-opacity:1;stroke-dasharray:none"
           d="m 30.52265,26.5 271.42735,0 m -226.45,4 0,-6 m 98,6 0,-6 m 99,6 0,-6"
           inkscape:connector-curvature="0" />
        <path
           id="path3436"
           style="fill:none;stroke:#000000;stroke-width:1;stroke-linecap:butt;stroke-linejoin:miter;stroke-miterlimit:10;stroke-opacity:1;stroke-dasharray:none"
           d="m 30.5,25.55 0,292.9 m 4,-291.95 -6,0 m 6,48 -6,0 m 6,49 -6,0 m 6,49 -6,0 m 6,48 -6,0 m 6,49 -6,0 m 6,49 -6,0"
           inkscape:connector-curvature="0" />
        <text
           id="text3438"
           transform="matrix(1,0,0,-1,162,9)">
          <tspan
             id="tspan3440"
             sodipodi:role="line"
             y="0"
             x="0 8.3028002 14.6976"
             style="font-size:12px;font-variant:normal;font-weight:normal;writing-mode:lr-tb;fill:#000000;fill-opacity:1;fill-rule:nonzero;stroke:none;font-family:LucidaGrande;-inkscape-font-specification:LucidaGrande">CLR</tspan>
        </text>
        <text
           id="text3442"
           transform="matrix(1,0,0,-1,250,9)">
          <tspan
             id="tspan3444"
             sodipodi:role="line"
             y="0"
             x="0 8.8188 18.1416 28.4772 34.981201"
             style="font-size:12px;font-variant:normal;font-weight:normal;writing-mode:lr-tb;fill:#000000;fill-opacity:1;fill-rule:nonzero;stroke:none;font-family:LucidaGrande;-inkscape-font-specification:LucidaGrande">HOMER</tspan>
        </text>
        <text
           id="text3446"
           transform="matrix(1,0,0,-1,17,313)">
          <tspan
             id="tspan3448"
             y="0"
             x="0"
             style="font-size:12px;font-variant:normal;font-weight:normal;writing-mode:lr-tb;fill:#000000;fill-opacity:1;fill-rule:nonzero;stroke:none;font-family:LucidaGrande;-inkscape-font-specification:LucidaGrande">1</tspan>
        </text>
        <text
           id="text3450"
           transform="matrix(1,0,0,-1,6,21)">
          <tspan
             id="tspan3452"
             sodipodi:role="line"
             y="0"
             x="0 7.5876002 11.3832"
             style="font-size:12px;font-variant:normal;font-weight:normal;writing-mode:lr-tb;fill:#000000;fill-opacity:1;fill-rule:nonzero;stroke:none;font-family:LucidaGrande;-inkscape-font-specification:LucidaGrande">0.4</tspan>
        </text>
        <text
           id="text3454"
           transform="matrix(1,0,0,-1,6,69)">
          <tspan
             id="tspan3456"
             sodipodi:role="line"
             y="0"
             x="0 7.5876002 11.3832"
             style="font-size:12px;font-variant:normal;font-weight:normal;writing-mode:lr-tb;fill:#000000;fill-opacity:1;fill-rule:nonzero;stroke:none;font-family:LucidaGrande;-inkscape-font-specification:LucidaGrande">0.5</tspan>
        </text>
        <text
           id="text3458"
           transform="matrix(1,0,0,-1,6,118)">
          <tspan
             id="tspan3460"
             sodipodi:role="line"
             y="0"
             x="0 7.5876002 11.3832"
             style="font-size:12px;font-variant:normal;font-weight:normal;writing-mode:lr-tb;fill:#000000;fill-opacity:1;fill-rule:nonzero;stroke:none;font-family:LucidaGrande;-inkscape-font-specification:LucidaGrande">0.6</tspan>
        </text>
        <text
           id="text3462"
           transform="matrix(1,0,0,-1,6,167)">
          <tspan
             id="tspan3464"
             sodipodi:role="line"
             y="0"
             x="0 7.5876002 11.3832"
             style="font-size:12px;font-variant:normal;font-weight:normal;writing-mode:lr-tb;fill:#000000;fill-opacity:1;fill-rule:nonzero;stroke:none;font-family:LucidaGrande;-inkscape-font-specification:LucidaGrande">0.7</tspan>
        </text>
        <text
           id="text3466"
           transform="matrix(1,0,0,-1,6,215)">
          <tspan
             id="tspan3468"
             sodipodi:role="line"
             y="0"
             x="0 7.5876002 11.3832"
             style="font-size:12px;font-variant:normal;font-weight:normal;writing-mode:lr-tb;fill:#000000;fill-opacity:1;fill-rule:nonzero;stroke:none;font-family:LucidaGrande;-inkscape-font-specification:LucidaGrande">0.8</tspan>
        </text>
        <text
           id="text3470"
           transform="matrix(1,0,0,-1,6,264)">
          <tspan
             id="tspan3472"
             sodipodi:role="line"
             y="0"
             x="0 7.5876002 11.3832"
             style="font-size:12px;font-variant:normal;font-weight:normal;writing-mode:lr-tb;fill:#000000;fill-opacity:1;fill-rule:nonzero;stroke:none;font-family:LucidaGrande;-inkscape-font-specification:LucidaGrande">0.9</tspan>
        </text>
        <path
           id="path3474"
           style="fill:none;stroke:#cc1c00;stroke-width:1.60000002;stroke-linecap:butt;stroke-linejoin:miter;stroke-miterlimit:10;stroke-opacity:1;stroke-dasharray:2, 2, 2, 2;stroke-dashoffset:0"
           d="M 30.97265,74.66667 299,75"
           inkscape:connector-curvature="0" />
        <path
           id="path3476"
           style="fill:#cc1c00;fill-opacity:1;fill-rule:nonzero;stroke:none"
           d="m 31.53834,74.10098 c 0.31242,0.31243 0.31242,0.81896 0,1.13138 -0.31242,0.31242 -0.81895,0.31242 -1.13137,0 -0.31242,-0.31242 -0.31242,-0.81895 0,-1.13138 0.31242,-0.31241 0.81895,-0.31241 1.13137,0"
           inkscape:connector-curvature="0" />
        <path
           id="path3478"
           style="fill:#cc1c00;fill-opacity:1;fill-rule:nonzero;stroke:none"
           d="m 299.5657,74.43431 c 0.3124,0.31242 0.3124,0.81896 0,1.13138 -0.3124,0.31242 -0.819,0.31242 -1.1314,0 -0.3124,-0.31242 -0.3124,-0.81896 0,-1.13138 0.3124,-0.31242 0.819,-0.31242 1.1314,0"
           inkscape:connector-curvature="0" />
        <text
           id="text3480"
           transform="matrix(1,0,0,-1,60,8)">
          <tspan
             id="tspan3482"
             sodipodi:role="line"
             y="0"
             x="0 6.9024"
             style="font-size:12px;font-variant:normal;font-weight:normal;writing-mode:lr-tb;fill:#000000;fill-opacity:1;fill-rule:nonzero;stroke:none;font-family:LucidaGrande;-inkscape-font-specification:LucidaGrande">BR</tspan>
        </text>
        <text
           id="text3484"
           transform="matrix(1,0,0,-1,212,245)">
          <tspan
             id="tspan3486"
             sodipodi:role="line"
             y="0"
             x="0 11.5318 14.9016 21.0154 26.2892"
             style="font-size:14px;font-variant:normal;font-weight:bold;writing-mode:lr-tb;fill:#000000;fill-opacity:1;fill-rule:nonzero;stroke:none;font-family:Candara;-inkscape-font-specification:Candara-Bold">micro</tspan>
        </text>
      </g>
    </g>
    <g
       transform="matrix(0.64018723,0,0,-0.64018723,240.56092,994.10662)"
       inkscape:label="05000-multi-label-results-mysql"
       id="g3655">
      <g
         id="g3657" />
      <g
         id="g3659">
        <path
           id="path3661"
           style="fill:#ffffff;fill-opacity:1;fill-rule:nonzero;stroke:none"
           d="M 0,0 308,0 308,332 0,332 0,0 z"
           inkscape:connector-curvature="0" />
        <path
           id="path3663"
           style="fill:none;stroke:#eaeaea;stroke-width:1;stroke-linecap:butt;stroke-linejoin:miter;stroke-miterlimit:10;stroke-opacity:1;stroke-dasharray:none"
           d="M 302,26 30.47265,26 M 302,74.66667 l -271.52735,0 M 302,123.3333 l -271.52735,0 M 302,172 30.47265,172 M 302,220.6667 l -271.52735,0 M 302,269.3333 l -271.52735,0 M 302,318 30.47265,318"
           inkscape:connector-curvature="0" />
        <path
           id="path3665"
           style="fill:#969696;fill-opacity:1;fill-rule:nonzero;stroke:none"
           d="m 79.38343,26 19.2,0 0,165.4667 -19.2,0 0,-165.4667 z"
           inkscape:connector-curvature="0" />
        <path
           id="path3667"
           style="fill:#969696;fill-opacity:1;fill-rule:nonzero;stroke:none"
           d="m 177.7133,26 19.2,0 0,126.5334 -19.2,0 0,-126.5334 z"
           inkscape:connector-curvature="0" />
        <path
           id="path3669"
           style="fill:#969696;fill-opacity:1;fill-rule:nonzero;stroke:none"
           d="m 276.0442,26 19.20001,0 0,116.8 -19.20001,0 0,-116.8 z"
           inkscape:connector-curvature="0" />
        <path
           id="path3671"
           style="fill:#3c3c3c;fill-opacity:1;fill-rule:nonzero;stroke:none"
           d="m 49.30245,26 19.2,0 0,199.5333 -19.2,0 0,-199.5333 z"
           inkscape:connector-curvature="0" />
        <path
           id="path3673"
           style="fill:#3c3c3c;fill-opacity:1;fill-rule:nonzero;stroke:none"
           d="m 147.6329,26 19.2,0 0,199.5333 -19.2,0 0,-199.5333 z"
           inkscape:connector-curvature="0" />
        <path
           id="path3675"
           style="fill:#3c3c3c;fill-opacity:1;fill-rule:nonzero;stroke:none"
           d="m 245.9637,26 19.20001,0 0,180.0667 -19.20001,0 0,-180.0667 z"
           inkscape:connector-curvature="0" />
        <path
           id="path3677"
           style="fill:#515151;fill-opacity:1;fill-rule:nonzero;stroke:none"
           d="m 171.3827,304 0,-25 31.1827,0 0,25 -6.8625,0 -24.3202,0 z"
           inkscape:connector-curvature="0" />
        <path
           id="path3679"
           style="fill:#969696;fill-opacity:1;fill-rule:nonzero;stroke:none"
           d="m 171.3827,275 0,-25 31.1827,0 0,25 -6.8625,0 -24.3202,0 z"
           inkscape:connector-curvature="0" />
        <path
           id="path3681"
           style="fill:none;stroke:#000000;stroke-width:1;stroke-linecap:butt;stroke-linejoin:miter;stroke-miterlimit:10;stroke-opacity:1;stroke-dasharray:none"
           d="m 30.52265,26.5 271.42735,0 m -226.45,4 0,-6 m 98,6 0,-6 m 99,6 0,-6"
           inkscape:connector-curvature="0" />
        <path
           id="path3683"
           style="fill:none;stroke:#000000;stroke-width:1;stroke-linecap:butt;stroke-linejoin:miter;stroke-miterlimit:10;stroke-opacity:1;stroke-dasharray:none"
           d="m 30.5,25.55 0,292.9 m 4,-291.95 -6,0 m 6,48 -6,0 m 6,49 -6,0 m 6,49 -6,0 m 6,48 -6,0 m 6,49 -6,0 m 6,49 -6,0"
           inkscape:connector-curvature="0" />
        <text
           id="text3685"
           transform="matrix(1,0,0,-1,162,9)">
          <tspan
             id="tspan3687"
             sodipodi:role="line"
             y="0"
             x="0 8.3028002 14.6976"
             style="font-size:12px;font-variant:normal;font-weight:normal;writing-mode:lr-tb;fill:#000000;fill-opacity:1;fill-rule:nonzero;stroke:none;font-family:LucidaGrande;-inkscape-font-specification:LucidaGrande">CLR</tspan>
        </text>
        <text
           id="text3689"
           transform="matrix(1,0,0,-1,250,9)">
          <tspan
             id="tspan3691"
             sodipodi:role="line"
             y="0"
             x="0 8.8188 18.1416 28.4772 34.981201"
             style="font-size:12px;font-variant:normal;font-weight:normal;writing-mode:lr-tb;fill:#000000;fill-opacity:1;fill-rule:nonzero;stroke:none;font-family:LucidaGrande;-inkscape-font-specification:LucidaGrande">HOMER</tspan>
        </text>
        <text
           id="text3693"
           transform="matrix(1,0,0,-1,17,313)">
          <tspan
             id="tspan3695"
             y="0"
             x="0"
             style="font-size:12px;font-variant:normal;font-weight:normal;writing-mode:lr-tb;fill:#000000;fill-opacity:1;fill-rule:nonzero;stroke:none;font-family:LucidaGrande;-inkscape-font-specification:LucidaGrande">1</tspan>
        </text>
        <text
           id="text3697"
           transform="matrix(1,0,0,-1,6,21)">
          <tspan
             id="tspan3699"
             sodipodi:role="line"
             y="0"
             x="0 7.5876002 11.3832"
             style="font-size:12px;font-variant:normal;font-weight:normal;writing-mode:lr-tb;fill:#000000;fill-opacity:1;fill-rule:nonzero;stroke:none;font-family:LucidaGrande;-inkscape-font-specification:LucidaGrande">0.4</tspan>
        </text>
        <text
           id="text3701"
           transform="matrix(1,0,0,-1,6,69)">
          <tspan
             id="tspan3703"
             sodipodi:role="line"
             y="0"
             x="0 7.5876002 11.3832"
             style="font-size:12px;font-variant:normal;font-weight:normal;writing-mode:lr-tb;fill:#000000;fill-opacity:1;fill-rule:nonzero;stroke:none;font-family:LucidaGrande;-inkscape-font-specification:LucidaGrande">0.5</tspan>
        </text>
        <text
           id="text3705"
           transform="matrix(1,0,0,-1,6,118)">
          <tspan
             id="tspan3707"
             sodipodi:role="line"
             y="0"
             x="0 7.5876002 11.3832"
             style="font-size:12px;font-variant:normal;font-weight:normal;writing-mode:lr-tb;fill:#000000;fill-opacity:1;fill-rule:nonzero;stroke:none;font-family:LucidaGrande;-inkscape-font-specification:LucidaGrande">0.6</tspan>
        </text>
        <text
           id="text3709"
           transform="matrix(1,0,0,-1,6,167)">
          <tspan
             id="tspan3711"
             sodipodi:role="line"
             y="0"
             x="0 7.5876002 11.3832"
             style="font-size:12px;font-variant:normal;font-weight:normal;writing-mode:lr-tb;fill:#000000;fill-opacity:1;fill-rule:nonzero;stroke:none;font-family:LucidaGrande;-inkscape-font-specification:LucidaGrande">0.7</tspan>
        </text>
        <text
           id="text3713"
           transform="matrix(1,0,0,-1,6,215)">
          <tspan
             id="tspan3715"
             sodipodi:role="line"
             y="0"
             x="0 7.5876002 11.3832"
             style="font-size:12px;font-variant:normal;font-weight:normal;writing-mode:lr-tb;fill:#000000;fill-opacity:1;fill-rule:nonzero;stroke:none;font-family:LucidaGrande;-inkscape-font-specification:LucidaGrande">0.8</tspan>
        </text>
        <text
           id="text3717"
           transform="matrix(1,0,0,-1,6,264)">
          <tspan
             id="tspan3719"
             sodipodi:role="line"
             y="0"
             x="0 7.5876002 11.3832"
             style="font-size:12px;font-variant:normal;font-weight:normal;writing-mode:lr-tb;fill:#000000;fill-opacity:1;fill-rule:nonzero;stroke:none;font-family:LucidaGrande;-inkscape-font-specification:LucidaGrande">0.9</tspan>
        </text>
        <path
           id="path3721"
           style="fill:none;stroke:#cc1c00;stroke-width:1.60000002;stroke-linecap:butt;stroke-linejoin:miter;stroke-miterlimit:10;stroke-opacity:1;stroke-dasharray:2, 2, 2, 2;stroke-dashoffset:0"
           d="M 30.97265,74.66667 299,75"
           inkscape:connector-curvature="0" />
        <path
           id="path3723"
           style="fill:#cc1c00;fill-opacity:1;fill-rule:nonzero;stroke:none"
           d="m 31.53834,74.10098 c 0.31242,0.31243 0.31242,0.81896 0,1.13138 -0.31242,0.31242 -0.81895,0.31242 -1.13137,0 -0.31242,-0.31242 -0.31242,-0.81895 0,-1.13138 0.31242,-0.31241 0.81895,-0.31241 1.13137,0"
           inkscape:connector-curvature="0" />
        <path
           id="path3725"
           style="fill:#cc1c00;fill-opacity:1;fill-rule:nonzero;stroke:none"
           d="m 299.5657,74.43431 c 0.3124,0.31242 0.3124,0.81896 0,1.13138 -0.3124,0.31242 -0.819,0.31242 -1.1314,0 -0.3124,-0.31242 -0.3124,-0.81896 0,-1.13138 0.3124,-0.31242 0.819,-0.31242 1.1314,0"
           inkscape:connector-curvature="0" />
        <text
           id="text3727"
           transform="matrix(1,0,0,-1,60,8)">
          <tspan
             id="tspan3729"
             sodipodi:role="line"
             y="0"
             x="0 6.9024"
             style="font-size:12px;font-variant:normal;font-weight:normal;writing-mode:lr-tb;fill:#000000;fill-opacity:1;fill-rule:nonzero;stroke:none;font-family:LucidaGrande;-inkscape-font-specification:LucidaGrande">BR</tspan>
        </text>
        <text
           id="text3731"
           transform="matrix(1,0,0,-1,210,259)">
          <tspan
             id="tspan3733"
             sodipodi:role="line"
             y="0"
             x="0 11.6536 18.533199 24.768801 30.1644"
             style="font-size:14px;font-variant:normal;font-weight:bold;writing-mode:lr-tb;fill:#000000;fill-opacity:1;fill-rule:nonzero;stroke:none;font-family:Candara;-inkscape-font-specification:Candara-Bold">macro</tspan>
        </text>
        <text
           id="text3735"
           transform="matrix(1,0,0,-1,210,288)">
          <tspan
             id="tspan3737"
             sodipodi:role="line"
             y="0"
             x="0 11.5318 14.9016 21.0154 26.2892"
             style="font-size:14px;font-variant:normal;font-weight:bold;writing-mode:lr-tb;fill:#000000;fill-opacity:1;fill-rule:nonzero;stroke:none;font-family:Candara;-inkscape-font-specification:Candara-Bold">micro</tspan>
        </text>
      </g>
    </g>
    <text
       xml:space="preserve"
       style="font-size:24px;font-style:normal;font-weight:bold;line-height:125%;letter-spacing:0px;word-spacing:0px;fill:#000000;fill-opacity:1;stroke:none;font-family:Sans;-inkscape-font-specification:Sans Bold"
       x="21.259838"
       y="735.03339"
       id="text3066"
       sodipodi:linespacing="125%"><tspan
         sodipodi:role="line"
         id="tspan3068"
         x="21.259838"
         y="735.03339">Supervised Multitag Classifiers: </tspan><tspan
         sodipodi:role="line"
         x="21.259838"
         y="765.03339"
         id="tspan3070">MySQL and MaxDB</tspan></text>
    <text
       xml:space="preserve"
       style="font-size:20px;font-style:normal;font-weight:bold;text-align:center;line-height:125%;letter-spacing:0px;word-spacing:0px;text-anchor:middle;fill:#000000;fill-opacity:1;stroke:none;font-family:Sans;-inkscape-font-specification:Sans Bold"
       x="354.33072"
       y="1009.8425"
       id="text3072"
       sodipodi:linespacing="125%"><tspan
         sodipodi:role="line"
         id="tspan3074"
         x="354.33072"
         y="1009.8425">MaxDB</tspan><tspan
         sodipodi:role="line"
         x="354.33072"
         y="1034.8425"
         id="tspan3076">Classifiers</tspan></text>
    <text
       xml:space="preserve"
       style="font-size:20px;font-style:normal;font-weight:bold;text-align:center;line-height:125%;letter-spacing:0px;word-spacing:0px;text-anchor:middle;fill:#000000;fill-opacity:1;stroke:none;font-family:Sans;-inkscape-font-specification:Sans Bold"
       x="127.55905"
       y="1009.8425"
       id="text3072-3"
       sodipodi:linespacing="125%"><tspan
         sodipodi:role="line"
         id="tspan3074-0"
         x="127.55905"
         y="1009.8425">MySQL</tspan><tspan
         sodipodi:role="line"
         x="127.55905"
         y="1034.8425"
         id="tspan3076-3">Classifiers</tspan></text>
  </g>
</svg>
